<svg xmlns="http://www.w3.org/2000/svg" width="54.348" height="36.247" viewBox="0 0 54.348 36.247">
	<path id="Icon_ionic-ios-arrow-round-forward" data-name="Icon ionic-ios-arrow-round-forward" d="M27.564,11.946a2.467,2.467,0,0,1,.019,3.473l-11.477,11.5H59.787a2.454,2.454,0,0,1,0,4.908H16.124L27.6,43.32a2.484,2.484,0,0,1-.019,3.473,2.444,2.444,0,0,1-3.455-.019L8.573,31.106h0a2.756,2.756,0,0,1-.51-.774,2.342,2.342,0,0,1-.189-.944,2.46,2.46,0,0,1,.7-1.718L24.128,12A2.4,2.4,0,0,1,27.564,11.946Z" transform="translate(-7.875 -11.252)" />
</svg>
