<svg xmlns="http://www.w3.org/2000/svg" width="54.348" height="36.247" viewBox="0 0 54.348 36.247">
	<path id="Icon_ionic-ios-arrow-round-forward" data-name="Icon ionic-ios-arrow-round-forward" d="M42.534,11.946a2.467,2.467,0,0,0-.019,3.473l11.477,11.5H10.31a2.454,2.454,0,0,0,0,4.908H53.973L42.5,43.32a2.484,2.484,0,0,0,.019,3.473,2.444,2.444,0,0,0,3.455-.019L61.524,31.106h0a2.756,2.756,0,0,0,.51-.774,2.342,2.342,0,0,0,.189-.944,2.461,2.461,0,0,0-.7-1.718L45.969,12A2.4,2.4,0,0,0,42.534,11.946Z" transform="translate(-7.875 -11.252)" />
</svg>
