<svg xmlns="http://www.w3.org/2000/svg" width="86.759" height="252.811" viewBox="0 0 86.759 252.811">
	<g id="Group_3185" data-name="Group 3185" transform="translate(-942.741 -76.595)">
		<path id="Vector" d="M3.73,7.46A3.73,3.73,0,1,1,6.361,6.374,3.73,3.73,0,0,1,3.73,7.46Z" transform="translate(1002.443 76.595) rotate(90)" fill="#ffb500" />
		<path id="Vector-2" data-name="Vector" d="M3.73,7.46a3.711,3.711,0,1,1,1.426-.277A3.73,3.73,0,0,1,3.73,7.46Z" transform="translate(1002.443 111.654) rotate(90)" fill="#ffb500" />
		<path id="Vector-3" data-name="Vector" d="M3.73,7.46a3.711,3.711,0,1,1,1.426-.277A3.73,3.73,0,0,1,3.73,7.46Z" transform="translate(1002.443 146.692) rotate(90)" fill="#ffb500" />
		<path id="Vector-4" data-name="Vector" d="M3.73,7.46A3.73,3.73,0,1,1,6.361,6.374,3.73,3.73,0,0,1,3.73,7.46Z" transform="translate(1002.443 181.751) rotate(90)" fill="#ffb500" />
		<path id="Vector-5" data-name="Vector" d="M3.73,7.46a3.711,3.711,0,1,1,1.426-.277A3.73,3.73,0,0,1,3.73,7.46Z" transform="translate(1002.443 216.789) rotate(90)" fill="#ffb500" />
		<path id="Vector-6" data-name="Vector" d="M3.73,7.46A3.73,3.73,0,1,1,6.361,6.374,3.73,3.73,0,0,1,3.73,7.46Z" transform="translate(1002.443 251.848) rotate(90)" fill="#ffb500" />
		<path id="Vector-7" data-name="Vector" d="M3.749,7.46A3.711,3.711,0,1,1,6.373,6.373,3.73,3.73,0,0,1,3.749,7.46Z" transform="translate(1002.443 286.925) rotate(90)" fill="#ffb500" />
		<path id="Vector-8" data-name="Vector" d="M3.73,7.46A3.73,3.73,0,1,1,6.361,6.374,3.73,3.73,0,0,1,3.73,7.46Z" transform="translate(1002.443 321.945) rotate(90)" fill="#ffb500" />
		<path id="Vector-9" data-name="Vector" d="M3.73,7.46A3.73,3.73,0,1,1,6.361,6.374,3.73,3.73,0,0,1,3.73,7.46Z" transform="translate(1029.5 76.595) rotate(90)" fill="#ffb500" />
		<path id="Vector-10" data-name="Vector" d="M3.73,7.46a3.711,3.711,0,1,1,1.426-.277A3.73,3.73,0,0,1,3.73,7.46Z" transform="translate(1029.5 111.654) rotate(90)" fill="#ffb500" />
		<path id="Vector-11" data-name="Vector" d="M3.73,7.46a3.711,3.711,0,1,1,1.426-.277A3.73,3.73,0,0,1,3.73,7.46Z" transform="translate(1029.5 146.692) rotate(90)" fill="#ffb500" />
		<path id="Vector-12" data-name="Vector" d="M3.73,7.46A3.73,3.73,0,1,1,6.361,6.374,3.73,3.73,0,0,1,3.73,7.46Z" transform="translate(1029.5 181.751) rotate(90)" fill="#ffb500" />
		<path id="Vector-13" data-name="Vector" d="M3.73,7.46a3.711,3.711,0,1,1,1.426-.277A3.73,3.73,0,0,1,3.73,7.46Z" transform="translate(1029.5 216.789) rotate(90)" fill="#ffb500" />
		<path id="Vector-14" data-name="Vector" d="M3.73,7.46A3.73,3.73,0,1,1,6.361,6.374,3.73,3.73,0,0,1,3.73,7.46Z" transform="translate(1029.5 251.848) rotate(90)" fill="#ffb500" />
		<path id="Vector-15" data-name="Vector" d="M3.749,7.46A3.711,3.711,0,1,1,6.373,6.373,3.73,3.73,0,0,1,3.749,7.46Z" transform="translate(1029.5 286.925) rotate(90)" fill="#ffb500" />
		<path id="Vector-16" data-name="Vector" d="M3.73,7.46A3.73,3.73,0,1,1,6.361,6.374,3.73,3.73,0,0,1,3.73,7.46Z" transform="translate(1029.5 321.945) rotate(90)" fill="#ffb500" />
		<path id="Vector-17" data-name="Vector" d="M3.73,7.46A3.73,3.73,0,1,1,6.361,6.374,3.73,3.73,0,0,1,3.73,7.46Z" transform="translate(950.202 76.595) rotate(90)" fill="#ffb500" />
		<path id="Vector-18" data-name="Vector" d="M3.73,7.46a3.711,3.711,0,1,1,1.426-.277A3.73,3.73,0,0,1,3.73,7.46Z" transform="translate(950.202 111.654) rotate(90)" fill="#ffb500" />
		<path id="Vector-19" data-name="Vector" d="M3.73,7.46a3.711,3.711,0,1,1,1.426-.277A3.73,3.73,0,0,1,3.73,7.46Z" transform="translate(950.202 146.692) rotate(90)" fill="#ffb500" />
		<path id="Vector-20" data-name="Vector" d="M3.73,7.46A3.73,3.73,0,1,1,6.361,6.374,3.73,3.73,0,0,1,3.73,7.46Z" transform="translate(950.202 181.751) rotate(90)" fill="#ffb500" />
		<path id="Vector-21" data-name="Vector" d="M3.73,7.46a3.711,3.711,0,1,1,1.426-.277A3.73,3.73,0,0,1,3.73,7.46Z" transform="translate(950.202 216.789) rotate(90)" fill="#ffb500" />
		<path id="Vector-22" data-name="Vector" d="M3.73,7.46A3.73,3.73,0,1,1,6.361,6.374,3.73,3.73,0,0,1,3.73,7.46Z" transform="translate(950.202 251.848) rotate(90)" fill="#ffb500" />
		<path id="Vector-23" data-name="Vector" d="M3.749,7.46A3.711,3.711,0,1,1,6.373,6.373,3.73,3.73,0,0,1,3.749,7.46Z" transform="translate(950.201 286.925) rotate(90)" fill="#ffb500" />
		<path id="Vector-24" data-name="Vector" d="M3.73,7.46A3.73,3.73,0,1,1,6.361,6.374,3.73,3.73,0,0,1,3.73,7.46Z" transform="translate(950.202 321.945) rotate(90)" fill="#ffb500" />
		<path id="Vector-25" data-name="Vector" d="M3.73,7.46A3.73,3.73,0,1,1,6.361,6.374,3.73,3.73,0,0,1,3.73,7.46Z" transform="translate(977.259 76.595) rotate(90)" fill="#ffb500" />
		<path id="Vector-26" data-name="Vector" d="M3.73,7.46a3.711,3.711,0,1,1,1.426-.277A3.73,3.73,0,0,1,3.73,7.46Z" transform="translate(977.259 111.654) rotate(90)" fill="#ffb500" />
		<path id="Vector-27" data-name="Vector" d="M3.73,7.46a3.711,3.711,0,1,1,1.426-.277A3.73,3.73,0,0,1,3.73,7.46Z" transform="translate(977.259 146.692) rotate(90)" fill="#ffb500" />
		<path id="Vector-28" data-name="Vector" d="M3.73,7.46A3.73,3.73,0,1,1,6.361,6.374,3.73,3.73,0,0,1,3.73,7.46Z" transform="translate(977.259 181.751) rotate(90)" fill="#ffb500" />
		<path id="Vector-29" data-name="Vector" d="M3.73,7.46a3.711,3.711,0,1,1,1.426-.277A3.73,3.73,0,0,1,3.73,7.46Z" transform="translate(977.259 216.789) rotate(90)" fill="#ffb500" />
		<path id="Vector-30" data-name="Vector" d="M3.73,7.46A3.73,3.73,0,1,1,6.361,6.374,3.73,3.73,0,0,1,3.73,7.46Z" transform="translate(977.259 251.848) rotate(90)" fill="#ffb500" />
		<path id="Vector-31" data-name="Vector" d="M3.749,7.46A3.711,3.711,0,1,1,6.373,6.373,3.73,3.73,0,0,1,3.749,7.46Z" transform="translate(977.258 286.925) rotate(90)" fill="#ffb500" />
		<path id="Vector-32" data-name="Vector" d="M3.73,7.46A3.73,3.73,0,1,1,6.361,6.374,3.73,3.73,0,0,1,3.73,7.46Z" transform="translate(977.259 321.945) rotate(90)" fill="#ffb500" />
	</g>
</svg>
