<svg id="Group_3090" data-name="Group 3090" xmlns="http://www.w3.org/2000/svg" width="172" height="172" viewBox="0 0 172 172">
	<circle id="Ellipse_4" data-name="Ellipse 4" cx="86" cy="86" r="86" fill="#0dbdb8" />
	<g id="_21367282501582960206" data-name="21367282501582960206" transform="translate(45.853 35)">
		<path id="Path_263" data-name="Path 263" d="M48.923,92.419,37.437,119.507l-8.335-8.1-11.62-.36L29.956,81.632l.289.589a9.555,9.555,0,0,0,7.168,5.244l5.8.865,4.734,3.462a10.121,10.121,0,0,0,.978.628Z" transform="translate(-17.482 -12.944)" fill="#fff" />
		<path id="Path_264" data-name="Path 264" d="M105.944,111.188l-11.62.36-8.335,8.1L74.28,92.035l.954.142a9.55,9.55,0,0,0,8.385-2.923l4.008-4.282,5.538-1.929c.247-.087.486-.181.723-.286Z" transform="translate(-24.651 -13.086)" fill="#fff" />
		<path id="Path_265" data-name="Path 265" d="M75.373,40.693,66.2,40.028l-3.464-8.535a.874.874,0,0,0-.827-.547.848.848,0,0,0-.8.543l-3.466,8.539-9.178.666a.85.85,0,0,0-.769.594.861.861,0,0,0,.271.946l7.042,5.941-2.2,8.947a.871.871,0,0,0,.34.934.852.852,0,0,0,.97.031l7.826-4.866,7.824,4.887a.884.884,0,0,0,1.31-.964l-2.2-8.947,7.043-5.941a.866.866,0,0,0,.259-.942A.894.894,0,0,0,75.373,40.693Z" transform="translate(-21.289 -6.547)" fill="#fff" />
		<path id="Path_266" data-name="Path 266" d="M95.277,30.9l-4.5-5.362L89.292,18.7a4.954,4.954,0,0,0-2.958-3.528L79.86,12.51l-4.5-5.362A4.954,4.954,0,0,0,71.1,5.4l-6.967.654L57.665,3.394a4.954,4.954,0,0,0-4.584.43L47.215,7.641,40.248,8.3a4.954,4.954,0,0,0-3.859,2.512l-3.42,6.105L27.1,20.729a4.954,4.954,0,0,0-2.25,4.017l-.19,7-3.42,6.105a4.954,4.954,0,0,0-.125,4.6L24.2,48.732l-.19,7a4.954,4.954,0,0,0,2.028,4.134l5.649,4.13,3.082,6.283a4.954,4.954,0,0,0,3.717,2.718l6.921,1.032,5.649,4.13a4.954,4.954,0,0,0,4.554.679l6.608-2.3,6.921,1.032a4.954,4.954,0,0,0,4.348-1.515l4.781-5.11,6.608-2.3a4.954,4.954,0,0,0,3.146-3.362l1.859-6.746,4.781-5.11a4.954,4.954,0,0,0,1.223-4.439L94.4,42.142,96.257,35.4a4.954,4.954,0,0,0-.979-4.5ZM58.524,63.743A22.676,22.676,0,1,1,81.2,41.066,22.676,22.676,0,0,1,58.524,63.743Z" transform="translate(-17.877 -3.022)" fill="#fff" />
	</g>
</svg>
