<svg xmlns="http://www.w3.org/2000/svg" xmlns:xlink="http://www.w3.org/1999/xlink" width="172" height="172" viewBox="0 0 172 172">
	<defs>
		<clipPath id="clip-path">
			<rect id="Rectangle_42" data-name="Rectangle 42" width="74" height="77" transform="translate(206.632 90.999)" fill="#fff" />
		</clipPath>
	</defs>
	<circle id="Ellipse_4" data-name="Ellipse 4" cx="86" cy="86" r="86" fill="#0dbdb8" />
	<g id="Mask_Group_1" data-name="Mask Group 1" transform="translate(-156.632 -42.999)" clip-path="url(#clip-path)">
		<g id="_17801474921582960210" data-name="17801474921582960210" transform="translate(205.631 91.499)">
			<path id="Path_267" data-name="Path 267" d="M74.539,4.374,58.39,5.762a.424.424,0,0,0-.255.732l4.074,3.842-.9.923-.6.616-3.063,3.18q-1.77,1.866-3.527,3.741-1.258,1.348-2.5,2.713-2.978,3.259-5.88,6.593c-.963,1.115-1.922,2.235-2.867,3.367-.251.3-.5.605-.749.908l-1.01-.568L25.339,22.947l-2.516-1.414-1.8,1.964-2.256,2.458L1,45.3l3.73,3.638L23.949,30.395h0L35.2,37.714l5.753,3.743,2.086,1.357.478.31,2.714-2.378q1.667-1.463,3.283-2.973c1.081-1.005,2.146-2.023,3.208-3.044Q55.9,31.657,58.99,28.5c2.067-2.1,4.095-4.231,6.117-6.369l3.01-3.231.407-.444L69.588,17.3l3.89,3.669a.424.424,0,0,0,.715-.287L75,4.819a.424.424,0,0,0-.46-.444Z" fill="#fff" />
			<path id="Path_268" data-name="Path 268" d="M4.811,70.24A1.39,1.39,0,0,0,6.2,71.628h9.624a1.39,1.39,0,0,0,1.388-1.388V42.159L4.811,54.125Z" fill="#fff" />
			<path id="Path_269" data-name="Path 269" d="M22.008,37.53V70.24A1.39,1.39,0,0,0,23.4,71.628H33.02a1.39,1.39,0,0,0,1.388-1.388V41.714l-10-6.5Z" fill="#fff" />
			<path id="Path_270" data-name="Path 270" d="M43.862,47.857,39.2,44.833V70.24a1.39,1.39,0,0,0,1.388,1.388h9.624A1.39,1.39,0,0,0,51.6,70.24V41c-.925.857-1.892,1.728-2.874,2.591Z" fill="#fff" />
			<path id="Path_271" data-name="Path 271" d="M61.686,31.159c-1.906,1.941-3.648,3.678-5.285,5.276v33.8a1.39,1.39,0,0,0,1.388,1.388h9.624A1.39,1.39,0,0,0,68.8,70.24V23.722l-.944,1.013C65.9,26.8,63.817,29,61.686,31.159Z" fill="#fff" />
		</g>
	</g>
</svg>
