<svg xmlns="http://www.w3.org/2000/svg" xmlns:xlink="http://www.w3.org/1999/xlink" width="172" height="172" viewBox="0 0 172 172">
	<defs>
		<clipPath id="clip-path">
			<rect id="Rectangle_43" data-name="Rectangle 43" width="108" height="81" transform="translate(0 -0.219)" fill="#fff" />
		</clipPath>
	</defs>
	<circle id="Ellipse_4" data-name="Ellipse 4" cx="86" cy="86" r="86" fill="#0dbdb8" />
	<g id="Mask_Group_2" data-name="Mask Group 2" transform="translate(33 44.219)" clip-path="url(#clip-path)">
		<g id="_18661471221608672866" data-name="18661471221608672866" transform="translate(12.545)">
			<path id="Path_272" data-name="Path 272" d="M47,2.732A3.076,3.076,0,0,1,50.33,0c1.849,0,3.333,1.221,3.333,2.732V14.687A3.076,3.076,0,0,1,50.33,17.42C48.481,17.42,47,16.2,47,14.687V2.732ZM61.644,38.476a21.17,21.17,0,1,1-8.13,1.606,21.207,21.207,0,0,1,8.13-1.606ZM60.052,50.849a1.856,1.856,0,0,1,.546-1.316h0a1.869,1.869,0,0,1,3.191,1.322V60.8l7.435,4.412.061.04a1.815,1.815,0,0,1,.789,1.1,1.867,1.867,0,0,1-.189,1.39l-.013.02a.242.242,0,0,1-.047.067,1.837,1.837,0,0,1-1.093.783,1.867,1.867,0,0,1-1.39-.189L61.03,63.506a1.923,1.923,0,0,1-.708-.668,1.828,1.828,0,0,1-.277-.965h0l.007-11.024Zm13.993-3.515a17.4,17.4,0,1,0,3.812,5.687,17.51,17.51,0,0,0-3.812-5.687ZM9.074,38.7c-.189,0-.358-.83-.358-1.849s.148-1.842.358-1.842h9.094c.189,0,.358.83.358,1.842s-.148,1.849-.358,1.849Zm14.5,0c-.189,0-.358-.83-.358-1.849s.148-1.842.358-1.842h9.094c.189,0,.358.83.358,1.842s-.148,1.849-.358,1.849Zm14.5,0c-.189,0-.358-.83-.358-1.849s.148-1.842.358-1.842h9.094c.189,0,.358.823.358,1.835A27.466,27.466,0,0,0,44.9,38.7ZM9.094,49.277c-.189,0-.358-.83-.358-1.849s.148-1.849.358-1.849h9.094c.189,0,.358.83.358,1.849s-.148,1.849-.358,1.849Zm14.5,0c-.189,0-.358-.83-.358-1.849s.148-1.849.358-1.849h9.094c.189,0,.358.83.358,1.849s-.148,1.849-.358,1.849ZM9.115,59.863c-.189,0-.358-.83-.358-1.849s.148-1.849.358-1.849h9.094c.189,0,.358.83.358,1.849s-.148,1.849-.358,1.849Zm14.5,0c-.189,0-.358-.83-.358-1.849s.148-1.849.358-1.849h9.094c.189,0,.358.83.358,1.849s-.148,1.849-.358,1.849ZM17.062,2.732A3.076,3.076,0,0,1,20.4,0c1.849,0,3.333,1.221,3.333,2.732V14.687c0,1.5-1.491,2.732-3.333,2.732s-3.333-1.221-3.333-2.732V2.732ZM3.67,26.136H67.142V12.373a1.66,1.66,0,0,0-.493-1.187,1.7,1.7,0,0,0-1.187-.493H59.377a1.849,1.849,0,0,1,0-3.7h6.085a5.39,5.39,0,0,1,5.384,5.384V34.232A27.809,27.809,0,0,0,67.1,33.227V29.813H3.67V65.456a1.66,1.66,0,0,0,.493,1.187,1.7,1.7,0,0,0,1.187.493H35.514a27.078,27.078,0,0,0,1.3,3.731H5.384a5.359,5.359,0,0,1-3.805-1.579A5.32,5.32,0,0,1,0,65.49v-53.1A5.39,5.39,0,0,1,5.384,7h6.5a1.849,1.849,0,0,1,0,3.7h-6.5a1.66,1.66,0,0,0-1.187.493A1.7,1.7,0,0,0,3.7,12.38V26.143H3.67ZM29.058,10.693a1.849,1.849,0,0,1,0-3.7H41.445a1.849,1.849,0,1,1,0,3.7Z" fill="#fff" />
		</g>
	</g>
</svg>
