<svg xmlns="http://www.w3.org/2000/svg" width="191.915" height="46.433" viewBox="0 0 191.915 46.433">
	<g id="Group_3148" data-name="Group 3148" transform="translate(-1588.085 -11592)">
		<g id="Group" transform="translate(1588.085 11592)">
			<path id="Vector" d="M137.664,27.4a6.061,6.061,0,0,1-4.447-1.691c-1.087-1.158-1.615-3.066-1.615-5.834V0h5.385V6.373h4.757v5.155h-4.757v7.605c0,2.6.72,3.655,2.484,3.655a8.248,8.248,0,0,0,2.075-.248l.07,4.277A13.007,13.007,0,0,1,137.664,27.4Zm-34.922,0A6.074,6.074,0,0,1,96.3,21.292a6.425,6.425,0,0,1,3.211-5.778c2.045-1.268,4.963-1.911,8.673-1.911h.045v-.29c0-1.167-.5-3.124-3.879-3.124h-.024a11.041,11.041,0,0,0-5.51,1.552L97.74,8.052A15.481,15.481,0,0,1,105.3,6.247c3.057,0,5.332.872,6.761,2.591a9.21,9.21,0,0,1,1.8,6.032v7.2a29.133,29.133,0,0,0,.319,4.878,7.006,7.006,0,0,1-1.937.305,3.461,3.461,0,0,1-3.5-2.466h-.124A7.324,7.324,0,0,1,102.742,27.4Zm5.544-10.213c-4.256,0-6.414,1.188-6.414,3.532a2.5,2.5,0,0,0,2.712,2.677,3.854,3.854,0,0,0,3.685-2.587,3.819,3.819,0,0,0,.137-1.1V17.19h-.119ZM39.92,27.4a6.072,6.072,0,0,1-6.438-6.111,6.425,6.425,0,0,1,3.21-5.778c2.045-1.268,4.963-1.911,8.674-1.911h.045v-.29c0-1.167-.5-3.124-3.879-3.124h-.024A11.044,11.044,0,0,0,36,11.74L34.921,8.052a15.468,15.468,0,0,1,7.557-1.805c3.056,0,5.33.872,6.759,2.591a9.212,9.212,0,0,1,1.8,6.032v7.2a29.621,29.621,0,0,0,.32,4.878,7,7,0,0,1-1.937.305,3.463,3.463,0,0,1-3.5-2.465H45.8A7.336,7.336,0,0,1,39.92,27.4Zm5.546-10.213c-4.256,0-6.414,1.188-6.414,3.532A2.5,2.5,0,0,0,41.764,23.4a3.855,3.855,0,0,0,3.686-2.587,3.772,3.772,0,0,0,.135-1.1V17.19h-.119ZM10.211,27.224h0a4.105,4.105,0,0,1-3.12-1.105,6.9,6.9,0,0,1-1.555-3.331C4.816,19.78.5,2.056.01.045L0,0H6.041c.559,2.834,2.153,11.05,2.168,11.13.709,3.588,1.348,7.308,1.76,9.8h.082c.339-2.23.813-4.334,1.361-6.771.186-.826.378-1.68.575-2.584L14.689,0h5.977L23.19,11.875l.143.709c.6,3,1.079,5.363,1.462,8.211h.082c.329-2.243.739-4.3,1.173-6.471.17-.852.346-1.731.527-2.672L29,0h5.736L27.633,26.947a10.662,10.662,0,0,1-2.257.273c-2.569,0-4.038-1.272-4.626-4-.614-2.864-1.823-8.361-1.835-8.415-.077-.373-.152-.733-.224-1.082l0-.017a69.267,69.267,0,0,1-1.221-7.154H17.38c-.5,3.179-1.042,5.422-1.748,8.244L12.65,26.946A12.555,12.555,0,0,1,10.211,27.224Zm71.58-.277H76.306V15.409c0-2.913-1.185-4.584-3.252-4.584a3.705,3.705,0,0,0-3.336,2.592,4.7,4.7,0,0,0-.258,1.657V26.946H63.969V6.7h5.213v2.75h.081a6.334,6.334,0,0,1,5.884-3.207,5.748,5.748,0,0,1,5.569,3.621H80.8a8.539,8.539,0,0,1,2.558-2.521,7.292,7.292,0,0,1,3.988-1.1,6.127,6.127,0,0,1,4.74,2.031c1.356,1.532,2.043,3.8,2.043,6.746V26.945H88.638V15.855c0-3.29-1.149-5.03-3.323-5.03A3.469,3.469,0,0,0,82.02,13.29a5.563,5.563,0,0,0-.229,1.641V26.946Zm41.346,0H117.5V6.7h4.943v3.817h.153a5.922,5.922,0,0,1,5.5-4.274,5.438,5.438,0,0,1,1.242.126v5.3l-.061-.009a10.039,10.039,0,0,0-1.566-.136,4.276,4.276,0,0,0-4.453,3.56,7.629,7.629,0,0,0-.122,1.493V26.945Zm-62.993,0H54.682V0h5.462V26.943Z" transform="translate(0 9.742)" fill="#0dbdb8" />
			<path id="Vector-2" data-name="Vector" d="M20.643,46.433c-1.745,0-3.165-.981-3.165-2.188L18.549,32.1a1.977,1.977,0,0,1,2.091-1.293,1.986,1.986,0,0,1,2.1,1.293l1.074,12.147C23.814,45.451,22.391,46.433,20.643,46.433Zm17.4-9.743h0a1.586,1.586,0,0,1-.807-.21l-9.967-7a2,2,0,0,1-.07-2.473,2.249,2.249,0,0,1,1.756-1.24h.012a1.146,1.146,0,0,1,.4.069l11.036,5.143c1.04.6,1.179,2.327.31,3.845A3.382,3.382,0,0,1,38.047,36.69Zm-34.806,0h0A3.371,3.371,0,0,1,.577,34.826c-.874-1.513-.736-3.237.307-3.843l11.034-5.143a1.146,1.146,0,0,1,.4-.069h.012a2.258,2.258,0,0,1,1.761,1.241,1.994,1.994,0,0,1-.075,2.471l-9.966,7A1.592,1.592,0,0,1,3.241,36.689ZM28.977,20.664A2.25,2.25,0,0,1,27.2,19.427a1.991,1.991,0,0,1,.07-2.469l9.967-7a1.591,1.591,0,0,1,.807-.21h.047a3.411,3.411,0,0,1,2.623,1.864c.871,1.516.732,3.239-.31,3.84L29.366,20.6A1.107,1.107,0,0,1,28.977,20.664Zm-16.671,0a1.109,1.109,0,0,1-.389-.068L.883,15.448c-1.044-.6-1.182-2.327-.308-3.84A3.4,3.4,0,0,1,3.192,9.745H3.24a1.592,1.592,0,0,1,.808.21l9.966,7a1.982,1.982,0,0,1,.072,2.467A2.246,2.246,0,0,1,12.306,20.664Zm8.337-5.033a1.978,1.978,0,0,1-2.1-1.3L17.477,2.188C17.477.981,18.9,0,20.642,0s3.174.981,3.174,2.188L22.738,14.335A1.983,1.983,0,0,1,20.643,15.632Z" transform="translate(150.628)" fill="#0dbdb8" />
		</g>
	</g>
</svg>
