<svg xmlns="http://www.w3.org/2000/svg" width="173.423" height="28.692" viewBox="0 0 173.423 28.692">
	<g id="Group_3147" data-name="Group 3147" transform="translate(-1028.794 -11600.671)">
		<path id="Vector" d="M161.118,28.693a9.175,9.175,0,0,1-6.787-2.925,10.291,10.291,0,0,1-2.813-7.449,10.291,10.291,0,0,1,2.813-7.449,9.174,9.174,0,0,1,6.787-2.924,8.6,8.6,0,0,1,6.07,2.151V0h6.234V28.085h-6.234V26.54A8.681,8.681,0,0,1,161.118,28.693Zm1.324-15.451a4.391,4.391,0,0,0-3.365,1.435,5.123,5.123,0,0,0-1.325,3.642,5.27,5.27,0,0,0,1.325,3.7,4.372,4.372,0,0,0,3.365,1.379,4.759,4.759,0,0,0,3.366-1.435,4.956,4.956,0,0,0,1.435-3.642,5.142,5.142,0,0,0-1.435-3.642A4.689,4.689,0,0,0,162.442,13.242ZM139.876,28.693c-6.7,0-11.036-4.072-11.036-10.374a9.979,9.979,0,0,1,2.98-7.449,10.242,10.242,0,0,1,7.394-2.924,9.706,9.706,0,0,1,7.117,2.869,10.415,10.415,0,0,1,2.98,7.56v1.544H134.964c.385,2.42,2.174,3.808,4.911,3.808a9.7,9.7,0,0,0,5.9-2.1l2.372,4.137A12.571,12.571,0,0,1,139.876,28.693Zm-.662-15.726a4.326,4.326,0,0,0-4.139,3.09h8.055a3.912,3.912,0,0,0-3.916-3.09ZM117.032,28.693c-6.7,0-11.036-4.072-11.036-10.374a9.979,9.979,0,0,1,2.98-7.449,10.242,10.242,0,0,1,7.394-2.924,9.706,9.706,0,0,1,7.117,2.869,10.408,10.408,0,0,1,2.98,7.56v1.544H112.121c.385,2.42,2.174,3.808,4.911,3.808a9.7,9.7,0,0,0,5.9-2.1l2.372,4.137A12.571,12.571,0,0,1,117.032,28.693Zm-.662-15.726a4.326,4.326,0,0,0-4.139,3.09h8.056a3.914,3.914,0,0,0-3.918-3.09ZM32.279,28.693a7.192,7.192,0,0,1-5.517-2.263,8.377,8.377,0,0,1-2.1-5.9V8.5h6.18V19.2a4.231,4.231,0,0,0,.938,2.815,3.028,3.028,0,0,0,2.428,1.048,3.645,3.645,0,0,0,2.98-1.325A6.494,6.494,0,0,0,38.239,17.6V8.5h6.234l.056,19.588H38.293V26.21A7.889,7.889,0,0,1,32.279,28.693Zm59.978-.553H85.8V1.932h18.76V7.56h-12.3v5.573h11.312v5.628H92.257v9.378Zm-9.27-.055h-16.5V26.927l7.725-13.463h-7.56V8.5H82.876V9.656L75.1,23.119h7.835l.055,4.965Zm-19.256,0h-16.5V26.927l7.779-13.463h-7.56V8.5H63.674V9.656L55.9,23.119H63.73v4.965Zm-50.157,0H0V1.932H13.518a8.377,8.377,0,0,1,5.739,1.931,6.672,6.672,0,0,1,2.153,5.186,5.424,5.424,0,0,1-1.38,3.918,4.591,4.591,0,0,1-2.924,1.6l.055.166a5.257,5.257,0,0,1,3.531,1.71,6.028,6.028,0,0,1,1.491,4.3A6.826,6.826,0,0,1,19.974,26.1C18.47,27.436,16.376,28.085,13.574,28.085ZM6.455,17.16V22.9h5.96a3.478,3.478,0,0,0,2.372-.773,2.755,2.755,0,0,0,.829-2.151,2.441,2.441,0,0,0-.883-2.042,3.272,3.272,0,0,0-2.207-.773Zm0-10.043v5.629h5.628a3.326,3.326,0,0,0,2.318-.829,2.866,2.866,0,0,0,.883-2.151,2.428,2.428,0,0,0-.827-1.931,3.031,3.031,0,0,0-2.1-.718Z" transform="translate(1028.794 11600.671)" fill="#ffb500" />
	</g>
</svg>
