<svg xmlns="http://www.w3.org/2000/svg" width="141.631" height="46.622" viewBox="0 0 141.631 46.622">
	<g id="Group_3144" data-name="Group 3144" transform="translate(-762.878 -11592)">
		<path id="Vector" d="M11.687,23.3a11.705,11.705,0,0,1-8.258-3.31A11.555,11.555,0,0,1,0,11.65,11.556,11.556,0,0,1,3.428,3.292,11.72,11.72,0,0,1,11.687,0a11.72,11.72,0,0,1,8.258,3.292,11.556,11.556,0,0,1,3.428,8.358,11.555,11.555,0,0,1-3.428,8.34A11.705,11.705,0,0,1,11.687,23.3Zm0-18.71c-3.746,0-6.571,3.035-6.571,7.06a6.755,6.755,0,0,0,6.571,7.059,6.755,6.755,0,0,0,6.571-7.059C18.258,7.625,15.433,4.59,11.687,4.59Z" transform="translate(800.113 11604.885)" fill="#0dbdb8" />
		<path id="Vector-2" data-name="Vector" d="M11.687,23.3a11.705,11.705,0,0,1-8.258-3.31A11.555,11.555,0,0,1,0,11.65,11.556,11.556,0,0,1,3.428,3.294,11.718,11.718,0,0,1,11.687,0a11.72,11.72,0,0,1,8.258,3.292,11.556,11.556,0,0,1,3.428,8.358,11.555,11.555,0,0,1-3.428,8.34A11.705,11.705,0,0,1,11.687,23.3Zm0-18.71c-3.746,0-6.571,3.035-6.571,7.06a6.755,6.755,0,0,0,6.571,7.059,6.755,6.755,0,0,0,6.571-7.059C18.258,7.625,15.433,4.59,11.687,4.59Z" transform="translate(825.325 11604.885)" fill="#0dbdb8" />
		<path id="Vector-3" data-name="Vector" d="M11.261,33.737a10.833,10.833,0,0,1-6.8-2.274A11.477,11.477,0,0,1,.935,26.872l4.454-1.855a6.423,6.423,0,0,0,5.867,4.135c3.952,0,6.219-2.489,6.219-6.829V20.648H17.3A7.939,7.939,0,0,1,11.161,23.3,11.057,11.057,0,0,1,3.4,19.942,11.663,11.663,0,0,1,0,11.692,11.8,11.8,0,0,1,3.4,3.38,11.016,11.016,0,0,1,11.161,0,8.077,8.077,0,0,1,17.3,2.605h.178V.709h4.859V21.62c0,4.049-1.106,7.173-3.287,9.285A10.908,10.908,0,0,1,11.261,33.737ZM11.619,4.59c-3.638,0-6.488,3.119-6.488,7.1,0,3.935,2.85,7.017,6.488,7.017,3.545,0,6.219-3.017,6.219-7.017C17.837,7.643,15.164,4.59,11.619,4.59Z" transform="translate(850.527 11604.885)" fill="#0dbdb8" />
		<path id="Vector-4" data-name="Vector" d="M4.99,34.141H0V0H4.99Z" transform="translate(875.882 11593.329)" fill="#0dbdb8" />
		<path id="Vector-5" data-name="Vector" d="M11.56,23.3A11.47,11.47,0,0,1,3.3,19.926,11.689,11.689,0,0,1,0,11.65,11.928,11.928,0,0,1,3.243,3.227,10.719,10.719,0,0,1,10.988,0a9.724,9.724,0,0,1,6.89,2.731,12.849,12.849,0,0,1,3.08,4.681l.531,1.324L5.914,15.185a5.9,5.9,0,0,0,5.646,3.529A6.617,6.617,0,0,0,17.3,15.49l3.971,2.647A11.616,11.616,0,0,1,11.56,23.3Zm-.4-18.793A6.247,6.247,0,0,0,6.876,6.43a6.5,6.5,0,0,0-1.8,4.868L15.485,6.976A4.508,4.508,0,0,0,11.161,4.507Z" transform="translate(883.021 11604.88)" fill="#0dbdb8" />
		<path id="Vector-6" data-name="Vector" d="M18.347,16.561H35a16.377,16.377,0,0,1,.247,2.983c0,3.708-1.014,8.294-4.281,11.561a16.542,16.542,0,0,1-12.617,5.074A18.344,18.344,0,0,1,0,18.09,18.344,18.344,0,0,1,18.352,0a17.237,17.237,0,0,1,12.4,4.985L27.261,8.472a12.6,12.6,0,0,0-8.914-3.53A12.976,12.976,0,0,0,5.373,18.09,12.976,12.976,0,0,0,18.347,31.237a12.1,12.1,0,0,0,9.134-3.619A10.245,10.245,0,0,0,30.16,21.5L18.347,21.5h0Z" transform="translate(762.878 11592)" fill="#0dbdb8" />
	</g>
</svg>
