<svg xmlns="http://www.w3.org/2000/svg" width="176.313" height="34.794" viewBox="0 0 176.313 34.794">
	<g id="Group_3145" data-name="Group 3145" transform="translate(-462.278 -11597.781)">
		<g id="dots_wrapper" data-name="dots wrapper" transform="translate(462.278 11597.781)">
			<path id="dots" d="M29.478,34.794a8.187,8.187,0,1,1,8.193-8.186A8.2,8.2,0,0,1,29.478,34.794Zm-21.286,0a8.186,8.186,0,1,1,8.193-8.186A8.2,8.2,0,0,1,8.193,34.794Zm10.643-18.42a8.187,8.187,0,1,1,8.193-8.188A8.2,8.2,0,0,1,18.836,16.374Z" fill="#ffb500" />
		</g>
		<g id="Text" transform="translate(508.824 11603.201)">
			<path id="Fill_1" data-name="Fill 1" d="M12.174,24.351A12.176,12.176,0,0,1,12.174,0a9.721,9.721,0,0,1,7.779,3.261V1.5a.7.7,0,0,1,.695-.657H23.7a.693.693,0,0,1,.691.657l0,21.658a.7.7,0,0,1-.695.7h-.986a2.944,2.944,0,0,1-2.763-2.761C18.456,23.073,15.4,24.351,12.174,24.351Zm.012-20.09a7.839,7.839,0,0,0-7.743,7.915,7.838,7.838,0,0,0,7.743,7.913,7.838,7.838,0,0,0,7.743-7.913A7.839,7.839,0,0,0,12.186,4.261Z" transform="translate(0 0.001)" fill="#ffb500" />
			<path id="Fill_2" data-name="Fill 2" d="M12.174,24.351A12.176,12.176,0,0,1,12.174,0a9.721,9.721,0,0,1,7.779,3.261V1.5a.7.7,0,0,1,.695-.657H23.7a.693.693,0,0,1,.691.657l0,21.658a.7.7,0,0,1-.695.7h-.986a2.944,2.944,0,0,1-2.763-2.761C18.456,23.073,15.4,24.351,12.174,24.351Zm.012-20.09a7.839,7.839,0,0,0-7.743,7.915,7.838,7.838,0,0,0,7.743,7.913,7.838,7.838,0,0,0,7.743-7.913A7.839,7.839,0,0,0,12.186,4.261Z" transform="translate(49.752 0)" fill="#ffb500" />
			<path id="Fill_3" data-name="Fill 3" d="M12.174,24.351A12.176,12.176,0,0,1,12.174,0a9.721,9.721,0,0,1,7.779,3.261V1.5a.7.7,0,0,1,.695-.657H23.7a.693.693,0,0,1,.691.657L24.4,23.159a.7.7,0,0,1-.7.7h-.986a2.944,2.944,0,0,1-2.763-2.761C18.456,23.073,15.4,24.351,12.174,24.351Zm.012-20.09a7.839,7.839,0,0,0-7.743,7.915,7.838,7.838,0,0,0,7.743,7.913,7.838,7.838,0,0,0,7.743-7.913A7.839,7.839,0,0,0,12.186,4.261Z" transform="translate(105.369 0)" fill="#ffb500" />
			<path id="Fill_4" data-name="Fill 4" d="M21.178,10.579h0C21.178,4.262,17.193,0,10.838,0a7.732,7.732,0,0,0-6.4,3.261A2.559,2.559,0,0,0,1.684.844H.695a.7.7,0,0,0-.695.7V23.2H0a.7.7,0,0,0,.691.657H3.749a.713.713,0,0,0,.137-.014c.02,0,.039-.012.059-.017s.046-.012.068-.021a.764.764,0,0,0,.077-.04c.012-.008.025-.013.037-.021a.681.681,0,0,0,.085-.067l.014-.011a.747.747,0,0,0,.083-.1h0a.687.687,0,0,0,.13-.368h0V10.405a6.144,6.144,0,0,1,12.287,0l0,10.694v0c0,.009,0,.019,0,.029V23.2h0a.7.7,0,0,0,.691.657h3.054a.708.708,0,0,0,.137-.014c.018,0,.035-.011.052-.016s.051-.013.075-.023a.678.678,0,0,0,.071-.038c.014-.008.03-.014.043-.023a.741.741,0,0,0,.079-.063c.006-.006.014-.01.02-.016a.731.731,0,0,0,.078-.09l.005-.007a.69.69,0,0,0,.129-.365v0h0V21.786h0Z" transform="translate(80.327 0.054)" fill="#ffb500" />
			<path id="Fill_5" data-name="Fill 5" d="M9.167,20.09c2.037,0,4.143-1.056,4.143-2.894,0-2.454-4.589-2.836-7.472-3.816S.47,10.374.47,7.093C.47,2.073,4.943,0,9.117,0a13.034,13.034,0,0,1,7.143,2.122.707.707,0,0,1,.238.992L14.81,5.526a.676.676,0,0,1-1,.212A8.413,8.413,0,0,0,9.117,4.261C6.57,4.261,5.036,5.438,5.036,6.9c0,1.748,1.994,2.3,4.33,2.894,4.07,1.1,8.51,2.416,8.51,7.406,0,4.423-4.137,7.156-8.709,7.156a14.634,14.634,0,0,1-8.889-2.8.749.749,0,0,1-.155-.995l1.681-2.4a.669.669,0,0,1,.962-.162A11.26,11.26,0,0,0,9.167,20.09Z" transform="translate(28.926 0)" fill="#ffb500" />
		</g>
	</g>
</svg>
