<svg xmlns="http://www.w3.org/2000/svg" width="131.295" height="131.295" viewBox="0 0 131.295 131.295">
	<g id="Group_10361" data-name="Group 10361" transform="translate(-7402 -3362.771)">
		<circle id="Ellipse_4" data-name="Ellipse 4" cx="65.648" cy="65.648" r="65.648" transform="translate(7402 3362.771)" fill="#0dbdb8" />
		<path id="Path_840" data-name="Path 840" d="M57.737,16.231l-2.971-4.754a1.168,1.168,0,0,0-1.01-.535,1.323,1.323,0,0,0-1.01.535l-2.971,4.754a1.354,1.354,0,0,0-.178.654V48.379a4.16,4.16,0,1,0,8.319,0V16.885A1.354,1.354,0,0,0,57.737,16.231Zm-3.981-1.842,1.783,2.852V44.219H51.973V17.241Zm0,35.773a1.751,1.751,0,0,1-1.783-1.783V46.6h3.565v1.783A1.751,1.751,0,0,1,53.756,50.162ZM42.465,5h-30.9A3.576,3.576,0,0,0,8,8.565v46.35a3.576,3.576,0,0,0,3.565,3.565h30.9a3.576,3.576,0,0,0,3.565-3.565V8.565A3.576,3.576,0,0,0,42.465,5Zm1.188,49.916A1.192,1.192,0,0,1,42.465,56.1h-30.9a1.192,1.192,0,0,1-1.188-1.188V8.565a1.192,1.192,0,0,1,1.188-1.188h30.9a1.192,1.192,0,0,1,1.188,1.188Zm-23.769-41.6a1.192,1.192,0,0,1,1.188-1.188H32.958a1.188,1.188,0,1,1,0,2.377H21.073A1.192,1.192,0,0,1,19.885,13.319ZM38.9,19.262a1.192,1.192,0,0,1-1.188,1.188H16.319a1.188,1.188,0,0,1,0-2.377H37.712A1.192,1.192,0,0,1,38.9,19.262Zm0,5.942a1.192,1.192,0,0,1-1.188,1.188H16.319a1.188,1.188,0,1,1,0-2.377H37.712A1.192,1.192,0,0,1,38.9,25.2Zm0,5.942a1.192,1.192,0,0,1-1.188,1.188H16.319a1.188,1.188,0,0,1,0-2.377H37.712A1.192,1.192,0,0,1,38.9,31.146Zm0,13.073a1.192,1.192,0,0,1-1.188,1.188H16.319a1.188,1.188,0,0,1,0-2.377H37.712A1.192,1.192,0,0,1,38.9,44.219Zm0,5.942a1.192,1.192,0,0,1-1.188,1.188H16.319a1.188,1.188,0,0,1,0-2.377H37.712A1.192,1.192,0,0,1,38.9,50.162Z" transform="translate(7435.453 3396.678)" fill="#fff" />
	</g>
</svg>
