<svg xmlns="http://www.w3.org/2000/svg" width="131.295" height="131.295" viewBox="0 0 131.295 131.295">
	<g id="Group_10361" data-name="Group 10361" transform="translate(-7402 -3362.771)">
		<circle id="Ellipse_4" data-name="Ellipse 4" cx="65.648" cy="65.648" r="65.648" transform="translate(7402 3362.771)" fill="#0dbdb8" />
		<g id="Group_10381" data-name="Group 10381" transform="translate(7435.647 3396.419)">
			<path id="Path_867" data-name="Path 867" d="M27.3,32.8A5.335,5.335,0,0,1,22,27.5V15a.472.472,0,0,1,.5-.5.536.536,0,0,1,.5.5V27.5a4.332,4.332,0,0,0,4.3,4.3.472.472,0,0,1,.5.5A.536.536,0,0,1,27.3,32.8Zm8.3,0a.5.5,0,0,1,0-1A5.378,5.378,0,0,0,41,26.4V15a.472.472,0,0,1,.5-.5.536.536,0,0,1,.5.5V26.3A6.466,6.466,0,0,1,35.6,32.8Z" fill="#fff" />
			<path id="Path_868" data-name="Path 868" d="M24.9,18.5A2.9,2.9,0,0,1,22,15.6V13.2a2.9,2.9,0,1,1,5.8,0v2.4A2.9,2.9,0,0,1,24.9,18.5Zm0-7.1A1.9,1.9,0,0,0,23,13.3v2.4a1.9,1.9,0,0,0,1.9,1.9,1.839,1.839,0,0,0,1.9-1.9V13.3A1.9,1.9,0,0,0,24.9,11.4Z" fill="#fff" />
			<path id="Path_869" data-name="Path 869" d="M29.6,18.5a2.9,2.9,0,0,1-2.9-2.9V12a2.9,2.9,0,1,1,5.8,0v3.6a1.268,1.268,0,0,1-.1.6l-1-.2V12a1.9,1.9,0,0,0-1.9-1.9A1.839,1.839,0,0,0,27.6,12v3.6a1.9,1.9,0,0,0,1.9,1.9,1.268,1.268,0,0,0,.6-.1l.3.9a1.292,1.292,0,0,1-.8.2Z" fill="#fff" />
			<path id="Path_870" data-name="Path 870" d="M31.6,16.3a1.7,1.7,0,0,1-.1-.7V10.8a2.9,2.9,0,0,1,5.8,0v4.8a1.268,1.268,0,0,1-.1.6l-1-.2V10.8a1.9,1.9,0,0,0-1.9-1.9,1.839,1.839,0,0,0-1.9,1.9v4.8a.9.9,0,0,0,.1.5Z" fill="#fff" />
			<path id="Path_871" data-name="Path 871" d="M42,18.8H41V12.1a1.9,1.9,0,0,0-1.9-1.9,1.839,1.839,0,0,0-1.9,1.9v4.2h-1V12.1a2.9,2.9,0,0,1,5.8,0Z" fill="#fff" />
			<path id="Path_872" data-name="Path 872" d="M42,20.1H41a3.543,3.543,0,0,0-3.5-3.5v-1A4.481,4.481,0,0,1,42,20.1Z" fill="#fff" />
			<path id="Path_873" data-name="Path 873" d="M36.8,21.4h-4a2.9,2.9,0,0,1,0-5.8h4.8a.5.5,0,0,1,0,1H32.8a1.9,1.9,0,0,0-1.9,1.9,1.839,1.839,0,0,0,1.9,1.9h4a.472.472,0,0,1,.5.5A.536.536,0,0,1,36.8,21.4Z" fill="#fff" />
			<path id="Path_874" data-name="Path 874" d="M33.6,27.7a.6.6,0,0,1-.4-.1.483.483,0,0,1,0-.7l3-3v-3a.5.5,0,0,1,1,0V24c0,.1-.1.3-.1.4l-3.2,3.2C33.8,27.6,33.7,27.7,33.6,27.7Zm4.3,8.1a.472.472,0,0,1-.5-.5V31.8a.5.5,0,0,1,1,0v3.5A.536.536,0,0,1,37.9,35.8Zm-13,0a.472.472,0,0,1-.5-.5V31.7a.5.5,0,0,1,1,0v3.6A.536.536,0,0,1,24.9,35.8ZM8.3,40.5A4.332,4.332,0,0,1,4,36.2V26.4a.472.472,0,0,1,.5-.5.472.472,0,0,1,.5.5v9.8a3.329,3.329,0,0,0,3.3,3.3.472.472,0,0,1,.5.5A.536.536,0,0,1,8.3,40.5Zm6.5,0a.5.5,0,0,1,0-1A4.225,4.225,0,0,0,19,35.3V26.4a.5.5,0,0,1,1,0v8.9A5.164,5.164,0,0,1,14.8,40.5Z" fill="#fff" />
			<path id="Path_875" data-name="Path 875" d="M6.4,29.3A2.433,2.433,0,0,1,4,26.9V25a2.433,2.433,0,0,1,2.4-2.4A2.433,2.433,0,0,1,8.8,25v1.9A2.433,2.433,0,0,1,6.4,29.3Zm0-5.7A1.367,1.367,0,0,0,5,25v1.9a1.367,1.367,0,0,0,1.4,1.4,1.367,1.367,0,0,0,1.4-1.4V25a1.43,1.43,0,0,0-1.4-1.4Z" fill="#fff" />
			<path id="Path_876" data-name="Path 876" d="M10.1,29.3a2.433,2.433,0,0,1-2.4-2.4V24.1a2.4,2.4,0,0,1,4.8,0v2.8a.9.9,0,0,1-.1.5l-1-.2V24.1a1.4,1.4,0,1,0-2.8,0v2.8a1.41,1.41,0,0,0,1.8,1.3l.3.9C10.7,29.2,10.4,29.3,10.1,29.3Z" fill="#fff" />
			<path id="Path_877" data-name="Path 877" d="M11.6,27.5c0-.2-.1-.4-.1-.6V23.1a2.4,2.4,0,1,1,4.8,0v4.3l-1-.2V23.1a1.4,1.4,0,0,0-2.8,0v4.1ZM20,30.4H19a2.647,2.647,0,0,0-2.6-2.6v-1A3.585,3.585,0,0,1,20,30.4Z" fill="#fff" />
			<path id="Path_878" data-name="Path 878" d="M15.8,31.5H12.7a2.4,2.4,0,0,1,0-4.8h3.8a.5.5,0,0,1,0,1H12.7a1.4,1.4,0,1,0,0,2.8h3.1a.472.472,0,0,1,.5.5.536.536,0,0,1-.5.5Z" fill="#fff" />
			<path id="Path_879" data-name="Path 879" d="M13.3,36.5a.6.6,0,0,1-.4-.1.483.483,0,0,1,0-.7l2.4-2.4V31a.5.5,0,0,1,1,0v2.5c0,.1-.1.3-.1.4l-2.5,2.5a.756.756,0,0,1-.4.1Zm3.4,6.1a.472.472,0,0,1-.5-.5V39.7a.5.5,0,0,1,1,0v2.4A.472.472,0,0,1,16.7,42.6Zm-10.3,0a.472.472,0,0,1-.5-.5V39.5a.5.5,0,0,1,1,0v2.6A.472.472,0,0,1,6.4,42.6ZM20,27.8H19V24a1.4,1.4,0,0,0-2.8,0v3.2h-1V24A2.4,2.4,0,0,1,20,24Z" fill="#fff" />
			<g id="Group_10374" data-name="Group 10374">
				<path id="Path_880" data-name="Path 880" d="M17.5,45.8H5.5a.472.472,0,0,1-.5-.5v-3a.472.472,0,0,1,.5-.5h12a.472.472,0,0,1,.5.5v3A.536.536,0,0,1,17.5,45.8ZM6,44.8H17v-2H6Z" fill="#fff" />
			</g>
			<g id="Group_10375" data-name="Group 10375">
				<path id="Path_881" data-name="Path 881" d="M17.5,56a.472.472,0,0,1-.5-.5V45.7H6v9.8a.472.472,0,0,1-.5.5.472.472,0,0,1-.5-.5V45.3a.472.472,0,0,1,.5-.5h12a.472.472,0,0,1,.5.5V55.6A.458.458,0,0,1,17.5,56Z" fill="#fff" />
			</g>
			<g id="Group_10376" data-name="Group 10376">
				<path id="Path_882" data-name="Path 882" d="M48.3,40.5A4.332,4.332,0,0,1,44,36.2V26.4a.5.5,0,1,1,1,0v9.8a3.329,3.329,0,0,0,3.3,3.3.472.472,0,0,1,.5.5A.536.536,0,0,1,48.3,40.5Zm6.5,0a.5.5,0,0,1,0-1A4.225,4.225,0,0,0,59,35.3V26.4a.5.5,0,0,1,1,0v8.9A5.164,5.164,0,0,1,54.8,40.5Z" fill="#fff" />
				<path id="Path_883" data-name="Path 883" d="M46.4,29.3A2.433,2.433,0,0,1,44,26.9V25a2.4,2.4,0,0,1,4.8,0v1.9A2.433,2.433,0,0,1,46.4,29.3Zm0-5.7A1.367,1.367,0,0,0,45,25v1.9a1.4,1.4,0,0,0,2.8,0V25a1.43,1.43,0,0,0-1.4-1.4Z" fill="#fff" />
				<path id="Path_884" data-name="Path 884" d="M50.1,29.3a2.433,2.433,0,0,1-2.4-2.4V24.1a2.4,2.4,0,0,1,4.8,0v2.8a.9.9,0,0,1-.1.5l-1-.2V24.1a1.4,1.4,0,0,0-2.8,0v2.8a1.41,1.41,0,0,0,1.8,1.3l.3.9C50.7,29.2,50.4,29.3,50.1,29.3Z" fill="#fff" />
				<path id="Path_885" data-name="Path 885" d="M51.6,27.5c0-.2-.1-.4-.1-.6V23.1a2.4,2.4,0,0,1,4.8,0v4.3l-1-.2V23.1a1.4,1.4,0,0,0-2.8,0v4.1ZM60,30.4H59a2.647,2.647,0,0,0-2.6-2.6v-1A3.585,3.585,0,0,1,60,30.4Z" fill="#fff" />
				<path id="Path_886" data-name="Path 886" d="M55.8,31.5H52.7a2.4,2.4,0,1,1,0-4.8h3.8a.5.5,0,0,1,0,1H52.7a1.4,1.4,0,1,0,0,2.8h3.1a.472.472,0,0,1,.5.5A.536.536,0,0,1,55.8,31.5Z" fill="#fff" />
				<path id="Path_887" data-name="Path 887" d="M53.3,36.5a.6.6,0,0,1-.4-.1.483.483,0,0,1,0-.7l2.4-2.4V31a.5.5,0,0,1,1,0v2.5c0,.1-.1.3-.1.4l-2.5,2.5A.756.756,0,0,1,53.3,36.5Zm3.4,6.1a.472.472,0,0,1-.5-.5V39.7a.5.5,0,0,1,1,0v2.4A.472.472,0,0,1,56.7,42.6Zm-10.3,0a.472.472,0,0,1-.5-.5V39.5a.5.5,0,0,1,1,0v2.6A.472.472,0,0,1,46.4,42.6ZM60,27.8H59V24a1.4,1.4,0,0,0-2.8,0v3.2h-1V24A2.4,2.4,0,0,1,60,24Z" fill="#fff" />
			</g>
			<g id="Group_10377" data-name="Group 10377">
				<path id="Path_888" data-name="Path 888" d="M57.5,45.8h-12a.472.472,0,0,1-.5-.5v-3a.472.472,0,0,1,.5-.5h12a.472.472,0,0,1,.5.5v3A.536.536,0,0,1,57.5,45.8ZM46,44.8H57v-2H46Z" fill="#fff" />
			</g>
			<g id="Group_10378" data-name="Group 10378">
				<path id="Path_889" data-name="Path 889" d="M57.5,56a.472.472,0,0,1-.5-.5V45.7H46v9.8a.5.5,0,0,1-1,0V45.3a.472.472,0,0,1,.5-.5h12a.472.472,0,0,1,.5.5V55.6A.458.458,0,0,1,57.5,56Z" fill="#fff" />
			</g>
			<g id="Group_10379" data-name="Group 10379">
				<path id="Path_890" data-name="Path 890" d="M39.5,38.8h-16a.472.472,0,0,1-.5-.5v-3a.472.472,0,0,1,.5-.5h16a.472.472,0,0,1,.5.5v3A.536.536,0,0,1,39.5,38.8ZM24,37.8H39v-2H24Z" fill="#fff" />
			</g>
			<g id="Group_10380" data-name="Group 10380">
				<path id="Path_891" data-name="Path 891" d="M39.5,56a.472.472,0,0,1-.5-.5V38.8H24V55.6a.472.472,0,0,1-.5.5.56.56,0,0,1-.5-.6V38.3a.472.472,0,0,1,.5-.5h16a.472.472,0,0,1,.5.5V55.6A.458.458,0,0,1,39.5,56Z" fill="#fff" />
			</g>
		</g>
	</g>
</svg>
