<svg xmlns="http://www.w3.org/2000/svg" width="131.295" height="131.295" viewBox="0 0 131.295 131.295">
	<g id="Group_10361" data-name="Group 10361" transform="translate(-7402 -3362.771)">
		<circle id="Ellipse_4" data-name="Ellipse 4" cx="65.648" cy="65.648" r="65.648" transform="translate(7402 3362.771)" fill="#0dbdb8" />
		<path id="Path_841" data-name="Path 841" d="M62.59,4.15,59.76,1.32a1,1,0,0,0-1.42,0L56.93,2.74a1,1,0,0,0-1.41,0L25.11,33.14h0l-.46.47a.91.91,0,0,0-.25.41l-1.92,6.16a1.117,1.117,0,0,0,1.25,1.3l6.16-1.92a.91.91,0,0,0,.41-.25L58.47,11.1l.71.71a2,2,0,0,1,0,2.82L44.32,29.49l1.42,1.41L60.59,16a4,4,0,0,0,0-5.64l-.71-.71,1.29-1.3a.978.978,0,0,0,0-1.41l1.42-1.42a1,1,0,0,0,0-1.37Zm-6.37.71,2.83,2.83-29,29-2.83-2.83ZM26,35.48l2.39,2.39L25,39ZM58.34,4.15l.71-.71,1.42,1.42-.71.7ZM57.39,48H5.62a2.61,2.61,0,1,1,0-5.22H19a1,1,0,0,0,0-2H5.62a4.63,4.63,0,0,0,0,9.25H57.39a4,4,0,0,1,0,8H2a1,1,0,0,0,0,2H57.39a6,6,0,1,0,0-12Z" transform="translate(7435.453 3397.892)" fill="#fff" />
	</g>
</svg>
