<svg xmlns="http://www.w3.org/2000/svg" width="75" viewBox="0 0 75 75" height="75" version="1.0"><defs><clipPath id="a"><path d="M 11.414062 4.28125 L 66.164062 4.28125 L 66.164062 60 L 11.414062 60 Z M 11.414062 4.28125"/></clipPath><clipPath id="b"><path d="M 37 67 L 44 67 L 44 73.28125 L 37 73.28125 Z M 37 67"/></clipPath><clipPath id="c"><path d="M 43 67 L 51 67 L 51 73.28125 L 43 73.28125 Z M 43 67"/></clipPath></defs><g clip-path="url(#a)"><path fill="#E66846" d="M 38.789062 59.214844 C 23.671875 59.214844 11.417969 46.917969 11.417969 31.746094 C 11.417969 16.578125 23.671875 4.28125 38.789062 4.28125 C 53.90625 4.28125 66.160156 16.578125 66.160156 31.746094 C 66.160156 46.917969 53.90625 59.214844 38.789062 59.214844 M 51.71875 25.933594 L 51.476562 26.765625 L 55.632812 27.96875 L 55.867188 27.136719 L 51.71875 25.933594 M 25.859375 25.933594 L 21.710938 27.136719 L 21.945312 27.96875 L 26.097656 26.765625 L 25.859375 25.933594 M 56.253906 19.839844 L 52.03125 20.738281 L 52.210938 21.589844 L 56.4375 20.683594 L 56.253906 19.839844 M 21.320312 19.839844 L 21.140625 20.683594 L 25.363281 21.589844 L 25.546875 20.738281 L 21.320312 19.839844 M 52.984375 13.230469 L 49.46875 15.753906 L 49.972656 16.460938 L 53.484375 13.9375 L 52.984375 13.230469 M 24.59375 13.230469 L 24.09375 13.9375 L 27.605469 16.460938 L 28.109375 15.753906 L 24.59375 13.230469 M 46.417969 8.929688 L 44.472656 12.800781 L 45.246094 13.191406 L 47.191406 9.324219 L 46.417969 8.929688 M 31.160156 8.929688 L 30.386719 9.324219 L 32.332031 13.191406 L 33.105469 12.800781 L 31.160156 8.929688 M 38.378906 7.796875 L 38.378906 12.132812 L 39.238281 12.132812 L 39.238281 7.796875 L 38.378906 7.796875"/></g><path fill="#FFFFFC" d="M 39.894531 39.757812 C 39.496094 39.757812 39.113281 39.742188 38.804688 39.722656 C 38.578125 39.742188 38.195312 39.757812 37.796875 39.757812 C 37.070312 39.757812 36.476562 39.703125 36.035156 39.597656 C 35.785156 39.539062 35.582031 39.523438 35.421875 39.507812 C 34.097656 39.382812 34.035156 38.613281 34.027344 37.148438 C 34.019531 35.832031 33.507812 33.902344 33.304688 33.351562 C 32.863281 32.144531 32.21875 31.171875 31.535156 30.148438 C 30.289062 28.269531 29 26.332031 29.085938 23 C 29.230469 17.261719 34.09375 14.203125 38.824219 14.148438 C 43.597656 14.203125 48.460938 17.261719 48.605469 23 C 48.691406 26.332031 47.402344 28.273438 46.152344 30.148438 C 45.472656 31.179688 44.828125 32.144531 44.382812 33.351562 C 44.179688 33.902344 43.671875 35.839844 43.660156 37.152344 C 43.65625 38.617188 43.589844 39.382812 42.273438 39.507812 C 42.109375 39.523438 41.90625 39.539062 41.660156 39.597656 C 41.214844 39.703125 40.621094 39.757812 39.894531 39.757812"/><path fill="#F9C220" d="M 47.914062 23.019531 C 47.777344 17.734375 43.339844 14.898438 38.859375 14.847656 L 38.832031 14.847656 C 34.355469 14.898438 29.914062 17.734375 29.777344 23.019531 C 29.65625 27.875 32.648438 29.542969 33.957031 33.109375 C 34.183594 33.722656 34.714844 35.738281 34.722656 37.144531 C 34.730469 39.214844 34.929688 38.621094 36.195312 38.917969 C 36.949219 39.097656 38.113281 39.070312 38.847656 39.027344 C 39.578125 39.070312 40.742188 39.097656 41.496094 38.917969 C 42.761719 38.621094 42.960938 39.214844 42.96875 37.144531 C 42.976562 35.738281 43.507812 33.722656 43.734375 33.109375 C 45.046875 29.542969 48.035156 27.875 47.914062 23.019531"/><path fill="#FFFFFC" d="M 35.464844 29.589844 L 34.832031 25.800781 C 34.785156 25.527344 34.902344 25.253906 35.085938 25.191406 C 35.21875 25.144531 35.351562 25.21875 35.429688 25.363281 L 35.464844 25.414062 L 35.464844 25.4375 C 35.453125 25.40625 35.445312 25.382812 35.429688 25.363281 L 35.464844 25.460938 Z M 37.601562 38.160156 C 37.644531 38.429688 37.535156 38.699219 37.351562 38.765625 C 37.164062 38.828125 36.980469 38.664062 36.933594 38.394531 L 35.464844 29.589844 L 35.464844 25.460938 L 35.5 25.5625 C 35.492188 25.515625 35.480469 25.472656 35.464844 25.4375 L 35.464844 25.414062 C 35.589844 25.605469 35.726562 25.789062 35.875 25.964844 C 36.71875 26.964844 37.832031 27.492188 38.929688 27.5 C 40.023438 27.507812 41.101562 27.003906 41.886719 25.945312 C 42.015625 25.773438 42.140625 25.578125 42.257812 25.363281 C 42.375 25.148438 42.59375 25.113281 42.742188 25.289062 C 42.851562 25.417969 42.894531 25.632812 42.855469 25.820312 L 40.757812 38.394531 C 40.710938 38.664062 40.527344 38.828125 40.34375 38.765625 C 40.160156 38.699219 40.046875 38.429688 40.089844 38.160156 L 41.917969 27.199219 C 41.058594 28.085938 39.996094 28.515625 38.929688 28.507812 C 37.808594 28.5 36.675781 28.015625 35.753906 27.089844 L 37.601562 38.160156"/><path fill="#515151" d="M 43.554688 38.101562 C 42.644531 38.300781 39.75 38.378906 38.832031 38.40625 C 37.917969 38.378906 35.035156 38.300781 34.121094 38.101562 C 34.121094 38.101562 33.855469 38.132812 34.054688 38.417969 C 34.054688 38.417969 34.203125 38.480469 34.242188 38.972656 C 34.285156 39.464844 34.121094 39.789062 34.335938 40.03125 L 34.511719 40.03125 L 34.511719 40.4375 L 34.449219 40.4375 C 34.25 40.4375 34.089844 40.53125 34.089844 40.679688 C 34.089844 40.828125 34.25 40.921875 34.449219 40.921875 L 34.511719 40.921875 L 34.511719 41.332031 L 34.449219 41.332031 C 34.25 41.332031 34.089844 41.464844 34.089844 41.613281 C 34.089844 41.757812 34.25 41.898438 34.449219 41.898438 L 34.511719 41.898438 L 34.511719 42.382812 L 34.472656 42.382812 C 34.273438 42.382812 34.109375 42.476562 34.109375 42.625 C 34.109375 42.777344 34.273438 42.867188 34.472656 42.867188 L 34.511719 42.867188 L 34.511719 42.976562 C 34.511719 43.085938 34.542969 43.183594 34.601562 43.273438 L 34.472656 43.273438 C 34.273438 43.273438 34.109375 43.410156 34.109375 43.554688 C 34.109375 43.707031 34.273438 43.839844 34.472656 43.839844 L 34.960938 43.839844 C 35.105469 44.007812 35.292969 44.183594 35.558594 44.34375 C 36.414062 44.867188 37.582031 45.660156 38.203125 46.046875 C 38.820312 46.429688 39.28125 46.144531 39.402344 46.046875 C 39.519531 45.941406 39.917969 45.59375 40.742188 45.125 C 41.304688 44.796875 42.09375 44.324219 42.535156 43.839844 L 42.949219 43.839844 C 43.148438 43.839844 43.308594 43.707031 43.308594 43.554688 C 43.308594 43.410156 43.148438 43.273438 42.949219 43.273438 L 42.941406 43.273438 C 43.003906 43.183594 43.042969 43.085938 43.042969 42.976562 L 43.042969 42.855469 C 43.195312 42.832031 43.308594 42.75 43.308594 42.625 C 43.308594 42.5 43.195312 42.417969 43.042969 42.394531 L 43.042969 41.878906 C 43.195312 41.84375 43.308594 41.734375 43.308594 41.613281 C 43.308594 41.492188 43.195312 41.378906 43.042969 41.34375 L 43.042969 40.910156 C 43.195312 40.882812 43.308594 40.800781 43.308594 40.679688 C 43.308594 40.558594 43.195312 40.472656 43.042969 40.449219 L 43.042969 40.03125 L 43.355469 40.03125 C 43.570312 39.789062 43.410156 39.464844 43.453125 38.972656 C 43.492188 38.480469 43.636719 38.429688 43.636719 38.429688 C 43.839844 38.144531 43.554688 38.101562 43.554688 38.101562"/><path fill="#414042" d="M 36.832031 44.976562 C 36.800781 44.957031 39.0625 45.3125 40.757812 44.957031 C 40.757812 44.957031 39.410156 46.214844 38.882812 46.253906 C 38.359375 46.289062 37.261719 45.304688 36.832031 44.976562"/><path fill="#F3B4A3" d="M 38.378906 12.132812 L 39.238281 12.132812 L 39.238281 7.796875 L 38.378906 7.796875 Z M 38.378906 12.132812"/><path fill="#F3B4A3" d="M 45.246094 13.191406 L 44.472656 12.800781 L 46.417969 8.929688 L 47.191406 9.324219 L 45.246094 13.191406"/><path fill="#F3B4A3" d="M 49.972656 16.460938 L 49.46875 15.753906 L 52.984375 13.230469 L 53.484375 13.9375 L 49.972656 16.460938"/><path fill="#F3B4A3" d="M 52.210938 21.589844 L 52.03125 20.738281 L 56.253906 19.839844 L 56.4375 20.683594 L 52.210938 21.589844"/><path fill="#F3B4A3" d="M 55.632812 27.96875 L 51.476562 26.765625 L 51.71875 25.933594 L 55.867188 27.136719 L 55.632812 27.96875"/><path fill="#F3B4A3" d="M 32.332031 13.191406 L 30.386719 9.324219 L 31.160156 8.929688 L 33.105469 12.800781 L 32.332031 13.191406"/><path fill="#F3B4A3" d="M 27.605469 16.460938 L 24.09375 13.9375 L 24.59375 13.230469 L 28.109375 15.753906 L 27.605469 16.460938"/><path fill="#F3B4A3" d="M 25.363281 21.589844 L 21.140625 20.683594 L 21.320312 19.839844 L 25.546875 20.738281 L 25.363281 21.589844"/><path fill="#F3B4A3" d="M 21.945312 27.96875 L 21.710938 27.136719 L 25.859375 25.933594 L 26.097656 26.765625 L 21.945312 27.96875"/><path fill="#FCD3A7" d="M 43.949219 58.242188 L 43.941406 58.238281 C 43.945312 58.203125 43.949219 58.167969 43.949219 58.132812 Z M 51.40625 55.097656 L 51.445312 53.425781 C 51.453125 52.976562 51.292969 51.527344 51.03125 51.203125 C 50.699219 50.789062 50.199219 50.289062 49.632812 50.246094 C 48.511719 50.160156 48.175781 50.953125 48.175781 50.96875 L 48.140625 50.949219 C 48.15625 49.921875 47.230469 48.878906 46.210938 48.859375 C 45.191406 48.84375 44.203125 49.398438 44.183594 50.421875 L 44.199219 49.789062 C 44.21875 48.761719 43.289062 48.238281 42.269531 48.21875 C 41.25 48.203125 40.40625 49.332031 40.386719 50.355469 L 40.398438 41.480469 C 40.414062 40.457031 39.859375 39.929688 38.839844 39.910156 C 37.820312 39.894531 37.265625 40.707031 37.246094 41.730469 L 37.214844 51.808594 L 37.1875 53.460938 L 36.328125 53.808594 L 34.605469 55.695312 C 34.277344 56.050781 34.179688 56.699219 34.378906 57.140625 L 37.625 62.574219 L 37.648438 62.617188 L 38.953125 65.480469 L 39.1875 66.761719 L 49.574219 66.9375 L 49.59375 65.65625 C 49.59375 65.65625 51.066406 61.671875 51.273438 60.347656 C 51.691406 57.679688 51.558594 56.296875 51.558594 56.296875 L 51.40625 55.097656"/><path fill="#FFF" d="M 43.960938 67.511719 L 37.710938 67.511719 L 37.710938 66.191406 L 43.960938 66.191406 L 43.960938 67.511719"/><path fill="#D9DEE2" d="M 49.984375 67.511719 L 43.734375 67.511719 L 43.734375 66.191406 L 49.984375 66.191406 L 49.984375 67.511719"/><g clip-path="url(#b)"><path fill="#4C657F" d="M 43.960938 67.398438 L 37.394531 67.398438 L 37.394531 73.28125 L 43.976562 73.28125 L 43.960938 67.398438"/></g><g clip-path="url(#c)"><path fill="#2B3F55" d="M 48.710938 71.238281 C 48.351562 71.230469 48.066406 70.9375 48.074219 70.574219 C 48.078125 70.214844 48.375 69.929688 48.734375 69.9375 C 49.089844 69.941406 49.375 70.238281 49.367188 70.597656 C 49.363281 70.957031 49.066406 71.242188 48.710938 71.238281 Z M 43.777344 67.398438 L 43.777344 73.28125 L 50.351562 73.28125 L 50.351562 67.398438 L 43.777344 67.398438"/></g><path fill="#FFF" d="M 48.734375 69.9375 C 48.375 69.929688 48.078125 70.214844 48.074219 70.574219 C 48.066406 70.9375 48.351562 71.230469 48.710938 71.238281 C 49.066406 71.242188 49.363281 70.957031 49.367188 70.597656 C 49.375 70.238281 49.089844 69.941406 48.734375 69.9375"/><path fill="#F7EEE2" d="M 39.914062 42.273438 L 37.695312 42.273438 C 37.519531 41.945312 37.527344 41.777344 37.574219 41.480469 C 37.621094 41.1875 37.742188 40.925781 37.929688 40.734375 C 38.207031 40.449219 38.601562 40.308594 39.046875 40.34375 C 39.710938 40.402344 40.117188 40.914062 40.136719 41.722656 C 40.140625 41.914062 40.136719 42.089844 39.914062 42.273438"/></svg>