<svg xmlns="http://www.w3.org/2000/svg" width="24.979" height="16.057" viewBox="0 0 24.979 16.057">
	<g id="Icon_ionic-ios-eye" data-name="Icon ionic-ios-eye" transform="translate(-2.252 -7.875)">
		<path id="Path_1511" data-name="Path 1511" d="M14.728,7.875c-4.483,0-8.017,2.821-12.243,7.432a.882.882,0,0,0-.006,1.188c3.618,4,6.807,7.437,12.249,7.437,5.375,0,9.405-4.332,12.271-7.471a.875.875,0,0,0,.028-1.154C24.105,11.767,20.063,7.875,14.728,7.875Zm.245,13.041a5.018,5.018,0,1,1,4.778-4.778A5.02,5.02,0,0,1,14.973,20.916Z" fill="#fff" />
		<path id="Path_1512" data-name="Path 1512" d="M17.068,14.448a2.62,2.62,0,0,1,.173-.942c-.056,0-.112-.006-.173-.006a3.568,3.568,0,1,0,3.568,3.568c0-.072-.006-.145-.006-.217a2.472,2.472,0,0,1-1.015.217A2.588,2.588,0,0,1,17.068,14.448Z" transform="translate(-2.329 -1.165)" fill="#fff" />
	</g>
</svg>
