<svg xmlns="http://www.w3.org/2000/svg" xmlns:xlink="http://www.w3.org/1999/xlink" width="633" height="712" viewBox="0 0 633 712">
	<defs>
		<clipPath id="clip-path">
			<rect id="Rectangle_70" data-name="Rectangle 70" width="633" height="712" transform="translate(1200 11955.134)" fill="#fff" />
		</clipPath>
	</defs>
	<g id="Mask_Group_3" data-name="Mask Group 3" transform="translate(-1200 -11955.134)" clip-path="url(#clip-path)">
		<g id="Questions-pana" transform="translate(1200 12007.32)">
			<g id="freepik--background-complete--inject-4" transform="translate(25.111 0)">
				<path id="Path_398" data-name="Path 398" d="M369.06,620.976c-24.735-11.707-34.592-39.541-38.078-65.467-.588-4.3-1.822-8.781-.416-12.913s5.739-7.5,9.9-6.342c3.458.961,5.481,4.433,7.791,7.174a25.338,25.338,0,0,0,11.707,7.92c2.984.961,6.528,1.263,8.981-.689,3.357-2.683,2.869-7.877,2.181-12.152q-2.109-11.894-4.132-23.788a40.517,40.517,0,0,1-.846-12.913c.631-4.3,2.941-8.608,6.815-10.388s9.311-.33,10.875,3.716a40.617,40.617,0,0,1,1.033,5.294c.416,1.765,1.578,3.587,3.343,3.8s3.3-1.291,4.376-2.769c3.673-5.065,5.739-11.134,7.6-17.145s3.616-12.138,6.829-17.533,8.121-10.043,14.19-11.478,13.243,1.291,15.782,7.045.086,12.482-2.869,18.02a97.116,97.116,0,0,1-16.772,22.3,7.992,7.992,0,0,0-2.726,4.132c-.445,3.013,2.74,5.395,5.739,5.854,3.357.516,6.772-.4,10.172-.574s7.26.689,9.068,3.63c2.482,4.075-.4,9.283-3.486,12.913A83.215,83.215,0,0,1,414.268,546.7c-2.956,1.679-6.1,3.257-8.264,5.9s-3.042,6.743-1,9.5,6.155,3.056,9.34,1.879,5.839-3.458,8.781-5.165c5.509-3.214,13.171-4.1,17.805.344a13.716,13.716,0,0,1,3.458,11.736,31.463,31.463,0,0,1-4.692,11.664A83.588,83.588,0,0,1,408.73,613.2c-12.841,7.03-25.266,10.459-39.656,7.791" transform="translate(-36.62 -16.416)" fill="#f5f5f5" />
				<path id="Path_399" data-name="Path 399" d="M369.34,603.452a388.626,388.626,0,0,1,8.235-43.86l2.755-11.377c.9-3.745,1.808-7.446,2.869-11a195.11,195.11,0,0,1,7.547-20.086c2.712-6.284,5.509-12.167,8.164-17.633s5.251-10.517,7.8-15.007a153.513,153.513,0,0,1,13.6-20.316c1.793-2.267,3.243-3.974,4.232-5.122.473-.545.861-.976,1.133-1.306s.4-.43.416-.416a4.319,4.319,0,0,1-.344.473l-1.09,1.349c-.947,1.177-2.353,2.869-4.1,5.208A163.127,163.127,0,0,0,407.2,484.771c-2.511,4.505-5.065,9.555-7.7,15.022s-5.395,11.349-8.078,17.633a192.9,192.9,0,0,0-7.461,20.086c-1.1,3.544-1.994,7.174-2.869,10.961l-2.755,11.392a397.508,397.508,0,0,0-8.279,43.759" transform="translate(-32.984 -16.195)" fill="#e0e0e0" />
				<path id="Path_400" data-name="Path 400" d="M383.454,534.3a8.309,8.309,0,0,1-.732-1.765c-.43-1.133-.99-2.869-1.65-4.892-1.32-4.161-2.956-9.971-4.735-16.37s-3.486-12.181-4.878-16.3c-.689-2.066-1.263-3.745-1.664-4.878a10.547,10.547,0,0,1-.56-1.822,8.379,8.379,0,0,1,.846,1.707c.5,1.1,1.148,2.755,1.908,4.792,1.535,4.1,3.329,9.857,5.122,16.284s3.3,12.052,4.505,16.413c.56,1.98,1.019,3.644,1.435,4.979a10.8,10.8,0,0,1,.4,1.851Z" transform="translate(-32.994 -13.341)" fill="#e0e0e0" />
				<path id="Path_401" data-name="Path 401" d="M435.556,512.469a10.829,10.829,0,0,1-2.152.646c-1.435.359-3.4.875-5.868,1.593-4.95,1.435-11.707,3.558-19.068,6.284s-13.917,5.495-18.652,7.618c-2.353,1.047-4.232,1.951-5.538,2.568a12.5,12.5,0,0,1-2.052.89,10.776,10.776,0,0,1,1.908-1.177c1.263-.7,3.113-1.679,5.438-2.869,4.634-2.267,11.177-5.122,18.551-7.862a193.685,193.685,0,0,1,19.211-6.069c2.5-.66,4.534-1.09,5.954-1.363a12.249,12.249,0,0,1,2.267-.258Z" transform="translate(-31.796 -11.109)" fill="#e0e0e0" />
				<path id="Path_402" data-name="Path 402" d="M373.145,595.639a3.746,3.746,0,0,1-.488-.617L371.38,593.2c-1.1-1.607-2.64-3.946-4.491-6.872-3.73-5.854-8.608-14.1-13.874-23.286s-10.043-17.461-13.673-23.372l-4.3-7.016-1.148-1.908a2.744,2.744,0,0,1-.359-.689,5.48,5.48,0,0,1,.488.6c.3.416.775,1.09,1.277,1.836,1.1,1.593,2.64,3.931,4.505,6.872,3.716,5.854,8.608,14.089,13.874,23.271s10.043,17.461,13.659,23.386l4.3,7c.459.76.846,1.435,1.148,1.908a2.656,2.656,0,0,1,.359.7Z" transform="translate(-36.287 -9.487)" fill="#e0e0e0" />
				<path id="Path_403" data-name="Path 403" d="M438.931,557.2a2.67,2.67,0,0,1-.674.43l-1.994,1.062-7.4,3.859c-6.255,3.271-14.835,7.877-24.3,12.913s-18.092,9.641-24.391,12.769c-3.156,1.564-5.739,2.869-7.518,3.63l-2.152.947a3.327,3.327,0,0,1-.746.287,3.089,3.089,0,0,1,.674-.43l2.009-1.062,7.4-3.874c6.241-3.257,14.821-7.862,24.29-12.913s18.106-9.627,24.391-12.755c3.156-1.564,5.739-2.87,7.518-3.63l2.066-.947A2.868,2.868,0,0,1,438.931,557.2Z" transform="translate(-32.947 -6.984)" fill="#e0e0e0" />
				<path id="Path_404" data-name="Path 404" d="M203.426,325.022s-17.045,2.367-7.475,39.7,17.69,56.586,17.69,56.586,1.277,8.451-5.538,8.192-20.718-5.739-25.438,1.564c-4.878,7.633-.6,16.815,10.043,26.442s33.343,31.564,35.381,33.559,3.529,6.1-1.148,6.657-37.848-3.329-38.738,12.525,33.3,37.777,36.988,40.244,4.3,4.39,3.443,6.542-11.851-.215-21.335-.947-20.617.115-20.373,9.3,18.207,32.425,70.575,49.7l24.807,6.413,18.322-18.049c36.873-41.019,40.9-70.1,36.557-78.193s-14.347-3.286-22.3,2.052-16.27,12.913-18.049,11.478-2.238-3.415-.258-7.389,20.761-39.986,12.095-53.3-35.524,6.514-39.828,8.336-5.079-2.511-4.3-5.208,9.527-33,14.032-46.7,3.644-23.774-4.39-27.963c-7.748-4.032-17.059,7.676-22.855,11.291s-8.867-4.3-8.867-4.3-2.525-20.732-12.769-57.892-26.586-30.5-26.586-30.5" transform="translate(-50.386 -28.428)" fill="#ebebeb" />
				<path id="Path_405" data-name="Path 405" d="M279.649,624.812c-7.418-27.26-19.8-76.041-30.632-117.921S228.343,427.249,221.055,399.9c-3.644-13.659-6.6-24.706-8.608-32.382-1-3.8-1.793-6.772-2.339-8.809l-.6-2.3c-.129-.516-.172-.789-.172-.789s.1.244.258.76.373,1.306.66,2.281c.588,2.037,1.435,4.979,2.5,8.766,2.152,7.618,5.194,18.652,8.9,32.31C229.06,427,239,464.9,249.835,506.69s23.114,90.618,30.4,117.964" transform="translate(-47.742 -25.575)" fill="#e0e0e0" />
				<path id="Path_406" data-name="Path 406" d="M200.019,429.884a9.271,9.271,0,0,1,1.636.875c1.019.6,2.482,1.521,4.3,2.669,3.572,2.31,8.436,5.624,13.73,9.369l13.515,9.641,4.118,2.869a8.149,8.149,0,0,1,1.435,1.133,9.022,9.022,0,0,1-1.65-.875c-1.019-.6-2.482-1.521-4.3-2.683-3.544-2.339-8.365-5.739-13.659-9.469l-13.587-9.541L201.426,431a8.422,8.422,0,0,1-1.406-1.119Z" transform="translate(-48.601 -18.726)" fill="#e0e0e0" />
				<path id="Path_407" data-name="Path 407" d="M237.391,456.964c-.187-.115,6.2-10.431,14.247-23.042s14.749-22.741,14.936-22.626-6.2,10.445-14.261,23.056S237.578,457.05,237.391,456.964Z" transform="translate(-45.154 -20.441)" fill="#e0e0e0" />
				<path id="Path_408" data-name="Path 408" d="M249.975,515.376a7.56,7.56,0,0,1,1.363-1.32l3.859-3.386c3.257-2.87,7.748-6.829,12.54-11.392s9.01-8.824,12.023-11.937c1.435-1.435,2.611-2.712,3.573-3.687a9.915,9.915,0,0,1,1.435-1.306,7.533,7.533,0,0,1-1.148,1.506c-.775.933-1.937,2.253-3.4,3.859-2.869,3.228-7.059,7.575-11.88,12.138s-9.354,8.494-12.712,11.248c-1.693,1.435-3.07,2.468-4.046,3.2a8.767,8.767,0,0,1-1.607,1.076Z" transform="translate(-43.993 -13.887)" fill="#e0e0e0" />
				<path id="Path_409" data-name="Path 409" d="M211.553,499.018a7.177,7.177,0,0,1,1.693.416l4.548,1.435c3.816,1.22,9.082,2.956,14.878,4.907s11.033,3.788,14.806,5.151l4.462,1.636a7.741,7.741,0,0,1,1.593.7,6.614,6.614,0,0,1-1.693-.4l-4.548-1.435c-3.816-1.22-9.082-2.956-14.878-4.921s-11.033-3.788-14.806-5.136l-4.462-1.65A6.5,6.5,0,0,1,211.553,499.018Z" transform="translate(-47.537 -12.35)" fill="#e0e0e0" />
				<path id="Path_410" data-name="Path 410" d="M215.993,552.94a11.392,11.392,0,0,1,2.166.545l5.825,1.779c4.907,1.535,11.664,3.7,19.125,6.155s14.19,4.692,19.053,6.37L267.9,569.8a14.656,14.656,0,0,1,2.08.846,11.348,11.348,0,0,1-2.181-.545l-5.825-1.779c-4.907-1.535-11.664-3.7-19.125-6.155s-14.19-4.706-19.039-6.37l-5.739-2.023a12.4,12.4,0,0,1-2.08-.832Z" transform="translate(-47.127 -7.377)" fill="#e0e0e0" />
				<path id="Path_411" data-name="Path 411" d="M264.346,572.066a12.829,12.829,0,0,1,1.679-1.707l4.749-4.462c4-3.773,9.512-9.01,15.438-14.964s11.162-11.478,14.921-15.5l4.448-4.763a15.232,15.232,0,0,1,1.707-1.693,12.706,12.706,0,0,1-1.435,1.894c-.976,1.191-2.439,2.87-4.3,4.936-3.659,4.132-8.824,9.727-14.778,15.682s-11.478,11.148-15.61,14.821c-2.066,1.822-3.745,3.3-4.936,4.3A14.263,14.263,0,0,1,264.346,572.066Z" transform="translate(-42.668 -9.586)" fill="#e0e0e0" />
				<path id="Path_412" data-name="Path 412" d="M138.295,125.748l-14-4.3s-3.673,11.765-15.954,8.164a11.894,11.894,0,0,1-8.709-10.66,13.085,13.085,0,0,1,4.519-11.091c3.6-3.185,9.914-5.122,18.824-.517l9.857-31.564-13.845-4.3-5.739,18.494s-21-1.047-27.676,20.345c-6.385,20.474,10.488,30.962,18.35,33.415C109.887,145.591,130.848,150.526,138.295,125.748Z" transform="translate(-59.287 -51.783)" fill="#f5f5f5" />
				<rect id="Rectangle_71" data-name="Rectangle 71" width="14.72" height="13.745" transform="matrix(-0.955, -0.298, 0.298, -0.955, 75.624, 17.506)" fill="#f5f5f5" />
				<path id="Path_413" data-name="Path 413" d="M169.144,89.677l5.61-1.435a4.921,4.921,0,0,1,3.63-6.069,4.706,4.706,0,0,1,5.165,1.736,5.179,5.179,0,0,1,.789,4.634c-.531,1.822-2.238,3.8-6.2,4.132l3.343,12.64,5.538-1.435-1.951-7.4a11.177,11.177,0,0,0,4.979-12.626c-2.152-8.207-10.043-8.164-13.157-7.346C174.481,77.066,166.433,79.806,169.144,89.677Z" transform="translate(-51.499 -51.351)" fill="#ebebeb" />
				<rect id="Rectangle_72" data-name="Rectangle 72" width="5.85" height="5.461" transform="translate(131.826 55.888) rotate(-15.005)" fill="#ebebeb" />
				<path id="Path_414" data-name="Path 414" d="M593.136,222.1l5.452,1.966a4.936,4.936,0,0,1,6.456-2.869,4.677,4.677,0,0,1,3.243,4.3,5.208,5.208,0,0,1-1.98,4.3c-1.435,1.191-4,1.836-7.446-.144l-4.462,12.3,5.395,1.951,2.611-7.174a11.205,11.205,0,0,0,11.291-7.547c2.87-7.977-3.6-12.41-6.657-13.515C604.7,214.758,596.522,212.448,593.136,222.1Z" transform="translate(-12.343 -38.567)" fill="#ebebeb" />
				<rect id="Rectangle_73" data-name="Rectangle 73" width="5.825" height="5.438" transform="translate(581.168 205.851) rotate(19.91)" fill="#ebebeb" />
				<path id="Path_415" data-name="Path 415" d="M63.579,281.311l11.478-4.448s-3.73-9.684,6.27-13.745A10.043,10.043,0,0,1,92.661,265.6a11.091,11.091,0,0,1,2.783,9.656c-.717,3.989-3.874,8.608-12.181,10.2l10.043,26.012,11.478-4.39L98.9,291.842s14.347-10.3,7.618-27.949c-6.528-16.872-23.228-14.95-29.642-12.468C71.929,253.334,55.515,261.038,63.579,281.311Z" transform="translate(-61.387 -35.335)" fill="#f5f5f5" />
				<rect id="Rectangle_74" data-name="Rectangle 74" width="12.41" height="11.593" transform="translate(33.992 281.499) rotate(-21.07)" fill="#f5f5f5" />
				<path id="Path_416" data-name="Path 416" d="M599.917,320.533l-8.178,3.142s2.64,6.872-4.448,9.742a7.174,7.174,0,0,1-8.035-1.75,7.848,7.848,0,0,1-1.966-6.844c.516-2.869,2.755-6.083,8.608-7.174l-7.03-18.494-8.092,3.113,4.161,10.8a16.915,16.915,0,0,0-5.395,19.8c4.605,11.951,16.4,10.6,20.99,8.838C594.006,340.347,605.627,334.895,599.917,320.533Z" transform="translate(-14.634 -30.783)" fill="#f5f5f5" />
				<rect id="Rectangle_75" data-name="Rectangle 75" width="8.795" height="8.207" transform="translate(562.75 264.578) rotate(158.93)" fill="#f5f5f5" />
			</g>
			<g id="freepik--Floor--inject-4" transform="translate(0 606.64)">
				<path id="Path_417" data-name="Path 417" d="M671.89,609.232c0,.215-141.824.373-316.732.373S38.4,609.448,38.4,609.232s141.8-.373,316.761-.373S671.89,609.032,671.89,609.232Z" transform="translate(-38.396 -608.859)" fill="#263238" />
			</g>
			<g id="freepik--Plant--inject-4" transform="translate(35.801 357.67)">
				<path id="Path_418" data-name="Path 418" d="M126.35,584.038c1.435-5.28-2.109-10.574-5.983-14.347s-8.508-7.245-10.531-12.31c-3.271-8.207,1.119-18.824-4.448-25.667-3.286-4.017-9.168-5.366-12.08-9.67a21.851,21.851,0,0,1-2.626-7.676A77.935,77.935,0,0,0,71.27,478.04a67.749,67.749,0,0,0,7.618,35.008c2.253,4.3,5.036,8.494,5.739,13.3,1.22,7.791-3.142,15.782-1.22,23.472,2.2,8.752,12.023,14.62,12.482,23.63.4,7.618-6.241,14.347-5.739,21.923a20.4,20.4,0,0,0,3.429,9.039c5.882,9.8,14.548,16.542,27.662,16.327l16.069.56Z" transform="translate(-71.174 -371.955)" fill="#0dbdb8" />
				<g id="Group_3156" data-name="Group 3156" transform="translate(0 106.084)" opacity="0.3">
					<path id="Path_419" data-name="Path 419" d="M126.35,584.038c1.435-5.28-2.109-10.574-5.983-14.347s-8.508-7.245-10.531-12.31c-3.271-8.207,1.119-18.824-4.448-25.667-3.286-4.017-9.168-5.366-12.08-9.67a21.851,21.851,0,0,1-2.626-7.676A77.935,77.935,0,0,0,71.27,478.04a67.749,67.749,0,0,0,7.618,35.008c2.253,4.3,5.036,8.494,5.739,13.3,1.22,7.791-3.142,15.782-1.22,23.472,2.2,8.752,12.023,14.62,12.482,23.63.4,7.618-6.241,14.347-5.739,21.923a20.4,20.4,0,0,0,3.429,9.039c5.882,9.8,14.548,16.542,27.662,16.327l16.069.56Z" transform="translate(-71.174 -478.04)" />
				</g>
				<path id="Path_420" data-name="Path 420" d="M135.368,626.294a12.91,12.91,0,0,0,4.433-.086,27.645,27.645,0,0,0,5.208-1.32,22.309,22.309,0,0,0,6.456-3.529,8.924,8.924,0,0,0,2.654-3.544,16.743,16.743,0,0,0,.746-4.792,46.656,46.656,0,0,1,.387-5.194,14.046,14.046,0,0,1,1.951-5.165c1.894-3.329,5.05-6.485,6.055-11s.316-9.254-.43-14.075-1.435-10.043.373-15.093,5.251-9.57,7.016-15.222.933-11.88,1.306-17.949a23.673,23.673,0,0,1,2.095-8.924c1.291-2.869,3.1-5.524,4.505-8.508,2.869-6.055,3.357-12.913,4.132-19.642.387-3.386.76-6.815,1.148-10.258A50.991,50.991,0,0,1,185.2,471.7a92.059,92.059,0,0,1,3.845-9.943,34.562,34.562,0,0,0,1.865-5.179,52.3,52.3,0,0,0,.517-5.538,65.723,65.723,0,0,0-.43-11.119c-.43-3.7-1.1-7.375-1.506-11.091v-.646l-.086-.732-.646.316a24.82,24.82,0,0,0-8.608,7.3,39.671,39.671,0,0,0-5.323,9.8c-2.683,6.9-3.644,14.132-4.993,21.033s-3.07,13.687-6.6,19.426c-1.765,2.869-3.9,5.481-5.739,8.264a22.641,22.641,0,0,0-3.989,9.154c-.961,6.8,2.783,12.769,2.009,18.8a20.789,20.789,0,0,1-2.869,8.336c-1.435,2.568-3.171,4.95-4.806,7.331a47,47,0,0,0-4.3,7.418,23.343,23.343,0,0,0-1.98,8.049c-.387,5.423.373,10.56,0,15.409a35.51,35.51,0,0,1-3.974,13.214c-1.937,3.945-4.1,7.518-5.911,10.99-.9,1.722-1.75,3.415-2.439,5.122a25.64,25.64,0,0,0-1.435,5.079,31.852,31.852,0,0,0-.115,9.168,23.114,23.114,0,0,0,4.591,11.693,11.64,11.64,0,0,0,1.306,1.435,6.531,6.531,0,0,0,1.047.89c.6.445.918.646.918.646a19.984,19.984,0,0,1-3.113-3.07,23.17,23.17,0,0,1-4.3-11.621,31.694,31.694,0,0,1,.2-9.039,24.392,24.392,0,0,1,1.435-4.95,52.421,52.421,0,0,1,2.453-5.05c1.822-3.443,4-7,5.983-10.976a35.869,35.869,0,0,0,4.1-13.444c.43-4.95-.316-10.115.086-15.395a23.041,23.041,0,0,1,1.937-7.791,46.8,46.8,0,0,1,4.3-7.26c1.636-2.382,3.372-4.763,4.864-7.389a21.521,21.521,0,0,0,3.07-8.68c.775-6.413-2.941-12.41-1.98-18.738a22,22,0,0,1,3.859-8.752c1.822-2.74,3.974-5.352,5.739-8.293,3.659-5.9,5.423-12.812,6.758-19.742s2.324-14.1,4.964-20.875a38.609,38.609,0,0,1,5.179-9.527,23.8,23.8,0,0,1,8.278-7l-.732-.416a2.117,2.117,0,0,0,.072.66c.4,3.759,1.076,7.432,1.435,11.1a63.645,63.645,0,0,1,.416,10.947,53.621,53.621,0,0,1-.488,5.366,32.282,32.282,0,0,1-1.808,5.007,94.76,94.76,0,0,0-3.874,10.043,52.081,52.081,0,0,0-1.808,10.445c-.373,3.458-.76,6.887-1.133,10.273-.775,6.758-1.277,13.5-4.017,19.34-1.435,2.87-3.156,5.61-4.491,8.537a24.549,24.549,0,0,0-2.152,9.254c-.359,6.2.445,12.267-1.234,17.748s-5.165,10.043-6.93,15.223-1.119,10.66-.344,15.466,1.55,9.541.517,13.8-3.989,7.446-5.911,10.861a14.62,14.62,0,0,0-1.994,5.38,45.17,45.17,0,0,0-.344,5.251,16.068,16.068,0,0,1-.689,4.677,8.451,8.451,0,0,1-2.482,3.372,22.112,22.112,0,0,1-6.3,3.558,27.828,27.828,0,0,1-5.151,1.435,19.743,19.743,0,0,1-3.257.316C135.755,626.294,135.368,626.294,135.368,626.294Z" transform="translate(-65.988 -376.621)" fill="#263238" />
				<path id="Path_421" data-name="Path 421" d="M185.451,436.241a1.724,1.724,0,0,0-.158.488l-.344,1.435c-.316,1.277-.7,3.185-1.306,5.567s-2.08,5.079-3.329,8.393a119.764,119.764,0,0,0-3.816,11.392c-1.234,4.3-2.31,9.039-3.458,14.147a59.5,59.5,0,0,1-5.136,15.682,85.877,85.877,0,0,0-3.974,8.149,37.374,37.374,0,0,0-2.31,9.211,188.061,188.061,0,0,1-3.472,19.441c-3.214,13.157-6.284,25.7-9.082,37.117s-5.438,21.636-7.618,30.273-3.831,15.524-5.036,20.445c-.56,2.353-1,4.2-1.32,5.567-.129.588-.244,1.062-.33,1.435a2.652,2.652,0,0,0,0,.5,1.878,1.878,0,0,0,.187-.473c.1-.387.244-.846.416-1.435.359-1.334.861-3.185,1.506-5.524,1.291-4.878,3.113-11.808,5.366-20.345s4.878-18.867,7.819-30.216,5.925-23.974,9.168-37.145a178.929,178.929,0,0,0,3.386-19.5,37.058,37.058,0,0,1,2.238-9c1.133-2.87,2.583-5.438,3.9-8.078,2.869-5.237,4-10.861,5.136-15.926s2.138-9.857,3.314-14.132,2.41-8.092,3.644-11.392,2.6-6.026,3.185-8.494.861-4.3,1.119-5.624q.143-.89.258-1.435C185.451,436.413,185.48,436.241,185.451,436.241Z" transform="translate(-65.31 -375.81)" fill="#263238" />
				<path id="Path_422" data-name="Path 422" d="M142.2,630.658c10.488-6.241,13.5-25.18,9.125-36.571s-12.037-21.808-13.214-33.96c-.918-9.34,2.152-18.924,0-28.049-2.941-12.324-14.964-21.865-14.821-34.534.072-7.1,4.118-13.788,3.788-20.89-.387-8.694-7.073-15.61-11.205-23.271-6.342-11.75-6.758-25.624-8.924-38.738s-7.174-27.26-18.852-33.731c-1.722,11.177-4.663,18.838-3.745,33.975.344,5.438,6.657,15.782,7.518,27.762.517,7.174.861,14.261,1.306,21.378s.875,14,3.357,20.488c1.908,4.979,4.964,9.5,6.385,14.634,2.654,9.656-.846,20.086,1.306,29.9,1.822,8.293,7.561,15.423,8.738,23.831,1.636,11.808-6,24.089-2.095,35.352,1.951,5.6,6.542,10.043,7.848,15.854,1.019,4.476-.086,9.225.832,13.716,1.435,7.26,15.294,12.913,22.683,12.439" transform="translate(-69.975 -380.913)" fill="#0dbdb8" />
				<path id="Path_423" data-name="Path 423" d="M90.389,391.015a3.4,3.4,0,0,0,0,.631c0,.473.143,1.076.23,1.836.244,1.621.516,3.989,1.062,7.059s2.181,6.542,3.443,10.732,2.669,8.981,3.845,14.347,2.209,11.349,3.257,17.762,2.2,13.4,5.38,20.086c1.435,3.343,3.128,6.7,4.3,10.287a46.413,46.413,0,0,1,2.209,11.334,226.837,226.837,0,0,0,3.085,24.391c3.214,16.557,6.27,32.325,9.053,46.686s5.581,27.174,7.819,38.021,4.075,19.512,5.352,25.624l1.435,6.958c.172.746.3,1.334.416,1.793a3.573,3.573,0,0,0,.172.617,2.625,2.625,0,0,0,0-.631c-.086-.473-.186-1.062-.316-1.822-.316-1.664-.76-4.017-1.32-7-1.205-6.126-2.869-14.878-5.036-25.682s-4.735-23.759-7.59-38.064-5.739-30.13-8.967-46.672a228.854,228.854,0,0,1-3.1-24.391,47.088,47.088,0,0,0-2.281-11.564c-1.277-3.644-2.956-7.016-4.433-10.344-3.156-6.585-4.3-13.458-5.395-19.842s-2.138-12.382-3.386-17.776-2.611-10.215-4.017-14.347-2.97-7.633-3.6-10.631-.933-5.409-1.234-7c-.143-.746-.258-1.349-.344-1.822a4.866,4.866,0,0,0-.043-.574Z" transform="translate(-69.403 -379.981)" fill="#263238" />
			</g>
			<g id="freepik--speech-bubble--inject-4" transform="translate(510.039 19.239)">
				<path id="Path_424" data-name="Path 424" d="M555.443,118.125H549.7a4.864,4.864,0,0,1-4.979,4.892,4.62,4.62,0,0,1-4.476-2.956,5.108,5.108,0,0,1,.4-4.62c.976-1.607,3.1-3.056,6.944-2.382V100.148h-5.639v7.547a11.019,11.019,0,0,0-7.905,10.761c0,8.35,7.489,10.287,10.7,10.287C547.207,128.8,555.558,128.211,555.443,118.125Z" transform="translate(-502.721 -68.377)" fill="#0dbdb8" />
				<rect id="Rectangle_76" data-name="Rectangle 76" width="5.725" height="5.352" transform="translate(44.917 29.16) rotate(180)" fill="#0dbdb8" />
				<path id="Path_425" data-name="Path 425" d="M589.38,113.175a4.678,4.678,0,0,0,0-.732V110.32a12.29,12.29,0,0,0-.072-1.564c-.072-.574-.158-1.205-.258-1.865s-.2-1.435-.316-2.2l-.6-2.439a39.8,39.8,0,0,0-5.165-11.837,41.737,41.737,0,0,0-31.406-19.2,42.183,42.183,0,0,0-5.739-.115,14.624,14.624,0,0,0-2.869.187L540,71.74a42.6,42.6,0,0,0-11.65,3.974,45.452,45.452,0,0,0-10.459,7.618,43.543,43.543,0,0,0-7.877,10.961,39.786,39.786,0,0,0-4.247,13.357,27.068,27.068,0,0,0-.3,3.572,30.133,30.133,0,0,0-.072,3.6,42.339,42.339,0,0,0,6.958,21.593v-.445c-1.994,4.979-3.96,9.871-5.882,14.634l-.344.875.9-.258,15.639-4.3-.373-.086a41.866,41.866,0,0,0,17.906,7.834,37.3,37.3,0,0,0,9.154.56,27.933,27.933,0,0,0,4.4-.416l2.138-.33c.7-.129,1.435-.344,2.066-.5A41.851,41.851,0,0,0,581.8,137.637a39.928,39.928,0,0,0,5.122-9.713c.273-.76.531-1.435.775-2.181s.373-1.435.531-2.08.33-1.306.473-1.908.187-1.191.273-1.75c.129-1.1.33-2.08.373-2.869s0-1.55,0-2.152v-1.75a1.509,1.509,0,0,0,0,.445,6.738,6.738,0,0,1-.1,1.306c-.1.545-.086,1.306-.143,2.138s-.273,1.808-.445,2.869A41.607,41.607,0,0,1,557.8,153.276c-.674.158-1.349.359-2.037.488l-2.109.316a28.6,28.6,0,0,1-4.3.387,38.208,38.208,0,0,1-8.982-.588,41.392,41.392,0,0,1-17.489-7.7l-.172-.143h-.215l-15.653,4.3.545.617,5.9-14.62.086-.23-.129-.215a41.263,41.263,0,0,1-5.911-14.046,42.04,42.04,0,0,1-.889-7.059,28.675,28.675,0,0,1,.072-3.515,23.486,23.486,0,0,1,.287-3.486,38.825,38.825,0,0,1,4-13.07,43.2,43.2,0,0,1,7.676-10.732A44.3,44.3,0,0,1,528.719,76.5a41.306,41.306,0,0,1,11.406-3.946l2.869-.445c.961-.143,1.923-.129,2.87-.2a42.9,42.9,0,0,1,5.61.1,41.292,41.292,0,0,1,31.033,18.652,39.73,39.73,0,0,1,5.251,11.65l.646,2.41c.129.76.244,1.435.359,2.152s.2,1.291.3,1.865.072,1.09.115,1.55a20.731,20.731,0,0,0,.158,2.109,2.423,2.423,0,0,0,.043.775Z" transform="translate(-505.367 -71.06)" fill="#263238" />
			</g>
			<g id="freepik--question-mark--inject-4" transform="translate(131.852 75.167)">
				<path id="Path_426" data-name="Path 426" d="M190.563,277.651h82.856s0-69.57,72.3-70.8c37.547-.66,57.016,23.946,64.936,42.784,9.182,21.88,6.4,46.815-5.911,67.117-14.046,23.171-44.319,46.457-100.159,36.614l-.531,184.608h81.938V428.528S500.9,398.829,500.9,272.141c0-121.164-97.978-147.333-150.647-149.026-29.3-.933-39.914-2.2-76.156,2.956C227.909,132.671,189.588,186.3,190.563,277.651Z" transform="translate(-156.215 -122.265)" fill="#0dbdb8" />
				<rect id="Rectangle_77" data-name="Rectangle 77" width="83.157" height="77.662" transform="translate(147.606 454.184)" fill="#0dbdb8" />
				<rect id="Rectangle_78" data-name="Rectangle 78" width="83.157" height="77.662" transform="translate(147.606 454.184)" opacity="0.1" />
				<path id="Path_427" data-name="Path 427" d="M190.563,277.651h82.856s0-69.57,72.3-70.8c37.547-.66,57.016,23.946,64.936,42.784,9.182,21.88,6.4,46.815-5.911,67.117-14.046,23.171-44.319,46.457-100.159,36.614l-.531,184.608h81.938V428.528S500.9,398.829,500.9,272.141c0-121.164-97.978-147.333-150.647-149.026-29.3-.933-39.914-2.2-76.156,2.956C227.909,132.671,189.588,186.3,190.563,277.651Z" transform="translate(-156.215 -122.265)" opacity="0.1" />
				<path id="Path_428" data-name="Path 428" d="M159.129,277.6H242s0-69.57,72.3-70.8c37.547-.66,57.016,23.946,64.922,42.784,9.2,21.88,6.413,46.815-5.9,67.117-14.046,23.171-44.85,44.233-100.69,34.434V537.921h81.938V428.479s114.908-29.7,114.908-156.386c0-121.164-108.667-149.3-155.167-149.3C278.743,122.837,157.565,131.431,159.129,277.6Z" transform="translate(-159.114 -122.216)" fill="#0dbdb8" />
				<path id="Path_429" data-name="Path 429" d="M159.129,277.6H242s0-69.57,72.3-70.8c37.547-.66,57.016,23.946,64.922,42.784,9.2,21.88,6.413,46.815-5.9,67.117-14.046,23.171-44.85,44.233-100.69,34.434V537.921h81.938V428.479s114.908-29.7,114.908-156.386c0-121.164-108.667-149.3-155.167-149.3C278.743,122.837,157.565,131.431,159.129,277.6Z" transform="translate(-159.114 -122.216)" opacity="0.3" />
				<rect id="Rectangle_79" data-name="Rectangle 79" width="83.157" height="77.662" transform="translate(113.287 454.184)" fill="#0dbdb8" />
				<rect id="Rectangle_80" data-name="Rectangle 80" width="83.157" height="77.662" transform="translate(113.287 454.184)" opacity="0.3" />
				<path id="Path_430" data-name="Path 430" d="M316.692,200.122a7.175,7.175,0,0,1-1.234,0c-.818,0-1.994-.273-3.53-.287a71.581,71.581,0,0,0-13,.545,92.085,92.085,0,0,0-18.752,4.4,80.233,80.233,0,0,0-10.445,4.505A55.212,55.212,0,0,0,259.5,215.9a50.562,50.562,0,0,0-8.365,8.838,86.614,86.614,0,0,0-6.27,9.5A84.924,84.924,0,0,0,237.452,252a72.236,72.236,0,0,0-2.5,12.769c-.172,1.521-.215,2.726-.258,3.529a6.526,6.526,0,0,1-.115,1.234,6.863,6.863,0,0,1,0-1.234c0-.818,0-2.023.129-3.558a66,66,0,0,1,2.281-12.913,82.641,82.641,0,0,1,7.317-17.963,85.936,85.936,0,0,1,6.3-9.6,50.216,50.216,0,0,1,8.465-8.967,55.609,55.609,0,0,1,10.359-6.7,80.344,80.344,0,0,1,10.517-4.591,90.131,90.131,0,0,1,18.924-4.3,66,66,0,0,1,13.07-.3,30.931,30.931,0,0,1,3.529.43,8.91,8.91,0,0,1,1.22.287Z" transform="translate(-152.156 -115.168)" fill="#263238" />
				<path id="Path_431" data-name="Path 431" d="M435.883,192.387s-.1-.1-.273-.316-.43-.588-.717-1l-2.74-3.874c-.588-.832-1.22-1.793-1.966-2.783l-2.582-3.142-2.956-3.63c-1.076-1.263-2.339-2.482-3.6-3.816s-2.554-2.755-4.017-4.118-3.027-2.755-4.634-4.189c-.8-.717-1.593-1.435-2.453-2.2l-2.669-2.109c-1.822-1.435-3.63-2.869-5.6-4.3a180.36,180.36,0,0,0-27.16-16.04l-7.561-3.415-7.5-2.869c-2.453-1.019-4.95-1.736-7.36-2.539s-4.763-1.621-7.174-2.181l-6.858-1.793c-2.224-.588-4.433-.947-6.542-1.435a59.661,59.661,0,0,0-6.141-1.162l-5.739-.832c-3.63-.617-6.958-.746-9.857-1.033-1.435-.115-2.869-.273-4.06-.33l-3.415-.086-4.735-.158h-1.65a1.349,1.349,0,0,1,.416,0h9.4c1.248,0,2.611.172,4.075.273,2.869.244,6.255.344,9.885.933l5.739.775c1.994.23,4.032.746,6.155,1.133s4.3.789,6.585,1.435l6.887,1.779c2.382.545,4.735,1.435,7.174,2.166a60.566,60.566,0,0,1,7.375,2.525l7.547,2.869,7.6,3.429a175.839,175.839,0,0,1,27.26,16.155c1.98,1.435,3.788,2.97,5.61,4.39l2.669,1.937c.861.717,1.65,1.435,2.453,2.21l4.62,4.3c1.435,1.435,2.726,2.869,4,4.175s2.5,2.583,3.573,3.859l2.869,3.659,2.554,3.185c.732,1,1.349,1.98,1.923,2.869,1.119,1.679,1.994,3,2.611,3.946l.674,1.047A1.651,1.651,0,0,1,435.883,192.387Z" transform="translate(-146.496 -122.196)" fill="#263238" />
				<path id="Path_432" data-name="Path 432" d="M423.334,349.413a4.434,4.434,0,0,1-.617.861l-1.98,2.339c-.818,1.047-1.851,2.3-3.128,3.687s-2.64,3.027-4.3,4.72-3.443,3.587-5.466,5.5-4.218,3.917-6.557,6.012a179.168,179.168,0,0,1-33.515,23.114c-2.783,1.435-5.409,2.869-7.948,3.974s-4.907,2.238-7.088,3.156-4.189,1.679-5.94,2.353-3.286,1.22-4.548,1.621l-2.869.933a5,5,0,0,1-1.033.287,5.123,5.123,0,0,1,.976-.43l2.869-1.062c1.248-.445,2.755-1.019,4.491-1.736s3.745-1.435,5.9-2.453,4.534-1.98,7.016-3.228,5.136-2.568,7.905-4.017c5.466-3.013,11.363-6.542,17.317-10.617a194.752,194.752,0,0,0,16.069-12.41c2.339-2.066,4.577-4,6.571-5.954s3.859-3.716,5.509-5.409,3.1-3.257,4.39-4.634,2.353-2.583,3.214-3.587l2.009-2.281A6.518,6.518,0,0,1,423.334,349.413Z" transform="translate(-142.584 -101.315)" fill="#263238" />
				<path id="Path_433" data-name="Path 433" d="M336.77,505.6c-.215,0-.387-23.042-.387-51.464s.172-51.478.387-51.478.373,23.042.373,51.478S336.971,505.6,336.77,505.6Z" transform="translate(-142.764 -96.405)" fill="#263238" />
				<path id="Path_434" data-name="Path 434" d="M339.659,610.48c-.215,0-.373-16.169-.373-36.112s.158-36.127.373-36.127.373,16.169.373,36.127S339.86,610.48,339.659,610.48Z" transform="translate(-142.497 -83.899)" fill="#263238" />
			</g>
			<g id="freepik--Character--inject-4" transform="translate(403.893 44.83)">
				<path id="Path_435" data-name="Path 435" d="M414.325,255.728c-1.435,2.869,3.917,5.222,7,6.155a28.149,28.149,0,0,0,9.627.66c4.3-.23,8.709-.631,12.425-2.755a19.828,19.828,0,0,0,7.489-8.393,59.042,59.042,0,0,0,3.8-10.746S420.767,242.858,414.325,255.728Z" transform="translate(-407.639 -81.009)" fill="#0dbdb8" />
				<g id="Group_3157" data-name="Group 3157" transform="translate(6.446 159.64)" opacity="0.4">
					<path id="Path_436" data-name="Path 436" d="M414.325,255.728c-1.435,2.869,3.917,5.222,7,6.155a28.149,28.149,0,0,0,9.627.66c4.3-.23,8.709-.631,12.425-2.755a19.828,19.828,0,0,0,7.489-8.393,59.042,59.042,0,0,0,3.8-10.746S420.767,242.858,414.325,255.728Z" transform="translate(-414.085 -240.649)" />
				</g>
				<path id="Path_437" data-name="Path 437" d="M502.16,246.889a32.54,32.54,0,0,0,19.139,6,13.53,13.53,0,0,0,9.111-2.869c1.1-1.019,1.937-2.31,3.07-3.286.775-.66,1.679-1.162,2.41-1.865a3.085,3.085,0,0,0,1.047-2.726,5.638,5.638,0,0,0-1.98-3.156c-3.888-2.21-8.537-2.123-13.013-2.023a44.779,44.779,0,0,0-13.128,2.568c-3.472,1.177-7.1,2.87-8.867,6.026" transform="translate(-399.72 -81.353)" fill="#0dbdb8" />
				<g id="Group_3158" data-name="Group 3158" transform="translate(100.231 155.588)" opacity="0.4">
					<path id="Path_438" data-name="Path 438" d="M536.938,242.139a5.954,5.954,0,0,0-2.539-2.869c-3.888-2.21-7.977-2.41-12.453-2.31a44.778,44.778,0,0,0-13.128,2.568c-3.472,1.177-7.1,2.87-8.867,6.026l2.21,1.334a32.54,32.54,0,0,0,19.139,6,13.529,13.529,0,0,0,9.111-2.869c1.1-1.019,1.937-2.31,3.07-3.286.775-.66,1.679-1.162,2.41-1.865A3.085,3.085,0,0,0,536.938,242.139Z" transform="translate(-499.95 -236.939)" />
				</g>
				<path id="Path_439" data-name="Path 439" d="M444.425,303.756l71.522.947a.933.933,0,0,0,.889-1.205l-8.393-26.17s1.234-13.085,2.941-28.809c2.6-23.888,6.055-53.917,6.1-53.831-4.892-13.716-33.759-16.04-33.759-16.04l-32.9,1.951-1.148-1.937-9.469,4.4a43.231,43.231,0,0,0-5.94,3.357c-6.255,4.175-21.32,13.773-24.075,24.462-6.356,24.749,4.4,52.368,4.4,52.368l6.915-5.409a48.551,48.551,0,0,1,5.481-3.659l13.86,37.145a6.557,6.557,0,0,0-3.013,4.763c-.115,3.013,1.435,6.629,6.586,7.662" transform="translate(-408.183 -86.727)" fill="#0dbdb8" />
				<g id="Group_3159" data-name="Group 3159" transform="translate(57.582 136.167)" opacity="0.3">
					<path id="Path_440" data-name="Path 440" d="M470.251,256.232c2.267-12.2,1.076-24.735-.143-37.074-3.96,10.043-3.816,21.521-8.02,31.478a13.486,13.486,0,0,0-1.119,3.314,3.716,3.716,0,0,0,.947,3.243c1.148,1.047,2.869.473,4.39.3a17.128,17.128,0,0,0,3.946-1.263" transform="translate(-460.903 -219.158)" />
				</g>
				<g id="Group_3160" data-name="Group 3160" transform="translate(39.642 192.378)" opacity="0.4">
					<path id="Path_441" data-name="Path 441" d="M445.381,279.721c5.739,1.994,11.851-1.722,17.92-2.382,4.017-.43,8.035.488,12.023,1.133a90.189,90.189,0,0,0,24.391.6,9.355,9.355,0,0,0,3.587-.933,4.3,4.3,0,0,0,1.88-3.558c-13.515-1.435-27.016-2.21-40.531-3.6a25.31,25.31,0,0,0-10.129.33c-4.075,1.263-7.174,4.462-10.043,7.633" transform="translate(-444.477 -270.623)" />
				</g>
				<path id="Path_442" data-name="Path 442" d="M535.5,241.574c-5.839-13.157-26.428-49.541-26.428-49.541l-15.94,19.986,3.716,39.24s8.422-9.4,31.966-9.584a11.478,11.478,0,0,1,8.752,4.62Z" transform="translate(-400.348 -85.493)" fill="#0dbdb8" />
				<path id="Path_443" data-name="Path 443" d="M444.686,232.487a54.1,54.1,0,0,1-2.7-8.608,54.357,54.357,0,0,1-1.951-8.766,56.927,56.927,0,0,1,2.683,8.608,55.421,55.421,0,0,1,1.966,8.766Z" transform="translate(-405.245 -83.364)" fill="#263238" />
				<path id="Path_444" data-name="Path 444" d="M492.03,207.9a9.451,9.451,0,0,1,1.435,1.248,41.6,41.6,0,0,1,3.558,3.9,37.891,37.891,0,0,1,7.618,15.581,29.394,29.394,0,0,1,.445,9.613c-.359,2.941-.918,5.524-1.291,7.7s-.6,3.96-.717,5.194a9.614,9.614,0,0,1-.2,1.908,8.609,8.609,0,0,1-.086-1.937,46.516,46.516,0,0,1,.488-5.251c.3-2.2.8-4.806,1.133-7.69a29.683,29.683,0,0,0-.5-9.383,39.555,39.555,0,0,0-7.3-15.409C493.981,209.852,491.915,208.016,492.03,207.9Z" transform="translate(-400.45 -84.029)" fill="#263238" />
				<path id="Path_445" data-name="Path 445" d="M481.821,291.283a6.113,6.113,0,0,1-1.564.459,13.967,13.967,0,0,1-1.865.359c-.732.1-1.564.258-2.5.3a35.973,35.973,0,0,1-6.571,0,42.425,42.425,0,0,1-7.891-1.578,43.04,43.04,0,0,1-7.4-3.171,37.861,37.861,0,0,1-5.438-3.687c-.746-.574-1.349-1.177-1.894-1.679a16.516,16.516,0,0,1-1.334-1.349,5.611,5.611,0,0,1-1.019-1.263c.1-.1,1.636,1.621,4.577,3.874a41.281,41.281,0,0,0,5.438,3.5,45.612,45.612,0,0,0,7.288,3.056,44.963,44.963,0,0,0,7.748,1.607,42.49,42.49,0,0,0,6.456.2C479.54,291.713,481.793,291.168,481.821,291.283Z" transform="translate(-404.848 -77.41)" fill="#263238" />
				<path id="Path_446" data-name="Path 446" d="M499.261,282.841a4.993,4.993,0,0,1,.56,2.095,12.912,12.912,0,0,1-.387,5.223,9.067,9.067,0,0,1-2.869,4.448c-1.047.875-1.851,1.148-1.894,1.076s.631-.545,1.535-1.435a10.159,10.159,0,0,0,2.453-4.3C499.806,286.155,498.988,282.855,499.261,282.841Z" transform="translate(-400.207 -77.118)" fill="#263238" />
				<path id="Path_447" data-name="Path 447" d="M495.574,287.465a7.776,7.776,0,0,1-3.07,7.92c-.158-.158,1.177-1.578,2.009-3.773S495.358,287.479,495.574,287.465Z" transform="translate(-400.408 -76.691)" fill="#263238" />
				<path id="Path_448" data-name="Path 448" d="M484.024,244.248a30.461,30.461,0,0,1-2.554,3.673,29.4,29.4,0,0,1-2.511,3.7,9.2,9.2,0,0,1,1.894-4.132,9.053,9.053,0,0,1,3.171-3.242Z" transform="translate(-401.656 -80.677)" fill="#263238" />
				<path id="Path_449" data-name="Path 449" d="M440.662,213.2a36,36,0,0,1-3.171-2.095,40.732,40.732,0,0,0-16.944-6.327,31.97,31.97,0,0,1-3.773-.5,14,14,0,0,1,3.831,0,34.261,34.261,0,0,1,17.217,6.413,13.687,13.687,0,0,1,2.841,2.511Z" transform="translate(-407.391 -84.376)" fill="#263238" />
				<path id="Path_450" data-name="Path 450" d="M508.791,191.6a62.021,62.021,0,0,0-7.174,6.786,61.688,61.688,0,0,0-5.438,8.293,8.754,8.754,0,0,1,.99-2.783,28.934,28.934,0,0,1,3.874-6,28.178,28.178,0,0,1,5.251-4.835,8.437,8.437,0,0,1,2.5-1.463Z" transform="translate(-400.067 -85.533)" fill="#263238" />
				<path id="Path_451" data-name="Path 451" d="M484.2,180.775a3.146,3.146,0,0,1,.316.66,12.8,12.8,0,0,1,.674,2.009,16.888,16.888,0,0,1,0,7.776,19.139,19.139,0,0,1-5.854,9.885,19.871,19.871,0,0,1-13.2,4.706,22.4,22.4,0,0,1-13.415-4.4,25.41,25.41,0,0,1-7.332-8.881,26.9,26.9,0,0,1-2.439-7.389,16.141,16.141,0,0,1-.258-2.095,2.309,2.309,0,0,1,0-.746s.158,1,.56,2.783a29.256,29.256,0,0,0,2.626,7.174,25.423,25.423,0,0,0,7.274,8.608,21.922,21.922,0,0,0,12.913,4.3,19.4,19.4,0,0,0,12.755-4.476,18.939,18.939,0,0,0,5.739-9.5,17.5,17.5,0,0,0,.258-7.575C484.545,181.722,484.114,180.8,484.2,180.775Z" transform="translate(-405.003 -86.531)" fill="#263238" />
				<g id="Group_3161" data-name="Group 3161" transform="translate(77.304 164.034)" opacity="0.3">
					<path id="Path_452" data-name="Path 452" d="M485.875,246.748a2.106,2.106,0,0,0-.746-1.923,1.435,1.435,0,0,0-1.291,0,3.543,3.543,0,0,0-1.047.861,17.6,17.6,0,0,0-3.831,6.126l7.03-.617C485.946,249.747,485.918,248.226,485.875,246.748Z" transform="translate(-478.959 -244.672)" />
				</g>
				<g id="Group_3162" data-name="Group 3162" transform="translate(102.454 140.414)" opacity="0.3">
					<path id="Path_453" data-name="Path 453" d="M507.094,233.951a23.057,23.057,0,0,0-5.108-10.9c3.042,9.928,2.023,15.538.316,22.339l.373-.947C504.64,240.464,507.625,237.968,507.094,233.951Z" transform="translate(-501.986 -223.047)" />
				</g>
				<path id="Path_454" data-name="Path 454" d="M496.9,538.629l-4.29,64.348-27.977-.33-4.4-66.9Z" transform="translate(-403.383 -53.792)" fill="#ffbe9d" />
				<path id="Path_455" data-name="Path 455" d="M493.2,589.607v1.865s31.564,12.683,31.866,18.652l-62.684-.344.976-20.847C472.7,593.308,482.468,593.853,493.2,589.607Z" transform="translate(-403.185 -48.887)" fill="#0dbdb8" />
				<path id="Path_456" data-name="Path 456" d="M469.247,595.061a2.554,2.554,0,0,0-1.779,2.869,2.439,2.439,0,0,0,2.87,1.793,2.683,2.683,0,0,0,1.865-3.085,2.539,2.539,0,0,0-3.185-1.535" transform="translate(-402.719 -48.33)" fill="#fff" />
				<path id="Path_457" data-name="Path 457" d="M462.382,608.442l.23-5.007,60.029,2.181s2.783,1.234,2.453,3.185Z" transform="translate(-403.185 -47.549)" fill="#263238" />
				<path id="Path_458" data-name="Path 458" d="M491.291,591.44c0,.3-1.549.43-3.056,1.435s-2.324,2.253-2.6,2.138.186-1.894,2.037-3.042S491.363,591.11,491.291,591.44Z" transform="translate(-401.046 -48.682)" fill="#263238" />
				<path id="Path_459" data-name="Path 459" d="M497.165,593.945c.072.3-1.263.8-2.31,2.095s-1.349,2.654-1.664,2.64-.488-1.75.846-3.314S497.151,593.729,497.165,593.945Z" transform="translate(-400.364 -48.433)" fill="#263238" />
				<path id="Path_460" data-name="Path 460" d="M500.218,601.607c-.287,0-.7-1.435.1-3.142s2.224-2.324,2.353-2.08-.76,1.148-1.435,2.54S500.533,601.578,500.218,601.607Z" transform="translate(-399.729 -48.204)" fill="#263238" />
				<path id="Path_461" data-name="Path 461" d="M494.445,108.718c1.621-4.017-.344-8.881-3.831-11.478a16.7,16.7,0,0,0-12.468-2.425,49.657,49.657,0,0,0-12.253,4.3,13.817,13.817,0,0,0-23.472,7.661,8.809,8.809,0,0,0-10.431,11.55l19.4,6.815,21.177,37.3A16.944,16.944,0,0,0,497.5,139.924a14.7,14.7,0,0,0,2.984-3.673,14.835,14.835,0,0,0,6.844-9.182C509.208,118.762,502.78,109.694,494.445,108.718Z" transform="translate(-406.036 -94.489)" fill="#263238" />
				<path id="Path_462" data-name="Path 462" d="M481.414,185.24c-1.205-6.069-2.037-10.23-2.023-10.187s11.478-4.448,10.646-20.416c-.4-7.948-3.429-20.474-6.241-30.632-2.525-9.154-11.062-19.24-20.086-16.327l-27.36,13.343c-2.74.89-3.214,3.472-2.568,6.27v1.435l10.631,43.989,4.491,19.656a16.6,16.6,0,0,0,18.537,12.6h0a16.614,16.614,0,0,0,13.974-19.728Z" transform="translate(-405.846 -93.32)" fill="#ffbe9d" />
				<path id="Path_463" data-name="Path 463" d="M479.788,132.431a2.037,2.037,0,0,1-1.435,2.41,1.951,1.951,0,0,1-2.425-1.435,2.023,2.023,0,0,1,1.435-2.4,1.937,1.937,0,0,1,2.425,1.42Z" transform="translate(-401.94 -91.128)" fill="#263238" />
				<path id="Path_464" data-name="Path 464" d="M478.985,129.622c-.2.316-1.937-.473-4.06,0s-3.472,1.851-3.759,1.636,0-.617.588-1.248a5.6,5.6,0,0,1,2.941-1.636,5.265,5.265,0,0,1,3.3.359C478.8,129.062,479.071,129.493,478.985,129.622Z" transform="translate(-402.385 -91.375)" fill="#263238" />
				<path id="Path_465" data-name="Path 465" d="M460.715,136.734a2.023,2.023,0,0,1-1.435,2.4,1.951,1.951,0,0,1-2.425-1.349,2.037,2.037,0,0,1,1.435-2.41,1.951,1.951,0,0,1,2.425,1.363Z" transform="translate(-403.699 -90.726)" fill="#263238" />
				<path id="Path_466" data-name="Path 466" d="M460.1,134.259c-.187.316-1.937-.488-4.06,0s-3.472,1.836-3.759,1.636,0-.617.588-1.263a5.639,5.639,0,0,1,2.941-1.621,5.38,5.38,0,0,1,3.3.344C459.866,133.7,460.2,134.086,460.1,134.259Z" transform="translate(-404.127 -90.947)" fill="#263238" />
				<path id="Path_467" data-name="Path 467" d="M469.716,147.97a15.107,15.107,0,0,1,3.329-1.349c.531-.172,1.033-.387,1.047-.775a2.87,2.87,0,0,0-.7-1.535l-2.482-3.816c-3.472-5.438-6.112-9.943-5.9-10.043s3.214,4.161,6.686,9.6l2.425,3.845a3.285,3.285,0,0,1,.732,2.08,1.435,1.435,0,0,1-.732.976,3.616,3.616,0,0,1-.89.33A13.171,13.171,0,0,1,469.716,147.97Z" transform="translate(-402.943 -91.173)" fill="#263238" />
				<path id="Path_468" data-name="Path 468" d="M477.364,169.42a40.173,40.173,0,0,1-21.865-1.176s7.518,9.814,22.683,5.122Z" transform="translate(-403.819 -87.687)" fill="#eb996e" />
				<path id="Path_469" data-name="Path 469" d="M460.579,131.453c-.143.617-2.339.6-4.835,1.22s-4.476,1.55-4.878,1.062c-.172-.23.115-.832.875-1.435a8.235,8.235,0,0,1,3.5-1.736,8.422,8.422,0,0,1,3.888,0C460.148,130.75,460.679,131.166,460.579,131.453Z" transform="translate(-404.251 -91.183)" fill="#263238" />
				<path id="Path_470" data-name="Path 470" d="M478.3,123.435c-.344.574-2.181.43-4.3.846s-3.8,1.133-4.3.717c-.23-.215,0-.76.617-1.435a6.858,6.858,0,0,1,3.314-1.521,6.758,6.758,0,0,1,3.6.258C478.1,122.7,478.444,123.148,478.3,123.435Z" transform="translate(-402.518 -91.96)" fill="#263238" />
				<path id="Path_471" data-name="Path 471" d="M442.366,111.055a10.8,10.8,0,0,0,14.649,7.848c2.267-.918,4.62-2.64,6.915-1.808s3.243,4.1,5.438,5.323c3.228,1.808,7.174-1.32,10.775-1,2.869.244,5.036,2.439,7.26,4.3s5.294,3.271,7.8,1.923a31.707,31.707,0,0,0-2.539-6.915,10.7,10.7,0,0,0-5.251-4.964c-1.263-.5-2.625-.674-3.831-1.291-2.6-1.32-3.759-4.3-5.638-6.557A11.836,11.836,0,0,0,467.9,103.9c-3.1.316-6.04,1.879-9.168,1.75-2.31-.1-4.519-1.133-6.829-1.09-4.491,0-7.862,4.017-10.359,7.762" transform="translate(-405.106 -93.627)" fill="#263238" />
				<path id="Path_472" data-name="Path 472" d="M459.293,113.969c-2.066-.158-6.284-.588-7.676-2.052a12.109,12.109,0,0,0-11.478-3.788,10.043,10.043,0,0,0-7.174,9.555,14.347,14.347,0,0,0-10.474,10.287,16.672,16.672,0,0,0,3.587,15.079,29.859,29.859,0,0,1,2.353,3.4,24.307,24.307,0,0,0-2.554,3.874c-3.286,7.26,5.624,10.043,5.624,10.043,0,4.878,4.519,4.849,7.4,4.835s4.476,7.69,6.729,7.389l-2.281-23.774a2.956,2.956,0,0,0,1.047.2c5.438.1,4.017-10.2,2.267-12.913a31.854,31.854,0,0,0,4.075-6.571,22.253,22.253,0,0,0,.2-10.99C452.765,118.316,460.183,114.026,459.293,113.969Z" transform="translate(-406.911 -93.255)" fill="#263238" />
				<path id="Path_473" data-name="Path 473" d="M442.972,146.813a4.606,4.606,0,0,0-7.389-2.468c-1.435,1.234-2.2,3.3-1.334,6.758,2.324,9.24,11.119,5.007,11.062,4.749S443.977,150.63,442.972,146.813Z" transform="translate(-405.813 -89.987)" fill="#ffbe9d" />
				<path id="Path_474" data-name="Path 474" d="M441.391,152.815a2.418,2.418,0,0,1-.373.344,1.65,1.65,0,0,1-1.191.33c-1.062-.115-2.281-1.435-2.74-3.113a5.565,5.565,0,0,1-.129-2.41,1.937,1.937,0,0,1,.9-1.55.846.846,0,0,1,1.062.215c.187.215.172.416.23.43s.158-.215,0-.574a1.105,1.105,0,0,0-.5-.488,1.263,1.263,0,0,0-.947,0,2.367,2.367,0,0,0-1.334,1.851,5.739,5.739,0,0,0,.1,2.726,4.3,4.3,0,0,0,3.343,3.4,1.808,1.808,0,0,0,1.435-.617C441.434,153.044,441.434,152.829,441.391,152.815Z" transform="translate(-405.595 -89.747)" fill="#eb996e" />
				<path id="Path_475" data-name="Path 475" d="M491.318,137.053a13.736,13.736,0,0,0,4.892-9.254,13.228,13.228,0,0,0-.516-5.308,11.392,11.392,0,0,0-3.286-5.108,13.515,13.515,0,0,0-13.171-2.64c-.43.143-.832.359-1.234.531a11.012,11.012,0,0,0-1.133.646l-.574.316V115.6a4.62,4.62,0,0,0-1.162-3.013,7.39,7.39,0,0,0-2.712-1.836,9.8,9.8,0,0,0-6.155-.459c-3.96.9-7.317,2.712-10.488,3.085a10.129,10.129,0,0,1-7.174-1.435,5.58,5.58,0,0,1-1.435-1.435c-.23-.387-.344-.6-.316-.617a7.832,7.832,0,0,0,1.88,1.822,10.043,10.043,0,0,0,6.93,1.162,24.391,24.391,0,0,0,4.821-1.435,44.967,44.967,0,0,1,5.6-1.822,12.022,12.022,0,0,1,3.242-.33,9.857,9.857,0,0,1,3.343.775,8.091,8.091,0,0,1,2.869,2.066,5.466,5.466,0,0,1,1.349,3.5l-.574-.316,1.191-.689c.445-.172.861-.4,1.32-.56a14.1,14.1,0,0,1,13.9,2.769,11.879,11.879,0,0,1,3.415,5.423,13.96,13.96,0,0,1-2.74,12.913,9.11,9.11,0,0,1-1.593,1.435A2.727,2.727,0,0,1,491.318,137.053Z" transform="translate(-404.617 -93.125)" fill="#455a64" />
				<path id="Path_476" data-name="Path 476" d="M489.348,105.465a11.234,11.234,0,0,0-2.984-1.019,7.8,7.8,0,0,0-3.529.33,6.887,6.887,0,0,0-3.63,2.64l-.359.5-.215-.574a10.775,10.775,0,0,0-8.752-6.5,13.917,13.917,0,0,0-8.408,2.439,37.143,37.143,0,0,1-6.672,3.443,10.574,10.574,0,0,1-5.05.6,7.7,7.7,0,0,1-1.334-.373c-.287-.129-.445-.2-.43-.23s.646.187,1.808.3a11.019,11.019,0,0,0,4.835-.789,41.361,41.361,0,0,0,6.5-3.558,22.248,22.248,0,0,1,4.017-1.966,11.019,11.019,0,0,1,4.821-.617,11.32,11.32,0,0,1,9.268,7.016h-.56a7.489,7.489,0,0,1,4-2.783,8.164,8.164,0,0,1,3.759-.187,6.713,6.713,0,0,1,2.238.861,2.867,2.867,0,0,1,.674.459Z" transform="translate(-404.512 -93.977)" fill="#455a64" />
				<path id="Path_477" data-name="Path 477" d="M469,150.44a3.1,3.1,0,0,0-2.439-.689,3.687,3.687,0,0,0-2.425,1.765h0a.457.457,0,0,0-.086.115h0a1.836,1.836,0,0,0-.258,1.09,2.568,2.568,0,0,0,1.435,1.937,3.3,3.3,0,0,0,3.759-.545A2.683,2.683,0,0,0,469,150.44Z" transform="translate(-403.055 -89.396)" fill="#0dbdb8" />
				<path id="Path_478" data-name="Path 478" d="M469.759,154.791c-.115,0-.244-.43-.631-1.019a4.476,4.476,0,0,0-4.663-2.123c-.7.1-1.134.3-1.177.2s.287-.445,1.062-.717a4.3,4.3,0,0,1,3.085.172,4.189,4.189,0,0,1,2.167,2.224C469.9,154.274,469.859,154.776,469.759,154.791Z" transform="translate(-403.101 -89.284)" fill="#263238" />
				<path id="Path_479" data-name="Path 479" d="M442.871,156.272a1.972,1.972,0,0,1-.129,1.808,2.881,2.881,0,0,1-5.423-1.019,3.013,3.013,0,0,1,.588-1.98c.746-.947,1.578-.976,1.578-.89a4.426,4.426,0,0,0-1.133,1.191,2.526,2.526,0,0,0-.344,1.607,2.3,2.3,0,0,0,1.076,1.593,2.367,2.367,0,0,0,1.908.287,2.683,2.683,0,0,0,1.306-1A6.645,6.645,0,0,0,442.871,156.272Z" transform="translate(-405.497 -88.986)" fill="#0dbdb8" />
				<path id="Path_480" data-name="Path 480" d="M438.252,155.806c.072,0,0,.488-.674.8a1.879,1.879,0,0,1-2.511-2.31,1.822,1.822,0,0,1,.76-.933c.588-.359,1.033-.215,1.019-.129s-.344.187-.7.545a1.435,1.435,0,0,0,1.263,2.324C437.893,156.007,438.151,155.749,438.252,155.806Z" transform="translate(-405.712 -89.08)" fill="#0dbdb8" />
				<path id="Path_481" data-name="Path 481" d="M452.42,275.446s35.524,2.066,56.529,2.253c16.256.158,23.515-4.161,26.758-14.62,2.726-8.766-3.128-25.6-3.128-25.6-11,0-17.791,1.578-24.864,4.892l1.879,7.69L452.32,255Z" transform="translate(-404.113 -81.301)" fill="#ffbe9d" />
				<path id="Path_482" data-name="Path 482" d="M516.723,257.227a28.581,28.581,0,0,0-5.352-5.323,28.12,28.12,0,0,0-6.915-3.042,5.007,5.007,0,0,1,2.281.2,15.181,15.181,0,0,1,5.05,2.224,14.993,14.993,0,0,1,3.917,3.9C516.508,256.366,516.809,257.184,516.723,257.227Z" transform="translate(-399.304 -80.256)" fill="#eb996e" />
				<path id="Path_483" data-name="Path 483" d="M442.121,246.063h0s-10.99,2.64-19.068,8.035l8.608,23.329c2.87,7.661,11.636,11.478,18.652,7.461,10.8-6.184,14.62-24.2,14.62-24.2L476.8,209.2l-19.67-12.324-14.936,49.183" transform="translate(-406.812 -85.046)" fill="#ffbe9d" />
				<path id="Path_484" data-name="Path 484" d="M454.5,200.029l.8-16.93-4.4-17.217c-.244-.947-.359-2.138.416-2.712a2.1,2.1,0,0,1,2.654.086c1.191,1.234,6.93,16.284,6.93,16.284s8.709-5.222,10.258-5.481,3.486,4.433,3.616,4.792a29.165,29.165,0,0,1,0,3.156s5.38.158,5.868.89a18.976,18.976,0,0,1,.617,4.577s2.281.732,2.64,2.453,1.1,4.562,0,5.194-3.343,1.865-3.343,1.865-.9,8.781-1.148,9.584-5.28,5.739-5.28,5.739Z" transform="translate(-404.26 -88.195)" fill="#ffbe9d" />
				<path id="Path_485" data-name="Path 485" d="M437.424,288.39a8.8,8.8,0,0,0,1.65.674,11.391,11.391,0,0,0,5.065.4,14.132,14.132,0,0,0,7.346-3.386,33.785,33.785,0,0,0,6.829-8.608,37.373,37.373,0,0,0,2.654-5.925,62.886,62.886,0,0,0,1.851-6.872c1.119-4.835,2.339-10.043,3.63-15.581,2.582-11.062,5.481-23.429,8.608-36.758v-.1h.072c.99-.976,1.98-1.966,2.97-3,.488-.517.976-1.033,1.435-1.564.23-.273.473-.545.66-.818a2.066,2.066,0,0,0,.244-.875c.387-2.869.689-5.839,1-8.838v-.187l.172-.086,2.74-1.535c.2-.129.516-.273.646-.387a.818.818,0,0,0,.258-.473,5.163,5.163,0,0,0,0-1.435,21.759,21.759,0,0,0-.646-3.113,3.874,3.874,0,0,0-2.281-1.851l-.244-.086v-.244a21.818,21.818,0,0,0-.187-2.539,11.62,11.62,0,0,0-.187-1.263,2.094,2.094,0,0,0-.172-.531c0-.1,0,0-.086-.086a1.439,1.439,0,0,0-.244-.1,25.7,25.7,0,0,0-5.251-.588h-.373v-3.242a3.013,3.013,0,0,0-.344-.961c-.143-.344-.316-.674-.488-1.019a12.7,12.7,0,0,0-1.176-1.894,3.143,3.143,0,0,0-.732-.717.689.689,0,0,0-.76-.086,16.841,16.841,0,0,0-2.023.933c-2.669,1.435-5.28,2.87-7.834,4.419l-.373.23-.158-.4c-1.349-3.4-2.7-6.758-4.017-10.043-.66-1.65-1.306-3.3-1.966-4.921a2.009,2.009,0,0,0-1.578-1.435,1.593,1.593,0,0,0-1.865.689,1.664,1.664,0,0,0-.215,1.019,7.471,7.471,0,0,0,.287,1.191c.23.832.445,1.65.66,2.468.43,1.65.846,3.271,1.277,4.878q1.263,4.849,2.482,9.469v.1q-.43,8.838-.818,16.93v-.029l-13.07,42.526-3.687,11.837c-.43,1.334-.76,2.382-.99,3.113a10.326,10.326,0,0,1-.373,1.047s.072-.373.273-1.076l.9-3.142c.832-2.769,2.023-6.772,3.529-11.88,3.1-10.273,7.5-24.936,12.827-42.612v.072q.373-8.063.76-16.93v.1c-.818-3.085-1.664-6.241-2.511-9.455l-1.291-4.878c-.215-.818-.43-1.65-.66-2.468a12.63,12.63,0,0,1-.3-1.306,2.381,2.381,0,0,1,.3-1.435,2.3,2.3,0,0,1,1.162-.976,2.956,2.956,0,0,1,2.8.631,2.87,2.87,0,0,1,.775,1.234l1.966,4.921c1.334,3.3,2.669,6.657,4.032,10.043l-.531-.187c2.568-1.521,5.151-3.042,7.877-4.462a20.651,20.651,0,0,1,2.123-.961,1.435,1.435,0,0,1,.717-.1,1.721,1.721,0,0,1,.689.258,4.1,4.1,0,0,1,.9.889,12.291,12.291,0,0,1,1.248,2.009c.187.359.359.7.517,1.062a3.686,3.686,0,0,1,.4,1.22c0,1.019,0,1.966,0,2.869l-.359-.387a25.6,25.6,0,0,1,5.481.631,2.5,2.5,0,0,1,.359.158.933.933,0,0,1,.373.373,3.116,3.116,0,0,1,.244.732c.086.459.143.89.2,1.334.086.875.143,1.736.187,2.6l-.258-.344a4.505,4.505,0,0,1,2.74,2.267,22.165,22.165,0,0,1,.689,3.329,5.079,5.079,0,0,1,0,1.736,1.506,1.506,0,0,1-.516.89,7.316,7.316,0,0,1-.732.43l-2.726,1.42.187-.273c-.33,3-.631,5.94-1.033,8.852l-.086.56a1.262,1.262,0,0,1-.273.617,7.392,7.392,0,0,1-.7.89c-.488.545-.976,1.076-1.435,1.593-.99,1.033-1.98,2.023-2.984,3l.1-.172c-3.156,13.314-6.083,25.682-8.709,36.744-1.306,5.524-2.554,10.732-3.7,15.553a59.2,59.2,0,0,1-1.894,6.915,38.909,38.909,0,0,1-2.726,5.983,33.887,33.887,0,0,1-6.987,8.695,14.348,14.348,0,0,1-7.532,3.357,11.191,11.191,0,0,1-5.151-.516,8.6,8.6,0,0,1-1.219-.56Z" transform="translate(-405.486 -88.205)" fill="#eb996e" />
				<path id="Path_486" data-name="Path 486" d="M473.389,180.456c0,.1-.488.158-1.248.187a14.418,14.418,0,0,0-2.869.344,5.581,5.581,0,0,0-2.439,1.306c-.516.488-.746.9-.861.861s0-.56.473-1.22a4.763,4.763,0,0,1,2.64-1.664,7.934,7.934,0,0,1,3.07-.143C472.93,180.226,473.389,180.356,473.389,180.456Z" transform="translate(-402.857 -86.599)" fill="#eb996e" />
				<path id="Path_487" data-name="Path 487" d="M468.962,180.712c-.187-.072-.2-.516,0-.99s.488-.8.674-.732.215.516,0,.99S469.105,180.783,468.962,180.712Z" transform="translate(-402.591 -86.697)" fill="#eb996e" />
				<path id="Path_488" data-name="Path 488" d="M479.523,185.358a13.285,13.285,0,0,1-4.3.588,2.87,2.87,0,0,0-2.382,1.133c-.373.588-.244,1.076-.359,1.1s-.459-.473-.1-1.334a2.252,2.252,0,0,1,1.019-1.133,4.3,4.3,0,0,1,1.722-.516,11.808,11.808,0,0,1,4.4.158Z" transform="translate(-402.277 -86.136)" fill="#eb996e" />
				<path id="Path_489" data-name="Path 489" d="M478.082,190.063c.2,0,.316,1.062.258,2.367s-.273,2.339-.473,2.339-.33-1.076-.273-2.382S477.867,190.048,478.082,190.063Z" transform="translate(-401.783 -85.675)" fill="#eb996e" />
				<path id="Path_490" data-name="Path 490" d="M483.491,226.134l1.277-4.39a1.205,1.205,0,0,1,2.009-.517l1.679,1.707,1.033-4.146a1.205,1.205,0,0,1,2.253-.23l2.339,4.907Z" transform="translate(-401.238 -83.109)" fill="#fff" />
				<path id="Path_491" data-name="Path 491" d="M494.083,224.715a19.368,19.368,0,0,1-5.065,1.636,18.754,18.754,0,0,1-5.251.918,38.278,38.278,0,0,1,10.316-2.554Z" transform="translate(-401.212 -82.479)" fill="#fff" />
				<path id="Path_492" data-name="Path 492" d="M415.422,202.292A11.792,11.792,0,0,0,414.145,204a14.433,14.433,0,0,0-1.937,5.409,38.362,38.362,0,0,0-.258,8.608c.158,3.257.416,6.815.818,10.545a184.777,184.777,0,0,0,3.027,18.967c.5,2.41.961,4.3,1.277,5.739.143.6.273,1.1.373,1.535s.115.545.115.545-.072-.172-.172-.517-.258-.947-.416-1.535c-.359-1.334-.846-3.257-1.435-5.667a170.27,170.27,0,0,1-3.113-18.982c-.4-3.73-.646-7.3-.789-10.56a38.471,38.471,0,0,1,.316-8.608,14.347,14.347,0,0,1,2.066-5.452,8.32,8.32,0,0,1,1.406-1.736Z" transform="translate(-407.875 -84.547)" fill="#fff" />
				<path id="Path_493" data-name="Path 493" d="M445.294,184.4l-.33.172-.947.459c-.818.387-2.009.961-3.429,1.75a126.018,126.018,0,0,0-10.775,6.743c-4.1,2.869-7.733,5.481-10.388,7.375l-3.142,2.224-.875.588a1.748,1.748,0,0,1-.316.2,1.161,1.161,0,0,1,.287-.244l.832-.631,3.085-2.31c2.625-1.937,6.241-4.634,10.344-7.446a109.13,109.13,0,0,1,10.847-6.686c1.435-.76,2.64-1.306,3.486-1.664l.961-.4C445.222,184.43,445.222,184.387,445.294,184.4Z" transform="translate(-407.546 -86.197)" fill="#fff" />
				<path id="Path_494" data-name="Path 494" d="M507.636,193.937a1.049,1.049,0,0,1-.244-.186l-.646-.56a26.784,26.784,0,0,0-2.511-1.88,51.96,51.96,0,0,0-9.225-4.663,92.8,92.8,0,0,0-9.828-3.271c-1.291-.359-2.324-.617-3.056-.789l-.818-.215a1.148,1.148,0,0,1-.287-.1h.3l.832.158c.732.143,1.779.373,3.07.7a79.7,79.7,0,0,1,9.9,3.2,47.171,47.171,0,0,1,9.225,4.763A18.479,18.479,0,0,1,507.636,193.937Z" transform="translate(-401.465 -86.393)" fill="#fff" />
				<path id="Path_495" data-name="Path 495" d="M443.561,294.257a2.022,2.022,0,0,1-.56-.187,10.043,10.043,0,0,1-1.435-.775,6.858,6.858,0,0,1-3.128-4.218,8.25,8.25,0,0,1,.56-5.251,6.9,6.9,0,0,1,.832-1.435c.23-.3.387-.445.4-.43a16.253,16.253,0,0,0-1.047,1.908,8.508,8.508,0,0,0-.445,5.093,6.958,6.958,0,0,0,2.869,4.118C442.8,293.941,443.589,294.2,443.561,294.257Z" transform="translate(-405.411 -77.199)" fill="#fff" />
				<path id="Path_496" data-name="Path 496" d="M438.934,278.992a7.175,7.175,0,0,1,.674,1.808,6.63,6.63,0,0,1,.4,1.88,5.9,5.9,0,0,1-.689-1.793,5.738,5.738,0,0,1-.387-1.894Z" transform="translate(-405.347 -77.473)" fill="#fff" />
				<path id="Path_497" data-name="Path 497" d="M459.705,599.365l43.759-.215-.789-151.293-.416-153.9-59.3-.76L432.3,313.278A72.138,72.138,0,0,0,424.11,339.3c-.717,6.973,4.505,29.642,6.313,35.381l16.313,51.737Z" transform="translate(-406.721 -76.163)" fill="#263238" />
				<path id="Path_498" data-name="Path 498" d="M511.217,294.069l48.092,131.092a60.46,60.46,0,0,1-5.925,51.22l-55.84,109.04-31.392-39.283,46.715-97.562L471.69,381.788l6.93-87.519,19.4-.316Z" transform="translate(-402.837 -76.093)" fill="#263238" />
				<path id="Path_499" data-name="Path 499" d="M492,334.268v.674c0,.445.072,1.133.129,1.98.1,1.765.23,4.3.4,7.59.33,6.643.789,16.184,1.435,27.963s1.191,25.825,1.908,41.464c.344,7.8.717,16,1.09,24.491.273,4.3.158,8.608.2,12.913s0,8.838,0,13.343c0,36.055.115,68.7.158,92.354v35.61c0-1.779,0-4.3-.086-7.618,0-6.643-.115-16.184-.2-27.977-.1-23.659-.23-56.3-.373-92.354V451.357c0-4.39.086-8.723-.187-12.913-.359-8.479-.717-16.672-1.047-24.477-.66-15.61-1.263-29.656-1.75-41.478s-.846-21.32-1.119-27.963c-.115-3.271-.2-5.825-.258-7.6v-1.98C492.3,334.4,492,334.268,492,334.268Z" transform="translate(-400.453 -72.375)" fill="#455a64" />
				<path id="Path_500" data-name="Path 500" d="M490.992,296.423a5.2,5.2,0,0,1,.3,1.435c.158.918.33,2.253.531,3.917.373,3.314.775,7.92,1,13.013s.244,9.713.172,13.056c0,1.664-.1,3.027-.172,3.96a4.851,4.851,0,0,1-.172,1.435,40.977,40.977,0,0,1-.187-5.395c0-3.343-.158-7.934-.387-13.027s-.545-9.67-.789-12.913a48.346,48.346,0,0,1-.3-5.481Z" transform="translate(-400.546 -75.865)" fill="#455a64" />
				<path id="Path_501" data-name="Path 501" d="M482.294,299.161c.072.1-.746.473-.976,1.636a1.88,1.88,0,0,0,.56,1.75,2.023,2.023,0,0,0,2.152.387,2.066,2.066,0,0,0,1.119-1.88,1.88,1.88,0,0,0-.961-1.564,3.486,3.486,0,0,0-1.88-.33,1.064,1.064,0,0,1,.516-.3,2.439,2.439,0,0,1,1.607.158,2.339,2.339,0,0,1,1.435,1.994,2.568,2.568,0,0,1-4.419,2.037,2.353,2.353,0,0,1-.588-2.367,2.424,2.424,0,0,1,.918-1.334C482.065,299.146,482.28,299.118,482.294,299.161Z" transform="translate(-401.49 -75.647)" fill="#455a64" />
				<path id="Path_502" data-name="Path 502" d="M463.082,296.752a4.3,4.3,0,0,1,.387,1.435,13.573,13.573,0,0,1,.129,3.9,15.939,15.939,0,0,1-1.65,5.552,14.706,14.706,0,0,1-11.22,8.049,15.554,15.554,0,0,1-5.739-.215,13.543,13.543,0,0,1-3.644-1.363,4.548,4.548,0,0,1-1.176-.8,26.023,26.023,0,0,0,4.935,1.65,15.079,15.079,0,0,0,18.035-12.913A24.962,24.962,0,0,0,463.082,296.752Z" transform="translate(-405.233 -75.835)" fill="#455a64" />
				<path id="Path_503" data-name="Path 503" d="M513.674,309.33a6.026,6.026,0,0,1-2.769-.33,12.783,12.783,0,0,1-5.639-3.616,12.612,12.612,0,0,1-3.056-5.969,5.741,5.741,0,0,1,0-2.769c.129,0,.143,1.047.574,2.654a13.874,13.874,0,0,0,8.35,9.2C512.627,309.086,513.689,309.186,513.674,309.33Z" transform="translate(-399.527 -75.844)" fill="#455a64" />
				<path id="Path_504" data-name="Path 504" d="M529.858,438.009a9.152,9.152,0,0,1-2.539,2.023,11.881,11.881,0,0,1-3.257,1.435,7.833,7.833,0,0,1-4.4-.115,12.827,12.827,0,0,1-6.141-4.878,11.792,11.792,0,0,1-1.679-2.755,16.668,16.668,0,0,1,2.095,2.425,13.6,13.6,0,0,0,5.94,4.491,9.183,9.183,0,0,0,7.174-1.047A28.116,28.116,0,0,1,529.858,438.009Z" transform="translate(-398.623 -63.202)" fill="#455a64" />
				<path id="Path_505" data-name="Path 505" d="M519.014,446.309a36.3,36.3,0,0,1-4.519-5.739,37.306,37.306,0,0,1-3.931-6.155,35.073,35.073,0,0,1,4.534,5.739A34.291,34.291,0,0,1,519.014,446.309Z" transform="translate(-398.741 -63.138)" fill="#455a64" />
				<path id="Path_506" data-name="Path 506" d="M451.133,339.241c-.2.072-.7-.746-1.148-1.851s-.631-2.037-.445-2.123.7.746,1.133,1.851S451.32,339.241,451.133,339.241Z" transform="translate(-404.375 -72.283)" fill="#fafafa" />
				<path id="Path_507" data-name="Path 507" d="M476.455,342.824c-.215,0-.373-.7-.373-1.578s.158-1.593.373-1.593.373.717.373,1.593S476.656,342.824,476.455,342.824Z" transform="translate(-401.921 -71.878)" fill="#fafafa" />
				<path id="Path_508" data-name="Path 508" d="M466.012,356.711c-.2,0-.43-.861-.5-1.966s0-1.994.23-2.009.445.861.516,1.966S466.213,356.7,466.012,356.711Z" transform="translate(-402.898 -70.671)" fill="#fafafa" />
				<path id="Path_509" data-name="Path 509" d="M447.119,366.676c-.172.129-.76-.4-1.535-.947s-1.435-.961-1.435-1.162.947-.086,1.822.545S447.291,366.676,447.119,366.676Z" transform="translate(-404.866 -69.588)" fill="#fafafa" />
				<path id="Path_510" data-name="Path 510" d="M480.541,379.583c-.172-.115,0-.732.488-1.435s.933-1.1,1.1-.99,0,.746-.488,1.435S480.713,379.7,480.541,379.583Z" transform="translate(-401.516 -68.421)" fill="#fafafa" />
				<path id="Path_511" data-name="Path 511" d="M459.786,383.462c-.2,0-.373-1.191-.373-2.64s.172-2.654.373-2.654.373,1.191.373,2.654A5.6,5.6,0,0,1,459.786,383.462Z" transform="translate(-403.458 -68.326)" fill="#fafafa" />
				<path id="Path_512" data-name="Path 512" d="M453.2,397.936c-.115.158-.861-.172-1.664-.76s-1.435-1.191-1.248-1.363.875.172,1.679.76S453.328,397.764,453.2,397.936Z" transform="translate(-404.303 -66.702)" fill="#fafafa" />
				<path id="Path_513" data-name="Path 513" d="M474.2,402.885c.086.187-.373.574-1.033.875s-1.263.373-1.349.187.387-.574,1.047-.875S474.124,402.7,474.2,402.885Z" transform="translate(-402.315 -66.055)" fill="#fafafa" />
				<path id="Path_514" data-name="Path 514" d="M459.981,427.368c-.172.086-.918-1.019-1.65-2.482s-1.177-2.726-.99-2.869.933,1.019,1.65,2.482A7.155,7.155,0,0,1,459.981,427.368Z" transform="translate(-403.653 -64.283)" fill="#fafafa" />
				<path id="Path_515" data-name="Path 515" d="M482.97,425.018c-.187-.1.143-1.062.717-2.166s1.22-1.908,1.435-1.808-.143,1.062-.732,2.167S483.142,425.118,482.97,425.018Z" transform="translate(-401.29 -64.372)" fill="#fafafa" />
				<path id="Path_516" data-name="Path 516" d="M472.857,445.455c-.215,0-.187-1.162-.416-2.511s-.574-2.425-.373-2.525.89.918,1.119,2.41S473.058,445.5,472.857,445.455Z" transform="translate(-402.297 -62.585)" fill="#fafafa" />
				<path id="Path_517" data-name="Path 517" d="M462.108,456.9c-.143.143-.861-.4-1.593-1.205s-1.205-1.564-1.047-1.707.861.4,1.593,1.205S462.266,456.759,462.108,456.9Z" transform="translate(-403.456 -61.335)" fill="#fafafa" />
				<path id="Path_518" data-name="Path 518" d="M488.34,461.318c-.143-.143.387-.918,1.191-1.736s1.549-1.349,1.707-1.205-.387.933-1.177,1.736S488.5,461.462,488.34,461.318Z" transform="translate(-400.792 -60.93)" fill="#fafafa" />
				<path id="Path_519" data-name="Path 519" d="M473.139,478.877c-.2,0-.2-1.133,0-2.453s.516-2.353.732-2.324.2,1.119,0,2.439S473.34,478.905,473.139,478.877Z" transform="translate(-402.206 -59.478)" fill="#fafafa" />
				<path id="Path_520" data-name="Path 520" d="M463.083,487.232c-.187.1-.818-.646-1.435-1.664s-.933-1.923-.76-2.023.8.631,1.435,1.65S463.255,487.117,463.083,487.232Z" transform="translate(-403.327 -58.608)" fill="#fafafa" />
				<path id="Path_521" data-name="Path 521" d="M487.864,497.575c.129.172-.6.9-1.636,1.636s-1.937,1.191-2.066,1.019.617-.9,1.636-1.636S487.749,497.417,487.864,497.575Z" transform="translate(-401.177 -57.316)" fill="#fafafa" />
				<path id="Path_522" data-name="Path 522" d="M467.012,511.852c-.2-.072,0-1.219.187-2.654s.072-2.611.287-2.64.588,1.176.445,2.712S467.2,511.938,467.012,511.852Z" transform="translate(-402.765 -56.484)" fill="#fafafa" />
				<path id="Path_523" data-name="Path 523" d="M475.4,531.492c-.172.129-.775-.359-1.363-1.09s-.918-1.435-.76-1.564.76.359,1.349,1.09S475.556,531.363,475.4,531.492Z" transform="translate(-402.183 -54.431)" fill="#fafafa" />
				<path id="Path_524" data-name="Path 524" d="M466.492,544.944c-.172.115-.961-.732-1.765-1.908s-1.306-2.209-1.148-2.324.961.732,1.765,1.908S466.664,544.829,466.492,544.944Z" transform="translate(-403.077 -53.335)" fill="#fafafa" />
				<path id="Path_525" data-name="Path 525" d="M490.963,528.043c-.187-.072-.172-.6,0-1.177s.56-1,.76-.933.172.6,0,1.191S491.164,528.129,490.963,528.043Z" transform="translate(-400.561 -54.698)" fill="#fafafa" />
				<path id="Path_526" data-name="Path 526" d="M480.054,559.989c-.187-.1.172-1.119.459-2.4s.387-2.353.6-2.367.43,1.148.129,2.525S480.226,560.1,480.054,559.989Z" transform="translate(-401.559 -51.996)" fill="#fafafa" />
				<path id="Path_527" data-name="Path 527" d="M487.264,356.831c-.186.086-.646-.488-1.019-1.291s-.531-1.521-.344-1.607.646.488,1.019,1.291S487.48,356.745,487.264,356.831Z" transform="translate(-401.023 -70.562)" fill="#fafafa" />
				<path id="Path_528" data-name="Path 528" d="M469.287,315.683c.115.172-.89.976-1.966,2.123s-1.808,2.21-1.994,2.109.3-1.435,1.435-2.611S469.144,315.5,469.287,315.683Z" transform="translate(-402.916 -74.092)" fill="#fafafa" />
				<path id="Path_529" data-name="Path 529" d="M485.3,315.576c-.215,0-.545-.818-1.047-1.793s-.961-1.779-.8-1.923.933.488,1.435,1.578S485.491,315.461,485.3,315.576Z" transform="translate(-401.244 -74.443)" fill="#fafafa" />
				<path id="Path_530" data-name="Path 530" d="M434.579,328.877c-.187-.086,0-1.033.445-2.123s.933-1.937,1.133-1.851,0,1.019-.445,2.123S434.823,328.948,434.579,328.877Z" transform="translate(-405.755 -73.239)" fill="#fafafa" />
				<path id="Path_531" data-name="Path 531" d="M436.485,348.6c-.143.158-.961-.3-1.836-1.033s-1.435-1.435-1.349-1.607.961.3,1.836,1.033S436.614,348.444,436.485,348.6Z" transform="translate(-405.868 -71.299)" fill="#fafafa" />
				<path id="Path_532" data-name="Path 532" d="M469.494,300.152c-.187,0-.588-.459-.875-1.191s-.373-1.435-.187-1.435.588.459.875,1.191S469.681,300.081,469.494,300.152Z" transform="translate(-402.636 -75.763)" fill="#fafafa" />
				<path id="Path_533" data-name="Path 533" d="M501.184,309.938c-.2,0-.187-.9,0-1.923s.56-1.822.76-1.779.187.918,0,1.937S501.385,309.981,501.184,309.938Z" transform="translate(-399.619 -74.96)" fill="#fafafa" />
				<path id="Path_534" data-name="Path 534" d="M508.638,325.02c-.187-.086.072-1.148.588-2.4s1.076-2.181,1.263-2.109,0,1.148-.574,2.4S508.839,325.092,508.638,325.02Z" transform="translate(-398.924 -73.643)" fill="#fafafa" />
				<path id="Path_535" data-name="Path 535" d="M503.518,337.153c-.187.086-.875-.9-1.535-2.21s-1.033-2.468-.846-2.554.861.9,1.521,2.21S503.7,337.053,503.518,337.153Z" transform="translate(-399.615 -72.548)" fill="#fafafa" />
				<path id="Path_536" data-name="Path 536" d="M514.695,349.153c-.187-.072,0-.9.316-1.851s.818-1.664,1.019-1.593,0,.9-.316,1.851S514.953,349.225,514.695,349.153Z" transform="translate(-398.366 -71.32)" fill="#fafafa" />
				<path id="Path_537" data-name="Path 537" d="M504.639,360.9c-.172.115-.617-.273-.976-.846s-.531-1.148-.344-1.263.6.273.976.861S504.811,360.8,504.639,360.9Z" transform="translate(-399.416 -70.114)" fill="#fafafa" />
				<path id="Path_538" data-name="Path 538" d="M506.98,385.524c-.143.129-1.047-.574-1.994-1.607s-1.593-1.966-1.435-2.109,1.047.574,1.994,1.607S507.138,385.38,506.98,385.524Z" transform="translate(-399.39 -67.992)" fill="#fafafa" />
				<path id="Path_539" data-name="Path 539" d="M520.27,371.454c-.158.129-.947-.588-1.75-1.621s-1.32-1.951-1.162-2.08.947.6,1.75,1.621S520.442,371.339,520.27,371.454Z" transform="translate(-398.117 -69.288)" fill="#fafafa" />
				<path id="Path_540" data-name="Path 540" d="M527.343,390.921c-.187-.086.143-1.162.732-2.4s1.205-2.181,1.435-2.095-.129,1.176-.717,2.41S527.529,391.022,527.343,390.921Z" transform="translate(-397.198 -67.564)" fill="#fafafa" />
				<path id="Path_541" data-name="Path 541" d="M512.077,406.789c-.186.1-.846-.689-1.765-1.535s-1.765-1.435-1.679-1.65,1.177.172,2.181,1.1S512.249,406.688,512.077,406.789Z" transform="translate(-398.919 -65.985)" fill="#fafafa" />
				<path id="Path_542" data-name="Path 542" d="M513.025,423.006c0,.2-.717.373-1.593.373s-1.578-.172-1.578-.373.7-.373,1.578-.373S513.025,422.8,513.025,423.006Z" transform="translate(-398.806 -64.225)" fill="#fafafa" />
				<path id="Path_543" data-name="Path 543" d="M528.748,418.734c-.187-.1.187-1,.459-2.123s.387-2.095.6-2.109.445,1.033.129,2.281S528.906,418.849,528.748,418.734Z" transform="translate(-397.068 -64.975)" fill="#fafafa" />
				<path id="Path_544" data-name="Path 544" d="M544.771,424.307c-.187.072-.717-.947-1.177-2.253s-.674-2.425-.488-2.482.732.933,1.191,2.238S544.972,424.235,544.771,424.307Z" transform="translate(-395.745 -64.507)" fill="#fafafa" />
				<path id="Path_545" data-name="Path 545" d="M542.093,446.926c-.172-.1.273-1.306.99-2.7s1.435-2.439,1.65-2.339-.258,1.306-.99,2.683S542.28,447.055,542.093,446.926Z" transform="translate(-395.836 -62.449)" fill="#fafafa" />
				<path id="Path_546" data-name="Path 546" d="M527.77,460.155c-.187.072-.775-.918-1.32-2.224s-.818-2.425-.617-2.511.775.918,1.306,2.224S527.957,460.155,527.77,460.155Z" transform="translate(-397.338 -61.201)" fill="#fafafa" />
				<path id="Path_547" data-name="Path 547" d="M511.773,464.922c0,.2-.6.373-1.334.373s-1.32-.172-1.32-.373.6-.373,1.32-.373S511.773,464.721,511.773,464.922Z" transform="translate(-398.874 -60.359)" fill="#fafafa" />
				<path id="Path_548" data-name="Path 548" d="M520.843,486.361c-.187,0-.588-.789-.89-1.879s-.359-2.037-.158-2.08.588.789.89,1.879S521.043,486.246,520.843,486.361Z" transform="translate(-397.9 -58.712)" fill="#fafafa" />
				<path id="Path_549" data-name="Path 549" d="M509.124,479.157c-.172-.1,0-.775.473-1.506s.947-1.234,1.119-1.133,0,.789-.473,1.521S509.311,479.272,509.124,479.157Z" transform="translate(-398.879 -59.256)" fill="#fafafa" />
				<path id="Path_550" data-name="Path 550" d="M508.943,502.577c-.2,0-.488-.961-.631-2.21s-.1-2.267.1-2.3.488.961.631,2.209S509.144,502.548,508.943,502.577Z" transform="translate(-398.956 -57.267)" fill="#fafafa" />
			</g>
		</g>
	</g>
</svg>
