<svg xmlns="http://www.w3.org/2000/svg" width="476.318" height="409.453" viewBox="0 0 476.318 409.453">
	<g id="Novelist_writing-bro" data-name="Novelist writing-bro" transform="translate(-14.176 -41.261)">
		<g id="freepik--background-simple--inject-2">
			<path id="Path_1220" data-name="Path 1220" d="M328.07,49.69S251.59,22.5,176.52,65.79,63.56,195,31,263.89,17.22,402.77,74.53,434.7s96.28-15.14,176.68-17.43,102,9.2,168.73-36.22,78.77-152.68,26.15-232S328.07,49.69,328.07,49.69Z" fill="#0dbdb8" />
			<path id="Path_1221" data-name="Path 1221" d="M328.07,49.69S251.59,22.5,176.52,65.79,63.56,195,31,263.89,17.22,402.77,74.53,434.7s96.28-15.14,176.68-17.43,102,9.2,168.73-36.22,78.77-152.68,26.15-232S328.07,49.69,328.07,49.69Z" fill="#fff" opacity="0.7" />
			<line id="Line_217" data-name="Line 217" x2="475.33" transform="translate(14.67 450.19)" fill="none" stroke="#263238" stroke-linecap="round" stroke-linejoin="round" stroke-width="0.988" />
		</g>
		<g id="freepik--Pictures--inject-2">
			<rect id="Rectangle_160" data-name="Rectangle 160" width="95.17" height="142.75" transform="translate(85 141.75)" fill="#263238" stroke="#263238" stroke-linecap="round" stroke-linejoin="round" stroke-width="0.952" />
			<path id="Path_1330" data-name="Path 1330" d="M0,0H79.94V119.91H0Z" transform="translate(92.62 153.16)" fill="#ffb500" stroke="#263238" stroke-linecap="round" stroke-width="0.952" />
			<line id="Line_219" data-name="Line 219" x2="39.97" transform="translate(111.65 254.99)" fill="none" stroke="#263238" stroke-miterlimit="10" stroke-width="0.952" />
			<line id="Line_220" data-name="Line 220" x2="67.57" transform="translate(99.28 208.36)" fill="none" stroke="#263238" stroke-miterlimit="10" stroke-width="0.952" />
			<line id="Line_221" data-name="Line 221" x2="67.57" transform="translate(99.28 215.02)" fill="none" stroke="#263238" stroke-miterlimit="10" stroke-width="0.952" />
			<line id="Line_222" data-name="Line 222" x2="67.57" transform="translate(99.28 221.68)" fill="none" stroke="#263238" stroke-miterlimit="10" stroke-width="0.952" />
			<line id="Line_223" data-name="Line 223" x2="67.57" transform="translate(99.28 228.35)" fill="none" stroke="#263238" stroke-miterlimit="10" stroke-width="0.952" />
			<line id="Line_224" data-name="Line 224" x2="67.57" transform="translate(99.28 235.01)" fill="none" stroke="#263238" stroke-miterlimit="10" stroke-width="0.952" />
		</g>
		<g id="freepik--Plants--inject-2">
			<path id="Path_1222" data-name="Path 1222" d="M58.07,419.2s.62-22.06-.16-41,.79-59.64.79-59.64" fill="none" stroke="#263238" stroke-miterlimit="10" stroke-width="0.988" />
			<line id="Line_225" data-name="Line 225" x1="8.62" y1="6.77" transform="translate(49.72 335.69)" fill="none" stroke="#263238" stroke-miterlimit="10" stroke-width="0.988" />
			<line id="Line_226" data-name="Line 226" y1="4.97" x2="3.06" transform="translate(58.25 342.16)" fill="none" stroke="#263238" stroke-miterlimit="10" stroke-width="0.988" />
			<line id="Line_227" data-name="Line 227" y1="6.33" x2="7.65" transform="translate(57.55 360.42)" fill="none" stroke="#263238" stroke-miterlimit="10" stroke-width="0.988" />
			<line id="Line_228" data-name="Line 228" x1="4.04" y1="3.67" transform="translate(54.66 323.21)" fill="none" stroke="#263238" stroke-miterlimit="10" stroke-width="0.988" />
			<line id="Line_229" data-name="Line 229" x1="5.05" y1="5.43" transform="translate(52.42 364.76)" fill="none" stroke="#263238" stroke-miterlimit="10" stroke-width="0.988" />
			<line id="Line_230" data-name="Line 230" x1="10.53" y1="9.6" transform="translate(47.39 381.88)" fill="none" stroke="#263238" stroke-miterlimit="10" stroke-width="0.988" />
			<path id="Path_1223" data-name="Path 1223" d="M58.19,403.31a63.422,63.422,0,0,0,7.8-3.64" fill="none" stroke="#263238" stroke-miterlimit="10" stroke-width="0.988" />
			<path id="Path_1224" data-name="Path 1224" d="M52.38,345.87C48.16,342.6,34,343.18,31.24,350s5.9,17.8,14.26,17c3.27-.31,4.68-.54,6-2.36h0L39.81,353.28l12.6,10.13a9.83,9.83,0,0,0,.87-2.07,16.06,16.06,0,0,0,.39-1.62C54.48,355.67,56.33,348.92,52.38,345.87Z" fill="#0dbdb8" />
			<path id="Path_1225" data-name="Path 1225" d="M79.79,338a.4.4,0,0,1-.05.23c-1.14,5.06-6.92,7.93-11.78,7.5a11.769,11.769,0,0,1-2-.36,13.93,13.93,0,0,0-1.26,12.26,8.079,8.079,0,0,0,.83,1.6C67,358.06,82.29,345,82.29,345L66.38,360.32c4.78,5.13,16.05,4.43,20-5.09S85.32,339.36,79.79,338Z" fill="#0dbdb8" />
			<path id="Path_1226" data-name="Path 1226" d="M72,320.31c-8.25-1.81-15.63,1.93-15.49,10.54A13.9,13.9,0,0,0,61.09,341l8.42-11.67-7.15,12.65a12.318,12.318,0,0,0,2.12,1.14,11.751,11.751,0,0,0,3.28.79c4.85.42,10.64-2.45,11.78-7.51C80.82,330.71,80.25,322.12,72,320.31Z" fill="#0dbdb8" />
			<path id="Path_1227" data-name="Path 1227" d="M62.37,290.36s-.85.25-6.13,2.83S46.79,304.13,51,311.27c2.37,4.07,5.12,5.61,7.06,6.18l2.11-20.52-.85,20.79a5.472,5.472,0,0,0,1.2,0c3.43-.36,8.86-4.46,9.37-12.87S62.37,290.36,62.37,290.36Z" fill="#0dbdb8" />
			<path id="Path_1228" data-name="Path 1228" d="M38.26,309l15.92,12.73a4.34,4.34,0,0,0,.15-1.79c-.73-7.29-8-11.51-12.8-13s-8.13,1.19-5.05,8.17,11.19,10.3,14.8,9.29a4.23,4.23,0,0,0,2.21-1.4Z" fill="#0dbdb8" />
			<path id="Path_1229" data-name="Path 1229" d="M49.22,325.34c-3.44.11-9-2.34-12.25-7.07-3.34-.07-6.11,1.51-7,5.7-1.62,7.6,3.87,15.56,11.79,14.58,3.46-.42,5.46-1.61,6.6-2.81L34.19,322.82l15.16,11.55a4.779,4.779,0,0,0,.55-1.75,12.6,12.6,0,0,0-.68-7.28Z" fill="#0dbdb8" />
			<path id="Path_1230" data-name="Path 1230" d="M49.13,367.58a12.28,12.28,0,0,1-4.06,1C39.89,369,34.61,365,32,360.21c-3.18.51-5.72,2.22-6.33,5.69-1.57,8.89,6.66,20.61,15,18.76a11.869,11.869,0,0,0,5.79-2.94l-18.2-17.46,19.21,16.29a10.19,10.19,0,0,0,2.05-4.87,11.06,11.06,0,0,0-.39-8.1Z" fill="#0dbdb8" />
			<path id="Path_1231" data-name="Path 1231" d="M85.66,385.82c-6.1-7.07-13.37-.74-13.37-.74s-4.46,1.47-6.14,7.78a9.73,9.73,0,0,0,.22,5.82L84.74,388,66.82,399.7c1.67,3.17,5.32,5.11,10.31,3.71C85.22,401.12,91.77,392.89,85.66,385.82Z" fill="#0dbdb8" />
			<rect id="Rectangle_162" data-name="Rectangle 162" width="25.42" height="37.64" transform="translate(45.02 412.54)" fill="#263238" />
		</g>
		<g id="freepik--Window--inject-2">
			<path id="Path_1232" data-name="Path 1232" d="M347.37,81.63H237.53l-1.45,15.1H347.37Z" fill="none" stroke="#263238" stroke-miterlimit="10" stroke-width="0.948" />
			<path id="Path_1233" data-name="Path 1233" d="M347.37,96.73H237.53l-1.45,15.1H347.37Z" fill="none" stroke="#263238" stroke-miterlimit="10" stroke-width="0.948" />
			<path id="Path_1234" data-name="Path 1234" d="M347.37,111.83H237.53l-1.45,15.1H347.37Z" fill="none" stroke="#263238" stroke-miterlimit="10" stroke-width="0.948" />
			<path id="Path_1235" data-name="Path 1235" d="M347.37,126.93H237.53l-1.45,15.1H347.37Z" fill="none" stroke="#263238" stroke-miterlimit="10" stroke-width="0.948" />
			<path id="Path_1236" data-name="Path 1236" d="M347.37,142.03H237.53l-1.45,15.1H347.37Z" fill="none" stroke="#263238" stroke-miterlimit="10" stroke-width="0.948" />
			<path id="Path_1237" data-name="Path 1237" d="M347.37,157.13H237.53l-1.45,15.1H347.37Z" fill="none" stroke="#263238" stroke-miterlimit="10" stroke-width="0.948" />
			<path id="Path_1238" data-name="Path 1238" d="M347.37,172.23H237.53l-1.45,15.1H347.37Z" fill="none" stroke="#263238" stroke-miterlimit="10" stroke-width="0.948" />
			<path id="Path_1239" data-name="Path 1239" d="M347.37,187.33H237.53l-1.45,15.1H347.37Z" fill="none" stroke="#263238" stroke-miterlimit="10" stroke-width="0.948" />
			<path id="Path_1240" data-name="Path 1240" d="M347.37,202.43H237.53l-1.45,15.1H347.37Z" fill="none" stroke="#263238" stroke-miterlimit="10" stroke-width="0.948" />
			<path id="Path_1241" data-name="Path 1241" d="M347.37,217.53H237.53l-1.45,15.1H347.37Z" fill="none" stroke="#263238" stroke-miterlimit="10" stroke-width="0.948" />
			<path id="Path_1242" data-name="Path 1242" d="M347.37,232.63H237.53l-1.45,15.1H347.37Z" fill="none" stroke="#263238" stroke-miterlimit="10" stroke-width="0.948" />
			<path id="Path_1243" data-name="Path 1243" d="M347.37,247.73H237.53l-1.45,15.1H347.37Z" fill="none" stroke="#263238" stroke-miterlimit="10" stroke-width="0.948" />
			<path id="Path_1244" data-name="Path 1244" d="M347.37,262.83H237.53l-1.45,15.1H347.37Z" fill="none" stroke="#263238" stroke-miterlimit="10" stroke-width="0.948" />
			<path id="Path_1245" data-name="Path 1245" d="M347.37,277.93H237.53l-1.45,15.1H347.37Z" fill="none" stroke="#263238" stroke-miterlimit="10" stroke-width="0.948" />
			<path id="Path_1246" data-name="Path 1246" d="M347.37,293.03H237.53l-1.45,15.1H347.37Z" fill="none" stroke="#263238" stroke-miterlimit="10" stroke-width="0.948" />
			<path id="Path_1247" data-name="Path 1247" d="M460.28,81.63H350.44l-1.45,15.1H460.28Z" fill="none" stroke="#263238" stroke-miterlimit="10" stroke-width="0.948" />
			<path id="Path_1248" data-name="Path 1248" d="M460.28,96.73H350.44l-1.45,15.1H460.28Z" fill="none" stroke="#263238" stroke-miterlimit="10" stroke-width="0.948" />
			<path id="Path_1249" data-name="Path 1249" d="M460.28,111.83H350.44l-1.45,15.1H460.28Z" fill="none" stroke="#263238" stroke-miterlimit="10" stroke-width="0.948" />
			<path id="Path_1250" data-name="Path 1250" d="M460.28,126.93H350.44l-1.45,15.1H460.28Z" fill="none" stroke="#263238" stroke-miterlimit="10" stroke-width="0.948" />
			<path id="Path_1251" data-name="Path 1251" d="M460.28,142.03H350.44l-1.45,15.1H460.28Z" fill="none" stroke="#263238" stroke-miterlimit="10" stroke-width="0.948" />
			<path id="Path_1252" data-name="Path 1252" d="M460.28,157.13H350.44l-1.45,15.1H460.28Z" fill="none" stroke="#263238" stroke-miterlimit="10" stroke-width="0.948" />
			<path id="Path_1253" data-name="Path 1253" d="M460.28,172.23H350.44l-1.45,15.1H460.28Z" fill="none" stroke="#263238" stroke-miterlimit="10" stroke-width="0.948" />
			<path id="Path_1254" data-name="Path 1254" d="M460.28,187.33H350.44l-1.45,15.1H460.28Z" fill="none" stroke="#263238" stroke-miterlimit="10" stroke-width="0.948" />
			<path id="Path_1255" data-name="Path 1255" d="M460.28,202.43H350.44l-1.45,15.1H460.28Z" fill="none" stroke="#263238" stroke-miterlimit="10" stroke-width="0.948" />
			<path id="Path_1256" data-name="Path 1256" d="M460.28,217.53H350.44l-1.45,15.1H460.28Z" fill="none" stroke="#263238" stroke-miterlimit="10" stroke-width="0.948" />
			<path id="Path_1257" data-name="Path 1257" d="M460.28,232.63H350.44l-1.45,15.1H460.28Z" fill="none" stroke="#263238" stroke-miterlimit="10" stroke-width="0.948" />
			<path id="Path_1258" data-name="Path 1258" d="M460.28,247.73H350.44l-1.45,15.1H460.28Z" fill="none" stroke="#263238" stroke-miterlimit="10" stroke-width="0.948" />
			<path id="Path_1259" data-name="Path 1259" d="M460.28,262.83H350.44l-1.45,15.1H460.28Z" fill="none" stroke="#263238" stroke-miterlimit="10" stroke-width="0.948" />
			<path id="Path_1260" data-name="Path 1260" d="M460.28,277.93H350.44l-1.45,15.1H460.28Z" fill="none" stroke="#263238" stroke-miterlimit="10" stroke-width="0.948" />
			<path id="Path_1261" data-name="Path 1261" d="M460.28,293.03H350.44l-1.45,15.1H460.28Z" fill="none" stroke="#263238" stroke-miterlimit="10" stroke-width="0.948" />
			<rect id="Rectangle_163" data-name="Rectangle 163" width="232.26" height="11.39" transform="translate(233.52 69.93)" fill="none" stroke="#263238" stroke-miterlimit="10" stroke-width="0.948" />
			<line id="Line_231" data-name="Line 231" y2="200.62" transform="translate(465.78 81.33)" fill="none" stroke="#263238" stroke-miterlimit="10" stroke-width="0.948" />
			<line id="Line_232" data-name="Line 232" y2="137.64" transform="translate(463.25 81.65)" fill="none" stroke="#263238" stroke-miterlimit="10" stroke-width="0.948" />
			<rect id="Rectangle_164" data-name="Rectangle 164" width="3.12" height="5.11" transform="translate(464.3 281.5)" fill="#263238" stroke="#263238" stroke-miterlimit="10" stroke-width="0.948" />
			<rect id="Rectangle_165" data-name="Rectangle 165" width="3.12" height="5.11" transform="translate(461.49 218.2)" fill="#263238" stroke="#263238" stroke-miterlimit="10" stroke-width="0.948" />
		</g>
		<g id="freepik--Character--inject-2">
			<path id="Path_1262" data-name="Path 1262" d="M422.69,450.19c4-12.48,20.14-64.17,20.14-76.09,0-13.57-4.81-15.32-14-18s-85.37-1.31-94.56.88-13.14,11-14.89,18.83c-1.58,7.11-16.34,63.38-19.21,74.33Z" fill="#fff" stroke="#263238" stroke-linecap="round" stroke-linejoin="round" stroke-width="0.988" />
			<path id="Path_1263" data-name="Path 1263" d="M422.69,450.19c4-12.48,20.14-64.17,20.14-76.09,0-12.16-3.87-14.83-11.3-17.14l-.08.07s-8.32-1.31-10.95,7.88c-2.08,7.28-15.67,62.55-21.25,85.28Z" fill="#263238" stroke="#263238" stroke-linecap="round" stroke-linejoin="round" stroke-width="0.988" />
			<path id="Path_1264" data-name="Path 1264" d="M167.46,381.14s8,8,14.54,10.38,14.19-1,14.19-1-4.85-13.85-15.93-20.08S164.69,374.22,167.46,381.14Z" fill="#fff" stroke="#263238" stroke-linecap="round" stroke-linejoin="round" stroke-width="0.988" />
			<path id="Path_1265" data-name="Path 1265" d="M159.5,371.45s-14.19,17.65-11.08,20.07,11.42-11.76,12.46-12.46S164,371.79,159.5,371.45Z" fill="#fff" stroke="#263238" stroke-linecap="round" stroke-linejoin="round" stroke-width="0.988" />
			<path id="Path_1266" data-name="Path 1266" d="M166.42,366.26s-4.85-2.43-6.92,0-1,10.38-.7,16.26,1.39,14.89,4.85,12.81,3.12-18.69,3.12-22.5A58.078,58.078,0,0,0,166.42,366.26Z" fill="#fff" stroke="#263238" stroke-linecap="round" stroke-linejoin="round" stroke-width="0.988" />
			<path id="Path_1267" data-name="Path 1267" d="M175.77,366.6s-6.24-3.11-9-2.42-3.47,18-3.47,23.88,4.5,9.35,5.89,6.93,2.77-20.43,3.81-23.2a25.52,25.52,0,0,1,2.77-5.19Z" fill="#fff" stroke="#263238" stroke-linecap="round" stroke-linejoin="round" stroke-width="0.988" />
			<path id="Path_1268" data-name="Path 1268" d="M253,395.33s-1.73-2.77-15.57-5.54-32.54-7.61-34.62-8.65S184.07,368,179.23,365.22s-6.93,1-8,4.84-4.5,21.46-4.16,23.19,3.46,4.16,4.5,1.74,5.54-16.27,5.89-17.66,11.42,11.08,14.19,13.85,5.88,4.5,9.69,4.5a48.105,48.105,0,0,0,6.23-.35s38.07,25.27,45,28.38,12.8-.69,13.49-2.76,1.39-14.54-2.42-19S253,395.33,253,395.33Z" fill="#fff" stroke="#263238" stroke-linecap="round" stroke-linejoin="round" stroke-width="0.988" />
			<path id="Path_1269" data-name="Path 1269" d="M193.42,379.06a47.7,47.7,0,0,1-13.5-4.5c-6.58-3.46-9.35,1.39-6.58,5.2s11.42,4.84,11.42,4.84,5.2,8.31,12.47,10.39a12.53,12.53,0,0,0,12.11-3.12" fill="#fff" stroke="#263238" stroke-linecap="round" stroke-linejoin="round" stroke-width="0.988" />
			<path id="Path_1270" data-name="Path 1270" d="M265.07,340.3s-12.81,42.92-9.35,46.38,15.23,12.11,17,10,6.92-19.39,6.92-29.42S267.49,334.07,265.07,340.3Z" fill="#0dbdb8" stroke="#263238" stroke-linecap="round" stroke-linejoin="round" stroke-width="0.988" />
			<path id="Path_1271" data-name="Path 1271" d="M276.83,393.6s-12.8-10.73-17-11.77-4.5-1.38-7.61,4.16-4.15,8-1.38,10,12.46,15.23,18.69,16.27S277.53,403.64,276.83,393.6Z" fill="#0dbdb8" stroke="#263238" stroke-linecap="round" stroke-linejoin="round" stroke-width="0.988" />
			<path id="Path_1272" data-name="Path 1272" d="M251.27,450.19H386.69c1.13-4.34,9.09-35.2,12-49.67,3.12-15.57,8.66-70.26,8.66-79.26s-.35-32-5.89-41-28.38-27.69-42.92-35-26-13.5-33.57-14.19-35.31,22.15-44,42.23c0,0-17,12.46-18.35,20.42s-1.38,17.45,2.08,35.45S269.57,359,269.57,359,256.76,397.06,255,412.64C253.45,426.82,251.59,446.73,251.27,450.19Z" fill="#0dbdb8" stroke="#263238" stroke-linecap="round" stroke-linejoin="round" stroke-width="0.988" />
			<path id="Path_1273" data-name="Path 1273" d="M276.88,292.61s-3.81,4.24-.85,4.24,6.78-5.51,10.17-4.24,13.55,8.47,13.55,8.47,5.51,3.82,7.2,2.55S318.39,290.5,323.9,293s11.43,9.32,12.28,5.93-5.51-19.49-8.05-27.11-29.22-11.86-39-3.39S276.88,292.61,276.88,292.61Z" fill="#263238" stroke="#263238" stroke-linecap="round" stroke-linejoin="round" stroke-width="0.988" />
			<path id="Path_1274" data-name="Path 1274" d="M304.64,306.32s-3.58,2.13-3.58,16.67a270.994,270.994,0,0,0,1.73,28.73s-3.11,1-2.76,3.11,5.19,2.43,5.19,2.43-23.19,53-24.58,83.07" fill="none" stroke="#263238" stroke-linecap="round" stroke-linejoin="round" stroke-width="0.988" />
			<path id="Path_1275" data-name="Path 1275" d="M325.15,348.74c1.49-.09,2.93-.14,4.3-.14" fill="none" stroke="#263238" stroke-linecap="round" stroke-linejoin="round" stroke-width="0.988" />
			<path id="Path_1276" data-name="Path 1276" d="M284.1,355.87s19.4-5,35.7-6.69" fill="none" stroke="#263238" stroke-linecap="round" stroke-linejoin="round" stroke-width="0.988" />
			<path id="Path_1277" data-name="Path 1277" d="M293.45,359.68s22.15-4.85,37.73-5.54" fill="none" stroke="#263238" stroke-linecap="round" stroke-linejoin="round" stroke-width="0.988" />
			<path id="Path_1278" data-name="Path 1278" d="M283.3,269.86s-3.51,9.46-6.75,16.48-8.1,10.8-5.13,11.07,12.69-7.56,15.12-10,7.29,5.67,9.19,8.64,7.56,10.8,8.91,10.26,15.93-19.44,18.63-22.14,9.73,13.77,13.78,17,2.43-3.51,1.89-7.56-2.7-37-5.4-52.12-11.89-21.34-16.75-21.88-13,0-17.82,6.21S283.3,269.86,283.3,269.86Z" fill="#0dbdb8" stroke="#263238" stroke-linecap="round" stroke-linejoin="round" stroke-width="0.988" />
			<path id="Path_1279" data-name="Path 1279" d="M286,271.76s10,12.15,13,21.87,5.67,15.4,7,12.15,13-35.38,13.77-50.5-.27-21.88-1.89-26.74-6.75-16.74-6.75-16.74-9.72-1.08-12.69,5.67-8.92,31.87-12.16,40a18.94,18.94,0,0,0-.28,14.29Z" fill="#fff" stroke="#263238" stroke-linecap="round" stroke-linejoin="round" stroke-width="0.988" />
			<path id="Path_1280" data-name="Path 1280" d="M309,229l-9.87-7.88L293.27,234c-2.51,9-5.18,18.91-7,23.45a18.94,18.94,0,0,0-.27,14.32A104.73,104.73,0,0,1,295.08,285C305.4,264.69,309,229,309,229Z" fill="#263238" stroke="#263238" stroke-linecap="round" stroke-linejoin="round" stroke-width="0.988" />
			<path id="Path_1281" data-name="Path 1281" d="M224.3,171.4s-6.25,18.06-1.74,26,13.89,17,18.41,28.82,9.37,23.61,8.68,31.94-.7,18.41,4.86,23.27,20.83,4.51,32.29-4.17,12.2-26.7,12.2-26.7,9.67-14.93,10-21.56.35-12.85.35-12.85,10.07-7.29,10.07-20.48-5.21-13.55-5.21-13.55a31.88,31.88,0,0,1-7-14.93c-1.73-9.37-4.51-19.44-12.84-22.22s-29.17,2.78-42.36,10.42S224.3,171.4,224.3,171.4Z" fill="#fff" stroke="#263238" stroke-linecap="round" stroke-linejoin="round" stroke-width="0.988" />
			<path id="Path_1282" data-name="Path 1282" d="M238.54,176.26A12.65,12.65,0,0,0,225,173.83c-8.34,3.13-9.38,13.2-9.38,13.2s-6.6-2.43-6.6-6.25v-6.25s-6.59,5.55-4.86,10.41a13.19,13.19,0,0,0,6.6,6.95s-13.19-.7-17.36-8,3.82-14.58,3.82-14.58L192.7,169s4.87-6.94,11.81-8.68,10.42-1,10.42-1l-6.25-2.43s6.59-6.25,12.15-7.29a35.429,35.429,0,0,1,9-.7s21.52-16,40.62-17.36,34.72,8.34,39.23,18.4,4.52,26.74,4.52,29.52v2.77s-7,0-8.68,4.17.69,9.72-2.09,11.11-7.63-1.73-9.72-4.86-.34-7.29-2.78-9-11.11,1-16.31-2.43-3.82-14.93-1-19.09,19.1-11.11,18.06-13.54-17.36,8.68-20.14,12.15-12.85,10.76-19.79,13.19A44.51,44.51,0,0,1,238.54,176.26Z" fill="#263238" stroke="#263238" stroke-linecap="round" stroke-linejoin="round" stroke-width="0.988" />
			<path id="Path_1283" data-name="Path 1283" d="M303.46,197.44c2.78-1.39.35-6.94,2.09-11.11s8.68-4.17,8.68-4.17v-2.77a109.674,109.674,0,0,0-1.93-21.14c-6,0-11.63.93-16,3.13-5.77,2.88-1.44,2.16,2.88,4.33s-7.93,2.88-16.57,7.2-7.93,8.21-7.93,8.21c5.2,3.48,13.88.7,16.31,2.43s.7,5.91,2.78,9S300.69,198.83,303.46,197.44Z" fill="#fff" stroke="#8c8c8c" stroke-linecap="round" stroke-linejoin="round" stroke-width="0.988" />
			<path id="Path_1284" data-name="Path 1284" d="M305.93,185.33a1.06,1.06,0,0,0-1.2.3l-14.59,17a1.09,1.09,0,0,0,.82,1.79,1.06,1.06,0,0,0,.82-.38l13.09-15.26a7.21,7.21,0,0,1,1.06-3.45Z" fill="#263238" />
			<path id="Path_1285" data-name="Path 1285" d="M288.59,238c-7.34-2.37-23.2-.71-26.52,1.66,0,0-8.81,6.56-13.25,9.67a30.38,30.38,0,0,1,.83,8.86c-.7,8.34-.7,18.41,4.86,23.27s20.83,4.51,32.29-4.17S299,250.56,299,250.56,295.94,240.38,288.59,238Z" fill="#263238" stroke="#263238" stroke-linecap="round" stroke-linejoin="round" stroke-width="0.988" />
			<path id="Path_1286" data-name="Path 1286" d="M256.62,249.38s2.2,4.91,11.56,4.91,12.24-11.52,12.24-11.52-7.92-3.6-14.4-2.16S256.62,249.38,256.62,249.38Z" fill="#fff" stroke="#263238" stroke-linecap="round" stroke-linejoin="round" stroke-width="0.988" />
			<path id="Path_1287" data-name="Path 1287" d="M244,210.51c.67,1.91.42,3.74-.57,4.09s-2.33-.93-3-2.84-.42-3.75.57-4.09S243.29,208.59,244,210.51Z" fill="#263238" />
			<path id="Path_1288" data-name="Path 1288" d="M268.12,205.06c.67,1.91.41,3.74-.57,4.09s-2.33-.92-3-2.84-.41-3.74.58-4.09S267.45,203.15,268.12,205.06Z" fill="#263238" />
			<path id="Path_1289" data-name="Path 1289" d="M222.91,216.54l68-13.2s2.09,12.16-1.73,14.93-19.1,4.87-23.26,4.52-9-10-9-10l-4.53,1a59.829,59.829,0,0,0,.35,6.25,43.187,43.187,0,0,1,.35,4.86v.35A25.84,25.84,0,0,1,242.7,229C236.11,230.08,227.77,232.51,222.91,216.54Z" fill="none" stroke="#263238" stroke-linecap="round" stroke-linejoin="round" stroke-width="1.976" />
			<line id="Line_233" data-name="Line 233" x1="0.46" y1="2.26" transform="translate(251.96 211.5)" fill="none" stroke="#263238" stroke-linecap="round" stroke-linejoin="round" stroke-width="1.976" />
			<line id="Line_234" data-name="Line 234" x1="0.8" y1="2.26" transform="translate(256.15 210.53)" fill="none" stroke="#263238" stroke-linecap="round" stroke-linejoin="round" stroke-width="1.976" />
			<path id="Path_1290" data-name="Path 1290" d="M228.59,206.2a1,1,0,0,0-.43.36L222,216a1.08,1.08,0,0,0,1.81,1.18l6-9.23Z" fill="#263238" />
			<path id="Path_1291" data-name="Path 1291" d="M253.05,215.4s1.08,15.84,2.88,19.44,16.57,0,17.65-2.52-1.08-5.4-1.08-5.4h-3.6" fill="none" stroke="#263238" stroke-linecap="round" stroke-linejoin="round" stroke-width="0.988" />
			<path id="Path_1292" data-name="Path 1292" d="M243.6,202.49a6.71,6.71,0,0,0-6.4-.48c-3.31,1.66-5.21,5.21-6.16,5.21s-.47-6.15,3.32-8.52,8.76.71,9.71,1.89S244.54,203,243.6,202.49Z" fill="#263238" stroke="#263238" stroke-linecap="round" stroke-linejoin="round" stroke-width="0.988" />
			<path id="Path_1293" data-name="Path 1293" d="M270.5,194.3a6.65,6.65,0,0,0-5.87-2.57c-3.68.46-6.64,3.18-7.54,2.86s1.6-6,6-6.94,8,3.59,8.53,5S271.24,195.06,270.5,194.3Z" fill="#263238" stroke="#263238" stroke-linecap="round" stroke-linejoin="round" stroke-width="0.988" />
			<path id="Path_1294" data-name="Path 1294" d="M240.75,218.36s5.69-1.66,9-5.69" fill="none" stroke="#263238" stroke-linecap="round" stroke-linejoin="round" stroke-width="0.988" />
			<path id="Path_1295" data-name="Path 1295" d="M262.07,210.07s3.55,2.13,10.89,1.42" fill="none" stroke="#263238" stroke-linecap="round" stroke-linejoin="round" stroke-width="0.988" />
			<path id="Path_1296" data-name="Path 1296" d="M255.93,234.84a55.249,55.249,0,0,1-7.6,7.44c-3.31,2.36-7.1,2.6-6.86,4.26s8.76,5,15.15,2.84,9-5.45,9-5.45a18.24,18.24,0,0,0,14,4c8.29-1.18,16.35-10.42,17.29-12.55s-1.89,1.42-9,.23a136.356,136.356,0,0,1-14.3-3.32s-2.51,1.9-8.19,3.32S256.9,235,255.93,234.84Z" fill="#263238" stroke="#263238" stroke-linecap="round" stroke-linejoin="round" stroke-width="0.988" />
			<path id="Path_1297" data-name="Path 1297" d="M250.35,184.52s6.75-9.18,15.13-4.32" fill="none" stroke="#263238" stroke-linecap="round" stroke-linejoin="round" stroke-width="0.988" />
			<path id="Path_1298" data-name="Path 1298" d="M201,383.91s-5.54.35-9.34-2.42-7.62-.7-8,2.07,3.11,8,7.26,9.69,14.54,1.39,17,1.74,6.23,6.23,13.49,9,18.7,2.08,18.7,2.08-.35-11.42-4.16-17-16.61-11.42-22.5-9A82.651,82.651,0,0,1,201,383.91Z" fill="#fff" stroke="#263238" stroke-linecap="round" stroke-linejoin="round" stroke-width="0.988" />
			<path id="Path_1299" data-name="Path 1299" d="M208,376.29s-4.5.35-6.58,3.12-9,18-9,22.5,2.42,9.69,4.15,7.27S198.61,398.79,200,395s8.31-15.23,9.35-15.93S209,376,208,376.29Z" fill="#fff" stroke="#263238" stroke-linecap="round" stroke-linejoin="round" stroke-width="0.988" />
			<path id="Path_1300" data-name="Path 1300" d="M218,374.56s-5.54-3.11-8.3-1.73-6.58,16.62-6.93,21.12,1,21.11,5.2,20.76S210,404,210,397.06s6.92-17,6.92-17Z" fill="#fff" stroke="#263238" stroke-linecap="round" stroke-linejoin="round" stroke-width="0.988" />
			<path id="Path_1301" data-name="Path 1301" d="M353.68,382.18s-1.39,3.81-23.54,5.88-71.65,5.19-72.69,5.19-22.84-14.53-29.07-18.69-10-3.8-12.81-1-9,20.76-8.65,23.53,1.73,15.23,4.15,16.27,3.12-1,3.12-4.5-.7-15.23-.7-15.23l9.35-8.31s12.81,23.19,22.5,25.27a38.2,38.2,0,0,0,17,0s49.49,17,79.61,17.31,50.53,3.46,54.69-8-27.35-37-31.16-38.42S353.68,382.18,353.68,382.18Z" fill="#fff" stroke="#263238" stroke-linecap="round" stroke-linejoin="round" stroke-width="0.988" />
			<path id="Path_1302" data-name="Path 1302" d="M235.3,386.68s-8-6.58-10.38-6.23-10,5.54-13.16,7.27a38.989,38.989,0,0,0-12.11,10.38c-3.46,4.85-.35,7.27,1.38,5.54s8-7.27,9.35-8.31,11.77-5.88,11.77-5.88l16.61,12.46" fill="#fff" stroke="#263238" stroke-linecap="round" stroke-linejoin="round" stroke-width="0.988" />
			<path id="Path_1303" data-name="Path 1303" d="M368.21,290s-13.15,7.07-13.5,20.57,2.43,58.84,2.43,58.84-4.5,6.92,1.38,11.08,39.81,24.23,44.31,17.65,9.69-50.88,9.69-82.38-5.89-30.6-9.69-36.14-10.73-7.27-10.73-7.27" fill="#0dbdb8" stroke="#263238" stroke-linecap="round" stroke-linejoin="round" stroke-width="0.988" />
			<path id="Path_1304" data-name="Path 1304" d="M384.83,373.18s-22.85-7.62-26.31-7.27-3.81,5.54-8,10.38-3.82,9.1-2.44,9.8,18.83,4.07,30.25,15.84,11.3,24.55,15.46,24.21,4.5-6.58,8-16.62,7.61-17.65,4.84-24.92S384.83,373.18,384.83,373.18Z" fill="#0dbdb8" stroke="#263238" stroke-linecap="round" stroke-linejoin="round" stroke-width="0.988" />
			<path id="Path_1305" data-name="Path 1305" d="M349.87,378.37s22.84-2.08,37.38,9.35" fill="none" stroke="#263238" stroke-linecap="round" stroke-linejoin="round" stroke-width="0.988" />
			<path id="Path_1306" data-name="Path 1306" d="M365.1,375.26s20.42,3.11,28.38,12.8" fill="none" stroke="#263238" stroke-linecap="round" stroke-linejoin="round" stroke-width="0.988" />
			<path id="Path_1307" data-name="Path 1307" d="M299.66,450.19h10.58c44.29-13.79,107.45-2,108.09-1.84a9.18,9.18,0,1,0,3.47-18c-2.89-.56-71.26-13.4-120.29,3.39a9.16,9.16,0,0,0-1.85,16.48Z" fill="#fff" stroke="#263238" stroke-linecap="round" stroke-linejoin="round" stroke-width="0.988" />
			<path id="Path_1308" data-name="Path 1308" d="M307.11,450.19h10.57c44.29-13.79,107.45-2,108.1-1.84a9.18,9.18,0,1,0,3.46-18c-2.88-.56-71.26-13.4-120.29,3.39a9.16,9.16,0,0,0-1.84,16.48Z" fill="#263238" stroke="#263238" stroke-linecap="round" stroke-linejoin="round" stroke-width="0.988" />
		</g>
		<g id="freepik--Ashtray--inject-2">
			<path id="Path_1309" data-name="Path 1309" d="M348.86,431.87s8.76-2.29,8.18-14.91-1.14-21.81,8-25.25,29.84-6.89,30.41-18.94a35.541,35.541,0,0,0-1.61-11.71" fill="none" stroke="#263238" stroke-linecap="round" stroke-linejoin="round" stroke-width="0.988" />
			<path id="Path_1310" data-name="Path 1310" d="M365.38,405.85c.09-8.33,1.58-14.33,8.3-17,9.19-3.69,29.84-7.38,30.42-20.3s-6.32-17.83-1.15-30.75" fill="none" stroke="#263238" stroke-linecap="round" stroke-linejoin="round" stroke-width="0.988" />
			<path id="Path_1311" data-name="Path 1311" d="M350.73,431.87s15.49-2.46,14.92-16c-.06-1.33-.11-2.62-.16-3.88" fill="none" stroke="#263238" stroke-linecap="round" stroke-linejoin="round" stroke-width="0.988" />
			<path id="Path_1312" data-name="Path 1312" d="M404.29,334.93a26,26,0,0,1,6.14-4.91" fill="none" stroke="#263238" stroke-linecap="round" stroke-linejoin="round" stroke-width="0.988" />
			<path id="Path_1313" data-name="Path 1313" d="M344.32,414l4.47,4.29a41.3,41.3,0,0,0,0,5.1c.21,1.12,2.34,4,2.34,4s.7,2.65-1.23,3.46-4.29,1.93-4.43.45-.76-2.29-1.52-4.59-1.32-3.46-.81-4.48l.52-1L340,418.79S341.16,413.14,344.32,414Z" fill="#fff" stroke="#263238" stroke-linecap="round" stroke-linejoin="round" stroke-width="0.988" />
			<path id="Path_1314" data-name="Path 1314" d="M340,418.79l3.32,2.13c2.69-3.07,5.49-2.67,5.49-2.67L344.32,414C341.16,413.14,340,418.79,340,418.79Z" fill="#8f8f8f" stroke="#263238" stroke-linecap="round" stroke-linejoin="round" stroke-width="0.988" />
			<path id="Path_1315" data-name="Path 1315" d="M318.59,433.26l2.88-3.24s4.32,0,5.4-1.44a24.1,24.1,0,0,1,7.2-5.76c2.52-1.08,6.12,1.8,8.28,2.16s5,.72,5,.72a5.22,5.22,0,0,1,0,4.32l-1.08,2.16L337,429.3s-4.32,0-6.48,1.44-2.52,4-5,4a29.291,29.291,0,0,1-6.93-1.48Z" fill="#fff" stroke="#263238" stroke-linecap="round" stroke-linejoin="round" stroke-width="0.988" />
			<path id="Path_1316" data-name="Path 1316" d="M342.35,425c-1.6-.27-4-1.93-6.17-2.32a8.38,8.38,0,0,1,.77,5.2c-.09.5-.2,1-.32,1.45H337l9.37,2.88L347.4,430a5.22,5.22,0,0,0,0-4.32S344.51,425.34,342.35,425Z" fill="#8f8f8f" stroke="#263238" stroke-linecap="round" stroke-linejoin="round" stroke-width="0.988" />
			<path id="Path_1317" data-name="Path 1317" d="M343.4,433.71l-2.88-3.24s-4.32,0-5.4-1.44a24.1,24.1,0,0,0-7.2-5.76c-2.53-1.08-6.13,1.8-8.29,2.16s-5,.72-5,.72a5.22,5.22,0,0,0,0,4.32l1.08,2.16,9.36-2.88s4.33,0,6.49,1.44,2.52,4,5,4a29.292,29.292,0,0,0,6.84-1.48Z" fill="#fff" stroke="#263238" stroke-linecap="round" stroke-linejoin="round" stroke-width="0.988" />
			<path id="Path_1318" data-name="Path 1318" d="M319.63,425.43c1.61-.27,4-1.92,6.17-2.32a8.47,8.47,0,0,0-.77,5.2c.1.51.21,1,.33,1.45H325l-9.36,2.88-1.08-2.16a5.22,5.22,0,0,1,0-4.32S317.47,425.79,319.63,425.43Z" fill="#8f8f8f" stroke="#263238" stroke-linecap="round" stroke-linejoin="round" stroke-width="0.988" />
			<path id="Path_1319" data-name="Path 1319" d="M347.4,430l3.6-5a41.307,41.307,0,0,0,5-.72c1.08-.36,3.6-2.88,3.6-2.88s2.52-1.08,3.6.72,2.52,4,1.08,4.32-2.16,1.08-4.32,2.16-3.24,1.8-4.32,1.44l-1.08-.36-1.8,4S347,433.26,347.4,430Z" fill="#fff" stroke="#263238" stroke-linecap="round" stroke-linejoin="round" stroke-width="0.988" />
			<path id="Path_1320" data-name="Path 1320" d="M352.8,433.62l1.63-3.59c-3.43-2.23-3.43-5-3.43-5l-3.6,5C347,433.26,352.8,433.62,352.8,433.62Z" fill="#8f8f8f" stroke="#263238" stroke-linecap="round" stroke-linejoin="round" stroke-width="0.988" />
			<path id="Path_1321" data-name="Path 1321" d="M363.06,425.94l5.92-1.81a40.9,40.9,0,0,0,4.44,2.49c1.08.37,4.61-.09,4.61-.09s2.66.67,2.42,2.76-.41,4.68-1.77,4.09-2.37-.46-4.74-.92-3.67-.54-4.31-1.48L369,430l-3.84,2S360.8,428.29,363.06,425.94Z" fill="#fff" stroke="#263238" stroke-linecap="round" stroke-linejoin="round" stroke-width="0.988" />
			<path id="Path_1322" data-name="Path 1322" d="M365.15,432.08l3.48-1.85c-1.37-3.86.35-6.1.35-6.1l-5.92,1.81C360.8,428.29,365.15,432.08,365.15,432.08Z" fill="#8f8f8f" stroke="#263238" stroke-linecap="round" stroke-linejoin="round" stroke-width="0.988" />
			<rect id="Rectangle_166" data-name="Rectangle 166" width="79.22" height="19.45" rx="3.12" transform="translate(307.06 430.74)" fill="#fff" stroke="#263238" stroke-linecap="round" stroke-linejoin="round" stroke-width="0.988" />
			<path id="Path_1323" data-name="Path 1323" d="M369.61,430.68h8.92v7.25a3.69,3.69,0,0,1-3.69,3.69H373.3a3.69,3.69,0,0,1-3.69-3.69Z" fill="#fff" stroke="#263238" stroke-linecap="round" stroke-linejoin="round" stroke-width="0.988" />
			<path id="Path_1324" data-name="Path 1324" d="M313.05,430.68H322v7.25a3.69,3.69,0,0,1-3.69,3.69h-1.55a3.69,3.69,0,0,1-3.69-3.69v-7.25Z" fill="#fff" stroke="#263238" stroke-linecap="round" stroke-linejoin="round" stroke-width="0.988" />
		</g>
		<g id="freepik--Typewriter--inject-2">
			<path id="Path_1325" data-name="Path 1325" d="M121.61,375.19H148a43.16,43.16,0,0,1,6.16,19.06H126.6Z" fill="#d6d6d6" stroke="#263238" stroke-linecap="round" stroke-linejoin="round" stroke-width="0.988" />
			<path id="Path_1326" data-name="Path 1326" d="M132.87,392.83s-7-23.64-18-24.51c-17.72-1.43-48.17.87-48.17.87s24.58,10.51,25.9,29.34h42.9Z" fill="#d6d6d6" stroke="#263238" stroke-linecap="round" stroke-linejoin="round" stroke-width="0.988" />
			<path id="Path_1327" data-name="Path 1327" d="M114.92,368.32a11.8,11.8,0,0,0-8.32.87c-3.94,2.19-12.69,14.45-12.69,14.45H45.74s11.38-10.07,21-14.45S101.83,365.65,114.92,368.32Z" fill="#fff" stroke="#263238" stroke-linecap="round" stroke-linejoin="round" stroke-width="0.988" />
			<path id="Path_1328" data-name="Path 1328" d="M72.89,390.64h70.64a14.71,14.71,0,0,1,11.77,5.86c5.67,7.53,16.89,20.15,31,24.35,12.86,3.83,21.79,3.9,26.68,3.41a4,4,0,0,1,4.35,4.12c-.21,5-.95,12.34-3.45,15.68a16.76,16.76,0,0,1-10.06,6.13H68.52s-13.14-5.26-10.07-20.58S72.89,390.64,72.89,390.64Z" fill="#263238" stroke="#263238" stroke-linecap="round" stroke-linejoin="round" stroke-width="0.988" />
			<path id="Path_1329" data-name="Path 1329" d="M100,390.64h70.64a14.7,14.7,0,0,1,11.76,5.86c5.67,7.53,16.89,20.15,31,24.35,12.86,3.83,21.78,3.9,26.67,3.41a4,4,0,0,1,4.35,4.12c-.2,5-.94,12.34-3.44,15.68a16.77,16.77,0,0,1-10.07,6.13H95.66s-13.13-5.26-10.07-20.58S100,390.64,100,390.64Z" fill="#fff" stroke="#263238" stroke-linecap="round" stroke-linejoin="round" stroke-width="0.988" />
			<circle id="Ellipse_42" data-name="Ellipse 42" cx="11.38" cy="11.38" r="11.38" transform="translate(119.407 411.224) rotate(-45)" fill="#fff" stroke="#263238" stroke-linecap="round" stroke-linejoin="round" stroke-width="0.988" />
			<circle id="Ellipse_43" data-name="Ellipse 43" cx="11.38" cy="11.38" r="11.38" transform="translate(122.912 411.219) rotate(-45)" fill="#263238" stroke="#263238" stroke-linecap="round" stroke-linejoin="round" stroke-width="0.988" />
		</g>
	</g>
</svg>
