<svg xmlns="http://www.w3.org/2000/svg" width="803.458" height="822.152" viewBox="0 0 803.458 822.152">
	<g id="Texting-cuate" transform="translate(0)">
		<g id="freepik--background-complete--inject-7" transform="translate(3.64 0)">
			<path id="Path_19" data-name="Path 19" d="M56.144,306.515l25,.534,12.691.21c4.249,0,8.518,0,12.767.1h.838V306.5l.114-21.323v-.953H106.6l-25.23.114c-8.423,0-16.826.21-25.23.3H55.61v.514c0,3.621.171,7.2.248,10.766Zm0,0,.267-10.785c0-3.544.21-7.051.248-10.538l-.514.515c8.4.1,16.807.3,25.23.3l25.23.133-.953-.953v21.323l.857-.858c-4.154,0-8.308,0-12.481.114l-12.539.21Z" transform="translate(660.993 171.303)" fill="#ebebeb" />
			<path id="Path_20" data-name="Path 20" d="M41.374,320.595l25,.534,12.691.21c4.249,0,8.518,0,12.767.1h.838v-.838l.114-21.323V298.3h-.953l-25.23.114c-8.4,0-16.826.21-25.23.3H40.84v.514c0,3.621.152,7.2.248,10.766Zm0,0,.267-10.785c.1-3.544.21-7.051.248-10.538l-.514.514c8.4.1,16.826.3,25.23.3l25.23.133-.953-.953.1,21.323.858-.857c-4.154,0-8.308,0-12.481.114l-12.539.21Z" transform="translate(703.908 184.053)" fill="#ebebeb" />
			<path id="Path_21" data-name="Path 21" d="M154.769,198.666l25.02.534,12.691.21c4.23.1,8.5,0,12.748.114h.857V176.39h-.972l-25.23.114c-8.4,0-16.807.229-25.23.324h-.515v.515c0,3.621.171,7.222.248,10.785Zm0,0,.267-10.766c.1-3.563.229-7.07.267-10.557l-.534.515c8.423.114,16.826.3,25.23.324l25.23.114-.953-.953.172,21.323.838-.838c-4.154,0-8.289,0-12.462.1l-12.539.21Z" transform="translate(374.708 73.657)" fill="#ebebeb" />
			<path id="Path_22" data-name="Path 22" d="M139.854,212.776l25.02.534,12.691.21c4.249,0,8.5,0,12.748.114h.857v-.857l.1-21.323V190.5h-.972l-25.23.114c-8.4,0-16.807.229-25.23.324h-.515v.514c0,3.621.171,7.222.248,10.766Zm0,0,.286-10.766c0-3.563.21-7.07.248-10.557l-.534.515c8.423.114,16.826.3,25.23.324l25.23.114-.934-.953.1,21.323.838-.838c-4.154,0-8.289,0-12.462.1l-12.539.21Z" transform="translate(417.769 86.434)" fill="#ebebeb" />
			<path id="Path_23" data-name="Path 23" d="M125.134,198.666l25,.534,12.691.21c4.249.1,8.518,0,12.767.114h.838v-.857l.114-21.323v-.953h-.953l-25.23.114c-8.423,0-16.826.229-25.23.324H124.6v.515c0,3.621.171,7.222.267,10.785Zm0,0L125.4,187.9c0-3.563.21-7.07.248-10.557l-.514.515c8.4.114,16.807.3,25.23.324l25.23.114-.953-.953v21.323l.857-.838c-4.154,0-8.308,0-12.481.1l-12.539.21Z" transform="translate(460.539 73.657)" fill="#ebebeb" />
			<path id="Path_24" data-name="Path 24" d="M385.9,168.586l25.02.534,12.691.21c4.23.1,8.5,0,12.748.114h.857v-.858l.1-21.323v-.953h-.953l-25.23.133c-8.4,0-16.807.21-25.229.3h-.515v.515c0,3.621.171,7.222.248,10.785Zm0,0,.267-10.766c.1-3.544.229-7.07.248-10.557l-.514.534c8.422,0,16.826.286,25.229.3l25.23.114-.953-.953.114,21.323.839-.838c-4.154,0-8.308,0-12.462.1l-12.539.21Z" transform="translate(-297.182 46.418)" fill="#ebebeb" />
			<path id="Path_25" data-name="Path 25" d="M432.194,320.595l25.02.534,12.691.21c4.23,0,8.5,0,12.748.1h.858v-.838l.1-21.323V298.3h-.953l-25.23.114c-8.4,0-16.826.21-25.229.3h-.515v.514c0,3.621.152,7.2.248,10.766Zm0,0,.267-10.785c0-3.544.229-7.051.248-10.538l-.514.514c8.4.1,16.826.3,25.229.3l25.23.133-.953-.953.114,21.323.838-.857c-4.154,0-8.308,0-12.462.114l-12.539.21Z" transform="translate(-431.68 184.053)" fill="#ebebeb" />
			<path id="Path_26" data-name="Path 26" d="M417.7,67.56l25.02.514,12.691.229h13.529V45.17h-.972l-25.229.114c-8.4,0-16.807.21-25.229.3H417V46.1c0,3.6.172,7.2.248,10.766Zm0,0,.267-10.785c.1-3.544.229-7.051.267-10.538l-.534.514c8.423,0,16.826.3,25.229.3l25.229.133-.953-.953.114,21.323.838-.857c-4.154,0-8.289,0-12.462.1l-12.539.229Z" transform="translate(-389.046 -45.17)" fill="#ebebeb" />
			<path id="Path_27" data-name="Path 27" d="M432.194,81.595l25.02.514,12.691.229h13.606v-.743l.1-21.323V59.3h-.953l-25.23.114c-8.4,0-16.826.21-25.229.3h-.515v.514c0,3.6.152,7.2.248,10.766Zm0,0,.267-10.785c0-3.544.229-7.051.248-10.538l-.514.515c8.4,0,16.826.3,25.229.3l25.23.114-.953-.934.114,21.323.838-.857H470.191l-12.539.229Z" transform="translate(-431.68 -32.375)" fill="#ebebeb" />
			<path id="Path_28" data-name="Path 28" d="M56.144,67.56l25,.514,12.691.229h13.606v-.838l.114-21.323V45.17H106.6l-25.23.114c-8.423,0-16.826.21-25.23.3H55.61V46.1c0,3.6.171,7.2.248,10.766Zm0,0,.267-10.785c0-3.544.21-7.051.248-10.538l-.514.514c8.4,0,16.807.3,25.23.3l25.23.133-.953-.953V67.56l.857-.857c-4.154,0-8.308,0-12.481.1l-12.539.229Z" transform="translate(660.993 -45.17)" fill="#ebebeb" />
			<rect id="Rectangle_14" data-name="Rectangle 14" width="114.619" height="139.029" transform="translate(644.706 43.066)" fill="#dbdbdb" />
			<rect id="Rectangle_15" data-name="Rectangle 15" width="88.437" height="113.666" transform="translate(657.797 55.757)" fill="#fff" />
			<rect id="Rectangle_16" data-name="Rectangle 16" width="3.449" height="113.666" transform="translate(742.785 55.757)" fill="#c7c7c7" />
			<rect id="Rectangle_17" data-name="Rectangle 17" width="3.449" height="139.029" transform="translate(641.257 43.066)" fill="#c7c7c7" />
			<rect id="Rectangle_18" data-name="Rectangle 18" width="20.847" height="62.121" transform="translate(679.178 82.034)" fill="#dbdbdb" />
			<path id="Path_29" data-name="Path 29" d="M77.6,114.514h57.51V82.12H77.6Zm55.6-1.906h-53.7V84.026h53.7Z" transform="translate(591.535 -11.71)" fill="#ebebeb" />
			<rect id="Rectangle_19" data-name="Rectangle 19" width="114.619" height="139.029" transform="translate(305.822 119.288)" fill="#dbdbdb" />
			<rect id="Rectangle_20" data-name="Rectangle 20" width="88.437" height="113.666" transform="translate(318.913 131.979)" fill="#fff" />
			<rect id="Rectangle_21" data-name="Rectangle 21" width="3.449" height="113.666" transform="translate(403.901 131.979)" fill="#c7c7c7" />
			<rect id="Rectangle_22" data-name="Rectangle 22" width="3.449" height="139.029" transform="translate(302.373 119.288)" fill="#c7c7c7" />
			<rect id="Rectangle_23" data-name="Rectangle 23" width="20.847" height="62.121" transform="translate(356.872 158.256)" fill="#dbdbdb" />
			<path id="Path_30" data-name="Path 30" d="M255.44,154.514h57.51V122.12H255.44Zm55.6-1.906h-53.7V124.026h53.7Z" transform="translate(74.812 24.512)" fill="#ebebeb" />
			<rect id="Rectangle_24" data-name="Rectangle 24" width="114.619" height="139.029" transform="translate(475.264 81.177)" fill="#dbdbdb" />
			<rect id="Rectangle_25" data-name="Rectangle 25" width="88.437" height="113.666" transform="translate(488.355 93.868)" fill="#fff" />
			<rect id="Rectangle_26" data-name="Rectangle 26" width="3.449" height="113.666" transform="translate(573.343 93.868)" fill="#c7c7c7" />
			<rect id="Rectangle_27" data-name="Rectangle 27" width="3.449" height="139.029" transform="translate(471.815 81.177)" fill="#c7c7c7" />
			<rect id="Rectangle_28" data-name="Rectangle 28" width="17.855" height="45.162" transform="translate(523.284 123.251)" fill="#ebebeb" />
			<path id="Path_31" data-name="Path 31" d="M168.51,156.792h49.907V123.75H168.51Zm48-1.906h-46.1V125.656h46.1Z" transform="translate(334.995 25.988)" fill="#dbdbdb" />
		</g>
		<g id="freepik--Floor--inject-7" transform="translate(0.057 776.818)">
			<path id="Path_32" data-name="Path 32" d="M842.6,453.783l-100.423-.476-100.423-.152L440.91,452.83l-200.845.324-100.423.152L39.2,453.783l100.442.457,100.423.171,200.845.324,200.845-.324,100.423-.171Z" transform="translate(-39.2 -452.83)" fill="#263238" />
		</g>
		<g id="freepik--Character--inject-7" transform="translate(229.834 157.403)">
			<path id="Path_33" data-name="Path 33" d="M80.43,474.746h80.376l46.019-229.372-73.612-33.8Z" transform="translate(288.232 -51.889)" fill="#37474f" />
			<path id="Path_34" data-name="Path 34" d="M119.06,474.746H336.026L388.81,211.57H171.844Z" transform="translate(32.636 -51.889)" fill="#455a64" />
			<rect id="Rectangle_29" data-name="Rectangle 29" width="123.194" height="252.772" transform="translate(409.936 299.796)" fill="#37474f" />
			<path id="Path_35" data-name="Path 35" d="M247.67,537.872h33.652L331.476,285.1H247.67Z" transform="translate(-155.104 14.696)" fill="#37474f" />
			<rect id="Rectangle_30" data-name="Rectangle 30" width="67.685" height="252.772" transform="translate(342.251 299.796)" fill="#455a64" />
			<rect id="Rectangle_31" data-name="Rectangle 31" width="67.685" height="252.772" transform="translate(24.881 299.796)" fill="#455a64" />
			<rect id="Rectangle_32" data-name="Rectangle 32" width="249.685" height="129.711" transform="translate(92.566 422.857)" fill="#455a64" />
			<rect id="Rectangle_33" data-name="Rectangle 33" width="249.685" height="56.595" transform="translate(92.566 366.776)" fill="#455a64" />
			<path id="Path_36" data-name="Path 36" d="M186.081,285.471l-25.534-.457-25.553-.324h-.724v.781l-.286,29.574-.114,29.593c0,19.723-.133,39.445,0,59.072s.1,39.445.343,59.167.438,39.445.858,59.167q.629-29.593.857-59.167c.229-19.723.267-39.445.324-59.167s0-39.426,0-59.072l-.114-29.593-.286-29.574-.762.781,25.553-.324Z" transform="translate(207.258 14.325)" fill="#263238" />
			<path id="Path_37" data-name="Path 37" d="M292.277,285.1c-.534,19.8-.781,39.578-.991,59.377L291,403.854l.286,59.4.324,29.689.629,29.688.629-29.688.343-29.689.3-59.4-.3-59.377C293.039,324.678,292.791,304.9,292.277,285.1Z" transform="translate(-199.71 14.696)" fill="#263238" />
			<path id="Path_38" data-name="Path 38" d="M160.62,350.3c21.895.514,43.828.762,65.684.972l65.7.3,52.593-.3,32.852-.362,32.852-.629-32.852-.629-32.852-.362L292.008,349l-65.7.3C204.41,349.514,182.515,349.762,160.62,350.3Z" transform="translate(-68.054 72.561)" fill="#263238" />
			<path id="Path_39" data-name="Path 39" d="M160.62,320.857c21.895.534,43.828.781,65.684.972l65.7.3,52.593-.286,32.852-.362,32.852-.629-32.852-.629-32.852-.343-52.593-.3-65.7.3Q193.462,320.171,160.62,320.857Z" transform="translate(-68.054 45.92)" fill="#263238" />
			<path id="Path_40" data-name="Path 40" d="M69.83,417.75l1.677,20.485,3.887,47.315H93.23l3.887-47.315,1.658-20.485Z" transform="translate(416.481 134.818)" fill="#c7c7c7" />
			<path id="Path_41" data-name="Path 41" d="M98.775,417.75H69.83l1.677,20.485H97.118Z" transform="translate(416.481 134.818)" fill="#a6a6a6" />
			<path id="Path_42" data-name="Path 42" d="M135.27,417.75l1.658,20.485,3.906,47.315H158.67l3.887-47.315,1.658-20.485Z" transform="translate(226.342 134.818)" fill="#c7c7c7" />
			<path id="Path_43" data-name="Path 43" d="M164.215,417.75H135.27l1.658,20.485h25.63Z" transform="translate(226.342 134.818)" fill="#a6a6a6" />
			<path id="Path_44" data-name="Path 44" d="M236.93,417.75l1.677,20.485,3.887,47.315H260.33l3.887-47.315,1.677-20.485Z" transform="translate(-69.056 134.818)" fill="#c7c7c7" />
			<path id="Path_45" data-name="Path 45" d="M265.894,417.75H236.93l1.677,20.485h25.611Z" transform="translate(-69.056 134.818)" fill="#a6a6a6" />
			<path id="Path_46" data-name="Path 46" d="M302.39,417.75l1.658,20.485,3.906,47.315H325.79l3.887-47.315,1.658-20.485Z" transform="translate(-259.235 134.818)" fill="#c7c7c7" />
			<path id="Path_47" data-name="Path 47" d="M302.39,417.75l1.658,20.485h25.63l1.658-20.485Z" transform="translate(-259.235 134.818)" fill="#a6a6a6" />
			<path id="Path_48" data-name="Path 48" d="M269.9,468.424c5.107-.534,134.646-60.444,138.038-65.7.419-.61-12.081-28.583-12.081-28.583-.457-58.139.9-111.437.9-111.437l-91.028,40.8,1.906,94.782s-14.711,16.769-26.678,31.022h0c-7.355,8.747-13.682,16.559-14.882,18.922C262.943,454.494,264.868,469.072,269.9,468.424Z" transform="translate(-263.749 -5.588)" fill="#dd6a57" />
			<path id="Path_49" data-name="Path 49" d="M268.84,432.491c5.221-.534,137.6-61.683,141.011-67.076.419-.61-5.926-12.234-12.329-29.136-.838-2.21-.133-17.245-1.353-32.7l-90.7,36.968,1.906,20.37s-15.054,17.15-27.268,31.651h0c-7.527,8.975-14.006,16.94-15.244,19.341C261.675,418.256,263.638,433.062,268.84,432.491Z" transform="translate(-263.32 31.431)" fill="#0dbdb8" />
			<path id="Path_50" data-name="Path 50" d="M272.48,354.021a22.865,22.865,0,0,1-1.906-5.317,23.934,23.934,0,0,1-.1-11.262,22.371,22.371,0,0,1,5.355-9.985,27.133,27.133,0,0,1,9.394-6.307c.191,0,.324.229.114.3-6.612,2.744-11.433,9.852-12.824,16.75a22.866,22.866,0,0,0,.381,10.29,24.016,24.016,0,0,0,1.906,4.745,24.892,24.892,0,0,0,1.277,2.172c.5.705.991,1.182.857,2.1a.838.838,0,0,1-.934.667C274.309,358.023,273.128,355.259,272.48,354.021Z" transform="translate(-151.349 47.341)" opacity="0.2" />
			<path id="Path_51" data-name="Path 51" d="M313.142,357.889a17.15,17.15,0,0,1,9.68-4.059,44.991,44.991,0,0,1,11.2-.1,44.2,44.2,0,0,1,10.728,2.534,47,47,0,0,1,4.916,2.172,17.9,17.9,0,0,1,4.592,2.935.324.324,0,0,1-.3.534q-2.266-.841-4.44-1.906c-1.658-.686-3.335-1.315-5.05-1.906a57.178,57.178,0,0,0-10.252-2.172,33.823,33.823,0,0,0-20.2,3.125.743.743,0,0,1-.876-1.162Z" transform="translate(-302.381 76.573)" opacity="0.2" />
			<path id="Path_52" data-name="Path 52" d="M272.157,345.591c21.666-8.575,77.194-30.679,83.273-33.271.21,0,.3.229.114.324-20.961,10.195-76.756,31.88-83.082,33.843a.476.476,0,0,1-.3-.9Z" transform="translate(-225.419 39.345)" opacity="0.2" />
			<path id="Path_53" data-name="Path 53" d="M275.915,314.267a1.162,1.162,0,0,1-.286-.324l-.171-.457-.324-.858a17.183,17.183,0,0,1-.61-1.906c-.362-1.22-.667-2.439-.934-3.678,0-.171.248-.248.3,0,.381,1.181.819,2.363,1.277,3.525l.667,1.715.343.9a1.905,1.905,0,0,1,.229.9.3.3,0,0,1-.5.191Z" transform="translate(-149.429 34.425)" opacity="0.2" />
			<path id="Path_54" data-name="Path 54" d="M280.065,316.04a.8.8,0,0,1-.267-.343,3.04,3.04,0,0,1-.191-.438l-.324-.858a17.187,17.187,0,0,1-.61-1.906c-.362-1.22-.667-2.439-.934-3.678,0-.171.248-.267.3-.1.381,1.2.838,2.363,1.3,3.544.21.572.419,1.143.648,1.715l.343.9a1.906,1.906,0,0,1,.229.9.324.324,0,0,1-.5.267Z" transform="translate(-161.488 36.006)" opacity="0.2" />
			<path id="Path_55" data-name="Path 55" d="M284.174,317.791a.992.992,0,0,1-.286-.343,4.656,4.656,0,0,1-.19-.457l-.324-.858a17.181,17.181,0,0,1-.61-1.906c-.362-1.2-.667-2.439-.934-3.659,0-.172.248-.267.3,0,.381,1.181.839,2.363,1.3,3.525l.648,1.715c.114.3.229.61.362.915a2.059,2.059,0,0,1,.21.9.3.3,0,0,1-.476.171Z" transform="translate(-173.371 37.609)" opacity="0.2" />
			<path id="Path_56" data-name="Path 56" d="M288.294,319.507a.933.933,0,0,1-.286-.324,4.647,4.647,0,0,1-.191-.457c-.1-.286-.21-.572-.324-.858-.21-.61-.438-1.22-.61-1.906-.362-1.22-.648-2.439-.934-3.678,0-.171.248-.248.3,0,.4,1.181.838,2.363,1.3,3.525l.648,1.715c.114.3.229.61.362.9a2.191,2.191,0,0,1,.21.9.286.286,0,0,1-.476.191Z" transform="translate(-185.342 39.17)" opacity="0.2" />
			<path id="Path_57" data-name="Path 57" d="M292.414,321.3a.934.934,0,0,1-.286-.324,1.173,1.173,0,0,0-.191-.457c-.076-.152-.21-.572-.324-.858-.21-.61-.419-1.22-.61-1.906-.362-1.22-.648-2.439-.934-3.678,0-.172.248-.267.3,0,.4,1.2.838,2.382,1.3,3.544.229.572.438,1.143.648,1.715s.229.591.362.9a2.057,2.057,0,0,1,.21.9.286.286,0,0,1-.476.172Z" transform="translate(-197.313 40.788)" opacity="0.2" />
			<path id="Path_58" data-name="Path 58" d="M296.533,323.079a.99.99,0,0,1-.286-.343,4.17,4.17,0,0,1-.171-.438c-.114-.286-.229-.591-.324-.877q-.343-.915-.629-1.906c-.362-1.22-.648-2.458-.934-3.678,0-.171.248-.267.3-.1.4,1.2.838,2.363,1.3,3.525.229.572.438,1.143.648,1.715l.362.915a2.057,2.057,0,0,1,.21.9.3.3,0,0,1-.476.286Z" transform="translate(-209.283 42.363)" opacity="0.2" />
			<path id="Path_59" data-name="Path 59" d="M300.654,324.826a1.2,1.2,0,0,1-.286-.343,4.458,4.458,0,0,1-.172-.457c-.114-.286-.229-.572-.324-.858-.229-.61-.438-1.22-.629-1.906-.343-1.2-.648-2.439-.934-3.678,0-.171.248-.248.3,0,.4,1.181.838,2.363,1.3,3.525.229.572.438,1.143.648,1.715l.362.915a2.038,2.038,0,0,1,.21.877.3.3,0,0,1-.476.21Z" transform="translate(-221.255 43.97)" opacity="0.2" />
			<path id="Path_60" data-name="Path 60" d="M304.763,326.576a.935.935,0,0,1-.286-.324,4.479,4.479,0,0,1-.172-.457c-.114-.286-.229-.572-.324-.858-.229-.61-.438-1.22-.629-1.906-.343-1.22-.648-2.439-.934-3.678,0-.172.248-.248.3-.1.4,1.2.838,2.382,1.3,3.544.229.572.438,1.143.648,1.715s.248.591.362.9a2.077,2.077,0,0,1,.229.9.3.3,0,0,1-.5.267Z" transform="translate(-233.215 45.555)" opacity="0.2" />
			<path id="Path_61" data-name="Path 61" d="M308.884,328.34A1.238,1.238,0,0,1,308.6,328l-.172-.438c-.114-.286-.229-.572-.324-.858-.229-.629-.438-1.239-.629-1.906-.343-1.22-.648-2.439-.934-3.678,0-.172.248-.267.3-.1.4,1.2.838,2.363,1.3,3.544.229.553.438,1.124.648,1.7s.248.61.362.915a1.9,1.9,0,0,1,.229.9.324.324,0,0,1-.5.267Z" transform="translate(-245.187 47.145)" opacity="0.2" />
			<path id="Path_62" data-name="Path 62" d="M312.985,330.068a1.6,1.6,0,0,1-.286-.343l-.172-.457c-.114-.286-.229-.572-.324-.857-.229-.61-.438-1.22-.629-1.906-.343-1.2-.648-2.439-.915-3.678a.152.152,0,0,1,.286,0c.4,1.181.838,2.363,1.3,3.525l.667,1.715.343.915a1.9,1.9,0,0,1,.229.877.324.324,0,0,1-.5.21Z" transform="translate(-257.138 48.77)" opacity="0.2" />
			<path id="Path_63" data-name="Path 63" d="M317.065,331.809a1.163,1.163,0,0,1-.286-.324l-.171-.457c-.114-.286-.229-.572-.324-.857-.229-.61-.438-1.22-.629-1.906-.343-1.22-.648-2.439-.915-3.678a.152.152,0,0,1,.286,0c.4,1.181.838,2.363,1.3,3.525l.667,1.715.343.9a1.908,1.908,0,0,1,.229.9.3.3,0,0,1-.5.191Z" transform="translate(-268.993 50.364)" opacity="0.2" />
			<path id="Path_64" data-name="Path 64" d="M292.873,387.616l-95.506,30.641s1.448-123.232,3.944-165.612c1.906-32.966,41.541-54.194,76.356-33.138,46.534,28.145,67.781,43.828,90,59.4l4.211-3.811,58.882-1.162s4.9,69.648-71.477,92.8c-27.592,8.365-64.789-20.961-64.789-19.951C294.321,350.306,292.873,387.616,292.873,387.616Z" transform="translate(-158.594 -52.32)" fill="#263238" />
			<path id="Path_65" data-name="Path 65" d="M275.388,328.522c0-6.422-.8-12.9-1.181-19.322s-.724-12.405-1.124-18.617c-.8-12.539-1.41-25.115-2.363-37.635-.534-7.032-1.3-14.044-2.02-21.056a.134.134,0,1,1,.267,0q1.6,9.661,2.915,19.379c0-1.2,0-2.4.1-3.6.172-3.259.4-6.5.61-9.756a.114.114,0,0,1,.21,0c-.114,3.2-.229,6.4-.4,9.528,0,1.6-.248,3.22-.362,4.821a441.084,441.084,0,0,1,4.173,54.67c0,7.2-.514,14.387-.457,21.59A.181.181,0,1,1,275.388,328.522Z" transform="translate(-139.909 -33.623)" fill="#37474f" />
			<path id="Path_66" data-name="Path 66" d="M274.219,355.56c.991-8.727,1.258-33.8,1.486-42.532.438-17.645.114-35.291-.667-52.917-.457-9.966-1.162-19.894-1.906-29.841,0,0,.1-.1.1,0a522.126,522.126,0,0,1,4.249,52.574c.629,17.607-1.181,66.695-2.9,72.773C274.505,355.732,274.181,355.713,274.219,355.56Z" transform="translate(-149.754 -34.994)" fill="#37474f" />
			<path id="Path_67" data-name="Path 67" d="M209.461,234.415c14.444,9.871,29,19.551,43.466,29.384q10.976,7.451,21.895,14.959c3.43,2.363,6.822,4.783,10.29,7.07a20.562,20.562,0,0,0,10.633,3.811,61.7,61.7,0,0,0,13.072-1.658c4.954-.877,9.928-1.639,14.863-2.611.21,0,.267.3,0,.362-4.383.876-8.746,1.906-13.11,2.9a117.345,117.345,0,0,1-12,2.4,19.227,19.227,0,0,1-10.538-1.524,71.513,71.513,0,0,1-10.061-6.441q-21.952-15.359-43.828-30.908c-8.27-5.888-16.521-11.833-24.772-17.664C209.366,234.453,209.423,234.377,209.461,234.415Z" transform="translate(-74.496 -31.211)" fill="#37474f" />
			<path id="Path_68" data-name="Path 68" d="M360.494,296.8c-5.717,1.677-11.433,3.925-17.15,5.907l-17.15,5.926c-11.433,3.925-50.859,16.235-54.061,16.693a.208.208,0,0,1-.114-.381c2.573-1.372,28.088-10.061,33.843-11.948,11.433-3.811,23.133-7.127,34.719-10.633,3.316-1.01,6.631-1.906,9.966-2.915s6.669-1.906,9.928-2.954a.153.153,0,1,1,.019.3Z" transform="translate(-230.484 25.019)" fill="#37474f" />
			<path id="Path_69" data-name="Path 69" d="M188.617,564.984c5.24,0,142.917-48.287,146.823-53.356.476-.572-3.811-13.053-9.528-30.165-3.373-10.061-8.4-22.276-13.911-34.7-14.673-33.061-32.871-67.723-32.871-67.723L189.7,414.312l32.833,61.835,11.243,21.19s-16.6,15.606-30.146,28.926h0c-8.346,8.194-15.549,15.511-17,17.8C182.843,550.159,183.339,565.06,188.617,564.984Z" transform="translate(-38.084 99.764)" fill="#dd6a57" />
			<path id="Path_70" data-name="Path 70" d="M188.62,532.8c5.24,0,142.917-48.287,146.823-53.356.476-.572-3.811-13.053-9.528-30.165-3.373-10.061-8.4-22.276-13.911-34.7l-86.874,34.3,8.632,16.273s-16.6,15.607-30.146,28.926h0c-8.346,8.194-15.549,15.511-17,17.8C182.847,517.975,183.342,532.877,188.62,532.8Z" transform="translate(-38.087 131.947)" fill="#0dbdb8" />
			<path id="Path_71" data-name="Path 71" d="M191.124,464.717a22.673,22.673,0,0,1-1.467-5.488,24.01,24.01,0,0,1,.915-11.148,22.391,22.391,0,0,1,6.288-9.528,27.077,27.077,0,0,1,9.966-5.374c.191,0,.286.248,0,.3-6.841,2.115-12.386,8.708-14.368,15.454a22.867,22.867,0,0,0-.61,10.29,25.079,25.079,0,0,0,1.391,4.878,18.125,18.125,0,0,0,1.086,2.306c.4.743.857,1.277.629,2.153a.819.819,0,0,1-.991.572C192.477,468.871,191.638,465.994,191.124,464.717Z" transform="translate(80.45 148.791)" opacity="0.2" />
			<path id="Path_72" data-name="Path 72" d="M235.935,463a17.3,17.3,0,0,1,10.023-3.125,45.735,45.735,0,0,1,11.167.972,43.719,43.719,0,0,1,10.423,3.544,51.028,51.028,0,0,1,4.688,2.63,18.657,18.657,0,0,1,4.326,3.354.324.324,0,0,1-.362.514c-1.467-.591-2.82-1.62-4.23-2.363a51.6,51.6,0,0,0-4.859-2.325,57.3,57.3,0,0,0-9.985-3.144,33.766,33.766,0,0,0-20.408,1.2.743.743,0,0,1-.781-1.258Z" transform="translate(-77.341 172.937)" opacity="0.2" />
			<path id="Path_73" data-name="Path 73" d="M194.665,454.917C216.331,446.4,271.916,424.428,278,421.8c.191-.1.286.229.1.324-20.961,10.157-76.813,31.747-83.12,33.709a.482.482,0,1,1-.3-.915Z" transform="translate(-0.19 138.468)" opacity="0.2" />
			<path id="Path_74" data-name="Path 74" d="M198.355,423.746a1.239,1.239,0,0,1-.286-.343l-.172-.457c-.114-.286-.229-.572-.324-.858a17.178,17.178,0,0,1-.61-1.906c-.362-1.2-.667-2.439-.934-3.678,0-.172.248-.248.3,0,.381,1.181.819,2.363,1.277,3.525l.667,1.715.343.915a1.905,1.905,0,0,1,.229.9.324.324,0,0,1-.5.19Z" transform="translate(75.925 133.547)" opacity="0.2" />
			<path id="Path_75" data-name="Path 75" d="M202.485,425.516a.991.991,0,0,1-.286-.343,3.24,3.24,0,0,1-.172-.457c-.114-.286-.229-.572-.324-.858-.229-.61-.438-1.22-.629-1.906-.343-1.2-.648-2.439-.915-3.678,0-.172.248-.248.3,0,.381,1.181.819,2.363,1.277,3.525.229.572.438,1.143.648,1.715l.362.915a2.058,2.058,0,0,1,.21.9.3.3,0,0,1-.476.191Z" transform="translate(63.944 135.15)" opacity="0.2" />
			<path id="Path_76" data-name="Path 76" d="M206.6,427.218a.99.99,0,0,1-.286-.343,4.386,4.386,0,0,1-.191-.438l-.3-.877c-.229-.61-.438-1.22-.629-1.906-.343-1.2-.648-2.439-.915-3.678a.152.152,0,0,1,.286,0c.4,1.181.838,2.363,1.3,3.525.229.572.438,1.143.648,1.715s.229.61.362.915a2.058,2.058,0,0,1,.21.9.3.3,0,0,1-.476.19Z" transform="translate(51.973 136.745)" opacity="0.2" />
			<path id="Path_77" data-name="Path 77" d="M210.725,429.012a.935.935,0,0,1-.267-.343,4.361,4.361,0,0,1-.191-.438c-.114-.286-.21-.572-.324-.876-.21-.61-.419-1.22-.61-1.906-.362-1.22-.648-2.458-.934-3.678,0-.191.248-.267.3-.1.4,1.181.838,2.363,1.3,3.525.229.572.438,1.143.648,1.715s.229.61.362.915a2.058,2.058,0,0,1,.21.9.324.324,0,0,1-.5.286Z" transform="translate(39.984 138.286)" opacity="0.2" />
			<path id="Path_78" data-name="Path 78" d="M214.845,430.75a1.029,1.029,0,0,1-.286-.343l-.172-.438-.324-.858c-.229-.629-.438-1.239-.61-1.906-.362-1.22-.648-2.458-.934-3.678,0-.171.248-.267.3-.1.4,1.2.838,2.363,1.3,3.544.21.553.419,1.124.648,1.7l.343.915a1.906,1.906,0,0,1,.229.9.324.324,0,0,1-.5.267Z" transform="translate(28.013 139.882)" opacity="0.2" />
			<path id="Path_79" data-name="Path 79" d="M218.965,432.52a1.03,1.03,0,0,1-.286-.343l-.171-.438c-.114-.286-.229-.572-.324-.857a18.6,18.6,0,0,1-.61-1.906c-.362-1.22-.667-2.458-.934-3.678,0-.171.248-.267.3-.1.381,1.2.838,2.363,1.277,3.544.229.553.438,1.143.667,1.715l.343.9a1.906,1.906,0,0,1,.229.9.324.324,0,0,1-.5.267Z" transform="translate(16.042 141.485)" opacity="0.2" />
			<path id="Path_80" data-name="Path 80" d="M223.071,434.25a.838.838,0,0,1-.286-.343,2.994,2.994,0,0,1-.171-.438c-.114-.286-.229-.571-.324-.857-.229-.61-.438-1.239-.629-1.906-.343-1.22-.648-2.458-.915-3.678,0-.172.248-.267.3-.1.381,1.2.819,2.363,1.277,3.544.229.572.438,1.143.648,1.715.133.286.248.591.362.9a1.905,1.905,0,0,1,.21.9.286.286,0,0,1-.476.267Z" transform="translate(4.122 143.052)" opacity="0.2" />
			<path id="Path_81" data-name="Path 81" d="M227.212,436a.934.934,0,0,1-.286-.324,1.174,1.174,0,0,0-.191-.457l-.3-.857c-.229-.61-.438-1.22-.629-1.906-.343-1.22-.648-2.439-.915-3.678,0-.171.229-.267.286-.1.4,1.2.838,2.363,1.3,3.544.229.572.438,1.143.648,1.715.114.286.248.591.362.9a2.059,2.059,0,0,1,.21.9.286.286,0,0,1-.476.267Z" transform="translate(-7.907 144.637)" opacity="0.2" />
			<path id="Path_82" data-name="Path 82" d="M231.315,437.75a1.106,1.106,0,0,1-.267-.324,4.677,4.677,0,0,1-.191-.457c-.1-.286-.21-.572-.324-.858-.21-.61-.419-1.22-.61-1.906-.362-1.22-.648-2.439-.915-3.678,0-.172.229-.267.286-.1.4,1.2.838,2.363,1.3,3.544.229.572.438,1.143.648,1.715s.229.591.362.9a2.058,2.058,0,0,1,.21.9.3.3,0,0,1-.5.267Z" transform="translate(-19.88 146.221)" opacity="0.2" />
			<path id="Path_83" data-name="Path 83" d="M235.454,439.52a1.162,1.162,0,0,1-.286-.324l-.171-.457-.324-.857a17.209,17.209,0,0,1-.61-1.906c-.362-1.22-.648-2.439-.934-3.678,0-.171.248-.267.3-.1.4,1.2.838,2.363,1.3,3.544l.648,1.715.343.9a1.906,1.906,0,0,1,.229.9.3.3,0,0,1-.5.267Z" transform="translate(-31.87 147.824)" opacity="0.2" />
			<path id="Path_84" data-name="Path 84" d="M239.574,441.25a1.164,1.164,0,0,1-.286-.324l-.171-.457c-.114-.286-.229-.572-.324-.858a17.2,17.2,0,0,1-.61-1.906c-.362-1.22-.667-2.439-.934-3.678,0-.171.248-.267.3-.1.4,1.2.838,2.382,1.277,3.544l.667,1.715.343.9a1.9,1.9,0,0,1,.229.9.3.3,0,0,1-.5.267Z" transform="translate(-43.841 149.391)" opacity="0.2" />
			<path id="Path_85" data-name="Path 85" d="M232.553,600.737,333.185,560.72S270.949,422,272.207,419.29c4.516-9.356,93.029-28.736,118.621-67.952,27.1-41.522-14.616-107.778-14.616-107.778l-86.417,2s7.489,50.592,4.307,54.613c-2.1,2.668-116.239,47.925-130.168,77.156C142.706,421.939,232.553,600.737,232.553,600.737Z" transform="translate(-57.857 -22.921)" fill="#263238" />
			<path id="Path_86" data-name="Path 86" d="M208.932,367.353a42.989,42.989,0,0,1,4.287-13.339,49.032,49.032,0,0,1,9.3-12.1,172.176,172.176,0,0,1,25.5-19.78A319.646,319.646,0,0,1,276.6,305.212c9.966-5.221,20.142-10.023,30.489-14.616s20.637-8.708,30.984-13l4.9-2.02c-6.041-1.029-12.062-2.172-18.084-3.3a.286.286,0,0,1,0-.553,91.065,91.065,0,0,1,34.3,5.85c.172,0,.133.343,0,.324-5.164-.572-10.271-1.353-15.378-2.21-9.318,4.135-18.579,8.384-27.859,12.634-10.023,4.592-19.989,9.318-29.746,14.482-19.322,10.214-38.3,21.438-55.261,35.367-7.622,6.326-14.6,13.644-17.588,23.324-2.782,8.994-2.134,18.655-.419,27.783a278.891,278.891,0,0,0,8.251,30.165q5.259,16.94,11.014,33.709c3.811,11.167,25.554,68.6,27,70.906.21.343-.324.686-.572.381-1.715-2.191-34.986-85.026-38.511-96.478-3.259-10.557-6.612-21.152-9.07-31.937C208.818,386.732,207.465,376.9,208.932,367.353Z" transform="translate(-107.943 2.568)" fill="#37474f" />
			<path id="Path_87" data-name="Path 87" d="M168.79,406.326a53.614,53.614,0,0,1,8.8-3.582l9.928-3.811,19.627-7.622c12.558-4.84,25.191-9.528,37.673-14.577,21.266-8.632,43.828-20.961,52.212-43.694a42.951,42.951,0,0,0,2.687-16.464,125.5,125.5,0,0,0-2.877-20.275,261.981,261.981,0,0,0-11.224-39.731c-1.162-3.163-2.458-6.288-3.811-9.413a.171.171,0,0,1,.3-.133,276.3,276.3,0,0,1,13.205,38.435c1.7,6.536,3.144,13.167,4.307,19.837a61.588,61.588,0,0,1,1.086,18.5c-2.8,22.524-21.666,38.378-40.817,47.906-11.776,5.85-24.277,10.233-36.568,14.921l-38.7,14.768-9.68,3.716c-2.611.991-7.508,1.906-7.336,5.545a11.225,11.225,0,0,0,1.315,4.1c.743,1.677,1.505,3.354,2.248,5.012l4.4,9.756q8.556,19.056,17.017,38c11.433,25.534,13.053,29.174,24.3,54.766,1.391,3.182,2.8,6.365,4.192,9.528,0,.171-.171.286-.248.133-11.548-25.458-13.834-28.793-25.344-54.27q-8.689-19.246-17.15-38.53l-8.423-19.055a40.462,40.462,0,0,1-3.43-8.442A4.973,4.973,0,0,1,168.79,406.326Z" transform="translate(30.316 -19.846)" fill="#37474f" />
			<path id="Path_88" data-name="Path 88" d="M204.784,434.5c5.412-2.592,10.766-5.3,16.293-7.622s11.109-4.592,16.693-6.784q16.674-6.536,33.538-12.462c6.346-2.229,12.767-4.287,19.056-6.612a.162.162,0,0,1,0,.324c-11.433,4.154-22.543,8.975-33.766,13.529s-21.933,9.013-32.966,13.339c-6.212,2.439-12.52,4.554-18.77,6.841C204.708,435.148,204.517,434.634,204.784,434.5Z" transform="translate(-32.166 119.668)" fill="#37474f" />
			<path id="Path_89" data-name="Path 89" d="M212,291.764a125.062,125.062,0,0,1-15.244-4.612c-4.135-1.505-8.365-3.03-11.433-6.422-5.831-6.612-6.746-16.311-6.536-24.772a.172.172,0,0,0-.343,0c-.648,9.089-2.363,19.322,4.173,26.887a23.991,23.991,0,0,0,12.367,6.86,83.849,83.849,0,0,0,16.845,2.42.2.2,0,0,0,.171-.362Z" transform="translate(97.495 -11.842)" fill="#37474f" />
			<path id="Path_90" data-name="Path 90" d="M184.559,285.518l15.587.953A47.867,47.867,0,0,0,206.188,258c-.172-2.249,4.669,10.881,1.905,28.964,16.464,1.01,38.854,2.363,58.405,3.373.667-7.622,1.62-14.673,1.62-14.673a86.913,86.913,0,0,0,2.63,14.9c2.687.152,5.3.267,7.813.381a296.237,296.237,0,0,1,2.668-32.394,104.291,104.291,0,0,0,8.461,32.985c12.424.5,20.6.61,20.1,0-17.988-22.257-3.811-34.148-8.4-53.356-5.564-22.981-25.039-27.326-23.819-44.38.953-13.891,3.621-39.045-13.739-45.085a33.862,33.862,0,0,0-36.453-8.4c-28.145,9.528-18.751,52.879-20.961,61.511-3.144,12.367-9.242,16.54-14.2,30.489s1.143,23.991,1.524,33.766S181.453,285.365,184.559,285.518Z" transform="translate(-12.246 -118.367)" fill="#263238" />
			<path id="Path_91" data-name="Path 91" d="M218.285,263.446a48.858,48.858,0,0,1-5.583-12.405c-1.258-4.288-.476-8.594.553-13.053a138.2,138.2,0,0,0,2.782-13.644,35.977,35.977,0,0,0-.839-14.368,31.708,31.708,0,0,0-7.012-12.6,84.358,84.358,0,0,0-10.328-9.528,51.28,51.28,0,0,1-9.528-9.528,25.058,25.058,0,0,1-4.516-12.615,23.514,23.514,0,0,0,3.106,13.51,47.392,47.392,0,0,0,9.147,10.671,105.8,105.8,0,0,1,9.528,9.528,30.278,30.278,0,0,1,6.06,11.433,35.423,35.423,0,0,1,.819,13.015c-.419,4.421-1.41,8.861-2.172,13.453a45.36,45.36,0,0,0-.724,7.07,20.542,20.542,0,0,0,1.315,7.127,39.618,39.618,0,0,0,7.393,11.929Z" transform="translate(79.891 -93.418)" fill="#263238" />
			<path id="Path_92" data-name="Path 92" d="M267.293,147.32a69.916,69.916,0,0,0-4.4,16.54c-.915,5.717-1.563,11.262-2.134,16.883l-.915,8.384a41.925,41.925,0,0,1-1.582,8,45.277,45.277,0,0,1-8.1,14.082,62.881,62.881,0,0,0-4.821,7.241,40.014,40.014,0,0,0-3.392,8.194,58.571,58.571,0,0,0-1.544,8.632,35.674,35.674,0,0,0,.152,8.785c.4,2.915,1.105,5.717,1.7,8.4a42.8,42.8,0,0,1,.991,8.213,17.341,17.341,0,0,1-7.355,14.082A17.588,17.588,0,0,0,245,260.72a42.366,42.366,0,0,0-.4-8.651c-.381-2.858-.991-5.6-1.2-8.308a45.484,45.484,0,0,1,1.906-16.14,39.768,39.768,0,0,1,3.2-7.394,59.754,59.754,0,0,1,4.63-6.822,85.262,85.262,0,0,0,4.9-7.127,34.948,34.948,0,0,0,3.6-8.137,44.748,44.748,0,0,0,1.429-8.67c.267-2.839.419-5.717.572-8.5.343-5.717.591-11.281,1.067-16.883a82.34,82.34,0,0,1,2.592-16.769Z" transform="translate(-68.473 -110.071)" fill="#263238" />
			<path id="Path_93" data-name="Path 93" d="M198.837,156.371c-4.192-3.811-4.707-17.76,1.563-24.086,8.613-8.708,27.154,1.029,23.438,14.311S202.076,159.363,198.837,156.371Z" transform="translate(51.109 -126.687)" fill="#263238" />
			<path id="Path_94" data-name="Path 94" d="M223.373,133.2a24.429,24.429,0,0,0-11.243-3.811,9.147,9.147,0,0,0-9.051,5.355,21.613,21.613,0,0,0-1.905,5.545,25.228,25.228,0,0,0-.629,5.85,20.161,20.161,0,0,0,3.449,11.319,17.55,17.55,0,0,1-5.012-11.224,24.255,24.255,0,0,1,.343-6.326,22.085,22.085,0,0,1,1.906-6.06,11.433,11.433,0,0,1,4.478-4.821,10.785,10.785,0,0,1,6.441-1.162,20.542,20.542,0,0,1,11.224,5.336Z" transform="translate(45.915 -127.772)" fill="#263238" />
			<path id="Path_95" data-name="Path 95" d="M343.918,205.255c-8.994,36.606-32.394,83.006-50.631,89.142-12.367,4.173-56.233-27.44-72.659-37.654s20.428-50.5,29.841-43.98c14.6,10.1,34.3,24.925,37.978,23.743,4.611-1.467,11.433-12.31,38.835-42.951C338.85,180.579,347.749,189.668,343.918,205.255Z" transform="translate(-108.988 -73.815)" fill="#dd6a57" />
			<path id="Path_96" data-name="Path 96" d="M312.249,195.559c-7.756-2.725-16.426-6.5-25.02-6.326S271.47,200.666,271.47,204s3.259,23.553,11.853,23.553,3.411-15.587,3.811-17.379.648-4.078,2.287-3.906,30.032,13.644,30.032,13.644Z" transform="translate(-188.431 -72.122)" fill="#dd6a57" />
			<path id="Path_97" data-name="Path 97" d="M323.406,197.428c-.5,0-23.553-9.109-32.166-8.937s-15.74,11.433-15.74,14.768,3.239,23.553,11.853,23.553,3.411-15.587,3.811-17.379.648-4.059,2.268-3.811,30.051,13.663,30.051,13.663Z" transform="translate(-200.141 -72.791)" fill="#dd6a57" />
			<path id="Path_98" data-name="Path 98" d="M283.04,217.822a10.177,10.177,0,0,0,1.429-5.088,17.688,17.688,0,0,0-.3-5.488,29.354,29.354,0,0,1-1.048-4.745,9.527,9.527,0,0,1,1.2-4.554c.667-1.2,1.906-.781,3.011-.4a39.676,39.676,0,0,1,4.688,2.115c1.639.819,3.278,1.658,4.9,2.515a40.935,40.935,0,0,1,4.993,2.744c.114,0,0,.286-.1.229a44.833,44.833,0,0,1-4.364-1.906c-1.639-.762-3.278-1.524-4.935-2.249s-3.049-1.467-4.592-2.115a5.144,5.144,0,0,0-2.268-.686c-.667.152-.991,1.772-1.124,2.287a8.231,8.231,0,0,0,.286,4.65,23.512,23.512,0,0,1,.9,4.726,12.255,12.255,0,0,1-.362,4.478,17.516,17.516,0,0,1-2.039,3.7C283.192,218.2,282.906,218.031,283.04,217.822Z" transform="translate(-192.912 -64.944)" fill="#263238" />
			<path id="Path_99" data-name="Path 99" d="M351.417,229.95s-23.858-21.742-28.831-26.049c-9.947-8.67-51.907-25.8-57.757-26.43s-7.965,11.433,20.523,23.819c15,6.574,17.664,15.244,17.379,19.932s-4.821,13.644-12.843,13.339-13.205-11.91-20.561-13.205-2.5,12.2,2.687,19.989a49.124,49.124,0,0,0,21.571,16.826C300.5,260.763,321.957,270,321.957,270Z" transform="translate(-200.845 -82.789)" fill="#dd6a57" />
			<path id="Path_100" data-name="Path 100" d="M287.091,217.8c3.011,2.325,6.422,5.355,10.4,5.507s6.765-2.515,8.67-5.85a15.244,15.244,0,0,0,2.1-11.09,18.54,18.54,0,0,0-5.488-8.975,45.028,45.028,0,0,0-10.843-7.222c-.171,0,0-.343.152-.267,3.7,1.658,15.149,6.345,17.455,16.464a15.606,15.606,0,0,1-2.23,11.3c-1.791,3.182-4.364,6.269-8.251,6.574-4.726.381-8.8-3.468-12.215-6.326C286.691,217.783,286.919,217.669,287.091,217.8Z" transform="translate(-207.978 -71.518)" fill="#263238" />
			<path id="Path_101" data-name="Path 101" d="M246.491,269.982,215.3,224.916a350.624,350.624,0,0,1,29.879-29.8c17.836-15.8,28.736-10.595,21.742,20.771a204.085,204.085,0,0,1-20.428,54.1Z" transform="translate(-30.997 -74.63)" fill="#0dbdb8" />
			<path id="Path_102" data-name="Path 102" d="M224.394,202.21l2.782,3.735,4.421,1.486-2.706,3.792-.038,4.669-4.459-1.391-4.44,1.391-.038-4.669-2.706-3.792,4.421-1.486Z" transform="translate(2.819 -60.365)" fill="#fff" />
			<path id="Path_103" data-name="Path 103" d="M241.21,196l2.115.705-2.687,3.792-.057,4.65-4.459-1.391-4,1.258Z" transform="translate(-37.321 -65.989)" fill="#fff" />
			<path id="Path_104" data-name="Path 104" d="M222.985,186.622v1.658l-4.345-1.353A9.2,9.2,0,0,1,222.985,186.622Z" transform="translate(8.706 -74.599)" fill="#fff" />
			<path id="Path_105" data-name="Path 105" d="M241.549,220.881l-2.706,3.792-.057,4.688-4.44-1.41h-.038l-5.3-7.7,2.553-.838,2.782-3.754,2.782,3.754Z" transform="translate(-29.618 -48.185)" fill="#fff" />
			<path id="Path_106" data-name="Path 106" d="M260.212,215.913A203.722,203.722,0,0,1,239.8,269.935L215.3,234.511c10.214-13.777,34.433-39.636,40.017-48C262.041,187.12,264.557,196.533,260.212,215.913Z" transform="translate(-24.31 -74.582)" opacity="0.1" />
			<path id="Path_107" data-name="Path 107" d="M225.8,204.255c2.706,3.087,4.954,6.574,7.374,9.871s4.63,6.288,6.841,9.528q6.86,10,13.339,20.275c0,.114-.114.267-.21.152Q246,234.42,239.1,224.607c-2.287-3.259-4.478-6.574-6.669-9.89s-4.8-6.708-6.8-10.271C225.533,204.293,225.7,204.16,225.8,204.255Z" transform="translate(-34.925 -58.542)" fill="#263238" />
			<path id="Path_108" data-name="Path 108" d="M173.718,324.44s125.767-4.65,129.806-7.031c0,0-21.628-58.291-47.029-103.167C229.284,166.2,204.017,183.563,195.518,193c-10.08,11.186-27.631,50.478-28.336,57.719-1.162,11.986,10.366,23.838,10.366,23.838Z" transform="translate(26.378 -78.629)" fill="#0dbdb8" />
			<path id="Path_109" data-name="Path 109" d="M207.774,190.79l2.782,3.735,4.421,1.486-2.706,3.811-.038,4.65-4.459-1.391-4.44,1.391-.038-4.65-2.706-3.811,4.421-1.486Z" transform="translate(51.109 -70.707)" fill="#fff" />
			<path id="Path_110" data-name="Path 110" d="M191.163,225.92l2.782,3.754,4.421,1.486-2.706,3.792-.057,4.669-4.44-1.41-4.44,1.41-.057-4.669-2.706-3.792,4.421-1.486Z" transform="translate(99.41 -38.894)" fill="#fff" />
			<path id="Path_111" data-name="Path 111" d="M223.573,227.89l2.782,3.754,4.421,1.486-2.706,3.792-.038,4.669-4.459-1.41-4.44,1.41-.057-4.669-2.706-3.792,4.421-1.486Z" transform="translate(5.241 -37.111)" fill="#fff" />
			<path id="Path_112" data-name="Path 112" d="M198.946,255.508l-2.172,3.03-9.718.514-2.515-3.544,4.4-1.467,2.8-3.811,2.782,3.811Z" transform="translate(97.724 -16.88)" fill="#fff" />
			<path id="Path_113" data-name="Path 113" d="M199.205,211.523h0l-.381.515v4.65l-4.459-1.41-4.44,1.41v-4.65l-2.725-3.811,4.44-1.505,2.763-3.811,1.353,1.906h0C196.918,207.083,198.062,209.294,199.205,211.523Z" transform="translate(92.397 -59.731)" fill="#fff" />
			<path id="Path_114" data-name="Path 114" d="M207.774,237.5l2.782,3.754,4.421,1.467-2.706,3.811-.038,4.65-4.459-1.391-4.44,1.391-.038-4.65-2.706-3.811,4.421-1.467Z" transform="translate(51.109 -28.408)" fill="#fff" />
			<path id="Path_115" data-name="Path 115" d="M181.563,250.661l-4.078-1.3-4.459,1.41v-4.669L170.32,242.3l4.421-1.467,1.906-2.458C178.361,242.905,180.115,247.021,181.563,250.661Z" transform="translate(142.205 -27.62)" fill="#fff" />
			<path id="Path_116" data-name="Path 116" d="M238.27,245.124l-2.687,3.792-.057,4.65-4.459-1.41-.877.3.953-12.5,2.725,3.659Z" transform="translate(-28.588 -26.181)" fill="#fff" />
			<path id="Path_117" data-name="Path 117" d="M224.394,202.21l2.782,3.735,4.421,1.486-2.706,3.792-.038,4.669-4.459-1.391-4.44,1.391-.038-4.669-2.706-3.792,4.421-1.486Z" transform="translate(2.819 -60.365)" fill="#fff" />
			<path id="Path_118" data-name="Path 118" d="M228.715,183.12l-2.5,3.563v4.65l-4.459-1.41-4.44,1.41v-.248a34.988,34.988,0,0,1,11.4-7.965Z" transform="translate(5.491 -77.652)" fill="#fff" />
			<path id="Path_119" data-name="Path 119" d="M208.773,213.81l2.782,3.735,4.421,1.486-2.706,3.792-.038,4.669-4.459-1.391-4.44,1.391-.057-4.669-2.706-3.792,4.421-1.486Z" transform="translate(48.243 -49.861)" fill="#fff" />
			<path id="Path_120" data-name="Path 120" d="M229.368,256.637l-2.573,3.64c-3.163.133-6.212.267-9.109.362v-.21L215,256.617l4.4-1.486,2.782-3.811,2.782,3.811Z" transform="translate(9.259 -15.893)" fill="#fff" />
			<path id="Path_121" data-name="Path 121" d="M236.213,215.66,239,219.395l4.421,1.486-2.706,3.811-.057,4.65-4.44-1.391-4.459,1.391-.038-4.65-2.706-3.811,4.421-1.486Z" transform="translate(-31.486 -48.185)" fill="#fff" />
			<path id="Path_122" data-name="Path 122" d="M243.894,227.8a108.767,108.767,0,0,0-15.835,2.744c-2.573.686-5.088,1.486-7.622,2.344-1.258.419-2.515.8-3.811,1.181a17.377,17.377,0,0,1-4.078.8.1.1,0,1,0,0,.191,27.087,27.087,0,0,0,3.925-.1,30.837,30.837,0,0,0,3.811-.743c2.63-.667,5.2-1.467,7.813-2.153,5.278-1.41,10.538-2.8,15.892-3.811C244.2,228.181,244.142,227.781,243.894,227.8Z" transform="translate(-0.637 -37.192)" fill="#263238" />
			<path id="Path_123" data-name="Path 123" d="M232.163,230.474a118.144,118.144,0,0,0-13.339-.515,59.3,59.3,0,0,0-6.612.457c-1.048.1-2.1.229-3.144.381s-2.287.457-3.43.61a.1.1,0,1,0,0,.191,31.709,31.709,0,0,1,3.3,0l3.316-.114,6.612-.229c4.4-.191,8.8-.324,13.206-.362a.215.215,0,0,0,.1-.419Z" transform="translate(24.319 -35.254)" fill="#263238" />
			<path id="Path_124" data-name="Path 124" d="M240.663,206.2c-.419,2.325-10.519,17.722-20.961,17.8-3.392,0-4.326-18.579-4.326-18.579L215,204.063l-5.336-19.056,21.8-15.721,3.163-2.077s1.105,5.278,2.439,11.891a5.807,5.807,0,0,0,.191.934c.057.324.171.724.229,1.067.21.991.419,2,.61,3.011s.286,1.505.419,2.306.267,1.6.419,2.4A128.14,128.14,0,0,1,240.663,206.2Z" transform="translate(8.139 -92.06)" fill="#dd6a57" />
			<path id="Path_125" data-name="Path 125" d="M238.962,179.177A39.616,39.616,0,0,1,216.9,204.063l-5.336-19.055,21.8-15.721,3.163-2.077S237.628,172.527,238.962,179.177Z" transform="translate(6.22 -92.06)" fill="#263238" />
			<path id="Path_126" data-name="Path 126" d="M209.571,182.082c-.4,34.6,20.294,38.759,27.764,38.835,6.765,0,29.841-.553,33.824-34.929s-11.986-45.524-27.478-46.515S209.971,147.459,209.571,182.082Z" transform="translate(-22.794 -117.241)" fill="#dd6a57" />
			<path id="Path_127" data-name="Path 127" d="M266.423,194.593a14.616,14.616,0,0,1-7.775-12.157,38.111,38.111,0,0,1-15.092-13.015c.21.724,1.753,6.06,2.611,8.746-22.314-4.954-28.7-22.39-28.7-22.39A38.607,38.607,0,0,0,207.2,169.687s.3-13.8,7.622-22.771c9.07-11.014,38.454-13.072,51.45,2.134C280.467,165.438,266.423,194.593,266.423,194.593Z" transform="translate(-19.125 -118.375)" fill="#263238" />
			<path id="Path_128" data-name="Path 128" d="M236.367,167.186a40.721,40.721,0,0,0,11.433,4.631h0A35.1,35.1,0,0,1,231.66,161.3a33.879,33.879,0,0,1-4.631-6.936,23.459,23.459,0,0,1-2.687-8.67.171.171,0,1,0-.343,0,27.154,27.154,0,0,0,1.467,8.9,24.887,24.887,0,0,0,4.745,7.622,28.218,28.218,0,0,0,6.212,5.012" transform="translate(-26.323 -111.701)" fill="#263238" />
			<path id="Path_129" data-name="Path 129" d="M206.643,169.66s6.727-11.433,11.814-9.032.591,18.37-4.974,20.961a5.85,5.85,0,0,1-8.06-2.553Z" transform="translate(36.195 -98.321)" fill="#dd6a57" />
			<path id="Path_130" data-name="Path 130" d="M215.844,162.87v.152c-3.811,1.906-5.717,5.831-6.936,9.814a3.22,3.22,0,0,1,4.745-1.258c.114,0,0,.248-.1.229a3.6,3.6,0,0,0-3.811,1.543,18.3,18.3,0,0,0-1.658,3.354c-.152.362-.819.229-.724-.21v-.1C206.945,171.273,210.375,163.8,215.844,162.87Z" transform="translate(37.399 -95.99)" fill="#263238" />
			<path id="Path_131" data-name="Path 131" d="M237.489,159.941a20,20,0,0,0,2.363-.5,4.04,4.04,0,0,0,2.325-.972,1.258,1.258,0,0,0,0-1.524,3.087,3.087,0,0,0-3.049-.724,4.554,4.554,0,0,0-2.839,1.62,1.315,1.315,0,0,0,1.2,2.1Z" transform="translate(-43.871 -102.131)" fill="#263238" />
			<path id="Path_132" data-name="Path 132" d="M229.574,159.9a20.09,20.09,0,0,1-2.363-.514,3.906,3.906,0,0,1-2.325-.953,1.239,1.239,0,0,1,0-1.524,3.068,3.068,0,0,1,3.049-.724,4.573,4.573,0,0,1,2.858,1.6,1.334,1.334,0,0,1-1.22,2.115Z" transform="translate(-10.765 -102.169)" fill="#263238" />
			<path id="Path_133" data-name="Path 133" d="M227.238,162.58s.172.133.172.229c-.133,2.382.114,5.126,2.268,5.983v.133C227.029,168.487,226.724,164.829,227.238,162.58Z" transform="translate(-13.974 -96.252)" fill="#263238" />
			<path id="Path_134" data-name="Path 134" d="M227.944,161.3c3.811-.21,3.983,7.508.419,7.622S224.724,161.473,227.944,161.3Z" transform="translate(-12.508 -97.413)" fill="#263238" />
			<path id="Path_135" data-name="Path 135" d="M224.424,161.647c.686.438,1.353,1.181,2.172,1.258s1.639-.743,2.229-1.524c0-.1.133,0,.133,0,0,1.486-.5,3.011-2.077,3.258s-2.5-1.067-2.877-2.553C223.929,161.895,224.157,161.475,224.424,161.647Z" transform="translate(-7.463 -97.377)" fill="#263238" />
			<path id="Path_136" data-name="Path 136" d="M238.2,162.43s-.171.133-.171.229c.133,2.382-.114,5.126-2.249,5.983v.133C238.428,168.337,238.714,164.679,238.2,162.43Z" transform="translate(-39.379 -96.388)" fill="#263238" />
			<path id="Path_137" data-name="Path 137" d="M238.753,161.152c-3.811-.191-3.964,7.508-.4,7.622S241.9,161.323,238.753,161.152Z" transform="translate(-42.048 -97.549)" fill="#263238" />
			<path id="Path_138" data-name="Path 138" d="M241.525,161.638c-.629.4-1.239,1.124-1.906,1.162s-1.467-.8-1.906-1.6c0-.1-.114,0-.133,0,0,1.467.419,3.011,1.906,3.316s2.249-.972,2.611-2.439C241.963,161.886,241.753,161.467,241.525,161.638Z" transform="translate(-46.496 -97.54)" fill="#263238" />
			<path id="Path_139" data-name="Path 139" d="M233.1,172.9c-.534.591-1.048,1.391-1.906,1.524a6.46,6.46,0,0,1-2.611-.457s-.152,0-.1.133a3.22,3.22,0,0,0,3.106,1.105A2.553,2.553,0,0,0,233.35,173a.133.133,0,0,0-.248-.1Z" transform="translate(-20.409 -86.969)" fill="#263238" />
			<path id="Path_140" data-name="Path 140" d="M233.578,179.41s-.476,3.563-.457,5.259c0,.152.4.229.972.248h0a7.927,7.927,0,0,0,7.737-3.011c.133-.171-.1-.343-.248-.229a12.024,12.024,0,0,1-7.279,2.115c-.133-.457,1.01-6.079.743-6.1a14.542,14.542,0,0,0-3.811.877c.781-7.451,2.744-14.73,3.411-22.181a.229.229,0,0,0-.438-.1,119.913,119.913,0,0,0-4.688,23.724C229.519,180.972,232.911,179.7,233.578,179.41Z" transform="translate(-30.908 -102.068)" fill="#263238" />
			<path id="Path_141" data-name="Path 141" d="M229.116,171.971a9.719,9.719,0,0,0,3.678,3.278,4.306,4.306,0,0,0,2.649.343c1.906-.381,2.115-2.134,1.906-3.659a9.813,9.813,0,0,0-.705-2.363,12.653,12.653,0,0,1-7.527,2.4Z" transform="translate(-25.684 -89.922)" fill="#263238" />
			<path id="Path_142" data-name="Path 142" d="M229.116,174.128a4.306,4.306,0,0,0,2.649.343c1.906-.381,2.115-2.134,1.906-3.659A4.535,4.535,0,0,0,229.116,174.128Z" transform="translate(-22.006 -88.801)" fill="#ff9bbc" />
			<path id="Path_143" data-name="Path 143" d="M363.106,214.033c-6.345,37.33-35.2,111.856-51.45,118.411-23.019,9.28-96.821-14.921-112.923-26.678-6.4-4.707,22.7-51.7,30.946-49.544,28.393,7.089,57.948,12.863,60.368,11.624,0,0,29.784-40.912,47.315-64.789C359.352,172.778,365.964,197.283,363.106,214.033Z" transform="translate(-92.37 -72.588)" fill="#dd6a57" />
			<path id="Path_144" data-name="Path 144" d="M328.336,296.541c-3.64-1.315-28.774-19.551-36.206-28.107a110.181,110.181,0,0,1-19.3-29.955c-7.451-17.36-10.957-30.07-9.166-35.748,2.077-6.612,2.668-7.622,20.046,21.114,9.833,16.312,19.208,18.141,27.326,17.988a124.89,124.89,0,0,1,57.719,12.92S342.456,301.534,328.336,296.541Z" transform="translate(-221.973 -63.382)" fill="#dd6a57" />
			<path id="Path_145" data-name="Path 145" d="M283.152,199.379l48.363,51.45a5.221,5.221,0,0,0,5.412,1.277l29.555-12.786a2.23,2.23,0,0,0,.572-3.811l-48.344-51.45a5.278,5.278,0,0,0-5.431-1.277L283.7,195.511a2.23,2.23,0,0,0-.553,3.868Z" transform="translate(-257.433 -78.21)" fill="#37474f" />
			<path id="Path_146" data-name="Path 146" d="M282.228,194.921l29.593-12.729a5.221,5.221,0,0,1,5.412,1.3l48.344,51.45a2.229,2.229,0,0,1-.572,3.811l-29.574,12.729a5.24,5.24,0,0,1-5.431-1.3l-48.344-51.45a2.23,2.23,0,0,1,.572-3.811Zm48.153,52.841a4.859,4.859,0,0,0,4.993,1.3l26.468-11.433c1.486-.629,1.658-2.249.381-3.6L317.2,186.193c-2.592-2.763-3.925-2.382-5.412-1.734l-5.3,2.287c-.3.114-.286.534,0,.9l.152.152c.8.857.248,1.105-.438,1.391l-12.253,5.278a1.486,1.486,0,0,1-2.058-.324l-.133-.152a1.181,1.181,0,0,0-1.2-.419l-5.3,2.268c-1.486.648-2.344,1.524,0,4.04Z" transform="translate(-253.212 -78.744)" fill="#263238" />
			<path id="Path_147" data-name="Path 147" d="M315.639,187.858l3.354-1.429a.152.152,0,0,0,0-.267h0a.4.4,0,0,0-.381-.1l-3.335,1.448a.152.152,0,0,0,0,.267h0a.324.324,0,0,0,.362.076Z" transform="translate(-271.379 -74.997)" fill="#fff" />
			<line id="Line_6" data-name="Line 6" y1="0.038" x2="0.095" transform="translate(106.096 152.249)" fill="none" />
			<path id="Path_148" data-name="Path 148" d="M284.092,198.925l45.028,47.849a4.859,4.859,0,0,0,4.993,1.3l26.468-11.433c1.486-.629,1.658-2.249.381-3.6l-45.028-47.829c-2.592-2.763-3.925-2.382-5.412-1.734l-5.3,2.287c-.3.114-.286.534,0,.9l.152.152c.8.857.248,1.105-.438,1.391l-12.253,5.278a1.486,1.486,0,0,1-2.058-.324l-.133-.152a1.182,1.182,0,0,0-1.2-.419l-5.3,2.268C282.567,195.533,281.71,196.334,284.092,198.925Z" transform="translate(-252.008 -77.756)" fill="#fff" />
			<path id="Path_149" data-name="Path 149" d="M306.411,198.907l3.354,3.582,31.842-13.7-3.354-3.563c-2.592-2.763-3.925-2.382-5.412-1.734l-5.3,2.287c-.3.114-.286.534,0,.9l.152.152c.8.857.248,1.105-.438,1.391L315,193.5a1.486,1.486,0,0,1-2.058-.324l-.152-.152a1.143,1.143,0,0,0-1.181-.419l-5.3,2.268C304.886,195.515,304.029,196.316,306.411,198.907Z" transform="translate(-274.327 -77.738)" fill="#0dbdb8" />
			<path id="Path_150" data-name="Path 150" d="M308.779,186.576l.229-1.162-1.639-.324-.019.191,1.353.267-.191.953Z" transform="translate(-246.359 -75.868)" fill="#fff" />
			<path id="Path_151" data-name="Path 151" d="M321.66,191.4a.362.362,0,0,0,.343,0,.152.152,0,0,0,0-.248.381.381,0,0,0-.343,0,.153.153,0,0,0,0,.248Z" transform="translate(-286.565 -70.418)" fill="#fff" />
			<path id="Path_152" data-name="Path 152" d="M321.411,191.687a.343.343,0,0,0,.324,0,.153.153,0,0,0,0-.248.343.343,0,0,0-.324,0,.133.133,0,0,0,0,.248Z" transform="translate(-285.782 -70.155)" fill="#fff" />
			<path id="Path_153" data-name="Path 153" d="M321.108,191.971a.343.343,0,0,0,.324,0,.133.133,0,0,0,0-.229.3.3,0,0,0-.324,0,.152.152,0,0,0,0,.229Z" transform="translate(-284.965 -69.887)" fill="#fff" />
			<g id="freepik--u5Zjqx--inject-7" transform="translate(55.141 108.212)">
				<path id="Path_154" data-name="Path 154" d="M310.7,185.055h.152a.476.476,0,0,1,.324-.381.934.934,0,0,1,.648,0v-.114h-.705l-.133.114a.4.4,0,0,0,0,.114.173.173,0,0,0,0,.114h0Z" transform="translate(-310.7 -184.56)" fill="#fff" />
				<path id="Path_155" data-name="Path 155" d="M311.529,184.8v-.114a.933.933,0,0,0-.457,0,.476.476,0,0,0-.362.362h.152a.343.343,0,0,1,.21-.248.743.743,0,0,1,.457,0Z" transform="translate(-310.424 -184.474)" fill="#fff" />
				<path id="Path_156" data-name="Path 156" d="M310.74,185h.152a.191.191,0,0,1,.114-.133.439.439,0,0,1,.229,0v-.1C311.026,184.736,310.74,184.831,310.74,185Z" transform="translate(-310.187 -184.374)" fill="#fff" />
				<path id="Path_157" data-name="Path 157" d="M310.777,184.974a.19.19,0,0,0,.133,0s0,0,0-.1a.133.133,0,0,0-.133,0S310.739,184.936,310.777,184.974Z" transform="translate(-309.9 -184.288)" fill="#fff" />
			</g>
			<path id="Path_158" data-name="Path 158" d="M309.011,183.786a.362.362,0,0,0-.381,0,.172.172,0,0,0,0,.267.4.4,0,0,0,.381,0,.172.172,0,0,0,0-.267Z" transform="translate(-248.744 -77.098)" fill="#fff" />
			<path id="Path_159" data-name="Path 159" d="M309.39,183.936a.362.362,0,0,0-.381,0,.152.152,0,0,0,0,.267.362.362,0,0,0,.362.1C309.561,184.107,309.58,184.107,309.39,183.936Z" transform="translate(-249.885 -76.963)" fill="#fff" />
			<path id="Path_160" data-name="Path 160" d="M309.726,184.086a.362.362,0,0,0-.381,0,.152.152,0,0,0,0,.267.343.343,0,0,0,.381,0C309.8,184.314,309.821,184.2,309.726,184.086Z" transform="translate(-250.793 -76.827)" fill="#fff" />
			<path id="Path_161" data-name="Path 161" d="M310.076,184.236a.362.362,0,0,0-.381,0,.153.153,0,0,0,0,.267.362.362,0,0,0,.381,0C310.152,184.464,310.171,184.35,310.076,184.236Z" transform="translate(-251.809 -76.691)" fill="#fff" />
			<path id="Path_162" data-name="Path 162" d="M310.46,184.386a.362.362,0,0,0-.381,0,.152.152,0,0,0,0,.267.362.362,0,0,0,.381,0C310.46,184.614,310.46,184.5,310.46,184.386Z" transform="translate(-252.86 -76.555)" fill="#fff" />
			<path id="Path_163" data-name="Path 163" d="M322.748,191.569l2.553-1.086-1.258-1.353-2.553,1.105Z" transform="translate(-289.597 -72.21)" fill="#fff" />
			<path id="Path_164" data-name="Path 164" d="M322,189.976l1.124-.476.419.438-1.124.476Z" transform="translate(-288.811 -71.875)" fill="#fff" />
			<path id="Path_165" data-name="Path 165" d="M323.193,190.308l.152-.076L323,189.87l-.152.076Z" transform="translate(-290.232 -71.54)" fill="#fff" />
			<path id="Path_166" data-name="Path 166" d="M284.34,210.809l.248-.114.877.934.457-.191-.457-.476.8-.343.457.476.457-.191-.9-.934.248-.114-1.982-.476Z" transform="translate(-180.683 -53.872)" fill="#ebebeb" />
			<path id="Path_167" data-name="Path 167" d="M297.845,215.987l2.63-1.143-.286-.324-2.649,1.143Z" transform="translate(-219.132 -49.218)" fill="#ebebeb" />
			<path id="Path_168" data-name="Path 168" d="M297.455,216.388l2.63-1.143-.3-.3-2.63,1.124Z" transform="translate(-217.999 -48.837)" fill="#ebebeb" />
			<path id="Path_169" data-name="Path 169" d="M297.065,216.8l2.63-1.124-.3-.324-2.63,1.124Z" transform="translate(-216.866 -48.466)" fill="#ebebeb" />
			<path id="Path_170" data-name="Path 170" d="M291.31,213.046l1.372.362.133-1.01-.248-.038-.1.819-1.124-.286Z" transform="translate(-199.601 -51.174)" fill="#ebebeb" />
			<path id="Path_171" data-name="Path 171" d="M293.138,215.907a2.553,2.553,0,0,0,1.067-.229,1.906,1.906,0,0,0,1.162-1.334,2.1,2.1,0,0,0-.591-1.906,3.144,3.144,0,0,0-3.354-.743,1.886,1.886,0,0,0-.572,3.144,3.221,3.221,0,0,0,2.287,1.067Zm-.743-2.439a1.429,1.429,0,0,1,1.01.381.991.991,0,0,1-1.162-.21.286.286,0,0,1-.1-.152Z" transform="translate(-200.153 -51.958)" fill="#ebebeb" />
			<path id="Path_172" data-name="Path 172" d="M314.668,188.023a1.505,1.505,0,0,0-1.543-.343.743.743,0,0,0-.381.381.133.133,0,0,0,.114.172.153.153,0,0,0,.21,0,.457.457,0,0,1,.267-.267.972.972,0,0,1,.572,0,.838.838,0,0,1,.476.267.419.419,0,0,1-.133.743.973.973,0,0,1-.476,0h-.152s0,.133.172.152a1.39,1.39,0,0,0,.686,0,.648.648,0,0,0,.191-1.105Z" transform="translate(-262.519 -73.599)" fill="#fff" />
			<path id="Path_173" data-name="Path 173" d="M315.7,189.129l-1.105-1.162a.209.209,0,0,0-.229,0s-.1.1,0,.171l.438.476-.61.248-.438-.476a.209.209,0,0,0-.229,0v.152l1.105,1.162a.19.19,0,0,0,.229,0s0-.1,0-.172l-.438-.457.61-.267.438.476a.247.247,0,0,0,.229,0,.1.1,0,0,0,0-.152Z" transform="translate(-264.868 -73.295)" fill="#fff" />
			<path id="Path_174" data-name="Path 174" d="M314.987,189.552l.572-.229.343.191h.191v-.171l-1.6-.953H314.3v.114l.572,1.391a.229.229,0,0,0,.21,0h0a.114.114,0,0,0,0-.133Zm-.114-.248-.21-.515.591.343Z" transform="translate(-266.706 -72.88)" fill="#fff" />
			<path id="Path_175" data-name="Path 175" d="M315.488,189.184l.362-.152.991,1.048a.267.267,0,0,0,.229,0,.1.1,0,0,0,0-.172l-.991-1.048.362-.152a.114.114,0,0,0,0-.171.248.248,0,0,0-.248,0l-.991.438v.152A.21.21,0,0,0,315.488,189.184Z" transform="translate(-269.436 -72.778)" fill="#fff" />
			<path id="Path_176" data-name="Path 176" d="M325.33,200.191l-22.771,9.795-5.679-6.041,22.771-9.795h0l5.679,6.041Z" transform="translate(-242.73 -67.664)" fill="#455a64" />
			<path id="Path_177" data-name="Path 177" d="M308.83,204.243l2.115-.9-1.734-1.867Z" transform="translate(-251.116 -61.026)" fill="#455a64" />
			<path id="Path_178" data-name="Path 178" d="M300.084,203.766l20.161-8.651-.114-.114-20.161,8.651Z" transform="translate(-243.533 -66.894)" fill="#fff" />
			<path id="Path_179" data-name="Path 179" d="M299.784,202.313l15.969-6.879-.1-.114L299.67,202.2Z" transform="translate(-238.469 -66.604)" fill="#fff" />
			<path id="Path_180" data-name="Path 180" d="M299.174,204.03l18.484-7.946-.1-.114-18.5,7.946Z" transform="translate(-239.212 -66.016)" fill="#fff" />
			<path id="Path_181" data-name="Path 181" d="M298.864,205.075l20.161-8.67-.114-.114-20.161,8.67Z" transform="translate(-239.988 -65.726)" fill="#fff" />
			<path id="Path_182" data-name="Path 182" d="M298.554,205.4l20.161-8.67-.114-.114-20.161,8.67Z" transform="translate(-239.087 -65.427)" fill="#fff" />
			<path id="Path_183" data-name="Path 183" d="M298.235,203.324l14.577-6.269-.1-.114-14.577,6.269Z" transform="translate(-232.613 -65.137)" fill="#fff" />
			<path id="Path_184" data-name="Path 184" d="M318.281,207.652l-22.771,9.795-5.66-6.041,22.771-9.776h0l5.66,6.022Z" transform="translate(-222.284 -60.89)" fill="#455a64" />
			<path id="Path_185" data-name="Path 185" d="M301.8,211.723l2.1-.915-1.734-1.848Z" transform="translate(-230.671 -54.253)" fill="#455a64" />
			<path id="Path_186" data-name="Path 186" d="M293.035,211.255l20.161-8.67-.114-.114-20.142,8.67Z" transform="translate(-223.088 -60.13)" fill="#fff" />
			<path id="Path_187" data-name="Path 187" d="M292.725,209.783l15.988-6.879-.114-.114-15.969,6.879Z" transform="translate(-218.014 -59.84)" fill="#fff" />
			<path id="Path_188" data-name="Path 188" d="M292.134,211.52l18.5-7.965-.114-.114-18.5,7.965Z" transform="translate(-218.776 -59.251)" fill="#fff" />
			<path id="Path_189" data-name="Path 189" d="M291.815,212.555l20.161-8.67-.1-.114-20.161,8.67Z" transform="translate(-219.543 -58.953)" fill="#fff" />
			<path id="Path_190" data-name="Path 190" d="M291.524,212.875l20.161-8.67-.114-.114-20.161,8.67Z" transform="translate(-218.661 -58.663)" fill="#fff" />
			<path id="Path_191" data-name="Path 191" d="M291.214,210.8l14.578-6.269-.114-.114L291.1,210.689Z" transform="translate(-212.177 -58.364)" fill="#fff" />
			<path id="Path_192" data-name="Path 192" d="M308.7,203.7l22.771-9.795-4.8-5.088-22.752,9.795Z" transform="translate(-262.289 -72.491)" fill="#0dbdb8" />
			<path id="Path_193" data-name="Path 193" d="M306.669,191.454l-2.1.915-1.753-1.848Z" transform="translate(-235.388 -70.951)" fill="#0dbdb8" />
			<path id="Path_194" data-name="Path 194" d="M306.724,196.946l16.788-7.222-.114-.114-16.788,7.222Z" transform="translate(-259.453 -71.775)" fill="#fff" />
			<path id="Path_195" data-name="Path 195" d="M306.405,198.725l20.161-8.67-.1-.114-20.161,8.67Z" transform="translate(-261.935 -71.476)" fill="#fff" />
			<path id="Path_196" data-name="Path 196" d="M306.114,199.045l20.161-8.67-.114-.114L306,198.93Z" transform="translate(-261.053 -71.187)" fill="#fff" />
			<path id="Path_197" data-name="Path 197" d="M305.8,198.689l18.56-7.984-.1-.114-18.56,7.984Z" transform="translate(-258.562 -70.888)" fill="#fff" />
			<path id="Path_198" data-name="Path 198" d="M305.5,199.695l20.161-8.67-.114-.114-20.161,8.67Z" transform="translate(-259.281 -70.598)" fill="#fff" />
			<path id="Path_199" data-name="Path 199" d="M305.194,197.757l14.9-6.4-.114-.114-14.9,6.4Z" transform="translate(-253.121 -70.299)" fill="#fff" />
			<path id="Path_200" data-name="Path 200" d="M305.194,205.488l22.771-9.795L324.4,191.92l-22.752,9.795Z" transform="translate(-254.455 -69.683)" fill="#0dbdb8" />
			<path id="Path_201" data-name="Path 201" d="M304.4,193.883l-2.1.9-1.753-1.848Z" transform="translate(-228.792 -68.769)" fill="#0dbdb8" />
			<path id="Path_202" data-name="Path 202" d="M303.8,201.476l20.123-8.632-.114-.133-20.123,8.651Z" transform="translate(-254.303 -68.968)" fill="#fff" />
			<path id="Path_203" data-name="Path 203" d="M303.5,200.281l16.559-7.127-.1-.114-16.578,7.127Z" transform="translate(-249.869 -68.669)" fill="#fff" />
			<path id="Path_204" data-name="Path 204" d="M303.175,201.325l18.236-7.851-.114-.114-18.217,7.851Z" transform="translate(-250.626 -68.379)" fill="#fff" />
			<path id="Path_205" data-name="Path 205" d="M302.894,199.845l14.044-6.041-.1-.114-14.063,6.041Z" transform="translate(-245.581 -68.08)" fill="#fff" />
			<path id="Path_206" data-name="Path 206" d="M299.642,213.681l22.771-9.795L317.4,198.57l-22.771,9.795Z" transform="translate(-235.525 -63.661)" fill="#dbdbdb" />
			<path id="Path_207" data-name="Path 207" d="M297.388,201.324l-2.115.915-1.753-1.848Z" transform="translate(-208.385 -62.013)" fill="#dbdbdb" />
			<path id="Path_208" data-name="Path 208" d="M296.644,208.619l19.037-8.175-.1-.114L296.53,208.5Z" transform="translate(-232.414 -62.068)" fill="#fff" />
			<path id="Path_209" data-name="Path 209" d="M296.334,208.291l17.493-7.527-.114-.114-17.493,7.527Z" transform="translate(-229.969 -61.778)" fill="#fff" />
			<path id="Path_210" data-name="Path 210" d="M297.254,207.493l17.931-7.7-.114-.114-17.931,7.7Z" transform="translate(-233.081 -62.656)" fill="#fff" />
			<path id="Path_211" data-name="Path 211" d="M297.554,208.02l19.913-8.556-.114-.114-19.913,8.556Z" transform="translate(-235.934 -62.955)" fill="#fff" />
			<path id="Path_212" data-name="Path 212" d="M296.034,208.869l18.1-7.775-.1-.114-18.122,7.775Z" transform="translate(-229.707 -61.479)" fill="#fff" />
			<path id="Path_213" data-name="Path 213" d="M292.163,220.305l22.771-9.795-4.173-4.421-22.771,9.795Z" transform="translate(-215.394 -56.852)" fill="#0dbdb8" />
			<path id="Path_214" data-name="Path 214" d="M290.729,208.393l-2.115.9-1.734-1.848Z" transform="translate(-189.073 -55.629)" fill="#0dbdb8" />
			<path id="Path_215" data-name="Path 215" d="M290.494,215.645l20.142-8.67-.1-.114-20.161,8.67Z" transform="translate(-215.65 -56.154)" fill="#fff" />
			<path id="Path_216" data-name="Path 216" d="M290.165,215.975l20.161-8.67-.114-.114-20.142,8.67Z" transform="translate(-214.749 -55.856)" fill="#fff" />
			<path id="Path_217" data-name="Path 217" d="M289.874,215.609l18.56-7.984-.114-.114-18.56,7.984Z" transform="translate(-212.266 -55.566)" fill="#fff" />
			<path id="Path_218" data-name="Path 218" d="M289.555,216.625l20.161-8.67-.1-.114-20.161,8.67Z" transform="translate(-212.977 -55.267)" fill="#fff" />
			<path id="Path_219" data-name="Path 219" d="M289.264,214.677l14.9-6.4-.114-.114-14.9,6.4Z" transform="translate(-206.835 -54.977)" fill="#fff" />
			<path id="Path_220" data-name="Path 220" d="M285.434,236.867c8.4.133-18.884-16.9-19.3-26.449s8.9-6.555,16.235-1.162c25.477,18.732,44.7,17.817,57.624,35.71S285.434,236.867,285.434,236.867Z" transform="translate(-200.414 -58.55)" fill="#dd6a57" />
			<path id="Path_221" data-name="Path 221" d="M235.12,213.19c6.174,3.068,12.291,6.193,18.255,9.528a79.529,79.529,0,0,1,8.613,5.507,98.805,98.805,0,0,1,7.984,6.346l.171.133h.191c5.355,1.353,10.69,2.763,16.064,3.964s10.747,2.439,16.14,3.6,10.824,2.115,16.273,2.973a74.847,74.847,0,0,0,8.251.915,15.735,15.735,0,0,0,2.115,0,3.163,3.163,0,0,0,1.906-.915,13.93,13.93,0,0,0,2.458-3.354,14.921,14.921,0,0,1-2.668,3.106c-1.01.991-2.439.705-3.811.61-2.706-.286-5.412-.858-8.1-1.353-5.393-1.048-10.747-2.344-16.121-3.563s-10.709-2.477-16.064-3.811l-16.045-3.811.362.191a94.856,94.856,0,0,0-8.251-6.345,82.624,82.624,0,0,0-8.956-5.24q-4.573-2.4-9.3-4.478C241.485,215.82,238.321,214.448,235.12,213.19Z" transform="translate(-133.255 -50.422)" fill="#263238" />
			<path id="Path_222" data-name="Path 222" d="M236.391,272.2,197.4,233.647a351.039,351.039,0,0,1,23.877-34.738c14.616-18.827,26.278-15.721,25.191,16.388a203.9,203.9,0,0,1-10.08,56.9Z" transform="translate(25.617 -73.871)" fill="#0dbdb8" />
			<path id="Path_223" data-name="Path 223" d="M230.345,194.534l-4.421,1.486,2.687,3.811v4.65l4.44-1.391,4.573,1.448v-4.65l2.706-3.811-4.421-1.486-2.782-3.811Zm-21.7,23.343-2.706,3.811v4.65l-4.459-1.41-.9.3c1.391-2.21,3.2-5.05,5.374-8.27Zm22.6,16.883,2.782,3.811,4.421,1.486-2.706,3.811v4.669l-4.459-1.391-4.44,1.391v-4.669l-2.706-3.811,4.421-1.486Z" transform="translate(25.775 -70.716)" fill="#fff" />
			<path id="Path_224" data-name="Path 224" d="M202.394,208.643c3.22,2.534,6.079,5.545,9.07,8.327s5.717,5.336,8.461,8.08q8.632,8.537,16.845,17.455c0,.114,0,.286-.171.191q-8.8-8.137-17.4-16.54c-2.839-2.782-5.717-5.621-8.384-8.48s-5.964-5.717-8.594-8.842C202.146,208.719,202.28,208.548,202.394,208.643Z" transform="translate(26.248 -54.565)" fill="#263238" />
			<path id="Path_225" data-name="Path 225" d="M219.48,216.037c1.029-1.715,2.115-3.392,3.22-5.05l.686-1.029a73.445,73.445,0,0,1,3.03-6.86h.133c-.629,1.81-1.391,3.582-2.172,5.336,1.715-2.534,3.487-5.05,5.431-7.394,0,0,.172,0,.133.1-2,3.468-4.23,6.8-6.346,10.195-1.029,1.658-6.25,9.623-6.193,9.718a11.152,11.152,0,0,1,1.124,1.3c.152.3,0,.191-.114.114l-1.906-1.486S218.66,217.5,219.48,216.037Z" transform="translate(5.809 -61.425)" fill="#263238" />
			<path id="Path_226" data-name="Path 226" d="M197.89,247.876c1.486,1.715,3.068,3.373,4.592,5.05l.381.419.229-.553a104.8,104.8,0,0,0,3.544-10.69c.991-3.621,1.906-7.241,2.649-10.938s1.391-7.374,1.791-11.109.762-7.451.9-11.2L210.066,219.9c-.686,3.678-1.353,7.336-2.134,11s-1.6,7.279-2.534,10.881-1.906,7.241-3.011,10.766l.591-.133C201.3,250.906,199.624,249.343,197.89,247.876Z" transform="translate(59.259 -54.352)" fill="#263238" />
			<path id="Path_227" data-name="Path 227" d="M201.252,212.55a40.007,40.007,0,0,0-2.553,4.669c-.381.8-.762,1.582-1.086,2.4s-.686,1.639-.953,2.5a18.694,18.694,0,0,0,2.9-4.5,20.808,20.808,0,0,0,1.7-5.069Z" transform="translate(72.323 -51.002)" fill="#263238" />
		</g>
		<g id="freepik--Plant--inject-7" transform="translate(0 366.494)">
			<path id="Path_228" data-name="Path 228" d="M391.725,504.355a604.472,604.472,0,0,1,.877-64.1,817.483,817.483,0,0,1,20.085-130.626c5.6-24.181,12.5-47.944,19.684-71.687.229-.705,1.372-.515,1.162.229-22.219,83.692-40.455,170.052-39.2,257.04.343,24.334,3.163,48.249,5.488,72.411,0,.648-1.01.9-1.162.229C394.031,547.153,392.583,525.506,391.725,504.355Z" transform="translate(-300.964 -237.499)" fill="#0dbdb8" />
			<path id="Path_229" data-name="Path 229" d="M416.228,237.85S449.9,323.314,442.354,343.4s-23.076,24.315-23.076,24.315,20.6,29.4,6.212,57-46.381,26.278-48.5,57.548C376.993,482.314,375.2,351.554,416.228,237.85Z" transform="translate(-283.659 -237.181)" fill="#0dbdb8" />
			<path id="Path_230" data-name="Path 230" d="M390.3,419.75a.591.591,0,0,1,0-.438c4.726-58.1,15.035-116.029,32.642-171.9,0-.171.324-.114.286,0q-10,37.5-17.684,75.384a37.234,37.234,0,0,1,16.064-8.956c.114,0,.172.133,0,.171-6.231,2.687-12.2,5.812-16.6,11.09q-1.486,7.432-2.858,14.863c7.622-8.4,17.95-12.577,28.393-16.54a.114.114,0,0,1,0,.229c-10.862,4.421-21.7,10.138-29.06,19.494q-3.811,21.285-6.765,42.7A40.532,40.532,0,0,1,414.963,374.4c.248,0,.381.286.133.362a42.4,42.4,0,0,0-20.332,12.977l-.133.1c-.667,5.031-1.315,10.042-1.906,15.092a51.719,51.719,0,0,1,14.082-8.5c.133,0,.21.152,0,.21a48.477,48.477,0,0,0-14.1,9.337.342.342,0,0,1-.191,0c-.553,4.783-1.105,9.528-1.6,14.368A68.3,68.3,0,0,1,419.5,397.95c.21-.1.324.248.114.343a74.315,74.315,0,0,0-28.088,21.838.591.591,0,0,1-.705.229q-1.086,11.033-1.905,22.085c0,.114-.172.114-.152,0Q389.371,431.088,390.3,419.75Z" transform="translate(-293.312 -228.621)" fill="#263238" />
			<path id="Path_231" data-name="Path 231" d="M385.182,280.8a41.922,41.922,0,0,1,20.237-6.307.124.124,0,1,1,0,.248,80.19,80.19,0,0,0-20.008,6.536.267.267,0,0,1-.229-.477Z" transform="translate(-261.149 -204.002)" fill="#263238" />
			<path id="Path_232" data-name="Path 232" d="M389.909,327.733a42.76,42.76,0,0,1,15.244-5.183.143.143,0,0,1,0,.286,57.421,57.421,0,0,0-15.016,5.259C389.89,328.209,389.7,327.866,389.909,327.733Z" transform="translate(-269.954 -160.481)" fill="#263238" />
			<path id="Path_233" data-name="Path 233" d="M415.468,294.089a228.856,228.856,0,0,1,38.969,34.071A139.884,139.884,0,0,1,481.781,374.5a346.485,346.485,0,0,1,20.351,110.846,268.687,268.687,0,0,1-6,62.331.592.592,0,0,1-1.162-.229,350.011,350.011,0,0,0-.61-108.96c-5.717-35.348-14.863-73.8-37.349-102.538-12.234-15.645-27.478-27.955-42.57-40.665A.791.791,0,0,1,415.468,294.089Z" transform="translate(-413.219 -186.423)" fill="#0dbdb8" />
			<path id="Path_234" data-name="Path 234" d="M500.739,460.689a209.265,209.265,0,0,0-28.412-36.3c-16.845-16.845-31.022-28.812-33.214-40.016S456,365.03,456,365.03s-23.324,4.173-29.688-5.6S416.78,293,416.78,293s42.4,30.26,62.14,72.7S500.739,460.689,500.739,460.689Z" transform="translate(-416.78 -187.24)" fill="#0dbdb8" />
			<path id="Path_235" data-name="Path 235" d="M417.17,300.744c17.855,17.512,35.805,36.206,46.3,59.206a229.959,229.959,0,0,1,9.375,24.429h0c.553,1.677,1.105,3.335,1.6,5.031a.458.458,0,0,1,.1.267,478.549,478.549,0,0,1,12.043,52.345c0,.115-.152.172-.171,0-1.906-8.842-3.811-17.76-6.1-26.678a.591.591,0,0,1-.248,0,36.928,36.928,0,0,0-11.128-2.82c-.248,0-.229-.476,0-.457a42.514,42.514,0,0,1,11.014,2c-2.058-8.022-4.287-16.026-6.8-23.9a117.741,117.741,0,0,0-25.153-3.3s-.1-.133,0-.133a94.307,94.307,0,0,1,24.772,2.1c-.438-1.353-.877-2.706-1.334-4.04a124.7,124.7,0,0,0-16.731-2.839c-.114,0-.1-.191,0-.191a81.657,81.657,0,0,1,16.388,2c-2.306-6.822-4.8-13.568-7.622-20.123a123.122,123.122,0,0,0-8-15.53A102.725,102.725,0,0,0,441.9,345.7c-.133,0-.114-.229,0-.229a36.606,36.606,0,0,1,12.691,1.258c-2.229-3.6-4.573-7.146-7.07-10.557h0c-9.528-2.1-19.056-4.059-28.869-2.23-.172,0-.229-.248,0-.3,9.261-2.42,18.446-1.029,27.669.8-1.01-1.334-2.039-2.649-3.087-3.964a62.886,62.886,0,0,0-17.76-2.8.1.1,0,0,1,0-.191,46.326,46.326,0,0,1,16.578,1.467c-7.87-9.776-16.559-18.941-25.134-28.012C416.445,300.573,416.75,300.325,417.17,300.744Z" transform="translate(-402.44 -180.426)" fill="#263238" />
			<path id="Path_236" data-name="Path 236" d="M448.4,321.087a39.146,39.146,0,0,1,8.442-.286c.343,0,.3.591,0,.61-2.782,0-5.583-.133-8.365,0a.172.172,0,0,1-.076-.324Z" transform="translate(-433.189 -162.162)" fill="#263238" />
			<path id="Path_237" data-name="Path 237" d="M430.187,349.75a38.476,38.476,0,0,1,13.072,2.611c.1,0,0,.21,0,.191-4.306-1.029-8.67-1.448-13.034-2.172a.324.324,0,0,1-.038-.629Z" transform="translate(-384.454 -135.85)" fill="#263238" />
			<path id="Path_238" data-name="Path 238" d="M429.314,339.78a28.571,28.571,0,0,1,5.545.5c.191,0,.172.343,0,.343a28.576,28.576,0,0,1-5.564-.267.286.286,0,0,1,.019-.572Z" transform="translate(-374.358 -144.879)" fill="#263238" />
			<path id="Path_239" data-name="Path 239" d="M474.921,325.538a192.462,192.462,0,0,0-39.407,18.56,117.975,117.975,0,0,0-32.833,31.194A291.55,291.55,0,0,0,360.587,460.3a226.172,226.172,0,0,0-9.528,51.831.5.5,0,0,0,.991.1,294.268,294.268,0,0,1,25.668-88.056c12.863-27.268,29.1-56.29,53.927-74.316,13.51-9.833,28.717-16.254,43.828-23.057C476.274,326.453,475.7,325.272,474.921,325.538Z" transform="translate(-266.663 -157.81)" fill="#0dbdb8" />
			<path id="Path_240" data-name="Path 240" d="M350.4,441.239a176.1,176.1,0,0,1,31.384-22.867c17.512-9.737,31.766-16.14,36.11-24.639s-9.185-19.551-9.185-19.551,17.893,8.766,25.306,2.325S457.035,325,457.035,325s-41.313,14.692-67.114,44.457S350.4,441.239,350.4,441.239Z" transform="translate(-246.585 -158.262)" fill="#0dbdb8" />
			<path id="Path_241" data-name="Path 241" d="M360.165,427.251c20.656-38.778,48.23-73.859,86-97.031h0a190.327,190.327,0,0,0-27.65,21.628,43.828,43.828,0,0,1,22.219,4.688.133.133,0,1,1-.114.229,60.807,60.807,0,0,0-22.867-3.811.551.551,0,0,1-.267,0c-1.334,1.258-2.668,2.553-3.964,3.811a70.858,70.858,0,0,1,11.872,1.62c.114,0,0,.191,0,.172a60.235,60.235,0,0,0-12.539-1.029,259.629,259.629,0,0,0-19.494,22.124,20.026,20.026,0,0,1,8.308.591.171.171,0,0,1,0,.324,44.443,44.443,0,0,0-8.861-.133c-1.143,1.448-2.287,2.877-3.392,4.345a80.6,80.6,0,0,1,25.077,2.42c.114,0,.1.229,0,.21a100.593,100.593,0,0,0-25.744-1.677c-1.067,1.391-2.058,2.839-3.087,4.249a54.082,54.082,0,0,1,14.92,1.715.152.152,0,0,1,0,.286,56.88,56.88,0,0,0-15.454-1.2c-4.44,6.117-8.689,12.386-12.786,18.713a14.14,14.14,0,0,1,6.555.4v.171a29.365,29.365,0,0,0-7.089.343Q366.3,419,361.155,427.746C360.6,428.127,359.879,427.765,360.165,427.251Z" transform="translate(-254.197 -153.535)" fill="#263238" />
			<path id="Path_242" data-name="Path 242" d="M382.22,364.3a31.977,31.977,0,0,1,11.986,1.467c.114,0,.1.191,0,.171a93.369,93.369,0,0,0-11.948-1.22.21.21,0,0,1-.038-.419Z" transform="translate(-244.105 -122.746)" fill="#263238" />
			<path id="Path_243" data-name="Path 243" d="M366.664,339.491a19.99,19.99,0,0,1,5.526.324c.21,0,.152.343,0,.324-1.906-.191-3.621-.133-5.431-.191a.234.234,0,1,1-.1-.457Z" transform="translate(-192.516 -145.199)" fill="#263238" />
			<path id="Path_244" data-name="Path 244" d="M385.39,511.485h93.239l-13.282-97.412-3.411-24.963H402.083l-3.411,24.963Z" transform="translate(-334.855 -100.207)" fill="#455a64" />
			<path id="Path_245" data-name="Path 245" d="M392.36,414.073h66.675l-3.411-24.963H395.771Z" transform="translate(-328.543 -100.207)" fill="#263238" />
			<rect id="Rectangle_34" data-name="Rectangle 34" width="76.984" height="21.152" transform="translate(58.653 280.232)" fill="#455a64" />
		</g>
		<g id="freepik--speech-bubbles--inject-7" transform="translate(63.836 5.964)">
			<path id="Path_246" data-name="Path 246" d="M282.51,167.3H557.024V48.3H282.51v119Z" transform="translate(-281.043 -48.3)" fill="#455a64" />
			<path id="Path_247" data-name="Path 247" d="M322.909,145.85v-35.1H286.36Z" transform="translate(-54.263 8.252)" fill="#455a64" />
			<path id="Path_248" data-name="Path 248" d="M423.107,111.274l1.791-3.7-.858-.419-1.2,2.5-5.164-5.164-.686.667Z" transform="translate(-405.176 2.583)" fill="#0dbdb8" />
			<path id="Path_249" data-name="Path 249" d="M425.187,111.274l1.791-3.7-.857-.419-1.22,2.5-5.164-5.164-.667.667Z" transform="translate(-411.219 2.583)" fill="#0dbdb8" />
			<path id="Path_250" data-name="Path 250" d="M320.85,203.443H453V122.8H320.85v80.643Z" transform="translate(-250.078 19.164)" fill="#0dbdb8" />
			<path id="Path_251" data-name="Path 251" d="M324.51,165.12h35.1v36.529Z" transform="translate(-163.662 57.487)" fill="#0dbdb8" />
			<rect id="Rectangle_41" data-name="Rectangle 41" width="149.11" height="104.958" transform="translate(0 274.228)" fill="#ebebeb" />
			<path id="Path_255" data-name="Path 255" d="M329.91,231.34v-35.1h36.549Z" transform="translate(-180.8 85.668)" fill="#ebebeb" />
			<ellipse id="Ellipse_11" data-name="Ellipse 11" cx="35.92" cy="35.92" rx="35.92" ry="35.92" transform="translate(97.743 371.895) rotate(-162.18)" fill="#ffb500" opacity="0.9" />
			<path id="Path_256" data-name="Path 256" d="M405.7,272.756a35.939,35.939,0,1,0-21.3-65.17A31.2,31.2,0,1,1,373.005,221a35.958,35.958,0,0,0,32.7,51.755Z" transform="translate(-330.74 89.871)" opacity="0.1" />
			<path id="Path_257" data-name="Path 257" d="M384.279,215.351a7.622,7.622,0,0,0,13.606,4.611,7.431,7.431,0,0,0,1.62-4.8Z" transform="translate(-317.451 102.801)" fill="#263238" />
			<path id="Path_258" data-name="Path 258" d="M385.13,218.848A7.622,7.622,0,0,0,397,218.7,9.071,9.071,0,0,0,385.13,218.848Z" transform="translate(-316.568 104.067)" fill="#ff99ba" />
			<path id="Path_259" data-name="Path 259" d="M388.786,219.951a16.159,16.159,0,0,1-6.765,5.717,16.007,16.007,0,0,1-6.079-6.46c-1.391-3.278-.19-6.689,2.344-7.3,3.64-.877,4.211,5.412,4.211,5.412s1.258-6.174,4.783-4.9C389.739,213.339,390.539,216.845,388.786,219.951Z" transform="translate(-290.669 99.782)" fill="red" />
			<path id="Path_260" data-name="Path 260" d="M394.718,220.371a16.2,16.2,0,0,0,6.9,5.564,16.064,16.064,0,0,0,5.907-6.612c1.315-3.316,0-6.689-2.515-7.241-3.659-.781-4.078,5.507-4.078,5.507s-1.41-6.136-4.9-4.764C393.594,213.778,392.87,217.3,394.718,220.371Z" transform="translate(-343.897 99.953)" fill="red" />
			<path id="Path_261" data-name="Path 261" d="M423.6,247.794l1.791-3.7-.857-.419-1.2,2.5-5.164-5.164-.686.667Z" transform="translate(-406.599 126.209)" fill="#0dbdb8" />
			<path id="Path_262" data-name="Path 262" d="M425.658,247.794l1.81-3.7-.857-.419-1.22,2.5-5.164-5.164-.667.667Z" transform="translate(-412.643 126.209)" fill="#0dbdb8" />
		</g>
	</g>
	<text id="Order_Completed" data-name="Order Completed" transform="translate(89.274 76.653)" fill="#fff" font-size="25" font-family="Poppins-Regular, Poppins, sans-serif" letter-spacing="0.02em">
		<tspan x="0" y="0">
			Order Completed
		</tspan>
	</text>
	<text id="Download" transform="translate(149.274 192.653)" fill="#1d1d1d" font-size="20" font-family="Poppins-Regular, Poppins" letter-spacing="0.02em">
		<tspan x="0" y="0">
			Download
		</tspan>
	</text>
</svg>
