<svg xmlns="http://www.w3.org/2000/svg" width="438.73" height="430.048" viewBox="0 0 438.73 430.048">
	<g id="New_year_s_resolutions-pana_1_" data-name="New year&apos;s resolutions-pana (1)" transform="translate(-30.71 -39.06)">
		<g id="freepik--background-complete--inject-13">
			<path id="Path_892" data-name="Path 892" d="M135.5,451.79l32,14.32,232.13,1.51V435.1L168.56,434l-33,13.71a2.24,2.24,0,0,0-.06,4.08Z" fill="#ebebeb" />
			<path id="Path_893" data-name="Path 893" d="M168.56,434a2.42,2.42,0,0,1-.84,3.72,7.27,7.27,0,0,1,1,13.68,8.5,8.5,0,0,1-1.45,14.6l-30.88-13.8a2.66,2.66,0,0,1,.07-4.89Z" fill="#f5f5f5" />
			<path id="Path_894" data-name="Path 894" d="M145.55,456.28s6.68-3.88.7-13L134.69,448a1.83,1.83,0,0,0-.05,3.37Z" fill="#e0e0e0" />
			<path id="Path_895" data-name="Path 895" d="M168.76,451.36l230.91.07v16.19l-232.13-1.51-.27-.12a8.141,8.141,0,0,0,2.95-2.21,8.7,8.7,0,0,0,2-4.42,8.44,8.44,0,0,0-3.44-8Z" fill="#e0e0e0" />
			<path id="Path_896" data-name="Path 896" d="M167.72,437.68l232,1.32v-3.9L168.56,434a2.58,2.58,0,0,1-.32,3.43,2.531,2.531,0,0,1-.52.25Z" fill="#e0e0e0" />
			<path id="Path_897" data-name="Path 897" d="M160.93,455.54a.64.64,0,0,0,.44,0,.89.89,0,0,0,.41-1.11,3.31,3.31,0,0,0-1.36-1.52,2,2,0,0,0-1.2-.33,1.35,1.35,0,0,0-1.15.67,1.91,1.91,0,0,0,0,1.52,6.17,6.17,0,0,0,.85,1.51,9.16,9.16,0,0,0,2.8,2.58,2.33,2.33,0,0,0,1.92.26,2.13,2.13,0,0,0,1.22-1.58,5.74,5.74,0,0,0-1.44-4.17,7.93,7.93,0,0,0-7.77-2.93,2.08,2.08,0,0,0-1.38,1.22,4,4,0,0,0-.22,1.82,11.31,11.31,0,0,0,.87,3.25,12.26,12.26,0,0,0,2.75,4c.42.4.76.68,1,.87a4.469,4.469,0,0,1,.37.29,8.38,8.38,0,0,1-1.43-1.09,12.29,12.29,0,0,1-2.84-4,11.39,11.39,0,0,1-.9-3.3,4.09,4.09,0,0,1,.22-1.91,2.28,2.28,0,0,1,1.5-1.34,8.26,8.26,0,0,1,9.19,5,4.23,4.23,0,0,1,.29,2.3,2.33,2.33,0,0,1-1.35,1.75,2.56,2.56,0,0,1-2.1-.29,9.33,9.33,0,0,1-2.85-2.65,6.181,6.181,0,0,1-.87-1.56,2.08,2.08,0,0,1,0-1.66,1.53,1.53,0,0,1,1.28-.74,2.24,2.24,0,0,1,1.28.37,3.49,3.49,0,0,1,1.38,1.61,1,1,0,0,1-.48,1.17.49.49,0,0,1-.43-.01Z" fill="#fff" />
			<path id="Path_898" data-name="Path 898" d="M153.07,440.77a10.323,10.323,0,0,0,.53,1.17,8.66,8.66,0,0,0,2.27,2.61,22.241,22.241,0,0,0,4.44,2.59,19.141,19.141,0,0,1,5.38,3.37,11.14,11.14,0,0,1,3,5.59,10.91,10.91,0,0,1-1.75,8.38,8.168,8.168,0,0,1-.82,1,1.251,1.251,0,0,1,.19-.27,9.42,9.42,0,0,0,.56-.78,11.251,11.251,0,0,0,1.44-3.16,10.86,10.86,0,0,0,.18-5.13,11,11,0,0,0-3-5.47,19.329,19.329,0,0,0-5.31-3.35,21.52,21.52,0,0,1-4.45-2.65,8.4,8.4,0,0,1-2.25-2.69,5,5,0,0,1-.41-1.21Z" fill="#fff" />
			<path id="Path_899" data-name="Path 899" d="M161.49,436.75a3.35,3.35,0,0,0,0,2.38,19.28,19.28,0,0,0,3.31,4.85,32.531,32.531,0,0,0,4.3,4.02c.59.47,1.09.83,1.43,1.08a3.57,3.57,0,0,1,.52.4,4.729,4.729,0,0,1-.57-.33c-.35-.23-.87-.57-1.47-1a28.34,28.34,0,0,1-4.34-4,30.193,30.193,0,0,1-2-2.59,9.55,9.55,0,0,1-1.28-2.36,3.36,3.36,0,0,1-.13-1.81A2.09,2.09,0,0,1,161.49,436.75Z" fill="#fff" />
			<path id="Path_900" data-name="Path 900" d="M173,445.44a6.473,6.473,0,0,1-1.2-.56,7.46,7.46,0,0,1-2.48-2.07,3.83,3.83,0,0,1-.69-3.13,2.77,2.77,0,0,1,.42-.91c.14-.18.24-.27.25-.26a4.36,4.36,0,0,0-.51,1.21,3.74,3.74,0,0,0,.71,3,8,8,0,0,0,2.38,2.06A10.082,10.082,0,0,1,173,445.44Z" fill="#fff" />
			<path id="Path_901" data-name="Path 901" d="M147.75,442.53l.17.08a5.111,5.111,0,0,1,.49.26,2.39,2.39,0,0,1,.67.57,2.57,2.57,0,0,1,.46,1.09c.2.85.24,1.89.38,3a21.751,21.751,0,0,0,.78,3.59,43.36,43.36,0,0,0,2.53,6.19c.33.67.63,1.27.9,1.83a3.469,3.469,0,0,1,.3.68,4.659,4.659,0,0,1-.38-.64c-.23-.42-.56-1-1-1.8a38.78,38.78,0,0,1-2.61-6.19,20.238,20.238,0,0,1-.76-3.64c-.13-1.14-.15-2.16-.34-3a2.14,2.14,0,0,0-1-1.62C148,442.68,147.74,442.54,147.75,442.53Z" fill="#fff" />
			<path id="Path_902" data-name="Path 902" d="M392.21,441.56h32.51v3.49a16.13,16.13,0,0,1-16.13,16.13h-.25a16.13,16.13,0,0,1-16.13-16.13Z" transform="translate(-42.91 859.83) rotate(-90)" fill="#f5f5f5" />
			<rect id="Rectangle_102" data-name="Rectangle 102" width="90.36" height="130.97" transform="translate(46.3 44.46)" fill="#e0e0e0" />
			<rect id="Rectangle_103" data-name="Rectangle 103" width="90.36" height="130.97" transform="translate(41.78 44.46)" fill="#f5f5f5" />
			<rect id="Rectangle_104" data-name="Rectangle 104" width="67.91" height="102.6" transform="translate(53 58.65)" fill="#fff" />
			<path id="Path_903" data-name="Path 903" d="M120.91,161.25v-7.58c0-4.92,0-12.09-.06-21.14,0-18.09-.07-43.71-.11-73.88l.22.22H53.06l.25-.24v102.6l-.2-.2,49.43.11,13.66.05h.07l-13.61.05L53,161.45h-.19v-.2c0-28.21,0-63.9-.05-102.6V58.4h68.37v.23c0,30.23-.09,55.9-.11,74,0,9,0,16.18-.07,21.08v7.02A2.659,2.659,0,0,1,120.91,161.25Z" fill="#e0e0e0" />
			<path id="Path_904" data-name="Path 904" d="M132.39,44.46a15.7,15.7,0,0,1-1.61,2.34c-1.05,1.41-2.54,3.32-4.24,5.38s-3.29,3.89-4.47,5.19a15,15,0,0,1-2,2,15.71,15.71,0,0,1,1.72-2.25l4.35-5.28,4.35-5.28A18,18,0,0,1,132.39,44.46Z" fill="#e0e0e0" />
			<path id="Path_905" data-name="Path 905" d="M121.26,160.92a84,84,0,0,0,11.84,14.81" fill="#fff" />
			<path id="Path_906" data-name="Path 906" d="M133.1,175.73a13,13,0,0,1-2.06-1.88,61.633,61.633,0,0,1-4.47-5,64.3,64.3,0,0,1-3.94-5.46,13.48,13.48,0,0,1-1.37-2.43,17.841,17.841,0,0,1,1.66,2.23c1,1.4,2.4,3.31,4,5.36s3.19,3.83,4.34,5.11a19.85,19.85,0,0,1,1.84,2.07Z" fill="#e0e0e0" />
			<path id="Path_907" data-name="Path 907" d="M41.76,175.33q5.93-7.31,11.84-14.6" fill="#fff" />
			<path id="Path_908" data-name="Path 908" d="M53.6,160.73a90.061,90.061,0,0,1-5.73,7.45,87.089,87.089,0,0,1-6.11,7.15,92.809,92.809,0,0,1,5.73-7.45,87.093,87.093,0,0,1,6.11-7.15Z" fill="#e0e0e0" />
			<path id="Path_909" data-name="Path 909" d="M41.78,44.46a82.839,82.839,0,0,1,5.74,6.87,81.489,81.489,0,0,1,5.36,7.17,81.59,81.59,0,0,1-5.74-6.86,79,79,0,0,1-5.36-7.18Z" fill="#e0e0e0" />
			<rect id="Rectangle_105" data-name="Rectangle 105" width="22.74" height="64.56" transform="translate(77.02 79.48)" fill="#e0e0e0" />
			<rect id="Rectangle_106" data-name="Rectangle 106" width="83.5" height="87.04" transform="translate(385.94 39.09)" fill="#e0e0e0" />
			<rect id="Rectangle_107" data-name="Rectangle 107" width="83.5" height="87.04" transform="translate(380.29 39.09)" fill="#fafafa" />
			<path id="Path_910" data-name="Path 910" d="M463.81,126.15H380.26V39.06h83.55Zm-83.5-.05h83.45v-87H380.31Z" fill="#e0e0e0" />
			<rect id="Rectangle_108" data-name="Rectangle 108" width="61.05" height="63.64" transform="translate(391.51 50.79)" fill="#fff" />
			<path id="Path_911" data-name="Path 911" d="M391.51,114.85a9.841,9.841,0,0,1-1.5,1.75c-1,1-2.35,2.42-3.88,3.94s-2.95,2.86-4,3.81a9.18,9.18,0,0,1-1.77,1.47,10.492,10.492,0,0,1,1.5-1.74c1-1,2.35-2.43,3.89-3.94s2.95-2.87,4-3.83a9.659,9.659,0,0,1,1.76-1.46Z" fill="#e0e0e0" />
			<path id="Path_912" data-name="Path 912" d="M452.56,114.69a10.369,10.369,0,0,1,1.75,1.51c1,1,2.43,2.35,3.94,3.88s2.86,3,3.82,4a10.459,10.459,0,0,1,1.47,1.76,9,9,0,0,1-1.75-1.49c-1-1-2.42-2.35-3.94-3.89s-2.87-3-3.83-4a10,10,0,0,1-1.46-1.77Z" fill="#e0e0e0" />
			<path id="Path_913" data-name="Path 913" d="M452.4,51a9.44,9.44,0,0,1,1.5-1.75c1-1,2.35-2.43,3.88-3.94s3-2.86,4-3.82A9.83,9.83,0,0,1,463.54,40a9.842,9.842,0,0,1-1.5,1.75c-1,1-2.35,2.42-3.89,3.94s-3,2.87-4,3.82A10.533,10.533,0,0,1,452.4,51Z" fill="#e0e0e0" />
			<path id="Path_914" data-name="Path 914" d="M391.35,51.11a9.66,9.66,0,0,1-1.76-1.5c-1-1-2.42-2.35-3.93-3.88s-2.86-2.95-3.82-4A9.31,9.31,0,0,1,380.37,40a9.839,9.839,0,0,1,1.75,1.5c1,1,2.42,2.35,3.94,3.89s2.87,3,3.82,4a10.07,10.07,0,0,1,1.47,1.72Z" fill="#e0e0e0" />
			<path id="Path_915" data-name="Path 915" d="M452.4,114.43a2.077,2.077,0,0,1,0-.31v-4.33c0-3,0-7.4-.06-13,0-11.14-.07-27-.12-46l.24.23H391.58l.27-.27v63.64l-.23-.24,44.09.12,12.38.06h.09l-12.33.06-44.23.12h-.23V50.37h61.39v.24c-.05,19.07-.09,35-.12,46.18,0,5.55-.05,9.92-.06,12.92v4.25A.991.991,0,0,1,452.4,114.43Z" fill="#e0e0e0" />
			<rect id="Rectangle_109" data-name="Rectangle 109" width="20.37" height="20.37" transform="translate(411.85 72.42)" fill="#ebebeb" />
		</g>
		<g id="freepik--Floor--inject-13">
			<path id="Path_916" data-name="Path 916" d="M42.88,467.27c0-.15,92.87-.26,207.41-.26s207.42.11,207.42.26-92.85.26-207.42.26S42.88,467.41,42.88,467.27Z" fill="#263238" />
		</g>
		<g id="freepik--Plant--inject-13">
			<path id="Path_917" data-name="Path 917" d="M84.08,429.83s-5.44-37.39-5-59.14,0-46.22,0-46.22h2.5s-1.69,43.17.15,69.21,6.71,36.15,6.71,36.15H84.08" fill="#263238" />
			<path id="Path_918" data-name="Path 918" d="M100.28,282.41A6.68,6.68,0,0,0,98,279.06c-1.59-1-3.67-.58-5.44,0C85,281.78,78.26,295.9,75.2,303.32l10,33.87C103.4,320.36,106.54,298.28,100.28,282.41Z" fill="#455a64" />
			<path id="Path_919" data-name="Path 919" d="M97.41,280.43a2.29,2.29,0,0,1-.15.45l-.49,1.23c-.44,1.07-1.06,2.62-1.8,4.54a156.682,156.682,0,0,0-5,15.28c-1.63,6.06-2.84,11.64-3.55,15.7-.36,2-.63,3.68-.8,4.82-.09.53-.16,1-.21,1.31a1.689,1.689,0,0,1-.11.45,3.169,3.169,0,0,1,0-.46l.14-1.33c.12-1.14.35-2.8.67-4.84a145.728,145.728,0,0,1,3.44-15.76,143.431,143.431,0,0,1,5.18-15.28c.77-1.91,1.43-3.45,1.92-4.49.23-.49.42-.89.56-1.21A2.1,2.1,0,0,1,97.41,280.43Z" fill="#263238" />
			<path id="Path_920" data-name="Path 920" d="M80.79,345.31c-9.42-5.21-15-15-15.5-25.75-.36-7.52,1.95-14.89,4.57-21.95A2.83,2.83,0,0,1,70.92,296a2.7,2.7,0,0,1,2.57.4c6.85,3.9,11,11.33,13.2,18.89a38.12,38.12,0,0,1,1.55,15.54,25.84,25.84,0,0,1-7.45,14.46" fill="#455a64" />
			<path id="Path_921" data-name="Path 921" d="M80.79,345.31a1.48,1.48,0,0,1,0-.45v-1.3c0-1.13,0-2.77-.14-4.78a131.837,131.837,0,0,0-1.74-15.64c-1-6.07-2.32-11.5-3.25-15.43-.46-1.92-.84-3.49-1.12-4.65-.12-.51-.21-.93-.29-1.27a1.5,1.5,0,0,1-.07-.45,3.2,3.2,0,0,1,.15.43l.37,1.25c.31,1.09.74,2.66,1.24,4.62,1,3.91,2.32,9.34,3.37,15.43a113.848,113.848,0,0,1,1.64,15.7c.05,2,.05,3.66,0,4.79a8.265,8.265,0,0,1-.06,1.3,2,2,0,0,1-.1.45Z" fill="#263238" />
			<g id="Group_10392" data-name="Group 10392" opacity="0.3">
				<path id="Path_922" data-name="Path 922" d="M80.79,345.31c-9.42-5.21-15-15-15.5-25.75-.36-7.52,1.95-14.89,4.57-21.95A2.83,2.83,0,0,1,70.92,296a2.7,2.7,0,0,1,2.57.4c6.85,3.9,11,11.33,13.2,18.89a38.12,38.12,0,0,1,1.55,15.54,25.84,25.84,0,0,1-7.45,14.46" />
			</g>
			<path id="Path_923" data-name="Path 923" d="M91.42,402.51c9.27,2,16.9,8.58,25.85,11.76,5.92,2.1,12.61,2.85,17.34,7-1.14-2.86-3.83-4.76-6.44-6.4a115.31,115.31,0,0,0-23.43-11.18c-4.21-1.46-8.77-2.67-13.06-1.47" fill="#455a64" />
			<path id="Path_924" data-name="Path 924" d="M78,410.77c-11.61-.19-23.84-10.07-35.4-10.66,12.1-3.91,29.42-.72,35.4,10.66" fill="#455a64" />
			<path id="Path_925" data-name="Path 925" d="M82.55,382.91c5.89-2.12,12.37-2.22,18.56-1.26s12.18,3,18.13,4.93c-.6-4-3.86-7.06-6.93-9.74a48.1,48.1,0,0,0-7.28-5.6,16.22,16.22,0,0,0-8.72-2.46,13.81,13.81,0,0,0-9.64,4.86,16,16,0,0,0-4.12,9.27" fill="#455a64" />
			<path id="Path_926" data-name="Path 926" d="M58.71,370.09c-7.31-6.24-18.38-5.63-28-5.41a227.67,227.67,0,0,1,43.41,27.05C74.52,384.94,68,378,58.71,370.09Z" fill="#455a64" />
			<g id="Group_10393" data-name="Group 10393" opacity="0.3">
				<path id="Path_927" data-name="Path 927" d="M58.71,370.09c-7.31-6.24-18.38-5.63-28-5.41a227.67,227.67,0,0,1,43.41,27.05C74.52,384.94,68,378,58.71,370.09Z" />
			</g>
			<path id="Path_928" data-name="Path 928" d="M85.83,361.48a81.846,81.846,0,0,1,11.25-6.54c3.84-1.74,7.43-4.53,11.15-6.54,4.82-2.61,9-6.24,13.42-9.47s9.28-6.16,14.69-7a28.85,28.85,0,0,0-13.37.77,86.778,86.778,0,0,0-12.59,4.9c-5.7,2.57-11.5,5.2-16.16,9.37s-8.88,8.28-8.39,14.52" fill="#455a64" />
			<path id="Path_929" data-name="Path 929" d="M117.06,410.77a1.329,1.329,0,0,1-.37-.16l-1-.52c-.88-.47-2.13-1.16-3.71-1.95-.79-.42-1.65-.85-2.6-1.29s-1.94-.92-3-1.38A44,44,0,0,0,99.21,403a15.38,15.38,0,0,0-7.45-.19,21.421,21.421,0,0,0-3.16.94A16.269,16.269,0,0,0,86.06,405a16.439,16.439,0,0,0-3.21,2.65c-.67.72-1,1.16-1,1.13a1.929,1.929,0,0,1,.21-.34c.15-.21.38-.52.7-.9a15.059,15.059,0,0,1,3.17-2.79,15.833,15.833,0,0,1,2.57-1.38,20.35,20.35,0,0,1,3.2-1,15.469,15.469,0,0,1,7.63.15,42.2,42.2,0,0,1,7.21,2.55c1.08.48,2.09.95,3,1.42s1.81.91,2.58,1.34c1.57.83,2.8,1.56,3.66,2.07l1,.59a2.186,2.186,0,0,1,.28.28Z" fill="#263238" />
			<path id="Path_930" data-name="Path 930" d="M69.35,405a2.56,2.56,0,0,1,.73.21,16.6,16.6,0,0,1,1.89.82,23,23,0,0,1,9.7,9.32,18.2,18.2,0,0,1,.9,1.86,2.48,2.48,0,0,1,.24.72c-.07,0-.5-.95-1.39-2.43a25.84,25.84,0,0,0-9.59-9.21C70.32,405.48,69.32,405.08,69.35,405Z" fill="#263238" />
			<path id="Path_931" data-name="Path 931" d="M43.66,369.51a3.122,3.122,0,0,1,.49.15l1.39.49,2.2.81c.86.32,1.79.79,2.84,1.25a67.4,67.4,0,0,1,15.12,9.64,73.824,73.824,0,0,1,7,6.94,77.766,77.766,0,0,1,5,6.34c1.33,1.88,2.33,3.44,3,4.52l.8,1.25c.18.28.27.44.25.45a2.5,2.5,0,0,1-.32-.4c-.21-.27-.5-.68-.86-1.21-.73-1.05-1.77-2.59-3.13-4.44s-3.05-4-5.05-6.26a78.221,78.221,0,0,0-7-6.88,70.929,70.929,0,0,0-15-9.68c-1-.48-2-1-2.81-1.3l-2.16-.88-1.37-.56a2.471,2.471,0,0,1-.39-.23Z" fill="#263238" />
			<path id="Path_932" data-name="Path 932" d="M100,376.39a5,5,0,0,1-.92-.12l-1.07-.2c-.42-.08-.9-.08-1.43-.14a14.45,14.45,0,0,0-11.61,4.27,16.481,16.481,0,0,0-2.33,2.89,22.69,22.69,0,0,0-1.6,3.05,3.45,3.45,0,0,1,.23-.91,13.26,13.26,0,0,1,1.12-2.29,15.13,15.13,0,0,1,2.31-3,14,14,0,0,1,3.71-2.8,14.19,14.19,0,0,1,8.2-1.5c.53.08,1,.1,1.44.2l1.06.27A3.582,3.582,0,0,1,100,376.39Z" fill="#263238" />
			<path id="Path_933" data-name="Path 933" d="M111.64,340.18a2,2,0,0,1-.44.27l-1.29.71c-1.13.6-2.75,1.5-4.72,2.66s-4.27,2.62-6.73,4.38A55.92,55.92,0,0,0,91,354.49a19,19,0,0,0-3.07,4c-.76,1.46-1.49,2.87-2.16,4.22A77.709,77.709,0,0,0,82.5,370a44,44,0,0,0-1.57,5.17c-.3,1.24-.41,1.94-.45,1.94a2.5,2.5,0,0,1,0-.52,8.7,8.7,0,0,1,.24-1.45,37.421,37.421,0,0,1,1.45-5.24,69.841,69.841,0,0,1,3.16-7.41c.66-1.37,1.38-2.79,2.14-4.25a19.281,19.281,0,0,1,3.13-4.08,55.112,55.112,0,0,1,7.59-6.32c2.48-1.74,4.82-3.17,6.8-4.31s3.64-2,4.79-2.56l1.34-.63a3.208,3.208,0,0,1,.52-.16Z" fill="#263238" />
			<path id="Path_934" data-name="Path 934" d="M79.08,375.34a4.25,4.25,0,0,1-.23-1c-.14-.71-.31-1.61-.51-2.68A76.631,76.631,0,0,0,76.15,363a76.382,76.382,0,0,0-3.32-8.36l-1.13-2.48a3.931,3.931,0,0,1-.37-.94,6.23,6.23,0,0,1,.51.86c.31.57.74,1.4,1.25,2.44a61.15,61.15,0,0,1,3.45,8.35,59.85,59.85,0,0,1,2.09,8.79c.18,1.14.31,2.07.38,2.71A4.68,4.68,0,0,1,79.08,375.34Z" fill="#263238" />
			<path id="Path_935" data-name="Path 935" d="M78.24,348.92a31.34,31.34,0,0,0-3.78-12.53,41.36,41.36,0,0,0-28-20.92l26,38.7,3.36,6.91C78,357.33,78.53,353.31,78.24,348.92Z" fill="#455a64" />
			<rect id="Rectangle_110" data-name="Rectangle 110" width="60.39" height="10.7" transform="translate(55.1 425.2)" fill="#0dbdb8" />
			<path id="Path_936" data-name="Path 936" d="M59.62,433.78l5.14,33.21h40.09l6.13-33.21Z" fill="#0dbdb8" />
			<path id="Path_937" data-name="Path 937" d="M115.46,435.92c0,.12-13.62.21-30.42.21s-30.42-.09-30.42-.21,13.61-.21,30.42-.21S115.46,435.8,115.46,435.92Z" fill="#263238" />
		</g>
		<g id="freepik--Notebook--inject-13">
			<path id="Path_938" data-name="Path 938" d="M377.05,386.43l-242.2,13a6.23,6.23,0,0,1-6.54-5.88L111.47,79.75a6.22,6.22,0,0,1,5.88-6.54l242.19-13a6.22,6.22,0,0,1,6.54,5.88l16.84,313.8a6.2,6.2,0,0,1-5.87,6.54Z" fill="#0dbdb8" />
			<path id="Path_939" data-name="Path 939" d="M372.53,386.67,145.47,398.86a5.48,5.48,0,0,1-5.77-5.18L122.94,81.4a5.48,5.48,0,0,1,5.18-5.77L355.19,63.44A5.49,5.49,0,0,1,361,68.62l16.75,312.29a5.47,5.47,0,0,1-5.22,5.76Z" fill="#e0e0e0" />
			<path id="Path_940" data-name="Path 940" d="M365,387.08,137.92,399.26a5.47,5.47,0,0,1-5.77-5.18L115.39,81.8a5.49,5.49,0,0,1,5.18-5.8L347.64,63.85A5.49,5.49,0,0,1,353.41,69l16.76,312.28a5.48,5.48,0,0,1-5.17,5.8Z" fill="#fff" />
			<path id="Path_941" data-name="Path 941" d="M365,387.08h.18a1.7,1.7,0,0,0,.53-.07,5.22,5.22,0,0,0,2-.81,5.56,5.56,0,0,0,2.14-2.72c.54-1.33.21-3,.16-4.85-.41-7.41-1-18.35-1.79-32.42-1.53-28.17-3.75-68.92-6.48-119.27-1.37-25.18-2.86-52.76-4.46-82.37q-1.19-22.2-2.47-45.88-.64-11.84-1.29-24c-.12-2-.2-4.08-.36-6.08a5.25,5.25,0,0,0-3.6-4.25,7.6,7.6,0,0,0-3-.18l-3.1.16-6.22.34L120.61,76.29a5.26,5.26,0,0,0-4.85,4.14,5.85,5.85,0,0,0-.09,1.73l.1,1.79.19,3.58q.39,7.17.77,14.28l1.51,28.27q1.52,28.06,3,55.27c1.94,36.23,3.81,71.18,5.6,104.48s3.46,64.93,5,94.54c.09,1.85.19,3.69.29,5.53l.15,2.74a11.56,11.56,0,0,0,.29,2.67,5.27,5.27,0,0,0,3.56,3.53,6.659,6.659,0,0,0,2.6.17l2.69-.14,21-1.12L202,395.64l119.27-6.31,32.43-1.7,8.43-.42c1.9-.1,2.88-.13,2.88-.13l-2.88.18-8.43.48-32.42,1.79L202,396l-39.52,2.14-21,1.13-2.68.15a7.331,7.331,0,0,1-2.75-.18,5.68,5.68,0,0,1-3.84-3.82,11.42,11.42,0,0,1-.32-2.76l-.15-2.75c-.1-1.83-.2-3.68-.3-5.53-1.59-29.61-3.3-61.24-5.09-94.54s-3.67-68.24-5.62-104.48q-1.47-27.17-3-55.26-.77-14-1.52-28.27-.39-7.12-.77-14.28L115.25,84l-.1-1.8a6.419,6.419,0,0,1,.1-1.85,5.77,5.77,0,0,1,5.34-4.56l216.6-11.6,6.23-.33,3.09-.17a7.85,7.85,0,0,1,3.15.21,5.73,5.73,0,0,1,3.93,4.64c.16,2.08.23,4.08.35,6.12q.66,12.17,1.29,24,1.26,23.67,2.45,45.89c1.57,29.61,3,57.19,4.38,82.37,2.67,50.35,4.83,91.11,6.32,119.27.74,14.08,1.31,25,1.69,32.44.05,1.83.37,3.52-.18,4.88a5.51,5.51,0,0,1-2.19,2.73,5.07,5.07,0,0,1-2,.79,4.943,4.943,0,0,1-.7.05Z" fill="#263238" />
			<circle id="Ellipse_35" data-name="Ellipse 35" cx="4.96" cy="4.96" r="4.96" transform="translate(123.98 95.71)" fill="#263238" />
			<rect id="Rectangle_111" data-name="Rectangle 111" width="28.47" height="2.6" rx="0.76" transform="translate(102.184 98.613) rotate(-3.07)" fill="#e0e0e0" />
			<path id="Path_942" data-name="Path 942" d="M130,99.73a1,1,0,0,0,.49-.3.79.79,0,0,0,.13-.67,4.478,4.478,0,0,0-.08-1,.7.7,0,0,0-.88-.49l-1.52.1-3.71.24L103,98.84a.5.5,0,0,0-.41.26.57.57,0,0,0-.06.25v1.14a.49.49,0,0,0,.29.39.66.66,0,0,0,.25,0h1.14l1.5-.08,5.7-.29,9.66-.46,6.51-.27,1.78-.05a3.08,3.08,0,0,1,.62,0,2.69,2.69,0,0,1-.62.09l-1.77.14-6.5.43-9.65.58-5.71.32-1.49.08H103.1a.94.94,0,0,1-.49-.08,1,1,0,0,1-.6-.79l-.05-.8v-.39a1.16,1.16,0,0,1,.12-.51,1,1,0,0,1,.85-.54l21.48-1.08,3.71-.16,1.52-.06a1.08,1.08,0,0,1,.72.13.88.88,0,0,1,.38.57v1a1,1,0,0,1-.21.75C130.26,99.81,130,99.73,130,99.73Z" fill="#263238" />
			<rect id="Rectangle_112" data-name="Rectangle 112" width="28.47" height="2.6" rx="0.76" transform="translate(102.288 103.371) rotate(-3.07)" fill="#e0e0e0" />
			<path id="Path_943" data-name="Path 943" d="M130.11,104.48a1.08,1.08,0,0,0,.49-.3.79.79,0,0,0,.13-.67,4.434,4.434,0,0,0-.08-1,.7.7,0,0,0-.88-.49l-1.52.11-3.71.24-21.47,1.22a.52.52,0,0,0-.42.27.43.43,0,0,0-.05.25v1.13a.49.49,0,0,0,.29.39.42.42,0,0,0,.25,0h1.14l1.5-.08,5.7-.29,9.66-.46,6.51-.27h1.78a2.31,2.31,0,0,1,.62,0,3,3,0,0,1-.62.08l-1.77.15-6.5.43-9.65.57-5.71.32-1.49.09h-1.14a1.07,1.07,0,0,1-.49-.09,1,1,0,0,1-.6-.79v-1.18a1,1,0,0,1,.11-.51,1.05,1.05,0,0,1,.85-.55L124.52,102l3.71-.16,1.52-.06a1.08,1.08,0,0,1,.72.13.86.86,0,0,1,.38.56v1a.88.88,0,0,1-.21.74C130.37,104.56,130.09,104.48,130.11,104.48Z" fill="#263238" />
			<path id="Path_944" data-name="Path 944" d="M134.92,119.47a5,5,0,1,1-5.22-4.69,5,5,0,0,1,5.22,4.69Z" fill="#263238" />
			<rect id="Rectangle_113" data-name="Rectangle 113" width="28.47" height="2.6" rx="0.76" transform="translate(102.88 117.609) rotate(-3.07)" fill="#e0e0e0" />
			<path id="Path_945" data-name="Path 945" d="M130.7,118.72a1.05,1.05,0,0,0,.49-.31.77.77,0,0,0,.13-.66,4.434,4.434,0,0,0-.08-1,.7.7,0,0,0-.88-.49l-1.52.11-3.71.23-21.48,1.23a.49.49,0,0,0-.41.27.51.51,0,0,0-.06.25v1.13a.49.49,0,0,0,.29.39.51.51,0,0,0,.25,0h1.14l1.5-.08,5.7-.29,9.66-.46,6.51-.27h1.78a2.36,2.36,0,0,1,.62,0,4.679,4.679,0,0,1-.62.08l-1.77.15-6.5.43-9.65.57-5.71.32-1.49.09h-1.14a1.07,1.07,0,0,1-.49-.09,1,1,0,0,1-.6-.79v-1.19a1.08,1.08,0,0,1,.12-.5,1,1,0,0,1,.85-.55l21.48-1.07,3.71-.16,1.52-.06a1.08,1.08,0,0,1,.72.13.86.86,0,0,1,.38.56v1a.93.93,0,0,1-.21.74A.511.511,0,0,1,130.7,118.72Z" fill="#263238" />
			<rect id="Rectangle_114" data-name="Rectangle 114" width="28.47" height="2.6" rx="0.76" transform="translate(102.973 122.347) rotate(-3.07)" fill="#e0e0e0" />
			<path id="Path_946" data-name="Path 946" d="M130.8,123.46a1,1,0,0,0,.49-.3.78.78,0,0,0,.13-.67,4.478,4.478,0,0,0-.08-1,.7.7,0,0,0-.88-.49l-1.52.1-3.71.24-21.47,1.23a.49.49,0,0,0-.42.27.4.4,0,0,0,0,.24v1.14a.49.49,0,0,0,.29.39.66.66,0,0,0,.25,0h1.14l1.5-.08,5.7-.29,9.66-.46,6.51-.27h1.78a3,3,0,0,1,.62,0,2.56,2.56,0,0,1-.62.09l-1.76.14-6.51.43-9.65.58-5.7.32-1.5.08h-1.14a.94.94,0,0,1-.49-.08,1,1,0,0,1-.6-.79v-1.19a1,1,0,0,1,.96-1.05L125.21,121l3.71-.16,1.52-.06a1.08,1.08,0,0,1,.72.13.88.88,0,0,1,.38.57c0,.41,0,.73,0,1a.92.92,0,0,1-.21.75A.62.62,0,0,1,130.8,123.46Z" fill="#263238" />
			<circle id="Ellipse_36" data-name="Ellipse 36" cx="4.96" cy="4.96" r="4.96" transform="translate(126.09 134.93)" fill="#263238" />
			<rect id="Rectangle_115" data-name="Rectangle 115" width="28.47" height="2.6" rx="0.76" transform="translate(103.958 137.762) rotate(-3.07)" fill="#e0e0e0" />
			<path id="Path_947" data-name="Path 947" d="M131.78,138.88a1.05,1.05,0,0,0,.49-.31.82.82,0,0,0,.14-.67,4.033,4.033,0,0,0-.09-1,.7.7,0,0,0-.88-.49l-1.52.11-3.71.23L104.74,138a.49.49,0,0,0-.42.27.4.4,0,0,0,0,.24v1.14a.49.49,0,0,0,.29.39.51.51,0,0,0,.25,0H106l1.5-.08,5.7-.29,9.66-.46,6.51-.27h1.78a2.31,2.31,0,0,1,.62,0,4.35,4.35,0,0,1-.62.08l-1.76.14-6.51.44-9.65.57-5.7.32-1.5.08-.76.05h-.38a1.07,1.07,0,0,1-.49-.09,1,1,0,0,1-.6-.79v-1.19a1.012,1.012,0,0,1,.96-1.05l21.48-1.07,3.71-.17,1.52-.06a1.14,1.14,0,0,1,.72.14.83.83,0,0,1,.38.56c0,.41,0,.73,0,1a.89.89,0,0,1-.21.74C132,139,131.76,138.88,131.78,138.88Z" fill="#263238" />
			<rect id="Rectangle_116" data-name="Rectangle 116" width="28.47" height="2.6" rx="0.76" transform="translate(104.072 142.509) rotate(-3.07)" fill="#e0e0e0" />
			<path id="Path_948" data-name="Path 948" d="M131.88,143.62a1,1,0,0,0,.5-.3.87.87,0,0,0,.13-.67,3.994,3.994,0,0,0-.09-1,.7.7,0,0,0-.88-.49l-1.52.1-3.71.24-21.47,1.23a.51.51,0,0,0-.42.26.56.56,0,0,0,0,.25v1.14a.51.51,0,0,0,.29.39.68.68,0,0,0,.26,0h1.13l1.5-.08,5.7-.29,9.66-.46,6.52-.27,1.77-.05a3,3,0,0,1,.62,0,2.561,2.561,0,0,1-.62.09l-1.76.14-6.51.43-9.65.58-5.7.32-1.5.08h-1.14a.94.94,0,0,1-.49-.08,1,1,0,0,1-.59-.79V143.2a1,1,0,0,1,1-1l21.48-1.08L130,141l1.53-.06a1.06,1.06,0,0,1,.71.13.88.88,0,0,1,.38.57v1a1,1,0,0,1-.2.75.64.64,0,0,1-.54.23Z" fill="#263238" />
			<path id="Path_949" data-name="Path 949" d="M137.09,159.78a5,5,0,1,1-5.23-4.68A5,5,0,0,1,137.09,159.78Z" fill="#263238" />
			<rect id="Rectangle_117" data-name="Rectangle 117" width="28.47" height="2.6" rx="0.76" transform="translate(105.046 157.925) rotate(-3.07)" fill="#e0e0e0" />
			<path id="Path_950" data-name="Path 950" d="M132.86,159a.94.94,0,0,0,.5-.3.82.82,0,0,0,.13-.67,9.738,9.738,0,0,0-.09-1,.69.69,0,0,0-.88-.49l-1.52.1-3.71.24-21.47,1.23a.49.49,0,0,0-.47.51v1.14a.51.51,0,0,0,.29.39.53.53,0,0,0,.26,0h1.13l1.5-.08,5.7-.29,9.66-.46,6.52-.27h1.77a3.719,3.719,0,0,1,.62,0,2.56,2.56,0,0,1-.62.09l-1.76.14-6.51.44-9.65.57-5.7.32-1.5.08h-1.14a1.07,1.07,0,0,1-.49-.09,1,1,0,0,1-.59-.79l-.05-.79v-.4a1.012,1.012,0,0,1,.96-1.05l21.48-1.08,3.71-.16,1.53-.06a1.07,1.07,0,0,1,.71.14.83.83,0,0,1,.38.56v1a.94.94,0,0,1-.2.75C133.12,159.12,132.84,159,132.86,159Z" fill="#263238" />
			<rect id="Rectangle_118" data-name="Rectangle 118" width="28.47" height="2.6" rx="0.76" transform="translate(105.15 162.662) rotate(-3.07)" fill="#e0e0e0" />
			<path id="Path_951" data-name="Path 951" d="M133,163.78a.94.94,0,0,0,.5-.3.83.83,0,0,0,.13-.67,3.994,3.994,0,0,0-.09-1,.69.69,0,0,0-.88-.49l-1.52.1-3.71.24-21.47,1.23a.49.49,0,0,0-.41.26.44.44,0,0,0-.06.25v1.14a.48.48,0,0,0,.29.38.53.53,0,0,0,.26.05h1.14l1.49-.08,5.7-.29,9.66-.47,6.52-.26,1.77-.05a2.93,2.93,0,0,1,.62,0,2.518,2.518,0,0,1-.61.09l-1.77.14-6.51.43-9.65.58-5.7.32-1.5.08h-1.14a1.08,1.08,0,0,1-.49-.08,1,1,0,0,1-.59-.79V163.4a1,1,0,0,1,1-1l21.48-1.08,3.72-.16,1.52-.06a1,1,0,0,1,.71.13.88.88,0,0,1,.38.56v1a.91.91,0,0,1-.2.75.63.63,0,0,1-.59.24Z" fill="#263238" />
			<circle id="Ellipse_37" data-name="Ellipse 37" cx="4.96" cy="4.96" r="4.96" transform="translate(128.25 175.25)" fill="#263238" />
			<rect id="Rectangle_119" data-name="Rectangle 119" width="28.47" height="2.6" rx="0.76" transform="translate(106.124 178.088) rotate(-3.07)" fill="#e0e0e0" />
			<path id="Path_952" data-name="Path 952" d="M133.94,179.19a.94.94,0,0,0,.5-.3.82.82,0,0,0,.13-.67,3.994,3.994,0,0,0-.09-1,.69.69,0,0,0-.88-.49l-1.52.1-3.71.24L106.9,178.3a.48.48,0,0,0-.41.27.41.41,0,0,0-.06.24v1.14a.51.51,0,0,0,.29.39.53.53,0,0,0,.26,0h1.14l1.49-.08,5.71-.29,9.65-.46,6.52-.27,1.77-.05a4.179,4.179,0,0,1,.62,0,2.52,2.52,0,0,1-.61.09l-1.77.14-6.51.43-9.65.58-5.7.32-1.5.08h-1.13A.9.9,0,0,1,106,180v-1.19a1,1,0,0,1,.96-1.05l21.48-1.08,3.72-.16,1.52-.06a1.05,1.05,0,0,1,.71.14.83.83,0,0,1,.38.56v1a.91.91,0,0,1-.2.75C134.2,179.27,133.93,179.2,133.94,179.19Z" fill="#263238" />
			<rect id="Rectangle_120" data-name="Rectangle 120" width="28.47" height="2.6" rx="0.76" transform="translate(106.228 182.825) rotate(-3.07)" fill="#e0e0e0" />
			<path id="Path_953" data-name="Path 953" d="M134,183.94a.94.94,0,0,0,.5-.3.83.83,0,0,0,.13-.67,4,4,0,0,0-.09-1,.69.69,0,0,0-.88-.48l-1.52.1-3.7.24L107,183.05a.48.48,0,0,0-.41.26.54.54,0,0,0-.06.25v1.14a.5.5,0,0,0,.29.38.45.45,0,0,0,.26,0h1.14l1.49-.07,5.71-.29,9.66-.47,6.51-.26,1.77-.05a2.93,2.93,0,0,1,.62,0,2.52,2.52,0,0,1-.61.09l-1.77.14-6.5.43-9.66.57-5.7.33-1.5.08h-1.13a1.12,1.12,0,0,1-.5-.08,1,1,0,0,1-.59-.79v-1.19a1.024,1.024,0,0,1,.96-1.05l21.49-1.08,3.71-.16,1.52-.06a1.09,1.09,0,0,1,.72.13.9.9,0,0,1,.37.56v1a.88.88,0,0,1-.2.74C134.3,184,134,183.94,134,183.94Z" fill="#263238" />
			<path id="Path_954" data-name="Path 954" d="M139.25,200.1a5,5,0,1,1-5.22-4.69A5,5,0,0,1,139.25,200.1Z" fill="#263238" />
			<rect id="Rectangle_121" data-name="Rectangle 121" width="28.47" height="2.6" rx="0.76" transform="translate(107.202 198.241) rotate(-3.07)" fill="#e0e0e0" />
			<path id="Path_955" data-name="Path 955" d="M135,199.35a.94.94,0,0,0,.5-.3.82.82,0,0,0,.13-.67,3.994,3.994,0,0,0-.09-1,.69.69,0,0,0-.88-.49l-1.52.1-3.7.24L108,198.46a.49.49,0,0,0-.41.27.5.5,0,0,0-.06.24v1.14a.51.51,0,0,0,.29.39.75.75,0,0,0,.26,0h1.14l1.49-.08,5.71-.29,9.66-.46,6.51-.27h1.77a2.928,2.928,0,0,1,.62,0,2.521,2.521,0,0,1-.61.09l-1.77.14-6.5.43-9.66.58-5.7.32-1.5.08h-1.13a1,1,0,0,1-1.09-.87v-1.19a1.024,1.024,0,0,1,.96-1.05l21.49-1.08,3.71-.16,1.52-.06a1.09,1.09,0,0,1,.72.13.9.9,0,0,1,.37.57,5.82,5.82,0,0,0,.05,1,1,1,0,0,1-.21.75A.63.63,0,0,1,135,199.35Z" fill="#263238" />
			<rect id="Rectangle_122" data-name="Rectangle 122" width="28.47" height="2.6" rx="0.76" transform="translate(107.306 202.989) rotate(-3.07)" fill="#e0e0e0" />
			<path id="Path_956" data-name="Path 956" d="M135.12,204.1a.94.94,0,0,0,.5-.3.79.79,0,0,0,.13-.67,4.434,4.434,0,0,0-.08-1,.7.7,0,0,0-.89-.48l-1.52.1-3.7.24-21.48,1.22a.51.51,0,0,0-.41.27.54.54,0,0,0-.06.25v1.14a.52.52,0,0,0,.3.38.42.42,0,0,0,.25,0h1.14l1.5-.07,5.7-.3,9.66-.46,6.51-.26h1.77a2.26,2.26,0,0,1,.62,0,2.3,2.3,0,0,1-.61.08l-1.77.15-6.5.43-9.66.57-5.7.32-1.49.09h-1.14a1.06,1.06,0,0,1-.49-.08,1,1,0,0,1-.6-.79v-1.19a1.037,1.037,0,0,1,.97-1.06l21.48-1.07,3.71-.16,1.52-.06a1.09,1.09,0,0,1,.72.13.84.84,0,0,1,.37.56c0,.41,0,.74,0,1a.92.92,0,0,1-.21.74C135.38,204.18,135.11,204.1,135.12,204.1Z" fill="#263238" />
			<path id="Path_957" data-name="Path 957" d="M140.33,220.26a5,5,0,1,1-5.22-4.69A5,5,0,0,1,140.33,220.26Z" fill="#263238" />
			<rect id="Rectangle_123" data-name="Rectangle 123" width="28.47" height="2.6" rx="0.76" transform="translate(108.28 218.394) rotate(-3.07)" fill="#e0e0e0" />
			<path id="Path_958" data-name="Path 958" d="M136.1,219.51a.94.94,0,0,0,.5-.3.79.79,0,0,0,.13-.67,4.478,4.478,0,0,0-.08-1,.71.71,0,0,0-.89-.49l-1.52.1-3.7.24-21.48,1.23a.5.5,0,0,0-.41.26.57.57,0,0,0-.06.25v1.14a.46.46,0,0,0,.29.38.51.51,0,0,0,.25,0h1.14l1.5-.08,5.7-.29,9.66-.47,6.51-.26h1.77a2.929,2.929,0,0,1,.62,0,2.389,2.389,0,0,1-.61.09l-1.77.14-6.5.43-9.66.58-5.7.32-1.49.08h-1.14a.94.94,0,0,1-.49-.08,1,1,0,0,1-.6-.79v-1.19a1.023,1.023,0,0,1,.97-1.05L130.52,217l3.71-.16,1.52-.06a1.08,1.08,0,0,1,.72.13.86.86,0,0,1,.37.56v1a1,1,0,0,1-.21.75.63.63,0,0,1-.53.29Z" fill="#263238" />
			<rect id="Rectangle_124" data-name="Rectangle 124" width="28.47" height="2.6" rx="0.76" transform="translate(108.385 223.142) rotate(-3.07)" fill="#e0e0e0" />
			<path id="Path_959" data-name="Path 959" d="M136.21,224.26a1.05,1.05,0,0,0,.49-.31.76.76,0,0,0,.13-.66,4.434,4.434,0,0,0-.08-1,.7.7,0,0,0-.88-.49l-1.52.11-3.71.23-21.48,1.23a.51.51,0,0,0-.41.27.54.54,0,0,0-.06.25v.38l.05.75a.49.49,0,0,0,.29.39.51.51,0,0,0,.25,0h1.14l1.5-.08,5.7-.29,9.66-.46,6.51-.27h1.78a2.36,2.36,0,0,1,.62,0,3,3,0,0,1-.62.08l-1.77.15-6.5.43-9.65.57-5.71.32-1.49.09h-1.14a1.07,1.07,0,0,1-.49-.09,1,1,0,0,1-.6-.79v-1.18a1.1,1.1,0,0,1,.12-.51,1,1,0,0,1,.85-.55l21.48-1.07,3.71-.16,1.52-.06a1.08,1.08,0,0,1,.72.13.86.86,0,0,1,.38.56v1a.89.89,0,0,1-.21.74C136.47,224.34,136.19,224.26,136.21,224.26Z" fill="#263238" />
			<path id="Path_960" data-name="Path 960" d="M141.41,240.42a5,5,0,1,1-5.22-4.69,5,5,0,0,1,5.22,4.69Z" fill="#263238" />
			<rect id="Rectangle_125" data-name="Rectangle 125" width="28.47" height="2.6" rx="0.76" transform="translate(109.368 238.557) rotate(-3.07)" fill="#e0e0e0" />
			<path id="Path_961" data-name="Path 961" d="M137.19,239.67a1,1,0,0,0,.49-.3.79.79,0,0,0,.13-.67,4.478,4.478,0,0,0-.08-1,.7.7,0,0,0-.88-.48l-1.52.1-3.71.24-21.47,1.23a.51.51,0,0,0-.42.26.54.54,0,0,0-.06.25v1.14a.46.46,0,0,0,.29.38.42.42,0,0,0,.25,0h1.14l1.5-.08,5.7-.29,9.66-.47,6.51-.26h1.78a3,3,0,0,1,.62,0,2.561,2.561,0,0,1-.62.09l-1.77.14-6.5.43-9.65.58-5.71.32-1.49.08h-1.14a1.06,1.06,0,0,1-.49-.08,1,1,0,0,1-.6-.79V239.3a1.13,1.13,0,0,1,.12-.51,1,1,0,0,1,.85-.54l21.48-1.08,3.71-.16,1.52-.06a1.08,1.08,0,0,1,.72.13.88.88,0,0,1,.38.56v1a.92.92,0,0,1-.21.75A.62.62,0,0,1,137.19,239.67Z" fill="#263238" />
			<rect id="Rectangle_126" data-name="Rectangle 126" width="28.47" height="2.6" rx="0.76" transform="translate(109.473 243.304) rotate(-3.07)" fill="#e0e0e0" />
			<path id="Path_962" data-name="Path 962" d="M137.29,244.42a1.05,1.05,0,0,0,.49-.31.8.8,0,0,0,.14-.66,3.955,3.955,0,0,0-.09-1A.7.7,0,0,0,137,242l-1.52.11-3.71.23-21.47,1.23a.49.49,0,0,0-.42.27.42.42,0,0,0,0,.25v1.13a.49.49,0,0,0,.29.39.51.51,0,0,0,.25,0h1.14l1.5-.08,5.7-.29,9.66-.46,6.52-.27h1.77a2.309,2.309,0,0,1,.62,0,4.352,4.352,0,0,1-.62.08l-1.76.15-6.51.43-9.65.57-5.7.32-1.5.09h-1.14a1.07,1.07,0,0,1-.49-.09,1,1,0,0,1-.6-.79v-1.19a1.012,1.012,0,0,1,.96-1.05l21.48-1.07,3.71-.16,1.52-.06a1.08,1.08,0,0,1,.72.13.86.86,0,0,1,.38.56v1a.93.93,0,0,1-.2.74C137.55,244.5,137.27,244.42,137.29,244.42Z" fill="#263238" />
			<path id="Path_963" data-name="Path 963" d="M142.49,260.58a5,5,0,1,1-5.22-4.69A5,5,0,0,1,142.49,260.58Z" fill="#263238" />
			<rect id="Rectangle_127" data-name="Rectangle 127" width="28.47" height="2.6" rx="0.76" transform="translate(110.457 258.72) rotate(-3.07)" fill="#e0e0e0" />
			<path id="Path_964" data-name="Path 964" d="M138.27,259.83a1,1,0,0,0,.5-.3.87.87,0,0,0,.13-.67,9.742,9.742,0,0,0-.09-1,.69.69,0,0,0-.88-.48l-1.52.1-3.71.24-21.47,1.23a.49.49,0,0,0-.42.26.53.53,0,0,0,0,.25v1.14a.48.48,0,0,0,.29.38.421.421,0,0,0,.25,0h1.14l1.5-.07,5.7-.29,9.66-.47,6.52-.26,1.77-.05a3,3,0,0,1,.62,0,2.339,2.339,0,0,1-.62.08l-1.76.15-6.51.43-9.65.57-5.7.33-1.5.08h-1.14a1.06,1.06,0,0,1-.49-.08,1,1,0,0,1-.6-.79v-1.19a1,1,0,0,1,.96-1.05l21.48-1.08,3.71-.16,1.53-.06a1.06,1.06,0,0,1,.71.13.88.88,0,0,1,.38.56v1a.91.91,0,0,1-.2.74C138.53,259.91,138.25,259.83,138.27,259.83Z" fill="#263238" />
			<rect id="Rectangle_128" data-name="Rectangle 128" width="28.47" height="2.6" rx="0.76" transform="translate(110.551 263.467) rotate(-3.07)" fill="#e0e0e0" />
			<path id="Path_965" data-name="Path 965" d="M138.37,264.58a1,1,0,0,0,.5-.31.82.82,0,0,0,.13-.67,9.99,9.99,0,0,0-.09-1,.69.69,0,0,0-.88-.49l-1.52.11-3.71.23-21.47,1.23a.49.49,0,0,0-.47.51v1.14a.51.51,0,0,0,.29.39.53.53,0,0,0,.26,0h1.13l1.5-.08,5.7-.29,9.66-.46,6.52-.27h1.77a2.31,2.31,0,0,1,.62,0,4.348,4.348,0,0,1-.62.08l-1.76.14-6.51.44-9.65.57-5.7.32-1.5.08-.76.05h-.38a1.07,1.07,0,0,1-.49-.09,1,1,0,0,1-.59-.79v-1.19a1.012,1.012,0,0,1,.96-1.05l21.48-1.07,3.71-.17,1.53-.06a1.13,1.13,0,0,1,.71.14.83.83,0,0,1,.38.56c0,.41,0,.73,0,1a.93.93,0,0,1-.2.74C138.63,264.66,138.35,264.58,138.37,264.58Z" fill="#263238" />
			<path id="Path_966" data-name="Path 966" d="M143.58,280.74a5,5,0,1,1-5.22-4.69A5,5,0,0,1,143.58,280.74Z" fill="#263238" />
			<rect id="Rectangle_129" data-name="Rectangle 129" width="28.47" height="2.6" rx="0.76" transform="translate(111.535 278.873) rotate(-3.07)" fill="#e0e0e0" />
			<path id="Path_967" data-name="Path 967" d="M139.35,280a.94.94,0,0,0,.5-.3.83.83,0,0,0,.15-.7,3.955,3.955,0,0,0-.09-1,.69.69,0,0,0-.88-.49l-1.52.11-3.71.24-21.47,1.22a.49.49,0,0,0-.47.52v1.13a.51.51,0,0,0,.29.39.44.44,0,0,0,.26,0h1.13l1.5-.08,5.7-.29,9.66-.46L137,280h1.77a2.261,2.261,0,0,1,.62,0,3,3,0,0,1-.61.08l-1.77.15-6.51.43-9.65.57-5.7.32-1.5.09h-1.14a1.059,1.059,0,0,1-.49-.08,1,1,0,0,1-.59-.8v-1.18a1,1,0,0,1,.11-.51,1.05,1.05,0,0,1,.85-.55l21.48-1.07,3.71-.16,1.53-.06a1,1,0,0,1,.71.13.86.86,0,0,1,.38.56c0,.41,0,.74,0,1a.91.91,0,0,1-.2.74C139.61,280.07,139.33,280,139.35,280Z" fill="#263238" />
			<rect id="Rectangle_130" data-name="Rectangle 130" width="28.47" height="2.6" rx="0.76" transform="translate(111.639 283.631) rotate(-3.07)" fill="#e0e0e0" />
			<path id="Path_968" data-name="Path 968" d="M139.45,284.73a.94.94,0,0,0,.5-.3.82.82,0,0,0,.13-.67,3.994,3.994,0,0,0-.09-1,.69.69,0,0,0-.88-.49l-1.52.1-3.71.24-21.47,1.23a.48.48,0,0,0-.41.27.41.41,0,0,0-.06.24v1.14a.51.51,0,0,0,.29.39.53.53,0,0,0,.26,0h1.14l1.49-.08,5.71-.29,9.65-.46,6.52-.27h1.77a3.639,3.639,0,0,1,.62,0,2.521,2.521,0,0,1-.61.09l-1.77.14-6.51.44-9.65.57-5.7.32-1.5.08h-1.13a1.11,1.11,0,0,1-.5-.09,1,1,0,0,1-.59-.79v-1.19a1.012,1.012,0,0,1,.96-1.05l21.48-1.08,3.72-.16,1.52-.06a1.05,1.05,0,0,1,.71.14.83.83,0,0,1,.38.56v1a.9.9,0,0,1-.2.75C139.71,284.82,139.44,284.74,139.45,284.73Z" fill="#263238" />
			<path id="Path_969" data-name="Path 969" d="M144.66,300.9a5,5,0,1,1-5.22-4.69A5,5,0,0,1,144.66,300.9Z" fill="#263238" />
			<rect id="Rectangle_131" data-name="Rectangle 131" width="28.47" height="2.6" rx="0.76" transform="translate(112.613 299.036) rotate(-3.07)" fill="#e0e0e0" />
			<path id="Path_970" data-name="Path 970" d="M140.43,300.15a1,1,0,0,0,.5-.31.8.8,0,0,0,.13-.66,3.955,3.955,0,0,0-.09-1,.69.69,0,0,0-.88-.49l-1.52.11-3.71.23-21.47,1.23a.5.5,0,0,0-.41.27.44.44,0,0,0-.06.25v1.13a.51.51,0,0,0,.29.39.53.53,0,0,0,.26,0h1.14l1.49-.08,5.71-.29,9.65-.46,6.52-.27h1.77a2.261,2.261,0,0,1,.62,0,3,3,0,0,1-.61.08l-1.77.15-6.51.43-9.65.57-5.7.32-1.5.09H113.5a1.11,1.11,0,0,1-.5-.09,1,1,0,0,1-.59-.79v-1.18a1.013,1.013,0,0,1,.96-1.06l21.48-1.07,3.72-.16,1.52-.06a1,1,0,0,1,.71.13.86.86,0,0,1,.38.56c0,.41,0,.73,0,1a.89.89,0,0,1-.2.74C140.69,300.23,140.42,300.15,140.43,300.15Z" fill="#263238" />
			<rect id="Rectangle_132" data-name="Rectangle 132" width="28.47" height="2.6" rx="0.76" transform="translate(112.717 303.784) rotate(-3.07)" fill="#e0e0e0" />
			<path id="Path_971" data-name="Path 971" d="M140.53,304.89a.94.94,0,0,0,.5-.3.82.82,0,0,0,.13-.67,3.994,3.994,0,0,0-.09-1,.69.69,0,0,0-.88-.49l-1.52.1-3.7.24L113.49,304a.49.49,0,0,0-.41.27.5.5,0,0,0-.06.24v1.14a.51.51,0,0,0,.29.39.57.57,0,0,0,.26,0h1.14l1.49-.08,5.71-.29,9.66-.46,6.51-.27,1.77-.05a4.18,4.18,0,0,1,.62,0,2.519,2.519,0,0,1-.61.09l-1.77.14-6.5.43-9.66.58-5.7.32-1.49.08H113.6a1,1,0,0,1-1.09-.87v-1.19a1.024,1.024,0,0,1,.96-1.05L135,302.4l3.71-.16,1.52-.06a1.09,1.09,0,0,1,.72.13.9.9,0,0,1,.37.57c0,.41,0,.73,0,1a1,1,0,0,1-.21.75C140.79,305,140.52,304.9,140.53,304.89Z" fill="#263238" />
			<path id="Path_972" data-name="Path 972" d="M145.74,321.06a5,5,0,1,1-5.22-4.69A5,5,0,0,1,145.74,321.06Z" fill="#263238" />
			<rect id="Rectangle_133" data-name="Rectangle 133" width="28.47" height="2.6" rx="0.76" transform="translate(113.691 319.199) rotate(-3.07)" fill="#e0e0e0" />
			<path id="Path_973" data-name="Path 973" d="M141.51,320.31a1,1,0,0,0,.5-.31.82.82,0,0,0,.13-.67,4.032,4.032,0,0,0-.09-1,.69.69,0,0,0-.88-.49l-1.52.11-3.7.23-21.48,1.23a.49.49,0,0,0-.41.27.51.51,0,0,0-.06.25v1.13a.53.53,0,0,0,.29.39.569.569,0,0,0,.26,0h1.14l1.49-.08,5.71-.29,9.66-.46,6.51-.27h1.77a2.261,2.261,0,0,1,.62,0,4.32,4.32,0,0,1-.61.08l-1.77.15-6.5.43-9.66.57-5.7.32-1.49.08L115,322h-.38a1.13,1.13,0,0,1-.5-.09,1,1,0,0,1-.59-.79v-1.19a1.037,1.037,0,0,1,.96-1.05l21.49-1.07,3.71-.16,1.52-.06a1.09,1.09,0,0,1,.72.13.88.88,0,0,1,.37.56,5.819,5.819,0,0,0,.05,1,.93.93,0,0,1-.21.74C141.77,320.39,141.5,320.31,141.51,320.31Z" fill="#263238" />
			<rect id="Rectangle_134" data-name="Rectangle 134" width="28.47" height="2.6" rx="0.76" transform="translate(113.795 323.937) rotate(-3.07)" fill="#e0e0e0" />
			<path id="Path_974" data-name="Path 974" d="M141.61,325.05a.94.94,0,0,0,.5-.3.78.78,0,0,0,.13-.67,4.479,4.479,0,0,0-.08-1,.7.7,0,0,0-.88-.49l-1.53.1-3.7.24-21.48,1.23a.5.5,0,0,0-.41.26.57.57,0,0,0-.06.25v1.14a.49.49,0,0,0,.29.39.66.66,0,0,0,.25,0h1.14l1.5-.08,5.7-.29,9.66-.46,6.51-.27L141,325a2.928,2.928,0,0,1,.62,0,2.389,2.389,0,0,1-.61.09l-1.77.14-6.5.43-9.66.58-5.7.32-1.49.08h-1.14a.94.94,0,0,1-.49-.08,1,1,0,0,1-.6-.79l-.05-.8v-.39a1.023,1.023,0,0,1,.97-1.05l21.42-.97,3.71-.16,1.52-.06a1.08,1.08,0,0,1,.72.13.86.86,0,0,1,.37.57,5.818,5.818,0,0,0,.05,1,1,1,0,0,1-.21.75.63.63,0,0,1-.55.26Z" fill="#263238" />
			<path id="Path_975" data-name="Path 975" d="M146.82,341.22a5,5,0,1,1-5.22-4.69A5,5,0,0,1,146.82,341.22Z" fill="#263238" />
			<rect id="Rectangle_135" data-name="Rectangle 135" width="28.47" height="2.6" rx="0.76" transform="translate(114.77 339.352) rotate(-3.07)" fill="#e0e0e0" />
			<path id="Path_976" data-name="Path 976" d="M142.59,340.47a1,1,0,0,0,.5-.31.78.78,0,0,0,.13-.67,4.523,4.523,0,0,0-.08-1,.7.7,0,0,0-.88-.49l-1.53.1-3.7.24-21.48,1.23a.49.49,0,0,0-.41.27.5.5,0,0,0-.06.24v.39l.05.75a.49.49,0,0,0,.29.39.51.51,0,0,0,.25,0h1.14l1.5-.08,5.7-.29,9.66-.46,6.51-.27h1.77a2.262,2.262,0,0,1,.62,0,3.993,3.993,0,0,1-.61.08l-1.77.14-6.5.44-9.65.57-5.71.32-1.49.08H115.7a1.07,1.07,0,0,1-.49-.09,1,1,0,0,1-.6-.79v-1.19a1.08,1.08,0,0,1,.12-.5,1,1,0,0,1,.85-.55L137,338l3.71-.16,1.52-.06a1.14,1.14,0,0,1,.72.14.87.87,0,0,1,.38.56v1a.93.93,0,0,1-.21.74C142.85,340.55,142.58,340.47,142.59,340.47Z" fill="#263238" />
			<rect id="Rectangle_136" data-name="Rectangle 136" width="28.47" height="2.6" rx="0.76" transform="translate(114.873 344.1) rotate(-3.07)" fill="#e0e0e0" />
			<path id="Path_977" data-name="Path 977" d="M142.7,345.21a1,1,0,0,0,.49-.3.79.79,0,0,0,.13-.67,4.478,4.478,0,0,0-.08-1,.7.7,0,0,0-.88-.49l-1.52.1-3.71.24-21.47,1.23a.51.51,0,0,0-.42.26.43.43,0,0,0,0,.25v1.14a.46.46,0,0,0,.29.38.51.51,0,0,0,.25,0h1.14l1.5-.08,5.7-.29,9.66-.47,6.51-.26,1.78-.05a3,3,0,0,1,.62,0,2.561,2.561,0,0,1-.62.09l-1.77.14-6.5.43-9.65.58-5.71.32-1.49.08h-1.14a.94.94,0,0,1-.49-.08,1,1,0,0,1-.6-.79v-1.19a1,1,0,0,1,1-1.05l21.48-1.08,3.71-.16,1.52-.06a1.08,1.08,0,0,1,.72.13.88.88,0,0,1,.38.56v1a.92.92,0,0,1-.21.75.62.62,0,0,1-.62.34Z" fill="#263238" />
			<path id="Path_978" data-name="Path 978" d="M147.9,361.37a5,5,0,1,1-5.22-4.68,5,5,0,0,1,5.22,4.68Z" fill="#263238" />
			<rect id="Rectangle_137" data-name="Rectangle 137" width="28.47" height="2.6" rx="0.76" transform="translate(115.848 359.515) rotate(-3.07)" fill="#e0e0e0" />
			<path id="Path_979" data-name="Path 979" d="M143.68,360.62a1,1,0,0,0,.49-.3.78.78,0,0,0,.13-.67,4.479,4.479,0,0,0-.08-1,.7.7,0,0,0-.88-.49l-1.52.1-3.71.24-21.47,1.23a.49.49,0,0,0-.42.27.4.4,0,0,0,0,.24v1.14a.49.49,0,0,0,.29.39.51.51,0,0,0,.25,0h1.14l1.5-.08,5.7-.29,9.66-.46,6.51-.27h1.78a4.3,4.3,0,0,1,.62,0,2.561,2.561,0,0,1-.62.09l-1.76.14-6.51.44-9.65.57-5.71.32-1.49.08h-1.14a1.07,1.07,0,0,1-.49-.09,1,1,0,0,1-.6-.79v-1.19a1.012,1.012,0,0,1,.96-1.05l21.48-1.08,3.71-.16,1.52-.06a1.08,1.08,0,0,1,.72.14.83.83,0,0,1,.38.56c0,.41,0,.73,0,1a.91.91,0,0,1-.21.75C143.94,360.71,143.66,360.63,143.68,360.62Z" fill="#263238" />
			<rect id="Rectangle_138" data-name="Rectangle 138" width="28.47" height="2.6" rx="0.76" transform="translate(115.961 364.253) rotate(-3.07)" fill="#e0e0e0" />
			<path id="Path_980" data-name="Path 980" d="M143.78,365.37a1,1,0,0,0,.5-.3.87.87,0,0,0,.13-.67,3.994,3.994,0,0,0-.09-1,.7.7,0,0,0-.88-.48l-1.52.1-3.71.24-21.47,1.23a.51.51,0,0,0-.42.26.53.53,0,0,0,0,.25v1.14a.48.48,0,0,0,.29.38.42.42,0,0,0,.25,0H118l1.5-.07,5.7-.29,9.66-.47,6.52-.26h1.77a3,3,0,0,1,.62,0,2.561,2.561,0,0,1-.62.09l-1.76.14-6.51.43-9.65.58-5.7.32L118,367h-1.14a1.059,1.059,0,0,1-.49-.08,1,1,0,0,1-.6-.79v-1.19a1,1,0,0,1,.96-1.05l21.48-1.08,3.71-.16,1.53-.06a1.06,1.06,0,0,1,.71.13.88.88,0,0,1,.38.56v1a1,1,0,0,1-.2.75.64.64,0,0,1-.56.34Z" fill="#263238" />
			<path id="Path_981" data-name="Path 981" d="M148.85,379a5,5,0,1,1-5.22-4.69,5,5,0,0,1,5.22,4.69Z" fill="#263238" />
			<rect id="Rectangle_139" data-name="Rectangle 139" width="28.47" height="2.6" rx="0.76" transform="translate(116.8 377.139) rotate(-3.07)" fill="#e0e0e0" />
			<path id="Path_982" data-name="Path 982" d="M144.62,378.25a1,1,0,0,0,.5-.31.82.82,0,0,0,.13-.67,4.033,4.033,0,0,0-.09-1,.69.69,0,0,0-.88-.49l-1.52.1-3.7.24-21.48,1.23a.48.48,0,0,0-.41.27.5.5,0,0,0-.06.24V379a.51.51,0,0,0,.29.39.55.55,0,0,0,.26,0h1.14l1.49-.08,5.71-.29,9.66-.46,6.51-.27h1.77a2.262,2.262,0,0,1,.62,0,4.316,4.316,0,0,1-.61.08l-1.77.14-6.5.44-9.66.57-5.7.32-1.5.08-.75.05h-.38a1.13,1.13,0,0,1-.5-.09,1,1,0,0,1-.59-.79V377.9a1.037,1.037,0,0,1,.96-1.05l21.44-1.1,3.71-.16,1.52-.06a1.16,1.16,0,0,1,.72.14.85.85,0,0,1,.37.56v1a.89.89,0,0,1-.2.74C144.88,378.33,144.61,378.25,144.62,378.25Z" fill="#263238" />
			<rect id="Rectangle_140" data-name="Rectangle 140" width="28.47" height="2.6" rx="0.76" transform="translate(116.904 381.877) rotate(-3.07)" fill="#e0e0e0" />
			<path id="Path_983" data-name="Path 983" d="M144.72,383a.94.94,0,0,0,.5-.3.79.79,0,0,0,.13-.67,4.478,4.478,0,0,0-.08-1,.71.71,0,0,0-.89-.49l-1.52.1-3.7.24-21.48,1.23a.5.5,0,0,0-.41.26.54.54,0,0,0-.06.25v1.14a.49.49,0,0,0,.3.38.51.51,0,0,0,.25.05h1.14l1.49-.08,5.71-.29,9.66-.47,6.51-.26h1.77a2.926,2.926,0,0,1,.62,0,2.521,2.521,0,0,1-.61.09l-1.77.14-6.5.43-9.66.58-5.7.32-1.49.08h-1.14a.94.94,0,0,1-.49-.08,1,1,0,0,1-.6-.79l-.05-.8v-.39a1.024,1.024,0,0,1,.96-1.05l21.49-1.08,3.71-.16,1.52-.06a1.09,1.09,0,0,1,.72.13.86.86,0,0,1,.37.56v1a1,1,0,0,1-.21.75.63.63,0,0,1-.49.24Z" fill="#263238" />
			<path id="Path_984" data-name="Path 984" d="M354.86,96.1c0,.14-53.27,3.12-119,6.64s-119,6.27-119,6.13,53.27-3.12,119-6.65S354.85,96,354.86,96.1Z" fill="#e0e0e0" />
			<path id="Path_985" data-name="Path 985" d="M355.87,114.9c0,.14-53.27,3.11-119,6.64s-119,6.27-119,6.13,53.26-3.12,119-6.65S355.86,114.75,355.87,114.9Z" fill="#e0e0e0" />
			<path id="Path_986" data-name="Path 986" d="M356.88,133.69c0,.15-53.27,3.12-119,6.65s-119,6.27-119,6.13,53.26-3.12,119-6.65S356.87,133.55,356.88,133.69Z" fill="#e0e0e0" />
			<path id="Path_987" data-name="Path 987" d="M357.89,152.49c0,.15-53.28,3.12-119,6.65s-119,6.27-119,6.13,53.26-3.12,119-6.65S357.88,152.35,357.89,152.49Z" fill="#e0e0e0" />
			<path id="Path_988" data-name="Path 988" d="M358.9,171.29c0,.15-53.28,3.12-119,6.65s-119,6.27-119,6.12,53.26-3.11,119-6.64S358.89,171.15,358.9,171.29Z" fill="#e0e0e0" />
			<path id="Path_989" data-name="Path 989" d="M359.9,190.09c0,.15-53.27,3.12-119,6.65s-119,6.27-119,6.12,53.26-3.11,119-6.64S359.9,190,359.9,190.09Z" fill="#e0e0e0" />
			<path id="Path_990" data-name="Path 990" d="M360.91,208.89c0,.14-53.27,3.12-119,6.65s-119,6.27-119,6.12,53.26-3.12,119-6.64S360.91,208.75,360.91,208.89Z" fill="#e0e0e0" />
			<path id="Path_991" data-name="Path 991" d="M361.92,227.69c0,.14-53.27,3.12-119,6.65s-119,6.27-119,6.12,53.26-3.12,119-6.64S361.91,227.55,361.92,227.69Z" fill="#e0e0e0" />
			<path id="Path_992" data-name="Path 992" d="M362.93,246.49c0,.14-53.27,3.12-119,6.65s-119,6.27-119,6.12,53.26-3.12,119-6.64S362.92,246.35,362.93,246.49Z" fill="#e0e0e0" />
			<path id="Path_993" data-name="Path 993" d="M363.94,265.29c0,.14-53.27,3.12-119,6.64s-119,6.27-119,6.13,53.26-3.12,119-6.65S363.93,265.14,363.94,265.29Z" fill="#e0e0e0" />
			<path id="Path_994" data-name="Path 994" d="M365,284.09c0,.14-53.27,3.12-119,6.64S127,297,127,296.86s53.26-3.12,119-6.65S364.94,283.94,365,284.09Z" fill="#e0e0e0" />
			<path id="Path_995" data-name="Path 995" d="M366,302.89c0,.14-53.27,3.12-119,6.64s-119,6.27-119,6.13,53.26-3.12,119-6.65S366,302.74,366,302.89Z" fill="#e0e0e0" />
			<path id="Path_996" data-name="Path 996" d="M367,321.69c0,.14-53.28,3.12-119,6.64s-119,6.27-119,6.13,53.26-3.12,119-6.65S367,321.54,367,321.69Z" fill="#e0e0e0" />
			<path id="Path_997" data-name="Path 997" d="M368,340.49c0,.14-53.27,3.11-119,6.64s-119,6.27-119,6.13,53.26-3.12,119-6.65S368,340.34,368,340.49Z" fill="#e0e0e0" />
			<path id="Path_998" data-name="Path 998" d="M369,359.28c0,.15-53.27,3.12-119,6.65s-119,6.27-119,6.13,53.26-3.12,119-6.65S369,359.14,369,359.28Z" fill="#e0e0e0" />
			<path id="Path_999" data-name="Path 999" d="M166.81,395.91c-.15,0-4.1-71.57-8.84-159.86s-8.46-159.9-8.32-159.91,4.1,71.56,8.84,159.88S167,395.91,166.81,395.91Z" fill="#0dbdb8" />
		</g>
		<g id="freepik--spreech-bubble--inject-13">
			<path id="Path_1000" data-name="Path 1000" d="M439.28,108.62a21.24,21.24,0,0,0-24.86,27.52l3.71,6.68h0a21.24,21.24,0,1,0,21.16-34.19Z" fill="#fff" />
			<circle id="Ellipse_38" data-name="Ellipse 38" cx="2.02" cy="2.02" r="2.02" transform="translate(424.85 127.31)" fill="#263238" />
			<path id="Path_1001" data-name="Path 1001" d="M437,129.33a2,2,0,1,1-2-2A2,2,0,0,1,437,129.33Z" fill="#263238" />
			<path id="Path_1002" data-name="Path 1002" d="M445,128.32a2,2,0,1,1-1.225-.95A2,2,0,0,1,445,128.32Z" fill="#263238" />
			<path id="Path_1003" data-name="Path 1003" d="M455.76,129.33a1.908,1.908,0,0,1,0-.34c0-.25-.05-.58-.08-1a9.9,9.9,0,0,0-.19-1.6,15.236,15.236,0,0,0-.44-2.15,20.35,20.35,0,0,0-2.33-5.52,20.71,20.71,0,0,0-24.85-8.8,22,22,0,0,0-2.69,1.19,20.129,20.129,0,0,0-2.53,1.63,21.807,21.807,0,0,0-2.34,2,23.193,23.193,0,0,0-2,2.39,20,20,0,0,0-2.95,5.69,22.13,22.13,0,0,0-1.07,6.51,21.81,21.81,0,0,0,1.07,6.51,20.109,20.109,0,0,0,2.95,5.69,22,22,0,0,0,2,2.39,23,23,0,0,0,2.34,2,21.318,21.318,0,0,0,2.53,1.63,22,22,0,0,0,2.69,1.19,20.7,20.7,0,0,0,24.85-8.81A20.22,20.22,0,0,0,455,134.4a15.415,15.415,0,0,0,.44-2.14,10,10,0,0,0,.19-1.6c0-.42.06-.74.08-1a1.731,1.731,0,0,1,0-.34,1.731,1.731,0,0,1,0,.34v1a10.613,10.613,0,0,1-.14,1.62,15.148,15.148,0,0,1-.4,2.17,19.611,19.611,0,0,1-2.28,5.62,21,21,0,0,1-25.26,9.12,21.606,21.606,0,0,1-2.76-1.21,21.137,21.137,0,0,1-2.6-1.66,24.1,24.1,0,0,1-2.4-2,25.85,25.85,0,0,1-2.08-2.45,20.31,20.31,0,0,1-3-5.83,22.25,22.25,0,0,1-1.1-6.67,22.629,22.629,0,0,1,1.1-6.68,20,20,0,0,1,3-5.82,24.369,24.369,0,0,1,2.07-2.45,22.824,22.824,0,0,1,2.4-2,21.133,21.133,0,0,1,2.6-1.66,21.61,21.61,0,0,1,2.76-1.21,21.02,21.02,0,0,1,25.26,9.09,19.49,19.49,0,0,1,2.27,5.62,14.1,14.1,0,0,1,.41,2.18,10.4,10.4,0,0,1,.14,1.61v1A1.8,1.8,0,0,1,455.76,129.33Z" fill="#263238" />
			<path id="Path_1004" data-name="Path 1004" d="M414,147a4,4,0,1,1-1.517-2.692A4,4,0,0,1,414,147Z" fill="#fff" />
			<path id="Path_1005" data-name="Path 1005" d="M414,147c-.05,0-.1-.35-.34-.92a4.06,4.06,0,0,0-1.73-1.9,3.81,3.81,0,1,0-2.78,7,3.88,3.88,0,0,0,3.53-.94A4.06,4.06,0,0,0,413.9,148c.1-.61.06-1,.11-1a2.259,2.259,0,0,1,.09,1,4,4,0,0,1-1.15,2.5,4.21,4.21,0,0,1-3.9,1.15,4.26,4.26,0,0,1-1-8,4.21,4.21,0,0,1,4.06.17,4,4,0,0,1,1.73,2.15A2.1,2.1,0,0,1,414,147Z" fill="#263238" />
		</g>
		<g id="freepik--Character--inject-13">
			<path id="Path_1006" data-name="Path 1006" d="M359.52,126a4.31,4.31,0,0,1,.19-8.57,4.48,4.48,0,0,1,5.58-6.42,5.36,5.36,0,0,1,8.89-2.36,6,6,0,0,1,7.24,1.6,4.29,4.29,0,0,1,2,8" fill="#263238" />
			<path id="Path_1007" data-name="Path 1007" d="M352,148.78c1.05-4.62,4-13.95,6.76-22.37a18.26,18.26,0,0,1,21.63-12.06l.92.23c9.78,3,12.72,12.93,9.48,22.62l-9.95,34.42L357.32,169l1.69-6.91S349.83,158.33,352,148.78Z" fill="#ffbf9d" />
			<path id="Path_1008" data-name="Path 1008" d="M358.93,162.08a23.84,23.84,0,0,0,13.37-.64s-4.59,6.15-13.89,3Z" fill="#ff9a6c" />
			<path id="Path_1009" data-name="Path 1009" d="M359.18,135.35a1.39,1.39,0,0,0,1,1.69,1.34,1.34,0,0,0,1.7-.88,1.39,1.39,0,0,0-1-1.69,1.33,1.33,0,0,0-1.7.88Z" fill="#263238" />
			<path id="Path_1010" data-name="Path 1010" d="M359.69,131.57c.13.22,1.34-.29,2.8.06s2.37,1.35,2.57,1.21,0-.42-.39-.87a3.82,3.82,0,0,0-4.28-1C359.86,131.19,359.63,131.47,359.69,131.57Z" fill="#263238" />
			<path id="Path_1011" data-name="Path 1011" d="M371.83,139a1.39,1.39,0,0,0,1,1.69,1.34,1.34,0,0,0,1.7-.89,1.39,1.39,0,0,0-1-1.68,1.33,1.33,0,0,0-1.7.88Z" fill="#263238" />
			<path id="Path_1012" data-name="Path 1012" d="M373.85,135.34c.11.23,1.36-.19,2.79.28s2.25,1.53,2.46,1.4,0-.42-.31-.9a3.91,3.91,0,0,0-1.9-1.34,3.72,3.72,0,0,0-2.3,0C374,135,373.79,135.24,373.85,135.34Z" fill="#263238" />
			<path id="Path_1013" data-name="Path 1013" d="M366.09,144.9a10.469,10.469,0,0,0-2.28-1c-.36-.12-.7-.28-.7-.55a1.93,1.93,0,0,1,.52-1.05l1.79-2.58c2.51-3.69,4.43-6.75,4.28-6.85s-2.31,2.8-4.82,6.49c-.61.91-1.2,1.77-1.75,2.61a2.16,2.16,0,0,0-.55,1.42,1,1,0,0,0,.48.69,2.449,2.449,0,0,0,.62.24A9.88,9.88,0,0,0,366.09,144.9Z" fill="#263238" />
			<path id="Path_1014" data-name="Path 1014" d="M375.56,130.51c0,.43,1.32.73,2.73,1.49s2.44,1.66,2.77,1.39c.14-.13.07-.57-.27-1.13a4.79,4.79,0,0,0-1.83-1.63,4.5,4.5,0,0,0-2.36-.55C376,130.11,375.58,130.31,375.56,130.51Z" fill="#263238" />
			<path id="Path_1015" data-name="Path 1015" d="M360.79,127.53c.22.39,1.4.24,2.75.46s2.45.66,2.77.35c.15-.15,0-.52-.42-.93a4.18,4.18,0,0,0-2.14-.94,4.09,4.09,0,0,0-2.31.29C360.91,127,360.69,127.35,360.79,127.53Z" fill="#263238" />
			<path id="Path_1016" data-name="Path 1016" d="M360.74,122.27s3.95-5.36,7.16-6.06c3.89-.85,4.47,3.34,8,3.21s7.26-1,10,2.44c3,3.7.82,5.25,0,9.54-3.2,17.37-1.24,23,1.6,15.11.31-.86,2.93-1,4.2-4.62,1.64-4.74,3.24-10.58,3-14.28-.21-3.12-1.38-5.52-3.82-8.44-3.83-4.62-10.24-6.24-14.71-6.85S362.14,114.7,360.74,122.27Z" fill="#263238" />
			<path id="Path_1017" data-name="Path 1017" d="M387,146.1a2.67,2.67,0,0,1,3.4-1.82c1.73.6,3.47,2.09,2.46,5.73-1.77,6.47-7.9,3.35-7.86,3.16S386.26,148.8,387,146.1Z" fill="#ffbf9d" />
			<path id="Path_1018" data-name="Path 1018" d="M387.11,151.12a2.034,2.034,0,0,0,.26.25,1.15,1.15,0,0,0,.83.25c.75-.06,1.63-1,2-2.14a3.86,3.86,0,0,0,.13-1.7,1.34,1.34,0,0,0-.61-1.1.6.6,0,0,0-.75.12c-.14.16-.13.3-.17.3s-.11-.14,0-.4a.73.73,0,0,1,.36-.33.87.87,0,0,1,.67,0,1.63,1.63,0,0,1,.9,1.32,3.91,3.91,0,0,1-.1,1.91c-.4,1.29-1.41,2.33-2.41,2.34a1.27,1.27,0,0,1-1-.45C387.08,151.28,387.08,151.13,387.11,151.12Z" fill="#ff9a6c" />
			<path id="Path_1019" data-name="Path 1019" d="M390,133.45a6.5,6.5,0,0,1-3.07.61,2.2,2.2,0,0,1-2-2.07c0-.47.27-1,.06-1.39s-.94-.53-1.5-.6a4.29,4.29,0,0,1-3.6-4,1.8,1.8,0,0,1-2.4-.34,9.661,9.661,0,0,1-1.31-2.33,2.76,2.76,0,0,0-2-1.65,6.71,6.71,0,0,1-1.49,0c-.84-.29-1-1.39-.94-2.27s.21-1.89-.4-2.53a3.54,3.54,0,0,0-2.31-.63c-.82-.07-1.79-.5-1.81-1.32a1.58,1.58,0,0,1,.58-1.11,4.34,4.34,0,0,1,5.36-.4,5.89,5.89,0,0,1,10.78,1.43,6,6,0,0,1,8.77,4.35,4.33,4.33,0,0,1,3.28,7.2,4.11,4.11,0,0,1,1.43,3.71c-.3,1.36-1.94,2.39-3.16,1.72a2.4,2.4,0,0,1-4.59,1.35" fill="#263238" />
			<path id="Path_1020" data-name="Path 1020" d="M372.21,115.16v.48a4.261,4.261,0,0,0,.17,1.37,4.831,4.831,0,0,0,1.07,1.89,4.43,4.43,0,0,0,2.49,1.4l-.08-.17a2.45,2.45,0,0,0-.3,1.83,6.611,6.611,0,0,0,.73,1.87,4.531,4.531,0,0,0,.55.93,2.52,2.52,0,0,0,3.22.38l-.23-.13A5,5,0,0,0,381,128.9a3.68,3.68,0,0,0,2,1.21,6.65,6.65,0,0,0,2.22,0l-.16-.12a5.37,5.37,0,0,0,1.06,2.38,2.81,2.81,0,0,0,2.12,1.17,3.7,3.7,0,0,0,3.44-2.15h-.16a3.44,3.44,0,0,0,2.16.87,3.78,3.78,0,0,0,1.72-.32,3.19,3.19,0,0,0,.92-.62,1.548,1.548,0,0,0,.25-.3,4.149,4.149,0,0,1-1.21.81,3.52,3.52,0,0,1-1.67.26,3.26,3.26,0,0,1-2-.85l-.11-.1-.06.13a3.47,3.47,0,0,1-3.24,2,2.53,2.53,0,0,1-1.92-1.08,5.089,5.089,0,0,1-1-2.26v-.13h-.13a6.62,6.62,0,0,1-2.13,0,3.36,3.36,0,0,1-1.82-1.13A4.78,4.78,0,0,1,380,125v-.31l-.26.18a2.17,2.17,0,0,1-2,.22,2.05,2.05,0,0,1-.83-.55,4.662,4.662,0,0,1-.52-.87,6.72,6.72,0,0,1-.72-1.79,2.22,2.22,0,0,1,.25-1.67l.09-.14h-.17a4.32,4.32,0,0,1-2.39-1.3,4.81,4.81,0,0,1-1.08-1.81,5,5,0,0,1-.16-1.8Z" fill="#455a64" />
			<path id="Path_1021" data-name="Path 1021" d="M369.91,147.89a23,23,0,0,0-5.56.37h0c-.09,1.27-.06,2.69.83,3.59a2.64,2.64,0,0,0,2.61.63,3,3,0,0,0,2-1.73,6.31,6.31,0,0,0,.12-2.86Z" fill="#ff9a6c" />
			<path id="Path_1022" data-name="Path 1022" d="M366.17,152.36a2.85,2.85,0,0,0,1.77-.06,2.64,2.64,0,0,0,1.38-1.24,4.38,4.38,0,0,0,.45-2.3,3.08,3.08,0,0,0-.07-.59h-.3l-1.2.06-2.05.07a7.51,7.51,0,0,1-1.89-.06,7.73,7.73,0,0,1,1.87-.28l2-.17,1.21-.09h.34a.49.49,0,0,1,.45.33,4.258,4.258,0,0,1,.1.72,4.56,4.56,0,0,1-.54,2.54,2.87,2.87,0,0,1-1.66,1.35,2.31,2.31,0,0,1-1.43,0C366.29,152.52,366.16,152.39,366.17,152.36Z" fill="#263238" />
			<path id="Path_1023" data-name="Path 1023" d="M324.44,422.81l-14.78,22.86-6.47,21.46a2.8,2.8,0,0,1-3.66,1.8h0a2.66,2.66,0,0,1-1.71-1.9c-1.16-5.43-5.2-30.42-4.43-31.58,1.27-1.93,12.89-21.26,12.89-21.26Z" fill="#263238" />
			<path id="Path_1024" data-name="Path 1024" d="M299.53,468.93l-5.18-35.05-.61,1a4.17,4.17,0,0,0-.57,2.84c.41,2.64,1.7,15.26,4.58,29.29a2.7,2.7,0,0,0,1.78,1.94Z" fill="#455a64" />
			<g id="Group_10394" data-name="Group 10394" opacity="0.6">
				<path id="Path_1025" data-name="Path 1025" d="M302.61,433.22a1.68,1.68,0,0,1-.76,2.12,1.64,1.64,0,0,1-2.11-.74,1.79,1.79,0,0,1,.82-2.24,1.68,1.68,0,0,1,2.11,1" fill="#fff" />
			</g>
			<path id="Path_1026" data-name="Path 1026" d="M300.46,455.54a8.411,8.411,0,0,1,3.14-.56,8.641,8.641,0,0,1,3,1.13c.06,0-.13-.4-.62-.81a4.32,4.32,0,0,0-2.31-.91,4.37,4.37,0,0,0-2.43.46C300.66,455.16,300.41,455.48,300.46,455.54Z" fill="#fff" />
			<path id="Path_1027" data-name="Path 1027" d="M300.2,459.66a23.47,23.47,0,0,1,2.67.26c1.42.37,2.31,1.23,2.44,1.1s-.67-1.25-2.29-1.67S300.12,459.52,300.2,459.66Z" fill="#fff" />
			<path id="Path_1028" data-name="Path 1028" d="M299.83,449.67c0,.18,1.89-.29,4.14.13a34.509,34.509,0,0,1,3.93,1.31c.1-.15-1.41-1.48-3.83-1.9S299.75,449.53,299.83,449.67Z" fill="#fff" />
			<path id="Path_1029" data-name="Path 1029" d="M303.74,442.34c0,.18,1.58.43,3.29,1.4s2.78,2.17,2.92,2.06a5.49,5.49,0,0,0-2.63-2.59,5.42,5.42,0,0,0-3.58-.87Z" fill="#fff" />
			<path id="Path_1030" data-name="Path 1030" d="M306.47,437.48a13.23,13.23,0,0,1,3.46,1.36,13.44,13.44,0,0,1,2.6,2.66c.07,0,0-.47-.35-1.11a6.09,6.09,0,0,0-4.55-3C306.91,437.3,306.47,437.41,306.47,437.48Z" fill="#fff" />
			<path id="Path_1031" data-name="Path 1031" d="M382.08,277.9c0,.92-6.78,85.33-9.38,90.85s-53.8,68.6-53.8,68.6l-21.37-14.73,45.38-65.77,1.27-61.61,10.52-24.16Z" fill="#263238" />
			<path id="Path_1032" data-name="Path 1032" d="M318,261c-.53,1.29-7.58,21.4-8.11,29.95s15.25,160.19,15.25,160.19l26.06-2.08L344.43,302l11.25-30.91Z" fill="#263238" />
			<path id="Path_1033" data-name="Path 1033" d="M347.28,293.7a1.069,1.069,0,0,1,0,.29q0,.315,0,.87c-.05.78-.12,1.91-.2,3.38-.2,3-.48,7.32-.83,12.83-.75,11.07-1.81,26.85-3.08,45.79v.11l-36.48,52.95-8.87,12.85-.06-.36L319,437.14l-.33.05L357.45,389c4.78-5.92,8.58-10.63,11.2-13.86,1.3-1.6,2.3-2.84,3-3.69l.78-.94.27-.31a3.61,3.61,0,0,1-.24.34l-.75,1-2.94,3.73-11.08,13.95-38.6,48.32-.14.18-.19-.13-21.38-14.71-.21-.15.15-.21,8.86-12.85,36.54-52.91v.11c1.35-18.93,2.48-34.71,3.27-45.78.41-5.51.73-9.84.95-12.82.11-1.47.2-2.59.26-3.38a7.034,7.034,0,0,1,.08-.86A1.222,1.222,0,0,1,347.28,293.7Z" fill="#455a64" />
			<path id="Path_1034" data-name="Path 1034" d="M345.7,436.39l-.54,19.78s19.93,7.19,20.18,10.86l-38.38.33-.42-30.85Z" fill="#263238" />
			<path id="Path_1035" data-name="Path 1035" d="M333.28,454.61a1.57,1.57,0,0,0-1.07,1.8,1.51,1.51,0,0,0,1.78,1.07,1.65,1.65,0,0,0,1.12-1.91,1.56,1.56,0,0,0-2-.91" fill="#e0e0e0" />
			<path id="Path_1036" data-name="Path 1036" d="M327,467.36l.08-3.11,36.77.84s1.71.73,1.53,1.94Z" fill="#455a64" />
			<path id="Path_1037" data-name="Path 1037" d="M345.79,456c0,.19-1,.28-1.86.89s-1.4,1.4-1.58,1.33.1-1.16,1.22-1.88S345.82,455.8,345.79,456Z" fill="#fff" />
			<path id="Path_1038" data-name="Path 1038" d="M349.83,457.6c0,.18-.77.51-1.4,1.31s-.81,1.63-1,1.63-.32-1.07.48-2.05S349.82,457.42,349.83,457.6Z" fill="#fff" />
			<path id="Path_1039" data-name="Path 1039" d="M352.15,462.4c-.17,0-.44-.89,0-1.92s1.34-1.45,1.42-1.3-.45.71-.83,1.57S352.34,462.38,352.15,462.4Z" fill="#fff" />
			<path id="Path_1040" data-name="Path 1040" d="M345.41,451.45c-.08.17-.94-.08-2,0s-1.88.42-2,.26.69-.83,1.94-.91S345.5,451.3,345.41,451.45Z" fill="#fff" />
			<path id="Path_1041" data-name="Path 1041" d="M358.6,122.74a41.61,41.61,0,0,0-7.14-.13c-1.52.1-10,3.63-10.79,4.29s-12,9-12,9l4.63,7.1s4.64.22,6.54-1.87a29.231,29.231,0,0,0,3.68-5.87l2.94-.19s-2.27,1.8-1.89,2.84,1.74.39,1.74.39l.33.36a1.59,1.59,0,0,0,2.22.11c1.18-1.05,2.85-2.63,3-3.36.07-.3,0-2.52,0-2.52a2.91,2.91,0,0,0-.19-3.36,11.91,11.91,0,0,0-3-2.25l3.42-1.74S359.44,125.82,358.6,122.74Z" fill="#ffbf9d" />
			<path id="Path_1042" data-name="Path 1042" d="M346.42,131.68a2.84,2.84,0,0,1,1.74.47,4.74,4.74,0,0,1,1.52,1.28,1.38,1.38,0,0,1,.3,1.27,3.58,3.58,0,0,1-.7,1.1c-.54.64-1,1.28-1.53,1.81a2.63,2.63,0,0,1-1.79.93,1.52,1.52,0,0,1-1.25-.56c-.2-.28-.17-.48-.14-.48a3.229,3.229,0,0,0,.29.35,1.47,1.47,0,0,0,1.08.33c1-.06,1.9-1.45,2.93-2.7,1.57-1.26-.14-2.47-.9-3S346.4,131.76,346.42,131.68Z" fill="#ff9a6c" />
			<path id="Path_1043" data-name="Path 1043" d="M347.08,129.33a5,5,0,0,1,4.78,3.85,15.861,15.861,0,0,0-2.05-2.34A16.7,16.7,0,0,0,347.08,129.33Z" fill="#ff9a6c" />
			<path id="Path_1044" data-name="Path 1044" d="M345.35,126.75a5.3,5.3,0,0,1,3.79.55,5.22,5.22,0,0,1,2.81,2.59,18.559,18.559,0,0,0-3-2.12,18.829,18.829,0,0,0-3.6-1.02Z" fill="#ff9a6c" />
			<path id="Path_1045" data-name="Path 1045" d="M342.3,126a5.42,5.42,0,0,1,1-.51c.66-.29,1.63-.7,2.83-1.19s2.64-1.06,4.26-1.64a5.929,5.929,0,0,1,1.31-.38,13.2,13.2,0,0,1,1.41,0c.94,0,1.9.09,2.89.17s1.81.16,2.67.25h.24v.21a4.477,4.477,0,0,1-.06.63,2.05,2.05,0,0,1-.26.56,2.6,2.6,0,0,1-.89.77,6.13,6.13,0,0,1-2,.6,15.88,15.88,0,0,1-3.48.07h.09l-2.66,1.31a4.469,4.469,0,0,1-1,.42,4.509,4.509,0,0,1,.91-.6l2.59-1.45h.06a16.76,16.76,0,0,0,3.38-.16,5.61,5.61,0,0,0,1.82-.58,1.59,1.59,0,0,0,.94-1.5l.23.24L356,123c-1-.07-1.94-.14-2.87-.17a11.867,11.867,0,0,0-1.34,0,6.49,6.49,0,0,0-1.21.34c-1.61.55-3.06,1.1-4.28,1.54l-2.89,1a4.191,4.191,0,0,1-1.11.29Z" fill="#ff9a6c" />
			<path id="Path_1046" data-name="Path 1046" d="M421.19,186.67c.15.05-.33,1.56-.31,3.48s.52,3.42.37,3.47a5.81,5.81,0,0,1-.89-3.47,5.88,5.88,0,0,1,.83-3.48Z" fill="#ff9a6c" />
			<path id="Path_1047" data-name="Path 1047" d="M404.34,182.49,438.72,202s7,14.63,3,16.51-13.87.47-16.27-.11-36.83-9.27-36.83-9.27l4-30.67,9.11,2.87A13.751,13.751,0,0,1,404.34,182.49Z" fill="#455a64" />
			<path id="Path_1048" data-name="Path 1048" d="M316.2,252.22c2.11-7.95,6.75-26.08,6.75-26.08l9.58-56.29L354,170l1.78-3.77a2,2,0,0,1,2.12-1.09l22.75,4.05a2,2,0,0,1,1.61,2.21l-.42,3,17.32,6.43L401,206.1l-13.95,57.42-.85,8.09a7,7,0,0,1-2.77,4.83L381,278.31l-62.88-14.52-1.55-4.26a12.33,12.33,0,0,1-.37-7.31Z" fill="#455a64" />
			<path id="Path_1049" data-name="Path 1049" d="M382.08,276.96l-.59,8.49-67.22-15.66,2.41-10.91Z" fill="#455a64" />
			<path id="Path_1050" data-name="Path 1050" d="M322.87,264.21a11.77,11.77,0,0,1-.12,3.46,11.48,11.48,0,0,1-.64,3.41A22.9,22.9,0,0,1,322.87,264.21Z" fill="#263238" />
			<path id="Path_1051" data-name="Path 1051" d="M333.56,266.68a12.339,12.339,0,0,1-.39,3.49,11.74,11.74,0,0,1-.9,3.38,11.882,11.882,0,0,1,.39-3.48,11.38,11.38,0,0,1,.9-3.39Z" fill="#263238" />
			<path id="Path_1052" data-name="Path 1052" d="M344.76,270a21.37,21.37,0,0,1-1.17,6.54,11,11,0,0,1,.33-3.31A10.88,10.88,0,0,1,344.76,270Z" fill="#263238" />
			<path id="Path_1053" data-name="Path 1053" d="M358.76,273.26a27.379,27.379,0,0,1-1.37,7.4A27.378,27.378,0,0,1,358.76,273.26Z" fill="#263238" />
			<path id="Path_1054" data-name="Path 1054" d="M371.85,276.25a12.519,12.519,0,0,1-.7,3.5,12.241,12.241,0,0,1-1.21,3.36,24.1,24.1,0,0,1,1.91-6.86Z" fill="#263238" />
			<path id="Path_1055" data-name="Path 1055" d="M332.84,169.85l-3.44.05L311,165.75l25.36-18.07L327,133.43s-35.19,21.27-39.65,25.76c-9,9.06-5.16,19.11,3.92,23.92,2.7,1.44,38.76,15,38.76,15Z" fill="#455a64" />
			<path id="Path_1056" data-name="Path 1056" d="M323.43,229.82c-.14,0,1.41-12,3.46-26.72s3.84-26.66,4-26.65-1.4,12-3.46,26.72S323.57,229.84,323.43,229.82Z" fill="#263238" />
			<path id="Path_1057" data-name="Path 1057" d="M305.34,169.33a17,17,0,0,1,3.44-2.44,17.421,17.421,0,0,1,3.72-2,16.79,16.79,0,0,1-3.44,2.44,17.159,17.159,0,0,1-3.72,2Z" fill="#263238" />
			<path id="Path_1058" data-name="Path 1058" d="M338.5,224.18a3.312,3.312,0,0,1,.32.4l.83,1.2c.75,1.12,1.77,2.62,3,4.45,2.54,3.75,6.12,8.89,10.24,14.45s8,10.46,10.87,14l3.39,4.16.91,1.14c.21.27.31.41.29.43A2.051,2.051,0,0,1,368,264c-.26-.29-.59-.64-1-1.08-.85-.94-2.06-2.32-3.52-4.06-2.93-3.46-6.87-8.35-11-13.91s-7.67-10.75-10.14-14.55c-1.24-1.91-2.21-3.46-2.87-4.55l-.75-1.25a2.549,2.549,0,0,1-.22-.42Z" fill="#263238" />
			<path id="Path_1059" data-name="Path 1059" d="M345.85,210.52a8.9,8.9,0,0,1,.77,1.22c.52.88,1.18,2,2,3.38,1.66,2.85,4,6.78,6.63,11.06s5.16,8.09,7,10.84l2.16,3.26a7.422,7.422,0,0,1,.74,1.23,6.719,6.719,0,0,1-.91-1.11c-.56-.74-1.34-1.82-2.29-3.17-1.91-2.7-4.46-6.49-7.13-10.78s-4.93-8.25-6.51-11.15c-.79-1.46-1.41-2.64-1.82-3.47A7.061,7.061,0,0,1,345.85,210.52Z" fill="#263238" />
			<path id="Path_1060" data-name="Path 1060" d="M354.54,170.06c0-.08,1.42.6,3.74,1.49a47.47,47.47,0,0,0,19,3.09c2.48-.11,4-.32,4-.23a4.53,4.53,0,0,1-1.06.24,29.327,29.327,0,0,1-2.94.36,41.75,41.75,0,0,1-19.17-3.12,28.755,28.755,0,0,1-2.68-1.27,4.131,4.131,0,0,1-.89-.56Z" fill="#263238" />
			<g id="Group_10395" data-name="Group 10395" opacity="0.3">
				<path id="Path_1061" data-name="Path 1061" d="M342,229.9a38.94,38.94,0,0,0,22.22,29.76Z" />
			</g>
			<path id="Path_1062" data-name="Path 1062" d="M403.13,194.86c.14,0-1.56,7.5-3.8,16.68s-4.18,16.6-4.32,16.56,1.57-7.5,3.81-16.68S403,194.82,403.13,194.86Z" fill="#263238" />
			<path id="Path_1063" data-name="Path 1063" d="M446.46,314.29h2.66a3.45,3.45,0,0,0,3.45-3.45V204.6a6.11,6.11,0,0,0-6.11-6.11h0Z" fill="#0dbdb8" />
			<path id="Path_1064" data-name="Path 1064" d="M414.95,187.22H444.7V438.7a14.88,14.88,0,0,1-14.88,14.88h0a14.88,14.88,0,0,1-14.88-14.88V187.22Z" transform="translate(859.64 640.8) rotate(180)" fill="#e0e0e0" />
			<path id="Path_1065" data-name="Path 1065" d="M414.95,308.57,444.7,339.6v13.34l-29.75-30.28Z" fill="#fff" />
			<path id="Path_1066" data-name="Path 1066" d="M414.95,330.69l29.75,31.02v6.37L414.95,337.8Z" fill="#fff" />
			<path id="Path_1067" data-name="Path 1067" d="M413.19,184.92h33.27v82.82A16.48,16.48,0,0,1,430,284.22h-.3a16.48,16.48,0,0,1-16.48-16.48V184.92Z" transform="translate(859.64 469.14) rotate(180)" fill="#0dbdb8" />
			<path id="Path_1068" data-name="Path 1068" d="M446.46,312.68c-.15,0-.26-24.81-.26-55.4s.11-55.41.26-55.41.26,24.8.26,55.41S446.6,312.68,446.46,312.68Z" fill="#263238" />
			<path id="Path_1069" data-name="Path 1069" d="M423,453.58h13.66a8,8,0,0,1,8,8v6.21H414.95v-6.21a8,8,0,0,1,8.05-8Z" transform="translate(859.64 921.42) rotate(180)" fill="#0dbdb8" />
			<path id="Path_1070" data-name="Path 1070" d="M439.52,284.91c.15,0,.26,37.89.26,84.61s-.11,84.61-.26,84.61-.26-37.88-.26-84.61S439.38,284.91,439.52,284.91Z" fill="#263238" />
			<path id="Path_1071" data-name="Path 1071" d="M429.82,284.91c.15,0,.26,37.89.26,84.61s-.11,84.61-.26,84.61-.26-37.88-.26-84.61S429.68,284.91,429.82,284.91Z" fill="#263238" />
			<path id="Path_1072" data-name="Path 1072" d="M420.12,284.91c.14,0,.26,37.89.26,84.61s-.12,84.61-.26,84.61-.26-37.88-.26-84.61S420,284.91,420.12,284.91Z" fill="#263238" />
			<path id="Path_1073" data-name="Path 1073" d="M437.56,181.61a3,3,0,0,0-3.29-.75,19.35,19.35,0,0,0-6.2,5.18s-2.67-1.34-3.47-.44-.92,2.28,1.37,3.93c0,0-.61,4,1.61,4.06s2.64-1.45,2.64-1.45-.31,3.23,3.91,1.91a3.12,3.12,0,0,0,1.6,1.91,2.93,2.93,0,0,0,2.13.09s.76,1.66,2.19,1.3a43.73,43.73,0,0,0,8-3.26,3.94,3.94,0,0,0,1.59-4.28c-.56-1.43-2.76-2.11-2.76-2.11a3.52,3.52,0,0,0-3.39-3,4.23,4.23,0,0,0-5.93-3.09Z" fill="#ffbf9d" />
			<path id="Path_1074" data-name="Path 1074" d="M444.81,191.46a16.22,16.22,0,0,1-3.4,2.38c-1,.6-1.83,1.15-2.43,1.58a6.356,6.356,0,0,1-1,.68,3.084,3.084,0,0,1,.78-1,16.531,16.531,0,0,1,2.39-1.75,17.072,17.072,0,0,1,3.66-1.89Z" fill="#ff9a6c" />
			<path id="Path_1075" data-name="Path 1075" d="M442.12,188.24a21.841,21.841,0,0,1-3.79,3.19,18.338,18.338,0,0,1-4.2,2.62,33.483,33.483,0,0,1,3.89-3,24.748,24.748,0,0,1,4.1-2.81Z" fill="#ff9a6c" />
			<path id="Path_1076" data-name="Path 1076" d="M437.78,185.09c.08.13-1.91,1.43-4.12,3.33A23.578,23.578,0,0,0,431,191a7.568,7.568,0,0,0-.74,1.31c-.06,0-.13-.67.44-1.52a20.721,20.721,0,0,1,7.1-5.66Z" fill="#ff9a6c" />
			<path id="Path_1077" data-name="Path 1077" d="M432.47,182c.11.14-1.81,1.55-3.74,3.69a24.1,24.1,0,0,0-2.21,2.93A6.211,6.211,0,0,0,426,190c-.06,0-.23-.65.21-1.56a15.811,15.811,0,0,1,2.15-3.11,13.68,13.68,0,0,1,4.11-3.33Z" fill="#ff9a6c" />
		</g>
	</g>
</svg>
