<svg xmlns="http://www.w3.org/2000/svg" xmlns:xlink="http://www.w3.org/1999/xlink" width="413.497" height="419.85" viewBox="0 0 413.497 419.85">
	<defs>
		<clipPath id="clip-path">
			<path id="Path_1445" data-name="Path 1445" d="M292.86,226.9a1.342,1.342,0,0,0,0-.2,23.11,23.11,0,0,0-1.12-7.15A83.541,83.541,0,0,0,289.7,211a20.12,20.12,0,0,0-9.12-12.11,7.529,7.529,0,0,0-.9-.56.82.82,0,0,0-.2-.12l-.21-.11c-5.7-3.14-12.11-1.67-17,.56a15.86,15.86,0,0,0-6.15,4.92,24.551,24.551,0,0,0-4.44,7.86,23.43,23.43,0,0,0-3.4,25.21,33.74,33.74,0,0,0,.29,3.62c0,.16.24.13.24,0v-2.53a18.964,18.964,0,0,0,1,1.62v1.24c0,.58.86,1.21,2.32,1.84a23.44,23.44,0,0,0,35.19-.54,23.609,23.609,0,0,0,4.1-2.44c.63-.47.83-3,.65-6.54a19.312,19.312,0,0,0,.56-2.53c.28,2.63.5,5.27.71,7.91,0,.19.3.17.3,0a113.112,113.112,0,0,0-.78-11.4Zm-7.77-23.37c-.21-.31-.44-.61-.66-.9a24.43,24.43,0,0,1,5.27,10.53c.26,1,.5,2.06.72,3.09a23.394,23.394,0,0,0-1.28-2.23h0C288,209.63,286.65,205.76,285.09,203.53Z" fill="none" />
		</clipPath>
		<clipPath id="clip-path-2">
			<path id="Path_1467" data-name="Path 1467" d="M302.87,149.8a23.44,23.44,0,1,1-35.37-20.17c1.09-3.5,3.91-6.83,10.2-8.41,12.31-3.07,15,5.81,15.3,6.77h0a34.192,34.192,0,0,1,1.09,3.48,23.32,23.32,0,0,1,8.78,18.33Z" fill="none" />
		</clipPath>
	</defs>
	<g id="Online_Review-cuate" data-name="Online Review-cuate" transform="translate(-42.723 -41.3)">
		<g id="freepik--background-complete--inject-5">
			<circle id="Ellipse_44" data-name="Ellipse 44" cx="35.6" cy="35.6" r="35.6" transform="translate(79.406 169.191) rotate(-80.52)" fill="#c7c7c7" />
			<circle id="Ellipse_45" data-name="Ellipse 45" cx="33.97" cy="33.97" r="33.97" transform="translate(88.04 106.75)" fill="#a6a6a6" />
			<circle id="Ellipse_46" data-name="Ellipse 46" cx="31.83" cy="31.83" r="31.83" transform="translate(90.18 108.89)" fill="#fff" />
			<rect id="Rectangle_167" data-name="Rectangle 167" width="0.61" height="4.82" transform="translate(121.7 111.21)" fill="#dbdbdb" />
			<rect id="Rectangle_168" data-name="Rectangle 168" width="0.62" height="4.82" transform="translate(106.991 115.31) rotate(-30)" fill="#dbdbdb" />
			<rect id="Rectangle_169" data-name="Rectangle 169" width="0.61" height="4.82" transform="translate(96.286 126.229) rotate(-60)" fill="#dbdbdb" />
			<rect id="Rectangle_170" data-name="Rectangle 170" width="4.82" height="0.62" transform="translate(92.49 140.41)" fill="#dbdbdb" />
			<rect id="Rectangle_171" data-name="Rectangle 171" width="4.82" height="0.61" transform="translate(96.302 155.204) rotate(-30.01)" fill="#dbdbdb" />
			<rect id="Rectangle_172" data-name="Rectangle 172" width="4.82" height="0.62" transform="translate(106.989 166.14) rotate(-60.03)" fill="#dbdbdb" />
			<rect id="Rectangle_173" data-name="Rectangle 173" width="0.61" height="4.82" transform="translate(121.7 165.41)" fill="#dbdbdb" />
			<rect id="Rectangle_174" data-name="Rectangle 174" width="0.62" height="4.82" transform="translate(134.081 162.251) rotate(-30)" fill="#dbdbdb" />
			<rect id="Rectangle_175" data-name="Rectangle 175" width="0.61" height="4.82" transform="translate(143.23 153.318) rotate(-60)" fill="#dbdbdb" />
			<rect id="Rectangle_176" data-name="Rectangle 176" width="4.82" height="0.62" transform="translate(146.7 140.41)" fill="#dbdbdb" />
			<rect id="Rectangle_177" data-name="Rectangle 177" width="4.82" height="0.61" transform="translate(143.233 128.12) rotate(-30)" fill="#dbdbdb" />
			<rect id="Rectangle_178" data-name="Rectangle 178" width="4.82" height="0.62" transform="translate(134.089 119.191) rotate(-60.03)" fill="#dbdbdb" />
			<rect id="Rectangle_179" data-name="Rectangle 179" width="30.8" height="0.61" transform="translate(112.854 158.03) rotate(-63.03)" fill="#dbdbdb" />
			<rect id="Rectangle_180" data-name="Rectangle 180" width="0.82" height="30.33" transform="translate(119.45 129.981) rotate(-11.32)" fill="#263238" />
			<g id="freepik--xsrjP0--inject-5">
				<path id="Path_1331" data-name="Path 1331" d="M212.75,117.86c-.78-.49-1.45-1.2-2.5-1.1-.4,0-.31-.29-.31-.51V104.48a.64.64,0,0,1,.33-.68c3-1.51,4.29-4.48,6.13-7a11.71,11.71,0,0,0,2.17-8.9c-.12-.89.29-1.28,1.09-1.46a2,2,0,0,1,2.23.7,15.76,15.76,0,0,1,1.72,5.14c.17,1.49-.36,2.94-.55,4.41-.14,1.08-.39,2.15-.59,3.24.26.19.57.09.85.09h9.94c1.4,0,2.08.4,2.28,1.32a2.67,2.67,0,0,1-1.45,2.88c-.24.12-.69,0-.72.4s.43.35.66.51c1.2.83,1,2.52-.41,3.5-.34.24-1,.13-1,.62s.6.39.87.66c1,1,.49,2.75-1,3.47a5.766,5.766,0,0,0-.58.22c-.17.11-.33.24,0,.46,1.44,1,1.41,2.46,0,3.5l-.43.31a2.84,2.84,0,0,1-1.75.38H214.14a1.83,1.83,0,0,1-1.39-.39Z" fill="#dbdbdb" fill-rule="evenodd" />
				<path id="Path_1332" data-name="Path 1332" d="M198,110.94v-7.48c0-.5,0-.75.67-.75h9.12c.6,0,.69.2.69.73v15c0,.63-.17.82-.81.8h-8.84c-.74,0-.84-.25-.83-.89Z" fill="#dbdbdb" fill-rule="evenodd" />
			</g>
			<g id="freepik--xsrjp0--inject-5-2" data-name="freepik--xsrjp0--inject-5">
				<path id="Path_1333" data-name="Path 1333" d="M427.55,223.87c.78.49,1.46,1.2,2.5,1.1.4,0,.31.29.32.51v11.77c0,.28,0,.52-.32.68-3,1.51-4.3,4.48-6.14,7a11.75,11.75,0,0,0-2.17,8.9c.13.89-.29,1.28-1.08,1.46a2,2,0,0,1-2.24-.7,15.74,15.74,0,0,1-1.71-5.14c-.18-1.49.36-2.94.54-4.41.14-1.08.39-2.14.6-3.24-.27-.19-.57-.09-.85-.09h-9.95c-1.4,0-2.08-.4-2.27-1.32a2.66,2.66,0,0,1,1.44-2.88c.25-.12.7,0,.73-.4s-.44-.35-.66-.51c-1.2-.83-1-2.52.41-3.5.33-.24,1-.13,1-.62s-.59-.39-.87-.66c-1-1-.48-2.75,1-3.47a4.368,4.368,0,0,0,.58-.22c.17-.11.33-.24,0-.46-1.43-1-1.4-2.46,0-3.5l.43-.31a2.84,2.84,0,0,1,1.75-.38h15.59a1.83,1.83,0,0,1,1.37.39Z" fill="#dbdbdb" fill-rule="evenodd" />
				<path id="Path_1334" data-name="Path 1334" d="M442.33,230.79v7.48c0,.5,0,.75-.67.75q-4.56-.06-9.12,0c-.6,0-.69-.2-.69-.73V223.24c0-.63.17-.81.81-.8h8.85c.73,0,.83.25.83.89C442.31,225.8,442.33,228.29,442.33,230.79Z" fill="#dbdbdb" fill-rule="evenodd" />
			</g>
			<path id="Path_1335" data-name="Path 1335" d="M291.81,284.69V422h83V284.69Zm75.45,86.61H299.34V335.57h67.92Zm0-44.24H299.34V291.33h67.92Z" fill="#ebebeb" />
			<rect id="Rectangle_181" data-name="Rectangle 181" width="33.18" height="137.26" transform="translate(374.79 284.69)" fill="#dbdbdb" />
			<rect id="Rectangle_182" data-name="Rectangle 182" width="16.14" height="35.73" transform="translate(299.35 291.32)" fill="#dbdbdb" />
			<path id="Path_1336" data-name="Path 1336" d="M367.76,413.84H299.27V378.78h68.49Zm-67.49-1h66.49V379.78H300.27Z" fill="#dbdbdb" />
			<rect id="Rectangle_183" data-name="Rectangle 183" width="13.4" height="6.78" transform="translate(323.98 388.86)" fill="#dbdbdb" />
			<path id="Path_1337" data-name="Path 1337" d="M341.85,395.63H327.44v-6.76h14.41Zm-13.41-1h12.41v-4.76H328.44Z" fill="#dbdbdb" />
			<rect id="Rectangle_184" data-name="Rectangle 184" width="16.14" height="35.73" transform="translate(299.35 335.57)" fill="#dbdbdb" />
		</g>
		<g id="freepik--Floor--inject-5">
			<path id="Path_1338" data-name="Path 1338" d="M80.51,421.79l44.44-.24,44.43-.09,88.88-.16,88.87.16,44.44.09,44.44.24-44.44.25-44.44.09-88.87.16-88.88-.16-44.43-.09Z" fill="#263238" />
		</g>
		<g id="freepik--Shadows--inject-5">
			<ellipse id="Ellipse_47" data-name="Ellipse 47" cx="141.93" cy="16.11" rx="141.93" ry="16.11" transform="translate(49.77 428.93)" fill="#ebebeb" />
			<ellipse id="Ellipse_48" data-name="Ellipse 48" cx="70.9" cy="9.26" rx="70.9" ry="9.26" transform="translate(314.42 435.78)" fill="#ebebeb" />
		</g>
		<g id="freepik--Puff--inject-5">
			<path id="Path_1339" data-name="Path 1339" d="M84.4,444.33l164,.71c39.86-31.31,44-77.69,15.54-105.8-17.21-17-39.07-13.57-59.88-16.28H204c-7.25-.94-14.36-2.63-21.11-6.19-21.43-11.31-33.51-38-51.54-60.41-2.25-2.81-4.6-5.55-7.06-8.18-14.83-15.83-44.34-16.35-59.77,5.91C25.32,310.63,43.29,394.8,84.4,444.33Z" fill="#dbdbdb" />
			<path id="Path_1340" data-name="Path 1340" d="M80.76,314.94c4.3,67.29,82,92.41,130.55,72.25,42.2-17.53,28.39-57.53-7.23-64.23H204c-7.25-.94-14.36-2.63-21.11-6.19-21.43-11.31-33.51-38-51.54-60.41C104.51,242.4,77.61,265.67,80.76,314.94Z" fill="#c7c7c7" />
		</g>
		<g id="freepik--Character--inject-5">
			<path id="Path_1341" data-name="Path 1341" d="M217.07,439.79c-2.27-.83-53.56-41.83-54.53-44.63-.38-1.06,5.16-8.88,12.12-18.14,1.5-2,3.06-4,4.66-6.13,10.37-13.51,21.68-27.6,21.68-27.6l34.39,27.33-22.62,26.84-5,5.9s12.62,24.48,13.35,27.66S219.34,440.62,217.07,439.79Z" fill="#ad6359" />
			<path id="Path_1342" data-name="Path 1342" d="M217.07,439.79c-2.27-.83-53.56-41.83-54.53-44.63-.45-1.29,7.81-12.57,16.78-24.27l33.45,26.57-5,5.9s12.62,24.48,13.35,27.66S219.34,440.62,217.07,439.79Z" fill="#fff" />
			<path id="Path_1343" data-name="Path 1343" d="M217.07,439.79c-2.27-.83-53.56-41.83-54.53-44.63-.38-1.06,5.16-8.88,12.12-18.14l33.14,26.34s12.62,24.48,13.35,27.66S219.34,440.62,217.07,439.79Z" fill="#0dbdb8" />
			<path id="Path_1344" data-name="Path 1344" d="M218,437.15c-8.43-7.08-43.1-34.86-52-41.22-.08-.05-.11,0,0,.06,8.2,7.2,43.1,34.69,51.9,41.3C218.05,437.43,218.15,437.3,218,437.15Z" fill="#263238" />
			<path id="Path_1345" data-name="Path 1345" d="M219.33,426.54a8.83,8.83,0,0,0-6.82-2,8.51,8.51,0,0,0-5.59,3.06c0,.05.05.13.1.08a10.22,10.22,0,0,1,12.22-1,.083.083,0,1,0,.09-.14Z" fill="#263238" />
			<path id="Path_1346" data-name="Path 1346" d="M210.46,406.88c-3.41-2.8-8.37-4.77-12.76-3.67-.17.05-.1.29,0,.32a61.059,61.059,0,0,1,12.44,3.82.284.284,0,0,0,.32-.47Z" fill="#263238" />
			<path id="Path_1347" data-name="Path 1347" d="M212.28,410c-3.4-2.8-8.36-4.77-12.75-3.67-.17.05-.1.29,0,.32A61.247,61.247,0,0,1,212,410.51a.291.291,0,1,0,.28-.51Z" fill="#263238" />
			<path id="Path_1348" data-name="Path 1348" d="M214.11,413.2c-3.4-2.8-8.36-4.77-12.75-3.67-.17,0-.11.29,0,.31a61.629,61.629,0,0,1,12.43,3.83.284.284,0,0,0,.32-.47Z" fill="#263238" />
			<path id="Path_1349" data-name="Path 1349" d="M215.94,416.36c-3.4-2.8-8.36-4.77-12.75-3.67-.17,0-.11.28,0,.31a61,61,0,0,1,12.43,3.83.284.284,0,1,0,.32-.47Z" fill="#263238" />
			<path id="Path_1350" data-name="Path 1350" d="M174.72,389.51c-3.87-3.07-8.65,2.94-4.78,6S178.6,392.59,174.72,389.51Z" fill="#263238" />
			<path id="Path_1351" data-name="Path 1351" d="M221.51,400.67c-.58-2.84-3.91-3.18-6.18-2.54a23.14,23.14,0,0,0-10.16,6.3.12.12,0,0,0,0,.19.53.53,0,0,0,.4.77c3.8.26,7.84,1,11.61.1C219.41,405,222.07,403.35,221.51,400.67Zm-10.06,3.94c-1.88-.08-3.74-.26-5.61-.28,2-1.22,3.9-2.52,6-3.55a25.6,25.6,0,0,1,3.11-1.31c1.66-.54,7.34-.72,4.69,3.3-1.45,2.23-5.96,1.94-8.19,1.84Z" fill="#263238" />
			<path id="Path_1352" data-name="Path 1352" d="M195.6,398.88c2.63,2.85,6.4,4.47,9.71,6.36a.53.53,0,0,0,.76-.42c.07,0,.14,0,.13-.13a23.07,23.07,0,0,0-4.95-10.89c-1.53-1.8-4.48-3.36-6.55-1.33S194.06,397.21,195.6,398.88Zm-.51-3.62c0-4.82,4.65-1.51,5.73-.15a24.139,24.139,0,0,1,1.85,2.83,60.4,60.4,0,0,1,3,6.29c-1.57-1-3.21-1.92-4.82-2.89-1.85-1.16-5.78-3.43-5.76-6.08Z" fill="#263238" />
			<path id="Path_1353" data-name="Path 1353" d="M270.13,318.08c-.06,5.14-5.2,14.52-12.24,25-13.54,20.19-34.15,44.44-39.24,50.36l-1.16,1.34-36.42-28,.42-.54,32.07-42-95.68-.56,36.33-28.25s2.95,1.7,9.07.8c21.12-3.09,68.73-9.93,79.95-9.48C257.71,287.37,270.35,301.54,270.13,318.08Z" fill="#455a64" />
			<path id="Path_1354" data-name="Path 1354" d="M257.89,343.09c-13.54,20.19-34.15,44.44-39.24,50.36l-37.16-27.19,32.07-42Z" fill="#263238" />
			<path id="Path_1355" data-name="Path 1355" d="M225.08,308.65a42.655,42.655,0,0,0-3.31,4.24l-3.41,4.44v.05c.2-.44.4-.88.61-1.31.71-1.48,1.28-3,2.13-4.42.05-.09-.08-.17-.13-.08-.87,1.4-1.88,2.74-2.62,4.22-.35.69-.68,1.4-1,2.11-.17.39-.35.79-.5,1.18-.07.19-.15.38-.21.58-.5.69-1,1.38-1.49,2.09-1.08,1.56-2,3.21-3.13,4.77-.06.08.08.16.14.08,1.1-1.46,2.34-2.82,3.47-4.27s2.23-3,3.3-4.52,2.07-3,3.12-4.48a45.774,45.774,0,0,0,3.15-4.61.069.069,0,0,0-.12-.07Z" fill="#263238" />
			<path id="Path_1356" data-name="Path 1356" d="M131,255.42c6.78,8.35,31.4,32.22,46.77,35.72,8.47,1.93,49.4,7.66,55,2.55,6.58-6,3.53-28.51-1.7-28.72-15.94-.63-45.44,2.49-52.81.87-3.34-.74-21-12.14-39.88-21.25C131.3,241.14,126.43,249.74,131,255.42Z" fill="#ad6359" />
			<path id="Path_1357" data-name="Path 1357" d="M224.79,263s-.09.87-.24,2.35a2.983,2.983,0,0,1-.07.77c-.09.85-.19,1.85-.3,2.95v.39q-.13,1.38-.3,2.94c0,.25-.06.51-.08.77-.1.95-.21,1.94-.31,2.95v.39c-.11,1-.21,2-.32,3,0,.25-.06.51-.08.76-.11,1-.22,2-.33,2.95a1.048,1.048,0,0,1-.05.39c-.11,1-.22,2-.33,2.95l-.09.76c-.08.63-.15,1.25-.22,1.85-.05.37-.1.74-.14,1.1v.39q-.11.84-.21,1.62c-.06.46-.12.91-.17,1.33a4.637,4.637,0,0,1-.12.76c-.2,1.37-.37,2.4-.52,3a1.431,1.431,0,0,1-.13.39s-.05.06-.07.06l-.51-.06-1.42-.15-.77-.08-1.64-.16-1.3-.13h-.4l-2.94-.3-.77-.08-2.94-.3h-.4l-2.94-.31-.77-.08-2.94-.32h-.4l-2.94-.32-.77-.09-2.94-.34h-.4l-2.94-.35-.77-.09-.63-.08-2.31-.29-.4-.05-2.94-.39h-.19l-.58-.08-2.94-.42-.4-.06q-1.59-.24-2.94-.48l-.77-.14c-1.16-.21-2.16-.41-2.94-.61l-.4-.1-.21-.06a12.39,12.39,0,0,1-2.36-1l-.37-.19-.36-.2-.41-.23c-.91-.54-1.89-1.17-2.94-1.9-.13-.08-.26-.18-.4-.28l-.76-.54-1.05-.76-1.13-.85-.77-.59-1.9-1.51-.49-.39-.55-.45-.4-.33-.53-.43c-.68-.57-1.38-1.14-2.07-1.74a4.387,4.387,0,0,1-.34-.29l-.56-.47-.21-.18c-1-.84-2-1.69-2.94-2.56l-.24-.21-.16-.14-.28-.25-2.66-2.39-.62-.56-.15-.14-.7-.63c-.76-.69-1.51-1.39-2.25-2.08L144,270l-.54-.5-.42-.39-2-1.87-.77-.73-.37-.35-.81-.77-1.77-1.7-.39-.38-.88-.86-.41-.4L134,260.39l-.76-.76-.55-.54-.64-.65-.11-.12a16.412,16.412,0,0,1-1.65-1.95c-.14-.18-.27-.37-.39-.56s-.19-.29-.28-.43a3.261,3.261,0,0,1-.24-.4,13.641,13.641,0,0,1-1.33-2.94,7.486,7.486,0,0,1-.23-.77,9.85,9.85,0,0,1-.32-2.94v-.4a5.79,5.79,0,0,1,1.09-2.94,4.889,4.889,0,0,1,.74-.77,4.259,4.259,0,0,1,.53-.39,3.64,3.64,0,0,1,.39-.23,6.79,6.79,0,0,1,2.95-.71h.8a14.1,14.1,0,0,1,2.48.34h0l.47.12a2.794,2.794,0,0,1,.39.1,22.939,22.939,0,0,1,2.31.76l.64.26.77.33.38.18c.51.23,1,.49,1.58.78l1,.51.39.21,2.69,1.44.26.14.48.26a2.69,2.69,0,0,1,.29.16c1,.53,2,1.07,2.94,1.61l.4.22,1.7,1,1.24.7.13.07.64.36,2.94,1.67.4.23,1.19.68.7.4,1,.6.77.45,2.94,1.68.36.21h0l1.3.75,1.64.92.77.44,2.86,1.58h.08l.4.21.28.15c1,.51,1.85,1,2.66,1.37l.77.36a19.619,19.619,0,0,0,2.94,1.17h.15l.25.06a3.668,3.668,0,0,0,.42.07,23.907,23.907,0,0,0,2.52.05h.77c.86,0,1.85,0,2.94-.09h.4l1.19-.05,1.75-.08h.77l2.94-.16h.4l2.94-.17h.77l2.94-.18h.4l2.94-.18.77-.05,2.94-.19h.4l2.94-.2.77-.05,2.94-.2h.4l2.94-.2.77-.06,2.94-.21h.4Z" fill="#0dbdb8" />
			<path id="Path_1358" data-name="Path 1358" d="M130.33,243.6v12.77c-.14-.18-.27-.37-.39-.56v-12a3.643,3.643,0,0,1,.39-.21Zm6.66-.24v19.93l.39.38V243.46a2.792,2.792,0,0,0-.38-.1Zm-3.71-.47v16.74l.76.76v-17.5Zm7.05,1.59v22l.77.73v-22.4Zm3.71,1.8V270l.39.36V246.49Zm7.05,3.82v26.29l.16.14.24.21V250.32Zm-3.23-1.77-.48-.26v25.12h.15l.62.56V248.49a2.689,2.689,0,0,0-.29-.16Zm6.7,3.71-.13-.07V279.3l.21.18.56.47V252.4Zm3.58,2v28.34l.4.33V254.3Zm7.41,4.25-.36-.21V287.8c.14.1.27.2.4.28V258.32ZM161.48,256v29.11l.77.59V256.43Zm7.05,4v30.23h.41l.36.2v-30Zm3.71,2.06v29.62l.4.1v-29.5Zm7.2,3.3h-.15V293l.4.06V265.37Zm-3.86-1.57v28.6l.77.14V264.16Zm7,1.75v28h.77V265.53Zm3.71-.11V294l.4.05V265.42Zm7-.35v29.77h.4V265.07Zm-3.71.2v29.13l.77.09V265.25Zm7-.39v30.34l.77.09V264.86Zm3.71-.22v31h.4v-31Zm7.05-.45V296.4h.4V264.2Zm-3.71.24V296l.77.08V264.42Zm7.05-.47v32.74l.77.08V264Zm3.71-.25v33.37h.4V263.72Zm7.05-.5v29q.1-.78.21-1.62v-.39a8.487,8.487,0,0,1,.14-1.1V263.22Zm-3.71.27v33.93l.77.08V263.46Zm-1.64,33.77,1.64.16.77.08,1.42.15h.58a1.43,1.43,0,0,0,.13-.39Zm-33-3.71h.19l2.94.39.4.05,2.31.29H221.3a4.272,4.272,0,0,1,.12-.76Zm-14.27-3.34.36.2.37.19H221.8v-.39Zm-9.85-7.05.49.39h63a1.048,1.048,0,0,1,.05-.39Zm4.29,3.34,1.05.76h57.78l.09-.76Zm-8.74-7,.56.47a4.374,4.374,0,0,0,.34.29H223a6.531,6.531,0,0,1,.08-.76Zm-3.83-3.34.28.25.16.14h72.16v-.39Zm-7.73-7.05.42.39h80.64v-.39Zm3.6,3.33.7.63v.14h76.38a6.476,6.476,0,0,1,.08-.77Zm41.25-7.05-1.19.05h-.4c-1.09,0-2.08.08-2.94.09h-.77a23.9,23.9,0,0,1-2.52-.05,3.668,3.668,0,0,1-.42-.07v-.06H139.15l.81.77h84.52c0-.27.05-.53.07-.77Zm-15.29-3.09-.4-.21H135.7l.41.4h36.81ZM159.73,255H129.42a3.258,3.258,0,0,0,.24.4h30.77Zm5.86,3.36H132l.11.12.64.65h34.16ZM154.43,252l-1.24-.7H127.86a7.485,7.485,0,0,0,.23.77h26.47Zm-7.05-3.9-.26-.14H127.58v.4H147.9Zm-6.28-3.26-.77-.33-.64-.26H129.41a4.89,4.89,0,0,0-.74.77h12.81Z" fill="#fff" opacity="0.2" />
			<path id="Path_1359" data-name="Path 1359" d="M157.61,282c-9.53-7.88-20.45-18.42-25.52-23.54-7-7.05-6.27-17.61,4.43-15.21h0C139.43,248.07,152.12,271.73,157.61,282Z" fill="#263238" />
			<path id="Path_1360" data-name="Path 1360" d="M218.2,266.08c0-.09-.13-.12-.15,0-.46,2.32-.65,4.7-.91,7.05s-.51,4.85-.73,7.29c-.43,4.84-.94,9.72-1.1,14.59a.16.16,0,0,0,.31,0c.73-4.78,1.12-9.64,1.57-14.45.22-2.38.44-4.77.61-7.16S218.23,268.51,218.2,266.08Z" fill="#263238" />
			<path id="Path_1361" data-name="Path 1361" d="M160.13,317.64a4.88,4.88,0,0,1-1.59.51l-.4.08-1,.21-1.9.34-.31.05-.46.07-2.94.47-.4.05c-.93.15-1.91.29-2.94.44l-.77.11-2.94.41-.4.05-2.94.4-.77.1-2.94.38-.4.05-1.19.15-1.75.23h-.34a1.068,1.068,0,0,0-.43.06l-2.94.36-.4.05-2.49.3-.45.05-.77.1-2.94.36-.4.05-2.94.34-.77.09-2.94.34-.4.05-2.94.34a4.906,4.906,0,0,0-.77.09l-2.94.32-.4.05h-.5l-2.44.26-.77.09-2.94.3-.4.05h-.14c-1.09.11-2,.2-2.8.26l-.77.07-.84.06a3.082,3.082,0,0,1-.68,0,.71.71,0,0,1-.06-.39,28.093,28.093,0,0,1,.14-2.94,3.466,3.466,0,0,1,.06-.77c.08-.87.18-1.85.3-2.95v-.39c.1-.92.21-1.9.33-2.95l.09-.76c.11-.94.23-1.93.36-3v-.39q.11-.78.21-1.59l.18-1.36a6.892,6.892,0,0,1,.1-.76c.13-1,.27-1.94.41-2.95l.06-.39a1.11,1.11,0,0,1,0-.17c.13-.91.26-1.84.4-2.78a5.158,5.158,0,0,1,.11-.76c.15-1,.3-1.95.45-2.95l.06-.39c.15-1,.3-2,.46-3a5.257,5.257,0,0,1,.13-.76c.15-1,.32-2,.48-2.95a.886.886,0,0,1,.06-.39c.17-1,.34-2,.52-2.95a4.03,4.03,0,0,1,.13-.76c.05-.25.09-.54.14-.8l.39-2.15v-.07l.06-.32c.18-1,.37-2,.56-2.95a3.409,3.409,0,0,1,.15-.76c.18-1,.38-2,.57-3l.09-.39c.2-1,.4-2,.61-2.95.06-.26.11-.51.16-.77.22-1,.44-2,.67-2.94a.535.535,0,0,1,.07-.32c.07-.11,0-.05,0-.07.23-1,.47-2,.7-2.95l.06-.23a2.152,2.152,0,0,1,.14-.54c.25-1,.5-2,.76-2.94a1.494,1.494,0,0,1,.11-.4c.27-1,.55-2,.83-2.94l.24-.77c.28-.93.57-1.82.86-2.66a.788.788,0,0,1,.1-.28c.04-.09.09-.27.14-.4s.1-.3.16-.44c.17-.49.35-1,.53-1.41s.29-.74.44-1.09.23-.52.34-.77a19,19,0,0,1,1.61-2.94h0s.18-.26.27-.37a7.707,7.707,0,0,1,.5-.59l.28-.28.53-.48c.68-.6,1.31-1.13,1.9-1.59a1.807,1.807,0,0,1,.23-.18l.4-.31.38-.28c.92-.68,1.76-1.23,2.56-1.73L120,242l.16-.1a6.61,6.61,0,0,1,1.36-.62,12.691,12.691,0,0,1,1.42-.38h.11l.29-.06a28.073,28.073,0,0,1,2.94-.37h.77c1,0,2-.07,2.94,0h.4a27.429,27.429,0,0,1,2.94.18l.77.09a9.058,9.058,0,0,1,1.37.25l.17.06a2.2,2.2,0,0,1,.54.34,8,8,0,0,1,.86.83l.4.45a19.16,19.16,0,0,1,1.27,1.66c.18.25.36.5.54.77.37.55.75,1.15,1.13,1.78.23.37.47.76.69,1.16l.08.13.15.27c.53.94,1,1.93,1.52,2.94.13.25.25.51.37.77q.48,1.05.9,2.13c.11.27.21.54.31.81l.09.24.06.16a29.519,29.519,0,0,1,.86,2.84.3.3,0,0,1,0,.1c.06.22.12.48.2.77.19.77.44,1.76.75,2.94a1.6,1.6,0,0,0,.11.4c.23.89.48,1.87.77,2.94a2.944,2.944,0,0,0,.17.68.29.29,0,0,1,0,.09q.36,1.33.75,2.82v.13a1.865,1.865,0,0,0,.1.39l.78,2.94c.06.25.13.51.2.77.25,1,.51,1.94.77,2.95a1.429,1.429,0,0,0,.11.39c.25,1,.51,2,.77,3l.18.69a.638.638,0,0,1,0,.07c.13.47.25.95.38,1.43l.39,1.52a1.429,1.429,0,0,0,.11.39c.25,1,.51,2,.76,2.95.07.25.14.5.2.76.26,1,.52,2,.77,2.95a1.865,1.865,0,0,0,.1.39c.2.78.41,1.56.61,2.34l.15.61c.07.25.13.51.2.76l.42,1.63c.11.45.22.89.34,1.32a1.4,1.4,0,0,0,.1.39l.74,2.95c.07.26.13.51.2.76.25,1,.5,2,.73,2.95a1.865,1.865,0,0,0,.1.39l.72,2.95h0l.18.74c.07.33.15.65.22,1,.17.69.33,1.36.47,2l.09.39c.26,1.13.47,2.12.64,3,.06.27.11.53.15.76A6,6,0,0,1,160.13,317.64Z" fill="#0dbdb8" />
			<path id="Path_1362" data-name="Path 1362" d="M102.14,283.51v41.92l-.4.05V285.73l.39-2.15A.564.564,0,0,0,102.14,283.51Zm-3.36,20.83-.06.39c-.14,1-.28,2-.41,2.95a6.314,6.314,0,0,1-.1.76L98,309.8v16l.77-.07V304.17A1.11,1.11,0,0,0,98.78,304.34Zm7-38.2c-.23,1-.47,1.95-.7,2.95h0v56l.77-.09V265.91ZM109,255a1.741,1.741,0,0,1-.14.4c-.04.14-.07.19-.1.28v69.07l.4-.05V254.54A2.113,2.113,0,0,1,109,255Zm6.81-10.17v79.12l.4-.05V244.5Zm-3.44,3.12c-.09.11-.18.24-.27.37v76.06a7,7,0,0,0,.77-.09V247.34q-.249.283-.47.59Zm6.78-5.44v81.05l.77-.09V242Zm3.82-1.61h-.11v82.23l.4-.05V240.82Zm6.94-.52v81.89l.4-.05V240.36Zm-3.71.09V322.7l.77-.1V240.41Zm7,.09v81.3a1.068,1.068,0,0,0,.43-.06h.34V240.63Zm3.71,1.57v79.25l.4-.05V242.56ZM144.35,255c-.1-.27-.2-.54-.31-.81v66.26l.4-.05V255Zm-3.33-7c-.22-.4-.46-.79-.69-1.16V321l.77-.1V248.06Zm6.38,18.21a.29.29,0,0,0,0-.09V320l.77-.11V269q-.41-1.52-.77-2.86Zm3.71,14.1a.638.638,0,0,0,0-.07v39.25l.4-.05v-37.7c-.15-.55-.27-1.03-.4-1.5Zm7.21,28.2-.18-.74V318.3l.4-.08v-8.74c-.07-.39-.15-.71-.22-1.04Zm-3.54-14.1c-.07-.25-.13-.51-.2-.76l-.15-.61V318.9l.46-.07.31-.05V296ZM96.45,325.49a.71.71,0,0,0,.06.39H98v-.06l.77-.07c.77-.06,1.71-.15,2.8-.26Zm.2-3.71a3.209,3.209,0,0,1-.06.77h30.86l2.49-.3.4-.05,2.94-.36a1.068,1.068,0,0,0,.43-.06Zm.34-3.34v.39h57.94l.31-.05,1.9-.34Zm62-7.05H97.82v.39H159.1Zm.73,3.34H97.41l-.09.76h62.57c-.04-.23-.09-.49-.15-.76Zm-1.6-7H98.31a6.314,6.314,0,0,1-.1.76h60.11Zm-.83-3.36H98.78l-.06.39h58.69c-.03-.16-.07-.29-.1-.42Zm-1.77-7H99.82l-.06.39h55.88c-.04-.21-.07-.34-.1-.47Zm.84,3.34H99.31a4.8,4.8,0,0,1-.11.76h57.38c-.07-.33-.13-.58-.2-.84Zm-1.8-7.05H100.41a4.827,4.827,0,0,1-.13.76h54.5c-.07-.33-.13-.59-.2-.84Zm-.86-3.34H101a.886.886,0,0,1-.06.39h52.93a3.42,3.42,0,0,1-.15-.47Zm-1.84-7.05H102.2l-.06.32v.07H152a1.336,1.336,0,0,0-.12-.47Zm.87,3.34H101.6a5.033,5.033,0,0,1-.13.76H153c-.11-.37-.18-.59-.25-.84Zm-1.66-6.36-.18-.69h-48c-.06.25-.11.51-.15.76h48.35a.64.64,0,0,0,0-.15Zm-1.06-4H103.57l-.09.39h46.66a1.515,1.515,0,0,0-.14-.5Zm-1.85-7.05h-43.1v.07a.535.535,0,0,1-.07.32h43.27a2.251,2.251,0,0,0-.08-.5Zm.88,3.33h-44.7a3.519,3.519,0,0,1-.16.77h45.08c-.07-.37-.14-.63-.2-.88Zm-1.68-6.37c-.06-.23-.12-.46-.17-.68H106a2.686,2.686,0,0,1-.14.54l-.06.23h41.6a.29.29,0,0,0-.02-.2Zm-1-4h-39.5a1.988,1.988,0,0,1-.11.4h39.69c-.04-.27-.08-.4-.11-.56Zm-1.89-6.81V255H109a1.741,1.741,0,0,1-.14.4H144.5Zm.94,3.1H107.93l-.24.77h37.89c-.08-.42-.14-.68-.2-.9Zm-2.61-7H110.5c-.11.25-.23.5-.34.77h33a7.776,7.776,0,0,0-.39-.95Zm-1.67-3.21-.08-.13H112.4c-.09.11-.18.24-.27.37h29.14Zm-5.51-7.12-.17-.06H122.89a12.687,12.687,0,0,0-1.42.38h14.66a2.2,2.2,0,0,0-.54-.5Zm3.07,3.28h-22l-.38.28-.4.31a1.809,1.809,0,0,0-.23.18H139.2a4.824,4.824,0,0,0-.54-.95Z" fill="#fff" opacity="0.2" />
			<path id="Path_1363" data-name="Path 1363" d="M135.8,321.51c-9.43,1.21-19.8,2.43-27.51,3.27l1.43-71.65c1.12-2.88,2.29-5,3.46-6.07l.53-.48Z" fill="#263238" />
			<path id="Path_1364" data-name="Path 1364" d="M148.8,311.53q-.72-3.33-1.45-6.66-1.47-6.66-3-13.31-3.09-13.41-6.55-26.73c-1.28-5-2.65-9.94-3.91-14.93a.08.08,0,0,0-.15,0c2.31,8.84,4.32,17.76,6.39,26.66s4.1,17.72,6.08,26.6l1.65,7.47c.55,2.52,1,5.12,1.72,7.58.08.28.57.22.53-.08C149.85,316,149.27,313.73,148.8,311.53Z" fill="#263238" />
			<path id="Path_1365" data-name="Path 1365" d="M133.84,252.19c-3.7.51-9.4-5.62-11.43-10.34-.14-.32.64-3.52,1.41-7.45.45-2.39.9-5.06,1.14-7.52,0-.51,1.68.58,1.68.58l3.11,1.08,10.31,3.56a39.38,39.38,0,0,0-2.39,9.32,5,5,0,0,0,0,1v.17C137.81,244.57,137.42,251.69,133.84,252.19Z" fill="#ad6359" />
			<path id="Path_1366" data-name="Path 1366" d="M137.68,242.45v.17a9.768,9.768,0,0,1-1.59-.07C125.7,241.33,125.65,228,125.65,228l4.1.57,10.31,3.56a39.381,39.381,0,0,0-2.39,9.32A5,5,0,0,0,137.68,242.45Z" fill="#263238" />
			<path id="Path_1367" data-name="Path 1367" d="M126.84,207.26c-2.77,5-3.18,21.21-.08,25.48,4.51,6.2,13.5,8.58,19.18,2.8,5.5-5.61,5.66-26.69,2-30.74C142.65,198.83,130.94,199.8,126.84,207.26Z" fill="#ad6359" />
			<path id="Path_1368" data-name="Path 1368" d="M140.25,220.66s-.09.05-.09.09c0,1.09-.18,2.34-1.18,2.67v.06C140.2,223.35,140.42,221.69,140.25,220.66Z" fill="#263238" />
			<path id="Path_1369" data-name="Path 1369" d="M139.31,219.49c-1.75-.18-2,3.32-.37,3.5S140.77,219.65,139.31,219.49Z" fill="#263238" />
			<path id="Path_1370" data-name="Path 1370" d="M146.52,221.27s.09.06.08.11c-.11,1.08,0,2.34.91,2.77v.06C146.3,224,146.25,222.28,146.52,221.27Z" fill="#263238" />
			<path id="Path_1371" data-name="Path 1371" d="M147.57,220.21c1.76,0,1.65,3.5,0,3.51S146.1,220.22,147.57,220.21Z" fill="#263238" />
			<path id="Path_1372" data-name="Path 1372" d="M138,217.79a13.62,13.62,0,0,0,1.39-.38,2.31,2.31,0,0,0,1.34-.66.75.75,0,0,0-.05-.91,1.85,1.85,0,0,0-1.84-.32,2.7,2.7,0,0,0-1.64,1.06.79.79,0,0,0,.8,1.21Z" fill="#263238" />
			<path id="Path_1373" data-name="Path 1373" d="M149.05,218.54c-.48-.12-.9-.3-1.37-.46a2.34,2.34,0,0,1-1.3-.74.74.74,0,0,1,.1-.9,1.87,1.87,0,0,1,1.86-.22,2.74,2.74,0,0,1,1.58,1.15.8.8,0,0,1-.87,1.17Z" fill="#263238" />
			<path id="Path_1374" data-name="Path 1374" d="M139,230.28c.24.27.48.64.87.7a2.86,2.86,0,0,0,1.19-.19v.06a1.48,1.48,0,0,1-1.42.49,1.16,1.16,0,0,1-.79-1C138.86,230.25,139,230.24,139,230.28Z" fill="#263238" />
			<path id="Path_1375" data-name="Path 1375" d="M139.91,227.5a3.71,3.71,0,0,0,2.35,1.82,4.571,4.571,0,0,0,1.33.15,1.109,1.109,0,0,0,.26,0h.24a.27.27,0,0,0,.23-.23h0a.41.41,0,0,0,0-.11h0V229c.08-.84.08-2.11.08-2.11.3.17,1.81,1,1.81.54a55.7,55.7,0,0,0-.65-11.3.1.1,0,0,0-.2,0c-.18,3.49.27,7,.15,10.5a6.519,6.519,0,0,0-1.71-.66,22.358,22.358,0,0,0,0,2.85h0a5.15,5.15,0,0,1-3.74-1.46C139.94,227.34,139.85,227.41,139.91,227.5Z" fill="#263238" />
			<path id="Path_1376" data-name="Path 1376" d="M148.72,210.27c-5.57,3.17-12.31-2.89-12.31-2.89a5.75,5.75,0,0,1-6.11,3.14s-1.78,8.82-4.13,8.61c-3.58-.32-3.67-12.57-2.34-14.86s4.42-2.65,4.42-2.65a5.9,5.9,0,0,1,2.73-3.34c2.6-1.67,10.82,1.56,10.82,1.56a7.9,7.9,0,0,1,2.41-2.74,2.22,2.22,0,0,1,3.16.56,5.25,5.25,0,0,0-1,2.13c-.64,2.57,1.49,2.74,1.67.38a3.76,3.76,0,0,0-.63-2.51c1.18-1.46,2.94-1.82,3.91-.9C153.05,198.42,153.35,207.64,148.72,210.27Z" fill="#263238" />
			<path id="Path_1377" data-name="Path 1377" d="M127.51,220.64s-2.58-5.72-5.11-4.89-1.25,8.65,1.25,10.16a2.79,2.79,0,0,0,3.95-.78Z" fill="#ad6359" />
			<path id="Path_1378" data-name="Path 1378" d="M122.82,218s-.06.05,0,.07c1.75,1.12,2.41,3.06,2.77,5a1.54,1.54,0,0,0-2.19-.84c-.05,0,0,.11,0,.11a1.72,1.72,0,0,1,1.75.94,8.64,8.64,0,0,1,.6,1.66c.06.19.38.16.35-.05h0C126.6,222.43,125.36,218.71,122.82,218Z" fill="#263238" />
			<path id="Path_1379" data-name="Path 1379" d="M137.68,242.62,134.32,251l-11.61-11.16-3.09,3.77s11.56,17.94,11.61,17.12l3.51-7.94,5.56,5.29-.83-13.66Z" fill="#0dbdb8" />
			<path id="Path_1380" data-name="Path 1380" d="M140.27,251.29c-.21-2.25-.36-4.53-.68-6.77a.08.08,0,0,0-.15,0c-.39,2.19.47,10.79.52,12.86h0c-.24-.23-5.15-4.65-5.2-4.58-.77,1.27-3.35,7-3.53,7.57-1.83-2.85-9.57-14.07-11.71-16.75a.08.08,0,0,0-.13.08c1.63,3,11.63,17.83,11.77,17.79a86.885,86.885,0,0,0,3.67-8.39c.84,1,5.82,6,5.83,5.63a70.571,70.571,0,0,0-.39-7.44Z" fill="#263238" />
			<path id="Path_1381" data-name="Path 1381" d="M183.41,303.24h40.61l7.67-57.47h-40.6Z" fill="#a6a6a6" />
			<path id="Path_1382" data-name="Path 1382" d="M185.41,303.24h40.6l7.68-57.47H193.08Z" fill="#dbdbdb" />
			<path id="Path_1383" data-name="Path 1383" d="M213.5,271.66a4.4,4.4,0,0,1-4.3,3.95,3.56,3.56,0,0,1-3.6-3.95,4.39,4.39,0,0,1,4.29-4,3.57,3.57,0,0,1,3.61,4Z" fill="#fff" />
			<path id="Path_1384" data-name="Path 1384" d="M110.35,258.62c-1.91,26.75,2.8,45.17,7.51,47.14,12.7,5.32,51.31,8.28,60.16,7.34,3.46-.36,1.18-29.05-2.54-29-9.22.25-43,.53-43.44.33-2.87-1.35-3-10.27-9.64-29.33C117.05,239.72,111.13,247.68,110.35,258.62Z" fill="#ad6359" />
			<path id="Path_1385" data-name="Path 1385" d="M205,278.42a4.15,4.15,0,0,1,0,4.73,6.12,6.12,0,0,1,3.16,2.73c1.13,2.27-1.92,5-1.92,5a7.61,7.61,0,0,1,2.87,3.42c.87,2.28-1.82,5.51-1.82,5.51a6.68,6.68,0,0,1,.64,4.59c-.69,2.66-7.32,6.05-11.27,7.31s-16.32,1.15-18.69,1.36l-8.31-25.26s16.08-10.69,20.93-11.52C194.73,275.63,203.09,275.84,205,278.42Z" fill="#ad6359" />
			<path id="Path_1386" data-name="Path 1386" d="M204.74,282.8c-4.52-.31-8.88.74-13.3,1.55-.1,0-.07.17,0,.15,4.38-.85,8.88-.82,13.29-1.49a.11.11,0,0,0,.01-.21Z" fill="#263238" />
			<path id="Path_1387" data-name="Path 1387" d="M206.1,290.61a11.71,11.71,0,0,0-3,.49c-1.07.25-2.13.52-3.19.8-2.11.57-4.22,1.19-6.3,1.87a.08.08,0,1,0,0,.15c2.11-.56,4.23-1.1,6.36-1.57,1.07-.24,2.14-.46,3.21-.68a14,14,0,0,0,3-.77.15.15,0,1,0-.08-.29Z" fill="#263238" />
			<path id="Path_1388" data-name="Path 1388" d="M207.25,299.86a8.1,8.1,0,0,0-2.72.59l-2.88.82c-1.93.54-3.85,1.07-5.79,1.54-.1,0-.07.18,0,.15,2-.46,4-.9,5.92-1.39,1-.23,1.94-.48,2.91-.73a7.571,7.571,0,0,0,2.56-.89S207.3,299.86,207.25,299.86Z" fill="#263238" />
			<path id="Path_1389" data-name="Path 1389" d="M171.86,282.74v32.2l-2.56-.13h-1.63l-2.08-.11h-.4l-2.94-.19h-.77l-2.94-.2h-.4l-2.94-.23-.77-.06-2.94-.25h-.4l-2.94-.27-.77-.08-2.94-.31h-.4c-1-.1-2-.22-2.94-.33l-.77-.09-2.94-.38L137,312l-1.43-.2-1.51-.22-.77-.12-.28-.05c-.91-.14-1.79-.29-2.66-.45l-.4-.07c-1-.18-2-.37-2.94-.57l-.77-.17c-1-.23-2-.46-2.94-.71l-.4-.11q-1.53-.42-2.79-.87l-.15-.05-.77-.3c-.32-.14-.63-.27-.91-.41a8.68,8.68,0,0,1-2-1.25l-.1-.09-.3-.31a8.19,8.19,0,0,1-1-1.3c-.08-.12-.15-.25-.23-.39a19.441,19.441,0,0,1-1.36-2.95l-.27-.76-.09-.28c-.27-.8-.53-1.66-.77-2.57v-.1l-.09-.39c-.25-.94-.47-1.93-.69-3a5.311,5.311,0,0,0-.14-.76c-.2-.95-.37-1.94-.53-2.95a2.663,2.663,0,0,0-.07-.39c-.15-1-.29-1.95-.42-2.95a6.591,6.591,0,0,0-.1-.76c-.12-1-.24-2-.34-2.95v-.39c-.1-1-.19-2-.27-2.95l-.06-.76c-.06-.76-.11-1.52-.16-2.28v-1.06c-.06-1-.1-2-.14-2.95v-.77c0-1-.06-2-.08-2.94v-4.11c0-1,0-2,.06-2.94V262c0-1,.07-2,.13-2.94v-.77c0-.48.07-.93.11-1.37s.11-1.08.17-1.57v-.4c.09-.69.2-1.31.31-1.85.08-.38.16-.74.26-1.09s.15-.52.23-.77a11.65,11.65,0,0,1,1.37-2.94l.3-.4.25-.3a4.781,4.781,0,0,1,.77-.73,3.79,3.79,0,0,1,2.94-.86l.4.08a6.31,6.31,0,0,1,2.92,1.81h0c.12.12.24.24.36.38s.28.31.41.48a16.66,16.66,0,0,1,1.64,2.46l.42.77c.3.59.59,1.22.88,1.9.13.32.27.65.4,1h0l.15.4c.29.79.58,1.63.85,2.52a1.693,1.693,0,0,0,.13.42c.04.14.15.51.24.77l.89,2.94.12.4c.18.61.36,1.21.54,1.79.12.39.24.77.35,1.15s.16.52.23.77.13.4.19.6l.72,2.35a1.491,1.491,0,0,0,.13.39c.31,1,.62,2,.91,2.94.09.26.17.52.24.77.33,1,.64,2,.94,2.89v.06a2.182,2.182,0,0,0,.13.39l.25.74c.27.81.53,1.54.77,2.21l.29.76a18.1,18.1,0,0,0,1.33,2.95,2.4,2.4,0,0,0,.31.39.42.42,0,0,0,.24.11h.77l2.94-.06h4.11l2.94-.07h.4l2.94-.07h.77l2.94-.07h.4l2.94-.07h.77l2.94-.08h.4l2.94-.08h.77l2.94-.07h.4l2.94-.08h.77Z" fill="#0dbdb8" />
			<path id="Path_1390" data-name="Path 1390" d="M109.19,257v19.14c-.06-1-.1-2-.14-2.95v-.77c0-1-.06-2-.08-2.94v-4.11c0-1,0-2,.06-2.94v-.4c0-1,.07-2,.13-2.94v-.77A6.316,6.316,0,0,1,109.19,257Zm6.65-11v60l.3.31.1.09V246.12Zm-3.71,1.59v50.15c.24.91.5,1.77.77,2.57V246.9a4.781,4.781,0,0,0-.77.73Zm7.41.7c-.12-.14-.24-.26-.36-.38v60.14l.77.3V248.81c-.13-.17-.27-.33-.41-.48Zm3.35,5.61v55.37l.4.11V254.93c-.13-.34-.29-.67-.4-.99Zm7.2,22.59c-.05-.13-.09-.26-.13-.39s0,0,0-.06v34.79l.4.07V277.27Zm-3.28-10.39c-.07-.25-.15-.51-.23-.77s-.23-.76-.35-1.15v45.91l.77.17V266.14Zm6.47,17.55V311.4l.77.12V283.68Zm3.71-.11V312l.4.06V283.58Zm7-.13V312.8h.4V283.44Zm-3.71.09v28.88l.77.09v-29Zm7-.17v29.82l.77.08V283.35Zm3.71-.09V313.5h.4V283.27Zm7-.18v31h.4V283.09Zm-3.33.09h-.38v30.64l.77.06V283.18Zm6.67-.18v31.34h.77V283Zm3.71-.09v31.67h.4V282.91Zm3.34-.09v31.94h.77v-32ZM133,311.39l.28.05.77.12,1.51.22h36.3v-.39Zm34.67,3.34h1.63l2.56.13v-.21Zm-49.4-7.05c.28.14.59.27.91.41l.77.3.15.05h51.76v-.76Zm-3.65-3.34c.08.14.15.27.23.39h57v-.39Zm-2.61-7,.09.39h59.76v-.39Zm1,3.34.27.76h58.6v-.76Zm-1.81-7.05a3.914,3.914,0,0,0,.14.76h60.54v-.76Zm-.6-3.34a.772.772,0,0,0,.07.39h61.21v-.39Zm-.9-7.05v.39H133a2.4,2.4,0,0,1-.31-.39Zm44.75,0h0l-2.94.07h-.4l-2.94.07h-.77l-2.94.07H144l-2.94.07h30.76v-.39Zm-44.37,3.34a4.946,4.946,0,0,0,.1.76h61.7v-.76Zm21.05-7H109.35l.06.76h22ZM130,276.14H109.12v.39h20.94A.886.886,0,0,1,130,276.14Zm-2.24-7.05h-18.9v.39h19c-.05-.13-.09-.26-.14-.39Zm1,3.33H108.94v.77h20a2.768,2.768,0,0,0-.18-.77Zm-2.18-7.05H108.83v.77h18c-.09-.25-.17-.51-.25-.77Zm-1-3.34H108.9v.4h16.8Zm-2.26-7h-13.9v.4h14.1Zm1.13,3.34H109.08v.77h15.65a6.308,6.308,0,0,1-.29-.82Zm-2.85-7H110.21c-.08.25-.16.51-.23.77h12ZM119.18,248h-7.3l-.3.4h8A1.48,1.48,0,0,0,119.18,248Z" fill="#fff" opacity="0.2" />
			<path id="Path_1391" data-name="Path 1391" d="M172.07,282.75a.33.33,0,0,0-.3-.48c-5.06-.06-10.15.21-15.21.34s-10.14.23-15.21.4c-2.85.1-8.33.35-8.38.27s-1.58-4.84-1.91-5.83c-.64-1.93-1.31-3.85-2-5.78-.19-.56-.39-1.12-.59-1.67-.06-.38-.13-.76-.17-1.13s-.12-1-.18-1.56a28.9,28.9,0,0,0-.51-3.07.08.08,0,0,0-.15.05,17.19,17.19,0,0,1,.32,3.2l.06.77c-1-2.66-1.24-3.13-2.09-5.82a.08.08,0,1,0-.15,0c1,3.89,1.54,5.56,2.76,9.4.62,1.94,1.23,3.88,1.88,5.82.32.94,1.78,5.34,2.25,6.22.06.11,5.2-.18,7.73-.22s5.07-.08,7.61-.14l15.21-.38c2.81-.07,5.64-.07,8.45-.23,0,.33.25,2,.23,2.11a.076.076,0,1,0,.15,0C171.86,284.89,172.08,282.78,172.07,282.75Z" fill="#263238" />
			<path id="Path_1392" data-name="Path 1392" d="M166.17,285.31a.08.08,0,0,0-.16,0c-.32,2.23-.37,4.51-.5,6.76s-.23,4.66-.31,7c-.15,4.65-.38,9.32-.25,14a.15.15,0,0,0,.3,0c.46-4.59.57-9.24.74-13.85q.13-3.42.2-6.86C166.22,290,166.34,287.62,166.17,285.31Z" fill="#263238" />
			<path id="Path_1393" data-name="Path 1393" d="M172.11,301.82v-1.49a.36.36,0,0,0,0-.22h0v-.28h-.08v.28h0v.07c-.09,2.41-.35,4.82-.46,7.23s-.15,4.85-.13,7.29c-2.75-.23-5.54-.2-8.3-.34s-5.72-.35-8.58-.58c-5.73-.46-11.45-1-17.15-1.81l-4.75-.67c-1.61-.23-3.29-.35-4.87-.73-.1,0-.14.14,0,.16,1.45.18,2.89.58,4.33.84s2.82.5,4.24.72q4.24.68,8.51,1.2,8.52,1.06,17.1,1.49l4.91.21c1.61.05,3.24.15,4.85.07A.29.29,0,0,0,172,315c0-2.53.13-5.06.16-7.59v-3.72C172.14,303.06,172.13,302.44,172.11,301.82Z" fill="#263238" />
			<path id="Path_1394" data-name="Path 1394" d="M231.48,262.31c2.55,3.28,8.45,6.86,9.47,9.77a3.55,3.55,0,0,1-1.12,4.08s3.32.83,3.81,3.62c.25,1.44-1.83,3.11-1.83,3.11a4.22,4.22,0,0,1,2.91,3.29c.22,2-1.89,3.37-1.89,3.37s2.17,1.92,1.74,4c-.86,4.28-17.74,8-21.72,2.36-1.86-2.63,2.31-3.31,2.31-3.31s-6.23-.47-7.09-3.93,4.62-4,4.62-4-6.05-.5-6.57-4.18,5-3.46,5-3.46-4.31-1.71-4.07-4.62c.4-4.8,9.82-.71,13.34-2.41Z" fill="#ad6359" />
			<path id="Path_1395" data-name="Path 1395" d="M242.53,289.81v.09a30,30,0,0,1-17.62,2.8c-.19,0-.22-.36,0-.36a61.288,61.288,0,0,0,17.62-2.53Z" fill="#263238" />
			<path id="Path_1396" data-name="Path 1396" d="M241.9,282.9c.06,0,.1.09,0,.12a28.08,28.08,0,0,1-19.41,1.86c-.22-.06-.36-.35-.09-.29C226.88,285.55,236.56,284.57,241.9,282.9Z" fill="#263238" />
			<path id="Path_1397" data-name="Path 1397" d="M220.71,276.76c6.35,1.62,12.59,1,18.91-.48.08,0,.1.09,0,.13-2.88,1.59-7,2.13-10.26,2.29a17.21,17.21,0,0,1-8.74-1.72C220.54,276.93,220.57,276.73,220.71,276.76Z" fill="#263238" />
			<path id="Path_1398" data-name="Path 1398" d="M350.05,393.33c-.84,2.26-42,53.43-44.8,54.39-1.06.37-8.86-5.19-18.1-12.18-2-1.51-4-3.08-6.12-4.68-13.47-10.41-27.52-21.77-27.52-21.77l27.43-34.31,26.77,22.72,5.88,5s24.52-12.54,27.71-13.26S350.89,391.06,350.05,393.33Z" fill="#ad6359" />
			<path id="Path_1399" data-name="Path 1399" d="M350.05,393.33c-.84,2.26-42,53.43-44.8,54.39-1.3.44-12.54-7.86-24.22-16.86l26.68-33.36,5.88,5s24.52-12.54,27.71-13.26S350.89,391.06,350.05,393.33Z" fill="#fff" />
			<path id="Path_1400" data-name="Path 1400" d="M350.05,393.33c-.84,2.26-42,53.43-44.8,54.39-1.06.37-8.86-5.19-18.1-12.18l26.44-33.06s24.52-12.54,27.71-13.26S350.89,391.06,350.05,393.33Z" fill="#0dbdb8" />
			<path id="Path_1401" data-name="Path 1401" d="M347.42,392.41c-7.12,8.41-35,43-41.39,51.84,0,.07,0,.11.05,0,7.23-8.17,34.84-43,41.48-51.76C347.7,392.34,347.57,392.24,347.42,392.41Z" fill="#263238" />
			<path id="Path_1402" data-name="Path 1402" d="M336.81,391a8.82,8.82,0,0,0-2,6.81,8.57,8.57,0,0,0,3,5.6c.05,0,.13-.05.08-.1a10.23,10.23,0,0,1-1-12.23.07.07,0,0,0-.08-.08Z" fill="#263238" />
			<path id="Path_1403" data-name="Path 1403" d="M317.12,399.84c-2.81,3.39-4.8,8.35-3.71,12.74,0,.17.29.11.32,0a60.8,60.8,0,0,1,3.86-12.42.284.284,0,1,0-.47-.32Z" fill="#263238" />
			<path id="Path_1404" data-name="Path 1404" d="M320.29,398c-2.81,3.39-4.8,8.35-3.71,12.74,0,.17.28.11.31,0a60.829,60.829,0,0,1,3.87-12.42.284.284,0,1,0-.47-.32Z" fill="#263238" />
			<path id="Path_1405" data-name="Path 1405" d="M323.45,396.2c-2.81,3.39-4.8,8.35-3.71,12.74.05.17.29.11.32,0a60.8,60.8,0,0,1,3.86-12.42.284.284,0,1,0-.47-.32Z" fill="#263238" />
			<path id="Path_1406" data-name="Path 1406" d="M326.62,394.38c-2.81,3.4-4.8,8.35-3.71,12.74,0,.17.28.11.31,0a61,61,0,0,1,3.87-12.42.284.284,0,0,0-.47-.32Z" fill="#263238" />
			<path id="Path_1407" data-name="Path 1407" d="M299.64,435.51c-3.09,3.86,2.91,8.67,6,4.8S302.73,431.65,299.64,435.51Z" fill="#263238" />
			<path id="Path_1408" data-name="Path 1408" d="M311,388.76c-2.84.58-3.19,3.9-2.56,6.17a23.05,23.05,0,0,0,6.27,10.18.11.11,0,0,0,.18,0,.54.54,0,0,0,.78-.4c.27-3.8,1-7.83.14-11.61C315.23,390.88,313.63,388.21,311,388.76Zm3.9,10.08c-.09,1.87-.27,3.73-.29,5.61q-1.913-2.91-3.53-6a24.893,24.893,0,0,1-1.3-3.11c-.54-1.66-.7-7.34,3.31-4.68,2.16,1.44,1.91,5.95,1.76,8.18Z" fill="#263238" />
			<path id="Path_1409" data-name="Path 1409" d="M309.07,414.67c2.86-2.62,4.49-6.39,6.4-9.69a.53.53,0,0,0-.42-.76.12.12,0,0,0-.14-.13A23,23,0,0,0,304,409c-1.8,1.52-3.37,4.47-1.35,6.54S307.4,416.2,309.07,414.67Zm-3.62.5c-4.82-.05-1.5-4.66-.12-5.73a24.141,24.141,0,0,1,2.83-1.85c2-1.17,4.18-2,6.3-3-1,1.56-1.93,3.2-2.91,4.8C310.39,411.3,308.1,415.19,305.45,415.17Z" fill="#263238" />
			<path id="Path_1410" data-name="Path 1410" d="M306.28,392.32l-28.55,38.52L181.39,364l-9.29-6.45s-2.63,1.77-6.59,4c-5.5,3-13.56,6.89-20.69,7.94-12,1.77-31.93,1.58-42-11.9-8.49-11.35-2.69-31.91-2.69-31.91l14-1.55s29-24.23,49.18-25c8.55-.34,21,6.14,32.53,12.91S306.28,392.32,306.28,392.32Z" fill="#455a64" />
			<path id="Path_1411" data-name="Path 1411" d="M172.1,357.54s-2.63,1.77-6.59,4c-7-8.38-21.82-23.6-22.27-24.14Z" fill="#263238" />
			<path id="Path_1412" data-name="Path 1412" d="M123.45,317.08c-1.86,1.28-3.65,2.66-5.49,4s-3.66,2.53-5.37,3.95-3.4,3-5,4.55c-.79.75-1.58,1.51-2.34,2.28a22.319,22.319,0,0,0-2.24,2.43c-.06.08.06.18.14.13a28.182,28.182,0,0,0,2.49-2c.87-.73,1.72-1.48,2.59-2.21,1.67-1.42,3.37-2.8,5-4.23s3.19-3,4.83-4.39,3.6-3,5.43-4.42C123.52,317.11,123.49,317.05,123.45,317.08Z" fill="#263238" />
			<path id="Path_1413" data-name="Path 1413" d="M299.58,390.94c-1.86,2-3.57,4.15-5.3,6.26s-3.46,4.25-5.17,6.39c-3.42,4.27-6.88,8.53-10.24,12.85-1.85,2.38-3.67,4.77-5.39,7.24a.114.114,0,1,0,.18.14c3.69-4.05,7-8.37,10.47-12.64s6.84-8.58,10.19-12.91c1.84-2.37,3.74-4.73,5.43-7.21a.11.11,0,0,0-.17-.12Z" fill="#263238" />
			<path id="Path_1414" data-name="Path 1414" d="M223.08,330.79c-3.39-3.93-17.93-14.24-27.22-18.85a.08.08,0,0,0-.07.14c9.26,5.95,24.52,17.23,27.15,18.91C223.06,331.06,223.17,330.89,223.08,330.79Z" fill="#263238" />
		</g>
		<g id="freepik--Stars--inject-5">
			<path id="Path_1415" data-name="Path 1415" d="M182.9,224.94l2.57,5.2,5.73.83-4.15,4.05.98,5.71-5.13-2.7-5.12,2.7.97-5.71-4.15-4.05,5.74-.83Z" fill="#0dbdb8" />
			<path id="Path_1416" data-name="Path 1416" d="M201.94,208.28l1.85,3.9,4.13.62-2.99,3.03.71,4.28-3.7-2.02-3.71,2.02.71-4.28-2.99-3.03,4.14-.62Z" fill="#0dbdb8" />
			<path id="Path_1417" data-name="Path 1417" d="M187.14,183.96l1.17,2.37,2.61.38-1.89,1.84.45,2.61-2.34-1.23-2.34,1.23.45-2.61-1.89-1.84,2.61-.38Z" fill="#0dbdb8" />
			<path id="Path_1418" data-name="Path 1418" d="M201.94,170.04l.88,1.8,1.99.28-1.44,1.4.34,1.98-1.77-.94-1.78.94.34-1.98-1.44-1.4,1.99-.28Z" fill="#0dbdb8" />
		</g>
		<g id="freepik--Reviews--inject-5">
			<rect id="Rectangle_185" data-name="Rectangle 185" width="150.56" height="60.19" transform="translate(240.55 195.09)" fill="#ebebeb" />
			<path id="Path_1419" data-name="Path 1419" d="M240.58,255.29v11.96l10.84-11.96Z" fill="#ebebeb" />
			<circle id="Ellipse_49" data-name="Ellipse 49" cx="23.43" cy="23.43" r="23.43" transform="translate(246 203.26)" fill="#fff" />
			<path id="Path_1420" data-name="Path 1420" d="M309.71,206.37l1.71,3.47,3.82.55-2.76,2.7.65,3.81-3.42-1.8-3.42,1.8.65-3.81-2.76-2.7,3.82-.55Z" fill="#0dbdb8" />
			<path id="Path_1421" data-name="Path 1421" d="M324.77,206.37l1.71,3.47,3.82.55-2.77,2.7.66,3.81-3.42-1.8-3.42,1.8.65-3.81-2.77-2.7,3.83-.55Z" fill="#c7c7c7" />
			<path id="Path_1422" data-name="Path 1422" d="M339.82,206.37l1.71,3.47,3.83.55-2.77,2.7.65,3.81-3.42-1.8-3.42,1.8.66-3.81-2.77-2.7,3.82-.55Z" fill="#c7c7c7" />
			<path id="Path_1423" data-name="Path 1423" d="M354.88,206.37l1.71,3.47,3.83.55-2.77,2.7.65,3.81-3.42-1.8-3.42,1.8.66-3.81-2.77-2.7,3.82-.55Z" fill="#c7c7c7" />
			<path id="Path_1424" data-name="Path 1424" d="M369.94,206.37l1.71,3.47,3.82.55-2.76,2.7.65,3.81-3.42-1.8-3.42,1.8.65-3.81-2.76-2.7,3.82-.55Z" fill="#c7c7c7" />
			<rect id="Rectangle_186" data-name="Rectangle 186" width="71.44" height="1.5" transform="translate(304.18 225.19)" fill="#263238" />
			<rect id="Rectangle_187" data-name="Rectangle 187" width="63.63" height="1.5" transform="translate(304.18 229.76)" fill="#fff" />
			<rect id="Rectangle_188" data-name="Rectangle 188" width="52.6" height="1.5" transform="translate(304.18 234.33)" fill="#fff" />
			<rect id="Rectangle_189" data-name="Rectangle 189" width="57.5" height="1.5" transform="translate(304.18 238.9)" fill="#fff" />
			<g id="Group_10399" data-name="Group 10399" clip-path="url(#clip-path)">
				<path id="Path_1425" data-name="Path 1425" d="M262.23,198.67c-10.85,4.88-13.19,20.17-12.48,41.93.11,3.31,28.09,9.06,41.63-1.14,2.18-1.65-.92-28.27-6.29-35.93C278.43,194,268.94,195.65,262.23,198.67Z" fill="#263238" />
				<path id="Path_1426" data-name="Path 1426" d="M261.93,198.89c-5.67,2.89-9.32,8.63-11,14.65a92.207,92.207,0,0,0-2.25,13.61,53.521,53.521,0,0,0-.2,13.14.12.12,0,1,0,.24,0,113.071,113.071,0,0,1,2.55-24.52c1.41-6.75,4.88-12.79,10.84-16.44C262.38,199.17,262.18,198.77,261.93,198.89Z" fill="#263238" />
				<path id="Path_1427" data-name="Path 1427" d="M289.71,211a20.12,20.12,0,0,0-13.62-14.11v.08c7.52,2.84,11.74,8.57,13.64,16.17,2.07,8.28,2.91,16.68,3.59,25.15a.15.15,0,1,0,.3,0A103.061,103.061,0,0,0,289.71,211Z" fill="#263238" />
				<path id="Path_1428" data-name="Path 1428" d="M254.18,248.75l.09.07c4.91,3.35,14.61,9.23,19.79,7.36a11.66,11.66,0,0,0,6.6-6.85,53.614,53.614,0,0,0-6.41-4.45C266.6,239.79,259.7,242.84,254.18,248.75Z" fill="#a6a6a6" />
				<path id="Path_1429" data-name="Path 1429" d="M261.57,245.86c.35,1.13,6.34,8.23,11.58,7.63,1.71-.19,1.05-9.56,1.05-9.56l.11-.7,1.52-9.84L264,226.84l-1.71-.86s-.24,2.72-.5,6.11v.48a2.2,2.2,0,0,1-.05.56c0,.5-.09,1-.12,1.53s-.06.78-.07,1.19a8.457,8.457,0,0,1-.07,1.23,64.1,64.1,0,0,0,.09,8.78Z" fill="#f7a9a0" />
				<path id="Path_1430" data-name="Path 1430" d="M261.74,232.09a20,20,0,0,0,12.57,11.14l1.52-9.84L264,226.84l-1.71-.86S262,228.7,261.74,232.09Z" fill="#263238" />
				<path id="Path_1431" data-name="Path 1431" d="M288,217c2.74,17.26-7.29,20.85-11,21.44-3.37.53-14.28,1.35-18.79-15.53s2-23,9.64-24.67S285.25,199.76,288,217Z" fill="#f7a9a0" />
				<path id="Path_1432" data-name="Path 1432" d="M285,216a11.7,11.7,0,0,1-1.15.35,1.88,1.88,0,0,1-1.25.14.62.62,0,0,1-.37-.66,1.55,1.55,0,0,1,1.16-1.05,2.24,2.24,0,0,1,1.63,0A.67.67,0,0,1,285,216Z" fill="#263238" />
				<path id="Path_1433" data-name="Path 1433" d="M272.3,216.51a11.9,11.9,0,0,0,1.2.12,1.91,1.91,0,0,0,1.25-.1.64.64,0,0,0,.23-.73,1.52,1.52,0,0,0-1.34-.8,2.3,2.3,0,0,0-1.6.32.67.67,0,0,0,.26,1.19Z" fill="#263238" />
				<path id="Path_1434" data-name="Path 1434" d="M275.08,220.51s-.09.07-.08.11c.17,1.18.17,2.56-.86,3.07v.07C275.44,223.43,275.43,221.6,275.08,220.51Z" fill="#263238" />
				<path id="Path_1435" data-name="Path 1435" d="M273.89,219.39c-1.92.07-1.64,3.9.13,3.84S275.49,219.34,273.89,219.39Z" fill="#263238" />
				<path id="Path_1436" data-name="Path 1436" d="M273.15,219.65c-.32.24-.62.65-1,.71s-.84-.29-1.18-.66c0,0-.06,0-.06.05a1.367,1.367,0,0,0,1.17,1.52c.79.05,1.2-.63,1.33-1.39C273.41,219.74,273.28,219.55,273.15,219.65Z" fill="#263238" />
				<path id="Path_1437" data-name="Path 1437" d="M282.47,219.43a.1.1,0,0,1,.1.1c0,1.19.29,2.55,1.39,2.87v.07C282.63,222.37,282.32,220.57,282.47,219.43Z" fill="#263238" />
				<path id="Path_1438" data-name="Path 1438" d="M283.46,218.12c1.9-.26,2.29,3.56.53,3.8S281.86,218.35,283.46,218.12Z" fill="#263238" />
				<path id="Path_1439" data-name="Path 1439" d="M284.28,218.29c.32.17.66.51,1,.5s.69-.46.91-.89h.07c.09.73-.07,1.51-.76,1.72s-1.16-.38-1.41-1.09C284.07,218.44,284.15,218.22,284.28,218.29Z" fill="#263238" />
				<path id="Path_1440" data-name="Path 1440" d="M276.32,229.57c.29.27.59.65,1,.67a3,3,0,0,0,1.27-.33l.05.06a1.58,1.58,0,0,1-1.49.68,1.25,1.25,0,0,1-1-1C276.19,229.56,276.28,229.53,276.32,229.57Z" fill="#263238" />
				<path id="Path_1441" data-name="Path 1441" d="M280.92,224.87s.39,1.75.46,2.58a12.929,12.929,0,0,0-5.18.73c-.09,0-.27-.11-.05-.27a7.33,7.33,0,0,1,4.54-1.06c0-.23-.74-2.75-.61-2.77a7.71,7.71,0,0,1,1.93.27c-.71-3.66-2-7.19-2.66-10.85a.112.112,0,1,1,.21-.08A61,61,0,0,1,282.93,225C283,225.47,281.26,225,280.92,224.87Z" fill="#263238" />
				<path id="Path_1442" data-name="Path 1442" d="M258.19,222.92c1.86-.26,6.33-5.82,5.74-14.89,0,0,0,8.18-.55,9.43s2.49-3.13,2.12-10.45a29.89,29.89,0,0,0,7.81,3.28c3.53.68,5.64.48,5.87.21s-5-1.46-6.49-2.93c0,0,9.53,3.52,13.78,3.5.49,0-.1-9.1-7-12.84s-16.51.7-19.08,3.62c0,0-3.23.73-6.39,5.86S256.17,223.21,258.19,222.92Z" fill="#263238" />
				<path id="Path_1443" data-name="Path 1443" d="M262.27,224.37s-4.19-5.16-6.56-3.63,1,9.21,4,10.08a3,3,0,0,0,3.84-1.86Z" fill="#f7a9a0" />
				<path id="Path_1444" data-name="Path 1444" d="M256.74,222.91v.08c2.09.68,3.29,2.49,4.18,4.39a1.62,1.62,0,0,0-2.46-.27.06.06,0,0,0,.06.1,1.84,1.84,0,0,1,2,.49,9.1,9.1,0,0,1,1.07,1.55c.11.17.43.05.35-.15h0C261.81,226.46,259.54,223,256.74,222.91Z" fill="#263238" />
			</g>
			<rect id="Rectangle_190" data-name="Rectangle 190" width="150.56" height="60.19" transform="translate(250.55 118.2)" fill="#ebebeb" />
			<path id="Path_1446" data-name="Path 1446" d="M250.58,178.39v11.96l10.84-11.96Z" fill="#ebebeb" />
			<circle id="Ellipse_50" data-name="Ellipse 50" cx="23.43" cy="23.43" r="23.43" transform="translate(256 126.37)" fill="#fff" />
			<path id="Path_1447" data-name="Path 1447" d="M319.72,130.16l1.71,3.47,3.83.56-2.77,2.7.65,3.82-3.42-1.81-3.43,1.81.66-3.82-2.77-2.7,3.83-.56Z" fill="#0dbdb8" />
			<path id="Path_1448" data-name="Path 1448" d="M334.81,130.16l1.71,3.47,3.83.56-2.77,2.7.65,3.82-3.42-1.81-3.43,1.81.65-3.82-2.77-2.7,3.83-.56Z" fill="#0dbdb8" />
			<path id="Path_1449" data-name="Path 1449" d="M349.89,130.16l1.72,3.47,3.83.56-2.77,2.7.65,3.82-3.43-1.81-3.42,1.81.65-3.82-2.77-2.7,3.83-.56Z" fill="#0dbdb8" />
			<path id="Path_1450" data-name="Path 1450" d="M364.98,130.16l1.71,3.47,3.83.56-2.77,2.7.66,3.82-3.43-1.81-3.43,1.81.66-3.82-2.77-2.7,3.83-.56Z" fill="#c7c7c7" />
			<path id="Path_1451" data-name="Path 1451" d="M380.07,130.16l1.71,3.47,3.83.56-2.77,2.7.65,3.82-3.42-1.81-3.43,1.81.66-3.82-2.78-2.7,3.83-.56Z" fill="#c7c7c7" />
			<rect id="Rectangle_191" data-name="Rectangle 191" width="71.44" height="1.5" transform="translate(314.18 148.29)" fill="#263238" />
			<rect id="Rectangle_192" data-name="Rectangle 192" width="41.77" height="1.5" transform="translate(314.18 152.86)" fill="#fff" />
			<rect id="Rectangle_193" data-name="Rectangle 193" width="61.67" height="1.5" transform="translate(314.18 157.44)" fill="#fff" />
			<rect id="Rectangle_194" data-name="Rectangle 194" width="56.35" height="1.5" transform="translate(314.18 162.01)" fill="#fff" />
			<g id="Group_10400" data-name="Group 10400" clip-path="url(#clip-path-2)">
				<path id="Path_1452" data-name="Path 1452" d="M286.14,165.33l-2.08,9.39L269.9,165l-3.52,5.19s9.27,12.54,19.14,12.54c5.19,0,6.2-11.89,6.2-11.89Z" fill="#0dbdb8" />
				<path id="Path_1453" data-name="Path 1453" d="M283.76,176c-3.8,1.18-10.86-4.28-13.82-8.89-.2-.32.06-3.82.18-8.09.06-2.59.07-5.48-.11-8.11,0-.54,1.87.32,1.87.32l3.47.59,11.46,2a42,42,0,0,0-.89,10.22,5.18,5.18,0,0,0,.19,1.08,1.678,1.678,0,0,0,0,.18C286.62,167.3,287.45,174.86,283.76,176Z" fill="#eb9481" />
				<path id="Path_1454" data-name="Path 1454" d="M286.11,165.15a1.67,1.67,0,0,0,0,.18,10.4,10.4,0,0,1-1.69.21c-11.14.52-13.51-13.53-13.51-13.53l4.41-.12,11.46,2a42.079,42.079,0,0,0-.89,10.23,5.08,5.08,0,0,0,.22,1.03Z" fill="#263238" />
				<path id="Path_1455" data-name="Path 1455" d="M268.58,129.94c-2,5.79.34,22.88,4.35,26.83,5.82,5.74,15.7,6.68,20.67-.39,4.81-6.86,1.32-29.07-3.2-32.7C283.75,118.33,271.6,121.39,268.58,129.94Z" fill="#eb9481" />
				<path id="Path_1456" data-name="Path 1456" d="M285,141.78c0-.05-.08.06-.07.11.19,1.15.21,2.49-.78,3v.07C285.44,144.62,285.39,142.83,285,141.78Z" fill="#263238" />
				<path id="Path_1457" data-name="Path 1457" d="M283.83,140.71c-1.87.11-1.52,3.84.22,3.74S285.4,140.62,283.83,140.71Z" fill="#263238" />
				<path id="Path_1458" data-name="Path 1458" d="M291.73,141.33a.1.1,0,0,1,.1.1c.07,1.16.35,2.47,1.44,2.76v.06C292,144.19,291.62,142.44,291.73,141.33Z" fill="#263238" />
				<path id="Path_1459" data-name="Path 1459" d="M292.65,140c1.85-.32,2.35,3.4.64,3.69S291.1,140.29,292.65,140Z" fill="#263238" />
				<path id="Path_1460" data-name="Path 1460" d="M282.2,139.15c.49-.18.92-.43,1.39-.65a2.42,2.42,0,0,0,1.3-.93.8.8,0,0,0-.21-.95,2,2,0,0,0-2,0,2.89,2.89,0,0,0-1.54,1.4.85.85,0,0,0,1.06,1.13Z" fill="#263238" />
				<path id="Path_1461" data-name="Path 1461" d="M293.92,138a9.81,9.81,0,0,1-1.52-.24,2.47,2.47,0,0,1-1.51-.55.8.8,0,0,1,0-1,2,2,0,0,1,1.91-.55,2.88,2.88,0,0,1,1.86.93.84.84,0,0,1-.74,1.41Z" fill="#263238" />
				<path id="Path_1462" data-name="Path 1462" d="M285,152.61c.3.25.61.59,1,.59a3,3,0,0,0,1.22-.41l.06.06a1.56,1.56,0,0,1-1.41.76,1.23,1.23,0,0,1-1-.93C284.84,152.61,284.92,152.58,285,152.61Z" fill="#263238" />
				<path id="Path_1463" data-name="Path 1463" d="M285.67,149.54c1.18,1,5.13,1,5.14.82l-.32-2.77c.34.14,2.07.73,2,.26a59.823,59.823,0,0,0-2.66-11.77.11.11,0,0,0-.21,0c.43,3.7,1.5,7.31,2,11a7.13,7.13,0,0,0-1.91-.39c-.13.05.46,2.59.45,3a12,12,0,0,1-4.24-.57C285.46,149,285.36,149.28,285.67,149.54Z" fill="#263238" />
				<path id="Path_1464" data-name="Path 1464" d="M270.66,143.74c1.46-.37,2.83-5.16,2.88-9.8,0-3,1.23-6.75,4.56-7.87,2.21-.75,6.06,1.07,8.27.53s2.61-1.79,3.91-1.76,2.75,3.24,2.75,3.24-2.32-10.11-15.33-6.86c-13.7,3.43-10.94,15.16-9.62,18.92C269.09,143.05,270.66,143.74,270.66,143.74Z" fill="#263238" />
				<path id="Path_1465" data-name="Path 1465" d="M271.62,143.91s-3.71-5.57-6.23-4.26.18,9.33,3.08,10.48a3,3,0,0,0,4-1.51Z" fill="#eb9481" />
				<path id="Path_1466" data-name="Path 1466" d="M266.22,142v.08c2,.88,3.07,2.8,3.78,4.79a1.65,1.65,0,0,0-2.45-.51.07.07,0,0,0,.06.11,1.81,1.81,0,0,1,2,.69,7.87,7.87,0,0,1,.93,1.65c.09.18.43.09.36-.12v-.05C271,146,269,142.32,266.22,142Z" fill="#263238" />
			</g>
			<rect id="Rectangle_195" data-name="Rectangle 195" width="150.56" height="60.19" transform="translate(260.55 41.3)" fill="#ebebeb" />
			<path id="Path_1468" data-name="Path 1468" d="M260.58,101.49v11.97l10.84-11.97Z" fill="#ebebeb" />
			<circle id="Ellipse_51" data-name="Ellipse 51" cx="23.43" cy="23.43" r="23.43" transform="translate(266 49.47)" fill="#fff" />
			<path id="Path_1469" data-name="Path 1469" d="M329.72,54.06l1.71,3.47,3.83.56-2.77,2.7.65,3.82-3.42-1.8-3.43,1.8.66-3.82-2.77-2.7,3.83-.56Z" fill="#0dbdb8" />
			<path id="Path_1470" data-name="Path 1470" d="M344.81,54.06l1.71,3.47,3.83.56-2.77,2.7.65,3.82-3.42-1.8-3.43,1.8.65-3.82-2.77-2.7,3.83-.56Z" fill="#0dbdb8" />
			<path id="Path_1471" data-name="Path 1471" d="M359.89,54.06l1.72,3.47,3.83.56-2.77,2.7.65,3.82-3.43-1.8-3.42,1.8.65-3.82-2.77-2.7,3.83-.56Z" fill="#0dbdb8" />
			<path id="Path_1472" data-name="Path 1472" d="M374.98,54.06l1.71,3.47,3.83.56-2.77,2.7.66,3.82-3.43-1.8-3.43,1.8.66-3.82-2.77-2.7,3.83-.56Z" fill="#0dbdb8" />
			<path id="Path_1473" data-name="Path 1473" d="M390.07,54.06l1.71,3.47,3.83.56-2.77,2.7.65,3.82-3.42-1.8-3.43,1.8.66-3.82-2.78-2.7,3.83-.56Z" fill="#0dbdb8" />
			<rect id="Rectangle_196" data-name="Rectangle 196" width="71.44" height="1.5" transform="translate(324.18 71.4)" fill="#263238" />
			<rect id="Rectangle_197" data-name="Rectangle 197" width="53.15" height="1.5" transform="translate(324.18 75.97)" fill="#fff" />
			<rect id="Rectangle_198" data-name="Rectangle 198" width="63.63" height="1.5" transform="translate(324.18 80.54)" fill="#fff" />
			<rect id="Rectangle_199" data-name="Rectangle 199" width="27.3" height="1.5" transform="translate(324.18 85.11)" fill="#fff" />
			<path id="Path_1474" data-name="Path 1474" d="M314,90.74h-2c-.2-2.55-1.82-6.45-1.41-4.48a19.3,19.3,0,0,1,.26,4.48H277c-.39-3.84,1.32-10.15,1.32-10.15-2,3.17-2.71,7.67-3,10.15h-3.19a23.751,23.751,0,0,1,.48-6.21A20.42,20.42,0,0,0,271,90.74h-3.64a23.85,23.85,0,0,1,4.23-13.46c2.46-3.67-.58-5.81-.52-13,.06-9.51,6.59-13.16,7.67-14.16,14.77-13.68,28.17-1,29.6,8.05,1.39,8.84-1.15,10,3,18C314.37,82.28,314,90.74,314,90.74Z" fill="#263238" />
			<path id="Path_1475" data-name="Path 1475" d="M274.18,95.71l.09.06c4.91,3.35,14.61,9.23,19.79,7.36a11.65,11.65,0,0,0,6.6-6.84,52.7,52.7,0,0,0-6.41-4.46C286.6,86.75,279.7,89.79,274.18,95.71Z" fill="#455a64" />
			<path id="Path_1476" data-name="Path 1476" d="M281.57,92.81c.35,1.13,6.34,8.23,11.58,7.63,1.71-.19,1.05-9.56,1.05-9.56l.11-.7,1.52-9.84L284,73.79l-1.71-.85s-.24,2.71-.5,6.1v.49a2.088,2.088,0,0,1-.05.55c0,.5-.09,1-.12,1.53s-.06.78-.07,1.19a8.457,8.457,0,0,1-.07,1.23,64.1,64.1,0,0,0,.09,8.78Z" fill="#dd6a57" />
			<path id="Path_1477" data-name="Path 1477" d="M281.74,79a20,20,0,0,0,12.57,11.14l1.52-9.84L284,73.79l-1.71-.85S282,75.65,281.74,79Z" fill="#263238" />
			<path id="Path_1478" data-name="Path 1478" d="M308,64c2.74,17.26-7.29,20.85-11,21.44-3.37.53-15,1.92-19.46-15s2.65-23.61,10.31-25.24S305.25,46.71,308,64Z" fill="#dd6a57" />
			<path id="Path_1479" data-name="Path 1479" d="M278.94,71.65c4.32-.52,4.47-14,4.47-15.59.06,1,.36,6.53.8,6.72a4.4,4.4,0,0,0,1.34-.37h0a12.907,12.907,0,0,1,0-2,8.77,8.77,0,0,1,.44,1.82l.78-.29a15.74,15.74,0,0,1,.07-4.2c.08-.53.41,1.79,1.08,3.78A52.8,52.8,0,0,1,299.1,58.6c1.08-.13,2-.19,2.84-.22a29.55,29.55,0,0,1-.31-3,15.711,15.711,0,0,1,.93,3h1.24c-.08-2.29-1.47-5.85-1.06-5.33a16.161,16.161,0,0,1,2.68,5.45c1.59.18,2,.45,2.05,0a19.13,19.13,0,0,0-6.78-11.35c-5.85-4.65-16.76-5-22.2,3.33,0,0-4.75,3.69-5.1,9S276.44,71.94,278.94,71.65Z" fill="#263238" />
			<path id="Path_1480" data-name="Path 1480" d="M280.48,71.33s-4.19-5.17-6.57-3.64,1,9.21,4,10.08a2.94,2.94,0,0,0,3.83-1.86Z" fill="#dd6a57" />
			<path id="Path_1481" data-name="Path 1481" d="M275,69.87c-.05,0-.05.06,0,.07,2.09.68,3.29,2.49,4.18,4.39a1.62,1.62,0,0,0-2.46-.27.06.06,0,0,0,.06.1,1.84,1.84,0,0,1,2,.49,9.1,9.1,0,0,1,1.07,1.55c.11.18.43.06.34-.15h0C280,73.41,277.75,69.93,275,69.87Z" fill="#263238" />
			<path id="Path_1482" data-name="Path 1482" d="M300.78,74a4.77,4.77,0,0,1-1.61,1.86,2.2,2.2,0,0,1-1.29.35c-1-.06-1.19-.92-1.17-1.7a5.2,5.2,0,0,1,.2-1.22A6.35,6.35,0,0,0,300.78,74Z" fill="#fff" />
			<path id="Path_1483" data-name="Path 1483" d="M304.39,61.84a9.806,9.806,0,0,1-1.2-.14,1.92,1.92,0,0,1-1.19-.38.62.62,0,0,1-.07-.76,1.56,1.56,0,0,1,1.48-.49,2.29,2.29,0,0,1,1.49.67.66.66,0,0,1-.51,1.1Z" fill="#263238" />
			<path id="Path_1484" data-name="Path 1484" d="M292.38,63.27a9.5,9.5,0,0,0,1.15-.35,1.94,1.94,0,0,0,1.11-.58.63.63,0,0,0-.07-.76,1.52,1.52,0,0,0-1.54-.22,2.26,2.26,0,0,0-1.35.92.66.66,0,0,0,.7.99Z" fill="#263238" />
			<path id="Path_1485" data-name="Path 1485" d="M295.08,67.46s-.09.07-.08.11c.17,1.18.17,2.56-.86,3.07v.07C295.44,70.38,295.43,68.55,295.08,67.46Z" fill="#263238" />
			<path id="Path_1486" data-name="Path 1486" d="M293.89,66.34c-1.92.07-1.64,3.9.13,3.84S295.49,66.29,293.89,66.34Z" fill="#263238" />
			<path id="Path_1487" data-name="Path 1487" d="M293.15,66.6c-.32.24-.62.65-1,.72s-.84-.3-1.18-.66h-.06a1.383,1.383,0,0,0,1.17,1.53c.79.06,1.2-.64,1.33-1.39C293.41,66.7,293.28,66.5,293.15,66.6Z" fill="#263238" />
			<path id="Path_1488" data-name="Path 1488" d="M302.47,66.38s.1.05.1.1c0,1.19.29,2.55,1.39,2.87v.07C302.63,69.32,302.32,67.52,302.47,66.38Z" fill="#263238" />
			<path id="Path_1489" data-name="Path 1489" d="M303.46,65.08c1.9-.27,2.29,3.55.53,3.8S301.86,65.3,303.46,65.08Z" fill="#263238" />
			<path id="Path_1490" data-name="Path 1490" d="M304.28,65.24c.32.18.66.51,1,.5s.69-.46.91-.89h.07c.09.73-.07,1.51-.76,1.73s-1.16-.39-1.41-1.1C304.07,65.39,304.15,65.18,304.28,65.24Z" fill="#263238" />
			<path id="Path_1491" data-name="Path 1491" d="M296.32,76.52c.29.27.59.65,1,.67a3,3,0,0,0,1.27-.33l.05.06a1.58,1.58,0,0,1-1.49.68,1.25,1.25,0,0,1-1-1C296.19,76.51,296.28,76.48,296.32,76.52Z" fill="#263238" />
			<path id="Path_1492" data-name="Path 1492" d="M300.92,71.82s.39,1.75.46,2.58c0,.08-.19.14-.47.18h0a4,4,0,0,1-4-1.16c-.06-.07,0-.17.12-.12a6,6,0,0,0,3.71.73c0-.24-.77-3-.64-3a7.32,7.32,0,0,1,1.93.28c-.71-3.67-2-7.2-2.66-10.86a.111.111,0,1,1,.21-.07A60.721,60.721,0,0,1,302.93,72C303,72.42,301.26,71.93,300.92,71.82Z" fill="#263238" />
		</g>
		<g id="freepik--Plant--inject-5">
			<path id="Path_1493" data-name="Path 1493" d="M396.3,360.79s23-5.2,35.54-16.79,19.61-32.36,19.61-32.36a196.646,196.646,0,0,0-25.74,6.76c-2.06,2.2-6,6.73-7.79,11a52.288,52.288,0,0,1-.06-7.87,35,35,0,0,0-8.18,5C399.25,335.63,396.3,360.79,396.3,360.79Z" fill="#0dbdb8" />
			<path id="Path_1494" data-name="Path 1494" d="M437.12,321.73c3.13-2.16,6.31-4.25,9.43-6.44a.18.18,0,0,0-.19-.3c-5.92,3.53-11.75,7.31-17.39,11.26-2,1.38-3.9,2.81-5.81,4.28l.4-.68c.69-1.16,1.42-2.29,2.14-3.42a49,49,0,0,1,4.88-6.5c.06-.08-.05-.19-.12-.11-1.78,2.06-3.57,4.1-5.2,6.29a38.441,38.441,0,0,0-2.18,3.21c-.36.58-.7,1.15-1,1.74l-.35.59c-3,2.33-5.85,4.76-8.61,7.33q-2.56,2.38-4.93,4.93c.88-2.78,1.66-5.59,2.69-8.32a.08.08,0,1,0-.15,0c-1,2.87-2.1,5.75-2.87,8.7-1.76,1.9-3.44,3.86-5,5.91a1.634,1.634,0,0,1,.08-.37c.26-1.08.53-2.16.82-3.24.56-2.07,1.17-4.14,1.87-6.17a36,36,0,0,1,6.17-11.65c.06-.07-.05-.18-.12-.1-4.48,5.3-7.11,11.67-8.79,18.35-.24,1-.48,2-.7,2.94-.12.53-.25,1.06-.34,1.59-.7.94-1.38,1.89-2,2.86a99.843,99.843,0,0,0-9.71,19,221.045,221.045,0,0,0-7.36,22.94c0,.15.19.2.24,0,4.49-13.43,9.07-27,16.76-39.06a89.6,89.6,0,0,1,5.24-7.33,43.419,43.419,0,0,0,11.16-2.22,49.612,49.612,0,0,0,11.19-5.41A66.7,66.7,0,0,0,433.1,338a.08.08,0,1,0-.1-.12,45.639,45.639,0,0,1-10.52,6.37,56.923,56.923,0,0,1-11.58,3.88c-1.69.37-3.41.65-5.13.88a94.283,94.283,0,0,1,6.77-7.5c.77-.77,1.57-1.51,2.37-2.26a53.688,53.688,0,0,1,8.49-4.86c3.76-1.82,7.46-3.75,11.18-5.64,2.1-1.07,4.19-2.16,6.31-3.19.09-.05,0-.18-.09-.14-3.77,1.83-7.6,3.53-11.41,5.27-3.58,1.64-7.21,3.29-10.65,5.22l-.43.26c3.11-2.7,6.33-5.28,9.62-7.77C430.89,326.15,434,323.9,437.12,321.73Z" fill="#263238" />
			<path id="Path_1495" data-name="Path 1495" d="M435.81,333.57c-1.87.81-3.77,1.54-5.61,2.4s-3.71,1.93-5.51,3a.07.07,0,0,0,.07.12c1.83-.88,3.69-1.7,5.5-2.61s3.69-1.93,5.6-2.76C436,333.68,435.9,333.53,435.81,333.57Z" fill="#263238" />
			<path id="Path_1496" data-name="Path 1496" d="M321.74,245.12a32.83,32.83,0,0,1,6.86,19.06c.07,2.06-.25,4.93-.49,8.3,8.56,4.57,15,12.8,15,12.8-4.86-2.92-11.54-4.1-15.14-3.62a45.381,45.381,0,0,0,.88,6.86c1.59-.09,4.66.12,9.73,1.92a21.81,21.81,0,0,0-8.77,1.75c4.09,13,16.25,26.39,49.83,32.07,0,0,6.48-22.8-5.94-47.26C363.61,257.2,321.74,245.12,321.74,245.12Z" fill="#0dbdb8" />
			<path id="Path_1497" data-name="Path 1497" d="M391.25,380c-.58-5.56-1.32-11.11-2.18-16.63a328.747,328.747,0,0,0-6.77-32.88,130.218,130.218,0,0,0-4.85-15,21.928,21.928,0,0,0,.13-2.69v-3.22c0-2.16-.12-4.3-.3-6.45a77.8,77.8,0,0,0-2.07-12.59c-.61-2.39-1.33-4.75-2-7.12a.08.08,0,0,0-.15.05A92.2,92.2,0,0,1,375.52,296a115.625,115.625,0,0,1,1.13,12.6c0,1.16.06,2.31.07,3.47v1.48A108.7,108.7,0,0,0,371,301.86a142.713,142.713,0,0,0-11.5-17.2,7.492,7.492,0,0,0-.27-1.88c-.16-.75-.32-1.5-.49-2.25-.35-1.53-.73-3.06-1.15-4.57-.83-3-1.93-6-2.89-9a.08.08,0,0,0-.15,0c.89,3,1.48,6.06,2.16,9.09.34,1.49.67,3,1,4.49l.48,2.25v.17q-2-2.56-4.16-5.06c-6.42-7.52-13.45-14.46-20.52-21.35-.87-.85-1.77-1.67-2.65-2.51-.07-.07-.18,0-.11.12,6.77,7,13.43,14.19,19.73,21.66,1.5,1.78,3,3.57,4.43,5.39l-2.29-1.52c-2-1.28-3.94-2.52-6-3.66s-4.09-2.26-6.18-3.3-4.46-1.93-6.53-3.14c-.09-.05-.17.1-.08.14a47.632,47.632,0,0,1,6.13,3.39c2,1.21,4.08,2.43,6.09,3.71s4,2.48,5.92,3.76c1.63,1.06,3.24,2.22,4.94,3.2a159.64,159.64,0,0,1,10.76,15.66A116.672,116.672,0,0,1,373.23,310l-1.21-.53L369,308.16c-2-.88-4-1.73-5.94-2.6-3.77-1.63-7.6-3.14-11.29-4.94a51.347,51.347,0,0,1-6-3.34c-.08-.06-.16.08-.08.13,6.89,4.75,14.61,8.09,22.23,11.47l3.31,1.46c.91.4,1.81.85,2.75,1.2a117.523,117.523,0,0,1,5.68,15.56A317,317,0,0,1,387,359.59c1.92,11,3.22,22,4.23,33.11.13,1.38.25,2.76.41,4.14a.44.44,0,0,0,.87,0C392.41,391.19,391.84,385.55,391.25,380Z" fill="#263238" />
			<path id="Path_1498" data-name="Path 1498" d="M370.82,287.21c-.62-3.41-1.53-6.75-2.45-10.09,0-.1-.17-.06-.15,0,.85,3.28,1.46,6.63,2.08,10s1.18,6.8,1.66,10.22c0,.06.1.06.09,0A90.63,90.63,0,0,0,370.82,287.21Z" fill="#263238" />
			<path id="Path_1499" data-name="Path 1499" d="M356.34,296.47a60.731,60.731,0,0,0-7.3-4.11c-1.22-.63-2.46-1.23-3.7-1.83s-2.61-1.14-3.88-1.78a.08.08,0,0,0-.07.14c1.22.62,2.39,1.36,3.6,2l3.72,2c2.46,1.32,4.87,2.78,7.45,3.85a.19.19,0,0,0,.18-.27Z" fill="#263238" />
			<path id="Path_1500" data-name="Path 1500" d="M396.72,321s21.24-5.07,31-19.32c9.32-13.61,12.33-36.8,12.57-38.84-.39,1.87-4.77,22.14-19.23,31.58C410,301.69,399.28,307.64,396.72,321Z" fill="#263238" opacity="0.1" />
			<path id="Path_1501" data-name="Path 1501" d="M416.33,284.33a27.17,27.17,0,0,0-7.84,12.9s.06.07.07,0a31.77,31.77,0,0,1,7.87-12.8C416.5,284.38,416.4,284.26,416.33,284.33Z" fill="#263238" />
			<path id="Path_1502" data-name="Path 1502" d="M396.72,321s21.24-5.07,31-19.32c9.32-13.61,12.33-36.8,12.57-38.84a.861.861,0,0,0,0-.15s-10.18,14.48-20.89,18.18S393.65,297.36,396.72,321Z" fill="#0dbdb8" />
			<path id="Path_1503" data-name="Path 1503" d="M436.54,270.71A86.934,86.934,0,0,1,430,281.94a44.851,44.851,0,0,1-8.74,9c-2.88,2.29-5.93,4.37-8.85,6.61l.06-.1c.55-.82,1.14-1.61,1.74-2.38,1.22-1.55,2.55-3,3.89-4.47,2.64-2.86,5.33-5.67,7.7-8.77a33,33,0,0,0,3.4-5.49c.05-.09-.1-.14-.15-.05-3.44,7.18-10.32,11.77-15.23,17.83-.7.87-1.36,1.76-2,2.69A11.69,11.69,0,0,0,410.6,299a44.369,44.369,0,0,0-7.24,7.32,28.683,28.683,0,0,1,.85-4.12,21,21,0,0,1,2.25-5.38c.05-.09-.08-.17-.13-.09a25.729,25.729,0,0,0-2.48,5.35,18.451,18.451,0,0,0-.77,4.58h0a41.77,41.77,0,0,0-2.87,4.46c.09-.45.17-.91.26-1.36.42-2.12.89-4.23,1.44-6.31a37.71,37.71,0,0,1,5.11-12c.06-.08-.07-.17-.13-.09a45.431,45.431,0,0,0-5.66,11.71c-.68,2.08-1.22,4.2-1.7,6.34-.23,1.05-.44,2.1-.64,3.15-.11.54-.22,1.1-.31,1.66a76.176,76.176,0,0,0-4.9,14.4,210.181,210.181,0,0,0-4.53,26.85A222.779,222.779,0,0,0,387.68,384c0,1.19.09,2.39.15,3.58a.245.245,0,1,0,.49,0c.21-4.72.33-9.43.61-14.14s.69-9.42,1.2-14.11a251.585,251.585,0,0,1,4.42-27.46c1.73-7.77,4-15.59,8.2-22.39a41.84,41.84,0,0,1,7.67-9.11c3-2.68,6.23-5,9.37-7.49a52.191,52.191,0,0,0,8.6-8.27,67.787,67.787,0,0,0,6.76-11c.5-1,1-1.91,1.52-2.87C436.71,270.71,436.58,270.62,436.54,270.71Z" fill="#263238" />
			<path id="Path_1504" data-name="Path 1504" d="M432.87,273.82a71.308,71.308,0,0,1-4.73,8.28c0,.06.05.12.1.06a57.329,57.329,0,0,0,4.78-8.29C433.06,273.78,432.91,273.73,432.87,273.82Z" fill="#263238" />
			<path id="Path_1505" data-name="Path 1505" d="M318.78,311.64s-.34,30.18,17.71,38.9,27.72,1.45,40,4.37h0c-.47-.72-9.22-13.31-23.14-16.77C339,334.56,323.12,324.22,318.78,311.64Z" fill="#0dbdb8" />
			<path id="Path_1506" data-name="Path 1506" d="M318.78,311.64s-.34,30.18,17.71,38.9,27.72,1.45,40,4.37h0a68.089,68.089,0,0,0-20.51-6.06C344.56,347.47,322.81,340.06,318.78,311.64Z" fill="#263238" opacity="0.1" />
			<path id="Path_1507" data-name="Path 1507" d="M377.66,355.45a30.31,30.31,0,0,0-7.17-4.86c-.39-.19-.79-.34-1.18-.51-.19-.24-.4-.47-.61-.69-.54-.56-1.1-1.1-1.7-1.61a24.607,24.607,0,0,0-3.63-2.62c-3-1.76-6.26-3-9.32-4.62-.09-.05-.17.09-.08.13,1.51.79,3,1.65,4.45,2.51s2.89,1.63,4.28,2.53a31.078,31.078,0,0,1,3.57,2.68c.32.28.63.58.93.89a46.074,46.074,0,0,0-6.1-1.62c-3.3-.67-6.64-1.14-9.94-1.85a46.339,46.339,0,0,1-4.79-1.29c-1.5-1.21-3-2.4-4.41-3.71a36.909,36.909,0,0,1-4.67-5.17c-.06-.09-.19,0-.13.08a55.56,55.56,0,0,0,7.4,8.16q-1.17-.44-2.31-1a37.24,37.24,0,0,1-15.38-12.79c-.05-.08-.19,0-.13.08a42.18,42.18,0,0,0,12.44,12,38.191,38.191,0,0,0,7.86,3.72,74.171,74.171,0,0,0,9.77,2.31,68.269,68.269,0,0,1,9.57,2.27,29.19,29.19,0,0,1,8,4.22,37.511,37.511,0,0,1,10.81,13.41c3.42,6.85,5.05,14.51,6,22.07,0,.32.54.32.51,0C390.84,377.46,387.45,364.26,377.66,355.45Z" fill="#263238" />
			<path id="Path_1508" data-name="Path 1508" d="M356.72,345.61a10.36,10.36,0,0,0-3.71-3.37,13.53,13.53,0,0,1-4.41-3.65c-.06-.08-.2,0-.14.08a14.93,14.93,0,0,0,3.9,3.49,13.64,13.64,0,0,1,4.25,3.51C356.66,345.74,356.77,345.68,356.72,345.61Z" fill="#263238" />
			<path id="Path_1509" data-name="Path 1509" d="M366.3,377.73l.82,16.59,2.51,50.72H407.5l2.51-50.72.82-16.59Z" fill="#37474f" />
			<path id="Path_1510" data-name="Path 1510" d="M366.3,377.73l.82,16.59h42.89l.82-16.59Z" fill="#263238" />
			<rect id="Rectangle_200" data-name="Rectangle 200" width="49.85" height="15.83" transform="translate(413.49 386.63) rotate(180)" fill="#37474f" />
		</g>
	</g>
</svg>
