<svg xmlns="http://www.w3.org/2000/svg" width="396.68" height="418.141" viewBox="0 0 396.68 418.141">
	<g id="Woman_thinking-cuate" data-name="Woman thinking-cuate" transform="translate(-51.68 -44.39)">
		<g id="freepik--background-complete--inject-6">
			<path id="Path_1078" data-name="Path 1078" d="M107.93,387.56c-5.86.1-20.63.35-26.29.42H72.32V375.83h.5l17.58.07c4.38,0,13.2.14,17.58.2h.24v.23l-.24,11.19Zm0,0-.24-11.19.24.24c-4.39.06-13.2.16-17.58.2l-17.58.06.5-.5v11.19l-.46-.45h8.71c5.57.07,20.68.32,26.45.41Z" fill="#ebebeb" />
			<path id="Path_1079" data-name="Path 1079" d="M164.6,268.13c-5.86.11-20.63.35-26.29.42H129v-.46L128.94,257v-.51h.5l17.58.06c4.38,0,13.2.14,17.58.2h.24V257l-.24,11.18Zm0,0L164.36,257l.24.23c-4.38.06-13.19.16-17.58.2l-17.58.06.5-.49v11.18l-.46-.45h8.71c5.58.07,20.69.32,26.45.41Z" fill="#ebebeb" />
			<path id="Path_1080" data-name="Path 1080" d="M88.32,401.67c-5.86.1-20.63.35-26.29.42H52.71V390h.5l17.58.07c4.37,0,13.2.13,17.58.2h.24v.23l-.23,11.19Zm0,0-.24-11.19.24.24c-4.39.06-13.2.16-17.58.2L53.16,391l.5-.5v11.19l-.46-.45h8.71c5.57.07,20.68.32,26.45.41Z" fill="#ebebeb" />
			<path id="Path_1081" data-name="Path 1081" d="M342.72,150.16c-5.85.1-20.62.35-26.29.42h-9.32V138.43h.51l17.57.07c4.38,0,13.21.14,17.58.2H343v.3l-.24,11.19Zm0,0L342.49,139l.23.24c-4.38.06-13.19.16-17.58.2l-17.57.06.49-.5v11.19l-.45-.45h8.71c5.57.07,20.68.32,26.44.41Z" fill="#ebebeb" />
			<path id="Path_1082" data-name="Path 1082" d="M323.11,164.27c-5.86.1-20.63.35-26.29.42H287.5v-.46l-.05-11.19v-.5h.5l17.58.07c4.38,0,13.2.13,17.58.2h.24v.23l-.24,11.19Zm0,0-.24-11.19.24.24c-4.39.06-13.19.16-17.58.2l-17.58.06.5-.5v11.19l-.46-.45h8.71c5.58.07,20.69.32,26.45.41Z" fill="#ebebeb" />
			<path id="Path_1083" data-name="Path 1083" d="M303.58,150.16c-5.86.1-20.63.35-26.29.42H268V138.43h.5l17.58.07c4.37,0,13.2.14,17.58.2h.24v.3l-.23,11.19Zm0,0L303.34,139l.24.24c-4.39.06-13.2.16-17.58.2l-17.58.06.5-.5-.05,11.19-.45-.45h8.71c5.57.07,20.68.32,26.45.41Z" fill="#ebebeb" />
			<path id="Path_1084" data-name="Path 1084" d="M446.84,401.67c-5.86.1-20.63.35-26.29.42h-9.32v-.46l-.05-11.19V390h.5l17.58.07c4.38,0,13.2.13,17.58.2h.24v.23l-.24,11.19Zm0,0-.24-11.19.24.24c-4.39.06-13.19.16-17.58.2l-17.58.06.5-.5v11.19l-.46-.45h8.71c5.58.07,20.69.32,26.45.41Z" fill="#ebebeb" />
			<path id="Path_1085" data-name="Path 1085" d="M427.23,56.12c-5.86.1-20.63.35-26.29.42h-9.32v-.46l-.05-11.19v-.5h.5l17.58.07c4.38,0,13.2.13,17.58.2h.24v.23l-.24,11.19Zm0,0L427,44.93l.24.24-8.79.11c-5.58.08-20.6.13-26.37.15l.5-.5V56.12l-.46-.45h8.71c5.57.06,20.68.32,26.45.41Z" fill="#ebebeb" />
			<path id="Path_1086" data-name="Path 1086" d="M446.84,70.23c-5.86.1-20.63.35-26.29.42h-9.32v-.46L411.18,59v-.5h.5l17.58.07c4.38,0,13.2.13,17.58.2h.24V59l-.24,11.19Zm0,0L446.6,59l.24.24c-4.39.06-13.19.16-17.58.19l-17.58.07.5-.5V70.19l-.46-.45h8.71c5.58.06,20.69.32,26.45.41Z" fill="#ebebeb" />
			<path id="Path_1087" data-name="Path 1087" d="M107.93,56.12c-5.86.1-20.63.35-26.29.42H72.32V44.39h.5l17.58.07c4.38,0,13.2.13,17.58.2h.24v.23l-.24,11.19Zm0,0-.24-11.19.24.24c-4.39.06-13.2.16-17.58.19l-17.58.07.5-.5V56.12l-.46-.45h8.71c5.57.06,20.68.32,26.45.41Z" fill="#ebebeb" />
			<rect id="Rectangle_142" data-name="Rectangle 142" width="66.33" height="66.33" transform="translate(371.06 66.52)" fill="#fff" />
			<path id="Path_1088" data-name="Path 1088" d="M367.61,63.07v73.24h73.23V63.07Zm3.45,3.45H437.4v66.34H371.06Z" fill="#dbdbdb" />
			<rect id="Rectangle_143" data-name="Rectangle 143" width="22.93" height="51.7" transform="translate(427.53 97.08) rotate(90)" fill="#ebebeb" />
			<rect id="Rectangle_144" data-name="Rectangle 144" width="26.49" height="26.49" transform="translate(417.47 86.44) rotate(90)" fill="#c7c7c7" />
			<rect id="Rectangle_145" data-name="Rectangle 145" width="2.83" height="73.24" transform="translate(367.61 136.31) rotate(180)" fill="#c7c7c7" />
			<rect id="Rectangle_146" data-name="Rectangle 146" width="66.33" height="66.33" transform="translate(371.06 160.71)" fill="#fff" />
			<rect id="Rectangle_147" data-name="Rectangle 147" width="17.32" height="50.03" transform="translate(408.67 171.32)" fill="#c7c7c7" />
			<path id="Path_1089" data-name="Path 1089" d="M367.61,157.26v73.23h73.23V157.26Zm3.45,3.45H437.4V227H371.06Z" fill="#dbdbdb" />
			<rect id="Rectangle_148" data-name="Rectangle 148" width="26.49" height="26.49" transform="translate(390.99 180.63)" fill="#ebebeb" />
			<rect id="Rectangle_149" data-name="Rectangle 149" width="2.83" height="73.24" transform="translate(367.61 230.49) rotate(180)" fill="#c7c7c7" />
			<rect id="Rectangle_150" data-name="Rectangle 150" width="66.33" height="66.33" transform="translate(371.06 254.9)" fill="#fff" />
			<rect id="Rectangle_151" data-name="Rectangle 151" width="36.4" height="21.76" transform="translate(393.64 263.94)" fill="#ebebeb" />
			<path id="Path_1090" data-name="Path 1090" d="M367.61,251.45v73.23h73.23V251.45Zm3.45,3.45H437.4v66.33H371.06Z" fill="#dbdbdb" />
			<rect id="Rectangle_152" data-name="Rectangle 152" width="26.49" height="26.49" transform="translate(390.99 274.82)" fill="#c7c7c7" />
			<rect id="Rectangle_153" data-name="Rectangle 153" width="2.83" height="73.24" transform="translate(367.61 324.68) rotate(180)" fill="#c7c7c7" />
			<path id="Path_1091" data-name="Path 1091" d="M63.54,55.17V300.88H223.25V55.17Zm5.9,5.9H217.35V295H69.44Z" fill="#ebebeb" />
			<rect id="Rectangle_154" data-name="Rectangle 154" width="147.92" height="233.92" transform="translate(69.44 61.07)" fill="#fff" />
			<rect id="Rectangle_155" data-name="Rectangle 155" width="147.92" height="5.89" transform="translate(69.44 175.08)" fill="#ebebeb" />
			<rect id="Rectangle_156" data-name="Rectangle 156" width="181.41" height="16.91" transform="translate(52.7 300.88)" fill="#dbdbdb" />
			<path id="Path_1092" data-name="Path 1092" d="M217.36,212.4H69.44V61.06H217.36ZM74.9,207h137V66.52H74.9Z" fill="#dbdbdb" />
			<rect id="Rectangle_157" data-name="Rectangle 157" width="2.95" height="145.89" transform="translate(116.65 61.06)" fill="#dbdbdb" />
			<rect id="Rectangle_158" data-name="Rectangle 158" width="2.95" height="145.89" transform="translate(167.21 61.06)" fill="#dbdbdb" />
		</g>
		<g id="freepik--Plant--inject-6">
			<path id="Path_1093" data-name="Path 1093" d="M404.81,328.57s-9.64-7.28-5.34-10.57c1.5-1.14,4.85,2.48,5.34,6.52.49-4,3.84-7.66,5.34-6.52C414.45,321.29,404.81,328.57,404.81,328.57Z" fill="#0dbdb8" />
			<path id="Path_1094" data-name="Path 1094" d="M404.81,328.57s-9.64-7.28-5.34-10.57c1.5-1.14,4.85,2.48,5.34,6.52.49-4,3.84-7.66,5.34-6.52C414.45,321.29,404.81,328.57,404.81,328.57Z" opacity="0.2" />
			<path id="Path_1095" data-name="Path 1095" d="M404.81,328.57c-5.82,0-10.14-5.3-8.82-7.61,1.5-2.63,6.73,3.56,6.73,3.56s-2-8.75,2.09-8.75,2.09,8.75,2.09,8.75,5.24-6.19,6.74-3.56C415,323.27,410.63,328.57,404.81,328.57Z" fill="#0dbdb8" />
			<path id="Path_1096" data-name="Path 1096" d="M388.36,391.06l-.94,21.22c-3.46.31-15.25-3-20.9-8.65-4.25-4.25-3.14-17.44-.78-33.78s7.07-18.23,11-17.29a5.84,5.84,0,0,1,2.48,1.26c2.09,1.81,3,5.21,3.34,9.59.47,5.81-1.89,21.06-1.26,24.67a3.09,3.09,0,0,0,1.49,2.19C384.58,391.38,387.44,391.06,388.36,391.06Z" fill="#455a64" />
			<path id="Path_1097" data-name="Path 1097" d="M420.88,420.49s-16.74,6.12-34.18,0c0,0,1.65-67.42,3.77-78.73S397.39,325,405.08,325a14.412,14.412,0,0,1,1.49.08c6.13.65,10.4,5.35,11.71,14.3,1,6.86,1.89,44.79,2.32,66.26C420.78,414.45,420.88,420.49,420.88,420.49Z" fill="#455a64" />
			<path id="Path_1098" data-name="Path 1098" d="M441.07,382.15c-5.66,5.65-17.45,9-20.9,8.64l-.94-21.22c1.29,0,6.44.63,7.07-3s-1.73-18.86-1.26-24.67,1.88-9.9,5.82-10.85a6.594,6.594,0,0,1,1-.16c3.71-.36,7.84,2.47,10,17.45a190.672,190.672,0,0,1,2,19.28C444.14,374.59,443.44,379.77,441.07,382.15Z" fill="#455a64" />
			<path id="Path_1099" data-name="Path 1099" d="M404.81,325a1.14,1.14,0,0,1,.73.23,3.18,3.18,0,0,1,.58.52A7.151,7.151,0,0,1,407,327a17.581,17.581,0,0,1,1.15,2.89,48.216,48.216,0,0,1,1.4,6.05c.68,4.09,1.06,8.21,1.35,12.34s.41,8.26.49,12.39l.23,12.38c.09,8.26.22,16.52.27,24.77l.06,12.39c0,4.13,0,8.26-.05,12.39-.17-4.13-.28-8.26-.42-12.38l-.32-12.39c-.2-8.25-.32-16.51-.48-24.76s-.1-16.52-.49-24.75c-.21-4.12-.51-8.23-1.09-12.31a47.568,47.568,0,0,0-1.19-6.05,17.576,17.576,0,0,0-1-2.9,6.71,6.71,0,0,0-.79-1.31,2.761,2.761,0,0,0-.54-.54,1.09,1.09,0,0,0-.77-.21Z" fill="#37474f" />
			<path id="Path_1100" data-name="Path 1100" d="M417,421.56c-.11-4.13-.17-8.26-.25-12.39l-.18-12.39L416.26,372q-.06-6.19-.2-12.38l-.08-3.1-.11-3.08c-.11-2.06-.26-4.12-.43-6.18s-.41-4.1-.7-6.14a54.312,54.312,0,0,0-1.18-6.05,21.679,21.679,0,0,0-2.29-5.7,12,12,0,0,0-1.92-2.4,10.1,10.1,0,0,0-2.54-1.73,10.059,10.059,0,0,1,2.61,1.66,11.69,11.69,0,0,1,2,2.37,22,22,0,0,1,2.45,5.71A71.457,71.457,0,0,1,416,347.21q.63,6.18.86,12.38t.3,12.4c.09,4.13.12,8.26.13,12.39v12.39l-.11,12.39C417.14,413.3,417.07,417.43,417,421.56Z" fill="#37474f" />
			<path id="Path_1101" data-name="Path 1101" d="M404.81,325a1.11,1.11,0,0,0-.71.26,3.071,3.071,0,0,0-.54.54,6.711,6.711,0,0,0-.79,1.31,18.551,18.551,0,0,0-1,2.9,47.539,47.539,0,0,0-1.18,6.05c-.58,4.08-.89,8.19-1.09,12.31-.4,8.23-.37,16.49-.49,24.75s-.29,16.51-.49,24.76l-.32,12.39c-.14,4.12-.25,8.25-.42,12.38V410.26l.06-12.39c.05-8.25.18-16.51.27-24.77l.23-12.38c.07-4.13.18-8.27.48-12.39s.68-8.25,1.35-12.34a50,50,0,0,1,1.4-6.05,19.55,19.55,0,0,1,1.15-2.89,6.711,6.711,0,0,1,.87-1.3,3.117,3.117,0,0,1,.57-.52A1.15,1.15,0,0,1,404.81,325Z" fill="#37474f" />
			<path id="Path_1102" data-name="Path 1102" d="M392.67,421.56c-.12-4.13-.18-8.26-.25-12.4l-.11-12.39V384.38q0-6.19.13-12.39t.3-12.4q.23-6.19.85-12.38A71.478,71.478,0,0,1,395.75,335a21.7,21.7,0,0,1,2.45-5.71,11.64,11.64,0,0,1,2-2.37,10.23,10.23,0,0,1,2.61-1.66,10.281,10.281,0,0,0-2.54,1.73,12.341,12.341,0,0,0-1.92,2.4,21.65,21.65,0,0,0-2.28,5.7,52.113,52.113,0,0,0-1.18,6.05c-.3,2-.52,4.09-.7,6.14s-.33,4.12-.43,6.18l-.12,3.08-.07,3.1q-.15,6.18-.21,12.38l-.26,24.78-.18,12.39C392.85,413.3,392.78,417.43,392.67,421.56Z" fill="#37474f" />
			<path id="Path_1103" data-name="Path 1103" d="M404.81,423.17c-.1-4.09-.15-8.18-.23-12.27l-.13-12.28c-.08-8.18-.07-16.36-.11-24.54s0-16.37.11-24.55l.13-12.27c.08-4.09.13-8.18.23-12.28.11,4.1.16,8.19.23,12.28l.13,12.27c.08,8.18.08,16.37.11,24.55s0,16.36-.11,24.54L405,410.9C405,415,404.92,419.08,404.81,423.17Z" fill="#37474f" />
			<path id="Path_1104" data-name="Path 1104" d="M376.73,352.57a6.6,6.6,0,0,1,1.13,1.17,7.121,7.121,0,0,1,.79,1.43,13.89,13.89,0,0,1,.83,3.16,38.249,38.249,0,0,1,.29,6.5,121.137,121.137,0,0,1-1.19,12.92,63,63,0,0,0-.68,6.39,22.1,22.1,0,0,0,.47,6.3,8.52,8.52,0,0,0,1.25,2.84,5.88,5.88,0,0,0,1,1.15,6.359,6.359,0,0,0,1.28.89,10.609,10.609,0,0,0,3,1c1,.2,2.12.33,3.2.44a25.153,25.153,0,0,1-3.24-.2,10.7,10.7,0,0,1-3.16-.87,6.79,6.79,0,0,1-2.59-2.09,9,9,0,0,1-1.46-3,21.92,21.92,0,0,1-.65-6.54,63.715,63.715,0,0,1,.63-6.48q.47-3.19.82-6.4c.25-2.13.45-4.28.58-6.42a44.231,44.231,0,0,0,0-6.41,13.869,13.869,0,0,0-.61-3.13A6.57,6.57,0,0,0,376.73,352.57Z" fill="#37474f" />
			<path id="Path_1105" data-name="Path 1105" d="M376,352.37a2.06,2.06,0,0,0-.92.49,5.22,5.22,0,0,0-.72.77,9.828,9.828,0,0,0-1.1,1.81,22.519,22.519,0,0,0-1.44,4,60.524,60.524,0,0,0-1.57,8.35c-.68,5.64-1.34,11.3-1.52,17a48.508,48.508,0,0,0,.36,8.44,16,16,0,0,0,1.06,4,10.739,10.739,0,0,0,2.37,3.33,24.52,24.52,0,0,0,7,4.6,39.179,39.179,0,0,0,8.08,2.64,36.242,36.242,0,0,1-8.27-2.21,23.9,23.9,0,0,1-7.34-4.5,11.07,11.07,0,0,1-2.62-3.53,16.52,16.52,0,0,1-1.18-4.21,47.674,47.674,0,0,1-.42-8.6,151.54,151.54,0,0,1,1.74-17,56,56,0,0,1,1.86-8.38,23.258,23.258,0,0,1,1.65-4,10.157,10.157,0,0,1,1.21-1.78,5.467,5.467,0,0,1,.79-.73,2.1,2.1,0,0,1,.98-.49Z" fill="#37474f" />
			<path id="Path_1106" data-name="Path 1106" d="M431,331.07a6.69,6.69,0,0,0-1.68,2.7,13.869,13.869,0,0,0-.61,3.13,42.864,42.864,0,0,0,0,6.41c.13,2.14.33,4.28.57,6.42s.52,4.27.82,6.4a60.487,60.487,0,0,1,.64,6.48,21.6,21.6,0,0,1-.66,6.54,9.06,9.06,0,0,1-1.45,3,6.7,6.7,0,0,1-1.17,1.21,7,7,0,0,1-1.42.88,10.78,10.78,0,0,1-3.16.87,25.147,25.147,0,0,1-3.24.2c1.07-.11,2.15-.24,3.2-.44a11,11,0,0,0,3-1,6.358,6.358,0,0,0,1.28-.89,6.179,6.179,0,0,0,1-1.15,8.5,8.5,0,0,0,1.24-2.84,21.75,21.75,0,0,0,.47-6.3,62.935,62.935,0,0,0-.67-6.39,121.145,121.145,0,0,1-1.2-12.92,39.3,39.3,0,0,1,.29-6.5,14.31,14.31,0,0,1,.84-3.16,6.858,6.858,0,0,1,.79-1.43,7,7,0,0,1,1.12-1.22Z" fill="#37474f" />
			<path id="Path_1107" data-name="Path 1107" d="M431.7,330.88a2.09,2.09,0,0,1,1,.44,5.469,5.469,0,0,1,.79.73,10.728,10.728,0,0,1,1.21,1.78,22.934,22.934,0,0,1,1.65,4,56,56,0,0,1,1.85,8.38,151.548,151.548,0,0,1,1.74,17,46.767,46.767,0,0,1-.41,8.6,17,17,0,0,1-1.19,4.21,11,11,0,0,1-2.61,3.53,24,24,0,0,1-7.35,4.5,36,36,0,0,1-8.26,2.21,39.177,39.177,0,0,0,8.08-2.64,24.329,24.329,0,0,0,7-4.6,10.77,10.77,0,0,0,2.38-3.33,16,16,0,0,0,1.05-4,46.625,46.625,0,0,0,.36-8.44c-.17-5.67-.83-11.33-1.51-17a63.656,63.656,0,0,0-1.57-8.35,22.521,22.521,0,0,0-1.44-4,9.83,9.83,0,0,0-1.1-1.81,5.252,5.252,0,0,0-.72-.77A2.09,2.09,0,0,0,431.7,330.88Z" fill="#37474f" />
			<path id="Path_1108" data-name="Path 1108" d="M392.67,336.85a14.057,14.057,0,0,1,1.32,1.9c.21.33.38.67.57,1s.35.67.52,1l-.78-.1c.24-.29.49-.58.75-.86s.51-.57.79-.83a14.211,14.211,0,0,1,1.74-1.53,12.819,12.819,0,0,1-1.18,2c-.21.32-.44.62-.67.93s-.47.6-.71.89l-.47.57-.32-.66c-.16-.35-.32-.69-.47-1s-.3-.71-.43-1.07A13.859,13.859,0,0,1,392.67,336.85Z" fill="#37474f" />
			<path id="Path_1109" data-name="Path 1109" d="M395.3,335.75a5.382,5.382,0,0,1,.2,1.35,8.283,8.283,0,0,1-.05,1.32,9.516,9.516,0,0,1-.26,1.29,5.278,5.278,0,0,1-.53,1.26,5.339,5.339,0,0,1-.21-1.35,8.6,8.6,0,0,1,.32-2.61,5.461,5.461,0,0,1,.53-1.26Z" fill="#37474f" />
			<path id="Path_1110" data-name="Path 1110" d="M409.25,401.79a14.581,14.581,0,0,1,1.53,1.73c.24.3.46.62.68.92l.64,1h-.79c.2-.32.42-.63.64-.94s.45-.62.69-.92a14.779,14.779,0,0,1,1.56-1.72,15.654,15.654,0,0,1-.94,2.12c-.17.35-.38.67-.56,1s-.4.66-.6,1l-.4.62-.4-.63c-.2-.32-.4-.65-.59-1s-.38-.66-.55-1a14.359,14.359,0,0,1-.91-2.18Z" fill="#37474f" />
			<path id="Path_1111" data-name="Path 1111" d="M411.73,400.39a5.41,5.41,0,0,1,.36,1.32,8.262,8.262,0,0,1,.1,1.31,9.79,9.79,0,0,1-.11,1.32,5.531,5.531,0,0,1-.38,1.31,5.41,5.41,0,0,1-.36-1.32,8.262,8.262,0,0,1-.1-1.31,9.8,9.8,0,0,1,.11-1.32,5.53,5.53,0,0,1,.38-1.31Z" fill="#37474f" />
			<path id="Path_1112" data-name="Path 1112" d="M410.29,321.9a13.7,13.7,0,0,1,.62,2.23c.08.38.13.75.2,1.13s.11.75.15,1.13l-.71-.35c.33-.19.66-.38,1-.56s.67-.36,1-.52a14.093,14.093,0,0,1,2.16-.86,14.648,14.648,0,0,1-1.78,1.49c-.31.23-.63.43-.94.65l-1,.61-.64.38-.07-.73c0-.38-.08-.76-.1-1.14s-.05-.77-.05-1.15a15,15,0,0,1,.16-2.31Z" fill="#37474f" />
			<path id="Path_1113" data-name="Path 1113" d="M413.14,321.74a5.311,5.311,0,0,1-.26,1.34,8.251,8.251,0,0,1-1.17,2.35,5.08,5.08,0,0,1-.91,1,4.889,4.889,0,0,1,.25-1.34,8.25,8.25,0,0,1,1.17-2.35,5.132,5.132,0,0,1,.92-1Z" fill="#37474f" />
			<path id="Path_1114" data-name="Path 1114" d="M445,361.63a15.868,15.868,0,0,1-.22,2.3c-.06.38-.14.75-.21,1.13s-.17.74-.26,1.11l-.54-.58,1.13-.17c.38,0,.76-.1,1.14-.12a13.783,13.783,0,0,1,2.32,0,13.871,13.871,0,0,1-2.19.76c-.37.11-.75.18-1.12.28l-1.12.22-.73.13.19-.71c.1-.37.2-.74.32-1.1s.22-.73.36-1.09a14.666,14.666,0,0,1,.93-2.16Z" fill="#37474f" />
			<path id="Path_1115" data-name="Path 1115" d="M447.67,362.49a5.372,5.372,0,0,1-.71,1.16,9.23,9.23,0,0,1-.9,1,8.241,8.241,0,0,1-1,.82,5.82,5.82,0,0,1-1.22.62,5.211,5.211,0,0,1,.71-1.17,8.225,8.225,0,0,1,.9-1,7.5,7.5,0,0,1,1-.82A5.31,5.31,0,0,1,447.67,362.49Z" fill="#37474f" />
			<path id="Path_1116" data-name="Path 1116" d="M426.45,353.74a14.313,14.313,0,0,1,1.91,1.31c.3.23.59.49.88.73s.57.51.85.77l-.77.19c.12-.36.25-.72.39-1.07s.29-.71.45-1.06a14.4,14.4,0,0,1,1.1-2,15.292,15.292,0,0,1-.4,2.28c-.09.38-.2.74-.3,1.11s-.23.73-.35,1.09l-.24.7-.53-.51-.81-.81c-.26-.28-.53-.55-.78-.85A14.367,14.367,0,0,1,426.45,353.74Z" fill="#37474f" />
			<path id="Path_1117" data-name="Path 1117" d="M428.52,351.78a5.9,5.9,0,0,1,.67,1.19,8.558,8.558,0,0,1,.62,2.56,5.22,5.22,0,0,1-.05,1.36,5.641,5.641,0,0,1-.67-1.19,9.134,9.134,0,0,1-.41-1.25,9.507,9.507,0,0,1-.21-1.3,5.291,5.291,0,0,1,.05-1.37Z" fill="#37474f" />
			<path id="Path_1118" data-name="Path 1118" d="M428.19,327.72A16.1,16.1,0,0,1,430.1,329c.3.23.58.49.88.73s.57.51.85.77l-.78.19c.13-.36.26-.72.4-1.07s.28-.71.45-1.06a15,15,0,0,1,1.1-2,15.285,15.285,0,0,1-.4,2.28c-.09.38-.2.74-.3,1.11s-.23.73-.35,1.09l-.24.7-.53-.51c-.28-.27-.55-.53-.82-.81s-.52-.55-.77-.85a13.5,13.5,0,0,1-1.4-1.85Z" fill="#37474f" />
			<path id="Path_1119" data-name="Path 1119" d="M430.26,325.77a5.638,5.638,0,0,1,.67,1.19,9.131,9.131,0,0,1,.41,1.25,9.512,9.512,0,0,1,.21,1.3,5.309,5.309,0,0,1-.05,1.37,5.448,5.448,0,0,1-.67-1.19,8.065,8.065,0,0,1-.41-1.26,9.268,9.268,0,0,1-.21-1.3A5.22,5.22,0,0,1,430.26,325.77Z" fill="#37474f" />
			<path id="Path_1120" data-name="Path 1120" d="M413.36,346.74a14,14,0,0,1,1.65,1.62c.26.28.5.58.74.87s.48.6.71.9l-.79.06q.27-.51.57-1c.21-.32.4-.65.62-1a14.65,14.65,0,0,1,1.44-1.83,14.1,14.1,0,0,1-.79,2.18c-.15.36-.33.69-.49,1s-.35.68-.53,1l-.36.65-.43-.6q-.34-.45-.66-.93a10.654,10.654,0,0,1-.62-1,13.231,13.231,0,0,1-1.06-1.92Z" fill="#37474f" />
			<path id="Path_1121" data-name="Path 1121" d="M415.73,345.17a4.931,4.931,0,0,1,.46,1.28,8.442,8.442,0,0,1,.19,1.31,8.313,8.313,0,0,1,0,1.32,4.938,4.938,0,0,1-.28,1.33,4.93,4.93,0,0,1-.46-1.28,7.369,7.369,0,0,1-.18-1.31,8.31,8.31,0,0,1,0-1.32,5.851,5.851,0,0,1,.27-1.33Z" fill="#37474f" />
			<path id="Path_1122" data-name="Path 1122" d="M384.89,355.55a14.4,14.4,0,0,1,2.29.38c.37.08.74.19,1.1.29s.73.22,1.1.34l-.62.5q-.06-.57-.09-1.14a8.828,8.828,0,0,1,0-1.15,13.828,13.828,0,0,1,.13-2.31,14.7,14.7,0,0,1,.6,2.23c.08.38.13.76.19,1.13s.1.76.15,1.14l.07.73-.69-.24-1.08-.39c-.35-.14-.71-.27-1.06-.44A13.348,13.348,0,0,1,384.89,355.55Z" fill="#37474f" />
			<path id="Path_1123" data-name="Path 1123" d="M385.94,352.9a5.079,5.079,0,0,1,1.11.8,8.133,8.133,0,0,1,.9,1,7.52,7.52,0,0,1,.75,1.09,5.479,5.479,0,0,1,.53,1.26,5.079,5.079,0,0,1-1.11-.8,8.13,8.13,0,0,1-.9-1,8,8,0,0,1-.74-1.09,5.26,5.26,0,0,1-.54-1.26Z" fill="#37474f" />
			<path id="Path_1124" data-name="Path 1124" d="M361.48,372.34a14.3,14.3,0,0,1,2.28.39c.38.08.74.19,1.11.29s.73.22,1.09.34l-.61.49c0-.38-.08-.76-.1-1.14s0-.76,0-1.14a14,14,0,0,1,.14-2.32,15.152,15.152,0,0,1,.6,2.24c.08.38.13.75.19,1.13s.1.76.14,1.14l.08.73-.7-.24c-.36-.12-.72-.25-1.07-.39s-.71-.28-1.06-.44a14.354,14.354,0,0,1-2.09-1.08Z" fill="#37474f" />
			<path id="Path_1125" data-name="Path 1125" d="M362.53,369.7a5.4,5.4,0,0,1,1.11.79,8.721,8.721,0,0,1,1.64,2.06,4.66,4.66,0,0,1,.53,1.25,6,6,0,0,1-1.11-.79,8.2,8.2,0,0,1-.89-1,7.518,7.518,0,0,1-.75-1.09A5.6,5.6,0,0,1,362.53,369.7Z" fill="#37474f" />
			<path id="Path_1126" data-name="Path 1126" d="M402.34,362.25a14.772,14.772,0,0,1,1.54,1.73c.25.3.46.61.69.92a9.561,9.561,0,0,1,.64,1h-.79c.2-.32.41-.64.64-1a8.792,8.792,0,0,1,.68-.92,14,14,0,0,1,1.55-1.73,15.063,15.063,0,0,1-.93,2.13c-.17.34-.37.66-.55,1s-.4.65-.6,1l-.4.63-.39-.63c-.21-.32-.41-.64-.6-1s-.38-.66-.55-1a13.464,13.464,0,0,1-.93-2.13Z" fill="#37474f" />
			<path id="Path_1127" data-name="Path 1127" d="M404.81,360.84a5,5,0,0,1,.37,1.32,8.169,8.169,0,0,1,.1,1.31,8.38,8.38,0,0,1-.1,1.32,5.07,5.07,0,0,1-.37,1.31,5.5,5.5,0,0,1-.37-1.31,8.377,8.377,0,0,1-.1-1.32,8.169,8.169,0,0,1,.1-1.31A5.929,5.929,0,0,1,404.81,360.84Z" fill="#37474f" />
			<path id="Path_1128" data-name="Path 1128" d="M376.45,406a15,15,0,0,1,2.29-.31,8.787,8.787,0,0,0,1.15-.05H381l-.44.66c-.15-.35-.3-.7-.43-1.06s-.27-.72-.37-1.08a13,13,0,0,1-.56-2.25,13.39,13.39,0,0,1,1.23,2c.19.33.35.68.52,1s.32.69.47,1l.3.68h-.74l-1.14-.06a8.77,8.77,0,0,1-1.14-.1,14.072,14.072,0,0,1-2.25-.43Z" fill="#37474f" />
			<path id="Path_1129" data-name="Path 1129" d="M376.67,403.17a5.3,5.3,0,0,1,1.29.44,7.58,7.58,0,0,1,1.15.65,9,9,0,0,1,1,.82,5.327,5.327,0,0,1,.88,1.05,5.3,5.3,0,0,1-1.29-.44,6.822,6.822,0,0,1-1.15-.65,9,9,0,0,1-1-.82,5.332,5.332,0,0,1-.88-1.05Z" fill="#37474f" />
			<path id="Path_1130" data-name="Path 1130" d="M376.73,365.68a14,14,0,0,1,1.55,1.73c.24.29.46.61.68.92s.44.63.64.94h-.79c.21-.32.42-.63.64-.94s.44-.63.69-.92a14.769,14.769,0,0,1,1.54-1.73,13.431,13.431,0,0,1-.92,2.12c-.17.35-.37.67-.56,1s-.39.65-.59,1l-.4.63-.4-.63c-.2-.32-.4-.64-.59-1s-.39-.66-.56-1a14.459,14.459,0,0,1-.93-2.12Z" fill="#37474f" />
			<path id="Path_1131" data-name="Path 1131" d="M379.21,364.27a5.44,5.44,0,0,1,.37,1.32,8.169,8.169,0,0,1,.1,1.31,8.381,8.381,0,0,1-.1,1.32,5.5,5.5,0,0,1-.37,1.31,5.069,5.069,0,0,1-.37-1.31,8.381,8.381,0,0,1-.1-1.32,8.169,8.169,0,0,1,.1-1.31,5,5,0,0,1,.37-1.32Z" fill="#37474f" />
			<path id="Path_1132" data-name="Path 1132" d="M432.35,377.79a15.083,15.083,0,0,1,.06,2.32c0,.38-.05.76-.07,1.14s-.08.76-.13,1.14l-.6-.51c.36-.11.73-.22,1.1-.31s.74-.19,1.12-.26a15.578,15.578,0,0,1,2.29-.31,14.294,14.294,0,0,1-2.08,1c-.35.15-.72.27-1.07.4s-.73.25-1.09.36l-.71.22.11-.73c.05-.38.1-.76.17-1.13s.14-.76.23-1.13a15.245,15.245,0,0,1,.67-2.2Z" fill="#37474f" />
			<path id="Path_1133" data-name="Path 1133" d="M435.15,378.32a4.86,4.86,0,0,1-.57,1.24,8.313,8.313,0,0,1-.77,1.07,9.177,9.177,0,0,1-.93.94,5.518,5.518,0,0,1-1.14.76,5.87,5.87,0,0,1,.57-1.24,7.509,7.509,0,0,1,.78-1.07,7.427,7.427,0,0,1,.93-.93,5.361,5.361,0,0,1,1.13-.77Z" fill="#37474f" />
			<path id="Path_1134" data-name="Path 1134" d="M395.49,389.59a14.685,14.685,0,0,1,1.54,1.72c.25.3.46.62.69.92s.43.63.64.95h-.79c.2-.32.42-.64.64-.95s.44-.62.68-.92a13.921,13.921,0,0,1,1.55-1.72,14.992,14.992,0,0,1-.93,2.12c-.17.35-.37.67-.55,1s-.4.65-.6,1l-.4.62-.39-.62c-.21-.32-.41-.64-.6-1s-.38-.66-.55-1a13.884,13.884,0,0,1-.93-2.12Z" fill="#37474f" />
			<path id="Path_1135" data-name="Path 1135" d="M398,388.18a5,5,0,0,1,.37,1.31,8.377,8.377,0,0,1,.1,1.32,7.229,7.229,0,0,1-.1,1.31,5,5,0,0,1-.37,1.32,5.928,5.928,0,0,1-.37-1.32,8.262,8.262,0,0,1-.1-1.31,8.38,8.38,0,0,1,.1-1.32,5.852,5.852,0,0,1,.37-1.31Z" fill="#37474f" />
			<path id="Path_1136" data-name="Path 1136" d="M365.75,387a14,14,0,0,1,1.55,1.73c.24.29.46.61.69.91s.43.63.64.95h-.8c.21-.32.42-.64.64-.95s.44-.62.69-.92A14.684,14.684,0,0,1,370.7,387a13.852,13.852,0,0,1-.92,2.12c-.17.35-.37.67-.56,1s-.39.65-.59,1l-.4.63-.4-.63c-.2-.32-.4-.64-.59-1s-.39-.66-.56-1a15,15,0,0,1-.93-2.12Z" fill="#37474f" />
			<path id="Path_1137" data-name="Path 1137" d="M368.23,385.55a5.5,5.5,0,0,1,.37,1.31,8.377,8.377,0,0,1,.1,1.32,8.258,8.258,0,0,1-.1,1.31,5,5,0,0,1-.37,1.32,5,5,0,0,1-.37-1.32,8.262,8.262,0,0,1-.1-1.31,8.376,8.376,0,0,1,.1-1.32,5.5,5.5,0,0,1,.37-1.31Z" fill="#37474f" />
			<path id="Path_1138" data-name="Path 1138" d="M369.22,360.47s-9,0-7.88-3.87c.38-1.35,4-.7,6.07,1.47-1.51-2.61-1.15-6.25.25-6.24C371.67,351.85,369.22,360.47,369.22,360.47Z" fill="#0dbdb8" />
			<path id="Path_1139" data-name="Path 1139" d="M369.22,360.47s-9,0-7.88-3.87c.38-1.35,4-.7,6.07,1.47-1.51-2.61-1.15-6.25.25-6.24C371.67,351.85,369.22,360.47,369.22,360.47Z" opacity="0.2" />
			<path id="Path_1140" data-name="Path 1140" d="M369.22,360.47c-3.44,2.6-8.37,1.39-8.62-.57-.29-2.22,5.57-.89,5.57-.89s-5.06-4.31-2.67-6.12,5.15,4.25,5.15,4.25.33-6,2.39-5.12C372.85,352.8,372.66,357.87,369.22,360.47Z" fill="#0dbdb8" />
			<path id="Path_1141" data-name="Path 1141" d="M437.54,337.2s-4.72-7.61-.86-8.74c1.34-.39,2.69,3,1.95,5.94,1.42-2.66,4.7-4.27,5.43-3.08C446.16,334.74,437.54,337.2,437.54,337.2Z" fill="#0dbdb8" />
			<path id="Path_1142" data-name="Path 1142" d="M437.54,337.2s-4.72-7.61-.86-8.74c1.34-.39,2.69,3,1.95,5.94,1.42-2.66,4.7-4.27,5.43-3.08C446.16,334.74,437.54,337.2,437.54,337.2Z" opacity="0.2" />
			<path id="Path_1143" data-name="Path 1143" d="M437.54,337.2c-4-1.56-5.59-6.38-4.06-7.63,1.74-1.41,3.7,4.27,3.7,4.27s1-6.57,3.79-5.49-.9,6.61-.9,6.61,5.28-2.89,5.61-.67C446,336.24,441.57,338.75,437.54,337.2Z" fill="#0dbdb8" />
			<path id="Path_1144" data-name="Path 1144" d="M378.05,421.45h48.58l-4.89,40.62h-38.8Z" fill="#0dbdb8" />
			<path id="Path_1145" data-name="Path 1145" d="M378.05,421.45l1.1,9.16,46.65-2.24.83-6.92Z" opacity="0.1" />
			<rect id="Rectangle_159" data-name="Rectangle 159" width="54.69" height="7.26" transform="translate(374.99 416.32)" fill="#0dbdb8" />
		</g>
		<g id="freepik--Character--inject-6">
			<path id="Path_1146" data-name="Path 1146" d="M302.14,203.44a1.13,1.13,0,0,1-.76,1.29c-1.28.26-2.82.54-4.54.87-5.45-10.18-10.95-18.12-9.37-14.95a55.58,55.58,0,0,1,4.89,15.79c-2,.37-6.66,1.18-9,1.59-5.92-18.39-12.25-31.78-11.43-27.51,3.33,17.24,3,23,2.55,29.08-21.73,3.77-50.26,8.39-71,11.29-3.7-10.11-7.21-21.12-7.48-20.29-2.09,6.25-1.78,14.88-1,21.46-6.6.88-11.88,1.46-15.13,1.65,0,0-2.64-8.56-3.22-11.42a60.35,60.35,0,0,1-.44-22.22c1.28-7.58,4.26-14.5,7-21.56a.59.59,0,0,1,.07-.16v-.06A62.171,62.171,0,0,0,187.16,154a.29.29,0,0,0,0-.11,59.69,59.69,0,0,0,.39-10.64c-.65-13,5.2-25,16.86-29.94,20.12-24.37,44.12-18.21,53.1-2.6.87,1.53,1.74,3.29,2.62,5.22v.06c3.27,7.14,6.57,16.52,9.44,23.73v.08h0a71.48,71.48,0,0,0,3.8,8.27C280.93,160.83,295.07,166.79,302.14,203.44Z" fill="#263238" />
			<path id="Path_1147" data-name="Path 1147" d="M199.61,117.53c-7.41,5.13-11.51,11.79-11.56,21.33,0,5.56.28,10.95-1.18,16.38-1.49,5.6-4.38,10.4-7.36,15.22-4.73,7.64-7.77,15-7.49,24.36.29,9.47,2.13,20.45,6.38,28.78,0,.05.1,0,.07,0-3.67-8.53-5.27-20.77-4.86-30.24.45-10.41,5.41-17.54,10.34-26A42.8,42.8,0,0,0,190,145.43c0-4.72-.67-9.54.65-14.14,1.57-5.5,5.6-9.38,9.64-12.88a.56.56,0,0,0-.68-.88Z" fill="#263238" />
			<path id="Path_1148" data-name="Path 1148" d="M288.58,160.84c-6.51-6.58-13.12-12.06-17.53-20.69-4-7.87-6.82-16.36-10.9-24.21a.11.11,0,1,0-.19.09c6.52,14,9.28,28.66,20.26,39.77,6,6,11.88,11.57,16.27,19.15a71.931,71.931,0,0,1,8.63,25.77c.05.33.46.25.45-.06a59.52,59.52,0,0,0-16.99-39.82Z" fill="#263238" />
			<path id="Path_1149" data-name="Path 1149" d="M204.26,112.11c3.05-1.59,3.85-19.84-9-26.88-12.62-6.93-26.64,4.57-18.5,18.42C182,112.4,197.81,115.48,204.26,112.11Z" fill="#263238" />
			<path id="Path_1150" data-name="Path 1150" d="M178.75,86.23a20.15,20.15,0,0,0-5.36,12.18,12.18,12.18,0,0,0,5,11.07c3.46,2.62,7.93,3.78,12.39,4.24a37.781,37.781,0,0,0,6.81,0,18.47,18.47,0,0,0,6.67-1.6,16.39,16.39,0,0,1-6.47,2.84,30.2,30.2,0,0,1-7.11.77,23.62,23.62,0,0,1-13.81-4.18,13.5,13.5,0,0,1-5.46-13.34A17.77,17.77,0,0,1,178.75,86.23Z" fill="#263238" />
			<path id="Path_1151" data-name="Path 1151" d="M259.3,216.44c41.45,30.9,98.3,100.53,92.25,117.34-6.74,18.71-64.51-24.66-64.77-27.67-.2-2.27-24.88-46.07-43.39-77.85S249.05,208.8,259.3,216.44Z" fill="#eb9481" />
			<path id="Path_1152" data-name="Path 1152" d="M286.45,306.22c-2.28-4.74-35.57-62.39-45.37-80.73S236.7,200.19,259,215s74.11,67.55,88.69,97.53c14.05,28.89-1.57,31.28-24.3,20.44C304.72,324.07,286.45,306.22,286.45,306.22Z" fill="#0dbdb8" />
			<path id="Path_1153" data-name="Path 1153" d="M256.64,215.76a4.58,4.58,0,1,1-4.58-4.58,4.938,4.938,0,0,1,.87.08h0c.84.45,1.69,1,2.59,1.52h0A4.53,4.53,0,0,1,256.64,215.76Zm28.23,47.3a4.58,4.58,0,1,0,4.58,4.57,4.58,4.58,0,0,0-4.58-4.57Zm28.56,2.9a4.43,4.43,0,0,0-.32,1.67,4.58,4.58,0,0,0,4.57,4.58,4.5,4.5,0,0,0,1.11-.14q-2.62-3.07-5.36-6.07Zm-45-28.18a4.562,4.562,0,1,0,.04,0Zm49.21,77.16a4.557,4.557,0,1,0,.04,0Zm31.24.29a4.57,4.57,0,0,0,1.57,8.86,4.449,4.449,0,0,0,1.56-.28,56.572,56.572,0,0,0-3.09-8.58Zm-47.64-25.57a4.56,4.56,0,1,0,.04,0Zm31.83.1a4.58,4.58,0,1,0,4.92,6.81c-1.5-2.22-3.15-4.5-4.88-6.81Z" fill="#fff" />
			<path id="Path_1154" data-name="Path 1154" d="M352.27,334.16c-2.91,7.21-14.48,5.66-28.93-1.22-18.61-8.87-36.89-26.72-36.89-26.72-2.29-4.74-35.57-62.39-45.37-80.73-7-13.1-6.25-20.39,2.88-18.11Z" opacity="0.1" />
			<path id="Path_1155" data-name="Path 1155" d="M324.26,462.07H228.42c-4.17-16.36-10.58-41.54-16.17-63.47a.11.11,0,0,0,0-.05c-.34-1.34-.69-2.68-1-4-.22-.82-.42-1.63-.62-2.42-5.38-21.09-9.62-37.76-9.72-38.14s-.11-.42-.14-.56a2.9,2.9,0,0,1-.08-.32H293.2Z" fill="#37474f" />
			<path id="Path_1156" data-name="Path 1156" d="M290.21,353.08h0v3.58c0,2.77-.17,5.55-.35,8.32a256.5,256.5,0,0,1-4.24,32.27,340.91,340.91,0,0,1-10.74,41.52c-.39,1.18-.62,1.84-.65,1.91l-7.38,3.65-.59.3c-4.81,2.38-10.74,5.33-14.61,7.26-2.06,1-3.54,1.76-3.95,2l-.12.06s-.16,3.29-.37,8.1H147.22c2-16.95,2.27-19.18,2.27-19.18-.59-3.27-3.2-11.71-2.27-21.49,2.06-21.53,15.26-64.75,16.46-67.32.28-.63.44-1,.44-1H290.21Z" fill="#37474f" />
			<path id="Path_1157" data-name="Path 1157" d="M247.65,453.69v.22c0,2.72-.08,5.45-.12,8.16h-1c.22-2.72.4-5.47.72-8.2a6.034,6.034,0,0,1,.08-.73.16.16,0,0,1,.31,0C247.64,453.33,247.65,453.51,247.65,453.69Z" fill="#263238" />
			<path id="Path_1158" data-name="Path 1158" d="M235.66,458.93c4.25-2.94,8.84-5.42,13.34-8s9.27-5.09,14.06-7.32c9.35-4.36,19.23-7.5,29.07-10.56.25-.07.41.33.17.44-9.48,4.07-18.67,8.74-28.1,12.92-4.74,2.1-9.52,4.12-14.27,6.21s-9.38,4.46-14.16,6.46a.11.11,0,0,1-.11-.15Z" fill="#263238" />
			<path id="Path_1159" data-name="Path 1159" d="M261.6,412.54c.12-4.65.45-9.3.68-13.94.54-11,1-22,2-32.92a.34.34,0,0,1,.68,0c.14,8.48-.19,17-.36,25.46-.09,4.25-.21,8.49-.33,12.73a120.313,120.313,0,0,0-.08,12.16c.23,3.06.9,9,4.89,9.37,3.76.35,5.82-3.71,6.76-6.68,2.38-7.55,3.23-15.71,4-23.56.46-4.65.92-9.28,1.19-13.95s.65-11.65.4-16.35c0-.3.42-.29.47,0,.74,4,.77,12.21.67,17-.92,43.26-7.74,45.73-11.35,46.43a7.721,7.721,0,0,1-1.34.14c0,1-.17,2-.24,2.94-.11,1.54-.3,3.07-.51,4.6a33.7,33.7,0,0,1-.94,4.44,16.23,16.23,0,0,1-1.56,4.24.23.23,0,0,1-.43-.12,20.793,20.793,0,0,1,.36-4.38c.21-1.5.42-3,.73-4.48s.56-2.91.86-4.36c.2-1,.34-2,.52-3a7.15,7.15,0,0,1-5.32-4.19C261.64,420.64,261.5,416.42,261.6,412.54Z" fill="#263238" />
			<path id="Path_1160" data-name="Path 1160" d="M174.24,404.33c6,.42,12,1.2,18.06.48a31.45,31.45,0,0,0,15.7-6.17c10-7.72,14.32-20.36,17-32.22a.213.213,0,0,1,.42.07c-1.13,10.28-3.34,20.91-10,29.19a32,32,0,0,1-10.59,8.72,31.1,31.1,0,0,1-14,2.89A67.669,67.669,0,0,1,174.14,405a.35.35,0,0,1,.1-.67Z" fill="#263238" />
			<path id="Path_1161" data-name="Path 1161" d="M306,401.93c-1.68-.19-3.33-.05-5-1.29s-3.16-3.47-4.5-7.14c-2.9-8-4.33-20-5.28-31.08,0-.25-.13-.24-.12,0,.49,9.5,1.28,19.43,3.27,27.63a41.8,41.8,0,0,0,3.1,9c1.24,2.38,2.62,3.52,4,4a5.82,5.82,0,0,0,4.64-.46C306.18,402.52,306.15,402,306,401.93Z" fill="#263238" />
			<path id="Path_1162" data-name="Path 1162" d="M173.17,356.07c-3.25,17.77-7.09,35.79-10.64,53.52-.91,5.3-2.49,10.53-2.17,15.93a110.7,110.7,0,0,0,2.57,16.16c-.57,3.42-1.13,6.84-1.74,10.26s-1.18,6.76-1.83,10.13c.31-3.42.7-6.83,1.07-10.24s.77-6.82,1.17-10.23a88.738,88.738,0,0,1-3-16,23.56,23.56,0,0,1,.13-5.63c1.08-7.28,2.6-14.38,4.12-21.51,3.1-14.23,6.51-28.39,10.37-42.43Z" fill="#263238" />
			<path id="Path_1163" data-name="Path 1163" d="M294.64,354.48l-6.84-43.05s13.43-16.87,4.62-35.35c-4.45-9.37-31.12-55.8-47.29-67.26-15.17-10.76-39.6-3-46.34,8.65-17,29.39-26.71,64.35-36.54,137Z" fill="#0dbdb8" />
			<path id="Path_1164" data-name="Path 1164" d="M223.83,215.76a4.58,4.58,0,1,1-4.58-4.58,4.58,4.58,0,0,1,4.58,4.58Zm25.36-3.56a4.57,4.57,0,1,0,6.24,6.65A82.532,82.532,0,0,0,249.19,212.2Zm-62.75,50.86a4.58,4.58,0,1,0,4.58,4.57,4.58,4.58,0,0,0-4.58-4.57Zm32.81,0a4.57,4.57,0,1,0,3.238,1.335,4.58,4.58,0,0,0-3.238-1.335Zm32.81,0a4.58,4.58,0,1,0,4.58,4.57,4.58,4.58,0,0,0-4.58-4.57Zm33.28,0h-.47a4.58,4.58,0,1,0,4.14,6.52c-1.01-1.92-2.28-4.11-3.67-6.5Zm-82.49-25.3a4.57,4.57,0,1,1,0,.02Zm32.81,0a4.57,4.57,0,1,1,0,.02Zm34,.16a4.27,4.27,0,0,0-1.19-.16A4.58,4.58,0,1,0,273,243c-1.09-1.7-2.21-3.39-3.34-5.06Zm-83.22,77a4.56,4.56,0,1,1,0,.02Zm32.81,0a1.892,1.892,0,1,1,0,.02Zm32.81,0a4.56,4.56,0,1,1,0,.02Zm32.81,0a4.56,4.56,0,1,1,0,.02Zm-112-24.3c-.56,2.6-1.1,5.27-1.64,8a4.58,4.58,0,0,0,1.64-8Zm30-1a3.4,3.4,0,1,1-.02.04Zm32.81,0a3.4,3.4,0,1,1-.02.04Zm32.81,0a3.407,3.407,0,1,1-.02.04ZM170,341.54a4.58,4.58,0,1,0,4.57,4.58A4.58,4.58,0,0,0,170,341.54Zm32.81,0a4.55,4.55,0,1,0,.04,0Zm32.81,0a4.55,4.55,0,1,0,.04,0Zm32.81,0a4.557,4.557,0,1,0,.04,0Z" fill="#fff" />
			<path id="Path_1165" data-name="Path 1165" d="M265.5,300.58a139.641,139.641,0,0,0-20.39,3.77c-3.32.92-6.57,2-9.81,3.13-1.62.57-3.25,1.08-4.88,1.59a22.6,22.6,0,0,1-5.26,1.1.12.12,0,0,0,0,.24,39.158,39.158,0,0,0,5.08-.19,37.858,37.858,0,0,0,4.82-1c3.37-.9,6.7-2,10.06-2.9,6.78-1.88,13.56-3.77,20.47-5.16a.293.293,0,1,0-.09-.58Z" fill="#263238" />
			<path id="Path_1166" data-name="Path 1166" d="M282.66,306.34a152.644,152.644,0,0,0-17.11-.48c-2.86.09-5.69.35-8.53.68q-2,.24-4,.54c-1.49.22-2.95.64-4.43.84-.16,0-.15.26,0,.25,1.4-.15,2.84-.06,4.26-.12l4.26-.2c2.85-.13,5.69-.22,8.54-.37,5.69-.31,11.36-.56,17.06-.67C283,306.81,283,306.37,282.66,306.34Z" fill="#263238" />
			<path id="Path_1167" data-name="Path 1167" d="M212,209.55c.8,2.61,15.21,23.32,29.19,19.69,5.87-1.52,0-24.22,0-24.22l3.7-24.38-31.44-17S211.66,208.43,212,209.55Z" fill="#eb9481" />
			<path id="Path_1168" data-name="Path 1168" d="M244.86,180.64l-3.6,23.66a48.88,48.88,0,0,1-28.48-23.83c.34-9.12.64-16.85.64-16.85Z" fill="#263238" />
			<path id="Path_1169" data-name="Path 1169" d="M271.58,139c12.32,38.45-9.32,50.18-17.61,52.82-7.53,2.41-33.47,9.64-49.7-27.33S202,109.65,219,103.24,259.26,100.57,271.58,139Z" fill="#eb9481" />
			<path id="Path_1170" data-name="Path 1170" d="M262.73,133.93a26,26,0,0,1-2.79.09,4.53,4.53,0,0,1-2.86-.45,1.43,1.43,0,0,1-.41-1.7,3.56,3.56,0,0,1,3.21-1.65,5.27,5.27,0,0,1,3.63,1,1.53,1.53,0,0,1-.78,2.71Z" fill="#263238" />
			<path id="Path_1171" data-name="Path 1171" d="M235.66,144.34a26.315,26.315,0,0,1,2.51-1.21,4.46,4.46,0,0,1,2.8-.75,1.45,1.45,0,0,1,1.07,1.39,3.56,3.56,0,0,1-2.27,2.8,5.2,5.2,0,0,1-3.74.54,1.53,1.53,0,0,1-.37-2.77Z" fill="#263238" />
			<path id="Path_1172" data-name="Path 1172" d="M244.36,151.23c-.05-.09-.17.18-.14.29.8,2.63,1.27,5.78-.89,7.31-.07,0,0,.18.06.14C246.21,157.77,245.54,153.6,244.36,151.23Z" fill="#263238" />
			<path id="Path_1173" data-name="Path 1173" d="M241.24,149.1c-4.36.83-2.38,9.48,1.66,8.71S244.89,148.41,241.24,149.1Z" fill="#263238" />
			<path id="Path_1174" data-name="Path 1174" d="M239.65,149.94c-.65.67-1.19,1.7-2.08,2s-2-.38-2.92-1.09c-.09-.08-.15,0-.13.13.36,1.66,1.38,3.22,3.22,3.06,1.67-.15,2.5-1.88,2.53-3.64C240.28,150.07,239.91,149.68,239.65,149.94Z" fill="#263238" />
			<path id="Path_1175" data-name="Path 1175" d="M259.84,146.48c0-.1.23.08.25.2.51,2.7,1.55,5.71,4.17,6.07a.075.075,0,0,1,0,.15C261.21,153.14,259.88,149.13,259.84,146.48Z" fill="#263238" />
			<path id="Path_1176" data-name="Path 1176" d="M261.61,143.15c4.25-1.28,6.5,7.31,2.56,8.49S258.06,144.22,261.61,143.15Z" fill="#263238" />
			<path id="Path_1177" data-name="Path 1177" d="M263.55,143.25c.8.28,1.69.93,2.51.77s1.41-1.3,1.78-2.34c0-.11.12-.06.15.06.48,1.63.38,3.48-1.11,4.2s-2.79-.46-3.61-2C263.12,143.66,263.23,143.14,263.55,143.25Z" fill="#263238" />
			<path id="Path_1178" data-name="Path 1178" d="M248.47,172.13c.76.52,1.57,1.27,2.56,1.18a7.39,7.39,0,0,0,2.79-1.21.1.1,0,0,1,.14.12,3.71,3.71,0,0,1-3.17,2.09,2.92,2.92,0,0,1-2.56-2C248.16,172.15,248.36,172.05,248.47,172.13Z" fill="#263238" />
			<path id="Path_1179" data-name="Path 1179" d="M250.09,168.54c4.18-2.43,6.51-2.31,9.28-2.83.28-.14.88-.57.84-.86h0c0-.1-1.91-5.41-1.91-5.41.83.13,5,.61,4.63-.4-3.21-8.33-6.79-17.6-11.76-25.22a.25.25,0,0,0-.44.22c2.77,8.13,7,15.72,9.88,23.85a16,16,0,0,0-4.5.06c-.25.17,2.31,5.62,2.5,6.53,0,0-4.37-.38-9,3.7C248.59,169.07,248.57,169.42,250.09,168.54Z" fill="#263238" />
			<path id="Path_1180" data-name="Path 1180" d="M209.47,167.86c7.55-1.11,4.77-18.34,4.77-18.34s29.62-13.92,25.21-40c0,0,9.82,14.65,28.13,17.42,0,0-8.81-27.45-32.31-26.71,0,0-30.06-2.34-39.38,23.59S204.4,168.61,209.47,167.86Z" fill="#263238" />
			<path id="Path_1181" data-name="Path 1181" d="M239,107.66a28.57,28.57,0,0,1,1.83,11.94,29.9,29.9,0,0,1-3,11.85,24.456,24.456,0,0,1-1.51,2.68l-.79,1.32c-.3.42-.62.82-.94,1.22-.65.8-1.26,1.62-1.94,2.38s-1.46,1.43-2.21,2.13a14.853,14.853,0,0,1-1.12,1l-1.22.91-2.44,1.81c-1.73,1-3.51,2-5.29,2.91,1.57-1.27,3.24-2.37,4.76-3.64l2.23-2,1.11-1c.34-.35.66-.73,1-1.1.65-.73,1.31-1.46,2-2.17a21.937,21.937,0,0,0,1.74-2.35l.87-1.18.73-1.26a23.569,23.569,0,0,0,1.4-2.56,34.1,34.1,0,0,0,3.27-11.17,36.269,36.269,0,0,0,.24-5.9,35,35,0,0,0-.72-5.82Z" fill="#263238" />
			<path id="Path_1182" data-name="Path 1182" d="M214.58,162.75s-11.38-10.33-16.26-6,5.63,20.68,12.73,21.63a6.83,6.83,0,0,0,8.11-5.61Z" fill="#eb9481" />
			<path id="Path_1183" data-name="Path 1183" d="M201.45,161.36a.1.1,0,0,0,0,.19c5,.81,8.4,4.52,11.1,8.55-1.75-1.39-3.83-1.9-5.73.24-.1.11.06.28.18.22a4.21,4.21,0,0,1,4.83.4,20.83,20.83,0,0,1,3,3.16c.31.36,1,0,.73-.46l-.06-.1C214.28,167.68,207.87,160.52,201.45,161.36Z" fill="#263238" />
			<path id="Path_1184" data-name="Path 1184" d="M208.35,208.26s11.62,25.51,15.11,28.32,31.5-.63,32-3S242,208.12,242,208.12s-10.82-4.57-19.87-4.34C212.77,204,208.35,208.26,208.35,208.26Z" fill="#eb9481" />
			<path id="Path_1185" data-name="Path 1185" d="M349.37,333.38c-7.87,11.9-23.33,16.77-78.53,29.05-7.63,1.69-39.36-45.79-32.09-49.93,9.67-5.52,51.69-14.26,54.69-14.52C318.81,295.72,354.71,325.32,349.37,333.38Z" fill="#eb9481" />
			<path id="Path_1186" data-name="Path 1186" d="M245.35,309.85s-23.23,8.72-34,17.09c-14.44,11.19-22.3,26.8-25.19,33.55-6.05,14.07-11,52.27-.19,55.6,9.74,3,12.77-36.29,12.77-36.29s-9.71,39.57,2.69,41,13.31-44.35,13.31-44.35-9.06,40.87,4,40.37c9.84-.38,13-41.84,13-41.84s-7.54,35.19,2.59,35.23c11.2.05,16.53-38,16.53-38,25.79-4.22,36.34-16.78,42.78-26.61C295.17,343.24,245.35,309.85,245.35,309.85Z" fill="#eb9481" />
			<path id="Path_1187" data-name="Path 1187" d="M201.21,365.9c-1.31,4.61-2.67,9.26-3.56,14s-1.62,9.45-2.08,14.22c-1.1,11.69,0,19.19,0,18.72-.46-11.13,2.48-28,3.37-32.74s1.55-9.44,2.44-14.14C201.41,365.81,201.24,365.79,201.21,365.9Z" fill="#263238" />
			<path id="Path_1188" data-name="Path 1188" d="M218.26,368.82c-1.41,6-3,11.81-4.19,17.83s-1.71,11.77-2.44,17.83c-.06.46.21.34.28-.13,1-6,2.34-11.5,3.38-17.51s1.86-12,3.12-18C218.43,368.75,218.28,368.73,218.26,368.82Z" fill="#263238" />
			<path id="Path_1189" data-name="Path 1189" d="M233.35,368.7c-2.63,9-3.6,18.45-4.33,27.75,0,.47.3.27.36-.2,1.27-9.26,2.19-16.53,4.28-27.46C233.7,368.62,233.4,368.51,233.35,368.7Z" fill="#263238" />
			<path id="Path_1190" data-name="Path 1190" d="M245.82,306.48,296.37,360s48.85-12.53,55.77-25.32c4.56-8.42-33.33-41-61.16-36.33Z" fill="#0dbdb8" />
			<path id="Path_1191" data-name="Path 1191" d="M256.09,317.33l-1.62-1.7A4.48,4.48,0,0,1,256.09,317.33Zm28.78-2.39a4.57,4.57,0,1,0,3.238,1.335,4.58,4.58,0,0,0-3.238-1.335Zm32.81,0a4.57,4.57,0,1,0,3.238,1.335,4.58,4.58,0,0,0-3.238-1.335Zm-19.12-17a4.53,4.53,0,0,0,2.72.9,4.58,4.58,0,0,0,1.89-.41,43.225,43.225,0,0,0-4.61-.51Zm2.72,43.62a1.9,1.9,0,1,0,0-.02Zm32.81,0a4.58,4.58,0,0,0-3.75,7.21c2.85-1.18,5.62-2.43,8.19-3.72a4.56,4.56,0,0,0-4.44-3.51Z" fill="#fff" />
			<path id="Path_1192" data-name="Path 1192" d="M309.42,350.57c-5.18-6.11-10.68-11.93-16.21-17.75s-11-11.64-16.71-17.32c-3.2-3.2-6.38-6.43-9.7-9.53-.09-.08-.24,0-.16.14,5.17,6.1,10.66,12,16.13,17.8s11,11.65,16.64,17.39c3.17,3.25,6.39,6.43,9.71,9.53C309.28,351,309.58,350.75,309.42,350.57Z" fill="#263238" />
			<path id="Path_1193" data-name="Path 1193" d="M247.25,308l-2.08-1.55-.24-.18c6.32-1.79,12.69-3.42,19.11-4.81,11.09-2.27,22.34-4.71,33.71-4.63a51.83,51.83,0,0,1,23.12,7.29,62,62,0,0,0-23.16-5.56,105.648,105.648,0,0,0-14.29,1.36c-11.08,1.59-26.93,4.6-38.11,6.57l.06-.27,1.88,1.78Z" fill="#263238" />
			<path id="Path_1194" data-name="Path 1194" d="M194.26,247.07c3.7,60,18.94,105.93,44.16,105.58,16.76-.23,5.11-49.67,4.92-50.74a261.921,261.921,0,0,0-23.81-65.38C201.23,201.91,192.61,220.26,194.26,247.07Z" fill="#eb9481" />
			<path id="Path_1195" data-name="Path 1195" d="M194.26,247.07c3.7,60,18.94,105.93,44.16,105.58,16.76-.23,12.7-42.8,12.5-43.86-.68-3.64-14.75-40.79-31.39-72.26C201.23,201.91,192.61,220.26,194.26,247.07Z" fill="#0dbdb8" />
			<path id="Path_1196" data-name="Path 1196" d="M223.83,267.63a4.58,4.58,0,1,1-4.58-4.57,4.58,4.58,0,0,1,4.58,4.57Zm-21-29.85a4.567,4.567,0,1,0,.02,0Zm16.4,77.16a4.6,4.6,0,1,0,.02,0Zm32.11.06a4.57,4.57,0,0,0,.09,9.05c.11-3.37.05-6.51-.07-9.05Zm-48.51-25.34a4.6,4.6,0,0,0-3.28,1.38q.74,3.81,1.55,7.44a4.52,4.52,0,0,0,1.73.34,4.58,4.58,0,0,0,0-9.16Zm32.81,0a4.56,4.56,0,1,0,.02,0Zm0,51.88a4.567,4.567,0,1,0,.02,0Z" fill="#fff" />
			<path id="Path_1197" data-name="Path 1197" d="M221.59,240.53c5.4,10.55,10.39,21.3,15.28,32.09,4.71,10.87,9.63,21.7,13.13,33C241.41,284,230.7,262,221.59,240.53Z" fill="#263238" />
			<path id="Path_1198" data-name="Path 1198" d="M225.05,242.83c1.47,3,2.61,6.4,2.16,9.76C226.63,249.34,225.53,246.12,225.05,242.83Z" fill="#263238" />
			<path id="Path_1199" data-name="Path 1199" d="M247.46,349.07c15.46-3.95,37.75-41.83,50.12-83.87,2.36-8-60.44-33.3-62-24.51-4.91,28.2-16.26,65.56-13.63,87.68C224,345.56,236.76,351.8,247.46,349.07Z" fill="#eb9481" />
			<path id="Path_1200" data-name="Path 1200" d="M262,208.71c-4.26-4.29-6.11-17.28-10.28-24.64s-14.51-10-16-7,1.4,5.59,3.45,18.14c1.31,8.08-3.32,24.92.77,39.4C242,241.91,266.27,213,262,208.71Z" fill="#f7a9a0" />
			<path id="Path_1201" data-name="Path 1201" d="M262,208.71c-4.26-4.29-6.11-17.28-10.28-24.64s-14.51-10-16-7,1.4,5.59,3.45,18.14c1.31,8.08-3.32,24.92.77,39.4C242,241.91,266.27,213,262,208.71Z" fill="#eb9481" />
			<path id="Path_1202" data-name="Path 1202" d="M262,208.71c-4.26-4.29-6.11-17.28-10.28-24.64s-14.51-10-16-7,1.4,5.59,3.45,18.14c1.31,8.08-3.32,24.92.77,39.4C242,241.91,266.27,213,262,208.71Z" opacity="0.06" />
			<path id="Path_1203" data-name="Path 1203" d="M287.84,166.14c5.82,4.45-6.39,17.86-6.39,17.86a13.54,13.54,0,0,1,9.2.17c5.1,2.23,3.85,11.21,3.85,11.21a16.64,16.64,0,0,1,9.67,1.71c4.67,2.63,4.69,11.87,4.69,11.87a14.66,14.66,0,0,1,7.56,6.87c4,8.51-4.74,20-8.72,28.24-4.27,8.78-9.63,19.69-12.78,25.15l-60-23.51s5.53-44.67,12.56-52.9C253.42,185.87,279,159.32,287.84,166.14Z" fill="#eb9481" />
			<path id="Path_1204" data-name="Path 1204" d="M281.2,184c-8.07,5.86-14.72,13.65-21.05,21.23-.14.17.13.39.27.22,6.21-7.62,14.6-13.75,21.1-21.11C281.7,184.14,281.41,183.84,281.2,184Z" fill="#263238" />
			<path id="Path_1205" data-name="Path 1205" d="M293.75,195.13a25.8,25.8,0,0,0-4.46,5.14c-1.45,1.92-2.86,3.87-4.25,5.84-2.77,3.95-5.46,8-8,12-.12.19.13.4.26.22,2.77-3.93,5.6-7.81,8.54-11.62q2.21-2.87,4.45-5.68a31.621,31.621,0,0,0,4-5.52.35.35,0,0,0-.54-.38Z" fill="#263238" />
			<path id="Path_1206" data-name="Path 1206" d="M308.74,209.12c-1.6,1.14-2.68,3.24-3.76,4.84-1.23,1.83-2.47,3.64-3.71,5.45-2.5,3.63-5,7.24-7.61,10.78-.13.17.13.39.27.21,2.67-3.57,5.4-7.11,8.05-10.71q1.95-2.66,3.87-5.32c1.09-1.51,2.62-3.28,3.08-5.13a.13.13,0,0,0-.19-.12Z" fill="#263238" />
			<path id="Path_1207" data-name="Path 1207" d="M274.45,168.66c-7,5.12-13.25,11.25-19.54,17.2a92.522,92.522,0,0,0-6.71,7,30.65,30.65,0,0,0-4.38,8.51c-.79,2-1.43,4.1-2.06,6.19,1-5.31,2.21-11,5.48-15.45a73.137,73.137,0,0,1,6.69-7.27c6.36-5.94,12.87-12,20.52-16.2Z" fill="#263238" />
			<path id="Path_1208" data-name="Path 1208" d="M224.85,257.86,286.26,302s-24.92,50.69-38.8,51.09-29.72-7.06-31.85-40.32C215.07,304.47,224.85,257.86,224.85,257.86Z" fill="#0dbdb8" />
			<path id="Path_1209" data-name="Path 1209" d="M223.83,267.63a4.58,4.58,0,0,1-1.68,3.55c.41-2.08.8-4,1.14-5.71a4.64,4.64,0,0,1,.54,2.16Zm-4.58,47.31a4.53,4.53,0,0,0-3.34,1.46c.24,2.5.58,4.84,1,7a4.47,4.47,0,0,0,2.35.66,4.58,4.58,0,1,0,0-9.15Zm32.81,0a4.57,4.57,0,1,0,3.238,1.335,4.58,4.58,0,0,0-3.238-1.335Zm-16.4-25.28a4.58,4.58,0,1,0,4.57,4.58,4.58,4.58,0,0,0-4.57-4.58Zm36.89,2.51-3.42-2.46a4.891,4.891,0,0,0-.66,0,4.58,4.58,0,1,0,4.58,4.58,4.52,4.52,0,0,0-.5-2.12Zm-36.89,49.37a4.58,4.58,0,1,0,4.57,4.58,4.58,4.58,0,0,0-4.57-4.58Z" fill="#fff" />
			<path id="Path_1210" data-name="Path 1210" d="M226.23,278.47c3,2,5.82,4.34,8.69,6.55s5.72,4.46,8.54,6.74q8.46,6.83,16.81,13.8c1.52,1.28,3,2.55,4.53,3.86s3,3,4.64,4.36a.13.13,0,0,1-.16.2c-1.41-1.09-3-2-4.4-3.06s-2.94-2.24-4.39-3.39q-4.26-3.37-8.49-6.79c-5.65-4.54-11.27-9.13-16.76-13.86-3.1-2.67-6.31-5.28-9.25-8.13a.184.184,0,0,1,.24-.28Z" fill="#263238" />
			<path id="Path_1211" data-name="Path 1211" d="M231.81,262.86,224.74,258l.31-.12c-2,12-4.27,24-6.35,36a156.765,156.765,0,0,0-2.18,15.7,83.74,83.74,0,0,0,1.91,20.3,63.7,63.7,0,0,1-3.54-20.32c.49-11.49,3.06-22.77,5.38-34q2-9.07,4.47-18.06l.23.17,6.84,5.17Z" fill="#263238" />
			<path id="Path_1212" data-name="Path 1212" d="M284.42,300.67l1.87,1.32h0c-3.37,7.26-7.1,14.34-11.1,21.28-6.27,10.17-12.45,21-22.25,28.31-3.34,2.51-7.78,3-11.88,3.08a27.15,27.15,0,0,1-12-2.36c-11.33-5.43-17-17.67-21-28.88-5.18-15.18-8.3-30.89-11.23-46.61-1.35-7.87-2.66-15.74-3.67-23.66,1.46,7.84,2.95,15.68,4.63,23.47,3.29,15.56,6.81,31.17,12,46.19,3.94,10.72,9.42,22.45,20.1,27.76a25.45,25.45,0,0,0,11.21,2.27c3.8-.13,7.73-.35,10.94-2.71,9.56-7.06,16-17.49,22.34-27.39,4.21-6.64,8.2-14,11.88-20.68l-1.81-1.41Z" fill="#263238" />
			<path id="Path_1213" data-name="Path 1213" d="M191.67,258.63s-.6,2.84,3.42,7.82" fill="#263238" />
		</g>
		<g id="freepik--Table--inject-6">
			<path id="Path_1214" data-name="Path 1214" d="M51.68,462.07c127.06-.61,269.58-.62,396.64,0-127.06.62-269.58.61-396.64,0Z" fill="#263238" />
		</g>
		<g id="freepik--speech-bubble--inject-6">
			<path id="Path_1215" data-name="Path 1215" d="M274.13,111.73a4.51,4.51,0,1,0,4.51-4.51,4.51,4.51,0,0,0-4.51,4.51Z" fill="#fff" />
			<path id="Path_1216" data-name="Path 1216" d="M274.13,111.73a4.26,4.26,0,1,0,4.26-4.26A4.26,4.26,0,0,0,274.13,111.73Zm0,0c.18-6.28,9.31-6.33,9.52,0C283.44,118.05,274.31,118,274.13,111.73Z" fill="#263238" />
			<circle id="Ellipse_39" data-name="Ellipse 39" cx="6.49" cy="6.49" r="6.49" transform="translate(288.25 101.53)" fill="#fff" />
			<path id="Path_1217" data-name="Path 1217" d="M288.25,108c-.08,5.58,7.06,8.39,10.78,4.29a6.26,6.26,0,0,0,0-8.58C295.31,99.62,288.17,102.42,288.25,108Zm0,0a6.77,6.77,0,1,1,4.094,6.171A6.75,6.75,0,0,1,288.25,108Z" fill="#263238" />
			<ellipse id="Ellipse_40" data-name="Ellipse 40" cx="51.86" cy="38.61" rx="51.86" ry="38.61" transform="translate(301.25 46.07)" fill="#fff" />
			<path id="Path_1218" data-name="Path 1218" d="M302.67,75.71c-6,18.53,7.7,35.34,24.24,42.13a67.17,67.17,0,0,0,51.94-.11c10.71-4.59,20.58-12.87,24.22-24.23,7.71-25.62-18.13-43.87-40.9-46.57C339.52,43.73,310.95,52.36,302.67,75.71Zm0,0c8.25-23.42,36.79-32.19,59.57-29.28C374.06,48,385.8,52.5,394.51,60.84,403.36,69,408,82.1,404,93.81c-10.46,29.2-51.56,36-77.23,24.32-16.48-7-30.2-23.86-24.12-42.42Z" fill="#263238" />
		</g>
		<g id="freepik--Symbol--inject-6">
			<path id="Path_1219" data-name="Path 1219" d="M355.14,87.77v3.81a2.8,2.8,0,0,1-2.87,2.88,2.88,2.88,0,0,1-2.87-2.88v-6.1c0-.06.06-.06.06-.11s-.06-.06-.06-.12a3,3,0,0,1,2.87-2.88,6.57,6.57,0,1,0,0-13.14,6.46,6.46,0,0,0-5.63,3.23,2.88,2.88,0,0,1-4,1.05,2.85,2.85,0,0,1-1-3.92,12.33,12.33,0,1,1,13.49,18.18Zm0,12.85v1a2.8,2.8,0,0,1-2.87,2.88,2.88,2.88,0,0,1-2.87-2.88v-1a2.92,2.92,0,0,1,2.87-2.88,2.84,2.84,0,0,1,2.87,2.88Z" fill="#0dbdb8" />
		</g>
	</g>
</svg>
