<svg xmlns="http://www.w3.org/2000/svg" width="124" height="125" viewBox="0 0 124 125">
	<path id="Path_394" data-name="Path 394" d="M62,0c34.242,0,62,27.982,62,62.5S96.242,125,62,125,0,97.018,0,62.5,27.758,0,62,0Z" fill="#0dbdb8" />
	<path id="Icon_ionic-ios-lock" data-name="Icon ionic-ios-lock" d="M39.519,20.228H36.71V14.763a11.236,11.236,0,1,0-22.47-.152v5.618H11.431A4.7,4.7,0,0,0,6.75,24.909v22.47a4.7,4.7,0,0,0,4.681,4.681H39.519A4.7,4.7,0,0,0,44.2,47.379V24.909A4.7,4.7,0,0,0,39.519,20.228ZM27.114,34.833v8.052a1.678,1.678,0,0,1-1.557,1.685,1.64,1.64,0,0,1-1.72-1.638v-8.1a3.745,3.745,0,1,1,3.277,0Zm6.32-14.606H17.517V14.61a7.958,7.958,0,0,1,15.916,0Z" transform="translate(36.525 34.47)" fill="#fff" />
</svg>
