<svg xmlns="http://www.w3.org/2000/svg" width="32.828" height="32.878" viewBox="0 0 32.828 32.878">
	<g id="Group_77" data-name="Group 77" transform="translate(0.5 0.5)">
		<path id="Vector" d="M8.174,16.345A8.172,8.172,0,0,1,2.394,2.394,8.173,8.173,0,0,1,13.953,13.953,8.127,8.127,0,0,1,8.174,16.345Zm0-13.483A5.275,5.275,0,0,0,4.419,4.416a5.308,5.308,0,0,0,0,7.51A5.31,5.31,0,1,0,8.174,2.862Z" transform="translate(7.729 7.728)" fill="#fff" stroke="#fff" stroke-width="1" />
		<path id="Vector-2" data-name="Vector" d="M1.905,3.811A1.905,1.905,0,1,1,3.811,1.905,1.905,1.905,0,0,1,1.905,3.811Z" transform="translate(22.494 5.522)" fill="#fff" stroke="#fff" stroke-width="1" />
		<path id="Vector-3" data-name="Vector" d="M15.915,31.878c-4.306,0-4.871-.025-6.546-.1a11.636,11.636,0,0,1-3.874-.8A8.142,8.142,0,0,1,.84,26.333,11.679,11.679,0,0,1,.1,22.468C0,20.778,0,20.224,0,15.91s.025-4.87.1-6.543V9.353A11.589,11.589,0,0,1,.84,5.49,8.111,8.111,0,0,1,5.493.838,11.582,11.582,0,0,1,9.353.1C11.041,0,11.6,0,15.91,0c4.361,0,4.87.022,6.557.1a11.6,11.6,0,0,1,3.865.742A8.147,8.147,0,0,1,30.985,5.49a11.6,11.6,0,0,1,.745,3.917c.1,1.693.1,2.246.1,6.558,0,4.38-.023,4.885-.1,6.558a11.673,11.673,0,0,1-.74,3.865,8.16,8.16,0,0,1-4.655,4.653,11.646,11.646,0,0,1-3.862.74C20.785,31.878,20.231,31.878,15.915,31.878ZM15.848,2.8c-4.309,0-4.765.021-6.462.1a8.845,8.845,0,0,0-2.948.549A5.289,5.289,0,0,0,3.4,6.472,8.807,8.807,0,0,0,2.85,9.453c-.1,1.712-.1,2.161-.1,6.46,0,4.359.02,4.8.1,6.457A8.874,8.874,0,0,0,3.4,25.321a5.213,5.213,0,0,0,1.2,1.836,5.3,5.3,0,0,0,1.841,1.189,8.727,8.727,0,0,0,2.948.549c1.712.1,2.161.1,6.462.1,4.372,0,4.814-.021,6.457-.1a8.734,8.734,0,0,0,2.951-.549,5.277,5.277,0,0,0,3.027-3.025,8.813,8.813,0,0,0,.549-2.984l.02,0c.076-1.69.076-2.141.076-6.457,0-4.358-.02-4.8-.1-6.462a8.93,8.93,0,0,0-.549-2.948A5.216,5.216,0,0,0,27.09,4.638a5.319,5.319,0,0,0-1.833-1.194A8.733,8.733,0,0,0,22.306,2.9C20.6,2.8,20.147,2.8,15.848,2.8Z" transform="translate(0)" fill="#fff" stroke="#fff" stroke-width="1" />
	</g>
</svg>
