<svg xmlns="http://www.w3.org/2000/svg" width="85.298" height="51.094" viewBox="0 0 85.298 51.094">
	<path id="Icon_payment-mastercard-alt" data-name="Icon payment-mastercard-alt" d="M90.418,41.9a25.542,25.542,0,0,0-3.378-12.879,29.338,29.338,0,0,0-9.29-9.29A27.122,27.122,0,0,0,64.871,16.35a24.367,24.367,0,0,0-15.413,5.278,25.674,25.674,0,0,1,8.023,13.3H55.158a24.319,24.319,0,0,0-7.389-12.035A24.293,24.293,0,0,0,40.38,34.929H38.057a25.655,25.655,0,0,1,8.023-13.3A24.382,24.382,0,0,0,30.667,16.35a27.106,27.106,0,0,0-12.879,3.378,29.3,29.3,0,0,0-9.29,9.29,26.237,26.237,0,0,0,0,25.757,29.266,29.266,0,0,0,9.29,9.29,27.074,27.074,0,0,0,12.879,3.378A24.367,24.367,0,0,0,46.08,62.165,26.61,26.61,0,0,1,38.267,49.92H40.59A25.694,25.694,0,0,0,47.769,60.9,25.731,25.731,0,0,0,54.947,49.92H57.27a26.673,26.673,0,0,1-7.812,12.245,24.348,24.348,0,0,0,15.413,5.278,27.083,27.083,0,0,0,12.879-3.378,29.307,29.307,0,0,0,9.29-9.29A25.546,25.546,0,0,0,90.418,41.9ZM16.311,35.773h4.012L18.211,48.019H15.678l1.478-9.29-3.378,9.29h-1.9v-9.29l-1.689,9.29H7.654L9.766,35.773h3.8v7.6Zm11.823,5.067a10.012,10.012,0,0,1-.212,1.9c-.141.986-.285,1.9-.422,2.745a14.137,14.137,0,0,1-.422,1.9v.634H24.967V46.965a3.058,3.058,0,0,1-2.745,1.267,2.279,2.279,0,0,1-1.689-.634,3.418,3.418,0,0,1-.634-2.111,3.3,3.3,0,0,1,1.056-2.745,6.009,6.009,0,0,1,3.589-1.056H25.6v-.636c0-.561-.564-.844-1.689-.844a11.859,11.859,0,0,0-2.745.422c.137-.561.281-1.267.422-2.111a8.6,8.6,0,0,1,2.956-.634q3.59,0,3.59,2.956Zm-2.955,2.745h-.634c-1.408,0-2.111.5-2.111,1.478,0,.706.281,1.056.844,1.056a1.43,1.43,0,0,0,1.267-.634A2.58,2.58,0,0,0,25.179,43.586ZM35.524,38.1,35.1,40.419a6.5,6.5,0,0,0-1.9-.211c-.845,0-1.267.284-1.267.844a.848.848,0,0,0,.212.634l.844.422a3.125,3.125,0,0,1,1.9,2.745q0,3.38-4.012,3.378a12.473,12.473,0,0,1-2.745-.212c.137-.561.281-1.337.422-2.323a11.439,11.439,0,0,0,2.323.422c.982,0,1.478-.281,1.478-.844a.876.876,0,0,0-.212-.634,2.7,2.7,0,0,0-1.056-.634,2.842,2.842,0,0,1-1.9-2.745q0-3.374,3.8-3.378a9.836,9.836,0,0,1,2.535.213Zm4.011,0H40.8l-.212,2.533H39.113a7.97,7.97,0,0,1-.212,1.9,6.6,6.6,0,0,1-.105.844,1.665,1.665,0,0,1-.317.844v.844a.745.745,0,0,0,.844.844,1.866,1.866,0,0,0,.844-.212l-.422,2.323a6.394,6.394,0,0,1-1.9.212,1.866,1.866,0,0,1-2.111-2.111,9.9,9.9,0,0,1,.422-2.745l1.056-6.757h2.533l-.209,1.48Zm9.5,3.378a13.317,13.317,0,0,1-.212,2.533H43.547a2.038,2.038,0,0,0,.422,1.478,2.581,2.581,0,0,0,1.9.634,5.594,5.594,0,0,0,2.745-.844l-.422,2.533a7.459,7.459,0,0,1-2.745.422q-4.435,0-4.434-4.434a6.308,6.308,0,0,1,1.267-4.222,3.824,3.824,0,0,1,3.167-1.689,3.723,3.723,0,0,1,2.745,1.056,3.463,3.463,0,0,1,.844,2.534Zm-5.279.422h2.956v-.634l-.212-.422a.626.626,0,0,0-.212-.422.6.6,0,0,1-.422-.211h-.422q-1.266,0-1.689,1.689Zm11.824-3.8a15.731,15.731,0,0,0-1.056,2.956c-.564-.138-1.056.211-1.478,1.056a41.565,41.565,0,0,0-1.056,5.911H49.248l.212-.634q.84-5.907,1.267-9.29h2.533l-.212,1.478a2.7,2.7,0,0,1,1.267-1.267.919.919,0,0,1,1.266-.21Zm8.867-1.9-.422,2.533A5.26,5.26,0,0,0,61.7,38.1a2.832,2.832,0,0,0-2.533,1.267,5.41,5.41,0,0,0-.844,3.378,2.912,2.912,0,0,0,.634,2.111,2,2,0,0,0,1.689.844,5.264,5.264,0,0,0,2.323-.634l-.422,2.745a5.245,5.245,0,0,1-2.323.422,4.224,4.224,0,0,1-3.378-1.478,5.163,5.163,0,0,1-1.267-3.8,8.164,8.164,0,0,1,1.689-5.278,4.846,4.846,0,0,1,4.222-2.111,10.167,10.167,0,0,1,2.955.634Zm7.6,4.645a6.631,6.631,0,0,1-.105.844,6.278,6.278,0,0,0-.105,1.056c-.141.706-.285,1.656-.422,2.85a14.915,14.915,0,0,1-.422,2.428H68.883V46.963a3.058,3.058,0,0,1-2.745,1.267,2.279,2.279,0,0,1-1.689-.634,3.418,3.418,0,0,1-.634-2.111,3.3,3.3,0,0,1,1.056-2.745,5.664,5.664,0,0,1,3.378-1.056h1.056a.868.868,0,0,0,.212-.634c0-.561-.564-.844-1.689-.844a11.859,11.859,0,0,0-2.745.422,6.843,6.843,0,0,1,.422-2.111,8.6,8.6,0,0,1,2.956-.634q3.587,0,3.588,2.956Zm-2.955,2.745H68.46c-1.408,0-2.111.5-2.111,1.478,0,.706.281,1.056.844,1.056a1.43,1.43,0,0,0,1.267-.634A2.58,2.58,0,0,0,69.093,43.586Zm9.5-5.489a5.624,5.624,0,0,0-1.056,2.956c-.564-.138-1.056.211-1.478,1.056A42.546,42.546,0,0,0,75,48.02H72.26l.212-.634q.836-4.615,1.267-9.29h2.533a4.75,4.75,0,0,1-.212,1.478,2.7,2.7,0,0,1,1.267-1.267,1.51,1.51,0,0,1,1.266-.21Zm6.545-2.323h2.745L85.773,48.02H83.239l.212-.844a2.811,2.811,0,0,1-2.323,1.056,2.473,2.473,0,0,1-2.323-1.056,5.035,5.035,0,0,1-1.056-2.956,6.494,6.494,0,0,1,1.478-4.434A3.31,3.31,0,0,1,82.184,38.1a3.647,3.647,0,0,1,2.533,1.267l.422-3.59Zm-1.056,6.545c0-1.267-.5-1.9-1.478-1.9a1.781,1.781,0,0,0-1.478,1.056,4.464,4.464,0,0,0-.422,2.323q0,1.9,1.267,1.9a1.829,1.829,0,0,0,1.478-.844,4.193,4.193,0,0,0,.632-2.534Z" transform="translate(-5.12 -16.35)" fill="#fff" />
</svg>
