<svg xmlns="http://www.w3.org/2000/svg" width="35.136" height="35.137" viewBox="0 0 35.136 35.137">
	<path id="Icon_awesome-phone-alt" data-name="Icon awesome-phone-alt" d="M34.134,24.829l-7.686-3.294a1.647,1.647,0,0,0-1.922.474l-3.4,4.159a25.437,25.437,0,0,1-12.16-12.16l4.159-3.4a1.643,1.643,0,0,0,.474-1.922L10.3,1A1.658,1.658,0,0,0,8.413.042L1.276,1.689A1.647,1.647,0,0,0,0,3.294,31.839,31.839,0,0,0,31.842,35.136a1.647,1.647,0,0,0,1.606-1.276L35.1,26.723A1.667,1.667,0,0,0,34.134,24.829Z" fill="#0dbdb8" />
</svg>
