<svg xmlns="http://www.w3.org/2000/svg" width="617.422" height="559.996" viewBox="0 0 617.422 559.996">
	<g id="Private_data-amico" data-name="Private data-amico" transform="translate(-6.285 -53.65)">
		<g id="freepik--Floor--inject-3" transform="translate(6.285 257.094)">
			<path id="freepik--floor--inject-3-2" data-name="freepik--floor--inject-3" d="M96.708,518.584c-120.564-69.605-120.564-182.4,0-252.073s316.029-69.668,436.58,0,120.564,182.4,0,252.073S217.26,588.189,96.708,518.584Z" transform="translate(-6.285 -214.26)" fill="#f5f5f5" />
		</g>
		<g id="freepik--Shadows--inject-3" transform="translate(147.065 388.654)">
			<path id="freepik--Shadow--inject-3" d="M129.984,472.322l-11.831-6.827a1.051,1.051,0,0,1,0-2l85.109-49.135a1.887,1.887,0,0,0,.633-2.673,20.761,20.761,0,0,1-3.04-14.06c1.127-7.714,6.777-14.858,15.91-20.128,9.868-5.7,22.915-8.867,36.734-8.867s26.867,3.129,36.734,8.867c10.412,6,16.15,14.187,16.15,23.041s-5.725,17.037-16.15,23.054c-9.842,5.687-22.877,8.867-36.734,8.867a86.062,86.062,0,0,1-16.606-1.571,6.08,6.08,0,0,0-3.686.6l-13.262,7.6a5.978,5.978,0,0,1-3.686.557l-8.943-2.027a5.991,5.991,0,0,0-3.686.557l-2.7,1.558a4.1,4.1,0,0,0-1.824,3l-.291,6.6a4.066,4.066,0,0,1-1.824,3L193.6,454.3a10.817,10.817,0,0,1-3.737,1.178l-7.9.7a11.031,11.031,0,0,0-3.737,1.14l-3.255,1.824a3.179,3.179,0,0,0-1.495,2.964l.2,1.571a3.23,3.23,0,0,1-1.482,2.977l-9.83,5.675a8.69,8.69,0,0,1-3.737,1h-24.9a8.69,8.69,0,0,1-3.737-1Zm136.55-84.59a17.265,17.265,0,0,0-8.348,1.951c-1.571.912-2.533,2.014-2.533,2.964s.95,2.065,2.533,2.977a18.836,18.836,0,0,0,16.7,0c1.571-.912,2.533-2.027,2.533-2.977s-.95-2.052-2.533-2.964A17.227,17.227,0,0,0,266.535,387.732Z" transform="translate(-117.425 -304.649)" fill="#e0e0e0" />
			<ellipse id="freepik--shadow--inject-3-2" data-name="freepik--shadow--inject-3" cx="103.261" cy="59.611" rx="103.261" ry="59.611" transform="translate(223.82 0)" fill="#e0e0e0" />
		</g>
		<g id="freepik--Gears--inject-3" transform="translate(434.89 103.305)">
			<g id="freepik--gears--inject-3-2" data-name="freepik--gears--inject-3">
				<g id="freepik--Gear--inject-3" transform="translate(11.426)">
					<path id="Path_1870" data-name="Path 1870" d="M390,151.739l-4.345-6.511a1.064,1.064,0,0,0-.722-.355,12.564,12.564,0,0,1-2.939-.291.133.133,0,0,0-.2.114l-.57,5.7a.9.9,0,0,1-1.419.722l-5.865-3.382a2.065,2.065,0,0,1-.937-1.469l-.583-6.523a1.66,1.66,0,0,0-.456-.9,36.368,36.368,0,0,1-3.306-3.5.608.608,0,0,0-.621-.177l-3.8,1.267a1.393,1.393,0,0,1-1.634-.6l-4.307-7.474a1.393,1.393,0,0,1,.291-1.71l3.015-2.533a.684.684,0,0,0,.165-.633,34.617,34.617,0,0,1-1.381-4.611,1.748,1.748,0,0,0-.557-.849l-5.358-3.8a2.077,2.077,0,0,1-.8-1.545V105.91a.937.937,0,0,1,.418-.823.925.925,0,0,1,.925,0l5.219,2.356h.127c.038,0,0,0,.089-.114a11.9,11.9,0,0,1,1.267-2.7.988.988,0,0,0,0-.8l-3.433-6.992a1.267,1.267,0,0,1,.494-1.647l3.8-2.179a1.267,1.267,0,0,1,1.672.393l4.332,6.524a1.077,1.077,0,0,0,.735.355,12.4,12.4,0,0,1,2.926.291.2.2,0,0,0,.152,0,.127.127,0,0,0,0-.114l.583-5.7a.9.9,0,0,1,1.419-.722l5.865,3.382a2.052,2.052,0,0,1,.937,1.457l.583,6.524a1.736,1.736,0,0,0,.456.912,36.368,36.368,0,0,1,3.306,3.5.659.659,0,0,0,.621.177l3.8-1.267a1.419,1.419,0,0,1,1.634.608l4.307,7.461a1.406,1.406,0,0,1-.291,1.723l-3.027,2.533a.646.646,0,0,0-.152.633,37.071,37.071,0,0,1,1.381,4.6,1.647,1.647,0,0,0,.557.849l5.346,3.8a2.064,2.064,0,0,1,.811,1.545v6.764a.976.976,0,0,1-.418.836.988.988,0,0,1-.925,0l-5.219-2.356a.152.152,0,0,0-.127,0,.19.19,0,0,0-.089.127,12.379,12.379,0,0,1-1.267,2.685,1.013,1.013,0,0,0,0,.811l3.471,7a1.267,1.267,0,0,1-.494,1.647l-3.8,2.179a1.219,1.219,0,0,1-1.659-.431Zm4.345-14.922,5.206,2.356v-6.764a1.089,1.089,0,0,0-.393-.76l-5.358-3.8a2.609,2.609,0,0,1-.937-1.419,35.224,35.224,0,0,0-1.343-4.484,1.609,1.609,0,0,1,.431-1.685l3.027-2.609a.443.443,0,0,0,.076-.507l-4.307-7.461a.431.431,0,0,0-.481-.177l-3.8,1.267a1.6,1.6,0,0,1-1.685-.469,34.2,34.2,0,0,0-3.2-3.395,2.634,2.634,0,0,1-.76-1.533l-.6-6.523a1.089,1.089,0,0,0-.456-.722l-5.852-3.382-.57,5.687a1.1,1.1,0,0,1-.456.8,1.14,1.14,0,0,1-.912.177,11.236,11.236,0,0,0-2.7-.279,1.887,1.887,0,0,1-1.558-.773l-4.332-6.524a.3.3,0,0,0-.393-.089l-3.8,2.179a.3.3,0,0,0-.127.393l3.483,7a1.951,1.951,0,0,1-.1,1.735,11.111,11.111,0,0,0-1.115,2.533,1.153,1.153,0,0,1-.608.7,1.089,1.089,0,0,1-.912,0l-5.206-2.356v6.777a1.115,1.115,0,0,0,.393.76l5.358,3.8a2.685,2.685,0,0,1,.937,1.431,35.125,35.125,0,0,0,1.33,4.484,1.571,1.571,0,0,1-.418,1.685l-3.027,2.6a.469.469,0,0,0-.089.519l4.319,7.461a.431.431,0,0,0,.481.177l3.8-1.267a1.609,1.609,0,0,1,1.672.481,35.821,35.821,0,0,0,3.217,3.395,2.724,2.724,0,0,1,.76,1.533l.583,6.511a1.089,1.089,0,0,0,.469.722l5.852,3.395.57-5.7a1.1,1.1,0,0,1,.443-.785,1.127,1.127,0,0,1,.925-.177,11.172,11.172,0,0,0,2.7.279,1.849,1.849,0,0,1,1.545.773l4.332,6.511a.317.317,0,0,0,.405.1l3.8-2.179a.3.3,0,0,0,.114-.393l-3.471-7.017a1.887,1.887,0,0,1,.1-1.723,11.654,11.654,0,0,0,1.115-2.533,1.14,1.14,0,0,1,.608-.709,1.064,1.064,0,0,1,.443-.089A1.267,1.267,0,0,1,394.344,136.817Zm-17.48-2.407h0c-5.586-3.23-10.134-11.109-10.134-17.569,0-3.23,1.115-5.662,3.141-6.828s4.674-.925,7.473.7c5.6,3.23,10.134,11.109,10.134,17.569,0,3.23-1.115,5.649-3.141,6.815a5.485,5.485,0,0,1-2.812.735,9.6,9.6,0,0,1-4.636-1.419ZM370.34,110.85c-1.71.988-2.66,3.116-2.66,5.991a21.407,21.407,0,0,0,9.665,16.733h0c2.533,1.444,4.813,1.685,6.523.7s2.66-3.116,2.66-5.991a21.4,21.4,0,0,0-9.64-16.746,8.588,8.588,0,0,0-4.18-1.267A4.623,4.623,0,0,0,370.34,110.85Z" transform="translate(-353.669 -92.851)" fill="#ebebeb" />
				</g>
				<path id="freepik--gear--inject-3-2" data-name="freepik--gear--inject-3" d="M345.094,134.34l2.673,3.445a2.863,2.863,0,0,1,.545,1.533,18.64,18.64,0,0,0,.089,2.027.735.735,0,0,1-.76.823h-1.913a.608.608,0,0,0-.608.836l1.469,4.674a1.963,1.963,0,0,0,1.153,1.115l2.217.684a2.419,2.419,0,0,1,1.267,1.089c.405.8.849,1.583,1.267,2.343a2.318,2.318,0,0,1,.329,1.533l-.633,2.7a1.951,1.951,0,0,0,.507,1.545l3.078,3.5c.342.393.8.431,1,.076l1.115-1.913c.2-.355.709-.355,1.14,0a13.941,13.941,0,0,0,1.355.9,3.053,3.053,0,0,1,1.165,1.267l1.621,4.243a1.672,1.672,0,0,0,1.267.963l2.356.367c.494.089.811-.228.7-.684l-1-4.091a.975.975,0,0,1,.545-1.1,4.625,4.625,0,0,0,.684-.405.975.975,0,0,1,1.267.19l2.774,2.761c.38.38.811.38.95,0l1-2.609a1.71,1.71,0,0,0-.3-1.457l-2.673-3.433a2.875,2.875,0,0,1-.557-1.545,15.688,15.688,0,0,0-.089-2.014.735.735,0,0,1,.773-.823h1.875a.608.608,0,0,0,.621-.836l-1.482-4.75a1.9,1.9,0,0,0-1.165-1.1l-2.217-.684a2.533,2.533,0,0,1-1.267-1.089c-.405-.8-.836-1.583-1.267-2.356a2.42,2.42,0,0,1-.329-1.52l.633-2.7a1.913,1.913,0,0,0-.456-1.469l-3.078-3.5c-.355-.405-.8-.431-1.013-.076l-1.1,1.9c-.2.355-.709.367-1.153,0a13.615,13.615,0,0,0-1.343-.887,3.1,3.1,0,0,1-1.178-1.267l-1.71-4.256a1.735,1.735,0,0,0-1.267-.975l-2.356-.367c-.494-.076-.811.228-.7.684l1,4.1a1.026,1.026,0,0,1-.545,1.1,3.8,3.8,0,0,0-.684.405,1,1,0,0,1-1.267-.2l-2.774-2.761c-.38-.38-.811-.367-.963,0l-1,2.622a1.7,1.7,0,0,0,.418,1.444Zm8.12,6.27c1.178-3.078,4.839-2.533,8.17,1.267s5.067,9.361,3.9,12.439-4.839,2.533-8.17-1.267-5.1-9.361-3.927-12.439Z" transform="translate(-344.649 -83.761)" fill="#ebebeb" />
			</g>
		</g>
		<g id="freepik--Plant--inject-3" transform="translate(271.464 376.277)">
			<g id="freepik--Plants--inject-3" transform="translate(0 0)">
				<path id="Path_1871" data-name="Path 1871" d="M236.112,308.806c-11.4,3.192-20.419,24.194-20.47,44.524A190.816,190.816,0,0,0,217.948,385l5.409,3.129,1.558.9,5.434,3.129,3.344,1.938a89.847,89.847,0,0,1,0-25.068h0a60.8,60.8,0,0,1,3.635-13.516c3.395-8.563,8.867-17.138,10.995-23.029C253.605,317.813,246.778,305.829,236.112,308.806Z" transform="translate(-215.631 -308.349)" fill="#0dbdb8" />
				<g id="Group_10451" data-name="Group 10451" opacity="0.65">
					<path id="Path_1872" data-name="Path 1872" d="M236.112,308.806c-11.4,3.192-20.419,24.194-20.47,44.524A190.816,190.816,0,0,0,217.948,385l5.409,3.129,1.558.9,5.434,3.129,3.344,1.938a89.847,89.847,0,0,1,0-25.068h0a60.8,60.8,0,0,1,3.635-13.516c3.395-8.563,8.867-17.138,10.995-23.029C253.605,317.813,246.778,305.829,236.112,308.806Z" transform="translate(-215.631 -308.349)" fill="#fff" />
				</g>
				<path id="Path_1873" data-name="Path 1873" d="M238.5,315.084c-11.4,12.832-19.9,41.8-14.947,72.48l-1.558-.9c-4.636-30.781,3.965-59.649,15.454-72.531a.709.709,0,0,1,1.051.95Z" transform="translate(-214.275 -306.862)" fill="#fff" />
				<path id="Path_1874" data-name="Path 1874" d="M247.223,337.961c-2.533,1.267-8.525,6.625-10.45,10.045a79.6,79.6,0,0,0-6.258,13.744h0a64.057,64.057,0,0,0-3.293,23.13l3.344,1.938,1.558.9,1.419.811,5.561,3.2a65.693,65.693,0,0,1,5.447-14.947c6.536-12.933,18.582-22.446,19.494-29.679C265.185,338.417,258.623,332.083,247.223,337.961Z" transform="translate(-212.555 -301.061)" fill="#0dbdb8" />
				<path id="Path_1875" data-name="Path 1875" d="M247.223,337.961c-2.533,1.267-8.525,6.625-10.45,10.045a79.6,79.6,0,0,0-6.258,13.744h0a64.057,64.057,0,0,0-3.293,23.13l3.344,1.938,1.558.9,1.419.811,5.561,3.2a65.693,65.693,0,0,1,5.447-14.947c6.536-12.933,18.582-22.446,19.494-29.679C265.185,338.417,258.623,332.083,247.223,337.961Z" transform="translate(-212.555 -301.061)" fill="#fff" opacity="0.3" />
				<path id="Path_1876" data-name="Path 1876" d="M252.933,344.017c-7.283,4.851-19.507,19.406-20.394,42.662l-1.419-.811c1.039-23.269,13.06-37.722,21.027-43.068a.709.709,0,1,1,.785,1.178Z" transform="translate(-211.501 -299.2)" fill="#fff" />
			</g>
		</g>
		<g id="freepik--Folders--inject-3" transform="translate(61.469 57.192)">
			<g id="freepik--Folder--inject-3" transform="translate(0 291.031)">
				<g id="freepik--folder--inject-3-2" data-name="freepik--folder--inject-3">
					<path id="Path_1877" data-name="Path 1877" d="M51.877,412.071a1.937,1.937,0,0,1-1.013-.279,1.976,1.976,0,0,1-1.013-1.748V326.835a5.219,5.219,0,0,1,2.407-4.167l24.511-14.149a2.533,2.533,0,0,1,2.609-.076,2.673,2.673,0,0,1,1.267,1.609l1.976,6.6a1.026,1.026,0,0,0,.57.684.963.963,0,0,0,.874-.114l53.1-30.641a2.242,2.242,0,0,1,2.052-.228l.266.139a2.255,2.255,0,0,1,.925,1.963V358.49A5.244,5.244,0,0,1,138,362.657L52.89,411.793a1.975,1.975,0,0,1-1.013.279ZM78.161,309.8a1.076,1.076,0,0,0-.557.165L53.093,324.1a3.484,3.484,0,0,0-1.1,1.191,3.192,3.192,0,0,0-.469,1.545v83.247a.355.355,0,0,0,.532.3l85.1-49.148a3.6,3.6,0,0,0,1.571-2.723V288.48a.785.785,0,0,0-.139-.545l-.1-.063a1.178,1.178,0,0,0-.507.177L84.887,318.665a2.7,2.7,0,0,1-2.318.228,2.635,2.635,0,0,1-1.545-1.761l-1.989-6.6a1.051,1.051,0,0,0-.456-.633A.785.785,0,0,0,78.161,309.8Z" transform="translate(-49.85 -286.202)" fill="#0dbdb8" />
				</g>
				<g id="freepik--folder--inject-3-3" data-name="freepik--folder--inject-3" transform="translate(15.197 16.216)">
					<path id="Path_1878" data-name="Path 1878" d="M163.035,373.481l-.646-.367-.747-.431-.659-.38a4.839,4.839,0,0,1-2.09-3.129l-8.867-66.958a2.913,2.913,0,0,0-1.267-2.255l-1.14-.659a2.812,2.812,0,0,0-2.85.19L98.775,325.6a4.192,4.192,0,0,1-3.471.329,4.448,4.448,0,0,1-.874-1.051l-1.482-2.533a4.143,4.143,0,0,0-1.533-1.533l-1.14-.659a4.205,4.205,0,0,0-4.193,0L64.954,332.364a6.8,6.8,0,0,0-3.078,6.333l10.653,79.941a5.8,5.8,0,0,0,2.533,3.889l2.052,1.191a2.724,2.724,0,0,0,1.267.38,1.977,1.977,0,0,0,1.039-.253l84.869-50.174A1.267,1.267,0,0,1,163.035,373.481Z" transform="translate(-61.847 -299.003)" fill="#0dbdb8" />
					<path id="Path_1879" data-name="Path 1879" d="M162.793,373.352l-2.039-1.178a4.813,4.813,0,0,1-2.1-3.129l-8.867-66.958a2.609,2.609,0,0,0-4.193-2.065l-45.6,26.3a4.205,4.205,0,0,1-5.738-1.533l-1.482-2.533a4.193,4.193,0,0,0-5.738-1.533L65.853,332.944a6.789,6.789,0,0,0-3.078,6.257l10.552,79.156a4.839,4.839,0,0,0,2.09,3.141l2.052,1.178a1.267,1.267,0,0,0,1.267.127l85.35-49.275A1.267,1.267,0,0,1,162.793,373.352Z" transform="translate(-61.606 -298.874)" opacity="0.25" />
					<path id="Path_1880" data-name="Path 1880" d="M73.02,406.425l2.052,1.178a1.266,1.266,0,0,0,1.267.127l85.35-49.275a1.267,1.267,0,0,1-1.267-.127l-2.039-1.178a4.5,4.5,0,0,1-1.355-1.33L71.69,405.095a4.471,4.471,0,0,0,1.33,1.33Z" transform="translate(-59.222 -283.85)" opacity="0.25" />
					<path id="Path_1881" data-name="Path 1881" d="M73.13,345.3v69.491a1.051,1.051,0,0,0,.481.823l.532.317a1.051,1.051,0,0,0,.95,0l76.99-44.461a1.051,1.051,0,0,0,.481-.823V301.151a1.051,1.051,0,0,0-.481-.823l-.583-.3a1.051,1.051,0,0,0-.95,0L73.611,344.472a1.051,1.051,0,0,0-.481.823Z" transform="translate(-58.838 -298.761)" fill="#fafafa" />
					<path id="Path_1882" data-name="Path 1882" d="M152.52,301.025a.822.822,0,0,0,0-.165v-.089a.785.785,0,0,0-.152-.241.658.658,0,0,0-.127-.139l-.1-.063-.671-.3a1.051,1.051,0,0,0-.95,0L73.579,344.472a.9.9,0,0,0-.329.355l1.482.861a.988.988,0,0,1,.329-.355l76.99-44.448C152.279,300.746,152.469,300.822,152.52,301.025Z" transform="translate(-58.806 -298.761)" fill="#e0e0e0" />
					<path id="Path_1883" data-name="Path 1883" d="M74.964,406.52c-.2,0-.342-.076-.342-.329V336.7a.912.912,0,0,1,.139-.469l-1.482-.861a.836.836,0,0,0-.139.469V405.33a1,1,0,0,0,.469.823l.532.317A1.089,1.089,0,0,0,74.964,406.52Z" transform="translate(-58.836 -289.304)" fill="#e0e0e0" />
					<g id="Group_10452" data-name="Group 10452" transform="translate(14.304 46.066)" opacity="0.1">
						<path id="Path_1884" data-name="Path 1884" d="M74.964,406.52c-.2,0-.342-.076-.342-.329V336.7a.912.912,0,0,1,.139-.469l-1.482-.861a.836.836,0,0,0-.139.469V405.33a1,1,0,0,0,.469.823l.532.317A1.089,1.089,0,0,0,74.964,406.52Z" transform="translate(-73.14 -335.37)" />
					</g>
					<path id="Path_1885" data-name="Path 1885" d="M162.3,306.039a2.533,2.533,0,0,0-1.064-2.343l-1.051-.608a2.534,2.534,0,0,0-2.533.253L79.55,348.41a8.044,8.044,0,0,0-3.635,6.333V420.7a1.267,1.267,0,0,1-.545,1.178l.519.9,85.87-49.566a1.267,1.267,0,0,0,.532-1.178Z" transform="translate(-58.241 -297.974)" fill="#0dbdb8" />
					<path id="Path_1886" data-name="Path 1886" d="M75.78,422.635a2.255,2.255,0,0,0,1.051-2.077V355.2a8.082,8.082,0,0,1,3.635-6.334l78.067-45.069c2.014-1.153,3.648-.215,3.648,2.1v65.97a1.267,1.267,0,0,1-.532,1.178Z" transform="translate(-58.132 -297.857)" fill="#fff" opacity="0.25" />
				</g>
				<path id="Path_1887" data-name="Path 1887" d="M133.462,357l-8.652-7.322c-.557-.469-1.482,0-2.052,1.153l-3.141,6.029c-.557,1.077-1.457,1.6-2.014,1.178l-7.372-5.548c-.557-.431-1.469.1-2.027,1.165l-11.527,22.18v7.6l36.734-21.23Zm-4.4-12.388a7.892,7.892,0,0,0,3.306-6.334c0-2.432-1.469-3.559-3.306-2.533a7.9,7.9,0,0,0-3.293,6.333C125.774,344.552,127.243,345.667,129.067,344.615Zm8.588-22.712L92.5,348a4.978,4.978,0,0,0-2.077,3.965v40.75c0,1.52.937,2.229,2.077,1.571l45.158-26.107a4.966,4.966,0,0,0,2.065-3.965v-40.75C139.72,321.941,138.8,321.232,137.655,321.9Zm-1.571,42.067-42.016,24.3V352.2l42.016-24.3Z" transform="translate(-39.03 -276.748)" fill="#fff" />
			</g>
			<g id="freepik--folder--inject-3-4" data-name="freepik--folder--inject-3" transform="translate(0 145.495)">
				<g id="freepik--folder--inject-3-5" data-name="freepik--folder--inject-3" transform="translate(0 0)">
					<path id="Path_1888" data-name="Path 1888" d="M51.877,297.182a2.065,2.065,0,0,1-1.013-.279,2,2,0,0,1-1.013-1.748V211.934a4.889,4.889,0,0,1,.7-2.369,4.94,4.94,0,0,1,1.71-1.786L76.767,193.63a2.533,2.533,0,0,1,2.609-.089,2.711,2.711,0,0,1,1.267,1.609l1.976,6.612a1.026,1.026,0,0,0,.57.684,1,1,0,0,0,.874-.114l53.1-30.641a2.2,2.2,0,0,1,2.052-.228l.266.139a2.229,2.229,0,0,1,.925,1.951v70.036A5.206,5.206,0,0,1,138,247.756L52.9,296.9a2.1,2.1,0,0,1-1.026.279ZM78.161,194.9a1.1,1.1,0,0,0-.557.177L53.093,209.21a3.484,3.484,0,0,0-1.1,1.191,3.141,3.141,0,0,0-.469,1.533v83.222a.355.355,0,0,0,.532.3l85.1-49.135a3.623,3.623,0,0,0,1.571-2.736V173.553a.811.811,0,0,0-.139-.545h-.1a1.178,1.178,0,0,0-.507.177L84.887,203.776a2.558,2.558,0,0,1-3.863-1.533l-1.989-6.612a1.026,1.026,0,0,0-.456-.621A.8.8,0,0,0,78.161,194.9Z" transform="translate(-49.85 -171.308)" fill="#0dbdb8" />
				</g>
				<g id="freepik--folder--inject-3-6" data-name="freepik--folder--inject-3" transform="translate(15.203 16.462)">
					<path id="Path_1889" data-name="Path 1889" d="M163.033,258.793l-.646-.38-.747-.431-.659-.38a4.813,4.813,0,0,1-2.09-3.129l-8.867-66.958a2.926,2.926,0,0,0-1.267-2.255l-1.14-.659a2.787,2.787,0,0,0-2.85.2L98.774,210.95a4.193,4.193,0,0,1-3.471.329,4.511,4.511,0,0,1-.874-1.064l-1.482-2.533a4.041,4.041,0,0,0-1.533-1.533l-1.14-.659a4.205,4.205,0,0,0-4.167-.038L64.953,217.676a6.79,6.79,0,0,0-3.078,6.258l10.653,79.954a5.827,5.827,0,0,0,2.533,3.889l2.052,1.178a2.723,2.723,0,0,0,1.267.393,1.976,1.976,0,0,0,1.039-.253l84.869-50.174a1.267,1.267,0,0,1-1.254-.127Z" transform="translate(-61.852 -184.304)" fill="#0dbdb8" />
					<path id="Path_1890" data-name="Path 1890" d="M162.8,258.662l-2.039-1.191a4.75,4.75,0,0,1-2.1-3.129l-8.867-66.958a2.622,2.622,0,0,0-4.193-2.065L99.982,211.655a4.193,4.193,0,0,1-5.738-1.533l-1.482-2.533a4.205,4.205,0,0,0-5.738-1.545L65.844,218.267a6.8,6.8,0,0,0-3.078,6.333l10.552,79.156a4.813,4.813,0,0,0,2.09,3.129l2.052,1.191a1.267,1.267,0,0,0,1.267.127l85.35-49.275A1.267,1.267,0,0,1,162.8,258.662Z" transform="translate(-61.616 -184.173)" opacity="0.25" />
					<path id="Path_1891" data-name="Path 1891" d="M73.023,291.711l2.052,1.191a1.267,1.267,0,0,0,1.267.127l85.35-49.275a1.267,1.267,0,0,1-1.267-.127l-2.039-1.191a4.306,4.306,0,0,1-1.355-1.267L71.68,290.356a4.42,4.42,0,0,0,1.343,1.355Z" transform="translate(-59.231 -169.138)" opacity="0.25" />
					<path id="Path_1892" data-name="Path 1892" d="M73.13,230.545v69.5a1.051,1.051,0,0,0,.481.823l.532.3a1.051,1.051,0,0,0,.95,0l76.99-44.448a1.051,1.051,0,0,0,.481-.823v-69.44a1.051,1.051,0,0,0-.481-.823l-.532-.317a1.051,1.051,0,0,0-.95,0l-76.99,44.448a1.051,1.051,0,0,0-.481.773Z" transform="translate(-58.844 -184.062)" fill="#fafafa" />
					<path id="Path_1893" data-name="Path 1893" d="M152.52,186.324a.935.935,0,0,0,0-.177v-.089a1.265,1.265,0,0,0-.152-.241.6.6,0,0,0-.127-.127h-.1l-.532-.317a1.051,1.051,0,0,0-.95,0L73.579,229.759a.988.988,0,0,0-.329.355l1.482.861a.988.988,0,0,1,.329-.355l76.99-44.423C152.279,186.045,152.469,186.109,152.52,186.324Z" transform="translate(-58.812 -184.049)" fill="#e0e0e0" />
					<path id="Path_1894" data-name="Path 1894" d="M74.964,291.82c-.2,0-.342-.076-.342-.329V222a.95.95,0,0,1,.139-.469l-1.482-.861a.861.861,0,0,0-.139.469v69.5a.975.975,0,0,0,.469.811l.532.317A1.039,1.039,0,0,0,74.964,291.82Z" transform="translate(-58.841 -174.605)" fill="#e0e0e0" />
					<g id="Group_10453" data-name="Group 10453" transform="translate(14.299 46.065)" opacity="0.1">
						<path id="Path_1895" data-name="Path 1895" d="M74.964,291.82c-.2,0-.342-.076-.342-.329V222a.95.95,0,0,1,.139-.469l-1.482-.861a.861.861,0,0,0-.139.469v69.5a.975.975,0,0,0,.469.811l.532.317A1.039,1.039,0,0,0,74.964,291.82Z" transform="translate(-73.14 -220.67)" />
					</g>
					<path id="Path_1896" data-name="Path 1896" d="M162.3,191.351a2.533,2.533,0,0,0-1.064-2.356l-1.051-.608a2.533,2.533,0,0,0-2.533.266l-78.1,45.069a8.006,8.006,0,0,0-3.635,6.333v65.97a1.267,1.267,0,0,1-.545,1.178l.519.9,85.87-49.579a1.267,1.267,0,0,0,.532-1.178Z" transform="translate(-58.247 -183.275)" fill="#0dbdb8" />
					<path id="Path_1897" data-name="Path 1897" d="M75.78,307.947a2.255,2.255,0,0,0,1.051-2.077V240.508a8.069,8.069,0,0,1,3.635-6.333l78.067-45.069c2.014-1.165,3.648-.228,3.648,2.1v65.957a1.267,1.267,0,0,1-.532,1.178Z" transform="translate(-58.137 -183.157)" fill="#fff" opacity="0.25" />
				</g>
				<path id="Path_1898" data-name="Path 1898" d="M134.9,223.877,113.827,236.05c-1.064-5.991-5.472-8.411-10.742-5.371-6.08,3.509-10.995,12.908-10.995,21S97,263.5,103.085,259.991c5.307-3.065,9.754-10.666,10.767-17.936l12.021-6.942v5.459c0,1.659,1.013,2.432,2.267,1.71a5.422,5.422,0,0,0,2.255-4.319v-5.434l4.509-2.609a5.4,5.4,0,0,0,2.267-4.319C137.172,223.915,136.158,223.155,134.9,223.877ZM103.085,254.95c-3.99,2.293-7.208-.139-7.208-5.447s3.217-11.476,7.208-13.782,7.208.139,7.208,5.447S107.062,252.644,103.085,254.95Z" transform="translate(-38.585 -157.36)" fill="#fafafa" />
			</g>
			<g id="freepik--folder--inject-3-7" data-name="freepik--folder--inject-3" transform="translate(0)">
				<g id="freepik--folder--inject-3-8" data-name="freepik--folder--inject-3">
					<path id="Path_1899" data-name="Path 1899" d="M51.877,182.272a2.052,2.052,0,0,1-1.013-.266,2.014,2.014,0,0,1-1.013-1.748V97.036a4.94,4.94,0,0,1,.7-2.381,5.156,5.156,0,0,1,1.71-1.786L76.767,78.682a2.533,2.533,0,0,1,2.609,0,2.673,2.673,0,0,1,1.267,1.609l1.976,6.6a1.051,1.051,0,0,0,.57.7,1,1,0,0,0,.874-.114l53.1-30.641a2.255,2.255,0,0,1,2.052-.241l.266.139a2.255,2.255,0,0,1,.925,1.963v70.036A5.219,5.219,0,0,1,138,132.9L52.9,182.044A2.09,2.09,0,0,1,51.877,182.272ZM78.161,79.948a1.266,1.266,0,0,0-.557.165l-24.511,14.2a3.433,3.433,0,0,0-1.1,1.178,3.192,3.192,0,0,0-.469,1.545v83.222a.355.355,0,0,0,.532.3l85.1-49.148a3.572,3.572,0,0,0,1.571-2.723V58.655a.811.811,0,0,0-.139-.545h-.1a1,1,0,0,0-.507.177L84.887,88.878a2.647,2.647,0,0,1-2.318.215,2.609,2.609,0,0,1-1.545-1.761l-1.989-6.6a1.026,1.026,0,0,0-.456-.621A.8.8,0,0,0,78.161,79.948Z" transform="translate(-49.85 -56.446)" fill="#0dbdb8" />
				</g>
				<g id="freepik--folder--inject-3-9" data-name="freepik--folder--inject-3" transform="translate(15.197 16.674)">
					<path id="Path_1900" data-name="Path 1900" d="M163.035,144.092l-.646-.367-.747-.431-.659-.38a4.839,4.839,0,0,1-2.09-3.129l-8.867-66.958a2.951,2.951,0,0,0-1.267-2.267l-1.14-.646a2.787,2.787,0,0,0-2.85.19L98.775,96.249a4.193,4.193,0,0,1-3.471.329,4.269,4.269,0,0,1-.874-1.064l-1.482-2.533a4.142,4.142,0,0,0-1.533-1.533l-1.14-.659a4.205,4.205,0,0,0-4.193,0L64.954,103.038a6.8,6.8,0,0,0-3.078,6.333l10.653,79.8a5.8,5.8,0,0,0,2.533,3.889l2.179,1.178a2.723,2.723,0,0,0,1.267.38,1.976,1.976,0,0,0,1.039-.253l84.869-50.174a1.267,1.267,0,0,1-1.381-.1Z" transform="translate(-61.847 -69.61)" fill="#0dbdb8" />
					<path id="Path_1901" data-name="Path 1901" d="M162.8,143.962l-2.039-1.178a4.813,4.813,0,0,1-2.1-3.129L149.787,72.7a2.609,2.609,0,0,0-4.193-2.065l-45.6,26.3a4.193,4.193,0,0,1-5.738-1.545l-1.482-2.533a4.193,4.193,0,0,0-5.738-1.533L65.843,103.5a6.79,6.79,0,0,0-3.078,6.257l10.552,79.156a4.839,4.839,0,0,0,2.09,3.141l2.052,1.178a1.267,1.267,0,0,0,1.267.127l85.35-49.275A1.267,1.267,0,0,1,162.8,143.962Z" transform="translate(-61.609 -69.48)" opacity="0.25" />
					<path id="Path_1902" data-name="Path 1902" d="M73.02,177.021l2.052,1.178a1.267,1.267,0,0,0,1.267.127l85.35-49.275a1.267,1.267,0,0,1-1.267-.127l-2.039-1.178a4.5,4.5,0,0,1-1.355-1.267L71.69,175.755a4.472,4.472,0,0,0,1.33,1.267Z" transform="translate(-59.222 -54.443)" opacity="0.25" />
					<path id="Path_1903" data-name="Path 1903" d="M73.13,115.906V185.4a1.051,1.051,0,0,0,.481.823l.532.3a1.051,1.051,0,0,0,.95,0l76.99-44.461a1.051,1.051,0,0,0,.481-.823V71.761a1.051,1.051,0,0,0-.481-.823l-.532-.3a1.051,1.051,0,0,0-.95,0l-76.99,44.448a1.051,1.051,0,0,0-.481.823Z" transform="translate(-58.838 -69.367)" fill="#fafafa" />
					<path id="Path_1904" data-name="Path 1904" d="M152.52,71.635a1.26,1.26,0,0,0,0-.177v-.076a1.038,1.038,0,0,0-.152-.253,1.187,1.187,0,0,0-.127-.127l-.1-.063-.532-.3a1.051,1.051,0,0,0-.95,0L73.579,115.082a.9.9,0,0,0-.329.355l1.482.861a.988.988,0,0,1,.329-.355l76.99-44.461C152.279,71.356,152.469,71.432,152.52,71.635Z" transform="translate(-58.806 -69.367)" fill="#e0e0e0" />
					<path id="Path_1905" data-name="Path 1905" d="M74.964,177.125c-.2,0-.342-.076-.342-.329V107.267a.912.912,0,0,1,.139-.469l-1.482-.8a.836.836,0,0,0-.139.469V175.96a1,1,0,0,0,.469.823l.532.317a1.089,1.089,0,0,0,.823.025Z" transform="translate(-58.836 -59.905)" fill="#e0e0e0" />
					<g id="Group_10454" data-name="Group 10454" transform="translate(14.304 46.095)" opacity="0.1">
						<path id="Path_1906" data-name="Path 1906" d="M74.964,177.125c-.2,0-.342-.076-.342-.329V107.267a.912.912,0,0,1,.139-.469l-1.482-.8a.836.836,0,0,0-.139.469V175.96a1,1,0,0,0,.469.823l.532.317a1.089,1.089,0,0,0,.823.025Z" transform="translate(-73.14 -106)" />
					</g>
					<path id="Path_1907" data-name="Path 1907" d="M162.3,76.669a2.609,2.609,0,0,0-1.064-2.356l-1.051-.6a2.533,2.533,0,0,0-2.533.253l-78.1,45.044a8.043,8.043,0,0,0-3.635,6.333v65.957a1.267,1.267,0,0,1-.545,1.178l.519.9,85.87-49.579a1.267,1.267,0,0,0,.532-1.165Z" transform="translate(-58.241 -68.575)" fill="#0dbdb8" />
					<path id="Path_1908" data-name="Path 1908" d="M75.78,193.245a2.255,2.255,0,0,0,1.051-2.077V125.806a8.082,8.082,0,0,1,3.635-6.333L158.533,74.4c2.014-1.153,3.648-.215,3.648,2.1v65.97a1.267,1.267,0,0,1-.532,1.165Z" transform="translate(-58.132 -68.463)" fill="#fff" opacity="0.25" />
				</g>
				<path id="freepik--Contact--inject-3" d="M113,123.48c4.535-2.622,8.208-9.64,8.208-15.682s-3.673-8.867-8.208-6.207-8.208,9.64-8.208,15.682S108.463,126.1,113,123.48Zm13.807,3.635c-.545-4.028-3.369-5.573-6.675-3.661l-14.263,8.234c-3.293,1.9-6.118,6.7-6.675,11.4L98.2,151.4c-.089.773.329,1.267.887.874l27.867-16.062a2.141,2.141,0,0,0,.887-1.9Z" transform="translate(-36.958 -44.674)" fill="#fafafa" />
			</g>
		</g>
		<g id="freepik--Lines--inject-3" transform="translate(193.294 83.084)">
			<g id="freepik--lines--inject-3-2" data-name="freepik--lines--inject-3">
				<path id="Path_1909" data-name="Path 1909" d="M199.694,164.61a3.724,3.724,0,0,1-1.811-.481,3.585,3.585,0,0,1-1.8-3.141V80.5a2.533,2.533,0,0,0-3.724-2.141L156.12,99.311l-.57-.988,36.266-20.951A3.623,3.623,0,0,1,197.25,80.5v80.486a2.533,2.533,0,0,0,3.711,2.153L236.175,142.8l.57.988-35.214,20.343A3.724,3.724,0,0,1,199.694,164.61Z" transform="translate(-153.485 -76.887)" fill="#455a64" />
				<path id="Path_1910" data-name="Path 1910" d="M156.238,92.146c1.267-.735,2.318-.139,2.318,1.343a5.067,5.067,0,0,1-2.318,4.015c-1.267.747-2.318.139-2.318-1.267A5.155,5.155,0,0,1,156.238,92.146Z" transform="translate(-153.92 -72.901)" fill="#455a64" />
				<path id="Path_1911" data-name="Path 1911" d="M219.888,127.268c1.267-.747,2.318-.152,2.318,1.267a5.067,5.067,0,0,1-2.318,4.015c-1.267.747-2.318.139-2.318-1.267A5.067,5.067,0,0,1,219.888,127.268Z" transform="translate(-136.945 -63.537)" fill="#455a64" />
				<path id="Path_1912" data-name="Path 1912" d="M156.238,206.306c1.267-.735,2.318-.139,2.318,1.343a5.155,5.155,0,0,1-2.318,4.015c-1.267.735-2.318.139-2.318-1.343A5.067,5.067,0,0,1,156.238,206.306Z" transform="translate(-153.92 -42.455)" fill="#455a64" />
				<path id="Path_1913" data-name="Path 1913" d="M219.888,148.4c1.267-.735,2.318-.139,2.318,1.343a5.067,5.067,0,0,1-2.318,4.015c-1.267.747-2.318.139-2.318-1.33A5.156,5.156,0,0,1,219.888,148.4Z" transform="translate(-136.945 -57.899)" fill="#455a64" />
				<path id="Path_1914" data-name="Path 1914" d="M156.12,224.39l-.57-.988,37.178-21.534A6.79,6.79,0,0,0,196.122,196V177.775a7.9,7.9,0,0,1,3.952-6.853l36.114-20.863.57.988-36.114,20.863a6.777,6.777,0,0,0-3.382,5.865v18.291a7.917,7.917,0,0,1-3.965,6.853Z" transform="translate(-153.485 -57.372)" fill="#455a64" />
				<path id="Path_1915" data-name="Path 1915" d="M156.238,324.686c1.267-.735,2.318-.139,2.318,1.343a5.067,5.067,0,0,1-2.318,4.016c-1.267.735-2.318.139-2.318-1.343A5.067,5.067,0,0,1,156.238,324.686Z" transform="translate(-153.92 -10.883)" fill="#455a64" />
				<path id="Path_1916" data-name="Path 1916" d="M219.888,190.838c1.267-.747,2.318-.139,2.318,1.267a5.155,5.155,0,0,1-2.318,4.091c-1.267.735-2.318.139-2.318-1.343A5.067,5.067,0,0,1,219.888,190.838Z" transform="translate(-136.945 -46.582)" fill="#455a64" />
				<path id="Path_1917" data-name="Path 1917" d="M156.12,363.078l-.57-.988,37.165-21.534a6.815,6.815,0,0,0,3.395-5.878V220.055a7.942,7.942,0,0,1,3.951-6.865l36.115-20.851.57.988-36.114,20.863a6.777,6.777,0,0,0-3.382,5.865V334.742a7.955,7.955,0,0,1-3.965,6.866Z" transform="translate(-153.485 -46.096)" fill="#455a64" />
			</g>
		</g>
		<g id="freepik--Shield--inject-3" transform="translate(294.491 53.65)">
			<g id="freepik--Title--inject-3" transform="translate(4.712 140.249)">
				<g id="freepik--Box--inject-3">
					<path id="Path_1918" data-name="Path 1918" d="M321.132,164.37l-83.6,48.261V241.5l3.217,1.849,83.6-48.261V166.219Z" transform="translate(-237.53 -164.37)" fill="#37474f" />
					<path id="Path_1919" data-name="Path 1919" d="M240.07,214.1l83.6-48.274V194.7l-83.6,48.261Z" transform="translate(-236.853 -163.981)" fill="#455a64" />
					<path id="Path_1920" data-name="Path 1920" d="M237.53,202.47l3.217,1.862v28.855l-3.217-1.849Z" transform="translate(-237.53 -154.209)" fill="#263238" />
				</g>
				<text id="PRIVATE" transform="translate(14.554 63.201)" fill="#fafafa" font-size="11" font-family="SegoeUI-Bold, Segoe UI" font-weight="700" letter-spacing="0.04em">
					<tspan x="0" y="0">
						PRI
					</tspan>
					<tspan y="0">
						V
					</tspan>
					<tspan y="0" letter-spacing="-0.01em">
						A
					</tspan>
					<tspan y="0">
						TE
					</tspan>
				</text>
			</g>
			<g id="freepik--shield--inject-3-2" data-name="freepik--shield--inject-3">
				<g id="freepik--shield--inject-3-3" data-name="freepik--shield--inject-3">
					<path id="Path_1921" data-name="Path 1921" d="M319.525,60.655c-13.49,12.122-25.144,11.489-32.44,5.877-7.271,14.022-18.924,28.1-32.415,31.579l-7.714,20.8s4.129,4.763,4.129,16.15a57,57,0,0,1-1.9,14.124c-1.406,5.611-3.217,11.4-3.217,21.129,0,6.574.861,12.971,4.193,18.8a23.333,23.333,0,0,0,8.436,8.449L246.88,190.8a23.37,23.37,0,0,1-8.867-8.7c-3.319-5.827-4.193-12.224-4.193-18.8,0-9.7,1.811-15.517,3.217-21.141a56.252,56.252,0,0,0,1.913-14.111c0-11.4-4.129-16.15-4.129-16.15l7.7-20.8c13.49-3.471,25.144-17.556,32.428-31.579,7.284,5.611,19,6.245,32.427-5.865Z" transform="translate(-233.807 -53.65)" fill="#0dbdb8" />
					<path id="Path_1922" data-name="Path 1922" d="M270.549,60.75l-4.269-2.47a18.772,18.772,0,0,0,4.269,2.47Z" transform="translate(-225.15 -52.415)" fill="#fff" opacity="0.8" />
					<path id="Path_1923" data-name="Path 1923" d="M297.809,53.65c-11.1,9.969-20.951,11.3-28.159,8.335l7.879,4.547c7.3,5.611,19,6.245,32.44-5.877Z" transform="translate(-224.252 -53.65)" fill="#fff" opacity="0.85" />
					<path id="Path_1924" data-name="Path 1924" d="M273.107,58.28C265.824,72.3,254.17,86.388,240.68,89.859l12.16,7.018c13.49-3.471,25.144-17.556,32.415-31.579Z" transform="translate(-231.978 -52.415)" fill="#fff" opacity="0.65" />
					<path id="Path_1925" data-name="Path 1925" d="M242.3,83.21l-7.7,20.8,12.148,7.018,7.714-20.8Z" transform="translate(-233.599 -45.766)" fill="#fff" opacity="0.55" />
					<path id="Path_1926" data-name="Path 1926" d="M250.163,176.848c-3.331-5.827-4.193-12.224-4.193-18.8,0-9.7,1.811-15.517,3.217-21.129a57,57,0,0,0,1.9-14.124c0-11.4-4.129-16.15-4.129-16.15L234.811,99.63s4.129,4.763,4.129,16.15a56.254,56.254,0,0,1-1.913,14.111c-1.406,5.624-3.217,11.4-3.217,21.141,0,6.574.874,12.971,4.193,18.8a23.371,23.371,0,0,0,8.867,8.7l11.717,6.764A23.333,23.333,0,0,1,250.163,176.848Z" transform="translate(-233.81 -41.387)" fill="#fff" opacity="0.4" />
					<path id="Path_1927" data-name="Path 1927" d="M284.54,201.886c-20.166.215-31.667-5.067-36.937-14.25-3.331-5.827-4.193-12.224-4.193-18.8,0-9.7,1.8-15.517,3.217-21.141a56.835,56.835,0,0,0,1.913-14.111c0-11.4-4.129-16.138-4.129-16.138L252.1,96.636c13.5-3.471,25.157-17.556,32.44-31.579,7.271,5.611,18.924,6.245,32.427-5.877l7.7,11.932a58.6,58.6,0,0,0-4.129,20.9,33.949,33.949,0,0,0,1.913,11.907,41.649,41.649,0,0,1,3.2,17.43,69.668,69.668,0,0,1-4.231,23.637C316.232,160.187,304.693,178.832,284.54,201.886Z" transform="translate(-231.25 -52.175)" fill="#0dbdb8" />
					<path id="Path_1928" data-name="Path 1928" d="M284.54,201.886c-20.166.215-31.667-5.067-36.937-14.25-3.331-5.827-4.193-12.224-4.193-18.8,0-9.7,1.8-15.517,3.217-21.141a56.835,56.835,0,0,0,1.913-14.111c0-11.4-4.129-16.138-4.129-16.138L252.1,96.636c13.5-3.471,25.157-17.556,32.44-31.579,7.271,5.611,18.924,6.245,32.427-5.877l7.7,11.932a58.6,58.6,0,0,0-4.129,20.9,33.949,33.949,0,0,0,1.913,11.907,41.649,41.649,0,0,1,3.2,17.43,69.668,69.668,0,0,1-4.231,23.637C316.232,160.187,304.693,178.832,284.54,201.886Z" transform="translate(-231.25 -52.175)" fill="#fff" opacity="0.75" />
					<path id="Path_1929" data-name="Path 1929" d="M281.054,195.013c-15.606-.177-25.7-4.079-30-11.6-2.419-4.243-3.509-9.247-3.509-16.2a64.5,64.5,0,0,1,2.533-17.962l.494-1.9a61.271,61.271,0,0,0,2.065-15.39c0-8.3-1.989-13.731-3.559-16.733l5.9-15.973c14.44-5.067,24.878-19.279,30.4-28.627a23.9,23.9,0,0,0,9.424,1.9c6.523,0,13.161-2.432,19.773-7.233l3.1,4.813a64.3,64.3,0,0,0-3.534,20.267,39.268,39.268,0,0,0,2.217,13.655c.152.456.329.912.494,1.381a34.923,34.923,0,0,1,2.419,14.3,64.679,64.679,0,0,1-3.914,21.927C310.264,156.619,298.7,174.568,281.054,195.013Z" transform="translate(-230.146 -50.546)" fill="#0dbdb8" opacity="0.75" />
					<path id="Path_1930" data-name="Path 1930" d="M281.054,195.013c-15.606-.177-25.7-4.079-30-11.6-2.419-4.243-3.509-9.247-3.509-16.2a64.5,64.5,0,0,1,2.533-17.962l.494-1.9a61.271,61.271,0,0,0,2.065-15.39c0-8.3-1.989-13.731-3.559-16.733l5.9-15.973c14.44-5.067,24.878-19.279,30.4-28.627a23.9,23.9,0,0,0,9.424,1.9c6.523,0,13.161-2.432,19.773-7.233l3.1,4.813a64.3,64.3,0,0,0-3.534,20.267,39.268,39.268,0,0,0,2.217,13.655c.152.456.329.912.494,1.381a34.923,34.923,0,0,1,2.419,14.3,64.679,64.679,0,0,1-3.914,21.927C310.264,156.619,298.7,174.568,281.054,195.013Z" transform="translate(-230.146 -50.546)" fill="#fff" opacity="0.4" />
					<path id="Path_1931" data-name="Path 1931" d="M281.054,195.013c-15.606-.177-25.7-4.079-30-11.6-2.419-4.243-3.509-9.247-3.509-16.2a64.5,64.5,0,0,1,2.533-17.962l.494-1.9a61.271,61.271,0,0,0,2.065-15.39c0-8.3-1.989-13.731-3.559-16.733l5.9-15.973c14.44-5.067,24.878-19.279,30.4-28.627a23.9,23.9,0,0,0,9.424,1.9c6.523,0,13.161-2.432,19.773-7.233l3.1,4.813a64.3,64.3,0,0,0-3.534,20.267,39.268,39.268,0,0,0,2.217,13.655c.152.456.329.912.494,1.381a34.923,34.923,0,0,1,2.419,14.3,64.679,64.679,0,0,1-3.914,21.927C310.264,156.619,298.7,174.568,281.054,195.013Z" transform="translate(-230.146 -50.546)" fill="#0dbdb8" opacity="0.15" />
					<path id="Path_1932" data-name="Path 1932" d="M253.13,162c5.32,4.687,14.162,7.144,26.423,7.284l-7.828-4.459A57,57,0,0,1,253.13,162Z" transform="translate(-228.657 -24.753)" fill="#fff" opacity="0.8" />
					<path id="Path_1933" data-name="Path 1933" d="M299.908,67.747l4.066,2.356-3.1-4.813-1.761,1.229Z" transform="translate(-216.395 -50.546)" fill="#0dbdb8" opacity="0.25" />
					<path id="Path_1934" data-name="Path 1934" d="M312.313,101.406A39.268,39.268,0,0,1,310.1,87.764,64.4,64.4,0,0,1,313.63,67.5l-.785-1.267c-6.042,3.99-12.072,6-18.012,6a23.9,23.9,0,0,1-9.424-1.9c-5.535,9.348-15.973,23.611-30.4,28.627l-5.9,15.973c1.571,3,3.559,8.436,3.559,16.733a61.271,61.271,0,0,1-2.027,15.428l-.494,1.9a64.5,64.5,0,0,0-2.533,17.962c0,6.954,1.089,11.958,3.509,16.2a17.645,17.645,0,0,0,5.067,5.523q7.828,3.572,20.837,3.737c17.658-20.457,29.223-38.406,34.378-53.366a64.981,64.981,0,0,0,3.838-21.939,34.924,34.924,0,0,0-2.419-14.3Z" transform="translate(-230.13 -50.295)" fill="#0dbdb8" />
				</g>
				<path id="Path_1935" data-name="Path 1935" d="M285.742,145.166l-18.9,10.919,2.926-34.2c-2.267-1.267-3.7-4.142-3.7-8.373,0-7.524,4.573-16.277,10.222-19.532s10.235.19,10.235,7.727a25.651,25.651,0,0,1-3.711,12.667Z" transform="translate(-225.206 -43.222)" fill="#0dbdb8" />
				<path id="Path_1936" data-name="Path 1936" d="M285.742,145.166l-18.9,10.919,2.926-34.2c-2.267-1.267-3.7-4.142-3.7-8.373,0-7.524,4.573-16.277,10.222-19.532s10.235.19,10.235,7.727a25.651,25.651,0,0,1-3.711,12.667Z" transform="translate(-225.206 -43.222)" opacity="0.25" />
				<path id="Path_1937" data-name="Path 1937" d="M285.579,136.21l-17.126-9.88-1.773,20.8Z" transform="translate(-225.044 -34.266)" opacity="0.15" />
				<path id="Path_1938" data-name="Path 1938" d="M275.975,93.979c-3.7,2.128-6.929,6.612-8.715,11.565l15.2,8.867h0a25.651,25.651,0,0,0,3.711-12.667C286.21,94.169,281.624,90.711,275.975,93.979Z" transform="translate(-224.889 -43.223)" opacity="0.15" />
			</g>
		</g>
		<g id="freepik--Key--inject-3" transform="translate(153.735 449.614)">
			<g id="freepik--key--inject-3-2" data-name="freepik--key--inject-3" transform="translate(0 0)">
				<path id="Path_1939" data-name="Path 1939" d="M284.356,379.3c-18.924-10.919-49.579-10.919-68.5,0-7.917,4.573-12.882,7.6-14.162,13.6v6.181a19.507,19.507,0,0,0,5.877,13.338L122.7,455.281v6.156l9.513,5.485h26.6l10.438-6.017v-5.827l8.322-4.649,11.565-1.013,4.611-2.66.469-10.336,8.55-4.94,12.528,2.837,16.315-9.424c17.556,4.205,38.533,2.2,52.809-6.042,9.488-5.472,14.212-12.667,14.187-19.837v-6.105C297.682,386.486,292.818,384.219,284.356,379.3Zm-11.818,17.734a21.534,21.534,0,0,1-19.406,0c-5.358-3.1-5.358-8.12,0-11.21a21.534,21.534,0,0,1,19.406,0c5.358,3.04,5.358,8.056.013,11.16Z" transform="translate(-122.687 -364.946)" fill="#0dbdb8" />
				<path id="Path_1940" data-name="Path 1940" d="M284.356,379.3c-18.924-10.919-49.579-10.919-68.5,0-7.917,4.573-12.882,7.6-14.162,13.6v6.181a19.507,19.507,0,0,0,5.877,13.338L122.7,455.281v6.156l9.513,5.485h26.6l10.438-6.017v-5.827l8.322-4.649,11.565-1.013,4.611-2.66.469-10.336,8.55-4.94,12.528,2.837,16.315-9.424c17.556,4.205,38.533,2.2,52.809-6.042,9.488-5.472,14.212-12.667,14.187-19.837v-6.105C297.682,386.486,292.818,384.219,284.356,379.3Zm-11.818,17.734a21.534,21.534,0,0,1-19.406,0c-5.358-3.1-5.358-8.12,0-11.21a21.534,21.534,0,0,1,19.406,0c5.358,3.04,5.358,8.056.013,11.16Z" transform="translate(-122.687 -364.946)" opacity="0.2" />
				<path id="Path_1941" data-name="Path 1941" d="M284.356,374.434c-18.924-10.919-49.579-10.919-68.5,0-15.542,8.981-18.278,22.522-8.284,33.124L122.7,456.58l9.513,5.485h26.6l10.438-6.029-.709-5.434,9.032-5.067,11.565-1.013,4.611-2.66.469-10.349,8.55-4.927,12.528,2.825L231.611,420c17.556,4.205,38.533,2.191,52.809-6.055C303.268,403.062,303.268,385.353,284.356,374.434Zm-11.818,17.734a21.534,21.534,0,0,1-19.406,0c-5.358-3.091-5.358-8.107,0-11.2a21.382,21.382,0,0,1,19.406,0c5.358,3.04,5.358,8.056.013,11.147Z" transform="translate(-122.687 -366.245)" fill="#0dbdb8" />
				<path id="Path_1942" data-name="Path 1942" d="M284.356,374.434c-18.924-10.919-49.579-10.919-68.5,0-15.542,8.981-18.278,22.522-8.284,33.124L122.7,456.58l9.513,5.485h26.6l10.438-6.029-.709-5.434,9.032-5.067,11.565-1.013,4.611-2.66.469-10.349,8.55-4.927,12.528,2.825L231.611,420c17.556,4.205,38.533,2.191,52.809-6.055C303.268,403.062,303.268,385.353,284.356,374.434Zm-11.818,17.734a21.534,21.534,0,0,1-19.406,0c-5.358-3.091-5.358-8.107,0-11.2a21.382,21.382,0,0,1,19.406,0c5.358,3.04,5.358,8.056.013,11.147Z" transform="translate(-122.687 -366.245)" fill="#fff" opacity="0.3" />
				<path id="Path_1943" data-name="Path 1943" d="M232.305,415.43c-11.97,0-23.143-2.647-31.465-7.436-7.245-4.193-11.4-9.64-11.4-14.96s4.155-10.767,11.4-14.947c8.322-4.8,19.495-7.448,31.465-7.448s23.143,2.647,31.465,7.448c7.246,4.18,11.4,9.64,11.4,14.947s-4.155,10.767-11.4,14.96C255.448,412.783,244.275,415.43,232.305,415.43Zm0-43.068c-11.666,0-22.535,2.533-30.591,7.208-6.688,3.863-10.526,8.766-10.526,13.44s3.8,9.576,10.526,13.452c8.056,4.649,18.912,7.208,30.591,7.208s22.535-2.533,30.591-7.208c6.688-3.876,10.526-8.766,10.526-13.452s-3.8-9.576-10.526-13.44C254.84,374.9,243.971,372.363,232.305,372.363Z" transform="translate(-104.888 -365.073)" fill="#0dbdb8" />
				<path id="Path_1944" data-name="Path 1944" d="M244.58,408.963v6.169a82.2,82.2,0,0,1-36-.266V408.71a82.007,82.007,0,0,0,36,.253Z" transform="translate(-99.783 -354.92)" opacity="0.1" />
				<path id="Path_1945" data-name="Path 1945" d="M198.378,416.735V422.9l-12.528-2.837V413.91Z" transform="translate(-105.845 -353.533)" opacity="0.1" />
				<path id="Path_1946" data-name="Path 1946" d="M179.2,417.81v6.156L178.73,434.3v-6.156Z" transform="translate(-107.744 -352.493)" opacity="0.1" />
				<path id="Path_1947" data-name="Path 1947" d="M177.525,428.07v6.156l-11.565,1.026v-6.169Z" transform="translate(-111.15 -349.756)" opacity="0.1" />
				<rect id="Rectangle_266" data-name="Rectangle 266" width="26.537" height="6.169" transform="translate(9.513 95.819)" opacity="0.1" />
				<path id="Path_1948" data-name="Path 1948" d="M122.69,437.56v6.156L132.2,449.2v-6.156l-4.167-2.407v2.66l-2.305-1.33v-2.685Z" transform="translate(-122.69 -347.225)" opacity="0.15" />
				<path id="Path_1949" data-name="Path 1949" d="M125.09,438.92l2.305,1.355v2.66l-2.305-1.33Z" transform="translate(-122.05 -346.863)" fill="#0dbdb8" />
				<path id="Path_1950" data-name="Path 1950" d="M125.09,438.92l2.305,1.355v2.66l-2.305-1.33Z" transform="translate(-122.05 -346.863)" fill="#fff" opacity="0.3" />
				<path id="Path_1951" data-name="Path 1951" d="M125.09,449.223v2.685l87.048-50.263-2.293-1.355Z" transform="translate(-122.05 -357.165)" fill="#0dbdb8" />
				<path id="Path_1952" data-name="Path 1952" d="M192,400.29v2.685l2.293-1.33Z" transform="translate(-104.205 -357.165)" opacity="0.15" />
			</g>
		</g>
		<g id="freepik--Character--inject-3" transform="translate(353.21 196.095)">
			<g id="freepik--character--inject-3-2" data-name="freepik--character--inject-3">
				<g id="freepik--Bottom--inject-3" transform="translate(0 189.01)">
					<path id="Path_1953" data-name="Path 1953" d="M353.482,393.165,341.537,369.63,317.47,383.7l29.641,34.986s14.681-1.355,17.05-9.019S357.523,395.711,353.482,393.165Z" transform="translate(-270.218 -300.833)" fill="#c8856a" />
					<path id="Path_1954" data-name="Path 1954" d="M362.654,395.51a12.326,12.326,0,0,1,3.331,3.635c.975,1.444.671,8.411,1.6,11.641s1.634,4.091,3.179,8.145c1.71,4.484,4.877,8.588,1.267,20.128s-9.31,17.05-14.149,19.862a12.666,12.666,0,0,1-5.827,1.419s-6.333-2.394-5.371-6.144S362.654,395.51,362.654,395.51Z" transform="translate(-262.454 -293.931)" fill="#263238" />
					<path id="Path_1955" data-name="Path 1955" d="M337.323,410.245c.177,1.191,1.837,3.015,2.533,3.99,2.28,3.255,3.319,7.676,4.1,11.527,3.737,18.266-3.521,27.551,6.333,34.4,2.85,1.8,8.766,1.267,17.734-10.21,4.6-5.878,7.208-17.974,5.421-23.447s-4.243-9.044-5.4-13.25-.545-12.072-2.875-15.682a16.873,16.873,0,0,0-5.7-4.9c-1.748-1.064-5.561-2.457-7.334-3.471s-2.761-2.166-3.9-.874l2.052,2.533c3.2,4.446,2.305,5.067,2.229,7.448a37.518,37.518,0,0,0,1.191,7.524c-2.28-2.875-3.2-5.383-5.7-4.94s-2.787.317-6.333,3.661S337.171,409.193,337.323,410.245Z" transform="translate(-264.927 -295.999)" fill="#455a64" />
					<path id="Path_1956" data-name="Path 1956" d="M366.393,442.914c4.6-5.877,7.207-17.974,5.421-23.447a51.5,51.5,0,0,0-2.1-5.307c.076.367.177.747.228,1.064.114.709.215,1.419.279,2.128a16.353,16.353,0,0,1-.912,8.3c-1.026,2.267-3.42,7.98-6.485,8.107-1.748.076-3.217-1.634-3.889-3.572-.279-.823-.747-3.04-.747-3.04a26.791,26.791,0,0,0-7.98,3.268c-4.459,2.939-4.307,3.6-4.307,3.6a11.74,11.74,0,0,1,.152,3.914,9.665,9.665,0,0,1-1.659,3.889,5.817,5.817,0,0,1-1.14.912c.19,4.218,1.267,7.524,5.409,10.4C351.509,454.922,357.424,454.492,366.393,442.914Z" transform="translate(-263.342 -288.957)" fill="#37474f" />
					<path id="Path_1957" data-name="Path 1957" d="M342.737,418.616a61.044,61.044,0,0,1,1.14,14.605c1.685,4.674,3.154,4.535,3.357,2.115s-3.027-12.477-5.434-20.787C342.167,415.918,342.471,417.311,342.737,418.616Z" transform="translate(-263.729 -288.853)" fill="#37474f" />
					<path id="Path_1958" data-name="Path 1958" d="M352.766,396.492a10.222,10.222,0,0,0-1.786-6.688c-.443-.2-.849-.405-1.178-.6-1.925-1.089-2.761-2.166-3.9-.874l2.052,2.533c3.2,4.446,2.305,5.067,2.229,7.448a37.519,37.519,0,0,0,1.191,7.524c1.862,7.93,3.559,10.577,4.446,18.076s-.621,12.515.431,12.946,3.192-.431,3.585-6.435-2.267-16.087-4.129-20.862S352.36,399.684,352.766,396.492Z" transform="translate(-262.635 -296.002)" fill="#37474f" />
					<path id="Path_1959" data-name="Path 1959" d="M358.337,425.087a.811.811,0,0,1-.38.215c-5.257,1.077-8.056,2.407-11.97,7.018a.76.76,0,0,1-1.051.076.747.747,0,0,1-.089-1.051c4.129-4.864,7.22-6.333,12.806-7.512a.76.76,0,0,1,.887.583A.747.747,0,0,1,358.337,425.087Z" transform="translate(-262.963 -286.381)" fill="#ebebeb" />
					<path id="Path_1960" data-name="Path 1960" d="M357.738,420.173a.772.772,0,0,1-.367.215c-5.447,1.267-8.462,2.8-12.667,7.6a.735.735,0,0,1-1.077.089.773.773,0,0,1-.089-1.089c4.383-5.067,7.6-6.815,13.44-8.145a.76.76,0,0,1,.709,1.267Z" transform="translate(-263.314 -287.713)" fill="#ebebeb" />
					<path id="Path_1961" data-name="Path 1961" d="M358.188,414.763a.848.848,0,0,1-.418.228c-5.991,1.393-9.513,3.255-14.1,8.614a.844.844,0,0,1-1.279-1.1c4.826-5.624,8.639-7.676,15-9.158a.849.849,0,0,1,1.013.633.874.874,0,0,1-.215.785Z" transform="translate(-263.625 -289.18)" fill="#ebebeb" />
					<path id="Path_1962" data-name="Path 1962" d="M357.309,410.1a.759.759,0,0,1-.405.228c-5.878,1.355-9.285,3.141-13.782,8.4a.836.836,0,1,1-1.267-1.077c4.725-5.51,8.449-7.5,14.681-8.867a.811.811,0,0,1,.988.621A.823.823,0,0,1,357.309,410.1Z" transform="translate(-263.784 -290.397)" fill="#ebebeb" />
					<path id="Path_1963" data-name="Path 1963" d="M355.614,405.6a.81.81,0,0,1-.405.228c-5.877,1.368-9.285,3.154-13.782,8.411a.836.836,0,0,1-1.267-1.077c4.737-5.523,8.436-7.5,14.668-8.943a.823.823,0,0,1,.785,1.381Z" transform="translate(-264.205 -291.616)" fill="#ebebeb" />
					<path id="Path_1964" data-name="Path 1964" d="M345.911,389.7l-15.568,12.73-8.8,5.523,10.045,19L359.908,413.4Z" transform="translate(-269.132 -295.481)" fill="#c8856a" />
					<path id="Path_1965" data-name="Path 1965" d="M387.853,324.555s-56.659-9.4-80.9-9.234c-24.739.152-27.031,18.722-20.837,30.1C297.968,367.2,339.174,413.4,339.174,413.4s13.845-6.333,18.1-18.316l-9.412-21.534,29.59,9.475,15.1-10.134,1.267-7.714Z" transform="translate(-279.356 -315.318)" fill="#0dbdb8" />
					<path id="Path_1966" data-name="Path 1966" d="M387.853,324.555s-56.659-9.4-80.9-9.234c-24.739.152-27.031,18.722-20.837,30.1C297.968,367.2,339.174,413.4,339.174,413.4s13.845-6.333,18.1-18.316l-9.412-21.534,29.59,9.475,15.1-10.134,1.267-7.714Z" transform="translate(-279.356 -315.318)" opacity="0.4" />
					<path id="Path_1967" data-name="Path 1967" d="M374.808,322.61l98.068,16.328s.975,23.472-8.259,44.5a47.945,47.945,0,0,1-36.734,28.019,272.358,272.358,0,0,1-29.666,2.407,73.791,73.791,0,0,1-15.5,9.133c-7.765,3.091-41.877,17.4-41.877,17.4s-9.6-8.12-8.652-25.043l32.263-34.3c7.3-8.867,9.855-11.78,13.934-13.782C372.1,355.24,374.112,335.86,374.808,322.61Z" transform="translate(-266.311 -313.374)" fill="#0dbdb8" />
					<path id="Path_1968" data-name="Path 1968" d="M374.808,322.61l98.068,16.328s.975,23.472-8.259,44.5a47.945,47.945,0,0,1-36.734,28.019,272.358,272.358,0,0,1-29.666,2.407,73.791,73.791,0,0,1-15.5,9.133c-7.765,3.091-41.877,17.4-41.877,17.4s-9.6-8.12-8.652-25.043l32.263-34.3c7.3-8.867,9.855-11.78,13.934-13.782C372.1,355.24,374.112,335.86,374.808,322.61Z" transform="translate(-266.311 -313.374)" opacity="0.3" />
					<g id="Group_10455" data-name="Group 10455" transform="translate(44.592 22.499)" opacity="0.3">
						<path id="Path_1969" data-name="Path 1969" d="M334.358,350.434a213.376,213.376,0,0,1,12.49,20.761l-7.6-2.407c-8.512-20.267-10.26-26.208-23.877-35.708C315.408,333.08,325.174,336.779,334.358,350.434Z" transform="translate(-315.37 -333.08)" />
						<path id="Path_1970" data-name="Path 1970" d="M404.554,385.67s.114,4.978-7.233,11.4a73.79,73.79,0,0,1-15.5,9.133c-7.752,3.065-41.864,17.379-41.864,17.379s-1.862-.861-4.522-5.878c8.867-2.09,37.925-13.478,47.324-17.455C399.487,393.156,404.554,385.67,404.554,385.67Z" transform="translate(-310.02 -319.054)" />
						<path id="Path_1971" data-name="Path 1971" d="M363.484,370.773c-3.306,3.876-4.877,5.751-4.877,5.751l-4.737-1.558s8.4-9.133,13.807-13.934a17.737,17.737,0,0,1,3.1-2.432c-2.736-7.182-2.635-19-2.635-19a37.824,37.824,0,0,0,7.157,17.214,31.313,31.313,0,0,1,13.617-.152c9.488,1.583,36.988,6.27,36.988,6.27s-26.36-2.381-40.078-2.913S366.79,366.9,363.484,370.773Z" transform="translate(-305.102 -331.341)" />
					</g>
					<path id="Path_1972" data-name="Path 1972" d="M296.879,411.92c-6.663,2.635-10.767,5.269-13.845,9.3s-4.028,8.094-1.1,12.971,8.3,10.59,14.681,10.222,10.311-1.963,16.226-5.168Z" transform="translate(-280.166 -289.555)" fill="#263238" />
					<path id="Path_1973" data-name="Path 1973" d="M349.411,420.876c.1,2-8.322,5.979-17.062,10.134-9.374,4.471-11.679,7.385-19.33,11.147-8.74,4.307-12.059,4.56-18.848,2.673s-15.2-11.6-9.323-20.533c4.75-7.271,10.906-9.272,20.267-11.73a176.289,176.289,0,0,0,21.851-7.068c6.751-2.622,12.312-7.321,13.706-5.687-.963.456-8.018,4.813-6.688,6,.329.608,1.33.418,3.065-.3a2.99,2.99,0,0,1,2.419-.114,4.585,4.585,0,0,1,1.748,2.1,48.84,48.84,0,0,1,2.115,5.345c.519,1.267.3.519.8,1.773s1.583,3.5,1.444,4.775c-.076.773-.646,1.013-1.267,1.393s-1.419.836-1.989,1.267c-.215.165-.621.747-.494,1.039s1.431.253,1.938,0,1.355-.418,1.976-.646S347.866,421.6,349.411,420.876Z" transform="translate(-279.447 -292.874)" fill="#455a64" />
					<path id="Path_1974" data-name="Path 1974" d="M315.977,437.881c-1.267.633-9.2,4.319-11.679,2.115-2.7-2.394,3.661-6.219,3.661-6.219s.975-5.979-6.245-14.8c-1.267.975-6.473.925-6.409-2.141s8.867-6.84,8.943-6.891c-8.943,2.394-14.833,4.446-19.444,11.514-5.827,8.93,2.533,18.646,9.323,20.533s10.134,1.634,18.848-2.673A17.362,17.362,0,0,0,315.977,437.881Z" transform="translate(-279.453 -290.08)" fill="#37474f" />
					<path id="Path_1975" data-name="Path 1975" d="M302.329,431.544c-3.306,1.1-1.039,4.117,3.8,3.141,7.258-1.469,13.3-5.586,21.382-8.145,8.74-4.167,17.645-8.056,17.075-10.26-1.558.583-4.915,1.976-4.915,1.976-.646.279-2.343.912-2.343.912-6.625,2.863-13.934,7.461-21.129,9.412C309.929,430.29,305.685,430.442,302.329,431.544Z" transform="translate(-274.672 -288.392)" fill="#37474f" />
					<path id="Path_1976" data-name="Path 1976" d="M298.709,422.974c3.027-1.748,3.547-3.255,9.488-5.979s15.986-8.563,22.193-12.186a81.075,81.075,0,0,0,6.739-4.978c-1.026-1.178-4.813-.1-8.6,2.293s-6.093,3.9-9.842,5.865c-7.3,4.383-15.606,7.334-19.773,10.02S295.669,424.747,298.709,422.974Z" transform="translate(-275.917 -292.907)" fill="#37474f" />
					<path id="Path_1977" data-name="Path 1977" d="M297.815,417.615a.936.936,0,0,0,.177.279,26.385,26.385,0,0,1,5.662,14.656.887.887,0,0,0,.836.823.735.735,0,0,0,.671-.849c-.925-10.032-5.89-15.479-6.169-15.783a.709.709,0,0,0-1.064,0A.849.849,0,0,0,297.815,417.615Z" transform="translate(-275.479 -288.333)" fill="#f0f0f0" />
					<path id="Path_1978" data-name="Path 1978" d="M302.458,414.24a.963.963,0,0,0,.152.241,36.177,36.177,0,0,1,7.018,17.316.874.874,0,0,0,.849.785.722.722,0,0,0,.646-.874,37.342,37.342,0,0,0-7.474-18.329.709.709,0,0,0-1.064-.076A.861.861,0,0,0,302.458,414.24Z" transform="translate(-274.244 -289.241)" fill="#f0f0f0" />
					<path id="Path_1979" data-name="Path 1979" d="M314.2,431.881a.861.861,0,0,0,.7.532.735.735,0,0,0,.735-.8c-.355-10.615-7.195-20.571-7.512-20.913a.7.7,0,0,0-1.064,0,.912.912,0,0,0,.063,1.178c.076.076,6.688,9.8,6.992,19.685a1.127,1.127,0,0,0,.089.317Z" transform="translate(-273.044 -289.945)" fill="#f0f0f0" />
					<path id="Path_1980" data-name="Path 1980" d="M318.622,428.913a.811.811,0,0,0,.684.519.709.709,0,0,0,.747-.76,31.3,31.3,0,0,0-7.917-19.862.709.709,0,0,0-1.064,0,.912.912,0,0,0,.139,1.178,30.058,30.058,0,0,1,7.322,18.506A1.265,1.265,0,0,0,318.622,428.913Z" transform="translate(-271.965 -290.448)" fill="#f0f0f0" />
					<path id="Path_1981" data-name="Path 1981" d="M324.187,426.576a.836.836,0,0,0,.671.519.7.7,0,0,0,.747-.76c0-11.033-7.8-19.583-8.158-19.925a.7.7,0,0,0-1.051,0,.9.9,0,0,0,.1,1.178c.076.076,7.6,8.348,7.6,18.6A.925.925,0,0,0,324.187,426.576Z" transform="translate(-270.55 -291.088)" fill="#ebebeb" />
				</g>
				<g id="freepik--Top--inject-3" transform="translate(10.86)">
					<g id="freepik--Arm--inject-3" transform="translate(0.108 83.256)">
						<path id="Path_1982" data-name="Path 1982" d="M385.113,263.282c-4.674,6.992-22.471,31.3-22.471,31.3-5.206-6.017-11.4-13.427-16.606-19.849-6.891-8.424-9.627-10.134-13.288-23.307-.912-3.306-3.433-7.03-4.636-9.019a28.59,28.59,0,0,1-3.471-9.716c-.19-1.685-4.5-1.2-5.295,4.231-.532,2.8.393,5.561.393,8.335,0,.849.469,2.635-.6,2.533-6.422-.925-11.147-8.221-18.823-13.389-2.774-1.849-9.868-3.8-11.4.253-.127.975.57,1.647.836,2.533a1.088,1.088,0,0,1,0,.355,5.55,5.55,0,0,1-.127,1.267c-.177.811-.519,1.571-.684,2.381a5.865,5.865,0,0,0,.431,3.661,14.783,14.783,0,0,1,1.267,2.533,9.285,9.285,0,0,0,.684,5.067,19.874,19.874,0,0,0,2.445,3.914,13.93,13.93,0,0,1,1.267,2.736,16.015,16.015,0,0,0,3.129,4.142A64.5,64.5,0,0,0,312.1,274.923c2.369,1.381,4.889,2.533,7.131,4.142a21.09,21.09,0,0,1,4.421,4.205,46.246,46.246,0,0,1,4.041,6.6V290c10.286,17.848,11.2,24.435,22.028,38.571,9.146,11.312,15.517,6.511,29.324-6.79,16.974-16.353,26.056-25.765,26.056-25.765l4.281-54.354C399.351,245.016,389.8,256.29,385.113,263.282Z" transform="translate(-288.825 -231.831)" fill="#c8856a" />
						<path id="Path_1983" data-name="Path 1983" d="M313.722,248a18.354,18.354,0,0,0,4.75,15.77C312.607,262.2,310.238,254.638,313.722,248Z" transform="translate(-282.619 -227.518)" fill="#af6152" />
						<path id="Path_1984" data-name="Path 1984" d="M404.075,238.26c-9.424,1.6-16.758,5.32-28.615,21s-23.32,32.77-23.32,32.77L342.6,281.594c3.027,1.748,2.533,15.112-2.369,21.167a20.6,20.6,0,0,1-12.034,7.03,132.215,132.215,0,0,0,9.26,15.289c4.851,6.65,7.955,8.348,12.11,8.348s8.715-2.394,19.558-12.667,28.057-26.753,28.057-26.753Z" transform="translate(-278.324 -230.116)" fill="#0dbdb8" />
						<path id="Path_1985" data-name="Path 1985" d="M404.075,238.26c-9.424,1.6-16.758,5.32-28.615,21s-23.32,32.77-23.32,32.77L342.6,281.594c3.027,1.748,2.533,15.112-2.369,21.167a20.6,20.6,0,0,1-12.034,7.03,132.215,132.215,0,0,0,9.26,15.289c4.851,6.65,7.955,8.348,12.11,8.348s8.715-2.394,19.558-12.667,28.057-26.753,28.057-26.753Z" transform="translate(-278.324 -230.116)" fill="#fff" opacity="0.55" />
						<path id="Path_1986" data-name="Path 1986" d="M347.1,281.3c5.067,5.573,8.6,15.289,8.246,20.267,2.115-5.865,0-15.846-6.333-23.054Z" transform="translate(-273.284 -219.381)" fill="#0dbdb8" opacity="0.35" />
						<path id="Path_1987" data-name="Path 1987" d="M331.5,304.069a20.393,20.393,0,0,0,3.471-1.077,19.391,19.391,0,0,0,6.169-4.028,21.369,21.369,0,0,0,6.334-12.312c0-.241.291-.165.279,0a19.773,19.773,0,0,1-6.245,13.44,21.409,21.409,0,0,1-6.523,4.066,22.066,22.066,0,0,1-2.989.925l-.621-1.039Z" transform="translate(-277.479 -217.251)" fill="#0dbdb8" opacity="0.35" />
					</g>
					<g id="freepik--Chest--inject-3" transform="translate(95.382)">
						<path id="Path_1988" data-name="Path 1988" d="M377.51,273.156c1.267-26.335,7.271-33.606,20.635-35.088l22.041-2.318c6.549,1.343,29.058,8.512,36.633,11.147,4.889,1.685,6.992,12.059,8.031,28.3.861,13.186.988,24.245.545,42.472-.355,15.289-.735,32.693-5.4,53.936-18.253,6.916-70.935.317-91.988-23.763,1.685-5.447,8.436-15.289,9.5-26.233C376.864,298.68,377.1,281.427,377.51,273.156Z" transform="translate(-362.981 -147.529)" fill="#263238" />
						<path id="Path_1989" data-name="Path 1989" d="M447.063,245.5,430.6,239.7s-2.977,6.929-9.361,20.267-6.6,19.3-7.195,42.472-4.839,63.892-7.6,73.291c10.21,1.419,19,16.214,45.272,11.628,0,0,5.51-26.829,6.333-72.544C458.539,291.065,458.666,252.19,447.063,245.5Z" transform="translate(-352.732 -146.476)" fill="#0dbdb8" />
						<path id="Path_1990" data-name="Path 1990" d="M447.063,245.5,430.6,239.7s-2.977,6.929-9.361,20.267-6.6,19.3-7.195,42.472-4.839,63.892-7.6,73.291c10.21,1.419,19,16.214,45.272,11.628,0,0,5.51-26.829,6.333-72.544C458.539,291.065,458.666,252.19,447.063,245.5Z" transform="translate(-352.732 -146.476)" fill="#fff" opacity="0.35" />
						<path id="Path_1991" data-name="Path 1991" d="M413.17,283.172c2.533-20.8,11.286-21.876,13.3-15.048,7.6-11.324,7.892-21.053,7.765-24.941-2.065-3.572-3.673-6.574-4.357-7.93-.912-1.773-1.951-1.406-1.951-1.406l-.063,5.282s-1.267,6.055-7.423,13.693C415.868,258.446,414.221,265.628,413.17,283.172Z" transform="translate(-350.937 -148.045)" fill="#0dbdb8" />
						<path id="Path_1992" data-name="Path 1992" d="M413.17,283.172c2.533-20.8,11.286-21.876,13.3-15.048,7.6-11.324,7.892-21.053,7.765-24.941-2.065-3.572-3.673-6.574-4.357-7.93-.912-1.773-1.951-1.406-1.951-1.406l-.063,5.282s-1.267,6.055-7.423,13.693C415.868,258.446,414.221,265.628,413.17,283.172Z" transform="translate(-350.937 -148.045)" fill="#fff" opacity="0.55" />
						<path id="Path_1993" data-name="Path 1993" d="M411.275,238.677c-9.374,3.648-16.252,14.06-18.468,28.463s-4.015,51.162-5.573,62.068-8.5,29.818-8.5,29.818-11.514-4.737-14.694-13.769c5.295-6.9,10.21-16.467,11.122-25.562s.076-37.938,1.444-49,2.533-26.309,15.631-31.414c5.637-2.2,18.937-3.065,18.937-3.065Z" transform="translate(-364.04 -147.404)" fill="#0dbdb8" />
						<path id="Path_1994" data-name="Path 1994" d="M411.275,238.677c-9.374,3.648-16.252,14.06-18.468,28.463s-4.015,51.162-5.573,62.068-8.5,29.818-8.5,29.818-11.514-4.737-14.694-13.769c5.295-6.9,10.21-16.467,11.122-25.562s.076-37.938,1.444-49,2.533-26.309,15.631-31.414c5.637-2.2,18.937-3.065,18.937-3.065Z" transform="translate(-364.04 -147.404)" fill="#fff" opacity="0.35" />
						<path id="Path_1995" data-name="Path 1995" d="M387.291,276.092c1.267-10.59,7.309-29.552,18.785-33.416a9.108,9.108,0,0,0,.684-3.357l-.1-5.51a46.868,46.868,0,0,0-9.792,4.775c-4.953,3.2-13.5,13.44-15.707,21.686C386.024,256.053,388.051,262.919,387.291,276.092Z" transform="translate(-359.474 -148.047)" fill="#0dbdb8" />
						<path id="Path_1996" data-name="Path 1996" d="M387.291,276.092c1.267-10.59,7.309-29.552,18.785-33.416a9.108,9.108,0,0,0,.684-3.357l-.1-5.51a46.868,46.868,0,0,0-9.792,4.775c-4.953,3.2-13.5,13.44-15.707,21.686C386.024,256.053,388.051,262.919,387.291,276.092Z" transform="translate(-359.474 -148.047)" fill="#fff" opacity="0.55" />
						<g id="freepik--Head--inject-3" transform="translate(17.541)">
							<path id="Path_1997" data-name="Path 1997" d="M437.261,243.634c1.267-7.41,8.7-15.112,12.059-21.534,3.23-6.22,5.168-11.046,4.839-16.91-.2-3.471-2.369-8.183-4.94-9.184,3.04-12.882-6.612-18.924-11.742-20.166a55.408,55.408,0,0,1-7.106-2.027c-2.787-1.178-3.407-3.433-5.649-5.358-3.863-3.306-10.4-3.42-12.908,1.558-2.533-3.357-6.067-3.281-10.134-2.28a6.9,6.9,0,0,0-5.333,7.79c-5.4-3.053-10.387.735-10.894,3.914-.38,2.343.114,4.332-1.431,6.422-1.748,2.369-5.067,2.305-6,.393-.57,3.331.722,5.877,4.332,5.713a7.6,7.6,0,0,0-.975,6.334,6.929,6.929,0,0,0,6.232,4.8c.367,1.837.443,3.509,1.583,5.067a12.021,12.021,0,0,0,4.231,3.863c5.459,2.635,11.514,3.509,17.4,4.763l6.992,1.482c.405.089,2.533.228,2.761.583Z" transform="translate(-377.888 -166.104)" fill="#263238" />
							<path id="Path_1998" data-name="Path 1998" d="M444.716,229.054c-5.219,3.091-8.74-.291-8.74-.291l-.3,24.333c-4.117,10.438-20.609,15.656-29.78,15.352a29.983,29.983,0,0,1,.127-16.1l-.1-6.7a70.663,70.663,0,0,1-8.867-.431c-5.8-.823-10.134-5.561-11.78-11.869a65.234,65.234,0,0,1-.6-24.954,21.534,21.534,0,0,0,.342-6.105c-.532-5.409.456-8.55,1.875-13.085,6.422-5.067,21.23-6.8,34.986,1.647-1.634,8.208,1.52,14.732,7.486,17.886-.291,2.217-.6,7.816,3.04,7.727,2.635-.063,2.825-3.357,5.535-6.245s8.994-3.635,11.4.659C452.773,216.868,450.454,225.672,444.716,229.054Z" transform="translate(-376.325 -161.075)" fill="#c8856a" />
							<path id="Path_1999" data-name="Path 1999" d="M401.25,236.99c9.222-1.039,16.226-2.014,21.065-8.664a57.411,57.411,0,0,0,5.611-10.906s-.975,8.158-4.015,13.68c-2.343,4.256-8.158,7.778-22.623,8.956Z" transform="translate(-371.657 -152.418)" fill="#af6152" />
							<path id="Path_2000" data-name="Path 2000" d="M404.91,205.266a2.6,2.6,0,1,0,2.533-2.736,2.66,2.66,0,0,0-2.533,2.736Z" transform="translate(-370.681 -156.389)" fill="#263238" />
							<path id="Path_2001" data-name="Path 2001" d="M405.5,198.433l5.865,2.419a3.344,3.344,0,0,0-1.786-4.256,3.116,3.116,0,0,0-4.079,1.837Z" transform="translate(-370.524 -158.03)" fill="#263238" />
							<path id="Path_2002" data-name="Path 2002" d="M387.874,200.166l5.991-2.191a3.053,3.053,0,0,0-3.99-1.963A3.344,3.344,0,0,0,387.874,200.166Z" transform="translate(-375.268 -158.179)" fill="#263238" />
							<path id="Path_2003" data-name="Path 2003" d="M389,204.68a2.533,2.533,0,1,0,2.318-2.939A2.622,2.622,0,0,0,389,204.68Z" transform="translate(-374.929 -156.601)" fill="#263238" />
							<path id="Path_2004" data-name="Path 2004" d="M391.89,214.5l9.006,4.041,2.85-17.734C400.39,199.638,396.045,207.758,391.89,214.5Z" transform="translate(-374.154 -156.879)" fill="#af6152" />
							<path id="Path_2005" data-name="Path 2005" d="M407.968,217.71,397.1,219.99a5.447,5.447,0,0,0,6.46,4.471,5.827,5.827,0,0,0,4.408-6.751Z" transform="translate(-372.764 -152.34)" fill="#af6152" />
							<path id="Path_2006" data-name="Path 2006" d="M405.664,219.108a5.939,5.939,0,0,1,1.343,0,5.763,5.763,0,0,1-4.433,4.965,5.587,5.587,0,0,1-1.773,0A5.067,5.067,0,0,1,405.664,219.108Z" transform="translate(-371.777 -151.978)" fill="#ffa8a7" />
						</g>
					</g>
					<g id="freepik--arm--inject-3-2" data-name="freepik--arm--inject-3" transform="translate(0 99.026)">
						<g id="freepik--Laptop--inject-3" transform="translate(0 62.6)">
							<path id="Path_2007" data-name="Path 2007" d="M316.88,367.319a17.011,17.011,0,0,1,2.647-3.1c10.134-9.374,29.134-21.775,45.348-32.085l73.583,42.5a.684.684,0,0,1,0,1.178L385.016,406.7Z" transform="translate(-281.235 -283.451)" opacity="0.15" />
							<path id="Path_2008" data-name="Path 2008" d="M299.27,342.85v1.191a4.9,4.9,0,0,0,2.445,4.243l85.553,49.4a4.966,4.966,0,0,0,2.445.646,4.9,4.9,0,0,0,2.457-.659l46.64-26.841a4.89,4.89,0,0,0,2.432-4.231v-1.647h0a.633.633,0,0,1-.317.545l-51.213,29.577Z" transform="translate(-285.932 -280.592)" fill="#37474f" />
							<path id="Path_2009" data-name="Path 2009" d="M389.715,395.076v3.255a4.965,4.965,0,0,1-2.445-.646l-85.553-49.4a4.9,4.9,0,0,1-2.457-4.243V342.85Z" transform="translate(-285.934 -280.592)" fill="#263238" />
							<path id="Path_2010" data-name="Path 2010" d="M299.26,349.1l50.731-29.286a2.939,2.939,0,0,1,2.926,0l88.01,50.82a.659.659,0,0,1,0,1.127l-51.213,29.565Z" transform="translate(-285.934 -286.84)" fill="#455a64" />
							<path id="Path_2011" data-name="Path 2011" d="M387.917,393.73l27.361-15.783-80-46.2L307.76,347.457Z" transform="translate(-283.667 -283.552)" fill="#37474f" />
							<path id="Path_2012" data-name="Path 2012" d="M307.76,347.457l1.051.6,26.461-15.1,78.953,45.6,1.051-.608-80-46.2Z" transform="translate(-283.667 -283.552)" fill="#263238" />
							<path id="Path_2013" data-name="Path 2013" d="M389.717,348.978l-.507.291-13.414,7.74L351.944,343.24l-.494-.279,13.921-8.031Z" transform="translate(-272.015 -282.704)" fill="#263238" />
							<path id="Path_2014" data-name="Path 2014" d="M389.106,349.149l-13.414,7.74L351.84,343.119l13.427-7.74Z" transform="translate(-271.911 -282.584)" fill="#37474f" />
							<g id="freepik--arm--inject-3-3" data-name="freepik--arm--inject-3" transform="translate(88.841 26.563)">
								<path id="Path_2015" data-name="Path 2015" d="M360.781,360.208c4.294-4.256,10.514-10.134,15.745-11.882a29.131,29.131,0,0,1,3.686-1.153,43.06,43.06,0,0,1-5.383-1.064,9.512,9.512,0,0,1-4.535-3.015c-.456-.583-.785-1.52-.2-1.989a1.267,1.267,0,0,1,.747-.279c3.914-.114,7-.722,10.564-.988a15.2,15.2,0,0,1,4.8.089c1.457.405,2.913.823,4.345,1.267,6.511,2.255,12.667,1.647,21.635-2.457s41.345-24.067,41.345-24.067l-6.866,38L421.1,362.6h0l-.266.1c-2.039.76-3.889,2.356-8.778,3.863-5.8,1.773-13.212-.329-18.253-.6s-13.617,2.065-18.3,3.952-10.273-5.295-12.667-4.433S356.5,364.489,360.781,360.208Z" transform="translate(-358.876 -314.67)" fill="#c8856a" />
								<path id="Path_2016" data-name="Path 2016" d="M379.886,338.313a17.582,17.582,0,0,1,7.132,1.165,38.344,38.344,0,0,0-9.3,1.609,43.06,43.06,0,0,1-5.383-1.064,9.944,9.944,0,0,1-4.117-2.533C371.032,339.4,376.492,338.668,379.886,338.313Z" transform="translate(-356.384 -308.584)" fill="#af6152" />
							</g>
							<path id="Path_2017" data-name="Path 2017" d="M391.14,408.717a5.814,5.814,0,0,1-4.991-.38l-85.185-49.186a5.789,5.789,0,0,1-2.812-4.053l-9.336-55.621a6.007,6.007,0,0,1-.076-.95,5.827,5.827,0,0,1,1.71-4.117L379,345.534a4.269,4.269,0,0,1,2.077,2.989Z" transform="translate(-288.74 -293.511)" fill="#263238" />
							<path id="Path_2018" data-name="Path 2018" d="M392.171,408.184l-.583.342a7.711,7.711,0,0,1-.8.38l-10.134-60.193a4.269,4.269,0,0,0-2.077-2.989L290.05,294.6a6.119,6.119,0,0,1,1.191-.9l88.669,51.213a4.306,4.306,0,0,1,2.077,3Z" transform="translate(-288.391 -293.7)" fill="#455a64" />
							<path id="Path_2019" data-name="Path 2019" d="M361,335.825l1.368-.785a4.206,4.206,0,0,1,.811,1.849l10.134,60.269-.583.342a7.7,7.7,0,0,1-.8.38L361.8,337.687A4.319,4.319,0,0,0,361,335.825Z" transform="translate(-269.468 -282.675)" fill="#37474f" />
							<path id="Path_2020" data-name="Path 2020" d="M334.87,346.71c-.633-3.724-4.471-8.664-8.588-11.046s-6.954-1.267-6.334,2.432,4.471,8.677,8.588,11.046S335.49,350.434,334.87,346.71Z" transform="translate(-280.44 -282.843)" fill="#0dbdb8" />
						</g>
						<path id="Path_2021" data-name="Path 2021" d="M414,351.053c13.642-9.88,24.878-17.734,24.878-17.734l-3.9-41.928s-2.951-20.736,1.723-32.478c4.851-12.173,9.64-13.934,9.64-13.934a47.6,47.6,0,0,1,13.2,7.41c5.282,4.623,7.8,15.365,9.082,30.515,1.115,13.3,3.217,46.652,3.547,54.468.431,9.88,0,17.81-10.488,22.585-11.033,5.067-44.106,16.34-44.106,16.34Z" transform="translate(-255.333 -244.093)" fill="#c8856a" />
						<path id="Path_2022" data-name="Path 2022" d="M443.305,244.28c10.729,3.433,16.2,5.409,20.736,17.974s4.37,35.645,5.751,54.139,2.407,30.565-.557,36.4c-1.621,3.2-4.585,6.143-15.2,10.134s-20.837,7.6-20.837,7.6-1.013-16.34-12.667-27.335l16.011-9.741s-3.686-37.76-4.573-48.135S429.992,253.223,443.305,244.28Z" transform="translate(-253.592 -244.28)" fill="#0dbdb8" />
						<path id="Path_2023" data-name="Path 2023" d="M443.305,244.28c10.729,3.433,16.2,5.409,20.736,17.974s4.37,35.645,5.751,54.139,2.407,30.565-.557,36.4c-1.621,3.2-4.585,6.143-15.2,10.134s-20.837,7.6-20.837,7.6-1.013-16.34-12.667-27.335l16.011-9.741s-3.686-37.76-4.573-48.135S429.992,253.223,443.305,244.28Z" transform="translate(-253.592 -244.28)" fill="#fff" opacity="0.55" />
						<path id="Path_2024" data-name="Path 2024" d="M433.248,315.7c6.257-2.951,18.7-.291,21.357,1.951-3.167-5.472-11.628-7.435-21.775-6.169Z" transform="translate(-250.311 -226.457)" fill="#0dbdb8" opacity="0.35" />
						<path id="Path_2025" data-name="Path 2025" d="M430.059,323.725a15.035,15.035,0,0,1,4.56,5.421,26.6,26.6,0,0,1,2.533,6.334,33.975,33.975,0,0,1,1.077,7.816,33.571,33.571,0,0,1,0,3.382l-1.191.431a32.934,32.934,0,0,0-.925-11.223,29.348,29.348,0,0,0-2.533-6.27,59.846,59.846,0,0,0-3.8-5.637C429.818,323.915,429.843,323.611,430.059,323.725Z" transform="translate(-251.125 -223.099)" fill="#0dbdb8" opacity="0.35" />
					</g>
				</g>
			</g>
		</g>
		<g id="freepik--speech-bubble--inject-3" transform="translate(499.594 60.395)">
			<g id="freepik--speech-bubble--inject-3-2" data-name="freepik--speech-bubble--inject-3">
				<g id="freepik--speech-bubble--inject-3-3" data-name="freepik--speech-bubble--inject-3">
					<path id="Path_2026" data-name="Path 2026" d="M415.63,146.215l5.713-10.729-4.6-13.25V114.13l14.048,8.107v8.12l-6.042,10.45a.874.874,0,0,1-.405.367h0Z" transform="translate(-390.423 -44.265)" fill="#0dbdb8" />
					<path id="Path_2027" data-name="Path 2027" d="M415.63,146.215l5.713-10.729-4.6-13.25V114.13l14.048,8.107v8.12l-6.042,10.45a.874.874,0,0,1-.405.367h0Z" transform="translate(-390.423 -44.265)" opacity="0.3" />
					<path id="Path_2028" data-name="Path 2028" d="M395.73,69.254a9.31,9.31,0,0,1,4.205-7.284l3.433-1.989a9.31,9.31,0,0,1,8.424,0l42.726,24.625a9.31,9.31,0,0,1,4.205,7.334V149.8a9.323,9.323,0,0,1-4.205,7.3l-3.433,1.976a9.31,9.31,0,0,1-8.424,0l-15.378-8.867-6.03,10.438a.9.9,0,0,1-1.634-.152L413.286,142.1l-13.326-7.6a9.323,9.323,0,0,1-4.206-7.3Z" transform="translate(-395.73 -58.975)" fill="#0dbdb8" />
					<path id="Path_2029" data-name="Path 2029" d="M448.69,143.695a9.323,9.323,0,0,1-4.205,7.3l-3.433,2.027a9.424,9.424,0,0,1-7.7.342c1.989.747,3.5-.367,3.5-2.774v-57.9a8.652,8.652,0,0,0-1.267-4.155l11.856-6.84a8.588,8.588,0,0,1,1.267,4.142Z" transform="translate(-385.697 -52.917)" opacity="0.3" />
					<path id="Path_2030" data-name="Path 2030" d="M395.84,68.062c.494-1.786,2.115-2.356,4.066-1.267L442.632,91.42a8.385,8.385,0,0,1,2.977,3.141l11.844-6.84a8.665,8.665,0,0,0-2.964-3.141l-42.713-24.6a9.411,9.411,0,0,0-8.436,0l-3.433,1.989A9.31,9.31,0,0,0,395.84,68.062Z" transform="translate(-395.701 -58.973)" fill="#fff" opacity="0.3" />
				</g>
				<path id="freepik--shield--inject-3-4" data-name="freepik--shield--inject-3" d="M403.721,84.144c.367,10.716,2.774,31.984,16.138,44.854,9.386-5.067,13.934-19.824,13.617-28.944a1.735,1.735,0,0,0-.481-1.14,2.382,2.382,0,0,0-.811-.557c-4.079-1.647-10.362-8.563-13.427-15.492-.215-.494-.532-.646-.861-.481h0a1.267,1.267,0,0,0-.291.253h0V82.7c-2.888,3.6-8.791,3.8-12.832.912-.3-.215-.557-.279-.722-.19h0C403.772,83.561,403.7,83.789,403.721,84.144Z" transform="translate(-393.6 -52.749)" fill="#fafafa" />
			</g>
		</g>
	</g>
</svg>
