<svg id="Novelist_writing-cuate" data-name="Novelist writing-cuate" xmlns="http://www.w3.org/2000/svg" width="650.383" height="585.511" viewBox="0 0 650.383 585.511">
	<g id="freepik--background-complete--inject-2" transform="translate(0 0)">
		<rect id="Rectangle_202" data-name="Rectangle 202" width="247.813" height="10.871" transform="translate(370.849 80.785)" fill="#ebebeb" />
		<rect id="Rectangle_203" data-name="Rectangle 203" width="10.871" height="35.946" transform="translate(384.739 91.656)" fill="#ebebeb" />
		<rect id="Rectangle_204" data-name="Rectangle 204" width="10.871" height="11.109" transform="translate(384.739 91.656)" fill="#dbdbdb" />
		<rect id="Rectangle_205" data-name="Rectangle 205" width="10.871" height="35.946" transform="translate(593.9 91.656)" fill="#ebebeb" />
		<rect id="Rectangle_206" data-name="Rectangle 206" width="10.871" height="11.109" transform="translate(593.9 91.656)" fill="#dbdbdb" />
		<rect id="Rectangle_207" data-name="Rectangle 207" width="69.259" height="17.445" transform="translate(434.546 11.526) rotate(90)" fill="#c7c7c7" />
		<rect id="Rectangle_208" data-name="Rectangle 208" width="7.614" height="17.445" transform="translate(434.546 7.838) rotate(90)" fill="#dbdbdb" />
		<rect id="Rectangle_209" data-name="Rectangle 209" width="2.826" height="17.445" transform="translate(434.546 25.193) rotate(90)" fill="#dbdbdb" />
		<rect id="Rectangle_210" data-name="Rectangle 210" width="7.614" height="19.616" transform="translate(436.717 64.098) rotate(90)" fill="#dbdbdb" />
		<rect id="Rectangle_211" data-name="Rectangle 211" width="80.8" height="12.195" transform="translate(446.741 0) rotate(90)" fill="#dbdbdb" />
		<rect id="Rectangle_212" data-name="Rectangle 212" width="31.068" height="7.317" transform="translate(444.242 7.585) rotate(90)" fill="#ebebeb" />
		<rect id="Rectangle_213" data-name="Rectangle 213" width="80.8" height="12.195" transform="matrix(0.711, 0.703, -0.703, 0.711, 476.006, 15.343)" fill="#c7c7c7" />
		<rect id="Rectangle_214" data-name="Rectangle 214" width="31.068" height="7.317" transform="matrix(0.711, 0.703, -0.703, 0.711, 496.175, 38.684)" fill="#dbdbdb" />
		<rect id="Rectangle_215" data-name="Rectangle 215" width="61.362" height="20.702" transform="translate(467.428 19.438) rotate(90)" fill="#a6a6a6" />
		<rect id="Rectangle_216" data-name="Rectangle 216" width="5.726" height="20.702" transform="translate(467.428 68.575) rotate(90)" fill="#c7c7c7" />
		<rect id="Rectangle_217" data-name="Rectangle 217" width="2.216" height="20.702" transform="translate(467.428 62.611) rotate(90)" fill="#c7c7c7" />
		<rect id="Rectangle_218" data-name="Rectangle 218" width="57.674" height="14.292" transform="translate(417.101 23.141) rotate(90)" fill="#a6a6a6" />
		<rect id="Rectangle_219" data-name="Rectangle 219" width="5.369" height="14.292" transform="translate(417.101 69.318) rotate(90)" fill="#c7c7c7" />
		<rect id="Rectangle_220" data-name="Rectangle 220" width="5.369" height="14.292" transform="translate(417.101 35.024) rotate(90)" fill="#c7c7c7" />
		<rect id="Rectangle_221" data-name="Rectangle 221" width="2.082" height="14.292" transform="translate(417.101 44.081) rotate(90)" fill="#c7c7c7" />
		<path id="Path_1513" data-name="Path 1513" d="M242.3,433.919H504.449V58.43H242.3Zm254.505-7.659H249.929V66.089H496.805Z" transform="translate(-167.806 -56.943)" fill="#ebebeb" />
		<rect id="Rectangle_222" data-name="Rectangle 222" width="7.644" height="362" transform="translate(204.728 11.139)" fill="#ebebeb" />
		<rect id="Rectangle_223" data-name="Rectangle 223" width="276.025" height="10.648" transform="translate(67.564 16.954)" fill="#ebebeb" />
		<rect id="Rectangle_224" data-name="Rectangle 224" width="276.025" height="10.648" transform="translate(67.564 28.941)" fill="#ebebeb" />
		<rect id="Rectangle_225" data-name="Rectangle 225" width="276.025" height="10.648" transform="translate(67.564 40.928)" fill="#ebebeb" />
		<rect id="Rectangle_226" data-name="Rectangle 226" width="276.025" height="10.648" transform="translate(67.564 52.915)" fill="#ebebeb" />
		<rect id="Rectangle_227" data-name="Rectangle 227" width="276.025" height="10.648" transform="translate(67.564 64.902)" fill="#ebebeb" />
		<rect id="Rectangle_228" data-name="Rectangle 228" width="276.025" height="10.648" transform="translate(67.564 76.888)" fill="#ebebeb" />
		<rect id="Rectangle_229" data-name="Rectangle 229" width="276.025" height="10.648" transform="translate(67.564 88.875)" fill="#ebebeb" />
		<rect id="Rectangle_230" data-name="Rectangle 230" width="276.025" height="10.648" transform="translate(67.564 100.862)" fill="#ebebeb" />
		<rect id="Rectangle_231" data-name="Rectangle 231" width="276.025" height="10.648" transform="translate(67.564 112.849)" fill="#ebebeb" />
		<rect id="Rectangle_232" data-name="Rectangle 232" width="1.918" height="207.316" transform="translate(90.273 14.798)" fill="#263238" />
		<path id="Path_1514" data-name="Path 1514" d="M405.03,215.966h6.8l-1.71-9.756H406.74Z" transform="translate(-317.196 15.056)" fill="#263238" />
		<rect id="Rectangle_233" data-name="Rectangle 233" width="1.918" height="316.997" transform="translate(83.387 14.798)" fill="#263238" />
		<path id="Path_1515" data-name="Path 1515" d="M409.66,288.546h6.8l-1.71-9.756H411.37Z" transform="translate(-328.712 50.417)" fill="#263238" />
		<rect id="Rectangle_234" data-name="Rectangle 234" width="299.775" height="22.293" transform="translate(55.681)" fill="#dbdbdb" />
		<rect id="Rectangle_235" data-name="Rectangle 235" width="39.381" height="16.642" transform="translate(589.036 347.901)" fill="#ebebeb" />
		<rect id="Rectangle_236" data-name="Rectangle 236" width="39.381" height="16.642" transform="translate(611.002 368.886)" fill="#ebebeb" />
		<rect id="Rectangle_237" data-name="Rectangle 237" width="39.381" height="16.642" transform="translate(437.595 222.932)" fill="#ebebeb" />
		<rect id="Rectangle_238" data-name="Rectangle 238" width="39.381" height="16.642" transform="translate(459.561 243.916)" fill="#ebebeb" />
		<rect id="Rectangle_239" data-name="Rectangle 239" width="39.381" height="16.642" transform="translate(481.437 222.932)" fill="#ebebeb" />
		<rect id="Rectangle_240" data-name="Rectangle 240" width="39.381" height="16.642" transform="translate(0 368.886)" fill="#ebebeb" />
		<rect id="Rectangle_241" data-name="Rectangle 241" width="39.381" height="16.642" transform="translate(21.966 43.991)" fill="#ebebeb" />
		<rect id="Rectangle_242" data-name="Rectangle 242" width="39.381" height="16.642" transform="translate(0 64.976)" fill="#ebebeb" />
		<rect id="Rectangle_243" data-name="Rectangle 243" width="39.381" height="16.642" transform="translate(589.036 43.991)" fill="#ebebeb" />
	</g>
	<g id="freepik--Shadow--inject-2" transform="translate(34.89 477.868)">
		<ellipse id="Ellipse_55" data-name="Ellipse 55" cx="290.302" cy="52.126" rx="290.302" ry="52.126" transform="translate(0 3.391)" fill="#ebebeb" />
		<ellipse id="Ellipse_56" data-name="Ellipse 56" cx="62.373" cy="12.314" rx="62.373" ry="12.314" transform="translate(444.317)" fill="#ebebeb" />
	</g>
	<g id="freepik--Plant--inject-2" transform="translate(40.087 249.746)">
		<path id="Path_1516" data-name="Path 1516" d="M411.75,259.747c-22.888,22.4-26.77,57.064-21.907,87.433.134.684,1.19.491,1.19-.149,0-6.915-.208-13.757-.178-20.6.119-.312.223-.595.357-.907,5.949-4.343,11.466-9.25,14.872-15.987,3.822-7.51,5.324-15.987,8.254-23.8.268-.758-.535-.535-1.056-.149-13.92,10.277-18.352,21.326-22.308,36.08A123.035,123.035,0,0,1,393.4,298.7c2.974-14.024,8.923-27.9,19.021-38.31a.463.463,0,0,0-.669-.639Z" transform="translate(-334.512 -208.676)" fill="#263238" />
		<path id="Path_1517" data-name="Path 1517" d="M380.771,268.233c3.926.134,6.395,6.425,9.473,8.269a2.974,2.974,0,0,0,4.343-.684c2.974-4.239-1.13-9.474-5.057-12.4,2.811,1.145,5.131,3.183,8.15,3.748a2.841,2.841,0,0,0,3.688-2.2c1.338-5.785-5.949-8.358-10.9-8.477,2.409-1.681,9.325-6.246,5.651-8.492s-11.9,4.268-14.485,6.425c-3.9,3.153-8.537,7.867-8.715,12.82C372.7,272.992,377.737,269.452,380.771,268.233Z" transform="translate(-299.22 -214.56)" fill="#0dbdb8" />
		<path id="Path_1518" data-name="Path 1518" d="M380.771,268.233c3.926.134,6.395,6.425,9.473,8.269a2.974,2.974,0,0,0,4.343-.684c2.974-4.239-1.13-9.474-5.057-12.4,2.811,1.145,5.131,3.183,8.15,3.748a2.841,2.841,0,0,0,3.688-2.2c1.338-5.785-5.949-8.358-10.9-8.477,2.409-1.681,9.325-6.246,5.651-8.492s-11.9,4.268-14.485,6.425c-3.9,3.153-8.537,7.867-8.715,12.82C372.7,272.992,377.737,269.452,380.771,268.233Z" transform="translate(-299.22 -214.56)" opacity="0.1" />
		<path id="Path_1519" data-name="Path 1519" d="M383.689,267.469c5.027-2.29,14.708,1,15.526-.907,1.666-3.882-6.068-6.544-10.232-7.049,3.837-1.041,11.2-2.707,10.976-6.41-.283-4.462-11.288-.625-16.865,3.644-7.02,5.384-6.975,10.574-5.815,11.615C378.871,269.789,382.856,267.841,383.689,267.469Z" transform="translate(-303.284 -212.814)" fill="#0dbdb8" />
		<path id="Path_1520" data-name="Path 1520" d="M408.8,258.249c23.721,21.52,28.867,56.008,25.208,86.525-.1.7-1.175.55-1.19-.1-.268-6.9-.327-13.757-.595-20.568-.149-.312-.253-.61-.4-.907-6.127-4.12-11.808-8.819-15.452-15.407-4.1-7.362-5.949-15.779-9.161-23.513-.3-.744.521-.55,1.056-.178,14.307,9.726,19.155,20.6,23.706,35.2a123.257,123.257,0,0,0-3.287-22.888c-3.539-13.876-10.024-27.528-20.479-37.537a.431.431,0,1,1,.595-.625Z" transform="translate(-383.672 -209.394)" fill="#263238" />
		<path id="Path_1521" data-name="Path 1521" d="M443.272,266.69c-3.926.283-6.157,6.663-9.146,8.611a2.974,2.974,0,0,1-4.372-.506c-3.2-4.134.773-9.518,4.581-12.6-2.766,1.264-5.012,3.376-8,4.06a2.855,2.855,0,0,1-3.778-2.067c-1.487-5.726,5.607-8.566,10.574-8.923-2.469-1.591-9.563-5.949-5.949-8.269s12,3.822,14.738,5.86c4,2.974,8.819,7.555,9.191,12.478C451.526,271.136,446.35,267.79,443.272,266.69Z" transform="translate(-422.354 -215.068)" fill="#0dbdb8" />
		<path id="Path_1522" data-name="Path 1522" d="M443.272,266.69c-3.926.283-6.157,6.663-9.146,8.611a2.974,2.974,0,0,1-4.372-.506c-3.2-4.134.773-9.518,4.581-12.6-2.766,1.264-5.012,3.376-8,4.06a2.855,2.855,0,0,1-3.778-2.067c-1.487-5.726,5.607-8.566,10.574-8.923-2.469-1.591-9.563-5.949-5.949-8.269s12,3.822,14.738,5.86c4,2.974,8.819,7.555,9.191,12.478C451.526,271.136,446.35,267.79,443.272,266.69Z" transform="translate(-422.354 -215.068)" opacity="0.1" />
		<path id="Path_1523" data-name="Path 1523" d="M438.96,265.863c-5.116-2.1-14.649,1.576-15.541-.3-1.814-3.822,5.8-6.767,9.949-7.436-3.882-.907-11.288-2.275-11.214-5.949.1-4.462,11.258-1.056,17,2.974,7.213,5.116,7.436,10.306,6.246,11.392C443.867,268.019,439.807,266.22,438.96,265.863Z" transform="translate(-416.867 -213.32)" fill="#0dbdb8" />
		<path id="Path_1524" data-name="Path 1524" d="M417.1,322.8a234.634,234.634,0,0,0,7.362,34.027.848.848,0,0,0,1.651-.342c-1.487-10.485-4.387-20.821-5.949-31.231a157.642,157.642,0,0,1-1.829-32.094c1-17.7,5.8-36.422,17.356-50.312.268-.327-.283-.788-.535-.491-23.081,26.918-19.408,59.919-19.334,62.864-3.272-11.139-6.633-23.914-18.992-35.247-.535-.491-.952-.268-.863.565,2.2,20.672,7.957,31.454,19.928,42.5Q416.353,317.971,417.1,322.8Z" transform="translate(-367.714 -217.123)" fill="#263238" />
		<path id="Path_1525" data-name="Path 1525" d="M392.007,254.182c4.149-1.844,9.875,3.435,13.98,3.807a3.406,3.406,0,0,0,4.164-2.974c1.026-5.949-5.949-9.265-11.481-10.336,3.48-.208,6.915.729,10.41-.208a3.272,3.272,0,0,0,2.707-4.134c-1.487-6.678-10.411-5.7-15.586-3.316,1.666-2.974,6.544-11.169,1.606-11.645s-10.143,10.41-11.808,13.95c-2.454,5.235-4.893,12.463-2.588,17.683C386.028,263.18,389.464,256.963,392.007,254.182Z" transform="translate(-323.841 -225.36)" fill="#0dbdb8" />
		<path id="Path_1526" data-name="Path 1526" d="M392.007,254.182c4.149-1.844,9.875,3.435,13.98,3.807a3.406,3.406,0,0,0,4.164-2.974c1.026-5.949-5.949-9.265-11.481-10.336,3.48-.208,6.915.729,10.41-.208a3.272,3.272,0,0,0,2.707-4.134c-1.487-6.678-10.411-5.7-15.586-3.316,1.666-2.974,6.544-11.169,1.606-11.645s-10.143,10.41-11.808,13.95c-2.454,5.235-4.893,12.463-2.588,17.683C386.028,263.18,389.464,256.963,392.007,254.182Z" transform="translate(-323.841 -225.36)" opacity="0.1" />
		<path id="Path_1527" data-name="Path 1527" d="M394.363,253.748c4.075-4.908,15.764-6.35,15.66-8.745-.223-4.863-9.578-3.733-14.173-2.171,3.465-2.974,10.262-8.432,8.165-12.165-2.558-4.551-12.031,5.027-15.66,12.269-4.581,9.117-1.918,14.485-.193,14.976C390.541,258.6,393.694,254.566,394.363,253.748Z" transform="translate(-326.896 -223.349)" fill="#0dbdb8" />
		<path id="Path_1528" data-name="Path 1528" d="M394.087,300.629l-10.187,77.8h61.957c-1.279-6.9-12.82-77.885-12.82-77.885Z" transform="translate(-359.889 -188.732)" fill="#0dbdb8" />
	</g>
	<g id="freepik--Desk--inject-2" transform="translate(23.944 438.472)">
		<path id="Path_1529" data-name="Path 1529" d="M649.936,353l-75.312-.372-75.312-.119-150.624-.253-150.624.238-75.312.134L47.44,353l75.312.357,75.312.134,150.624.253,150.624-.253,75.312-.134Z" transform="translate(-47.44 -352.26)" fill="#263238" />
	</g>
	<g id="freepik--Notes--inject-2" transform="translate(80.086 448.942)">
		<path id="Path_1530" data-name="Path 1530" d="M448.183,416.862l-44.869-26.5-57,19.081,46.817,28.45Z" transform="translate(-346.31 -344.168)" fill="#fff" />
		<path id="Path_1531" data-name="Path 1531" d="M417.223,424.332c-2.751-2.037-5.592-3.926-8.447-5.815s-5.77-3.673-8.67-5.458-5.86-3.525-8.923-5.175l-4.462-2.484c-1.487-.788-2.974-1.606-4.581-2.35,1.383,1.026,2.8,1.978,4.194,2.974l4.328,2.9c2.855,1.889,5.755,3.688,8.67,5.473s5.86,3.51,8.849,5.175S414.145,422.815,417.223,424.332Z" transform="translate(-368.636 -337.985)" fill="#dbdbdb" />
		<path id="Path_1532" data-name="Path 1532" d="M407.971,414.271a88.973,88.973,0,0,0-10.039-6.975,88.059,88.059,0,0,0-10.812-5.7,99.95,99.95,0,0,0,20.821,12.671Z" transform="translate(-366.79 -338.691)" fill="#dbdbdb" />
		<path id="Path_1533" data-name="Path 1533" d="M408.044,421.432c-2.751-2.037-5.592-3.926-8.462-5.8s-5.755-3.688-8.656-5.473-5.86-3.51-8.849-5.176l-4.462-2.484c-1.487-.773-2.974-1.606-4.566-2.35,1.383,1.026,2.8,1.978,4.194,2.974l4.268,2.841c2.855,1.889,5.755,3.673,8.67,5.458s5.86,3.525,8.849,5.175S404.965,419.93,408.044,421.432Z" transform="translate(-345.938 -339.398)" fill="#dbdbdb" />
		<path id="Path_1534" data-name="Path 1534" d="M401.872,416.973c-4.685-3.54-9.622-6.692-14.6-9.756a164.078,164.078,0,0,0-15.378-8.477c4.685,3.54,9.622,6.692,14.6,9.756S396.578,414.371,401.872,416.973Z" transform="translate(-338.041 -340.085)" fill="#dbdbdb" />
		<path id="Path_1535" data-name="Path 1535" d="M393.2,407.819a60.515,60.515,0,0,0-8.3-5.949,59.86,59.86,0,0,0-9.072-4.64,60.508,60.508,0,0,0,8.3,5.949A61.3,61.3,0,0,0,393.2,407.819Z" transform="translate(-335.229 -340.82)" fill="#dbdbdb" />
		<path id="Path_1536" data-name="Path 1536" d="M421.887,430.372l-70.88-27.692-68.4,41.24,70.523,28.673Z" transform="translate(-225.278 -338.165)" fill="#fff" />
		<path id="Path_1537" data-name="Path 1537" d="M384.966,451.566c-4.61-2.2-9.3-4.253-13.98-6.291s-9.414-4-14.128-5.949S347.37,435.5,342.6,433.7l-7.183-2.692c-2.409-.848-4.8-1.74-7.243-2.543,2.305,1.115,4.64,2.142,6.96,3.227l6.96,3.153c4.67,2.037,9.4,3.986,14.128,5.949s9.474,3.822,14.262,5.622S380.118,449.99,384.966,451.566Z" transform="translate(-256.115 -325.6)" fill="#dbdbdb" />
		<path id="Path_1538" data-name="Path 1538" d="M372.028,438.384c-5.056-2.677-10.277-4.952-15.541-7.124a159.288,159.288,0,0,0-16.106-5.741c5.056,2.692,10.277,4.952,15.541,7.124A159.311,159.311,0,0,0,372.028,438.384Z" transform="translate(-261.335 -327.037)" fill="#dbdbdb" />
		<path id="Path_1539" data-name="Path 1539" d="M373.276,442.771c-4.03-1.963-8.135-3.792-12.24-5.592s-8.239-3.51-12.388-5.22-8.313-3.346-12.507-4.908l-6.306-2.335c-2.127-.729-4.224-1.487-6.365-2.186,2.008,1,4.06,1.9,6.083,2.855l6.157,2.736c4.09,1.8,8.239,3.51,12.388,5.22s8.313,3.331,12.507,4.893S369.008,441.373,373.276,442.771Z" transform="translate(-237.435 -328.494)" fill="#dbdbdb" />
		<path id="Path_1540" data-name="Path 1540" d="M367.413,438.284c-3.733-1.859-7.525-3.554-11.318-5.22s-7.629-3.272-11.466-4.848-7.7-3.093-11.6-4.536l-5.83-2.142c-1.978-.669-3.926-1.383-5.949-2.008,1.859.937,3.748,1.785,5.622,2.677l5.741,2.484c3.792,1.681,7.614,3.257,11.451,4.848s7.7,3.079,11.6,4.462S363.457,437,367.413,438.284Z" transform="translate(-228.27 -329.956)" fill="#dbdbdb" />
		<path id="Path_1541" data-name="Path 1541" d="M366.161,439.631c-4.61-2.216-9.3-4.268-13.98-6.306s-9.4-3.986-14.128-5.949-9.488-3.807-14.262-5.607l-7.183-2.692c-2.409-.848-4.8-1.755-7.228-2.558,2.29,1.115,4.64,2.156,6.96,3.227l7.02,3.079c4.685,2.052,9.4,3.986,14.128,5.949s9.488,3.807,14.262,5.607S361.313,438.055,366.161,439.631Z" transform="translate(-209.366 -331.422)" fill="#dbdbdb" />
		<path id="Path_1542" data-name="Path 1542" d="M359.4,434.019c-4.09-1.993-8.239-3.822-12.388-5.651s-8.343-3.554-12.537-5.28-8.4-3.376-12.656-4.967l-6.38-2.365c-2.142-.744-4.268-1.487-6.44-2.216,2.037,1,4.12,1.919,6.172,2.9l6.216,2.751c4.149,1.829,8.343,3.554,12.537,5.28s8.4,3.376,12.656,4.952S355.118,432.591,359.4,434.019Z" transform="translate(-202.04 -332.874)" fill="#dbdbdb" />
		<path id="Path_1543" data-name="Path 1543" d="M356.8,433.641c-4.625-2.216-9.3-4.268-13.98-6.306s-9.414-4-14.143-5.949-9.473-3.822-14.262-5.622l-7.168-2.692c-2.424-.848-4.8-1.74-7.243-2.543,2.305,1.115,4.64,2.142,6.96,3.227l7.02,3.078c4.685,2.052,9.414,3.986,14.143,5.949s9.473,3.807,14.262,5.607S351.978,432.05,356.8,433.641Z" transform="translate(-186.051 -334.341)" fill="#dbdbdb" />
		<path id="Path_1544" data-name="Path 1544" d="M344.466,421.193c-5.369-2.811-10.916-5.22-16.508-7.51A168.9,168.9,0,0,0,310.9,407.54a168.853,168.853,0,0,0,16.508,7.436C333,417.192,338.651,419.453,344.466,421.193Z" transform="translate(-189.931 -335.797)" fill="#dbdbdb" />
		<path id="Path_1545" data-name="Path 1545" d="M479.49,412.869,276.04,359.3l-94.66,50.728L380.4,476.343Z" transform="translate(-132.332 -359.3)" fill="#0dbdb8" />
		<path id="Path_1546" data-name="Path 1546" d="M467.09,411.825,376.37,470.153l-186.51-62,91.508-48.6s55.815,7.347,58.417,8.15S367,378.735,367,378.735s34.533,5.949,36.868,6.782S467.09,411.825,467.09,411.825Z" transform="translate(-132.543 -359.178)" fill="#fff" />
		<path id="Path_1547" data-name="Path 1547" d="M344.573,372.45l-11.08,7.168-11.005,7.287-21.921,14.708-21.788,14.917-10.827,7.54L257.17,431.7l11.08-7.183,11.02-7.272,21.921-14.708L322.964,387.6l10.827-7.525Z" transform="translate(-110.13 -352.893)" fill="#dbdbdb" />
		<path id="Path_1548" data-name="Path 1548" d="M297.806,403.139c-2.35-.759-4.744-1.413-7.139-2.052s-4.8-1.2-7.213-1.77-4.848-1.071-7.287-1.487-4.878-.892-7.347-1.22c2.365.773,4.759,1.487,7.153,2.052s4.789,1.2,7.2,1.77,4.833,1.071,7.272,1.487S295.322,402.841,297.806,403.139Z" transform="translate(-80.689 -341.122)" fill="#dbdbdb" />
		<path id="Path_1549" data-name="Path 1549" d="M317.52,426.217c-6.142-2.974-12.344-5.741-18.545-8.522s-12.448-5.5-18.694-8.209c-3.123-1.368-6.261-2.662-9.444-3.926a15.914,15.914,0,0,0-2.5-.744l-2.5-.58-4.982-1.1c-6.663-1.4-13.385-2.766-20.018-3.986,6.588,1.71,13.206,3.287,19.824,4.878l4.952,1.175a37.352,37.352,0,0,1,4.848,1.338c3.138,1.249,6.246,2.647,9.384,3.941l18.8,7.957C304.924,421.071,311.2,423.689,317.52,426.217Z" transform="translate(-58.792 -339.885)" fill="#dbdbdb" />
		<path id="Path_1550" data-name="Path 1550" d="M319.411,429.008c-5.949-2.974-11.9-5.7-17.965-8.462s-12.061-5.443-18.1-8.135c-2.974-1.353-6.068-2.647-9.131-3.911-.773-.312-1.487-.64-2.35-.922s-1.636-.416-2.439-.625l-4.848-1.086c-6.469-1.368-12.954-2.692-19.467-3.867,6.395,1.681,12.835,3.212,19.259,4.789l4.819,1.145c.8.208,1.621.387,2.365.639s1.487.58,2.261.892l9.1,3.926c6.083,2.6,12.106,5.324,18.2,7.9S313.283,426.479,319.411,429.008Z" transform="translate(-67.032 -338.496)" fill="#dbdbdb" />
		<path id="Path_1551" data-name="Path 1551" d="M324.26,431.133q-9.1-4-18.307-7.748c-6.112-2.573-12.284-4.982-18.441-7.436-3.093-1.22-6.127-2.454-9.355-3.51l-9.563-2.692c-6.395-1.71-12.8-3.45-19.244-5.027,6.306,2.082,12.641,4,18.977,5.949l9.548,2.8c3.064,1.041,6.157,2.35,9.25,3.51,6.187,2.365,12.329,4.848,18.531,7.183S318.029,428.932,324.26,431.133Z" transform="translate(-78.188 -337.171)" fill="#dbdbdb" />
		<path id="Path_1552" data-name="Path 1552" d="M382.384,409.546c-5.637-2.751-11.362-5.294-17.162-7.674-1.487-.595-2.9-1.2-4.372-1.74-.744-.268-1.487-.55-2.275-.773l-2.275-.61-9.087-2.409c-6.038-1.636-12.121-3.153-18.189-4.729s-12.136-3.093-18.233-4.581c6.023,1.77,12.031,3.51,18.069,5.205s12.061,3.421,18.1,5.042l9.072,2.484,2.246.61c.7.208,1.487.491,2.171.773l4.372,1.681C370.65,405.144,376.48,407.434,382.384,409.546Z" transform="translate(-227.685 -345.79)" fill="#dbdbdb" />
		<path id="Path_1553" data-name="Path 1553" d="M376.276,405.844q-8.4-3.525-16.969-6.573c-2.87-1.011-5.7-2.082-8.685-2.87l-8.775-2.394c-5.83-1.621-11.7-3.138-17.564-4.7s-11.734-3.064-17.623-4.536c5.815,1.755,11.615,3.495,17.445,5.175s11.645,3.391,17.489,5.012l8.76,2.469c1.487.372,2.855.892,4.3,1.368l4.313,1.487C364.691,402.215,370.461,404.1,376.276,405.844Z" transform="translate(-215.435 -346.891)" fill="#dbdbdb" />
		<path id="Path_1554" data-name="Path 1554" d="M372.132,402.54q-8.373-3.45-16.88-6.484c-2.841-1-5.651-2.052-8.581-2.974l-8.789-2.142c-5.845-1.487-11.7-2.781-17.579-4.164s-11.734-2.692-17.623-3.986c5.815,1.591,11.63,3.153,17.46,4.64s11.66,2.974,17.5,4.462c2.9.729,5.86,1.487,8.73,2.2l8.551,2.841Q363.462,399.952,372.132,402.54Z" transform="translate(-205.372 -347.856)" fill="#dbdbdb" />
		<path id="Path_1555" data-name="Path 1555" d="M369.119,400.3c-5.354-2.885-10.842-5.413-16.448-7.778-.7-.3-1.4-.565-2.127-.818a15.482,15.482,0,0,0-2.261-.625l-4.462-.967-8.923-1.9c-11.9-2.454-23.721-4.878-35.618-7.139,11.779,2.8,23.6,5.443,35.41,8.075l8.923,1.963,4.462,1a26.5,26.5,0,0,1,4.209,1.487C357.861,395.7,363.423,398.128,369.119,400.3Z" transform="translate(-197.303 -348.694)" fill="#dbdbdb" />
		<path id="Path_1556" data-name="Path 1556" d="M365.389,397.645c-5.354-2.87-10.842-5.413-16.448-7.763-.7-.3-1.4-.565-2.142-.818a14.874,14.874,0,0,0-2.246-.625l-4.462-.967-8.923-1.9c-11.9-2.469-23.721-4.878-35.619-7.139,11.779,2.8,23.6,5.443,35.41,8.076l8.923,1.963,4.462,1a23.8,23.8,0,0,1,4.209,1.487C354.131,393.138,359.693,395.637,365.389,397.645Z" transform="translate(-188.025 -349.98)" fill="#dbdbdb" />
		<path id="Path_1557" data-name="Path 1557" d="M361.733,395.055c-5.354-2.87-10.842-5.413-16.448-7.763-.7-.3-1.413-.58-2.142-.833a15.227,15.227,0,0,0-2.246-.61l-4.462-.982-8.923-1.889c-11.9-2.469-23.8-4.878-35.693-7.139,11.779,2.781,23.6,5.428,35.41,8.075l8.923,1.948,4.462,1.011a23.794,23.794,0,0,1,4.209,1.487C350.475,390.534,356.023,392.973,361.733,395.055Z" transform="translate(-178.822 -351.242)" fill="#dbdbdb" />
		<path id="Path_1558" data-name="Path 1558" d="M357.929,392.465c-5.354-2.885-10.842-5.413-16.448-7.778-.7-.3-1.487-.565-2.142-.818a15.287,15.287,0,0,0-2.246-.625l-4.462-.967-8.923-1.889c-11.9-2.469-23.721-4.893-35.619-7.139,11.779,2.781,23.587,5.428,35.41,8.075l8.923,1.948,4.462,1a25.155,25.155,0,0,1,4.209,1.487C346.671,387.944,352.218,390.383,357.929,392.465Z" transform="translate(-169.471 -352.504)" fill="#dbdbdb" />
		<path id="Path_1559" data-name="Path 1559" d="M353.119,390.375c-5.354-2.87-10.842-5.4-16.448-7.763-.7-.3-1.487-.565-2.142-.818a15.29,15.29,0,0,0-2.246-.625l-4.462-.967-8.923-1.9c-11.9-2.469-23.721-4.878-35.618-7.139,11.779,2.8,23.587,5.443,35.41,8.076l8.923,1.963,4.462,1a26.486,26.486,0,0,1,4.209,1.487C341.861,385.868,347.408,388.293,353.119,390.375Z" transform="translate(-157.507 -353.522)" fill="#dbdbdb" />
		<path id="Path_1560" data-name="Path 1560" d="M348.419,388.295c-5.339-2.87-10.842-5.4-16.434-7.763-.7-.3-1.413-.565-2.142-.818a15.825,15.825,0,0,0-2.246-.625l-4.462-.967-8.923-1.9c-11.9-2.469-23.706-4.878-35.6-7.139,11.779,2.8,23.587,5.443,35.41,8.076l8.923,1.963,4.462,1a26.163,26.163,0,0,1,4.224,1.487C337.176,383.833,342.723,386.242,348.419,388.295Z" transform="translate(-145.862 -354.535)" fill="#dbdbdb" />
		<path id="Path_1561" data-name="Path 1561" d="M344.7,385.427c-5.324-2.87-10.812-5.4-16.359-7.763-.7-.3-1.4-.565-2.127-.818a13.758,13.758,0,0,0-2.261-.61l-4.462-.907-8.923-1.74c-11.9-2.246-23.8-4.462-35.693-6.469,11.823,2.558,23.661,4.982,35.5,7.436l8.923,1.814,4.462.922a23.26,23.26,0,0,1,4.194,1.487C333.491,380.921,339.023,383.3,344.7,385.427Z" transform="translate(-136.6 -355.49)" fill="#dbdbdb" />
		<path id="Path_1562" data-name="Path 1562" d="M340.974,382.5c-5.324-2.87-10.8-5.4-16.359-7.748-.7-.3-1.413-.58-2.127-.818a12.414,12.414,0,0,0-2.261-.61l-4.462-.833-8.923-1.562c-11.9-2.008-23.8-3.941-35.693-5.711,11.9,2.305,23.721,4.462,35.589,6.663l8.923,1.621,4.462.848a22.7,22.7,0,0,1,4.179,1.413C329.776,378,335.248,380.419,340.974,382.5Z" transform="translate(-127.323 -356.416)" fill="#dbdbdb" />
		<path id="Path_1563" data-name="Path 1563" d="M337.408,379.366c-5.309-2.87-10.782-5.4-16.359-7.733-.7-.3-1.4-.58-2.127-.833a11.475,11.475,0,0,0-2.261-.595l-4.462-.7-8.923-1.264c-5.949-.833-11.9-1.576-17.921-2.35s-11.9-1.487-17.936-2.142c11.9,1.9,23.8,3.658,35.693,5.443l8.923,1.324,4.462.729a20.476,20.476,0,0,1,4.164,1.4C326.224,374.874,331.741,377.284,337.408,379.366Z" transform="translate(-118.209 -357.132)" fill="#dbdbdb" />
		<path id="Path_1564" data-name="Path 1564" d="M329.676,434.616c-6.2-2.513-12.448-4.937-18.709-7.317s-12.552-4.7-18.828-7.034c-3.153-1.16-6.276-2.26-9.5-3.331l-9.622-2.9c-6.425-1.874-12.864-3.748-19.334-5.473,6.321,2.216,12.7,4.283,19.081,6.35l9.578,2.974c3.123,1.041,6.276,2.261,9.429,3.361l18.917,6.767C316.99,430.288,323.251,432.5,329.676,434.616Z" transform="translate(-90.043 -335.3)" fill="#dbdbdb" />
		<path id="Path_1565" data-name="Path 1565" d="M390.644,413.369c-6.276-2.394-12.6-4.685-18.932-6.945s-12.686-4.462-19.036-6.633c-3.183-1.1-6.336-2.142-9.607-3.153l-9.711-2.692c-6.484-1.74-12.968-3.495-19.5-5.086,6.38,2.082,12.82,4.015,19.259,5.949l9.682,2.826c3.153.982,6.35,2.142,9.533,3.168l19.111,6.38C377.839,409.294,384.22,411.376,390.644,413.369Z" transform="translate(-240.511 -344.898)" fill="#dbdbdb" />
	</g>
	<g id="freepik--Trash--inject-2" transform="translate(393.803 496.601)">
		<path id="Path_1566" data-name="Path 1566" d="M189.571,412.75c-4.952-.714-11.332-.714-11.689,2.127s1.889,4.372,1.19,5.785-4.729,4.016-6.618,5.949a13.831,13.831,0,0,0-3.3,5.949c0,.714-1.19,1.889,0,3.316s1.844,3.54,2.811,4.61,1.383,2.231,0,4.12-.223,7.332,1.9,9.221,8.269-2.6,10.158-2.127,2.127,1.4,3.777,2.588,5.681,4.03,9.92,4.03,6.38-3.792,8.923-5.443,4.952-1.889,7.317-2.826a13.578,13.578,0,0,0,5.443-4.015c.461-.952,2.127-1.19,1.487-3.777S219,438.94,219,436.813v-4.908c0-2.409,1.9-6.663.253-8.551s-2.841-4.729-5.443-4.729-10.857,1.487-10.857,1.487a21.8,21.8,0,0,1-2.365-3.079,6.826,6.826,0,0,0-5.726-3.3,17.163,17.163,0,0,1-5.294-.982Z" transform="translate(-168.623 -381.112)" fill="#fff" />
		<path id="Path_1567" data-name="Path 1567" d="M216.913,434.319c-3.376,1.562-6.811,2.974-10.277,4.313s-6.856,2.811-10.321,4.09a92.477,92.477,0,0,1-10.41,3.361,8.266,8.266,0,0,1-2.156.253l-2.1-1.041a32.845,32.845,0,0,1-4.462-2.781,12.448,12.448,0,0,1-3.435-3.525,6.975,6.975,0,0,1-.506-1l-.149-.521-.074-.238h0a4.179,4.179,0,0,1,.907-1.576,50.668,50.668,0,0,1,8.09-7.064c2.974-2.186,5.949-4.253,9.146-6.2,1.487-1.011,3.123-1.993,4.729-2.974q1.2-.684,2.454-1.294.625-.312,1.249-.58c.4-.1.952-.446,1.264,0-.283-.446-.907-.178-1.324-.149a7.164,7.164,0,0,0-1.368.357c-.892.3-1.77.639-2.632,1-1.725.714-3.435,1.487-5.116,2.32q-5,2.543-9.756,5.562a44.031,44.031,0,0,0-9.012,7.138,6.1,6.1,0,0,0-1.636,3.287,2.813,2.813,0,0,0,0,.7l.119.446.238.818a8.565,8.565,0,0,0,.714,1.487,15.407,15.407,0,0,0,4.194,4.462,37.589,37.589,0,0,0,5,2.974l1.279.625.625.3.357.164a3.781,3.781,0,0,0,.7.208,9.012,9.012,0,0,0,3.346-.342,71.216,71.216,0,0,0,10.619-4.03,142.516,142.516,0,0,0,19.705-10.544Z" transform="translate(-166.548 -378.708)" fill="#c7c7c7" />
		<path id="Path_1568" data-name="Path 1568" d="M204.316,438.125a63.566,63.566,0,0,0-6.127-8.165c-1.115-1.309-2.32-2.513-3.525-3.733-.625-.61-1.279-1.175-1.963-1.74a11.585,11.585,0,0,0-2.484-1.651,4.459,4.459,0,0,0-.476-.163,3.178,3.178,0,0,0-1,0,2.453,2.453,0,0,0-1.294.7,8.924,8.924,0,0,0-.967,1.175A22.654,22.654,0,0,0,185,426.807a44.337,44.337,0,0,0-2.29,4.61,41.641,41.641,0,0,0-3.227,9.711l5.369-8.581c.907-1.413,1.74-2.855,2.662-4.209.446-.684.892-1.383,1.353-1.978a7.643,7.643,0,0,1,.64-.758l-.238.1a.491.491,0,0,1-.357,0h.119a8.777,8.777,0,0,1,1.725,1.13l1.874,1.487,3.792,3.257C199.007,433.871,201.565,436.087,204.316,438.125Z" transform="translate(-168.05 -376.103)" fill="#c7c7c7" />
		<path id="Path_1569" data-name="Path 1569" d="M135.693,436.743c2.677.64,6.172.967,6.514-.565s-.8-2.5-.342-3.227a32.528,32.528,0,0,1,3.926-2.9,7.526,7.526,0,0,0,2.112-3.064c0-.387.744-.981.164-1.814s-.818-2.037-1.294-2.677a1.487,1.487,0,0,1,.208-2.26c.863-.967.491-4-.58-5.146s-4.655,1.011-5.666.654-1.1-.892-1.933-1.621a10.143,10.143,0,0,0-5.235-2.707c-2.335-.223-3.688,1.74-5.19,2.513a20.175,20.175,0,0,1-4.164,1.175,7.436,7.436,0,0,0-3.183,1.918c-.312.491-1.22.535-.967,1.993s.863,1.919.758,3.079-.119,1.368-.253,2.692-1.383,3.554-.58,4.67,1.324,2.736,2.736,2.87,5.949-.223,5.949-.223a11.539,11.539,0,0,1,1.145,1.814,3.733,3.733,0,0,0,2.974,2.1A9.518,9.518,0,0,1,135.693,436.743Z" transform="translate(-23.149 -381.577)" fill="#fff" />
		<path id="Path_1570" data-name="Path 1570" d="M143.545,420.5c-1.487-1.487-2.974-2.9-4.462-4.343l-1.145-1.041-.565-.506a3.167,3.167,0,0,0-1.145-.565,17.741,17.741,0,0,0-3.316-.416,33.493,33.493,0,0,0-6.44.357,10.56,10.56,0,0,0-3.45,1.071,3.48,3.48,0,0,0-1.487,2.127,6.781,6.781,0,0,0-.253,1.963,20.821,20.821,0,0,0,1.487,6.529,29.745,29.745,0,0,0,1.383,2.974,13.376,13.376,0,0,0,.922,1.487,3.822,3.822,0,0,0,1.725,1.339,16.255,16.255,0,0,0,6.633.431,45.225,45.225,0,0,0,6.187-1.086c-2.082-.164-4.149-.193-6.187-.446a18.218,18.218,0,0,1-5.622-1.1c-.387-.208-.283-.208-.595-.625a5.574,5.574,0,0,1-.625-1.22,21.608,21.608,0,0,1-1.041-2.736,19.2,19.2,0,0,1-1.13-5.547,2.29,2.29,0,0,0-.7-1.487,21.522,21.522,0,0,1,3.391-.773,40.3,40.3,0,0,1,5.949-.818,18.552,18.552,0,0,1,2.87,0c.178,0,.357.089.283,0l.669.431,1.324.848C139.946,418.373,141.686,419.519,143.545,420.5Z" transform="translate(-20.723 -380.504)" fill="#c7c7c7" />
		<path id="Path_1571" data-name="Path 1571" d="M136.857,415.57c-.119,1.993,0,3.9-.193,5.637,0,.818-.253,1.814-.461,1.859s0,0,.074,0H136.1a8.087,8.087,0,0,1-1.071-.119c-1.681-.283-3.495-.788-5.324-1.175a40.293,40.293,0,0,0-5.7-.922,23.914,23.914,0,0,0,10.515,5.161,10.813,10.813,0,0,0,1.755.089,4.462,4.462,0,0,0,1.2-.283,2.782,2.782,0,0,0,1.13-1,5.25,5.25,0,0,0,.476-3.658,14.143,14.143,0,0,0-2.231-5.592Z" transform="translate(-20.46 -379.545)" fill="#c7c7c7" />
		<path id="Path_1572" data-name="Path 1572" d="M90.065,407.28c1.383-4.194,1.145-9.057,5.949-8.537s7.555-5.4,9.682-6.811,9.682,0,11.332,1.413,2.365,4.179,4.015,5.4,4.015,3.108,6.142,5,5.19,4.462,4.253,9.206-3.079,6.35-4.462,8.73.952,6.633-.937,12.061-11.109,7.555-13.474,6.618-8.67-4.967-12.121-4.967-4.462,2.841-7.436,1.19-7.555-5.205-7.793-6.618,2.6-2.662,1.651-4.878-4.729-6.365-4.253-9.131S89.01,410.492,90.065,407.28Z" transform="translate(48.773 -391.346)" fill="#fff" />
		<path id="Path_1573" data-name="Path 1573" d="M103.257,396a132.973,132.973,0,0,1,17.043,6.8,10.14,10.14,0,0,1,1.7,1.115c.223,0,.357,1.086.491,1.74.253,1.487.446,2.974.595,4.462.312,2.974.55,6.083.565,9.1a28.006,28.006,0,0,1-.238,4.387,3.555,3.555,0,0,1-.312,1.175,6.038,6.038,0,0,1-1.666.506,46.207,46.207,0,0,1-8.923.431,42.77,42.77,0,0,1-4.462-.342c-1.279-.208-2.974-.639-4.462-.892-2.974-.61-6.038-1.19-8.923-1.933a20.793,20.793,0,0,1-2.037-.61,1.082,1.082,0,0,1-.342-.149h0a.506.506,0,0,1,.223.3,1.487,1.487,0,0,1,.1,1.115,1.145,1.145,0,0,1-.3.52.982.982,0,0,1-.178.164h0l.4-.164c1.324-.431,2.841-.788,4.313-1.13l8.923-2.008c2.974-.654,5.949-1.324,9.027-2.082,1.487-.4,2.974-.788,4.536-1.309a7.734,7.734,0,0,0,2.543-1.324,1.577,1.577,0,0,0,.268-.327,1.784,1.784,0,0,0,.223-.565v-.565a2.5,2.5,0,0,0-.178-.863,7.687,7.687,0,0,0-.535-1.264,39.634,39.634,0,0,0-5.845-7.51c-.565-.55-1.115-1.115-1.71-1.636-.312-.268-.61-.535-.937-.788a4.644,4.644,0,0,0-.521-.372,2.037,2.037,0,0,0-.773-.4,2.231,2.231,0,0,0-1.755.431,8,8,0,0,0-1.011.8,20.055,20.055,0,0,0-1.636,1.755,117.707,117.707,0,0,0-10.039,15.586,145.938,145.938,0,0,1,11.184-14.575,16.2,16.2,0,0,1,1.576-1.487,3.985,3.985,0,0,1,1.219-.773l.223.164a2.46,2.46,0,0,1,.4.312c.268.223.535.491.788.744a18.806,18.806,0,0,1,1.487,1.621,38.146,38.146,0,0,1,5.146,7.243,4.641,4.641,0,0,1,.327.877c0,.089.089.283,0,.253h0a.833.833,0,0,1,.119-.312l.074-.1a8.745,8.745,0,0,1-1.621.625c-1.383.446-2.87.818-4.343,1.175-2.974.7-5.949,1.324-8.923,1.933l-11.541,2.216c-1.487.342-.521.3-2.142.8l-.669.253a2.746,2.746,0,0,0-.461.238,1.74,1.74,0,0,0-.416.342,1.606,1.606,0,0,0-.372.64A1.725,1.725,0,0,0,89.6,423.6a3.078,3.078,0,0,0,.639.684,2.286,2.286,0,0,0,.431.268,3.791,3.791,0,0,0,.7.312,18.854,18.854,0,0,0,2.379.744c3.079.744,6.112,1.279,9.131,1.844,1.591.268,2.841.565,4.61.848a47.26,47.26,0,0,0,4.759.3,47.791,47.791,0,0,0,9.488-.625,7.317,7.317,0,0,0,2.677-.982,2.975,2.975,0,0,0,1.071-1.606,5.757,5.757,0,0,0,.283-1.368,30.767,30.767,0,0,0,0-4.818c-.164-3.138-.535-6.2-1-9.28-.238-1.487-.491-3.064-.833-4.6-.283-.788-.1-1.487-1.041-2.543a8.777,8.777,0,0,0-2.171-1.324,75.357,75.357,0,0,0-8.789-3.093A76.155,76.155,0,0,0,103.257,396Z" transform="translate(44.342 -389.079)" fill="#c7c7c7" />
	</g>
	<g id="freepik--Character--inject-2" transform="translate(200.95 93.818)">
		<path id="Path_1574" data-name="Path 1574" d="M345.5,233.994C297.17,282.968,236.388,386,247.72,406.9c12.612,23.26,79.907-45.4,79.655-49.4-.208-2.974,23.468-65.63,41.433-111.139S357.446,221.873,345.5,233.994Z" transform="translate(-244.804 -72.801)" fill="#ad6359" />
		<path id="Path_1575" data-name="Path 1575" d="M329.081,357.815c2.052-6.692,34.206-89.232,43.471-115.333s.669-34.206-25.624-10.262-83.938,103.747-97.085,146.118c-12.671,40.839,8.343,40.839,36.08,22.011C308.632,384.941,329.081,357.815,329.081,357.815Z" transform="translate(-246.064 -73.036)" fill="#0dbdb8" />
		<path id="Path_1576" data-name="Path 1576" d="M259.55,229.36a19.335,19.335,0,0,0,1.636,5.28,19.6,19.6,0,0,0,2.974,4.685,19.139,19.139,0,0,0-1.636-5.28A19.6,19.6,0,0,0,259.55,229.36Z" transform="translate(-154.122 -67.483)" fill="#fff" />
		<path id="Path_1577" data-name="Path 1577" d="M315.11,302.51a20.316,20.316,0,0,0,1.636,5.294,19.2,19.2,0,0,0,2.974,4.685,21.238,21.238,0,0,0-4.581-9.979Z" transform="translate(-292.311 -31.844)" fill="#fff" />
		<path id="Path_1578" data-name="Path 1578" d="M295.97,273.36a21.267,21.267,0,0,0,4.581,9.964,19.169,19.169,0,0,0-1.651-5.28,19.6,19.6,0,0,0-2.93-4.685Z" transform="translate(-244.676 -46.046)" fill="#fff" />
		<path id="Path_1579" data-name="Path 1579" d="M273.63,272.685a19.674,19.674,0,0,0,5.28-1.651,19.139,19.139,0,0,0,4.685-2.974,21.268,21.268,0,0,0-9.964,4.581Z" transform="translate(-194.495 -48.628)" fill="#fff" />
		<path id="Path_1580" data-name="Path 1580" d="M291.56,302.16a20.316,20.316,0,0,0,5.294-1.636,19.658,19.658,0,0,0,4.685-2.974,21.237,21.237,0,0,0-9.979,4.581Z" transform="translate(-239.106 -34.261)" fill="#fff" />
		<path id="Path_1581" data-name="Path 1581" d="M276.98,251.66a19.767,19.767,0,0,0,5.294-1.636,19.2,19.2,0,0,0,4.685-2.974,19.169,19.169,0,0,0-5.28,1.651A19.989,19.989,0,0,0,276.98,251.66Z" transform="translate(-202.842 -58.864)" fill="#fff" />
		<path id="Path_1582" data-name="Path 1582" d="M272.387,283.91A21.4,21.4,0,0,0,268.58,294.2a21.4,21.4,0,0,0,3.807-10.291Z" transform="translate(-175.778 -40.906)" fill="#fff" />
		<path id="Path_1583" data-name="Path 1583" d="M309.917,319a21.545,21.545,0,0,0-3.807,10.291A21.4,21.4,0,0,0,309.917,319Z" transform="translate(-269.123 -23.81)" fill="#fff" />
		<path id="Path_1584" data-name="Path 1584" d="M281.59,315.93a18.2,18.2,0,0,0,4.551,2.439l.967-1.16h-.119a19.333,19.333,0,0,0-5.4-1.279Z" transform="translate(-209.847 -25.306)" fill="#fff" />
		<path id="Path_1585" data-name="Path 1585" d="M332.8,339.812a19.93,19.93,0,0,0-4.908-2.588,19.186,19.186,0,0,0-5.384-1.234,19.049,19.049,0,0,0,4.893,2.573,19.721,19.721,0,0,0,5.4,1.249Z" transform="translate(-316.397 -15.533)" fill="#fff" />
		<path id="Path_1586" data-name="Path 1586" d="M257.02,255.58a19.33,19.33,0,0,0,4.908,2.573,21.169,21.169,0,0,0,3.718,1.026l.268-.729a21.966,21.966,0,0,0-3.495-1.636,19.17,19.17,0,0,0-5.4-1.234Z" transform="translate(-152.112 -54.709)" fill="#fff" />
		<path id="Path_1587" data-name="Path 1587" d="M150.314,422.069H334.043S304.835,277.974,234.4,215.6c-8.7-7.7-28.346-5.949-41.166.416-4.566,2.275-21,25.282-25.684,46.981S149.809,421.414,150.314,422.069Z" transform="translate(-61.528 -76.671)" fill="#0dbdb8" />
		<path id="Path_1588" data-name="Path 1588" d="M270.472,251.881a149.394,149.394,0,0,0-3.614,14.872v-.595a78.357,78.357,0,0,0-.4-8.551.134.134,0,0,0-.268,0,42.858,42.858,0,0,0-.238,8.626c0,1.353.164,2.722.268,4.075-.387,2.261-.729,4.536-1.011,6.782-.535,4.3-1.978,20.256-2.1,23.423,0,.669.729.788.922.089.863-3.212,3.153-19.661,3.882-23.9a228.41,228.41,0,0,0,2.9-24.836C270.8,251.717,270.516,251.717,270.472,251.881Z" transform="translate(-166.069 -56.572)" fill="#263238" />
		<path id="Path_1589" data-name="Path 1589" d="M217.278,247.77a21.237,21.237,0,0,0,4.581,9.979,19.006,19.006,0,0,0-1.651-5.28,19.693,19.693,0,0,0-2.93-4.7Zm24.9,73.17a19.244,19.244,0,0,1,1.636,5.294,19.333,19.333,0,0,1-2.974-4.7,19.662,19.662,0,0,1-1.636-5.28,19.2,19.2,0,0,1,2.974,4.685Zm59.681,26.145a19.661,19.661,0,0,1,1.636,5.28,19.2,19.2,0,0,1-2.974-4.685,19.766,19.766,0,0,1-1.636-5.294,19.749,19.749,0,0,1,2.974,4.7Zm-43.872,46.906a19.14,19.14,0,0,1,1.636,5.28,19.2,19.2,0,0,1-2.974-4.685,20.315,20.315,0,0,1-1.636-5.294,19.574,19.574,0,0,1,2.974,4.759Zm-76.591-90.645a19.662,19.662,0,0,1,1.636,5.28,19.2,19.2,0,0,1-2.974-4.685,19.659,19.659,0,0,1-1.636-5.279,20.139,20.139,0,0,1,2.974,4.744Zm-24.137,49.777a19.245,19.245,0,0,1,1.636,5.294,19.142,19.142,0,0,1-2.974-4.685,19.779,19.779,0,0,1-1.606-5.161,19.2,19.2,0,0,1,2.945,4.61ZM215.657,389a19.767,19.767,0,0,1,1.636,5.294,19.2,19.2,0,0,1-2.974-4.685,19.765,19.765,0,0,1-1.636-5.294,19.662,19.662,0,0,1,2.974,4.744Zm55.963-96.936a19.335,19.335,0,0,1,1.636,5.28,19.6,19.6,0,0,1-2.974-4.685,19.14,19.14,0,0,1-1.636-5.28A19.6,19.6,0,0,1,271.62,292.059ZM202.168,275.7a19.14,19.14,0,0,1,5.28-1.636,19.2,19.2,0,0,1-4.685,2.974,20.2,20.2,0,0,1-5.28,1.636,19.2,19.2,0,0,1,4.685-2.974ZM190.6,334.757a19.142,19.142,0,0,1,5.28-1.636,19.2,19.2,0,0,1-4.685,2.974,20.371,20.371,0,0,1-5.28,1.636,19.2,19.2,0,0,1,4.685-2.974ZM298.628,397.4a19.337,19.337,0,0,1,5.28-1.636,19.2,19.2,0,0,1-4.685,2.974,20.2,20.2,0,0,1-5.28,1.636,19.2,19.2,0,0,1,4.67-2.974ZM188.694,409.37a19.333,19.333,0,0,1,5.294-1.636,19.9,19.9,0,0,1-4.685,2.974l-1.13.491-2.974.193a21.7,21.7,0,0,1,3.48-2.023Zm68.634-59.83a19.332,19.332,0,0,1,5.28-1.636,19.14,19.14,0,0,1-4.685,2.974,19.675,19.675,0,0,1-5.28,1.651,19.2,19.2,0,0,1,4.67-2.989ZM202.183,223.306a19.144,19.144,0,0,1,5.28-1.636,19.141,19.141,0,0,1-4.685,2.974,19.677,19.677,0,0,1-5.28,1.651,19.2,19.2,0,0,1,4.67-2.989Zm-11.9,27.424a19.052,19.052,0,0,1-2.662,4.893,21.4,21.4,0,0,1,3.807-10.291,19.172,19.172,0,0,1-1.16,5.4ZM161.106,387.553a19.335,19.335,0,0,1-2.573,4.893,21.4,21.4,0,0,1,3.807-10.291,19.332,19.332,0,0,1-1.249,5.324Zm78.822-102.379a19.05,19.05,0,0,1-2.573,4.893,19.184,19.184,0,0,1,1.234-5.384,19.929,19.929,0,0,1,2.588-4.908A19.72,19.72,0,0,1,239.9,285.1ZM217.219,345.3a19.836,19.836,0,0,1-2.588,4.893,21.222,21.222,0,0,1,3.822-10.291,19.823,19.823,0,0,1-1.234,5.4ZM322.5,415.869v.758h-.476A4.322,4.322,0,0,1,322.5,415.869Zm-51.725-.238a19.931,19.931,0,0,1,2.588-4.908,19.693,19.693,0,0,1-1.234,5.4l-.193.506h-1.487C270.55,416.3,270.654,415.958,270.773,415.631Zm10.544-42.43a19.333,19.333,0,0,1-2.573,4.908,19.17,19.17,0,0,1,1.234-5.4,19.573,19.573,0,0,1,2.588-4.893,19.736,19.736,0,0,1-1.249,5.384ZM236.835,231.56a19.572,19.572,0,0,1-2.588,4.893,21.639,21.639,0,0,1,3.822-10.277,19.719,19.719,0,0,1-1.219,5.384ZM187.623,370.39a19.051,19.051,0,0,1-4.893-2.573,19.184,19.184,0,0,1,5.384,1.234,19.53,19.53,0,0,1,4.893,2.573A19.184,19.184,0,0,1,187.623,370.39Zm48.1,44.244a19.335,19.335,0,0,1-4.908-2.573,19.169,19.169,0,0,1,5.4,1.234,19.527,19.527,0,0,1,4.893,2.573,19.184,19.184,0,0,1-5.324-1.234Zm81.8-40.065c.119.416.253.848.372,1.249a15.028,15.028,0,0,1-2.5-1.487,14.338,14.338,0,0,1,2.186.238Zm-41.939-50.952a19.111,19.111,0,0,1-4.893-2.588,21.772,21.772,0,0,1,10.291,3.822,19.688,19.688,0,0,1-5.339-1.234Zm-38.5,48.751a19.053,19.053,0,0,1-4.893-2.573,19.334,19.334,0,0,1,5.4,1.234,19.842,19.842,0,0,1,4.893,2.588A19.839,19.839,0,0,1,237.073,372.368Zm-22.9-69.9a19.113,19.113,0,0,1-4.893-2.588,19.333,19.333,0,0,1,5.4,1.249,19.542,19.542,0,0,1,4.893,2.573,19.689,19.689,0,0,1-5.4-1.234Zm-48.468-27.8a19.332,19.332,0,0,1-4.908-2.573,21.4,21.4,0,0,1,10.291,3.807,19.186,19.186,0,0,1-5.384-1.234Zm86.674-16.255a19.05,19.05,0,0,1-4.893-2.573,19.068,19.068,0,0,1,5.384,1.234,19.868,19.868,0,0,1,4.908,2.573,19.169,19.169,0,0,1-5.4-1.234Z" transform="translate(-55.946 -71.23)" fill="#fff" />
		<path id="Path_1590" data-name="Path 1590" d="M235.326,259.279c11.05,2.171,29.372-15.407,36.332-29.268.476-.967-1.338-10.767-2.974-22.784-.982-7.287-1.889-15.437-2.171-22.933,0-1.487-46.564,13.266-46.564,13.266s5.235,15.526,5.666,28.584a17.279,17.279,0,0,1-.193,3.093,4.544,4.544,0,0,0,0,.521C224.6,235.558,224.588,257.167,235.326,259.279Z" transform="translate(-102.801 -89.49)" fill="#ad6359" />
		<path id="Path_1591" data-name="Path 1591" d="M234.681,229.714a28.6,28.6,0,0,1-4.833,0,4.552,4.552,0,0,1,0-.506,16,16,0,0,0,.193-3.093c-.431-13.058-5.651-28.584-5.651-28.584s37.73-12.017,45.256-13.281C268.575,192.891,262.373,228,234.681,229.714Z" transform="translate(-107.317 -89.461)" fill="#263238" />
		<path id="Path_1592" data-name="Path 1592" d="M298.815,163.283c3.614,17.058-9.325,64.292-22.085,73.959-18.471,14.024-46.654,13.072-58-8.67-11.035-21.074,6.93-82.332,20.97-90.913C260.342,125.032,293.462,138.09,298.815,163.283Z" transform="translate(-123.593 -114.537)" fill="#ad6359" />
		<path id="Path_1593" data-name="Path 1593" d="M248.663,171.6c0-.119.208.208.164.342-.952,3.153-1.487,6.945,1.071,8.775.089,0,0,.208-.074.164C246.447,179.436,247.25,174.439,248.663,171.6Z" transform="translate(-121.893 -95.637)" fill="#263238" />
		<path id="Path_1594" data-name="Path 1594" d="M248.441,169.875c5.235,1,2.87,11.377-1.978,10.41S244.053,169.057,248.441,169.875Z" transform="translate(-117.938 -96.487)" fill="#263238" />
		<path id="Path_1595" data-name="Path 1595" d="M266.948,168.294c0-.134-.283.089-.312.223-.625,3.242-1.889,6.841-5.042,7.258-.1,0-.119.178,0,.178C265.237,176.265,266.873,171.461,266.948,168.294Z" transform="translate(-159.824 -97.255)" fill="#263238" />
		<path id="Path_1596" data-name="Path 1596" d="M267.05,165.634c-5.086-1.576-7.852,8.715-3.138,10.172S271.3,166.942,267.05,165.634Z" transform="translate(-162.023 -98.61)" fill="#263238" />
		<path id="Path_1597" data-name="Path 1597" d="M249.552,171.533a42.157,42.157,0,0,1-4.239-1.086,7.213,7.213,0,0,1-4.1-1.933,2.261,2.261,0,0,1,.134-2.751,5.562,5.562,0,0,1,5.547-1.056,8.18,8.18,0,0,1,5.027,3.123,2.409,2.409,0,0,1-2.365,3.7Z" transform="translate(-114.394 -99.141)" fill="#263238" />
		<path id="Path_1598" data-name="Path 1598" d="M260.6,163.456a42.926,42.926,0,0,0,4.372-.134,7.064,7.064,0,0,0,4.462-.982,2.246,2.246,0,0,0,.476-2.707,5.592,5.592,0,0,0-5.19-2.261,8.2,8.2,0,0,0-5.577,1.948,2.394,2.394,0,0,0,1.457,4.134Z" transform="translate(-158.399 -102.575)" fill="#263238" />
		<path id="Path_1599" data-name="Path 1599" d="M257.269,191.479c-.952.58-1.948,1.487-3.138,1.279a8.819,8.819,0,0,1-3.272-1.591.119.119,0,0,0-.178.134,4.462,4.462,0,0,0,3.688,2.662,3.48,3.48,0,0,0,3.168-2.261C257.626,191.523,257.4,191.4,257.269,191.479Z" transform="translate(-134.322 -86.1)" fill="#263238" />
		<path id="Path_1600" data-name="Path 1600" d="M269.937,196.854a11.273,11.273,0,0,1-8.418,3.212,14.141,14.141,0,0,1-3.986-.714,5.264,5.264,0,0,1-.729-.268,4.34,4.34,0,0,1-.684-.268.788.788,0,0,1-.476-.863h0a1.28,1.28,0,0,1,.1-.312h0v-.283c.491-2.484,1.591-6.2,1.591-6.2-1.011.253-6.1,1.279-5.726,0,3.079-10.574,6.5-22.308,11.794-32.183a.3.3,0,0,1,.565.208c-2.558,10.277-6.9,20.033-9.622,30.309a19.334,19.334,0,0,1,5.517-.387c.327.178-2.246,7.124-2.379,8.269a.253.253,0,0,0,0,.119c4.03,1.487,7.436.937,12.136-.937C269.981,196.363,270.19,196.645,269.937,196.854Z" transform="translate(-148.179 -101.871)" fill="#263238" />
		<path id="Path_1601" data-name="Path 1601" d="M276.646,211.184s17.281-25.58,16.553-40.9c-.327-6.915-9.488-12.031-9.488-12.031a15.571,15.571,0,0,0-4.194-15.9c-7.778-8.09-27.588-7.347-27.588-7.347s-11.9-19.125-30.339-12.686-7.689,27.528-7.689,27.528-7.109,9.087,8.745,17.266c15.437,7.957,48.066,2.513,48.066,2.513a112.938,112.938,0,0,0-1.16,33.462,10.262,10.262,0,0,0,7.094,8.09Z" transform="translate(-110.659 -120.277)" fill="#263238" />
		<path id="Path_1602" data-name="Path 1602" d="M215.792,131.063a31.916,31.916,0,0,1,12.849-1.7,34.207,34.207,0,0,1,11.377,2.365c6.395,2.662,11.9,7.748,12.686,14.872a13.385,13.385,0,0,1-2.974,9.9c-.089.1-.253,0-.164-.178,4.462-4.967,2.647-13.132-1.487-17.683-4.64-5.161-12.031-7.436-18.739-8.016a57.094,57.094,0,0,0-13.385.744.193.193,0,0,1-.164-.312Z" transform="translate(-77.6 -116.241)" fill="#263238" />
		<path id="Path_1603" data-name="Path 1603" d="M240.591,130.651c1.755-5,6.261-8.031,11.213-9.354a26.428,26.428,0,0,1,17.1,1.487,33.269,33.269,0,0,1,13.489,11.08c0,.1-.1.238-.178.134-6.41-8.388-16.835-13.5-27.469-11.794-4.744.758-9.578,2.974-11.972,7.332a15.9,15.9,0,0,0-.268,13.459c2.186,5.131,6.529,9.146,11.05,12.24.1,0,0,.238-.1.178a30.5,30.5,0,0,1-11.095-10.485,17.3,17.3,0,0,1-1.77-14.277Z" transform="translate(-142.971 -120.513)" fill="#263238" />
		<path id="Path_1604" data-name="Path 1604" d="M220.265,152.469a54.7,54.7,0,0,0,22.576,5.086,111.154,111.154,0,0,0,24.108-2.1c4.625-.863,9.221-1.919,13.8-3.049.149,0,.193.178,0,.223a121.728,121.728,0,0,1-24.881,6.35,61.228,61.228,0,0,1-23.646-1.4,51.9,51.9,0,0,1-12.091-4.967C220.071,152.574,220.176,152.425,220.265,152.469Z" transform="translate(-112.189 -104.973)" fill="#263238" />
		<path id="Path_1605" data-name="Path 1605" d="M250.361,192.914a13.192,13.192,0,1,0-10.41-18.07h0a13.206,13.206,0,0,0,7.228,17.207A12.864,12.864,0,0,0,250.361,192.914Zm3.406-24.39a11.286,11.286,0,0,1,2.736.729,11.466,11.466,0,1,1-2.736-.729Z" transform="translate(-124.707 -98.035)" fill="#ebebeb" />
		<path id="Path_1606" data-name="Path 1606" d="M267.846,187.547c5.012.7,10.262-3.792,12-10.41a15.779,15.779,0,0,0-.372-9.637,8.209,8.209,0,0,0-13.608-3.554,15.7,15.7,0,0,0-5.027,8.209c-1.844,7.049.922,13.89,6.157,15.259a5.683,5.683,0,0,0,.848.134Zm4.729-24.122a4.639,4.639,0,0,1,.654.134,6.975,6.975,0,0,1,4.625,4.581,13.979,13.979,0,0,1,.3,8.551c-1.591,6.1-6.38,10.143-10.693,9.012s-6.5-7-4.893-13.1a13.905,13.905,0,0,1,4.462-7.3,7.317,7.317,0,0,1,5.547-1.874Z" transform="translate(-171.46 -100.491)" fill="#ebebeb" />
		<path id="Path_1607" data-name="Path 1607" d="M262.927,174.834l1.487-1.026c-1.487-2.127-5.413-5.488-9.414-2.974l.952,1.487C259.462,170.03,262.778,174.64,262.927,174.834Z" transform="translate(-147.608 -96.433)" fill="#ebebeb" />
		<path id="Path_1608" data-name="Path 1608" d="M249.11,190.483l1.725-.387c-.178-.8-1.874-7.882-5.518-9.5s-26.859-5.339-27.855-5.5l-.283,1.74c6.722,1.1,24.792,4.209,27.424,5.369S248.679,188.534,249.11,190.483Z" transform="translate(-77.784 -93.924)" fill="#ebebeb" />
		<path id="Path_1609" data-name="Path 1609" d="M216.812,183.331s12.492-14.322,19.111-9.711-3.941,26.2-12.522,28.391a8.447,8.447,0,0,1-10.767-5.726Z" transform="translate(-58.186 -95.085)" fill="#ad6359" />
		<path id="Path_1610" data-name="Path 1610" d="M231.717,177.43c.134,0,.134.193,0,.223-6.038,1.725-9.652,6.767-12.388,12.106,1.948-1.963,4.462-2.885,7.064-.521.149.119,0,.342-.178.283a5.19,5.19,0,0,0-5.874,1.19,25.474,25.474,0,0,0-3.227,4.313c-.312.491-1.22.1-.967-.461a.532.532,0,0,0,0-.134C216.875,187.038,223.716,177.326,231.717,177.43Z" transform="translate(-57.164 -92.784)" fill="#263238" />
		<path id="Path_1611" data-name="Path 1611" d="M231.863,361.542c10.871,15.556,40.482,18.516,114.336,32.986,10.217,2.008,43.739-66.314,32.942-69.006-13.608-3.406-67.147-13.653-71.163-13.905C274.16,309.475,224.487,350.982,231.863,361.542Z" transform="translate(-228.948 -27.447)" fill="#ad6359" />
		<path id="Path_1612" data-name="Path 1612" d="M221.483,318.67s31.231,4.729,46.966,12.3c20.97,10.143,34.919,27.528,40.318,35.172,11.273,15.958,27.513,62.314,14.976,69.319-11.347,6.336-25.55-41.88-25.55-41.88s22.591,46.772,7.525,51.9-28.376-51.8-28.376-51.8,22.144,48.587,5.77,51.413c-12.388,2.127-27.335-48.751-27.335-48.751s18.739,41.895,6.112,44.616c-13.965,2.974-30.711-43.129-30.711-43.129-33.284,1.576-49.762-11.3-60.41-21.847C168.2,373.518,221.483,318.67,221.483,318.67Z" transform="translate(-86.073 -23.971)" fill="#ad6359" />
		<path id="Path_1613" data-name="Path 1613" d="M182.616,357.843c2.855,5.4,5.785,10.842,8.135,16.478s4.536,11.362,6.365,17.192c4.462,14.292,5.056,23.944,4.952,23.349-2.365-14.009-10.515-34.31-12.879-39.946s-4.462-11.362-6.8-17C182.333,357.784,182.557,357.709,182.616,357.843Z" transform="translate(22.723 -4.92)" fill="#263238" />
		<path id="Path_1614" data-name="Path 1614" d="M197.547,363.327c3.346,7.049,6.915,13.92,9.949,21.133s5.294,14.233,7.778,21.535c.193.565-.178.491-.4,0-2.8-7.243-5.949-13.742-8.923-20.955s-5.518-14.545-8.656-21.624C197.324,363.283,197.487,363.223,197.547,363.327Z" transform="translate(-12.702 -2.24)" fill="#263238" />
		<path id="Path_1615" data-name="Path 1615" d="M213.72,365.921c5.666,10.515,9.384,22.07,12.745,33.477.178.565-.3.416-.491-.164-4.03-11.2-7.109-20.018-12.626-33.12C213.258,365.921,213.615,365.7,213.72,365.921Z" transform="translate(-47.732 -0.996)" fill="#263238" />
		<path id="Path_1616" data-name="Path 1616" d="M378.424,322.136l-64.693,72.055s-65.437-15.021-75.074-31.8c-6.35-11.05,42.965-55.636,80.16-50.416Z" transform="translate(-236.485 -27.437)" fill="#0dbdb8" />
		<path id="Path_1617" data-name="Path 1617" d="M318.685,364.958a19.662,19.662,0,0,0,1.636,5.28,19.008,19.008,0,0,0,2.974,4.7,19.764,19.764,0,0,0-1.636-5.294,19.2,19.2,0,0,0-2.974-4.685Zm-45.018-4.03a19.663,19.663,0,0,1,1.636,5.28,19.2,19.2,0,0,1-2.974-4.685,19.764,19.764,0,0,1-1.636-5.294A19.752,19.752,0,0,1,273.667,360.928Zm32.124-15.155a19.245,19.245,0,0,1,5.294-1.636,19.2,19.2,0,0,1-4.685,2.974,19.764,19.764,0,0,1-5.294,1.636A19.2,19.2,0,0,1,305.791,345.773Zm-32.034-19.839a19.05,19.05,0,0,1-2.573,4.893,21.548,21.548,0,0,1,3.807-10.291,19.173,19.173,0,0,1-1.234,5.413Zm65.586,15.6a19.333,19.333,0,0,1-2.573,4.893,21.4,21.4,0,0,1,3.807-10.291,19.333,19.333,0,0,1-1.234,5.413Zm26.532-17.073a19.05,19.05,0,0,1-4.893-2.573,19.185,19.185,0,0,1,5.384,1.234,19.53,19.53,0,0,1,4.893,2.573A19.183,19.183,0,0,1,365.874,324.462Zm-55.027-5.949a19.052,19.052,0,0,1-4.893-2.573,19.334,19.334,0,0,1,5.4,1.234,20.569,20.569,0,0,1,4.893,2.573,19.17,19.17,0,0,1-5.4-1.249Zm-20.375,63.355a18.975,18.975,0,0,1-4.908-2.588,19.719,19.719,0,0,1,5.4,1.249,19.051,19.051,0,0,1,4.893,2.573,19.723,19.723,0,0,1-5.4-1.249Zm-48.646-35.931a23.049,23.049,0,0,1,3.882,1.071,19.928,19.928,0,0,1,4.908,2.588,19.719,19.719,0,0,1-5.4-1.249,21.145,21.145,0,0,1-3.837-1.844Z" transform="translate(-234.196 -25.301)" fill="#fff" />
		<path id="Path_1618" data-name="Path 1618" d="M278.151,323.766c5.949-4.343,22.888-14.471,44.423-11.779.178,0,.193.327,0,.327-16.24-.461-38.147,8.031-44.274,11.719C278.136,324.122,278,323.87,278.151,323.766Z" transform="translate(-240.241 -27.445)" fill="#263238" />
		<path id="Path_1619" data-name="Path 1619" d="M256.263,378.926c6.692-8.313,13.816-16.24,20.97-24.167s14.292-15.854,21.639-23.6c4.149-4.372,8.284-8.789,12.6-13.013a.143.143,0,0,1,.223.178c-6.678,8.3-13.786,16.27-20.821,24.227s-14.292,15.868-21.55,23.706c-4.1,4.462-8.284,8.775-12.6,13C256.471,379.476,256.069,379.178,256.263,378.926Z" transform="translate(-196.715 -24.248)" fill="#263238" />
		<path id="Path_1620" data-name="Path 1620" d="M216.313,222.314a.074.074,0,1,1,.149,0c-1.294,9.935-3.659,33.031,12.091,32.718,6.335-.134,12.359-3.673,17.415-7.2a88.4,88.4,0,0,0,14.2-12.552,131.5,131.5,0,0,0,13.563-16.448c.164-.253.535,0,.357.3-4.134,5.845-7.659,11.9-12.359,17.415a76.353,76.353,0,0,1-15.348,13.935c-5.4,3.6-11.793,7.109-18.486,6.93-6.38-.164-10.723-4.462-12.18-10.41C213.8,239.134,214.543,230.122,216.313,222.314Z" transform="translate(-97.232 -72.662)" fill="#263238" />
		<path id="Path_1621" data-name="Path 1621" d="M219.789,217.2l11.481,27.632,34.087-35.514,9.9,11.154s-33.105,56.2-33.343,53.673l-11.719-23.8L213.84,267.187l.863-41.805Z" transform="translate(-97.243 -77.247)" fill="#fff" />
		<path id="Path_1622" data-name="Path 1622" d="M215.134,241.963c.372-6.9.565-13.861,1.249-20.732a.238.238,0,0,1,.476,0c1.487,6.648-.119,33.016,0,39.337l.074-.074c.684-.729,15.14-14.872,15.288-14.6,2.528,3.777,11.124,21.1,11.719,22.68,5.235-8.923,25.282-41.389,31.544-49.836a.238.238,0,0,1,.416.223c-4.61,9.429-31.231,53.138-31.6,53.019-.283.223-10.961-21.133-12.255-25.163-2.439,3.064-17.014,18.947-17.073,17.921a217.948,217.948,0,0,1,.164-22.769Z" transform="translate(-99.251 -72.71)" fill="#263238" />
		<path id="Path_1623" data-name="Path 1623" d="M281.73,285.77s-7.094,16.077,4.253,20.018,15.764-13.058,15.764-13.058Z" transform="translate(-221.438 -40)" fill="#455a64" />
		<path id="Path_1624" data-name="Path 1624" d="M312.964,219.84h0l-2.528-17-.788-5.622-4.164,3.882L292.946,212.88h0L252.39,329.566l20.033,6.96L312.949,219.84Z" transform="translate(-192.277 -83.142)" fill="#455a64" />
		<path id="Path_1625" data-name="Path 1625" d="M259.062,202.817l-.818-5.607-4.164,3.882Z" transform="translate(-140.888 -83.147)" fill="#37474f" />
		<rect id="Rectangle_244" data-name="Rectangle 244" width="24.747" height="4.908" transform="translate(59.833 241.859) rotate(19.17)" fill="#37474f" />
		<rect id="Rectangle_245" data-name="Rectangle 245" width="24.747" height="4.908" transform="translate(61.608 236.72) rotate(19.17)" fill="#37474f" />
		<path id="Path_1626" data-name="Path 1626" d="M279.98,293.375l7.54,2.632,10.514-43.664-2.826-.8Z" transform="translate(-218.38 -56.677)" fill="#37474f" />
		<path id="Path_1627" data-name="Path 1627" d="M230.276,244.631c47.025,58.759,89.708,143.322,81.053,173.9-3.168,11.184-23.379,29.744-53.733,19.705-34.206-11.332-76.814-39.2-116.522-68.813-8.418-6.276,60.633-58.67,69.75-52.052,4.239,3.064,15.809,13.861,17.564,13.028,2.632-1.264-11.288-30.19-23.081-75.55C192.873,207.019,209.812,219.1,230.276,244.631Z" transform="translate(-25.161 -70.96)" fill="#ad6359" />
		<path id="Path_1628" data-name="Path 1628" d="M228.781,234.758c-6.38,7.778,14.158,21.877,14.158,21.877a18.59,18.59,0,0,0-12.24,3.108c-6.127,4.581-1.621,16.2-1.621,16.2a22.977,22.977,0,0,0-12.4,5.324c-5.413,4.982-2.543,17.341-2.543,17.341a20.092,20.092,0,0,0-7.942,11.556c-2.632,12.626,11.585,26.249,20.523,35.009s42.594,25.238,48.542,29l56.707-56.945s-28.956-50.684-40.943-59.488C281,250.314,238.522,222.845,228.781,234.758Z" transform="translate(-142.091 -66.293)" fill="#ad6359" />
		<path id="Path_1629" data-name="Path 1629" d="M242.532,248.451c12.626,5.309,23.959,13.623,34.8,21.773a.238.238,0,0,1-.283.372c-10.693-8.224-23.8-13.8-34.845-21.579a.327.327,0,0,1,.327-.565Z" transform="translate(-141.343 -58.198)" fill="#263238" />
		<path id="Path_1630" data-name="Path 1630" d="M255.31,261.138a35.693,35.693,0,0,1,7.57,5.458q3.807,3.183,7.436,6.484,7.436,6.6,14.515,13.578c.208.208,0,.58-.283.372q-7.436-6.574-15.065-12.849-3.852-3.153-7.733-6.2a42.149,42.149,0,0,1-7.064-6.127.474.474,0,1,1,.625-.714Z" transform="translate(-167.401 -52.058)" fill="#263238" />
		<path id="Path_1631" data-name="Path 1631" d="M267.137,276.843c2.5,1.026,4.61,3.48,6.559,5.294,2.216,2.052,4.462,4.09,6.678,6.112,4.462,4.06,8.923,8.12,13.548,12.017a.234.234,0,1,1-.283.372c-4.714-3.941-9.459-7.808-14.128-11.794q-3.435-2.974-6.856-5.949c-1.919-1.681-4.536-3.569-5.726-5.949a.164.164,0,0,1,.208-.1Z" transform="translate(-194.948 -44.354)" fill="#263238" />
		<path id="Path_1632" data-name="Path 1632" d="M261.412,334.154a73.287,73.287,0,0,0-8.432-7.079,71.662,71.662,0,0,0-9.31-5.874,70.378,70.378,0,0,0,8.432,7.079,71.674,71.674,0,0,0,9.31,5.874Z" transform="translate(-127.757 -22.738)" fill="#263238" />
		<path id="Path_1633" data-name="Path 1633" d="M214.158,328.061s-12.8-37.477-21.594-67.891-11.57-58.67,20.821-24.331,90.288,135.544,89.4,175.4c-.238,11.585-12.671,33.908-44.75,33.165s-119.437-53.7-119.437-53.7l64.8-70.508Z" transform="translate(-12.864 -71.985)" fill="#0dbdb8" />
		<path id="Path_1634" data-name="Path 1634" d="M170.706,322.632a13.224,13.224,0,0,0,1.562,2.127,14.455,14.455,0,0,0-.744-2.974Zm59.607,22.977a19.66,19.66,0,0,1,1.636,5.28,19.2,19.2,0,0,1-2.974-4.685,19.766,19.766,0,0,1-1.636-5.294,19.75,19.75,0,0,1,2.974,4.7ZM186.44,392.516a19.14,19.14,0,0,1,1.636,5.28,19.2,19.2,0,0,1-2.974-4.685,20.314,20.314,0,0,1-1.636-5.294,19.573,19.573,0,0,1,2.974,4.759Zm82.465,6.722a19.661,19.661,0,0,1,1.636,5.28,19.2,19.2,0,0,1-2.974-4.685,19.825,19.825,0,0,1-1.636-5.28,19.662,19.662,0,0,1,2.974,4.744ZM144.114,387.519a19.767,19.767,0,0,1,1.636,5.294,19.2,19.2,0,0,1-2.974-4.685,19.765,19.765,0,0,1-1.636-5.294,19.662,19.662,0,0,1,2.974,4.744Zm55.963-96.936a19.335,19.335,0,0,1,1.636,5.28,19.6,19.6,0,0,1-2.974-4.685,19.14,19.14,0,0,1-1.636-5.28A19.6,19.6,0,0,1,200.078,290.583Zm10.009-24.435a16.807,16.807,0,0,1-4.045,1.13,16.628,16.628,0,0,1,3.287-2.231ZM253.9,342.962h0c.208.431.416.863.61,1.309h0a20.319,20.319,0,0,1-5.294,1.636,19.574,19.574,0,0,1,4.685-2.989Zm-26.77,53a19.337,19.337,0,0,1,5.28-1.636,19.2,19.2,0,0,1-4.685,2.974,20.2,20.2,0,0,1-5.28,1.636,19.2,19.2,0,0,1,4.625-3.019Zm-41.3-47.858a19.337,19.337,0,0,1,5.28-1.636,19.137,19.137,0,0,1-4.685,2.974,19.676,19.676,0,0,1-5.28,1.651,19.2,19.2,0,0,1,4.625-3.034Zm63.95,71.728a19.051,19.051,0,0,1-2.573,4.893,21.547,21.547,0,0,1,3.807-10.291,19.173,19.173,0,0,1-1.294,5.354ZM200.7,414.69a19.572,19.572,0,0,1-2.588,4.893,19.72,19.72,0,0,1,1.234-5.384,19.928,19.928,0,0,1,2.588-4.908,19.691,19.691,0,0,1-1.353,5.354Zm9.072-42.965a19.333,19.333,0,0,1-2.573,4.908,19.17,19.17,0,0,1,1.234-5.4,19.572,19.572,0,0,1,2.588-4.893,19.736,19.736,0,0,1-1.249,5.384Zm20.538-59.637a19.051,19.051,0,0,1-2.573,4.893,21.4,21.4,0,0,1,3.807-10.291,19.171,19.171,0,0,1-1.219,5.4Zm-65.02-82a19.573,19.573,0,0,1-2.588,4.893,21.639,21.639,0,0,1,3.822-10.277,19.72,19.72,0,0,1-1.219,5.384Zm15.526,26.859a19.05,19.05,0,0,1-4.893-2.573,19.068,19.068,0,0,1,5.384,1.234,19.87,19.87,0,0,1,4.908,2.573,19.166,19.166,0,0,1-5.384-1.234ZM164.221,413.1a19.333,19.333,0,0,1-4.908-2.573,19.171,19.171,0,0,1,5.4,1.234,19.528,19.528,0,0,1,4.893,2.573,19.182,19.182,0,0,1-5.369-1.175ZM248.8,375.354a19.052,19.052,0,0,1-4.893-2.573,19.334,19.334,0,0,1,5.4,1.234A19.839,19.839,0,0,1,254.2,376.6a19.718,19.718,0,0,1-5.4-1.249Zm-27.29,55.16a19.334,19.334,0,0,1-4.893-2.573,19.17,19.17,0,0,1,5.4,1.234,19.841,19.841,0,0,1,4.893,2.588,19.836,19.836,0,0,1-5.4-1.219Zm-17.415-108.4a19.112,19.112,0,0,1-4.893-2.588,21.771,21.771,0,0,1,10.291,3.822,19.691,19.691,0,0,1-5.4-1.2Zm-38.563,48.78a19.053,19.053,0,0,1-4.893-2.573,19.333,19.333,0,0,1,5.4,1.234,19.84,19.84,0,0,1,4.893,2.588A19.84,19.84,0,0,1,165.53,370.892Z" transform="translate(15.597 -69.753)" fill="#fff" />
		<path id="Path_1635" data-name="Path 1635" d="M198.283,358.343c6.692-8.3,13.816-16.24,20.97-24.152s14.292-15.868,21.639-23.617c4.164-4.372,8.284-8.775,12.6-13a.143.143,0,0,1,.223.178c-6.678,8.284-13.786,16.27-20.821,24.212s-14.292,15.883-21.55,23.706c-4.1,4.462-8.284,8.774-12.6,13.013C198.491,358.893,198.089,358.6,198.283,358.343Z" transform="translate(-52.507 -34.272)" fill="#263238" />
		<path id="Path_1636" data-name="Path 1636" d="M199.952,265.14c1.264,1.859,2.409,3.792,3.48,5.755-.357-1.011-.729-2.023-1.071-3.049-1.487-4.12-2.766-8.269-4.149-12.418-.089-.253.357-.431.461-.178,1.487,3.584,2.974,7.139,4.387,10.738s2.722,7.139,4.09,10.708c2.751,7.213,5.488,14.411,8.031,21.7,1.487,4.12,2.766,8.254,3.971,12.463,0,.164-.223.283-.3.119-3.2-6.99-5.949-14.173-8.67-21.386q-2.588-7.079-5.146-14.173c-1.859-3.331-3.659-6.707-5.294-10.158a.12.12,0,1,1,.208-.119Z" transform="translate(-17.873 -54.929)" fill="#263238" />
		<path id="Path_1637" data-name="Path 1637" d="M145.182,288.924s1.011-.8,1.056-.848c3.2,2.8,6.663,5.235,9.964,7.867,1.755,1.413,14.783,11.749,19.244,15.512,10.574,8.923,20.821,18.188,30.964,27.677,5.042,4.744,9.994,9.593,14.872,14.485s9.86,9.86,14.545,15.036a.119.119,0,0,0,.178-.149c-5.086-5.949-10.158-12.031-15.467-17.846a356.788,356.788,0,0,0-29.878-29.164q-7.9-6.826-16.106-13.281c-3.6-2.841-15.556-12.061-17.266-13.385-3.525-2.662-7.064-5.532-10.633-7.9-.134-.089-1.621,1.77-1.666,1.8S145.108,289.058,145.182,288.924Z" transform="translate(44.407 -39.436)" fill="#263238" />
	</g>
	<g id="freepik--Mug--inject-2" transform="translate(494.733 416.402)">
		<rect id="Rectangle_246" data-name="Rectangle 246" width="35.202" height="5.488" transform="translate(29.238 66.418)" fill="#455a64" />
		<rect id="Rectangle_247" data-name="Rectangle 247" width="35.202" height="3.629" transform="translate(29.238 66.418)" fill="#263238" />
		<path id="Path_1638" data-name="Path 1638" d="M88.891,385.747a19.943,19.943,0,0,1-19.824,8.477A19.618,19.618,0,0,1,65.5,393.2a25.567,25.567,0,0,1-4.982-2.617l4.462-6.633a14.668,14.668,0,0,0,2.647,1.487c8.373,3.807,13.682-2.811,14.723-4.313,4.833-6.782,6.559-22.308,1.666-28.257-.327-.446-1.74-1.145-7.436,0-1.041.238-2.231.506-3.569.877a14.448,14.448,0,0,1-3.227.684l-.134-3.971-.387-3.986a9.205,9.205,0,0,0,1.681-.431,50.659,50.659,0,0,1,8-1.666c4.164-.431,8.537.074,11.228,3.361C98.156,357.565,94.929,377.24,88.891,385.747Z" transform="translate(17.34 -334.097)" fill="#455a64" />
		<path id="Path_1639" data-name="Path 1639" d="M83.337,370.94a14.661,14.661,0,0,0,2.647,1.487l-2.142,7.748a25.565,25.565,0,0,1-4.982-2.617Z" transform="translate(-1.005 -321.089)" opacity="0.1" />
		<path id="Path_1640" data-name="Path 1640" d="M80.912,344.4l-2.365,8.492c-1.041.238-2.231.506-3.569.877a14.443,14.443,0,0,1-3.227.684l-.134-3.971L71.23,346.5a9.2,9.2,0,0,0,1.681-.431,50.677,50.677,0,0,1,8-1.666Z" transform="translate(15.414 -334.019)" fill="#263238" />
		<path id="Path_1641" data-name="Path 1641" d="M73,337.42s4.224,35.871,11.526,51,17.49,16.79,23.81,16.79h23.022c6.321,0,16.493-1.7,23.8-16.776s11.541-51.011,11.541-51.011Z" transform="translate(-73 -337.42)" fill="#455a64" />
		<path id="Path_1642" data-name="Path 1642" d="M76.06,356c.342,1.487.669,2.974,1.011,4.551h82.57c.342-1.487.669-2.974,1.011-4.551Z" transform="translate(-71.509 -328.368)" fill="#37474f" />
		<path id="Path_1643" data-name="Path 1643" d="M77.44,362.11c.892,3.391,1.844,6.648,2.9,9.518h74.539c1.056-2.87,2.008-6.127,2.974-9.518Z" transform="translate(-70.762 -325.391)" fill="#37474f" />
	</g>
</svg>
