<svg xmlns="http://www.w3.org/2000/svg" width="697.714" height="698.802" viewBox="0 0 697.714 698.802">
	<g id="Novelist_writing-pana" data-name="Novelist writing-pana" transform="translate(-35.37 -40.97)">
		<g id="freepik--background-complete--inject-4" transform="translate(45.316 40.97)">
			<path id="Path_1644" data-name="Path 1644" d="M106.276,360.145c8.94-4.616,19.5-5.217,29.42-3.576,5.331.894,10.906,2.487,14.531,6.5s4.324,11.069.146,14.5c-2.471,2.064-5.933,2.373-9.151,2.341-7.786-.1-16.416-1.463-22.625,3.251-3.543,2.666-5.916,7.1-10.142,8.42s-8.826-1.17-11.036-4.876a17.083,17.083,0,0,1-1.235-12.646,19.293,19.293,0,0,1,10.094-13.913Z" transform="translate(-7.712 155.883)" fill="#ebebeb" />
			<path id="Path_1645" data-name="Path 1645" d="M91.5,365.3c5.478,7.818,16.108,5.234,21.049.455s7.005-11.687,8.907-18.269c4.34-15.067,8.712-30.882,5.478-46.226a25.73,25.73,0,0,0-5.9-12.564,13.442,13.442,0,0,0-12.711-4.226c-5.364,1.414-8.7,6.68-11.1,11.67a110.233,110.233,0,0,0-10.89,47.283c0,7.607.878,15.587,5.169,21.878" transform="translate(-13.447 111.145)" fill="#ebebeb" />
			<path id="Path_1646" data-name="Path 1646" d="M104.507,366.846c5.949-7.054,7.07-17.343,4.437-26.169s-8.615-16.351-15.506-22.479a83.464,83.464,0,0,0-27.762-16.368A29.762,29.762,0,0,0,53.193,299.7a13.084,13.084,0,0,0-10.467,6.339c-2.926,5.575-.13,12.337,2.909,17.879a210.477,210.477,0,0,0,18.221,27.762c5.461,7.054,11.735,13.995,20.057,17.18s16.985,2.812,21.39-2.958" transform="translate(-41.489 120.818)" fill="#ebebeb" />
			<path id="Path_1647" data-name="Path 1647" d="M89.318,434.311a15.507,15.507,0,0,0,.5-3.543c.244-2.584.569-5.835.943-9.752a139.264,139.264,0,0,1,2.178-14.206,108.352,108.352,0,0,1,5.169-16.79,61.764,61.764,0,0,1,8.566-15.181,31.987,31.987,0,0,1,10.841-9,30.477,30.477,0,0,1,9.118-2.844,17.246,17.246,0,0,0,3.527-.5,17.545,17.545,0,0,0-3.592,0,27.829,27.829,0,0,0-9.508,2.487,31.744,31.744,0,0,0-11.378,9.086,60.009,60.009,0,0,0-8.891,15.49,101.377,101.377,0,0,0-5.12,17.05,118.455,118.455,0,0,0-1.9,14.4c-.309,4.112-.423,7.444-.471,9.752A17.52,17.52,0,0,0,89.318,434.311Z" transform="translate(-11.64 160.044)" fill="#e0e0e0" />
			<path id="Path_1648" data-name="Path 1648" d="M89.986,463.688a7.184,7.184,0,0,0,.1-1.625v-4.714c0-4.1,0-10.012.211-17.31.374-14.628,1.625-30.362,4.063-52.532,2.292-20.854,5.38-45.121,8.647-60.9.7-3.592,1.4-6.827,2.064-9.655s1.17-5.266,1.625-7.249.813-3.381,1.105-4.584a6.715,6.715,0,0,0,.293-1.625,7.313,7.313,0,0,0-.585,1.544c-.358,1.186-.8,2.682-1.365,4.519s-1.219,4.389-1.934,7.217-1.512,6.03-2.276,9.622a532.173,532.173,0,0,0-9.1,56.5c-2.341,22.2-3.478,42.455-3.576,57.1-.1,7.33,0,13.263.244,17.359.13,1.918.211,3.478.293,4.714a6.924,6.924,0,0,0,.2,1.625Z" transform="translate(-11.641 123.207)" fill="#e0e0e0" />
			<path id="Path_1649" data-name="Path 1649" d="M109.834,420.007a27.892,27.892,0,0,0,0-4.876c-.179-3.153-.618-7.737-1.5-13.328A181.775,181.775,0,0,0,104,382.3a162.257,162.257,0,0,0-8.127-23,122.425,122.425,0,0,0-23.877-37.156,61.108,61.108,0,0,0-5.64-5.136c-.861-.732-1.625-1.447-2.389-2.032l-2.178-1.5a31.338,31.338,0,0,0-4.145-2.649c-.244.309,5.868,3.9,13.572,12.109A128.991,128.991,0,0,1,94.49,359.965a183.875,183.875,0,0,1,8.127,22.755c2.129,7.135,3.543,13.7,4.616,19.245s1.625,10.061,1.95,13.2a32.624,32.624,0,0,0,.65,4.844Z" transform="translate(-31.392 127.797)" fill="#e0e0e0" />
			<path id="Path_1650" data-name="Path 1650" d="M66.54,420.4l3.917,53.589h68.835l3.9-53.589Z" transform="translate(-25.823 196.32)" fill="#e0e0e0" />
			<rect id="Rectangle_248" data-name="Rectangle 248" width="91.509" height="21.114" transform="translate(34.069 595.607)" fill="#e0e0e0" />
			<path id="Path_1651" data-name="Path 1651" d="M62.45,452.1v5.851h90.014V452.1Z" transform="translate(-28.381 216.145)" fill="#ebebeb" />
			<path id="Path_1652" data-name="Path 1652" d="M69.31,466,65.1,455.7h82.423L142.615,466Z" transform="translate(-26.724 218.397)" fill="#e0e0e0" />
			<path id="Path_1653" data-name="Path 1653" d="M141.494,434.059a2.44,2.44,0,0,1-.325.5l-1.024,1.365-4.015,5.12-.179.228-.163-.228-9.866-13.637h.569l-9.752,13.734-.309.439-.341-.406c-3.576-4.258-7.461-8.891-11.508-13.686h.666c-.2.26-.406.536-.634.8L94.325,441.195l-.341.423-.309-.439-9.752-13.734h.569L72.529,441.065l-.211.244-.163-.276-3.673-6.274-.959-1.625a3.254,3.254,0,0,1-.293-.6,2.861,2.861,0,0,1,.406.52l1.057,1.625,3.933,6.16h-.374L84,427.07l.293-.358.276.374,9.752,13.669h-.65l10.256-13,.634-.78.325-.423.341.406,11.378,13.718h-.634c3.543-4.876,6.827-9.525,9.752-13.653l.293-.406.276.406,9.655,13.767h-.358l4.177-4.99,1.105-1.3a2.681,2.681,0,0,1,.618-.439Z" transform="translate(-25.392 200.167)" fill="#f5f5f5" />
			<path id="Path_1654" data-name="Path 1654" d="M143.927,420.343c0,.244-17.245.439-38.505.439s-38.522-.2-38.522-.439,17.245-.423,38.522-.423S143.927,420.05,143.927,420.343Z" transform="translate(-25.598 196.02)" fill="#f5f5f5" />
			<path id="Path_1655" data-name="Path 1655" d="M148.644,456.223c0,.244-18.741.423-41.854.423s-41.87-.179-41.87-.423,18.741-.423,41.87-.423S148.644,455.979,148.644,456.223Z" transform="translate(-26.836 218.459)" fill="#f5f5f5" />
			<rect id="Rectangle_249" data-name="Rectangle 249" width="315.878" height="567.439" transform="translate(327.191 15.49)" fill="#ebebeb" />
			<rect id="Rectangle_250" data-name="Rectangle 250" width="287.368" height="534.086" transform="translate(339.804 31.939)" fill="#fafafa" />
			<path id="Path_1656" data-name="Path 1656" d="M450.481,626.761l-13.361-5.12V44.58h13.361Z" transform="translate(205.933 -38.712)" fill="#e0e0e0" />
			<rect id="Rectangle_251" data-name="Rectangle 251" width="293.61" height="5.689" transform="translate(339.804 185.587)" fill="#e0e0e0" />
			<rect id="Rectangle_252" data-name="Rectangle 252" width="293.61" height="5.689" transform="translate(339.804 312.773)" fill="#e0e0e0" />
			<rect id="Rectangle_253" data-name="Rectangle 253" width="293.61" height="5.689" transform="translate(339.804 439.96)" fill="#e0e0e0" />
			<rect id="Rectangle_254" data-name="Rectangle 254" width="392.742" height="14.515" transform="translate(476.223 581.173) rotate(-90)" fill="#e0e0e0" />
			<rect id="Rectangle_255" data-name="Rectangle 255" width="6.583" height="156.476" transform="translate(395.149 31.939)" fill="#e0e0e0" />
			<rect id="Rectangle_256" data-name="Rectangle 256" width="6.583" height="156.476" transform="translate(451.875 31.939)" fill="#e0e0e0" />
			<rect id="Rectangle_257" data-name="Rectangle 257" width="6.583" height="156.476" transform="translate(508.601 31.939)" fill="#e0e0e0" />
			<rect id="Rectangle_258" data-name="Rectangle 258" width="6.583" height="156.476" transform="translate(565.343 31.939)" fill="#e0e0e0" />
			<rect id="Rectangle_259" data-name="Rectangle 259" width="13.361" height="580.572" transform="translate(313.831 5.868)" fill="#e0e0e0" />
			<rect id="Rectangle_260" data-name="Rectangle 260" width="342.599" height="15.49" transform="translate(313.831)" fill="#e0e0e0" />
			<rect id="Rectangle_261" data-name="Rectangle 261" width="361.112" height="14.417" transform="translate(304.355 589.95)" fill="#e0e0e0" />
			<path id="Path_1657" data-name="Path 1657" d="M567.438,399.61l22.414,7.022H228.74l22.837-7.022Z" transform="translate(75.615 183.319)" fill="#ebebeb" />
		</g>
		<g id="freepik--Desk--inject-4" transform="translate(35.37 724.884)">
			<path id="Path_1658" data-name="Path 1658" d="M733.083,462.163c0,.244-156.2.423-348.84.423s-348.873-.114-348.873-.423,156.167-.423,348.873-.423S733.083,462,733.083,462.163Z" transform="translate(-35.37 -461.74)" fill="#263238" />
		</g>
		<g id="freepik--Plant--inject-4" transform="translate(566.416 500.151)">
			<path id="Path_1732" data-name="Path 1732" d="M418.391,376.8c-.146.179-1.365-.553-2.731-1.625s-2.341-2.113-2.194-2.292,1.365.553,2.731,1.625S418.537,376.619,418.391,376.8Z" transform="translate(-329.969 -292.596)" fill="#263238" />
			<path id="Path_1733" data-name="Path 1733" d="M454.63,351.249c.228-5.169.374-10.484-1.268-15.392s-5.429-9.444-10.5-10.5c-5.786-1.187-11.719,2.471-14.954,7.412s-4.372,10.939-5.331,16.774a591.961,591.961,0,0,0-7.249,121.774l23.682,3.332C449.412,432.193,452.744,394.972,454.63,351.249Z" transform="translate(-329.15 -322.44)" fill="#455a64" />
			<path id="Path_1734" data-name="Path 1734" d="M436.642,325.16a1.033,1.033,0,0,1-.114.39l-.39,1.073c-.374.992-.91,2.357-1.625,4.08-.325.894-.764,1.869-1.122,2.974s-.731,2.292-1.154,3.576-.845,2.666-1.317,4.128-.8,3.056-1.235,4.7a208.674,208.674,0,0,0-4.421,23.438c-1.284,8.907-2.129,18.773-2.779,29.143-1.219,20.756-1.4,39.594-1.934,53.231-.26,6.81-.488,12.32-.748,16.124-.13,1.853-.228,3.251-.309,4.372a3.839,3.839,0,0,1-.1,1.138,2.393,2.393,0,0,1,0,.39,1.039,1.039,0,0,1,0-.39c0-.309,0-.683,0-1.138,0-1.073.081-2.536.13-4.389.163-3.8.309-9.313.488-16.14.374-13.621.471-32.508,1.625-53.248.65-10.386,1.528-20.269,2.844-29.257a199.289,199.289,0,0,1,4.779-23.487c.455-1.625.878-3.251,1.284-4.7l1.4-4.112,1.219-3.576c.374-1.105.845-2.064,1.187-2.942l1.739-4.047.471-1.04a1.174,1.174,0,0,1,.081-.293Z" transform="translate(-326.262 -322.423)" fill="#263238" />
			<path id="Path_1735" data-name="Path 1735" d="M433.519,325.17a17.164,17.164,0,0,1,2.893,4.876,36.245,36.245,0,0,1,2.162,15.311c-.634,13.1-1.8,31.142-3.365,51.053s-3.251,37.92-4.7,50.94c-.7,6.5-1.3,11.768-1.755,15.409-.211,1.755-.39,3.153-.536,4.177l-.146,1.089a1.071,1.071,0,0,1-.1.358,1.1,1.1,0,0,1,0-.374V466.92c.1-1.04.211-2.438.374-4.21l1.479-15.425c1.251-13,2.893-31.029,4.454-50.94s2.828-37.953,3.608-51a36.913,36.913,0,0,0-1.869-15.181A30.739,30.739,0,0,0,433.519,325.17Z" transform="translate(-320.896 -322.416)" fill="#263238" />
			<path id="Path_1736" data-name="Path 1736" d="M444.836,364.091a24.77,24.77,0,0,1-8.7-3.121A26,26,0,0,1,444.836,364.091Z" transform="translate(-315.78 -300.027)" fill="#263238" />
			<path id="Path_1737" data-name="Path 1737" d="M446.661,348a14.63,14.63,0,0,1-4.275,2.373A14.336,14.336,0,0,1,437.77,352a14.059,14.059,0,0,1,4.275-2.373A14.515,14.515,0,0,1,446.661,348Z" transform="translate(-314.761 -308.139)" fill="#263238" />
			<path id="Path_1738" data-name="Path 1738" d="M445.025,336.229a7.787,7.787,0,0,1-3.527.179,7.964,7.964,0,0,1-3.478-.666,7.282,7.282,0,0,1,3.527-.179A7.443,7.443,0,0,1,445.025,336.229Z" transform="translate(-314.604 -316.003)" fill="#263238" />
			<path id="Path_1739" data-name="Path 1739" d="M428.8,330.549c-.2.114-1.235-1.17-2.308-2.893a8.47,8.47,0,0,1-1.625-3.332c.2-.13,1.235,1.17,2.324,2.877a8.469,8.469,0,0,1,1.609,3.348Z" transform="translate(-322.828 -322.951)" fill="#263238" />
			<path id="Path_1740" data-name="Path 1740" d="M424.9,335.7a13.8,13.8,0,0,1-6.713-.146,7.152,7.152,0,0,1,3.365-.358C423.408,335.243,424.9,335.454,424.9,335.7Z" transform="translate(-327.006 -316.187)" fill="#263238" />
			<path id="Path_1741" data-name="Path 1741" d="M421.364,351.2a8.484,8.484,0,0,1-3.543-.975c-1.869-.764-3.251-1.544-3.251-1.755a7.932,7.932,0,0,1,3.543.975C420.015,350.193,421.462,350.957,421.364,351.2Z" transform="translate(-329.27 -307.845)" fill="#263238" />
			<path id="Path_1742" data-name="Path 1742" d="M420.78,362.525c0,.228-1.3.715-3.007,1.073s-3.153.455-3.251.228,1.3-.7,3.007-1.056S420.731,362.3,420.78,362.525Z" transform="translate(-329.303 -299.128)" fill="#263238" />
			<path id="Path_1743" data-name="Path 1743" d="M419.229,382.712c0,.228-1.382.683-3.251,1.008a6.875,6.875,0,0,1-3.348.163c0-.228,1.4-.683,3.251-1.008a6.858,6.858,0,0,1,3.348-.163Z" transform="translate(-330.483 -286.515)" fill="#263238" />
			<path id="Path_1744" data-name="Path 1744" d="M417.79,393.818c.1.2-1.089,1.04-2.666,1.885s-2.958,1.349-3.072,1.138,1.089-1.057,2.666-1.885S417.677,393.607,417.79,393.818Z" transform="translate(-330.849 -279.514)" fill="#263238" />
			<path id="Path_1745" data-name="Path 1745" d="M426.19,409.088c-.2.114-1.235-1.317-2.324-3.251a9.883,9.883,0,0,1-1.625-3.625c.211-.114,1.252,1.317,2.324,3.251a9.265,9.265,0,0,1,1.625,3.625Z" transform="translate(-324.473 -274.239)" fill="#263238" />
			<path id="Path_1746" data-name="Path 1746" d="M429.563,385.436c.163.163-1.008,1.625-2.6,3.137s-3.007,2.7-3.251,2.519,1.008-1.625,2.6-3.121S429.4,385.273,429.563,385.436Z" transform="translate(-323.572 -284.736)" fill="#263238" />
			<path id="Path_1747" data-name="Path 1747" d="M428.342,376.156c-.179.163-1.252-.731-2.406-1.983s-1.951-2.373-1.788-2.536,1.252.715,2.406,1.967S428.5,375.993,428.342,376.156Z" transform="translate(-323.293 -293.368)" fill="#263238" />
			<path id="Path_1748" data-name="Path 1748" d="M430.436,360.325c.179.163-.8,1.528-2.162,3.056s-2.617,2.633-2.8,2.471.8-1.512,2.162-3.039S430.257,360.179,430.436,360.325Z" transform="translate(-322.461 -300.439)" fill="#263238" />
			<path id="Path_1749" data-name="Path 1749" d="M431.641,352.158c-.179.163-1.528-.894-3.023-2.373s-2.584-2.8-2.422-2.958,1.512.894,3.023,2.357S431.8,352,431.641,352.158Z" transform="translate(-322.009 -308.883)" fill="#263238" />
			<path id="Path_1750" data-name="Path 1750" d="M432.975,336.283a8.258,8.258,0,0,1-1.512,3.365c-1.04,1.739-2.032,3.056-2.243,2.926a8.63,8.63,0,0,1,1.512-3.365C431.772,337.453,432.78,336.169,432.975,336.283Z" transform="translate(-320.108 -315.471)" fill="#263238" />
			<path id="Path_1751" data-name="Path 1751" d="M436.61,323.483c.211.114-.39,1.625-1.333,3.365s-1.869,3.072-2.081,2.958.39-1.625,1.333-3.365S436.415,323.369,436.61,323.483Z" transform="translate(-317.648 -323.476)" fill="#263238" />
			<path id="Path_1752" data-name="Path 1752" d="M441.313,329.314c.114.211-.845.878-2.113,1.5s-2.373.926-2.487.715.861-.878,2.129-1.479S441.216,329.1,441.313,329.314Z" transform="translate(-315.427 -319.864)" fill="#263238" />
			<path id="Path_1753" data-name="Path 1753" d="M442.983,376.7a9.637,9.637,0,0,1-4.649-1.122,9.851,9.851,0,0,1-4.015-2.568,22.457,22.457,0,0,1,4.356,1.788,25.56,25.56,0,0,1,4.307,1.9Z" transform="translate(-316.918 -292.498)" fill="#263238" />
			<path id="Path_1754" data-name="Path 1754" d="M440.444,385.042a7.054,7.054,0,0,1-3.251,1.04c-1.8.358-3.251.455-3.332.228s1.382-.7,3.251-1.056a7.006,7.006,0,0,1,3.332-.211Z" transform="translate(-317.207 -285.042)" fill="#263238" />
			<path id="Path_1755" data-name="Path 1755" d="M438.034,404.6a8.989,8.989,0,0,1-3.608-3.251,9.3,9.3,0,0,1-2.275-4.226,26.6,26.6,0,0,1,2.926,3.706,29.708,29.708,0,0,1,2.958,3.771Z" transform="translate(-318.275 -277.42)" fill="#263238" />
			<path id="Path_1756" data-name="Path 1756" d="M412.347,410.964c-.163-.179.813-1.252,2.146-2.389s2.552-1.934,2.7-1.755-.813,1.252-2.146,2.389S412.493,411.143,412.347,410.964Z" transform="translate(-330.671 -271.369)" fill="#263238" />
			<path id="Path_1757" data-name="Path 1757" d="M412.729,376.95c-1.625-4.876-4.437-10.435-9.492-10.5a8.4,8.4,0,0,0-7.1,4.762,17.506,17.506,0,0,0-1.918,8.712,227.851,227.851,0,0,0,10.858,63.1h18.5A219.428,219.428,0,0,0,412.729,376.95Z" transform="translate(-342.008 -296.6)" fill="#455a64" />
			<path id="Path_1758" data-name="Path 1758" d="M397.222,360.589c-2.584-10.337-10.289-15.929-19.245-16.449-8.127,1.447-11.378,9.492-12.32,17.733s1.625,16.449,4.112,24.381q12.174,38.083,24.381,76.166l23.015-2.519C409.884,425.864,405.69,394.3,397.222,360.589Z" transform="translate(-359.984 -310.553)" fill="#455a64" />
			<path id="Path_1759" data-name="Path 1759" d="M401.015,366.45a20.907,20.907,0,0,0-1.625,2.617,17.262,17.262,0,0,0-.861,8.127c.358,3.511.764,7.753,1.349,12.385s1.43,9.752,2.471,15.051c2.1,10.63,4.454,20.171,5.949,27.112.764,3.478,1.333,6.29,1.625,8.257.146.894.276,1.625.39,2.259a3.545,3.545,0,0,1,.081.8,3.086,3.086,0,0,1-.26-.764l-.536-2.227c-.488-2.064-1.154-4.876-1.95-8.127-1.625-6.908-4.1-16.416-6.193-27.079-1.04-5.331-1.853-10.435-2.422-15.116-.293-2.324-.488-4.567-.683-6.648s-.39-4.015-.488-5.786a16.919,16.919,0,0,1,1.17-8.371,7.216,7.216,0,0,1,1.983-2.487Z" transform="translate(-339.787 -296.6)" fill="#263238" />
			<path id="Path_1760" data-name="Path 1760" d="M376.054,343.74a31.639,31.639,0,0,0-2.779,3.738,26.186,26.186,0,0,0-3.511,12.044,55.8,55.8,0,0,0,2.861,18.529c2.016,6.843,4.226,14.352,6.5,22.252,4.584,15.766,8.728,30.037,11.768,40.472,1.447,5.136,2.633,9.313,3.478,12.3.374,1.4.683,2.5.91,3.348a9.391,9.391,0,0,1,.26,1.187,5.037,5.037,0,0,1-.423-1.138c-.276-.829-.618-1.934-1.056-3.251L390.325,441c-3.1-10.419-7.331-24.673-12.012-40.423-2.308-7.9-4.5-15.409-6.5-22.268a55.148,55.148,0,0,1-2.682-18.789,25.6,25.6,0,0,1,3.82-12.174A14.045,14.045,0,0,1,376.054,343.74Z" transform="translate(-357.704 -310.803)" fill="#263238" />
			<path id="Path_1761" data-name="Path 1761" d="M407.782,457.488a6.251,6.251,0,0,1-.52-1.105c-.309-.731-.8-1.82-1.317-3.251-1.089-2.828-2.5-6.989-3.95-12.223s-2.909-11.524-4.291-18.562-2.8-14.775-4.34-22.885a224.5,224.5,0,0,0-5.445-22.609,125.153,125.153,0,0,0-6.713-17.733,92.891,92.891,0,0,0-6.193-11.166c-.8-1.3-1.512-2.227-1.951-2.893a5.853,5.853,0,0,1-.634-1.04,7.823,7.823,0,0,1,.78.926c.471.65,1.235,1.544,2.064,2.812a83.54,83.54,0,0,1,6.5,11.1,119.862,119.862,0,0,1,6.924,17.765,225.223,225.223,0,0,1,5.526,22.755c1.528,8.127,2.958,15.848,4.275,22.9s2.714,13.328,4.1,18.546,2.7,9.411,3.69,12.272c.471,1.43.91,2.536,1.17,3.251a5.822,5.822,0,0,1,.325,1.138Z" transform="translate(-355.623 -310.628)" fill="#263238" />
			<path id="Path_1762" data-name="Path 1762" d="M370.607,367.742c0,.228-1.186.715-2.8,1.105s-2.942.52-2.991.293,1.2-.731,2.8-1.105S370.558,367.514,370.607,367.742Z" transform="translate(-360.383 -295.86)" fill="#263238" />
			<path id="Path_1763" data-name="Path 1763" d="M369.876,358.192a28.412,28.412,0,0,1-7.786.309,7.962,7.962,0,0,1,3.868-.731A8.127,8.127,0,0,1,369.876,358.192Z" transform="translate(-362.09 -302.077)" fill="#263238" />
			<path id="Path_1764" data-name="Path 1764" d="M370.424,350.864c-.163.179-1.4-.634-2.8-1.82s-2.389-2.276-2.243-2.454,1.4.634,2.8,1.82S370.57,350.685,370.424,350.864Z" transform="translate(-360.038 -309.036)" fill="#263238" />
			<path id="Path_1765" data-name="Path 1765" d="M373.077,341c.228,0,.163,1.17.13,2.519s0,2.471-.276,2.519-.618-1.089-.569-2.536S372.849,341,373.077,341Z" transform="translate(-355.669 -312.516)" fill="#263238" />
			<path id="Path_1766" data-name="Path 1766" d="M382.867,344.895c.2.13-.374,1.268-1.252,2.536s-1.755,2.178-1.951,2.048.374-1.268,1.252-2.536S382.672,344.765,382.867,344.895Z" transform="translate(-351.123 -310.088)" fill="#263238" />
			<path id="Path_1767" data-name="Path 1767" d="M389.522,354.861a7.351,7.351,0,0,1-2.666,1.625c-1.56.715-2.893.975-2.974.748s1.105-.894,2.649-1.528S389.424,354.65,389.522,354.861Z" transform="translate(-348.464 -303.882)" fill="#263238" />
			<path id="Path_1768" data-name="Path 1768" d="M393.753,365.08a10.76,10.76,0,0,1-7.623,1.723,14.842,14.842,0,0,1,3.787-.959A14.448,14.448,0,0,1,393.753,365.08Z" transform="translate(-347.056 -297.457)" fill="#263238" />
			<path id="Path_1769" data-name="Path 1769" d="M374.905,364.053c-.228,0,0-1.219.358-2.568s.943-2.389,1.17-2.324,0,1.219-.358,2.568S375.116,364.118,374.905,364.053Z" transform="translate(-354.133 -301.16)" fill="#263238" />
			<path id="Path_1770" data-name="Path 1770" d="M377.122,377.536c-.228-.1.244-1.625,1.04-3.462s1.625-3.251,1.8-3.121-.244,1.625-1.04,3.462S377.333,377.666,377.122,377.536Z" transform="translate(-352.725 -293.789)" fill="#263238" />
			<path id="Path_1771" data-name="Path 1771" d="M374.06,379.34a8.5,8.5,0,0,1-3.251-.731c-1.755-.553-3.251-1.057-3.137-1.284a6.129,6.129,0,0,1,3.4.471C372.809,378.365,374.141,379.129,374.06,379.34Z" transform="translate(-358.603 -289.84)" fill="#263238" />
			<path id="Path_1772" data-name="Path 1772" d="M376.657,389.01c.13.179-.845,1.122-2.211,2.081s-2.552,1.625-2.682,1.414.845-1.138,2.194-2.1S376.511,388.848,376.657,389.01Z" transform="translate(-356.047 -282.508)" fill="#263238" />
			<path id="Path_1773" data-name="Path 1773" d="M379.481,399.5c0,.228-1.17.731-2.731,1.105s-2.861.5-2.909.276,1.154-.715,2.714-1.105S379.432,399.277,379.481,399.5Z" transform="translate(-354.742 -276.001)" fill="#263238" />
			<path id="Path_1774" data-name="Path 1774" d="M393.152,373.817c.13.2-.926,1.04-2.438,1.625s-2.844.634-2.893.406,1.154-.65,2.6-1.2S392.989,373.622,393.152,373.817Z" transform="translate(-345.999 -292.021)" fill="#263238" />
			<path id="Path_1775" data-name="Path 1775" d="M395.067,391.036c-.1.211-1.333-.163-2.763-.845s-2.519-1.4-2.422-1.625,1.349.163,2.779.845S395.165,390.824,395.067,391.036Z" transform="translate(-344.713 -282.811)" fill="#263238" />
			<path id="Path_1776" data-name="Path 1776" d="M399.253,402.753a8.892,8.892,0,0,1-3.657-.992c-1.934-.748-3.446-1.544-3.365-1.772a8.875,8.875,0,0,1,3.673.991C397.839,401.745,399.334,402.526,399.253,402.753Z" transform="translate(-343.242 -275.625)" fill="#263238" />
			<path id="Path_1777" data-name="Path 1777" d="M377.872,412.744c-.114-.211,1.382-1.235,3.137-2.6s3.088-2.6,3.251-2.438-.927,1.625-2.747,3.1A7.591,7.591,0,0,1,377.872,412.744Z" transform="translate(-352.224 -270.809)" fill="#263238" />
			<path id="Path_1778" data-name="Path 1778" d="M387.888,407c-.228,0-.553-1.235-1.138-2.714s-1.17-2.633-.975-2.779,1.154.878,1.772,2.471S388.115,406.983,387.888,407Z" transform="translate(-347.302 -274.686)" fill="#263238" />
			<path id="Path_1779" data-name="Path 1779" d="M386.1,391.974c-.146.179-1.105-.276-2.162-1.04s-1.8-1.512-1.625-1.707,1.089.276,2.146,1.024S386.227,391.779,386.1,391.974Z" transform="translate(-349.461 -282.383)" fill="#263238" />
			<path id="Path_1780" data-name="Path 1780" d="M407.872,369.018c.146.179-.8,1.105-2.1,2.064s-2.471,1.625-2.6,1.4.8-1.122,2.1-2.081S407.775,368.79,407.872,369.018Z" transform="translate(-336.404 -295.023)" fill="#263238" />
			<path id="Path_1781" data-name="Path 1781" d="M411.745,378.115c0,.228-1.447.536-3.251.325s-3.251-.8-3.121-1.024,1.479,0,3.251.2S411.728,377.872,411.745,378.115Z" transform="translate(-335.026 -289.801)" fill="#263238" />
			<path id="Path_1782" data-name="Path 1782" d="M397.812,379.843c0,.228-1.317.715-3.088.829s-3.17-.2-3.153-.423,1.414-.309,3.1-.423S397.763,379.615,397.812,379.843Z" transform="translate(-343.654 -288.311)" fill="#263238" />
			<path id="Path_1783" data-name="Path 1783" d="M398.577,372.356c0,.228-1.4.26-2.909-.439s-2.373-1.755-2.211-1.918,1.187.52,2.568,1.154S398.61,372.112,398.577,372.356Z" transform="translate(-342.485 -294.396)" fill="#263238" />
			<path id="Path_1784" data-name="Path 1784" d="M412.745,388.724c-.13.2-1.544-.471-3.153-1.479s-2.828-2-2.7-2.211,1.528.471,3.137,1.5S412.859,388.529,412.745,388.724Z" transform="translate(-334.076 -285.002)" fill="#263238" />
			<rect id="Rectangle_264" data-name="Rectangle 264" width="120.425" height="21.341" transform="translate(13.312 144.016)" fill="#0dbdb8" />
			<path id="Path_1785" data-name="Path 1785" d="M375.81,422.6l14.645,63.78h71.777l16.026-63.78Z" transform="translate(-353.51 -261.485)" fill="#0dbdb8" />
			<path id="Path_1786" data-name="Path 1786" d="M491.015,425.358c0,.244-27.16.423-60.659.423s-60.676-.179-60.676-.423S396.84,425,430.339,425,491.015,425.13,491.015,425.358Z" transform="translate(-357.343 -259.984)" fill="#263238" />
			<path id="Path_1787" data-name="Path 1787" d="M404.287,381.911c-.211.114-1.024-.845-1.853-2.146s-1.317-2.471-1.105-2.6,1.008.845,1.837,2.145S404.482,381.781,404.287,381.911Z" transform="translate(-337.581 -289.907)" fill="#263238" />
			<path id="Path_1788" data-name="Path 1788" d="M403.153,393.037a6.875,6.875,0,0,1,.634-3.251c.569-1.723,1.219-3.056,1.43-2.974s0,1.528-.634,3.251S403.381,393.118,403.153,393.037Z" transform="translate(-336.415 -283.869)" fill="#263238" />
			<path id="Path_1789" data-name="Path 1789" d="M408.021,404.358c-.211.1-1.105-1.333-2.015-3.251a8.7,8.7,0,0,1-1.235-3.576c.211-.1,1.105,1.333,2,3.251a8.58,8.58,0,0,1,1.252,3.576Z" transform="translate(-335.398 -277.165)" fill="#263238" />
			<path id="Path_1790" data-name="Path 1790" d="M398.949,412.375c-.162-.162.553-1.268,1.625-2.5s2.064-2.1,2.243-1.934-.536,1.268-1.625,2.487S399.128,412.521,398.949,412.375Z" transform="translate(-339.053 -270.667)" fill="#263238" />
			<path id="Path_1791" data-name="Path 1791" d="M399.233,394.847c0,.244-1.2.228-2.584,0s-2.487-.634-2.438-.861,1.187-.228,2.584,0S399.282,394.62,399.233,394.847Z" transform="translate(-342.003 -279.487)" fill="#263238" />
		</g>
		<g id="freepik--Character--inject-4" transform="translate(124.701 279.18)">
			<path id="Path_1792" data-name="Path 1792" d="M442.2,300.052a3.576,3.576,0,0,0-3.446-3.1,3.438,3.438,0,0,0-3.608-5.77c3.056-3.543.26-10.159-4.4-10.435,3.82-4.015-.715-12.077-6.144-10.906a4.681,4.681,0,0,0-4.876-7.916c1.934-3.95-3.072-9.086-7.07-7.249,1.333-4.1-3.413-8.728-7.493-7.282a4.226,4.226,0,0,0-7.607-3.608,5.364,5.364,0,0,0-9.135-5.25,4.957,4.957,0,0,0-8.761-4.421,7.412,7.412,0,0,0-13-5.64c.309-2.8-2.519-5.12-5.315-5.364a15.961,15.961,0,0,0-8,2.259,5.559,5.559,0,0,0-5.965-3.153,16.254,16.254,0,0,0-6.632,2.942,8.126,8.126,0,0,0-1.837-4.015l-4.437,1.625a7.249,7.249,0,0,0-5.315-13.328c2.731-3.251,0-8.127-2.812-11.378l-2.422-2.877a8.956,8.956,0,0,0-2.5-2.324,4.681,4.681,0,0,0-6.144,1.788,4.876,4.876,0,0,0-8.988-3.251c-2.422-4.616-10.142-4.876-12.889-.471.1-2.357-3.365-3.039-5.478-2.015s-3.95,2.958-6.29,2.958a23.291,23.291,0,0,1-4.145-.992,6.729,6.729,0,0,0-7.607,5.38,10.24,10.24,0,0,0-12.434,3.836c-5.77-.634-11.248,2.357-16.254,5.234-2.389,1.365-5.1,4.356-3.251,6.355a8,8,0,0,0-9.346,7.769c-4.73-1.739-10.142,4.177-7.981,8.745-3.348-1.2-6.989,3.251-5.12,6.339-3.543-1.17-7.477,3.1-6.03,6.5-2.682-.91-4.99,2.861-3.95,5.494s3.836,4.063,6.4,5.25a8.127,8.127,0,0,0-5.981.878c-1.625,1.235-2,4.242-.146,5.185a8.013,8.013,0,0,0-8.273,8.907c-3.641-.8-6.5,4.779-3.868,7.331-4.193,1.625-4.746,8.549-.878,10.858a11.7,11.7,0,0,0-3.251,16.6c-3.365,1.5-2.926,7.477.618,8.468-3.381,4.779,0,12.629,5.868,13.409a5.526,5.526,0,0,0-5.965,4.957,5.461,5.461,0,0,0,2.649,4.795v.569c.13,1.105.78,2.146.991,3.251v.26a7.443,7.443,0,0,0-.569,2.714,3.952,3.952,0,0,0,0,.618,19.229,19.229,0,0,0-.992,3.348c-.666,5.283,4.99,9.476,8.615,13.881a22.756,22.756,0,0,1,4.34,8.241c.959,3.462,2.5,8.257,6.5,7.932-2.909,2.8-.5,8.387,3.836,8.972-2.08.439-1.918,3.365-.325,4.714s3.9,1.82,5.77,2.893a66.235,66.235,0,0,1,5.413,4.421c1.9,1.365,4.876,2.146,6.632.829a3.675,3.675,0,0,0,.309.683h0a2.422,2.422,0,0,0,.228,3.738,7.152,7.152,0,0,0,4.161,1.105l4.876.244c6.5,2.373,13.231,4.34,19.911,3.4a9.086,9.086,0,0,0,10.63,1.788,15.376,15.376,0,0,0,13.377,1.837,11.817,11.817,0,0,0,7.981-9.33l5.819-.731,20.789,7.851c4.307,1.625,9.183,3.251,13.426,1.8a9.638,9.638,0,0,0,11.134,1.2,14.043,14.043,0,0,0,14.889,1.5,9.281,9.281,0,0,0,8.484,4.486,40.629,40.629,0,0,1,4.649-.471c3.04.2,6.388,2.454,8.793.894,1.414-.927,1.625-2.779,2.812-3.933s3.82-1.479,5.884-1.967,6.225-10.207,5.543-12.044c4.876.488,8.777-7.769,11.231-14.84,3.576-2.552,5.738-7.558,3.576-11.378a16.563,16.563,0,0,0,10.273-13.6c2.015.26,3.608-1.723,4.21-3.657s.666-4.08,1.772-5.77,2.828-2.633,3.478-4.4a7.836,7.836,0,0,0,.081-3.787c-.7-4.681-1.382-9.378-2.064-14.06a4.73,4.73,0,0,0,2.861-7.331l5.071-2.909a4.568,4.568,0,0,0-2.259-3.1l4.47-2.276a5.071,5.071,0,0,1-1.235-5.022l-8.371-2.6,8.81,2.714C440.425,304.473,442.343,302.457,442.2,300.052Z" transform="translate(-29.738 -187.373)" fill="#263238" />
			<path id="Path_1793" data-name="Path 1793" d="M312.654,412.565l-.52-27.957s27.794-4.112,34.133-40.147c3.169-17.879,2.8-47.4,1.707-71.517-.975-21.715-23.958-43.772-45.592-41.87l-58.806,10.11A13.8,13.8,0,0,0,232.1,254.821h0l1.934,158.947a39.3,39.3,0,0,0,39.3,38.83h0a39.3,39.3,0,0,0,39.318-40.033Z" transform="translate(-1.669 -160.363)" fill="#ffbe9d" />
			<path id="Path_1794" data-name="Path 1794" d="M303.488,273.1a4.632,4.632,0,0,1-4.551,4.6,4.421,4.421,0,0,1-4.7-4.258,4.616,4.616,0,0,1,4.535-4.6,4.421,4.421,0,0,1,4.714,4.259Z" transform="translate(37.193 -136.677)" fill="#263238" />
			<path id="Path_1795" data-name="Path 1795" d="M307.219,268.5c-.471.748-4.389-1.625-9.33-.878s-8.127,4-8.761,3.4c-.309-.26.081-1.544,1.463-3.056a11.85,11.85,0,0,1,6.892-3.543,11.508,11.508,0,0,1,7.542,1.544C306.747,267.056,307.446,268.161,307.219,268.5Z" transform="translate(33.934 -139.505)" fill="#263238" />
			<path id="Path_1796" data-name="Path 1796" d="M274.058,273.1a4.632,4.632,0,0,1-4.551,4.6,4.437,4.437,0,0,1-4.7-4.258,4.632,4.632,0,0,1,4.551-4.6,4.4,4.4,0,0,1,4.7,4.259Z" transform="translate(18.788 -136.677)" fill="#263238" />
			<path id="Path_1797" data-name="Path 1797" d="M278.464,270.062c-.666.7-4.632-2.357-10.3-2.422s-9.866,2.763-10.484,2.048c-.293-.309.374-1.625,2.211-2.893a14.254,14.254,0,0,1,8.4-2.5,13.8,13.8,0,0,1,8.127,2.812C278.2,268.485,278.773,269.753,278.464,270.062Z" transform="translate(14.284 -139.52)" fill="#263238" />
			<path id="Path_1798" data-name="Path 1798" d="M280.486,305.138c0-.276,3.088-.764,8.127-1.317,1.268-.114,2.487-.341,2.714-1.2a6.5,6.5,0,0,0-.78-3.787l-3.592-9.752c-4.99-13.9-8.566-25.323-8.013-25.519s5.055,10.906,10.045,24.82q1.8,5.12,3.43,9.752a7.265,7.265,0,0,1,.569,5.006,3.154,3.154,0,0,1-2.113,1.82,7.9,7.9,0,0,1-2.178.26C283.639,305.463,280.5,305.431,280.486,305.138Z" transform="translate(27.59 -139.976)" fill="#263238" />
			<path id="Path_1799" data-name="Path 1799" d="M299.87,330.8A91.917,91.917,0,0,1,251.71,317s12.093,25.242,48.323,22.5Z" transform="translate(10.595 -106.554)" fill="#eb996e" />
			<path id="Path_1800" data-name="Path 1800" d="M280.771,263.027c-.683,1.268-5.526,0-11.378-.2s-10.809.8-11.378-.52c-.26-.618.731-1.772,2.812-2.8a18.725,18.725,0,0,1,8.745-1.739,18.984,18.984,0,0,1,8.631,2.276C280.137,261.174,281.047,262.393,280.771,263.027Z" transform="translate(14.513 -143.603)" fill="#263238" />
			<path id="Path_1801" data-name="Path 1801" d="M307.56,260.482c-.845,1.219-4.73.439-9.265.845s-8.289,1.625-9.281.52c-.455-.536,0-1.723,1.625-2.958a14.628,14.628,0,0,1,14.937-1.105C307.284,258.776,307.934,259.881,307.56,260.482Z" transform="translate(33.82 -144.553)" fill="#263238" />
			<path id="Path_1802" data-name="Path 1802" d="M242.274,276.905c-.52-.244-21.309-7.266-21.5,14.222s21.406,17.262,21.455,16.644S242.274,276.905,242.274,276.905Z" transform="translate(-8.755 -132.434)" fill="#ffbe9d" />
			<path id="Path_1803" data-name="Path 1803" d="M233.6,296.935c-.1-.081-.374.244-1.008.536a3.82,3.82,0,0,1-2.812,0c-2.259-.861-4.128-4.486-4.21-8.354a12.288,12.288,0,0,1,1.105-5.348,4.307,4.307,0,0,1,2.844-2.844,1.9,1.9,0,0,1,2.194,1.04c.293.6.146,1.04.26,1.073s.471-.358.293-1.252a2.357,2.357,0,0,0-.829-1.349,2.812,2.812,0,0,0-2.064-.569,5.218,5.218,0,0,0-3.933,3.251,12.678,12.678,0,0,0-1.365,5.981c.1,4.323,2.276,8.4,5.38,9.33a4,4,0,0,0,3.43-.536C233.547,297.438,233.71,296.967,233.6,296.935Z" transform="translate(-6.692 -129.789)" fill="#eb996e" />
			<path id="Path_1804" data-name="Path 1804" d="M212.94,358.834c10.337,3.9,8.891-46.7,18.091-52.809s10.874,18.968,23.227,10.467c8.029-5.526,2.8-9.395,7.574-17.879,6.339-11.231,23.682-12.158,30.086-23.357,3.706-6.5,2.714-14.986,6.762-21.293,3.8-5.933,11.118-8.5,18.042-9.752s14.206-1.772,20.382-5.136,10.939-10.858,8.371-17.424a374.213,374.213,0,0,0-88.291,6.713c-6.729,1.333-13.865,3.088-18.529,8.127-4.876,5.315-6.03,13-6.859,20.269q-6.144,52.662-12.255,105.455" transform="translate(-13.651 -166.397)" fill="#263238" />
			<path id="Path_1805" data-name="Path 1805" d="M268.181,189.256a6.237,6.237,0,0,1,.731-.585,4.437,4.437,0,0,1,2.5-.731,4.876,4.876,0,0,1,3.625,1.625,7.607,7.607,0,0,1,1.739,5.055v.488l.471-.179a7.721,7.721,0,0,1,7.818,1.447,7.623,7.623,0,0,1,1.625,8.875l-1.2,2.406,1.9-1.9a4.876,4.876,0,0,1,5.559-.553,5.347,5.347,0,0,1,2.7,6.193,7.363,7.363,0,0,1-1.544,3.153,4,4,0,0,1-2.617,1.707,1.024,1.024,0,0,1-.91-.7c-.081-.341.163-.618.585-.683a2.064,2.064,0,0,1,2.015,1.512,7.85,7.85,0,0,1-.6,5.4,21.129,21.129,0,0,1-4.519,6.892c-1.382,1.4-2.292,2.015-2.243,2.08s.26-.114.7-.406a15.285,15.285,0,0,0,1.788-1.43,20.188,20.188,0,0,0,4.876-6.908,8.419,8.419,0,0,0,.715-5.868,2.812,2.812,0,0,0-2.812-2.032,1.447,1.447,0,0,0-.975.488,1.235,1.235,0,0,0-.276,1.154,1.772,1.772,0,0,0,1.625,1.317,3.121,3.121,0,0,0,1.918-.666,7.592,7.592,0,0,0,1.4-1.3,8.371,8.371,0,0,0,1.739-3.527,6.974,6.974,0,0,0-.26-4.063,6.063,6.063,0,0,0-9.46-2.373l.7.5a8.224,8.224,0,0,0-10.468-11.378l.471.309a8.029,8.029,0,0,0-2.016-5.413,5.153,5.153,0,0,0-4.031-1.625,4.226,4.226,0,0,0-2.6.959,2.862,2.862,0,0,0-.5.52C268.2,189.174,268.165,189.256,268.181,189.256Z" transform="translate(20.894 -187.526)" fill="#263238" />
			<path id="Path_1806" data-name="Path 1806" d="M331.711,226.366a1.509,1.509,0,0,0,.244-.471,3.022,3.022,0,0,0,0-1.528,4.063,4.063,0,0,0-1.251-2.113,3.43,3.43,0,0,0-3.251-.878l.341.309a4.21,4.21,0,0,0-1.089-3.511,4.421,4.421,0,0,0-4-1.528l.423.276a9.33,9.33,0,0,0-1.447-3.722,3.918,3.918,0,0,0-1.837-1.333,2.861,2.861,0,0,0-2.406.163l.618.309a5.3,5.3,0,0,0-10.094-1.625l-1.625,3.462,2.357-3.007a3.806,3.806,0,0,0,.7-1.512,4.779,4.779,0,0,0-1.723-4.73,5.575,5.575,0,0,0-4.779-.813,6.827,6.827,0,0,0-3.755,2.617,9.755,9.755,0,0,0-1.625,3.885l.764.081a3.738,3.738,0,0,0-2.909-3.251,5.754,5.754,0,0,0-3.917.5,13.573,13.573,0,0,0-4.876,3.95,6.615,6.615,0,0,0-1.463,3.755,4.6,4.6,0,0,0,.081,1.073c0,.228.1.341.13.341s0-.5,0-1.4a6.827,6.827,0,0,1,1.625-3.495,13.539,13.539,0,0,1,4.795-3.641,5.169,5.169,0,0,1,3.462-.406,3.023,3.023,0,0,1,2.324,2.617v3.543l.715-3.478a7.266,7.266,0,0,1,4.876-5.835,4.73,4.73,0,0,1,4.031.683,3.885,3.885,0,0,1,1.4,3.836,2.909,2.909,0,0,1-.536,1.154l.748.455a4.6,4.6,0,0,1,4.876-2.519,4.681,4.681,0,0,1,3.543,3.885v.634l.553-.341a2.633,2.633,0,0,1,3.251.943,8.68,8.68,0,0,1,1.365,3.413l.081.325h.341a3.95,3.95,0,0,1,4.421,4.242v.423l.406-.13a3.023,3.023,0,0,1,2.78.683,3.835,3.835,0,0,1,1.235,1.869A3.883,3.883,0,0,1,331.711,226.366Z" transform="translate(31.481 -177.288)" fill="#263238" />
			<path id="Path_1807" data-name="Path 1807" d="M222.777,269.078a8.387,8.387,0,0,1-.553-3.478,8.517,8.517,0,0,1,1.349-3.982,7.33,7.33,0,0,1,4.454-3.251h.26l-.081-.26a4.08,4.08,0,0,1,1.3-4.177,3.689,3.689,0,0,1,2.341-.894,4.356,4.356,0,0,0,2.909-.845,6.1,6.1,0,0,0,1.382-2.861,5.217,5.217,0,0,1,7.33-3.608l1.5.78-1.008-1.333a4.551,4.551,0,0,1,6.5-6.241l.975.829-.309-1.252a7.3,7.3,0,0,1,12.6-6.5l.829.959v-1.284a11.248,11.248,0,0,1,1.82-6.5A11.589,11.589,0,0,1,271.051,221a10.24,10.24,0,0,1,6-.926,11.654,11.654,0,0,1,9.037,6.908l.406,1.056.374-1.073a6.5,6.5,0,0,1,4.047-3.8,8.387,8.387,0,0,1,5.461-.1,14.628,14.628,0,0,1,7.656,6.843l.2.341.325-.244a15.36,15.36,0,0,1,12.012-2.893,14.775,14.775,0,0,1,8.306,4.73,15.848,15.848,0,0,1,3.17,5.331c.455,1.349.569,2.113.618,2.1a9.415,9.415,0,0,0-.423-2.162,15.49,15.49,0,0,0-11.573-10.549,15.88,15.88,0,0,0-12.548,2.893l.52.1a15.36,15.36,0,0,0-8.013-7.233,9.2,9.2,0,0,0-5.981.081,7.363,7.363,0,0,0-4.567,4.291h.8a12.45,12.45,0,0,0-9.752-7.461,11.086,11.086,0,0,0-6.5.992,12.678,12.678,0,0,0-5.039,4.5,12.157,12.157,0,0,0-1.95,7.022l.78-.309a8.127,8.127,0,0,0-14.076,7.314l.666-.423a5.331,5.331,0,0,0-7.672,7.33l.471-.569a5.981,5.981,0,0,0-6.729,1.154c-1.837,1.625-1.479,4.307-2.779,5.526a3.885,3.885,0,0,1-2.519.7,4.291,4.291,0,0,0-2.666,1.073,4.584,4.584,0,0,0-1.4,4.762l.179-.325a7.737,7.737,0,0,0-4.665,3.543,8.648,8.648,0,0,0-1.284,4.161,7.071,7.071,0,0,0,.406,2.666A3.98,3.98,0,0,0,222.777,269.078Z" transform="translate(-8.031 -167.777)" fill="#455a64" />
			<path id="Path_1808" data-name="Path 1808" d="M350.742,276.392a8.562,8.562,0,0,0,.8-1.251,27.111,27.111,0,0,0,1.885-3.755,11.232,11.232,0,0,0,.748-6.5,8.5,8.5,0,0,0-1.934-3.706A5.754,5.754,0,0,0,348,259.228l.358.423a7.428,7.428,0,0,0-2.113-6.68,7.591,7.591,0,0,0-7.331-2.341l.52.5a9.476,9.476,0,0,0-1.625-7.493,9.281,9.281,0,0,0-7.184-3.771,10.06,10.06,0,0,0-3.251.439c-.991.26-2.064.488-2.7,0s-.764-1.625-1.333-2.568a7.867,7.867,0,0,0-2.146-2.357,8.7,8.7,0,0,0-10.955.406l.65.228a22.756,22.756,0,0,0-1.512-5.689,7.607,7.607,0,0,0-3.56-4.015,7.217,7.217,0,0,0-4.714-.293,21.126,21.126,0,0,0-3.787,1.252,19.248,19.248,0,0,0-4.7,2.942c-.488.406-.845.764-1.073.991s-.341.374-.325.39a26.219,26.219,0,0,1,6.274-3.9,19.718,19.718,0,0,1,3.722-1.121,6.648,6.648,0,0,1,4.324.325,6.794,6.794,0,0,1,3.251,3.722,21.893,21.893,0,0,1,1.414,5.51l.114.764.553-.553a7.932,7.932,0,0,1,9.9-.276,7.558,7.558,0,0,1,1.9,2.1,13.271,13.271,0,0,1,.569,1.365,3.251,3.251,0,0,0,.992,1.479,2.682,2.682,0,0,0,1.788.471,8.65,8.65,0,0,0,1.625-.293,9.02,9.02,0,0,1,3.056-.423,8.5,8.5,0,0,1,6.5,3.4,8.712,8.712,0,0,1,1.5,6.81l-.146.683.666-.2a6.826,6.826,0,0,1,6.5,2.081,6.7,6.7,0,0,1,1.967,5.981l-.1.439h.455a5.136,5.136,0,0,1,3.755,1.625,7.916,7.916,0,0,1,1.853,3.381,10.956,10.956,0,0,1-.585,6.29C351.75,274.588,350.612,276.327,350.742,276.392Z" transform="translate(35.303 -163.616)" fill="#455a64" />
			<path id="Path_1809" data-name="Path 1809" d="M201.783,244.856a10.19,10.19,0,0,1,.894-3.381,10.012,10.012,0,0,1,2.584-3.251,8.923,8.923,0,0,1,5.185-2.064h.325l-.13-.293a6.81,6.81,0,0,1,.2-5.25,6.941,6.941,0,0,1,4.519-3.982h.309l-.1-.309a6.274,6.274,0,0,1,5.234-7.688,5.088,5.088,0,0,0,3.121-.764c.959-.959.65-2.259,1.056-3.056a3.608,3.608,0,0,1,5.006-1.625l.423.26.146-.471a8.4,8.4,0,0,1,11.2-4.779l.39.2.163-.406a7.314,7.314,0,0,1,11.264-2.292l.406.39.26-.488c2.292-4.161,9.9-4.194,12.19.423l.406.829.39-.829a5.178,5.178,0,0,1,9.817,2.536v1.17l.829-.861c3.917-4.08,11.752-2.243,13.556,2.731l.244.666.488-.52a8.712,8.712,0,0,1,15.116,5.218v.569l.52-.244a11.378,11.378,0,0,1,16.254,11.378v.374h.374a17.278,17.278,0,0,1,12.239,4.226,16.677,16.677,0,0,1,5.169,8.468,17.588,17.588,0,0,1,.455,6.339c-.162,1.463-.374,2.211-.325,2.227a11.127,11.127,0,0,0,.52-2.194,17.164,17.164,0,0,0-.309-6.5A16.888,16.888,0,0,0,337,232.844a17.684,17.684,0,0,0-12.613-4.486l.341.341a12.158,12.158,0,0,0-17.262-12.093l.569.325a9.541,9.541,0,0,0-16.546-5.738l.715.146a8.891,8.891,0,0,0-6.6-5.331,9.021,9.021,0,0,0-8.42,2.292l.764.325a6.258,6.258,0,0,0-3.592-5.835,6.176,6.176,0,0,0-7.9,2.893h.715a7.639,7.639,0,0,0-6.875-4,7.558,7.558,0,0,0-6.859,3.527l.683-.1a8.127,8.127,0,0,0-12.629,2.6l.569-.211a9.183,9.183,0,0,0-12.288,5.283l.569-.2a4.34,4.34,0,0,0-6.079,1.983c-.439,1.122-.228,2.259-.878,2.828s-1.625.488-2.7.585a6.68,6.68,0,0,0-4.876,3.251,6.5,6.5,0,0,0-.813,5.348l.211-.374a7.493,7.493,0,0,0-4.876,4.34,7.282,7.282,0,0,0-.13,5.624l.2-.309a9.167,9.167,0,0,0-5.38,2.243,10.11,10.11,0,0,0-2.584,3.43,9.152,9.152,0,0,0-.683,2.568A6.492,6.492,0,0,0,201.783,244.856Z" transform="translate(-20.65 -178.679)" fill="#455a64" />
			<path id="Path_1810" data-name="Path 1810" d="M222.817,289.69a1.886,1.886,0,0,0-.7.211,11.148,11.148,0,0,0-1.869,1.008,13.215,13.215,0,0,0-4.957,5.949,16.872,16.872,0,0,0-.585,11.378,13.28,13.28,0,0,0,3.82,5.721,15,15,0,0,0,6.5,3.56,14.254,14.254,0,0,0,7.379-.6,12.906,12.906,0,0,0,5.8-3.722,14.385,14.385,0,0,0,3.495-10.858,13.3,13.3,0,0,0-2.747-7.249,7.461,7.461,0,0,0-1.625-1.414c-.439-.228-.666-.341-.683-.309a9.85,9.85,0,0,1,2,1.951,13.654,13.654,0,0,1,2.389,7.07,13.832,13.832,0,0,1-3.495,10.256A12.19,12.19,0,0,1,232.1,316.1a13.685,13.685,0,0,1-6.924.553,14.255,14.255,0,0,1-6.1-3.332,12.6,12.6,0,0,1-3.608-5.25,16.6,16.6,0,0,1,.39-10.955,13.719,13.719,0,0,1,4.584-5.9C221.907,290.194,222.85,289.755,222.817,289.69Z" transform="translate(-12.996 -123.633)" fill="#e0e0e0" />
			<path id="Path_1811" data-name="Path 1811" d="M272.021,293.211a6.258,6.258,0,0,1,4.015-1.625,7.558,7.558,0,0,1,6,2.048,5.429,5.429,0,0,1,1.138,6.03l-.081-.569a6.079,6.079,0,0,1-3.836,4.616,6.5,6.5,0,0,1-5.981-.878,6.973,6.973,0,0,1-2.779-5.4,5.737,5.737,0,0,1,1.528-4.226Z" transform="translate(22.336 -122.473)" fill="#eb996e" />
			<path id="Path_1812" data-name="Path 1812" d="M230.9,300.576a7.542,7.542,0,0,0,5.12,6.778c-1.382,0-1.788,2.178-.862,3.251a4.762,4.762,0,0,0,3.836,1.121,21.325,21.325,0,0,0,16.742-9.573,6.274,6.274,0,0,0,3.1-9.313,5.559,5.559,0,0,0,3.738-6.615,4.486,4.486,0,0,0,5.429-4.6,56.887,56.887,0,0,0,18.757-13,5.77,5.77,0,0,0-.163-7.688,4.372,4.372,0,0,0,1.625-7.168,4.129,4.129,0,0,0,3.251-5.055c2.5-.114,14.986-.618,15.051-3.1,7.005-1.8,10.354-5.185,10.728-7.135s3.982-1.284,4.291-3.153c.423-2.519-2.844-3.885-5.4-4.1a46.633,46.633,0,0,0-22.252,3.625c-8.029,3.462-14.888,9.118-21.618,14.628l-9.248,7.639c-2.324,1.934-4.876,4.551-4.177,7.493-2.113-1.187-4.762.585-5.884,2.731s-1.4,4.665-2.649,6.729a32.508,32.508,0,0,1-4.372,4.73,6.7,6.7,0,0,0-2.162,5.8,8.273,8.273,0,0,0-8.907,5.12c-1.869-1.333-4.665.5-5.12,2.763a10.629,10.629,0,0,0,1.625,6.5" transform="translate(-3.15 -160.299)" fill="#263238" />
			<path id="Path_1813" data-name="Path 1813" d="M289.7,280.595a35.286,35.286,0,0,0,.081-4.779,19.5,19.5,0,0,0-5.169-11.638,18.838,18.838,0,0,0-7.33-4.876,19.358,19.358,0,0,0-10.045-.926,19.129,19.129,0,0,0-6.307,35.368,19.309,19.309,0,0,0,9.752,2.617,19.083,19.083,0,0,0,8.6-2.081,19.5,19.5,0,0,0,8.858-9.135,37.4,37.4,0,0,0,1.625-4.519,5.671,5.671,0,0,1-.2,1.235,8.946,8.946,0,0,1-.374,1.479,13.17,13.17,0,0,1-.715,1.934,19.391,19.391,0,0,1-8.891,9.541,19.6,19.6,0,0,1-8.842,2.243,20.042,20.042,0,0,1-10.142-2.633,19.064,19.064,0,0,1-4.5-3.527,18.693,18.693,0,0,1-3.413-4.876,19.765,19.765,0,0,1,4.145-23.178,18.188,18.188,0,0,1,4.876-3.413,18.741,18.741,0,0,1,5.445-1.772,19.716,19.716,0,0,1,17.961,6.193,19.505,19.505,0,0,1,5.039,12.012,17.7,17.7,0,0,1,0,2.081,8.956,8.956,0,0,1-.163,1.512A5.772,5.772,0,0,1,289.7,280.595Z" transform="translate(9.919 -143.844)" fill="#455a64" />
			<path id="Path_1814" data-name="Path 1814" d="M323.824,280.422a42.634,42.634,0,0,0,0-4.795,19.134,19.134,0,1,0-36.279,9.769,17.879,17.879,0,0,0,3.251,4.714,18.2,18.2,0,0,0,4.291,3.413,19.261,19.261,0,0,0,9.752,2.617,19,19,0,0,0,8.582-2.08,19.31,19.31,0,0,0,8.858-9.118,37.272,37.272,0,0,0,1.625-4.518,7.881,7.881,0,0,1-.2,1.235,10.777,10.777,0,0,1-.374,1.463,16.465,16.465,0,0,1-.715,1.951,19.716,19.716,0,0,1-27.892,9.135,18.6,18.6,0,0,1-4.486-3.543,18.335,18.335,0,0,1-3.413-4.876,19.763,19.763,0,1,1,37.335-10.175,12.455,12.455,0,0,1,0,2.064,9.144,9.144,0,0,1-.146,1.512,6.505,6.505,0,0,1-.195,1.235Z" transform="translate(31.258 -143.996)" fill="#455a64" />
			<path id="Path_1815" data-name="Path 1815" d="M347.553,266.046a20.3,20.3,0,0,0-16.839-9.752c-12.158-.26-20.9,9.411-20.9,9.411-11.069-2.747-17.473.6-17.473.6a23.845,23.845,0,0,0-18.79-10.077c-11.02-.569-19.635,10.191-19.635,10.191l-8.745.878.52,7.786,9.752-.764s4.665-13.995,16.725-14.271c16.254-.358,18.464,11.719,18.464,11.719l3.852-.276-1.138-2.357s9.167-2.877,15.457,0v2.8l2.731.276s4.6-13,19.033-12.255c16.449.861,17.6,16.693,17.6,16.693l6.5-.439.081-7.672Z" transform="translate(6.505 -144.574)" fill="#455a64" />
			<path id="Path_1816" data-name="Path 1816" d="M268.027,285.854a7.851,7.851,0,0,1-3.543-.309,16.806,16.806,0,0,1-12.109-11.378,7.964,7.964,0,0,1-.5-3.527c.13,0,.309,1.317,1.073,3.332a18.123,18.123,0,0,0,11.7,11.053C266.727,285.545,268.043,285.659,268.027,285.854Z" transform="translate(10.678 -135.547)" fill="#fff" />
			<path id="Path_1817" data-name="Path 1817" d="M298.757,284.109a5.931,5.931,0,0,1-2.8-.553,14.271,14.271,0,0,1-8.956-9.9,5.949,5.949,0,0,1-.26-2.828,26.154,26.154,0,0,1,.829,2.666,16.953,16.953,0,0,0,3.251,5.656,16.417,16.417,0,0,0,5.3,3.852,19.362,19.362,0,0,1,2.633,1.105Z" transform="translate(32.464 -135.428)" fill="#fff" />
			<path id="Path_1818" data-name="Path 1818" d="M287.2,301.611c-.455.569-4.356-1.8-9.427-4.08s-9.411-3.69-9.281-4.4,4.957-.374,10.337,2.081S287.687,301.091,287.2,301.611Z" transform="translate(21.088 -121.69)" fill="#263238" />
			<path id="Path_1819" data-name="Path 1819" d="M157.31,470.112s11.735-13.3,18.757-12.743c0,0-3.348.211-.683-10.988s15.555-21.813,15.555-21.813l25.08-46.99S228.892,346,240.514,339.431s19.212-6.29,19.212-6.29v62.886l-6.29,52.533-9.151,26.9c-7.7,22.674-28.623,45.592-52.581,45.2H162.8Z" transform="translate(-48.442 -96.461)" fill="#0dbdb8" />
			<path id="Path_1820" data-name="Path 1820" d="M419.3,351.372A177.174,177.174,0,0,0,383,338.711c-18.871-4.047-52.711-5.64-52.711-5.64s-4.616,42.715-60.139,29.046c-19.5-4.795-17.765-31.126-17.765-31.126s-19.878,2.227-23.357,3.982C212.776,343.1,203.284,431.033,202.6,449.9s.455,30.183,10.841,57.522l14.466,36.393H425.231l-5.8-32.735,15.9-115.4S436.738,365.594,419.3,351.372Z" transform="translate(-20.217 -97.805)" fill="#0dbdb8" />
			<g id="Group_10437" data-name="Group 10437" transform="translate(264.255 370.546)" opacity="0.3">
				<path id="Path_1821" data-name="Path 1821" d="M252.91,485.132c9.606,10.029,37.221,4.665,52.565,1.755,40.895-7.769,66.365-31.89,79.5-71.387Z" transform="translate(-252.91 -415.5)" />
			</g>
			<path id="Path_1822" data-name="Path 1822" d="M215.791,489.924a5.647,5.647,0,0,1-.569-1.138l-1.479-3.251c-.65-1.447-1.414-3.251-2.146-5.347s-1.739-4.486-2.5-7.217c-.406-1.349-.845-2.763-1.284-4.242s-.78-3.056-1.2-4.665c-.861-3.251-1.463-6.729-2.146-10.4a152.137,152.137,0,0,1-1.9-24.316,156.239,156.239,0,0,1,2.194-24.234c.358-1.837.683-3.641,1.024-5.38s.78-3.4,1.154-5.022c.715-3.251,1.625-6.209,2.454-8.923s1.625-5.1,2.406-7.233,1.447-3.917,2.064-5.38,1.04-2.519,1.4-3.365a5.867,5.867,0,0,1,.536-1.138,5.851,5.851,0,0,1-.39,1.2l-1.252,3.413c-.553,1.479-1.252,3.251-1.918,5.413s-1.625,4.535-2.276,7.265-1.625,5.673-2.341,8.907c-.358,1.625-.8,3.251-1.122,5.006s-.634,3.527-.959,5.364a159.063,159.063,0,0,0-2.129,24.1,156.846,156.846,0,0,0,1.82,24.121c.666,3.673,1.235,7.168,2.064,10.37.406,1.625.7,3.251,1.138,4.649s.845,2.893,1.235,4.258c.731,2.714,1.625,5.087,2.373,7.217s1.414,3.917,2.016,5.38.991,2.536,1.333,3.381A6.5,6.5,0,0,1,215.791,489.924Z" transform="translate(-20.143 -74.24)" fill="#263238" />
			<g id="Group_10438" data-name="Group 10438" transform="translate(177.905 310.277)" opacity="0.3">
				<path id="Path_1823" data-name="Path 1823" d="M212.456,378.42a41.448,41.448,0,0,0-10.142,19.635,109.359,109.359,0,0,0-2.324,22.219,110.833,110.833,0,0,0,.975,22.869c1.349,7.542,3.592,13.393,8.68,19.1a135.25,135.25,0,0,1-4.876-32.947,131.851,131.851,0,0,1,7.688-50.875Z" transform="translate(-199.784 -378.42)" />
			</g>
			<path id="Path_1824" data-name="Path 1824" d="M202.138,435.765a46.39,46.39,0,0,0-1.089-7.1A28.184,28.184,0,0,0,192,414.277a21.13,21.13,0,0,0-8.306-4.356,24.771,24.771,0,0,0-7.688-.7c-4.437.309-7.1,1.186-7.152,1.008a7.993,7.993,0,0,1,1.853-.634,29.921,29.921,0,0,1,5.25-.959,24.008,24.008,0,0,1,7.932.52,21.586,21.586,0,0,1,8.663,4.47,27.632,27.632,0,0,1,9.086,14.889,24.381,24.381,0,0,1,.65,5.3,7.59,7.59,0,0,1-.146,1.95Z" transform="translate(-41.225 -49.322)" fill="#263238" />
			<path id="Path_1825" data-name="Path 1825" d="M262.24,372.4a6.875,6.875,0,0,0-3.056-2.7,306.263,306.263,0,0,0-30.248-15.9,153.172,153.172,0,0,0-26.006-8.6q-2.487,3.966-4.6,7.981a21.39,21.39,0,0,0,18.042,5.575c2.146-.341,4.372-1.024,6.5-.374,3.251,1.024,4.649,4.714,7.3,6.794,3.917,3.056,9.671,2.1,14.076,4.372a32.882,32.882,0,0,1,6.5,5.413c2.08,1.9,4.7,3.576,7.509,3.251S263.459,374.938,262.24,372.4Z" transform="translate(-22.788 -88.912)" fill="#fff" />
			<path id="Path_1826" data-name="Path 1826" d="M191.185,453.7s6.892-6.6,6.339-13,2.211-18.188-6.339-20.122-13.491,0-13.491,0-22.869-8.257-28.1-5.234-6.892,11.3-6.892,11.3-10.191,12.4-10.744,16.53a12.174,12.174,0,0,0,2.487,8l3.576,1.105s-1.105,4.681.553,6.6a24.576,24.576,0,0,0,5.055,3.95,8.907,8.907,0,0,0,3.82,6.794c3.868,2.747,13.166,1.447,13.166,1.447s21.13-1.625,25.063-5.3S191.185,453.7,191.185,453.7Z" transform="translate(-64.307 -45.472)" fill="#ffbe9d" />
			<path id="Path_1827" data-name="Path 1827" d="M135.22,444.764a265.6,265.6,0,0,0,35.125,6.5c2.032.228,4.454.293,5.673-1.349a4.226,4.226,0,0,0-1.138-5.461,16.971,16.971,0,0,0-5.543-2.568c-5.364-1.951-10.045-5.364-14.807-8.5s-9.882-6.063-15.539-6.827" transform="translate(-62.256 -38.037)" fill="#ffbe9d" />
			<path id="Path_1828" data-name="Path 1828" d="M138.991,426.582a3.1,3.1,0,0,1,.894,0,20.62,20.62,0,0,1,2.536.52,35.986,35.986,0,0,1,8.712,3.787c3.495,1.983,7.347,4.876,11.882,7.477a39.12,39.12,0,0,0,7.444,3.543,15.654,15.654,0,0,1,4.08,1.821,5.608,5.608,0,0,1,2.487,4.031,3.625,3.625,0,0,1-.634,2.438,3.836,3.836,0,0,1-2.048,1.4,11.2,11.2,0,0,1-4.519.1c-2.861-.358-5.624-.732-8.241-1.138-5.234-.813-9.915-1.625-13.816-2.536s-7.07-1.625-9.232-2.21c-1.073-.276-1.9-.52-2.471-.683a3.248,3.248,0,0,1-.845-.309,3.249,3.249,0,0,1,.878.13l2.519.553c2.178.471,5.348,1.17,9.265,1.934s8.6,1.625,13.816,2.357c2.617.374,5.364.748,8.224,1.073a10.923,10.923,0,0,0,4.177,0,2.763,2.763,0,0,0,2.081-2.958,4.714,4.714,0,0,0-2.113-3.413,15.506,15.506,0,0,0-3.885-1.739,39.123,39.123,0,0,1-7.574-3.543c-4.567-2.731-8.354-5.624-11.784-7.639a39.414,39.414,0,0,0-8.484-4C140.21,426.81,138.975,426.664,138.991,426.582Z" transform="translate(-62.256 -38.043)" fill="#eb996e" />
			<path id="Path_1829" data-name="Path 1829" d="M157.686,437.049,139.921,400.64s-1.625-5.981,2.227-6.68,5.575.7,6.5,2.926S170.462,442.9,170.462,442.9v7.851Z" transform="translate(-59.529 -58.538)" fill="#455a64" />
			<path id="Path_1830" data-name="Path 1830" d="M162.062,446.706c-.423.813,7.347,11.02,8.7,10.029s-2.682-16.53-2.682-16.53l-1.544-4.567-7.721-5.217-.6,8.322Z" transform="translate(-47.879 -35.623)" fill="#455a64" />
			<path id="Path_1831" data-name="Path 1831" d="M138.593,424.326c-.618,8.127,7.363,9.443,12.012,13a92.933,92.933,0,0,0,14.482,8.793c2.259,1.187,5.039,2.552,7.314,1.382,1.869-.959,2.162-2.6,1.918-4.7a10.776,10.776,0,0,0-2.5-5.754c-5.835-6.68-11.231-12.548-17.684-18.773" transform="translate(-60.168 -43.215)" fill="#ffbe9d" />
			<path id="Path_1832" data-name="Path 1832" d="M154.149,418.33a3.676,3.676,0,0,1,.65.52c.406.358,1.008.894,1.755,1.625,1.5,1.4,3.625,3.478,6.193,6.144s5.526,5.868,8.745,9.509a11.475,11.475,0,0,1,3.251,7.005,7.134,7.134,0,0,1,0,2.113,3.625,3.625,0,0,1-1.073,1.983,4.779,4.779,0,0,1-4.226,1.105,14.628,14.628,0,0,1-4-1.512l-3.56-1.9c-2.341-1.251-4.567-2.519-6.632-3.836s-3.933-2.747-5.64-4-3.576-2.081-5.152-3.039a16.254,16.254,0,0,1-3.95-3.121,7.575,7.575,0,0,1-1.755-3.365,8.124,8.124,0,0,1-.211-2.389,2.874,2.874,0,0,1,.1-.829,22.755,22.755,0,0,0,.439,3.137,7.362,7.362,0,0,0,1.788,3.137,16.143,16.143,0,0,0,3.885,2.909c1.625.91,3.413,1.772,5.25,2.974s3.592,2.649,5.673,3.933,4.259,2.519,6.6,3.755l3.56,1.885a14.08,14.08,0,0,0,3.755,1.43,3.495,3.495,0,0,0,4.389-4.291,10.679,10.679,0,0,0-3.04-6.5c-3.251-3.673-6.111-6.924-8.6-9.622s-4.567-4.876-5.981-6.323l-1.625-1.625A5.725,5.725,0,0,1,154.149,418.33Z" transform="translate(-60.186 -43.184)" fill="#eb996e" />
			<path id="Path_1833" data-name="Path 1833" d="M139.2,446.865a7.1,7.1,0,0,1,1.479-5.64,5.867,5.867,0,0,1,4.047-1.625,17.042,17.042,0,0,1,4.421.585" transform="translate(-59.83 -29.882)" fill="#ffbe9d" />
			<path id="Path_1834" data-name="Path 1834" d="M149.225,440.381c0,.13-.878,0-2.194-.13a8.485,8.485,0,0,0-4.876.65,5.169,5.169,0,0,0-2.536,3.982,11.964,11.964,0,0,1-.309,2.146,4.031,4.031,0,0,1-.293-2.211,6.8,6.8,0,0,1,.585-2.422,4.99,4.99,0,0,1,2.146-2.243,7.948,7.948,0,0,1,5.413-.5,5.4,5.4,0,0,1,2.064.731Z" transform="translate(-59.91 -30.013)" fill="#eb996e" />
			<path id="Path_1835" data-name="Path 1835" d="M168.028,441.826a3.608,3.608,0,0,1,3.933,3.495,5.77,5.77,0,0,1-3.007,4.876,15.118,15.118,0,0,1-5.705,1.625,76.9,76.9,0,0,1-17.879.585" transform="translate(-55.909 -28.499)" fill="#ffbe9d" />
			<path id="Path_1836" data-name="Path 1836" d="M145.41,452.459c0-.13,2.016,0,5.234,0a94.535,94.535,0,0,0,12.532-.975,12.809,12.809,0,0,0,6.306-2.113,4.876,4.876,0,0,0,2.064-4.584,3.755,3.755,0,0,0-2.211-2.649,7.552,7.552,0,0,0-1.333-.244,1.885,1.885,0,0,1,1.43,0,3.982,3.982,0,0,1,2.7,2.828,5.445,5.445,0,0,1-2.162,5.331,13.134,13.134,0,0,1-6.68,2.341,72.662,72.662,0,0,1-12.662.731,28.354,28.354,0,0,1-3.82-.293A4.681,4.681,0,0,1,145.41,452.459Z" transform="translate(-55.884 -28.535)" fill="#eb996e" />
			<path id="Path_1837" data-name="Path 1837" d="M164.376,419.41a13.507,13.507,0,0,0-2.324,20.789,6.794,6.794,0,0,0,4.47,2.324,8.306,8.306,0,0,0,5.575-2.828,42.357,42.357,0,0,0,7.3-9.1" transform="translate(-47.885 -42.508)" fill="#ffbe9d" />
			<path id="Path_1838" data-name="Path 1838" d="M179.549,430.586a6.256,6.256,0,0,1-.845,1.625,34.744,34.744,0,0,1-2.942,4.161,32.507,32.507,0,0,1-2.341,2.617,18.561,18.561,0,0,1-3.056,2.7,6.128,6.128,0,0,1-4.486,1.121,7.851,7.851,0,0,1-4.194-2.584,13.93,13.93,0,0,1-3.673-8.484,13.409,13.409,0,0,1,1.625-7.412,13.165,13.165,0,0,1,3.251-3.917,4.875,4.875,0,0,1,1.625-.991,17.472,17.472,0,0,0-4.34,5.2,13.133,13.133,0,0,0-1.4,7.07,13.393,13.393,0,0,0,3.511,8,7.217,7.217,0,0,0,3.738,2.357,5.315,5.315,0,0,0,3.9-.959,19.993,19.993,0,0,0,2.991-2.536c.894-.861,1.625-1.723,2.373-2.519C178.086,432.813,179.419,430.505,179.549,430.586Z" transform="translate(-48.023 -42.502)" fill="#eb996e" />
			<path id="Path_1839" data-name="Path 1839" d="M94.864,467.658V450.819l103,1.869L93.19,449.112l.926-3.722L218.036,449.4s-5.673,9.135,0,16.774Z" transform="translate(-88.541 -26.261)" fill="#ebebeb" />
			<path id="Path_1840" data-name="Path 1840" d="M90.33,470.9c1.853-.358,131.8,0,131.8,0V453.918l120.522,31.76v-5.9L219.63,447.27h-4.437V465H96.3a5.916,5.916,0,0,0-5.916,5.9Z" transform="translate(-90.33 -25.085)" fill="#263238" />
			<path id="Path_1841" data-name="Path 1841" d="M294.421,479.432a163.548,163.548,0,0,1-43.447-13.361c-18.66-8.761-36.246-21.228-56.71-23.747a35.758,35.758,0,0,0-14.157.7,19.83,19.83,0,0,0-11.378,8.029h0a168.512,168.512,0,0,1,16.693,3.446c7.347,2.032,47.315,11.963,72.655,19.212s35.628,10.142,35.628,10.142Z" transform="translate(-41.3 -28.429)" fill="#e0e0e0" />
			<path id="Path_1842" data-name="Path 1842" d="M289.6,363.839l.309-.081.91-.228,3.576-.78c3.1-.715,7.656-1.625,13.312-3.251a52.324,52.324,0,0,0,9.054-3.137,3.786,3.786,0,0,0,.975-.715c.276-.309.536-.7.813-1.057l1.625-2.211,3.56-4.616c2.438-3.251,5.022-6.5,7.623-10.159.666-.91,1.3-1.82,1.934-2.763a6.99,6.99,0,0,0,1.284-2.991,12.24,12.24,0,0,0-1.187-6.68l-.1-.228.146-.2a17.358,17.358,0,0,0,3.251-7.526,5.492,5.492,0,0,0,0-2,3.072,3.072,0,0,0-1.008-1.625,6.5,6.5,0,0,0-3.869-1.251h-.2l-.114-.13-2.308-2.7h0a8.127,8.127,0,0,0-5.283-1.187,29.258,29.258,0,0,0-5.868.894h-.228l-.179-.163-.26-.228a24.609,24.609,0,0,0-7.038-3.316,6.047,6.047,0,0,0-3.69-.358,6.5,6.5,0,0,0-3.153,1.853,60.154,60.154,0,0,0-5.429,5.315,3.477,3.477,0,0,0-.829,1.4,4.7,4.7,0,0,0,.179,1.625,14.807,14.807,0,0,0,1.333,3.251l.2.358-.358.2-24.218,12.906-10.24,5.526-4.551,2.536a22.888,22.888,0,0,0-3.95,2.5,9.964,9.964,0,0,0-1.885,3.69,32.518,32.518,0,0,0-.8,3.706c-.341,2.324-.471,4.356-.569,6s-.081,2.909-.081,3.771v.992a2.721,2.721,0,0,1,0,.341.892.892,0,0,1,0-.325v-4.762a54.816,54.816,0,0,1,.455-6.046,26.873,26.873,0,0,1,.748-3.755,9.982,9.982,0,0,1,1.95-3.917,9.41,9.41,0,0,1,1.918-1.414l2.113-1.235,4.535-2.568,10.077-5.575,24.169-13-.163.553a16.827,16.827,0,0,1-1.43-3.478,5.642,5.642,0,0,1-.2-1.983,3.95,3.95,0,0,1,1.008-1.82,59.774,59.774,0,0,1,5.51-5.413,7.282,7.282,0,0,1,3.527-2.064,7.005,7.005,0,0,1,4.128.39,25.242,25.242,0,0,1,7.412,3.608l.293.26-.406-.1a28.817,28.817,0,0,1,6.063-.927,13.462,13.462,0,0,1,3.023.2,5.835,5.835,0,0,1,2.828,1.2h0l2.308,2.682-.325-.146a7.282,7.282,0,0,1,4.421,1.479,3.934,3.934,0,0,1,1.268,2.048,6.5,6.5,0,0,1,0,2.308,18.238,18.238,0,0,1-3.462,7.916V324.8a13,13,0,0,1,1.235,7.168,7.752,7.752,0,0,1-1.414,3.251L331.94,338c-2.649,3.592-5.25,6.957-7.7,10.126l-3.592,4.6q-.845,1.122-1.625,2.194c-.276.358-.52.715-.845,1.073a4.048,4.048,0,0,1-1.154.845,51.135,51.135,0,0,1-9.216,3.088c-5.673,1.463-10.24,2.389-13.377,3.007l-3.592.683-.927.146C289.712,363.855,289.6,363.855,289.6,363.839Z" transform="translate(10.952 -114.579)" fill="#eb996e" />
			<path id="Path_1843" data-name="Path 1843" d="M252.286,364.526s-.731-19.407,3.885-22.479,42.26-23.064,42.26-23.064-1.918-3.462-1.528-5.38,9.606-9.622,9.606-9.622,8.842,2.308,11.54,5.006c0,0,8.452-2.308,11.524.374l2.308,2.7s5.77,0,5.38,4.616a17.554,17.554,0,0,1-3.462,8.452s2.7,5.38.39,9.232-13.848,18.448-16.14,21.536-28.412,9.216-28.412,9.216Z" transform="translate(10.929 -114.697)" fill="#ffbe9d" />
			<path id="Path_1844" data-name="Path 1844" d="M252.27,364.713a3.255,3.255,0,0,1,.683,0h9.411l27.306.26h0c4.258-1.04,8.858-2.227,13.7-3.608,2.406-.7,4.876-1.43,7.412-2.292,1.268-.423,2.536-.878,3.787-1.4.618-.26,1.235-.536,1.837-.861a4.062,4.062,0,0,0,1.528-1.138c3.413-4.437,6.973-9.1,10.663-13.913,1.8-2.438,3.722-4.876,5.348-7.493s.829-6.03-.423-8.793l-.1-.244.146-.211a17.523,17.523,0,0,0,3.251-6.973,4.437,4.437,0,0,0-.39-3.608,5.088,5.088,0,0,0-3.251-1.625,8.854,8.854,0,0,0-1.089-.114H331.9l-.13-.146c-.764-.91-1.544-1.8-2.308-2.7h0a5.2,5.2,0,0,0-2.536-1.04,14.174,14.174,0,0,0-2.877-.146,29.5,29.5,0,0,0-5.738.894h-.228l-.179-.163a17.781,17.781,0,0,0-5.429-2.974c-1.951-.748-3.934-1.382-5.9-1.918l.358-.081c-2.552,2.146-5.039,4.324-7.282,6.6a17.671,17.671,0,0,0-1.625,1.755,2.194,2.194,0,0,0-.65,1.9,13,13,0,0,0,1.512,4.226l.179.358-.341.179-25.551,13.621-10.7,5.819-4.827,2.7a8.13,8.13,0,0,0-2,1.43,6.957,6.957,0,0,0-1.17,2.015,32.6,32.6,0,0,0-1.625,8.127c-.26,2.438-.358,4.535-.423,6.225s0,2.974,0,3.9v1.008a3.054,3.054,0,0,1,0,.341,1.054,1.054,0,0,1,0-.341v-4.909a50.84,50.84,0,0,1,.293-6.274,32.652,32.652,0,0,1,1.625-8.306,7.574,7.574,0,0,1,1.219-2.162,8.728,8.728,0,0,1,2.1-1.544c1.512-.894,3.088-1.788,4.73-2.714l10.663-5.9,25.21-13.653-.163.52a13.591,13.591,0,0,1-1.625-4.535,2.927,2.927,0,0,1,.114-1.333,2.309,2.309,0,0,1,.309-.6,3.251,3.251,0,0,1,.439-.553c.5-.666,1.073-1.235,1.625-1.837,2.292-2.308,4.779-4.486,7.347-6.664l.163-.146h.2a60.144,60.144,0,0,1,6.014,1.951,18.219,18.219,0,0,1,5.721,3.153L318,308.67a29.748,29.748,0,0,1,5.9-.91,13.965,13.965,0,0,1,3.072.146,5.948,5.948,0,0,1,2.942,1.235h0l2.308,2.682-.325-.146a9.98,9.98,0,0,1,1.219.114,5.965,5.965,0,0,1,3.852,2.032,4.29,4.29,0,0,1,.731,2.129,8.24,8.24,0,0,1-.2,2.129,18.382,18.382,0,0,1-3.348,7.347v-.439a14.856,14.856,0,0,1,1.3,4.746,7.949,7.949,0,0,1-.927,4.876c-1.707,2.714-3.592,5.12-5.412,7.574l-10.646,14.027a4.877,4.877,0,0,1-1.772,1.333,20.084,20.084,0,0,1-1.918.878c-1.268.536-2.552.975-3.82,1.414-2.552.845-5.039,1.625-7.477,2.259-4.876,1.365-9.46,2.519-13.734,3.527h-.081l-27.469-.6-7.4-.2h-1.9Z" transform="translate(10.945 -114.884)" fill="#eb996e" />
			<path id="Path_1845" data-name="Path 1845" d="M251.863,345.438c-.26.179-.39,46.129-.39,46.129s-12.434,30.509-11.865,43.5,6.94,82.033,18.578,94.386c10.63,11.28,28.818,9.151,37.481,6.323,43.723-14.238,59.83-31.858,71.615-41.951,29.517-25.307,38.408-61.57,41.236-81.9s6.1-66.885-22.755-70.265-51.232,26.77-55.767,37.5-18.074,38.408-18.074,38.408l-12.434-35.027-1.9-40.293S265.256,336.823,251.863,345.438Z" transform="translate(3.014 -91.822)" fill="#0dbdb8" />
			<path id="Path_1846" data-name="Path 1846" d="M298.519,306.94a3.25,3.25,0,0,1,1.349.52,5.475,5.475,0,0,1,1.382,1.04,3.429,3.429,0,0,1,.943,2.162,6.4,6.4,0,0,1-.8,2.682,28.08,28.08,0,0,1-1.414,2.779,31.908,31.908,0,0,1-4.177,5.786c-1.625,1.918-3.657,3.365-5.136,4.876a31.027,31.027,0,0,0-3.251,4.681,5.77,5.77,0,0,1-3.251,2.373,1.967,1.967,0,0,1-1.447,0,12.788,12.788,0,0,0,1.365-.276,5.8,5.8,0,0,0,2.763-2.406,29.259,29.259,0,0,1,3.251-4.876c1.544-1.625,3.446-3.023,5.071-4.876a34.735,34.735,0,0,0,4.145-5.608c.553-.927,1.024-1.82,1.447-2.682a5.869,5.869,0,0,0,.829-2.373,3.738,3.738,0,0,0-1.9-2.942A9.74,9.74,0,0,1,298.519,306.94Z" transform="translate(29.988 -112.846)" fill="#eb996e" />
			<path id="Path_1847" data-name="Path 1847" d="M305.311,306.94a3.45,3.45,0,0,1,1.625.618,5.64,5.64,0,0,1,2.211,4.015,10.126,10.126,0,0,1-2,6.5c-1.447,2.146-3.332,4.145-4.876,6.5-3.137,4.876-5.673,9.557-8.257,12.45a23.171,23.171,0,0,1-3.251,3.153,5.915,5.915,0,0,1-1.414.878,49.823,49.823,0,0,0,4.242-4.421c2.422-2.926,4.876-7.591,8.013-12.516,1.625-2.487,3.543-4.535,4.876-6.5a9.752,9.752,0,0,0,2.048-6.014,5.429,5.429,0,0,0-1.82-3.8,11.06,11.06,0,0,0-1.4-.861Z" transform="translate(34.134 -112.846)" fill="#eb996e" />
			<path id="Path_1848" data-name="Path 1848" d="M309.469,316.71a24.118,24.118,0,0,1-2.292,3.8c-1.512,2.292-3.641,5.429-6.03,8.858a49.763,49.763,0,0,0-3.251,4.876,32.3,32.3,0,0,1-2.276,4.275,4.519,4.519,0,0,1-2.812,1.8c-.813.114-1.235-.114-1.219-.146a11.443,11.443,0,0,0,1.154-.163,4.583,4.583,0,0,0,2.389-1.837,43.549,43.549,0,0,0,2.081-4.307,51.683,51.683,0,0,1,3.251-4.974c2.389-3.43,4.6-6.5,6.225-8.712A23.927,23.927,0,0,1,309.469,316.71Z" transform="translate(35.535 -106.736)" fill="#eb996e" />
			<path id="Path_1849" data-name="Path 1849" d="M290.478,308.81a.572.572,0,0,1,.471.374,1.5,1.5,0,0,1-.5,1.544,22.753,22.753,0,0,1-3.738,3.1,11.539,11.539,0,0,1-4.47,2.064,1.869,1.869,0,0,1-1.625-.325c-.276-.293-.293-.52-.244-.536s.2.13.439.276a1.885,1.885,0,0,0,1.251,0,15.716,15.716,0,0,0,4.112-2.178c1.528-1.04,2.861-2.08,3.8-2.844.455-.374.618-.715.585-1.024S290.446,308.859,290.478,308.81Z" transform="translate(28.504 -111.676)" fill="#eb996e" />
			<path id="Path_1850" data-name="Path 1850" d="M320.612,477.858s.146-.731.488-2.178a64.827,64.827,0,0,0,1.138-6.5A83.82,83.82,0,0,0,321.6,444.2h0l-21.13-61.342v-.1c-.585-12.255-1.235-25.86-1.934-40.293l.309.341a147.665,147.665,0,0,0-22.5-1.9,76.121,76.121,0,0,0-11.768.975,38.479,38.479,0,0,0-5.819,1.431,18.252,18.252,0,0,0-5.315,2.633l.13-.276c-.2,13-.39,26.559-.585,40.553h0v.081c-3.251,8.517-6.5,17.262-9.281,26.266-1.4,4.5-2.731,9.07-3.706,13.735a99.139,99.139,0,0,0-1.625,14.287c-.894,19.5,2.812,38.44,7.217,56.271,2.292,8.891,4.324,17.879,8.777,25.454a30.3,30.3,0,0,0,8.582,9.606,30.881,30.881,0,0,0,11.622,4.876c8.273,1.625,16.628.423,24.267-1.739,1.918-.553,3.82-1.138,5.689-1.772s3.673-1.365,5.51-2.032c3.657-1.284,7.119-2.926,10.565-4.421A170.406,170.406,0,0,0,356,504.758a172.289,172.289,0,0,0,24.511-24.2,162.963,162.963,0,0,0,15.035-21.244c.91-1.544,1.8-2.974,2.584-4.372l2.064-3.933c.65-1.2,1.235-2.341,1.788-3.365s.926-2.015,1.333-2.861c.78-1.625,1.4-2.991,1.8-3.885s.65-1.317.65-1.317-.179.455-.569,1.349-.975,2.21-1.739,3.917c-.39.861-.813,1.837-1.284,2.893l-1.755,3.4-2.048,3.95c-.748,1.4-1.625,2.828-2.536,4.389a160.137,160.137,0,0,1-14.97,21.39A172.16,172.16,0,0,1,320.9,527.481c-3.462,1.5-6.924,3.153-10.614,4.437-1.82.683-3.641,1.414-5.526,2.064s-3.771,1.235-5.705,1.788c-7.7,2.178-16.254,3.511-24.625,1.788a31.793,31.793,0,0,1-11.93-4.974,31.112,31.112,0,0,1-8.826-9.85c-4.551-7.786-6.583-16.774-8.875-25.665-4.437-17.879-8.127-36.848-7.266-56.515a101.667,101.667,0,0,1,1.625-14.417c.991-4.714,2.324-9.281,3.722-13.8,2.844-9.037,6.014-17.782,9.33-26.331v.146c.211-13.978.423-27.632.618-40.553v-.179l.114-.1a18.091,18.091,0,0,1,5.624-2.812,40,40,0,0,1,5.933-1.463,77.9,77.9,0,0,1,11.9-.959,148.537,148.537,0,0,1,22.609,1.951h.293v.293c.666,14.433,1.284,28.038,1.853,40.293v-.081l20.837,61.423h0a82.782,82.782,0,0,1,.455,25.1,58.755,58.755,0,0,1-1.251,6.5C320.823,477.143,320.612,477.858,320.612,477.858Z" transform="translate(1.654 -92.114)" fill="#263238" />
			<path id="Path_1851" data-name="Path 1851" d="M350.324,343.19a7.458,7.458,0,0,1-1.04.26c-.666.162-1.625.309-2.958.634a55.374,55.374,0,0,0-10.533,3.56,50.824,50.824,0,0,0-13.588,9.135,78.393,78.393,0,0,0-12.548,15.75,182.306,182.306,0,0,0-9.476,17.879c-2.682,5.624-5.152,10.7-7.444,14.824a94.375,94.375,0,0,1-5.965,9.492c-.748,1.073-1.43,1.853-1.853,2.406a4.875,4.875,0,0,1-.7.8,6.226,6.226,0,0,1,.569-.894c.374-.585,1.008-1.4,1.723-2.5a110.26,110.26,0,0,0,5.689-9.59c2.227-4.145,4.632-9.216,7.282-14.872a174.815,174.815,0,0,1,9.443-17.928,76.748,76.748,0,0,1,12.743-15.864,50.163,50.163,0,0,1,13.881-9.118,51.7,51.7,0,0,1,10.711-3.251c1.284-.26,2.308-.374,3.007-.471A4.258,4.258,0,0,1,350.324,343.19Z" transform="translate(30.926 -90.175)" fill="#263238" />
			<path id="Path_1852" data-name="Path 1852" d="M252.589,342.17c.244,0,.39,8.858.358,19.781s-.244,19.765-.471,19.765-.406-8.842-.374-19.765S252.362,342.17,252.589,342.17Z" transform="translate(10.837 -90.813)" fill="#263238" />
			<path id="Path_1853" data-name="Path 1853" d="M261.318,381.74a6.223,6.223,0,0,1-.293-1.625c-.146-1.008-.309-2.487-.5-4.307-.358-3.641-.748-8.68-.991-14.255s-.293-10.646-.244-14.3c0-1.82,0-3.251.114-4.323a6.388,6.388,0,0,1,.163-1.625,42.492,42.492,0,0,1,.325,5.916c.1,3.657.26,8.7.488,14.271s.536,10.6.748,14.255A41.591,41.591,0,0,1,261.318,381.74Z" transform="translate(15.323 -91.357)" fill="#263238" />
			<path id="Path_1854" data-name="Path 1854" d="M268.454,378.084c-.244,0-.585-8.127-.78-18.3s-.179-18.3,0-18.3.585,8.127.78,18.286S268.682,378.084,268.454,378.084Z" transform="translate(20.491 -91.245)" fill="#263238" />
			<path id="Path_1855" data-name="Path 1855" d="M301.489,440.737c-.162,0,.244-3.251.114-8.306a67.321,67.321,0,0,0-7.7-29.68,67.947,67.947,0,0,0-4.681-7.639c-2.958-4.177-5.185-6.5-5.055-6.583a14.632,14.632,0,0,1,1.625,1.625c.5.52,1.105,1.154,1.755,1.967s1.43,1.625,2.178,2.714a62.2,62.2,0,0,1,4.876,7.639,70.616,70.616,0,0,1,4.4,10.191,69.341,69.341,0,0,1,2.568,10.809,61.217,61.217,0,0,1,.65,9.037,32.949,32.949,0,0,1-.114,3.478,24.96,24.96,0,0,1-.228,2.617,11.725,11.725,0,0,1-.39,2.129Z" transform="translate(30.887 -61.82)" fill="#263238" />
			<g id="Group_10439" data-name="Group 10439" transform="translate(315.146 327.246)" opacity="0.3">
				<path id="Path_1856" data-name="Path 1856" d="M302.766,428.389a83.041,83.041,0,0,0-18.139-39.529l-.406.52c7.168,18.757,11.589,40.261,4.34,59.05a20.235,20.235,0,0,0-1.772,6.16,5.852,5.852,0,0,0,2.6,5.51c3.072,1.625,6.729-.992,8.728-3.852C303.611,448.317,304.163,437.93,302.766,428.389Z" transform="translate(-284.22 -388.86)" />
			</g>
			<path id="Path_1857" data-name="Path 1857" d="M295.77,478.333c0,.244-1.82,1.105-5.494,1.723a43.548,43.548,0,0,1-15.7-.618,74.769,74.769,0,0,1-21.585-8.6c-7.607-4.291-15.311-9.882-23.536-15.246a98.092,98.092,0,0,0-24.381-12.223,42.015,42.015,0,0,0-21.6-1.463,22.529,22.529,0,0,0-12.32,7.33c-2.259,2.682-2.909,4.632-3.251,4.519s-.13-2.227,1.9-5.494a20.252,20.252,0,0,1,4.665-5.088,24.382,24.382,0,0,1,8.127-4.161c6.583-2,14.937-1.8,23.471.618a93.443,93.443,0,0,1,25.6,12.4c8.371,5.478,15.912,11.1,23.194,15.441a80.069,80.069,0,0,0,20.317,9.053,52.017,52.017,0,0,0,14.856,1.885C293.69,478.333,295.689,478.008,295.77,478.333Z" transform="translate(-41.901 -31.1)" fill="#e0e0e0" />
			<path id="Path_1858" data-name="Path 1858" d="M341.492,392.042a36.387,36.387,0,0,0-5.494,0c-7.444-.65-10.484-11.378-17.879-12.694-3.023-.585-6.4.569-9.135-.91-2.276-1.219-3.251-3.868-4.876-5.933s-4.73-3.608-6.615-1.837l-6.973,14.515a6.632,6.632,0,0,0,5.071,5.9,16.757,16.757,0,0,0,7.7-1.008,17.538,17.538,0,0,1,7.721-1.04c3.4.585,6.079,3.1,8.972,4.99a26.949,26.949,0,0,0,21.7,3.332,3.739,3.739,0,0,0,2.211-1.252C344.938,394.578,343.313,392.481,341.492,392.042Z" transform="translate(34.866 -73.475)" fill="#fff" />
			<path id="Path_1859" data-name="Path 1859" d="M318.787,454.926c-.341-3.543-1.837-6.989-1.447-10.533.276-2.308,1.349-4.535,1.251-6.859-.228-4.7-5.055-8.029-5.835-12.646-.471-2.812.618-5.624,1.04-8.436s-.163-6.241-2.714-7.493-5.721.488-7.054,2.974a16.66,16.66,0,0,0-1.317,8.257c.114,8.615.228,17.245-.406,25.86-.195,2.487-.439,4.99-.683,7.477q-1.008,10-1.983,20.008a50.807,50.807,0,0,0,16.53-11.02l-.423.146C318.1,461.3,319.063,457.819,318.787,454.926Z" transform="translate(40.57 -49.304)" fill="#fff" />
			<path id="Path_1860" data-name="Path 1860" d="M291.349,430.118c-1.8-.91-3.966.358-5.348,1.837s-2.617,3.251-4.535,3.9c-2.568.8-5.169-.878-7.444-2.308s-5.266-2.682-7.493-1.2c-2.568,1.707-2.406,6-5.055,7.542-2.08,1.219-4.665.114-7.054-.26a10.3,10.3,0,0,0-11.28,5.673l1.625,5.949L246,455.311c.861,2.064,3.885,2.454,5.933,1.625a14.824,14.824,0,0,0,4.876-4.389,9.931,9.931,0,0,1,5.364-3.771c4.551-.8,8.972,4.242,13.263,2.584,3.771-1.447,4.129-6.762,7.005-9.59a15.945,15.945,0,0,1,5.2-2.877,9.541,9.541,0,0,0,4.746-3.478,3.787,3.787,0,0,0-1.04-5.3Z" transform="translate(5.235 -36.003)" fill="#fff" />
			<path id="Path_1861" data-name="Path 1861" d="M257.009,415.342c-1.772-1.17-.553-4.242,1.463-4.876s4.177.2,6.225.731,4.567.634,5.933-.975c1.008-1.2,1.138-3.121,2.487-3.917,2.015-1.219,4.47,1.17,6.794.878,3.495-.439,4.015-6.144,7.428-7.054,2.649-.7,5.413,2.015,8,1.089,3.251-1.2,5.169-7.834,8.7-7.737,0,0,3.251,8.663,3.511,11.833-2.032-.569-3.608.764-4.665,2.617s-1.885,4.015-3.738,5.022c-2.893,1.625-6.388-.536-9.639-.325-6.5.439-10.4,9.752-16.92,8.988-2.828-.358-4.974-2.568-7.217-4.307s-5.445-3.056-7.818-1.5" transform="translate(13.374 -58.725)" fill="#fff" />
			<path id="Path_1862" data-name="Path 1862" d="M242.54,387.135c1.024,3.039,5.152,3.706,8.241,2.844s5.981-2.714,9.2-2.747c3.608,0,7.135,2.178,10.646,1.382,2.844-.65,5.055-3.251,7.964-3.543a28.91,28.91,0,0,1,5.25.618c1.772.13,3.885-.569,4.323-2.292.553-2.211-2.178-3.982-4.454-3.868s-4.454,1.251-6.745,1.219c-5.331,0-8.858-6.063-14.092-7.022-2.617-.471-5.266.406-7.932.5s-5.786-.975-6.5-3.56" transform="translate(4.86 -72.99)" fill="#fff" />
			<path id="Path_1863" data-name="Path 1863" d="M348.293,365.139c-4.681-.488-9.346.959-14.043,1.4a16.367,16.367,0,0,1-10.435-2.032,2.081,2.081,0,0,0-3.251,2.178,6.7,6.7,0,0,0,2.129,3.365,16.01,16.01,0,0,0,8.289,2.8,17.879,17.879,0,0,1,8.4,2.536c2.487,1.8,3.8,4.779,5.364,7.428s7.591,8.127,14.921,5.608l1.82-13.816C358.793,370.032,353.591,365.692,348.293,365.139Z" transform="translate(53.617 -77.097)" fill="#fff" />
			<path id="Path_1864" data-name="Path 1864" d="M308.647,351.3c-4.063-1.414-8.68-2.389-12.532-.488-2.6,1.284-4.7,3.787-7.591,4.047a31.4,31.4,0,0,1-4.4-.455,3.592,3.592,0,0,0-3.69,1.885l.52.813-.244.374a9.947,9.947,0,0,0,13.653,5.006c2.682-1.512,5.12-4.454,8.127-3.787a18.673,18.673,0,0,1,4.161,2.373,8.7,8.7,0,0,0,8.241-.731,26.007,26.007,0,0,0,6.209-5.965C316.79,354.588,312.71,352.718,308.647,351.3Z" transform="translate(28.556 -86.067)" fill="#fff" />
			<path id="Path_1865" data-name="Path 1865" d="M258.052,406.188a6.729,6.729,0,0,0-8.338-3.771,20.42,20.42,0,0,1-4.535,1.918c-4.762.488-6.729-7.135-11.475-7.8-3.462-.5-6.388,3.023-9.882,3.023-3.251,0-5.575-2.844-8.5-4.063a9.086,9.086,0,0,0-11.67,5.461l-.618,14.255c-.211-4.112,5.006-7.331,8.127-6.5s5.656,3.153,8.289,5.087,5.965,3.56,9.07,2.519c2.6-.845,4.356-3.365,6.908-4.34,6.063-2.324,12.743,4.876,18.822,2.6A6.729,6.729,0,0,0,258.052,406.188Z" transform="translate(-19.851 -57.811)" fill="#fff" />
			<path id="Path_1866" data-name="Path 1866" d="M253.7,452.946c-3.641,0-7.135,2.292-10.711,1.625-5.884-1.057-8-8.891-13.409-11.378-3.332-1.544-7.2-.8-10.858-.683s-8.484-.39-9.931-3.771l6.063,14.628c2.357-2.5,6.632-1.056,9.2,1.219s4.795,5.331,8.127,6.063c3.657.8,7.282-1.512,11-1.625a18.823,18.823,0,0,1,7.932,2.357,17.407,17.407,0,0,0,7.948,2.178c2.779-.146,5.673-2.048,5.965-4.876C261.761,455.9,258.055,452.881,253.7,452.946Z" transform="translate(-16.247 -30.42)" fill="#fff" />
			<path id="Path_1867" data-name="Path 1867" d="M212.019,397.071A6.5,6.5,0,0,0,208,395.332a73.87,73.87,0,0,1-7.347-.975,7.867,7.867,0,0,1-5.624-4.372c-.715-1.869-.358-4.063-1.268-5.835-1.43-2.812-5.185-3.251-8.338-3.43L178,394.812c2.373-1.414,6.29-.309,8.224,1.625s3.251,4.551,5.169,6.5,5.3,2.974,7.493,1.284,2.584-5.055,5.1-5.429a6,6,0,0,1,3.933,1.625c1.219.8,2.844,1.463,4.047.65a2.747,2.747,0,0,0,.049-4Z" transform="translate(-35.502 -66.704)" fill="#fff" />
			<path id="Path_1868" data-name="Path 1868" d="M218.238,440.512a15.737,15.737,0,0,0-4.1,1.349,5.25,5.25,0,0,1-4.194.2c-2.373-1.187-2.406-4.762-4.519-6.388-2.536-1.951-6.42,0-9.362-1.235-2.324-1.008-3.348-3.657-4.291-6.014a65.579,65.579,0,0,0-3.95-8.29,9.655,9.655,0,0,0-3.8-4.275,3.657,3.657,0,0,0-4.974,1.447,4.4,4.4,0,0,0,1.333,4.34,20.774,20.774,0,0,1,3.251,3.543c1.625,3.023.081,6.794.471,10.224a11.037,11.037,0,0,0,7.964,8.777,35.042,35.042,0,0,1,6.648,1.885c2.389,1.251,3.933,3.625,5.933,5.445s5.624,3.251,7.9,1.772a74.96,74.96,0,0,0,9.053-11.069C221.31,440.756,219.685,440.4,218.238,440.512Z" transform="translate(-34.927 -45.016)" fill="#fff" />
		</g>
	</g>
</svg>
