<svg xmlns="http://www.w3.org/2000/svg" width="94.009" height="87.202" viewBox="0 0 94.009 87.202">
	<path id="Icon_simple-f-secure" data-name="Icon simple-f-secure" d="M93.715,9.427A140.711,140.711,0,0,0,6.642,7.078,8.692,8.692,0,0,0,.3,17.845,143.629,143.629,0,0,0,6.876,37.851c.039.157.117.078.117-.078-.392-3.054,1.958-6.93,6.577-8.339a107.9,107.9,0,0,1,68.085.9,6.427,6.427,0,0,0,8.222-4.15A138.41,138.41,0,0,0,93.989,9.9c.039-.274-.2-.392-.274-.47ZM26.061,28.807A110.794,110.794,0,0,0,14.55,31.783c-6.969,2.388-6.656,10.884-2.936,13.586a6.751,6.751,0,0,1,3.837-4.424,79.278,79.278,0,0,1,22-5.051A39.925,39.925,0,0,1,26.1,28.807M81.578,45.8a82.845,82.845,0,0,0-64.4-2.545,6.383,6.383,0,0,0-3.328,9.122A149.4,149.4,0,0,0,26.178,71.169a6.788,6.788,0,0,1,4.972-7.87,52.836,52.836,0,0,1,33.905,1.292,6.508,6.508,0,0,0,7.791-2.506,151.208,151.208,0,0,0,8.966-15.739c.117-.235,0-.431-.235-.548M61.571,76.22a38.838,38.838,0,0,1-9.788-7.047c-1.331-1.331-3.289-3.25-5.364-5.52a45.155,45.155,0,0,0-14.173,2.036c-4.542,1.409-4.972,6.656-2.976,9.4a131.1,131.1,0,0,0,9.475,10.336A10.728,10.728,0,0,0,53.7,85.5c2.936-2.936,4.737-4.894,8.065-8.653a.373.373,0,0,0-.2-.626" transform="translate(0.016 -1.294)" fill="#fff" />
</svg>
