<svg xmlns="http://www.w3.org/2000/svg" width="690.281" height="668.104" viewBox="0 0 690.281 668.104">
	<g id="Reading_a_letter-pana" data-name="Reading a letter-pana" transform="translate(-16.87 -25.8)">
		<g id="freepik--background-complete--inject-4" transform="translate(58.158 25.8)">
			<path id="Path_273" data-name="Path 273" d="M70.764,309.8a7.6,7.6,0,0,0-15.026,2.25L89.047,515.265h15.189Z" transform="translate(-39.527 107.525)" fill="#ebebeb" />
			<path id="Path_274" data-name="Path 274" d="M58.477,358.319,195.725,207.54l1.007,1.658,6.647,11.014L69.742,368.5a7.594,7.594,0,1,1-11.266-10.186Z" transform="translate(-39.113 61.509)" fill="#ebebeb" />
			<path id="Path_275" data-name="Path 275" d="M67.234,313.379c.1,0,.237-.311.178-.948a3.538,3.538,0,0,0-1.258-2.339,4.1,4.1,0,0,0-3.967-.74,4.249,4.249,0,0,0,0,8.068,4.071,4.071,0,0,0,3.967-.755,3.479,3.479,0,0,0,1.258-2.324c0-.637,0-.962-.178-.962a4.93,4.93,0,0,1-1.747,2.428,3.079,3.079,0,0,1-2.813.281,2.961,2.961,0,0,1,0-5.4,3.079,3.079,0,0,1,2.813.281C67,312,67,313.467,67.234,313.379Z" transform="translate(-37.789 110.313)" fill="#e0e0e0" />
			<path id="Path_276" data-name="Path 276" d="M66.649,303.463c-.163-.133-1.732,1.318-4.13,3.79a56.26,56.26,0,0,0-4.115,4.53,9.489,9.489,0,0,0-2.161,7.506,7.624,7.624,0,0,0,5.581,5.478,8.127,8.127,0,0,0,6.307-.873c3.079-1.939,4.16-3.908,4.056-3.982a33.558,33.558,0,0,1-4.56,2.961,7.269,7.269,0,0,1-5.418.474,6.381,6.381,0,0,1-4.441-4.441,8.453,8.453,0,0,1,1.806-6.336c1.273-1.791,2.709-3.3,3.775-4.648C65.524,305.328,66.8,303.611,66.649,303.463Z" transform="translate(-39.291 107.586)" fill="#e0e0e0" />
			<path id="Path_277" data-name="Path 277" d="M169.721,465.052H44.76s15.959-19.882,57.558-19.882C141.06,445.17,164.14,456.554,169.721,465.052Z" transform="translate(-44.76 175.666)" fill="#e0e0e0" />
			<path id="Path_278" data-name="Path 278" d="M152.081,196.434l-6.351-9.519,7.846-6.025,6.736,9.593Z" transform="translate(3.746 48.706)" fill="#ebebeb" />
			<path id="Path_279" data-name="Path 279" d="M142.75,201.717l27.358-19.837,26.307,31.577c45.537,7.4,63.894,35.989,63.894,35.989l-81.526,62.429c-27.906-30.852-14.686-74.908-14.686-74.908Z" transform="translate(2.315 49.182)" fill="#f5f5f5" />
			<path id="Path_280" data-name="Path 280" d="M157.131,226.719c.252.34,7.7-4.634,16.61-11.118s15.959-12.036,15.707-12.376-7.683,4.634-16.61,11.118S156.939,226.379,157.131,226.719Z" transform="translate(9.221 59.428)" fill="#e0e0e0" />
			<rect id="Rectangle_47" data-name="Rectangle 47" width="160.831" height="160.831" transform="translate(9.445 39.986)" fill="#ebebeb" />
			<rect id="Rectangle_48" data-name="Rectangle 48" width="151.371" height="151.371" transform="translate(14.182 44.724)" fill="#fff" />
			<rect id="Rectangle_49" data-name="Rectangle 49" width="43.465" height="43.465" transform="translate(68.128 98.669)" fill="#e0e0e0" />
			<rect id="Rectangle_50" data-name="Rectangle 50" width="6.78" height="160.786" transform="translate(170.276 40.031)" fill="#e0e0e0" />
			<rect id="Rectangle_51" data-name="Rectangle 51" width="160.831" height="160.831" transform="translate(437.281 251.506)" fill="#ebebeb" />
			<rect id="Rectangle_52" data-name="Rectangle 52" width="151.371" height="151.371" transform="translate(442.003 256.243)" fill="#fff" />
			<rect id="Rectangle_53" data-name="Rectangle 53" width="43.465" height="43.465" transform="translate(495.964 310.189)" fill="#e0e0e0" />
			<rect id="Rectangle_54" data-name="Rectangle 54" width="6.78" height="160.786" transform="translate(598.112 251.55)" fill="#e0e0e0" />
			<rect id="Rectangle_55" data-name="Rectangle 55" width="20.829" height="103.628" transform="matrix(1, -0.005, 0.005, 1, 488.81, 38.772)" fill="#e0e0e0" />
			<rect id="Rectangle_56" data-name="Rectangle 56" width="53.931" height="57.218" transform="matrix(1, -0.005, 0.005, 1, 308.382, 39.216)" fill="#ebebeb" />
			<rect id="Rectangle_57" data-name="Rectangle 57" width="53.931" height="57.218" transform="matrix(1, -0.005, 0.005, 1, 362.06, 38.941)" fill="#f5f5f5" />
			<path id="Path_281" data-name="Path 281" d="M253.279,63.556q53.753.444,107.61-.489a.577.577,0,1,0,0-1.155c-35.84-.192-71.785,0-107.61.666a.489.489,0,0,0,0,.977Z" transform="translate(55.178 -8.485)" fill="#e0e0e0" />
			<rect id="Rectangle_58" data-name="Rectangle 58" width="97.988" height="46.618" transform="matrix(1, -0.005, 0.005, 1, 274.757, 95.712)" fill="#ebebeb" />
			<rect id="Rectangle_59" data-name="Rectangle 59" width="97.988" height="46.618" transform="matrix(1, -0.005, 0.005, 1, 372.282, 95.199)" fill="#f5f5f5" />
			<path id="Path_282" data-name="Path 282" d="M230.54,99.974c65.138.74,130.409,0,195.5-.962a.577.577,0,1,0,0-1.155c-65.138-.34-130.423-.3-195.517,1.125a.5.5,0,0,0,0,.992Z" transform="translate(44.281 8.732)" fill="#e0e0e0" />
			<rect id="Rectangle_60" data-name="Rectangle 60" width="379.634" height="16.699" transform="translate(238.167 142.356)" fill="#e0e0e0" />
			<rect id="Rectangle_61" data-name="Rectangle 61" width="15.411" height="56.995" transform="translate(300.329 150.395)" fill="#e0e0e0" />
			<rect id="Rectangle_62" data-name="Rectangle 62" width="15.411" height="56.995" transform="translate(530.383 150.395)" fill="#e0e0e0" />
			<rect id="Rectangle_63" data-name="Rectangle 63" width="20.829" height="142.533" transform="matrix(1, -0.005, 0.005, 1, 509.134, 0.113)" fill="#ebebeb" />
			<rect id="Rectangle_64" data-name="Rectangle 64" width="32.362" height="115.501" transform="matrix(1, -0.005, 0.005, 1, 530.136, 26.72)" fill="#f5f5f5" />
			<path id="Path_283" data-name="Path 283" d="M435.072,58.963c0,.311-7.239.563-16.181.563s-16.181-.252-16.181-.563,7.239-.563,16.181-.563S435.072,58.652,435.072,58.963Z" transform="translate(127.2 -10.138)" fill="#e0e0e0" />
			<path id="Path_284" data-name="Path 284" d="M435.072,55.683c0,.311-7.239.563-16.181.563s-16.181-.252-16.181-.563,7.239-.563,16.181-.563S435.072,55.372,435.072,55.683Z" transform="translate(127.2 -11.714)" fill="#e0e0e0" />
			<path id="Path_285" data-name="Path 285" d="M435.072,110.183c0,.311-7.239.563-16.181.563s-16.181-.252-16.181-.563,7.239-.563,16.181-.563S435.072,109.916,435.072,110.183Z" transform="translate(127.2 14.468)" fill="#e0e0e0" />
			<path id="Path_286" data-name="Path 286" d="M435.072,106.928c0,.311-7.239.563-16.181.563s-16.181-.252-16.181-.563,7.239-.548,16.181-.548S435.072,106.632,435.072,106.928Z" transform="translate(127.2 12.911)" fill="#e0e0e0" />
			<path id="Path_287" data-name="Path 287" d="M414.178,116.491c-.311,0-.548-11.651-.548-26.025s.237-26.025.548-26.025.563,11.651.563,26.025S414.474,116.491,414.178,116.491Z" transform="translate(132.446 -7.237)" fill="#e0e0e0" />
			<rect id="Rectangle_65" data-name="Rectangle 65" width="35.219" height="87.181" transform="translate(562.626 54.938)" fill="#ebebeb" />
			<path id="Path_288" data-name="Path 288" d="M403.383,44.216a5.922,5.922,0,1,1-1.708-4.235A5.922,5.922,0,0,1,403.383,44.216Z" transform="translate(121.834 -19.833)" fill="#e0e0e0" />
			<rect id="Rectangle_66" data-name="Rectangle 66" width="3.701" height="84.783" transform="translate(517.385 40.845)" fill="#e0e0e0" />
		</g>
		<g id="freepik--Plant--inject-4" transform="translate(45.946 477.611)">
			<path id="Path_289" data-name="Path 289" d="M52.2,412.94l9.948,65.375h57.795l13.412-64.427Z" transform="translate(-28.974 -291.628)" fill="#0dbdb8" />
			<path id="Path_290" data-name="Path 290" d="M123.024,441.35c0,.192-14.8.341-33.072.341s-33.072-.148-33.072-.341,14.8-.34,33.072-.34S123.024,441.158,123.024,441.35Z" transform="translate(-26.726 -278.143)" fill="#fafafa" />
			<path id="Path_291" data-name="Path 291" d="M123.318,439.181c0,.178-14.908.341-33.294.341s-33.294-.163-33.294-.341,14.908-.341,33.294-.341S123.318,438.988,123.318,439.181Z" transform="translate(-26.798 -279.186)" fill="#fafafa" />
			<path id="Path_292" data-name="Path 292" d="M123.253,436.73c0,.178-14.908.326-33.294.326s-33.309-.148-33.309-.326,14.908-.34,33.309-.34S123.253,436.538,123.253,436.73Z" transform="translate(-26.836 -280.363)" fill="#fafafa" />
			<path id="Path_293" data-name="Path 293" d="M64.347,459.96a52.007,52.007,0,0,1-1.776-8.231,53.427,53.427,0,0,1-1.11-8.349,50.1,50.1,0,0,1,1.776,8.231,52.994,52.994,0,0,1,1.11,8.349Z" transform="translate(-24.525 -277.005)" fill="#fafafa" />
			<path id="Path_294" data-name="Path 294" d="M66.417,459.332a62.694,62.694,0,0,1-.711-8.039,68.5,68.5,0,0,1-.385-8.053,62.858,62.858,0,0,1,1.1,16.092Z" transform="translate(-22.672 -277.072)" fill="#fafafa" />
			<path id="Path_295" data-name="Path 295" d="M71.541,459.5a40.784,40.784,0,0,1-1.48-8.246,40.281,40.281,0,0,1-.444-8.349q1.252,8.262,1.939,16.6Z" transform="translate(-20.632 -277.235)" fill="#fafafa" />
			<path id="Path_296" data-name="Path 296" d="M74.593,459.783a41.451,41.451,0,0,1-.8-8.364,42.219,42.219,0,0,1,.252-8.409,73.325,73.325,0,0,1,.429,8.379,70.882,70.882,0,0,1,.118,8.394Z" transform="translate(-18.65 -277.182)" fill="#fafafa" />
			<path id="Path_297" data-name="Path 297" d="M80.563,459.274a48.379,48.379,0,0,1-.607-7.95,46.218,46.218,0,0,1,0-7.964,93.266,93.266,0,0,1,.533,15.914Z" transform="translate(-15.723 -277.014)" fill="#fafafa" />
			<path id="Path_298" data-name="Path 298" d="M84.8,459.668a97.011,97.011,0,0,1,.133-16.418A101.346,101.346,0,0,1,84.8,459.668Z" transform="translate(-13.448 -277.067)" fill="#fafafa" />
			<path id="Path_299" data-name="Path 299" d="M88.83,459.3a107.892,107.892,0,0,1,1.732-17.1,58.031,58.031,0,0,1-.489,8.586A55.844,55.844,0,0,1,88.83,459.3Z" transform="translate(-11.377 -277.572)" fill="#fafafa" />
			<path id="Path_300" data-name="Path 300" d="M94.14,457.825a29.609,29.609,0,0,1,.962-7.3,29,29,0,0,1,2.161-7.047,67.358,67.358,0,0,1-1.48,7.195,63.45,63.45,0,0,1-1.643,7.15Z" transform="translate(-8.826 -276.957)" fill="#fafafa" />
			<path id="Path_301" data-name="Path 301" d="M47.73,404.2v12.228a4.8,4.8,0,0,0,4.841,4.811h83.643a4.811,4.811,0,0,0,4.826-4.811V404.2Z" transform="translate(-31.121 -295.827)" fill="#0dbdb8" />
			<g id="Group_3126" data-name="Group 3126" transform="translate(23.863 125.413)" opacity="0.4">
				<path id="Path_302" data-name="Path 302" d="M52.63,415.71l.7,3.893,77.2,5.507,1.969-9.4Z" transform="translate(-52.63 -415.71)" />
			</g>
			<path id="Path_303" data-name="Path 303" d="M65.718,439.427s-32.539-37.5-28.927-38.846S69.36,420,69.36,420,44.5,364.43,49.478,360.359s31.177,49.253,31.177,49.253-4.071-77.706,0-78.609,18.979,77.706,18.979,77.706,22.117-71.785,28.439-71.785-6.78,69.135-6.78,69.135,26.2-44.279,30.274-38.4-18.52,53.65-18.52,53.65,32.983-27.565,34.33-23.953-35.692,42.029-35.692,42.029Z" transform="translate(-36.511 -330.995)" fill="#455a64" />
			<path id="Path_304" data-name="Path 304" d="M53.173,366.09c.222-.1,5.922,12.258,12.894,27.624s12.3,27.891,12.065,27.994-5.922-12.273-12.88-27.624S52.921,366.179,53.173,366.09Z" transform="translate(-28.511 -314.135)" fill="#263238" />
			<path id="Path_305" data-name="Path 305" d="M70.95,370.75c.237,0,1.2,10.9,2.132,24.353s1.48,24.412,1.258,24.427-1.214-10.881-2.147-24.353S70.7,370.78,70.95,370.75Z" transform="translate(-19.995 -311.896)" fill="#263238" />
			<path id="Path_306" data-name="Path 306" d="M102.789,347.24a3.065,3.065,0,0,1-.192.888c-.178.666-.415,1.48-.711,2.472-.681,2.265-1.6,5.329-2.724,9.045-2.295,7.654-5.374,18.239-8.512,29.993s-5.744,22.487-7.565,30.259c-.873,3.79-1.614,6.9-2.147,9.208-.237,1.007-.444,1.821-.607,2.5a3.389,3.389,0,0,1-.281.859,4.012,4.012,0,0,1,.1-.9l.444-2.531c.4-2.191,1.051-5.359,1.88-9.267,1.658-7.817,4.16-18.564,7.313-30.348s6.321-22.354,8.779-29.949c1.214-3.8,2.25-6.869,2.961-8.986.355-.962.637-1.762.873-2.413a4.011,4.011,0,0,1,.385-.829Z" transform="translate(-15.595 -323.191)" fill="#263238" />
			<path id="Path_307" data-name="Path 307" d="M115.441,374.3c.207.148-6.144,9.623-14.182,21.155s-14.715,20.726-14.908,20.637,6.144-9.608,14.182-21.155S115.249,374.167,115.441,374.3Z" transform="translate(-12.57 -310.191)" fill="#263238" />
			<path id="Path_308" data-name="Path 308" d="M69.021,409.231a12.766,12.766,0,0,1-2.842-2.028,76.326,76.326,0,0,1-6.188-5.714,79.184,79.184,0,0,1-5.551-6.336,12.437,12.437,0,0,1-1.969-2.961c.207-.163,3.6,3.938,8.157,8.616S69.2,409.024,69.021,409.231Z" transform="translate(-28.844 -301.598)" fill="#263238" />
			<path id="Path_309" data-name="Path 309" d="M77.033,393.64c.252,0,.77,3.435,1.155,7.728s.518,7.8.266,7.816-.755-3.435-1.155-7.728a35.707,35.707,0,0,1-.266-7.817Z" transform="translate(-17.093 -300.9)" fill="#263238" />
		</g>
		<g id="freepik--Character--inject-4" transform="translate(141.843 203)">
			<path id="Path_310" data-name="Path 310" d="M366.551,304.454a37.972,37.972,0,0,0,20.977-63.11,9.845,9.845,0,0,0-5-3.346c-4.219-.859-7.743,3.064-10.244,6.573l-18.12,25.285" transform="translate(20.191 -101.117)" fill="#263238" />
			<path id="Path_311" data-name="Path 311" d="M365.059,305.6c15.085-10.733,24.738-31.518,26.4-49.949s-10.23-53.043-18.12-69.786c-9.608-20.385-13.575,8.749-20.459,12.317-4.1,2.117-6.41,6.751-6.928,11.34s.444,9.193,1.48,13.709q8.882,41.17,17.765,82.37" transform="translate(16.176 -129.551)" fill="#263238" />
			<path id="Path_312" data-name="Path 312" d="M334.339,152.687c-30.185-9.874-50.719,2.813-59.971,13.146s-13.427,24.279-15.041,38.046-.9,27.684-1.732,41.451a166.048,166.048,0,0,0-.089,23.968c.444,11.636,4.589,31.8,12.169,40.652,7.284,8.5,14.8,15.885,25.167,20.282,3.7,1.584,8.039,3.153,11.592,1.273,2.591-1.347,4.012-4.175,5.241-6.825a539.71,539.71,0,0,0,44.738-151.652" transform="translate(-26.428 -143.756)" fill="#263238" />
			<path id="Path_313" data-name="Path 313" d="M367.055,172.788,315.907,162.1l-12.273,3.627c-28.128,4.974-42.1,39.364-38.328,62.177,4.19,25.344,10.363,56.107,17.572,74.02,14.612,36.092,44.412,34.227,44.412,34.227s1.48,10.363,3.435,22.931a40.341,40.341,0,0,0,47.773,33.4h0a40.341,40.341,0,0,0,31.829-46.5L381.933,183.433A13.546,13.546,0,0,0,367.055,172.788Z" transform="translate(-22.785 -137.521)" fill="#ffbe9d" />
			<path id="Path_314" data-name="Path 314" d="M277.582,225.216a4.93,4.93,0,0,0,5.759,3.775,4.708,4.708,0,0,0,3.953-5.477,4.945,4.945,0,0,0-5.744-3.775,4.723,4.723,0,0,0-3.968,5.477Z" transform="translate(-16.63 -109.874)" fill="#263238" />
			<path id="Path_315" data-name="Path 315" d="M273.466,216.519c.74.489,3.76-3.05,8.882-4.219s9.563.518,9.978-.237c.222-.34-.651-1.332-2.591-2.161a13.59,13.59,0,0,0-8.157-.592,13.073,13.073,0,0,0-6.928,4.145C273.392,215.053,273.111,216.312,273.466,216.519Z" transform="translate(-18.642 -115.019)" fill="#263238" />
			<path id="Path_316" data-name="Path 316" d="M304.476,251.958c0-.3-3.39-.118-8.749.429-1.362.163-2.665.192-3.094-.666a6.9,6.9,0,0,1,0-4.116c.5-3.479,1.036-7.121,1.584-10.955,2.117-15.559,3.331-28.246,2.694-28.32s-2.857,12.48-4.974,28.039q-.74,5.759-1.392,10.985c-.163,1.614-.622,3.509.5,5.329a3.42,3.42,0,0,0,2.62,1.48,8.97,8.97,0,0,0,2.309-.207C301.263,252.979,304.52,252.254,304.476,251.958Z" transform="translate(-10.48 -115.312)" fill="#263238" />
			<path id="Path_317" data-name="Path 317" d="M307,287.794a97.707,97.707,0,0,0,47.092-24.974s-7.4,29.06-45.685,34.212Z" transform="translate(-2.464 -89.135)" fill="#eb996e" />
			<path id="Path_318" data-name="Path 318" d="M303.609,246.971a9.667,9.667,0,0,1,7.609-5.922,7.654,7.654,0,0,1,6.662,1.836,6.706,6.706,0,0,1,1.628,7,6.869,6.869,0,0,1-6.617,4.071,17.261,17.261,0,0,1-7.565-2.531,5.181,5.181,0,0,1-1.821-1.318,4.1,4.1,0,0,1,.1-3.138Z" transform="translate(-4.269 -99.667)" fill="#eb996e" />
			<path id="Path_319" data-name="Path 319" d="M315.03,237.843c-.844.148.444,5.759-3.449,10.851s-9.993,5.922-9.859,6.662c0,.37,1.584.77,4.13.266a14.375,14.375,0,0,0,8.305-5.241,12.465,12.465,0,0,0,2.531-9.016C316.362,238.968,315.459,237.724,315.03,237.843Z" transform="translate(-5.001 -101.138)" fill="#263238" />
			<path id="Path_320" data-name="Path 320" d="M272.254,206.642c1.169.962,4.441-1.081,8.72-2.132s8.1-1.036,8.646-2.457c.237-.681-.607-1.717-2.458-2.472a12.983,12.983,0,0,0-13.99,3.7C272,204.836,271.721,206.154,272.254,206.642Z" transform="translate(-19.281 -119.857)" fill="#263238" />
			<path id="Path_321" data-name="Path 321" d="M318.415,217.431a4.93,4.93,0,0,1-3.731,5.774,4.708,4.708,0,0,1-5.833-3.4,4.93,4.93,0,0,1,3.731-5.774,4.708,4.708,0,0,1,5.833,3.4Z" transform="translate(-1.621 -112.659)" fill="#263238" />
			<path id="Path_322" data-name="Path 322" d="M326.615,206.367c-.474.755-4.678-1.258-9.874-.252s-8.542,4.352-9.223,3.819c-.326-.222,0-1.48,1.48-2.961a13.605,13.605,0,0,1,7.224-3.834,12.865,12.865,0,0,1,8.009.992C326.052,204.99,326.851,206.012,326.615,206.367Z" transform="translate(-2.271 -117.924)" fill="#263238" />
			<path id="Path_323" data-name="Path 323" d="M322.673,195.594c-.681,1.362-4.441.814-8.882,1.584s-7.831,2.324-8.882,1.258c-.488-.533-.148-1.836,1.244-3.257a13.013,13.013,0,0,1,14.286-2.295C322.229,193.818,322.91,194.943,322.673,195.594Z" transform="translate(-3.57 -123.302)" fill="#263238" />
			<path id="Path_324" data-name="Path 324" d="M303.25,160.774c11.221-7.032,29.978-8.69,41.762-2.665s20.459,17.187,25.167,29.608,4.871,31.932,3.731,45.108c-24.056-21.717-49.416-47.18-72.91-69.5Z" transform="translate(-5.347 -141.214)" fill="#263238" />
			<path id="Path_325" data-name="Path 325" d="M310.474,152.1c-67.936,2.5-43.894,101.63-43.894,101.63h0c0-38.106,44.516-85.937,44.516-85.937l10.126-3.627Z" transform="translate(-23.866 -142.325)" fill="#263238" />
			<path id="Path_326" data-name="Path 326" d="M348.863,224.426c-.637-2.8,1.066-10.111,3.731-11.177,7.091-2.857,20.489-5.329,24.93,13.324,6.07,25.507-20.8,26.336-21.007,25.611S351.069,234.064,348.863,224.426Z" transform="translate(17.583 -113.895)" fill="#ffbe9d" />
			<path id="Path_327" data-name="Path 327" d="M356.192,238.508c.1-.118.518.192,1.347.37a4.648,4.648,0,0,0,3.346-.725c2.458-1.628,3.716-6.455,2.739-11.073a15.054,15.054,0,0,0-2.753-6.07,5.3,5.3,0,0,0-4.16-2.62,2.309,2.309,0,0,0-2.324,1.85c-.178.785.1,1.258,0,1.332s-.651-.3-.7-1.392a2.857,2.857,0,0,1,.622-1.836,3.449,3.449,0,0,1,2.309-1.244,6.455,6.455,0,0,1,5.581,2.857,15.633,15.633,0,0,1,3.227,6.736c1.066,5.181-.429,10.614-3.864,12.569a4.855,4.855,0,0,1-4.219.281C356.385,239.159,356.118,238.567,356.192,238.508Z" transform="translate(19.966 -111.1)" fill="#eb996e" />
			<path id="Path_328" data-name="Path 328" d="M394.412,188.966c-9.741-16.492-25.685-28.7-43.124-36.61-9.356-4.234-19.5-7.4-29.756-6.78S300.88,151.008,295.55,159.8l-1.48,2.235c15.914,23.213,27.758,43.154,46.633,64.042,6.943,7.683,14.523,36.684,17.617,46.559,10.6,33.694,32.125,45.078,32.125,45.078C431.229,310.448,404.153,205.458,394.412,188.966Z" transform="translate(-8.676 -145.497)" fill="#263238" />
			<path id="Path_329" data-name="Path 329" d="M375.1,288.389c-.133-.089,1.036-1.939,2.221-5.241a30.586,30.586,0,0,0,1.48-5.922,31.425,31.425,0,0,0,0-7.4,32.376,32.376,0,0,0-4.545-12.746c-1.865-2.961-3.361-4.574-3.242-4.678a6.746,6.746,0,0,1,1.1,1.081,26.134,26.134,0,0,1,2.606,3.3,29.327,29.327,0,0,1,4.752,20.622,28.366,28.366,0,0,1-1.629,6.04,20.829,20.829,0,0,1-.977,2.191,12.466,12.466,0,0,1-.873,1.584A5.921,5.921,0,0,1,375.1,288.389Z" transform="translate(28.284 -94.141)" fill="#fff" />
			<path id="Path_330" data-name="Path 330" d="M412.508,280.514a1.379,1.379,0,0,1-.074-.444l-.207-1.3a15.468,15.468,0,0,0-.266-2.161l-.5-2.961a74.507,74.507,0,0,0-5.922-17.839,101.261,101.261,0,0,0-15.485-23.153,173.209,173.209,0,0,0-25.359-22.961c-9.682-7.4-19.245-13.886-27.817-20.089a267.036,267.036,0,0,1-21.925-17.424,137.677,137.677,0,0,1-13.205-13.546c-1.48-1.717-2.5-3.079-3.183-4.027l-.8-1.081a2.838,2.838,0,0,1-.252-.385,2.31,2.31,0,0,1,.326.34q.311.4.844,1.021c.725.933,1.851,2.25,3.3,3.938A146.321,146.321,0,0,0,315.3,171.763a279.2,279.2,0,0,0,22.028,17.262c8.557,6.173,18.164,12.672,27.876,20.059a171.828,171.828,0,0,1,25.419,23.094,100.314,100.314,0,0,1,15.44,23.39,72.634,72.634,0,0,1,5.7,18.016c.163,1.11.311,2.087.429,2.961s.148,1.584.192,2.161.074.992.1,1.347a1.67,1.67,0,0,1,.015.459Z" transform="translate(-7.023 -141.826)" fill="#fff" />
			<path id="Path_331" data-name="Path 331" d="M394.8,198.489a21.6,21.6,0,0,0-2.161-3.538,17.647,17.647,0,0,0-3.686-3.287,28.233,28.233,0,0,0-5.922-2.961c-4.545-1.791-10.363-2.961-16.566-4.811s-13.072-4.071-20.074-6.78a247.035,247.035,0,0,1-34.715-16.6c-4.264-2.487-7.639-4.6-9.934-6.114l-2.635-1.776a5.609,5.609,0,0,1-.888-.666,6.706,6.706,0,0,1,.977.533l2.694,1.658c2.354,1.48,5.774,3.479,10.052,5.922a269.437,269.437,0,0,0,34.716,16.284c7,2.709,13.782,4.974,20.015,6.825s11.962,3.109,16.566,4.989a28.349,28.349,0,0,1,5.922,3.109,17.069,17.069,0,0,1,3.671,3.464,11.75,11.75,0,0,1,1.007,1.48,7.612,7.612,0,0,1,.607,1.2,5.444,5.444,0,0,1,.355,1.066Z" transform="translate(-6.682 -142.393)" fill="#455a64" />
			<path id="Path_332" data-name="Path 332" d="M298.389,327.877l-.5-.178-1.48-.592a53.631,53.631,0,0,1-5.492-2.635,60.578,60.578,0,0,1-7.979-5.359,62,62,0,0,1-9.178-8.882,69.328,69.328,0,0,1-14.7-29.475,80.223,80.223,0,0,1,1.747-40.267,91.03,91.03,0,0,1,8.276-19.349,139.311,139.311,0,0,1,11.088-16.151c3.834-4.915,7.654-9.46,11.177-13.738s6.721-8.32,9.519-12.095a100.029,100.029,0,0,0,11.31-19.142c.5-1.214,1.007-2.265,1.347-3.227s.607-1.747.844-2.413l.533-1.48a2.736,2.736,0,0,1,.207-.5,2.189,2.189,0,0,1-.133.533l-.459,1.48c-.207.681-.474,1.48-.77,2.443s-.8,2.043-1.288,3.272a96.35,96.35,0,0,1-11.177,19.364c-2.783,3.819-5.922,7.891-9.475,12.184s-7.284,8.882-11.1,13.768a141.942,141.942,0,0,0-11,16.092,91,91,0,0,0-8.187,19.245,79.942,79.942,0,0,0-1.688,39.838,69.06,69.06,0,0,0,14.434,29.282,64.2,64.2,0,0,0,16.877,14.316c2.309,1.273,4.116,2.221,5.4,2.753l1.48.666a2.65,2.65,0,0,1,.37.252Z" transform="translate(-26.348 -142.186)" fill="#455a64" />
			<path id="Path_333" data-name="Path 333" d="M383.547,234.05a8.749,8.749,0,0,1-.281,1.836c-.207,1.184-.607,2.872-1.14,4.945a74.533,74.533,0,0,1-5.922,15.663,56.551,56.551,0,0,1-4.959,7.8,51.176,51.176,0,0,1-5.019,5.626,45.569,45.569,0,0,1-3.8,3.36,8.207,8.207,0,0,1-1.48,1.081c-.089-.1,1.984-1.762,4.945-4.826a63.1,63.1,0,0,0,4.841-5.67,62.171,62.171,0,0,0,4.841-7.742,84.955,84.955,0,0,0,6.084-15.441c.548-1.939,1.007-3.568,1.362-4.871A8.347,8.347,0,0,1,383.547,234.05Z" transform="translate(23.448 -102.956)" fill="#455a64" />
			<path id="Path_334" data-name="Path 334" d="M625.613,542.333,604.473,408.12S577.411,302.508,555.62,289.244s-79.009-11.207-79.009-11.207h0l-4.56,9.637a45.893,45.893,0,0,1-76.359,10.289h0l-23.509,5.774a80.223,80.223,0,0,0-48.468,34.256c-.385.592-16.062,21.584-16.432,22.206-8.187,13.412-86.559,106.855-86.559,106.855s-57.04-27.18-59.483-26.8-24.871,27.95-24.871,27.95h0s70.6,73.413,100.5,69.934,62.769-52.85,62.769-52.85l60.963-58.505c8.586,32.332,36.373,115.723,36.373,115.723Z" transform="translate(-84.435 -81.88)" fill="#0dbdb8" />
			<g id="Group_3127" data-name="Group 3127" transform="translate(72.853 362.142)" opacity="0.3">
				<path id="Path_335" data-name="Path 335" d="M274.957,434.117c-6.2-6.987-14.922-11.133-23.538-14.73-30.585-12.791-62.873-20.9-95.012-28.971a5.048,5.048,0,0,0-2.961-.133c-2.043.785-2.132,3.612-1.791,5.788l.326,2.161-1.48,3.124a189.254,189.254,0,0,0,69.49,54.272c7.609,3.479,15.722,6.514,24.071,6.084,9.741-.488,18.564-5.581,26.943-10.555,3.272-1.925,6.854-4.308,7.52-8.039C279.132,439.816,277.193,436.6,274.957,434.117Z" transform="translate(-150.5 -390.121)" />
			</g>
			<path id="Path_336" data-name="Path 336" d="M278.694,335.63a4.591,4.591,0,0,1,.178.992c.089.74.222,1.688.37,2.857s.385,2.753.651,4.441.592,3.76.992,5.922c1.569,8.808,4.441,20.844,7.8,34.049s6.662,25.167,8.794,33.872c1.066,4.352,1.865,7.876,2.383,10.363.237,1.17.429,2.1.563,2.828a3.893,3.893,0,0,1,.148.992,5.106,5.106,0,0,1-.3-.962c-.178-.711-.415-1.643-.711-2.783-.592-2.443-1.48-5.922-2.62-10.274-2.324-8.734-5.507-20.726-9-33.812s-6.158-25.33-7.594-34.182c-.37-2.206-.681-4.2-.888-5.922s-.444-3.286-.518-4.53-.163-2.147-.222-2.887a4.723,4.723,0,0,1-.03-.962Z" transform="translate(-16.068 -54.157)" fill="#263238" />
			<path id="Path_337" data-name="Path 337" d="M382.536,410.748a11.132,11.132,0,0,1-2.25-.163q-1.1-.089-2.62-.355c-1.021-.193-2.191-.355-3.449-.666a68.788,68.788,0,0,1-8.779-2.546,76.973,76.973,0,0,1-10.215-4.619,79.034,79.034,0,0,1-9.371-6.144,71.514,71.514,0,0,1-6.854-6.07c-.933-.888-1.7-1.791-2.4-2.546s-1.273-1.48-1.717-2.028a11.966,11.966,0,0,1-1.332-1.821,14.819,14.819,0,0,1,1.569,1.628c.474.533,1.066,1.2,1.791,1.924s1.48,1.6,2.472,2.458a75.929,75.929,0,0,0,26.292,16.6,75.773,75.773,0,0,0,8.66,2.68c1.243.355,2.4.548,3.4.77s1.88.385,2.591.489A13.969,13.969,0,0,1,382.536,410.748Z" transform="translate(10.291 -31.021)" fill="#263238" />
			<path id="Path_338" data-name="Path 338" d="M395.708,276.208c3.494-4.145,1.91-7.816-.118-9.415-3.346-2.68-7.4-1.717-10.363.7-9.238,7.4-19.882,13.916-29.327,21.036s-21.969,12.347-32.983,8.009c-2.487-.977-4.811-2.428-7.4-3.2a8.29,8.29,0,0,0-7.669.977c-2.058,1.717-2.383,8.379-.1,9.785,4.219,10.97,14.36,19.127,25.7,22.206s23.686,1.392,34.4-3.36,20-12.435,27.832-21.185a25.759,25.759,0,0,0,6.232-9.963C403.376,286.512,395.708,276.208,395.708,276.208Z" transform="translate(-2.866 -88.001)" fill="#0dbdb8" />
			<path id="Path_339" data-name="Path 339" d="M398.069,270.35a4.44,4.44,0,0,1-.622.844c-.444.548-1.066,1.347-1.924,2.354-1.688,2.013-4.234,4.871-7.565,8.216A110.723,110.723,0,0,1,375.433,292.6,82.638,82.638,0,0,1,357.8,302.623c-13.442,5.463-27.017,6-36.255,4.071a44.278,44.278,0,0,1-10.629-3.42,26.768,26.768,0,0,1-2.694-1.48,6.383,6.383,0,0,1-.9-.548c0-.074,1.318.637,3.716,1.688A47.457,47.457,0,0,0,321.65,306.1c9.149,1.762,22.576,1.155,35.855-4.249a84.56,84.56,0,0,0,17.513-9.815,117.039,117.039,0,0,0,12.569-10.659c3.36-3.272,5.922-6.07,7.713-8.024l2.028-2.235A4.253,4.253,0,0,1,398.069,270.35Z" transform="translate(-2.31 -85.518)" fill="#263238" />
			<path id="Path_340" data-name="Path 340" d="M384.418,284.19a3.433,3.433,0,0,1-.385.637c-.341.459-.74,1.036-1.229,1.717-1.081,1.48-2.709,3.6-4.811,6.144A164.207,164.207,0,0,1,339.5,326.53c-2.783,1.747-5.093,3.109-6.706,3.967l-1.865,1.007c-.444.222-.666.326-.681.3a3.418,3.418,0,0,1,.592-.429l1.806-1.125c1.569-.947,3.819-2.369,6.558-4.175a184.547,184.547,0,0,0,38.4-33.738c2.147-2.487,3.834-4.53,4.974-5.922.548-.651.992-1.2,1.347-1.643S384.388,284.176,384.418,284.19Z" transform="translate(8.705 -78.869)" fill="#263238" />
			<g id="Group_3128" data-name="Group 3128" transform="translate(399.045 303.22)" opacity="0.3">
				<path id="Path_341" data-name="Path 341" d="M411.181,350.32c2.235,20.888,2.961,40.578,5.226,61.451.3,2.872.577,5.922-.785,8.483-2,3.745-6.677,4.959-10.822,5.818-11.192,2.295-22.769,5.759-33.96,8.053,17.2-.341,34.908-2.295,52.11-2.62,1.332,0,5.211-.237,5.211-.237s-1.007-5.433-1.288-6.736c-5.714-25.907-9.993-48.305-15.692-74.212" transform="translate(-370.84 -350.32)" />
			</g>
			<g id="Group_3129" data-name="Group 3129" transform="translate(260.823 283.175)" opacity="0.3">
				<path id="Path_342" data-name="Path 342" d="M293.517,400.526c-14.3-17.5-19.023-41.644-14.241-63.746,3.109,23.686,8.882,44.59,14.241,63.746" transform="translate(-277.472 -336.78)" />
			</g>
			<g id="Group_3130" data-name="Group 3130" transform="translate(301.722 223.028)" opacity="0.3">
				<path id="Path_343" data-name="Path 343" d="M325.263,425.255a34.212,34.212,0,0,0,10.555-33.872c-1.614-6.144-4.944-11.74-6.262-17.957-1.392-6.543-.459-13.324-.148-20s-.118-13.783-3.819-19.364c-2.043-3.079-5.048-5.67-6-9.238s.252-6.913.488-10.363a20.237,20.237,0,0,0-7.4-16.847c-1.48-1.17-3.686-2.117-5.107-.888a4.6,4.6,0,0,0-1.14,3.361c-1.791,31.088-3.464,63.065,6.958,92.362,3.982,11.207,9.726,21.969,11.162,33.768" transform="translate(-305.099 -296.151)" />
			</g>
			<g id="Group_3131" data-name="Group 3131" transform="translate(305.335 188.148)" opacity="0.3">
				<path id="Path_344" data-name="Path 344" d="M356.66,301.71c-15,6.114-33.4,6.958-49.12-1.3l1.658,2.354c7.239,7.254,18.091,10.052,28.305,9.312s19.956-4.648,29.1-9.252a73.471,73.471,0,0,0,17.943-11.843,33.383,33.383,0,0,0,10.5-18.387C384.328,284.788,371.641,295.6,356.66,301.71Z" transform="translate(-307.54 -272.59)" />
			</g>
			<path id="Path_345" data-name="Path 345" d="M415.549,279s7.565,29.016,8.1,55.559,18.461,130.971,18.461,130.971l-94.287,4.693-6.01,54.005s106.87,23.2,137.677,21.6,43.465-25.522,39.749-61.052c0,0-21.91-132.481-34.2-163.658C473.847,292.842,453.773,282.109,415.549,279Z" transform="translate(14.259 -81.362)" fill="#0dbdb8" />
			<path id="Path_346" data-name="Path 346" d="M485.135,307.42s.207.5.563,1.48l1.6,4.441c1.258,3.982,2.961,9.9,4.93,17.617,3.923,15.411,8.749,37.913,14.108,65.819,2.68,13.96,5.507,29.253,8.423,45.715Q516.889,454.838,519.2,468c.178,1.1.414,2.206.533,3.331s.178,2.235.266,3.375.207,2.265.222,3.4,0,2.28,0,3.435a86.84,86.84,0,0,1-.9,13.916c-.237,1.155-.459,2.324-.7,3.479l-.266,1.791-.5,1.732c-.355,1.14-.666,2.295-1.036,3.435l-1.377,3.36a39.673,39.673,0,0,1-8.172,12.139,38.3,38.3,0,0,1-12.583,8.053,53.1,53.1,0,0,1-14.937,3.05c-10.289.311-20.726-.933-31.088-2.25s-21.081-2.961-31.755-4.826c-26-4.441-51.118-9.445-74.967-14.523h-.326v-.34c2.1-18.786,4.116-36.832,6.04-53.99v-.3h.3l94.287-4.619-.252.311c-5.537-27.017-10.008-48.853-13.1-63.864-1.48-7.506-2.709-13.324-3.509-17.306-.4-1.954-.7-3.464-.888-4.441s-.281-1.48-.281-1.48.133.518.355,1.48.533,2.517.962,4.441c.829,3.967,2.058,9.785,3.657,17.276,3.138,15.041,7.683,36.818,13.324,63.82v.311h-.311l-94.272,4.782.326-.311c-1.91,17.173-3.908,35.219-6,54.005l-.281-.414c23.834,5.078,48.957,10.067,74.923,14.493,10.689,1.836,21.259,3.479,31.725,4.841s20.888,2.5,31.029,2.221a52.351,52.351,0,0,0,14.715-2.961,37.618,37.618,0,0,0,12.332-7.876,39.544,39.544,0,0,0,8.039-11.917c.444-1.1.888-2.206,1.347-3.3a33.414,33.414,0,0,0,1.021-3.4l.5-1.688.355-1.732c.222-1.155.459-2.295.681-3.449a88.69,88.69,0,0,0,.933-13.8c0-1.14,0-2.28-.074-3.4s-.148-2.265-.222-3.375l-.252-3.346c-.118-1.11-.341-2.206-.518-3.3-1.48-8.764-2.961-17.291-4.441-25.522-2.872-16.447-5.67-31.755-8.32-45.715-5.3-27.92-10.037-50.422-13.857-65.848-1.88-7.713-3.583-13.649-4.8-17.646-.666-1.969-1.17-3.479-1.48-4.515S485.135,307.42,485.135,307.42Z" transform="translate(14.163 -67.709)" fill="#263238" />
			<path id="Path_347" data-name="Path 347" d="M439.81,436.074c-.118,0-1.288-2.132-3.494-5.448a80.349,80.349,0,0,0-9.8-12.08,81.917,81.917,0,0,0-11.962-9.963c-3.3-2.236-5.478-3.435-5.4-3.553a7.841,7.841,0,0,1,1.584.725c1.007.5,2.413,1.3,4.116,2.383a70.051,70.051,0,0,1,21.925,22.206c1.051,1.7,1.851,3.138,2.339,4.145a6.221,6.221,0,0,1,.7,1.584Z" transform="translate(46.608 -20.817)" fill="#263238" />
			<path id="Path_348" data-name="Path 348" d="M417.1,290a18.975,18.975,0,0,1-1.924,1.732,27.631,27.631,0,0,0-2.25,2.043c-.829.829-1.85,1.717-2.813,2.857l-1.554,1.732c-.548.607-1.036,1.288-1.584,1.969-1.11,1.347-2.132,2.961-3.227,4.545a61.452,61.452,0,0,0-8.986,23.686c-.252,1.954-.548,3.79-.592,5.537,0,.873-.133,1.717-.133,2.531v2.324c0,1.48.148,2.828.222,4.012a26.633,26.633,0,0,0,.326,2.961,18.844,18.844,0,0,1,.3,2.591,14.634,14.634,0,0,1-.592-2.531,24.41,24.41,0,0,1-.459-2.961A37.929,37.929,0,0,1,393.5,339c0-.755,0-1.48-.074-2.369a13.329,13.329,0,0,1,.089-2.546,52.363,52.363,0,0,1,.518-5.611,59.571,59.571,0,0,1,9.09-23.983c1.14-1.628,2.176-3.212,3.331-4.545.563-.681,1.081-1.377,1.628-1.969l1.614-1.717a36.023,36.023,0,0,1,2.961-2.813,23.879,23.879,0,0,1,2.354-1.969A15.547,15.547,0,0,1,417.1,290Z" transform="translate(39.042 -76.078)" fill="#263238" />
			<path id="Path_349" data-name="Path 349" d="M333.174,350.569c-1.569-4.367-5.389-7.816-6.173-12.376-.607-3.553.74-7.121,1.066-10.7.681-7.565-3.286-17.868-6-24.96-2.828-7.4-8.394-10.97-2.857-17.38l-.5-2.813c-10.363-1.48-21.6,8.438-21.5,18.949a22.206,22.206,0,0,0-3.375,39.171c-1.273,9.771-2.487,20.045,1.229,29.164s14.212,16.284,23.405,12.746c6.277-2.4,10.022-8.779,12.628-14.967C333.351,362.057,335.143,356.017,333.174,350.569Z" transform="translate(-13.701 -79.83)" fill="#263238" />
			<path id="Path_350" data-name="Path 350" d="M313.364,295.68a28.483,28.483,0,0,0-21.614.918,9.252,9.252,0,0,1,2.872-1.643,23.034,23.034,0,0,1,7.817-1.717,22.678,22.678,0,0,1,7.92,1.051,9.165,9.165,0,0,1,3.005,1.392Z" transform="translate(-9.79 -74.534)" fill="#455a64" />
			<path id="Path_351" data-name="Path 351" d="M316.6,325.278a3.329,3.329,0,0,1-.918.548,16.86,16.86,0,0,1-2.709,1.066,24.13,24.13,0,0,1-18.683-2.072,15.115,15.115,0,0,1-2.413-1.628c-.533-.429-.8-.7-.77-.74s1.288.814,3.435,1.895a26.766,26.766,0,0,0,18.283,2.028C315.167,325.781,316.544,325.16,316.6,325.278Z" transform="translate(-10.098 -60.489)" fill="#455a64" />
			<path id="Path_352" data-name="Path 352" d="M323.711,329.5c-.133.074-1.48-2.339-3.967-5.922a67.6,67.6,0,0,0-4.871-5.922,71.211,71.211,0,0,0-6.884-6.4,69.568,69.568,0,0,0-7.743-5.3,67.225,67.225,0,0,0-6.869-3.435c-4.027-1.717-6.662-2.428-6.617-2.561a8.2,8.2,0,0,1,1.88.4c.592.148,1.318.355,2.147.651s1.791.577,2.8,1.007a54.8,54.8,0,0,1,7,3.331,62.561,62.561,0,0,1,7.89,5.315,64.174,64.174,0,0,1,6.914,6.5,58.987,58.987,0,0,1,4.8,6.1c.651.9,1.14,1.762,1.6,2.517s.829,1.406,1.11,1.954A9.852,9.852,0,0,1,323.711,329.5Z" transform="translate(-12.188 -71.288)" fill="#455a64" />
			<path id="Path_353" data-name="Path 353" d="M308.744,293.364c-.192.118-1.732-2.28-4.367-4.441s-5.255-3.36-5.167-3.583a11.933,11.933,0,0,1,5.655,2.961,11.755,11.755,0,0,1,3.879,5.063Z" transform="translate(-6.207 -78.317)" fill="#455a64" />
			<path id="Path_354" data-name="Path 354" d="M321.338,327.73c0,.1-1.865,1.11-4.8,2.961a72.394,72.394,0,0,0-10.629,8.438,70.09,70.09,0,0,0-8.749,10.363c-1.984,2.857-3.035,4.752-3.153,4.678a6.218,6.218,0,0,1,.622-1.392c.429-.873,1.14-2.117,2.073-3.6a59.937,59.937,0,0,1,8.675-10.6,58.891,58.891,0,0,1,10.881-8.35,41.444,41.444,0,0,1,3.657-1.969A4.873,4.873,0,0,1,321.338,327.73Z" transform="translate(-8.705 -57.952)" fill="#fff" />
			<path id="Path_355" data-name="Path 355" d="M294.923,331.485a6.754,6.754,0,0,1,0-1.48,32.754,32.754,0,0,1,.37-4.1,44.027,44.027,0,0,1,11.947-24.012,31.922,31.922,0,0,1,3.05-2.768,5.687,5.687,0,0,1,1.229-.873c.089.1-1.48,1.48-3.879,4.012A48.542,48.542,0,0,0,295.8,325.948C295.16,329.338,295.056,331.485,294.923,331.485Z" transform="translate(-8.285 -72.115)" fill="#fff" />
			<path id="Path_356" data-name="Path 356" d="M314.284,350.239a35.64,35.64,0,0,1-1.717-3.568A38.2,38.2,0,0,0,300.4,332.385c-1.984-1.48-3.316-2.161-3.257-2.265a13.323,13.323,0,0,1,3.553,1.806,32.908,32.908,0,0,1,7.254,6.351,32.571,32.571,0,0,1,5.107,8.172A13.828,13.828,0,0,1,314.284,350.239Z" transform="translate(-7.202 -56.804)" fill="#455a64" />
			<path id="Path_357" data-name="Path 357" d="M327.945,356.994c-2.65-4.2-6.4-8.364-11.34-8.794l-15.722,5.2a21.347,21.347,0,0,0-2.1,21.836,50.328,50.328,0,0,0,7.4,10.022c2.694,3.2,5.285,6.662,6.277,10.718s0,8.882-3.331,11.34a20.06,20.06,0,0,0,9.711-7.905,14.656,14.656,0,0,1-1.969,9.637c9.711-3.242,16.521-12.776,18.09-22.887S333.422,365.669,327.945,356.994Z" transform="translate(-7.406 -48.119)" fill="#263238" />
			<path id="Path_358" data-name="Path 358" d="M326.669,345.387a4.16,4.16,0,0,0-2.8-2.665c-1.984-.429-3.731,1.229-5.27,2.561a23.45,23.45,0,0,1-20.444,4.915h-.266a4.93,4.93,0,0,0-2.309,4.249,6.469,6.469,0,0,0,2.073,3.731,13.931,13.931,0,0,0,9.06,3.657,25.168,25.168,0,0,0,9.756-1.762,19.246,19.246,0,0,0,8.335-5.315,9.371,9.371,0,0,0,1.865-9.371Z" transform="translate(-7.951 -50.783)" fill="#455a64" />
			<path id="Path_359" data-name="Path 359" d="M107.92,338.652l9.045,54.775,79.808,76.818L264.694,505.7,373.208,475.56l2.324-12.6L316.775,423.2l-66.248-56.7s-21.688-62.739-29.238-76.418Z" transform="translate(-98.102 -76.04)" fill="#fff" />
			<path id="Path_360" data-name="Path 360" d="M107.92,338.767s.651-.311,1.969-.888l5.922-2.546,22.532-9.726,82.9-35.663.252-.1.118.222c2.842,5.463,5.2,11.325,7.624,17.35s4.782,12.273,7.165,18.683q7.15,19.245,14.538,40.415l-.1-.148,66.248,56.685h0l58.757,39.7.207.148v.252c-.148.755-.3,1.584-.444,2.413-.637,3.4-1.273,6.81-1.895,10.17v.237l-.222.074L264.976,506.171h-.266L196.8,470.641h0L116.832,393.7h0c-2.857-17.543-5.078-31.251-6.6-40.578-.74-4.634-1.318-8.187-1.7-10.585-.178-1.184-.326-2.087-.415-2.694s-.133-.9-.133-.9l.178.918c.1.637.266,1.48.474,2.724.4,2.413,1.007,5.922,1.806,10.614,1.48,9.3,3.849,22.946,6.8,40.43v-.118c20.074,19.245,47.373,45.463,79.942,76.729H197.1l67.95,35.426h-.266l108.5-30.171-.281.3c.622-3.375,1.258-6.766,1.88-10.185.163-.814.311-1.643.459-2.413l.163.385-58.92-39.971h0L250.364,366.88h-.074v-.089q-7.328-21.155-14.478-40.43-3.553-9.608-7.121-18.683c-2.413-6.01-4.767-11.843-7.565-17.291l.355.118-82.814,35.337L115.973,335.5l-5.922,2.5Z" transform="translate(-98.102 -76.155)" fill="#263238" />
			<path id="Path_361" data-name="Path 361" d="M238.287,341.69a6.517,6.517,0,0,1-.992.607l-2.961,1.614c-2.561,1.392-6.277,3.346-10.911,5.729-9.252,4.767-22.206,11.133-36.61,17.661s-27.787,11.947-37.528,15.618c-4.856,1.836-8.808,3.287-11.562,4.219l-3.183,1.081a6.512,6.512,0,0,1-1.11.326,9.063,9.063,0,0,1,1.066-.474l3.124-1.214,11.473-4.441c9.667-3.8,22.946-9.3,37.41-15.811s27.373-12.82,36.684-17.454l11-5.507,2.961-1.48a6.082,6.082,0,0,1,1.14-.474Z" transform="translate(-85.847 -51.246)" fill="#263238" />
			<path id="Path_362" data-name="Path 362" d="M286.92,379.791c.074.192-26.5,10.94-59.349,24.012s-59.542,23.479-59.631,23.287,26.484-10.94,59.349-24.012S286.846,379.584,286.92,379.791Z" transform="translate(-69.269 -32.944)" fill="#263238" />
			<path id="Path_363" data-name="Path 363" d="M130.47,372.417s5.167-1.821,6.233-4.811.859-5.359,0-6.425-15.84-7.284-17.336-7.713-14.345-1.48-14.982,6.218a14,14,0,0,0,2.961,9.415s-4.93,9.415-4.93,11.769,2.354,6,2.147,7.92-4.441,6.632-2.961,10.5,3.2,4.441,3.2,7.269-1.066,4.93,0,6.632,7.92,10.5,13.324,11.562,31.251,4.708,31.251,4.708l3.849,2.576s11.355,3.42,17.35-6.632,4.915-9.43,4.915-9.43l-19.512-18.638s2.339-4.441-.4-6.869a11.667,11.667,0,0,0-4.708-1.924s1.717-6.425-1.48-8.572S130.47,372.417,130.47,372.417Z" transform="translate(-101.288 -45.733)" fill="#ffbe9d" />
			<path id="Path_364" data-name="Path 364" d="M106.55,388.425a2.264,2.264,0,0,1,.666-.222c.444-.118,1.11-.3,1.954-.474,1.717-.385,4.2-.859,7.313-1.288a108.68,108.68,0,0,1,24.5-.592h.178l.089.133a3.923,3.923,0,0,1,.415.637,4.9,4.9,0,0,1,0,4.1,6.958,6.958,0,0,1-2.546,2.961,35.946,35.946,0,0,1-6.5,2.961L121.828,400.9l.148-.237a9.1,9.1,0,0,1-2.665,6.01,8.283,8.283,0,0,1-1.377,1.11c-.355.207-.548.3-.563.266a15.718,15.718,0,0,0,1.747-1.569,9.149,9.149,0,0,0,2.354-5.833v-.163h.163l10.733-4.441a36.322,36.322,0,0,0,6.321-2.961,6.144,6.144,0,0,0,2.265-2.68,4.13,4.13,0,0,0,0-3.449,4.445,4.445,0,0,0-.326-.518l.266.148a119.385,119.385,0,0,0-24.382.355c-3.094.37-5.6.755-7.313,1.051a18.813,18.813,0,0,1-2.65.429Z" transform="translate(-98.761 -30.238)" fill="#eb996e" />
			<path id="Path_365" data-name="Path 365" d="M148.955,378.549a1,1,0,0,1-.163.444,2.96,2.96,0,0,1-.918.992,4.662,4.662,0,0,1-2.013.8,9.31,9.31,0,0,1-2.828-.118c-4.056-.755-9.608-1.88-15.751-3.153-5.359-1.125-10.274-2.176-14.034-2.961h.178l-5.729,2.176a10.628,10.628,0,0,1-2.147.725,13.683,13.683,0,0,1,2.013-1.036l5.566-2.487h.178c3.79.74,8.7,1.732,14.079,2.857,6.129,1.273,11.68,2.487,15.692,3.375a6.114,6.114,0,0,0,4.574-.4,4.781,4.781,0,0,0,1.3-1.214Z" transform="translate(-99.241 -35.758)" fill="#eb996e" />
			<path id="Path_366" data-name="Path 366" d="M152.472,383a1.2,1.2,0,0,1-.133.459,4.324,4.324,0,0,1-.8,1.11,7.314,7.314,0,0,1-4.574,1.895,135.291,135.291,0,0,1-16.21.148c-3.168-.118-6.188-.4-8.882-.607a31.584,31.584,0,0,0-7.21.163,9.223,9.223,0,0,0-4.545,1.362c-.933.637-1.347,1.155-1.48,1.1s0-.148.266-.4a5.8,5.8,0,0,1,.962-.947,6.44,6.44,0,0,1,1.895-1.036,16.016,16.016,0,0,1,2.768-.622,30.052,30.052,0,0,1,7.313-.326c2.739.178,5.729.429,8.882.548,6.292.281,12.036.266,16.136.089a7.4,7.4,0,0,0,4.441-1.584A7.193,7.193,0,0,0,152.472,383Z" transform="translate(-97.783 -31.401)" fill="#eb996e" />
			<path id="Path_367" data-name="Path 367" d="M144.962,392.458a69.776,69.776,0,0,0-6.706-2.561c-3.834-1.021-7.106-.844-7.106-1.081A17.424,17.424,0,0,1,144.962,392.458Z" transform="translate(-86.943 -28.72)" fill="#eb996e" />
			<path id="Path_368" data-name="Path 368" d="M131.167,368.54a22.4,22.4,0,0,1-3.686-.844c-2.25-.592-5.374-1.347-8.882-2.043s-6.647-1.2-8.882-1.48a20.829,20.829,0,0,1-3.716-.651,16.29,16.29,0,0,1,3.79.1,80.64,80.64,0,0,1,9.045,1.318,83.171,83.171,0,0,1,8.882,2.265,15.69,15.69,0,0,1,3.449,1.332Z" transform="translate(-99.025 -40.79)" fill="#eb996e" />
			<path id="Path_369" data-name="Path 369" d="M366.8,419.446S342.433,399,337.77,398.276s-12.2-1.48-13.99,0S277.5,411.6,277.5,411.6a12.051,12.051,0,0,0-5.255,6.292,4.352,4.352,0,0,0,2.635,5.4,15.16,15.16,0,0,0,9.075.5,7.609,7.609,0,0,0,1.081,7.535c2.857,3.583,11.754,1.48,11.754,1.48s-3.509,8.971,5.107,11.473c0,0-3.242,2.517,0,6.469s6.543,7.965,12.909,7.535,18.653,0,18.653,0h22.9a33.677,33.677,0,0,1,6.1-2.191c2.147-.355,13.324,2.1,13.324,2.1l4.352-37.721Z" transform="translate(-19.259 -24.471)" fill="#ffbe9d" />
			<path id="Path_370" data-name="Path 370" d="M325.181,408.452a9.7,9.7,0,0,1-1.776.444l-4.871,1.007c-4.1.859-9.741,2.191-15.959,3.745s-11.843,2.961-15.959,3.8c-2.058.429-3.731.755-4.885.947a8.524,8.524,0,0,1-1.821.237,8.514,8.514,0,0,1,1.762-.533l4.826-1.184,15.9-4.027c6.218-1.554,11.843-2.8,16.033-3.523,2.073-.37,3.745-.637,4.915-.77a7.733,7.733,0,0,1,1.836-.148Z" transform="translate(-15.478 -19.176)" fill="#eb996e" />
			<path id="Path_371" data-name="Path 371" d="M320.474,418.018a28.458,28.458,0,0,1-4.678.666c-2.887.326-6.884.755-11.281,1.377s-8.335,1.347-11.192,1.939a35.938,35.938,0,0,1-4.634.874,24.287,24.287,0,0,1,4.515-1.407,107.079,107.079,0,0,1,11.207-2.161c4.441-.622,8.423-.977,11.34-1.17A26.28,26.28,0,0,1,320.474,418.018Z" transform="translate(-11.26 -14.605)" fill="#eb996e" />
			<path id="Path_372" data-name="Path 372" d="M319.257,428.46a20.2,20.2,0,0,1-3.879,1.11,68.784,68.784,0,0,1-9.578,1.658,29.989,29.989,0,0,1-9.741-.785,14.243,14.243,0,0,1-3.819-1.273,38.509,38.509,0,0,1,3.938.74,34.148,34.148,0,0,0,9.549.548,85.584,85.584,0,0,0,9.549-1.48,21.632,21.632,0,0,1,3.982-.518Z" transform="translate(-9.555 -9.562)" fill="#eb996e" />
		</g>
		<g id="freepik--Desk--inject-4" transform="translate(16.87 663.542)">
			<rect id="Rectangle_67" data-name="Rectangle 67" width="689.645" height="29.223" transform="translate(0.104 0.533)" fill="#455a64" />
			<path id="Path_373" data-name="Path 373" d="M16.974,457.173H30.83l39.882-.089,147.167-.192,488.769-.252h.5v30.289h-.5l-689.66-.459H16.87v-.148c0-10.037,0-17.35.074-22.206s0-7.047,0-7.047c0,1.036,0,9.356.133,29.223l-.133-.148,689.66-.474-.518.622V457.173l.518.607-488.384-.252-147.285-.178-39.971-.089H20.6Z" transform="translate(-16.87 -456.566)" fill="#263238" />
			<path id="Path_374" data-name="Path 374" d="M162.685,457.24s0,.118-.222.311-.385.5-.725.888a14.24,14.24,0,0,1-3.464,2.679,19.985,19.985,0,0,1-6.662,2.176,48.647,48.647,0,0,1-9.3.385,92.392,92.392,0,0,1-11.177-1.243,100.807,100.807,0,0,0-12.746-1.48c-9.03-.311-18.86,1.969-28.675,5.389s-19.023,7.284-27.817,9.637a79.344,79.344,0,0,1-12.657,2.457,54.9,54.9,0,0,1-11.266,0,39.366,39.366,0,0,1-15.47-4.782,24.754,24.754,0,0,1-4.826-3.449,1.8,1.8,0,0,1,.326.207l.933.666a30.486,30.486,0,0,0,3.657,2.265,39.881,39.881,0,0,0,15.367,4.441,55.054,55.054,0,0,0,11.133,0A79.634,79.634,0,0,0,61.648,475.3c8.72-2.383,17.868-6.262,27.758-9.7s19.808-5.729,28.986-5.359a99.643,99.643,0,0,1,12.82,1.554,96.632,96.632,0,0,0,11.1,1.332,49.491,49.491,0,0,0,9.193-.266,19.94,19.94,0,0,0,6.573-2,17.764,17.764,0,0,0,4.6-3.627Z" transform="translate(-16.481 -456.278)" fill="#263238" />
			<path id="Path_375" data-name="Path 375" d="M85.133,457.569a18.758,18.758,0,0,1-2.087,1.732,50.007,50.007,0,0,1-6.306,3.923,54.775,54.775,0,0,1-23.686,6.084,52.85,52.85,0,0,1-24.042-4.8,15.085,15.085,0,0,1-5.8-4.6,7.284,7.284,0,0,1-.947-1.762q-.222-.651-.178-.666a18.138,18.138,0,0,0,1.362,2.25,15.93,15.93,0,0,0,5.8,4.263,54.865,54.865,0,0,0,23.686,4.441,57.407,57.407,0,0,0,23.538-5.744,60.655,60.655,0,0,0,6.381-3.671A17.76,17.76,0,0,1,85.133,457.569Z" transform="translate(-14.37 -456.162)" fill="#263238" />
			<path id="Path_376" data-name="Path 376" d="M191.847,474.173s.37.118,1.066.37a21.373,21.373,0,0,0,3.183.829,19.349,19.349,0,0,0,12.08-1.836v.37a29.208,29.208,0,0,0-14.967-5.64,29.786,29.786,0,0,0-19.467,4.9,2.961,2.961,0,0,0-1.48,1.895,2.013,2.013,0,0,0,1.288,1.88,9.149,9.149,0,0,0,2.665.918l2.961.637c3.938.859,8.024,1.7,12.243,2.295a74.02,74.02,0,0,0,13.013.859,48.834,48.834,0,0,0,6.691-.622c1.11-.178,2.221-.385,3.331-.666a17.263,17.263,0,0,0,3.212-1.021,10.585,10.585,0,0,0,4.175-2.961,4.441,4.441,0,0,0,.8-4.441,7.7,7.7,0,0,0-3.272-3.538,26.985,26.985,0,0,0-4.574-2.176,64.919,64.919,0,0,0-19.156-3.849,82.3,82.3,0,0,0-52.377,15.337c-2.117,1.569-3.731,2.813-4.767,3.731l-1.214,1.007-.429.326a4.222,4.222,0,0,1,.37-.385l1.155-1.066c1.007-.962,2.591-2.25,4.678-3.864A79.33,79.33,0,0,1,162.624,466.7a81.7,81.7,0,0,1,32.954-5.122,64.474,64.474,0,0,1,19.408,3.864,26.512,26.512,0,0,1,4.737,2.235,8.483,8.483,0,0,1,3.612,3.938,5.315,5.315,0,0,1-.918,5.285,11.548,11.548,0,0,1-4.515,3.168,16.281,16.281,0,0,1-3.346,1.051c-1.125.3-2.265.5-3.4.7a50.319,50.319,0,0,1-6.795.622,73.814,73.814,0,0,1-13.161-.888c-4.264-.607-8.349-1.48-12.3-2.339l-2.961-.651a9.95,9.95,0,0,1-2.961-1.007,3.746,3.746,0,0,1-1.2-1.021,2.132,2.132,0,0,1-.444-1.569,3.7,3.7,0,0,1,1.821-2.413,30.467,30.467,0,0,1,19.956-4.915,29.608,29.608,0,0,1,15.2,5.922l.266.207-.311.163a19.244,19.244,0,0,1-12.332,1.658,14.211,14.211,0,0,1-4.086-1.406Z" transform="translate(40.769 -454.247)" fill="#263238" />
			<path id="Path_377" data-name="Path 377" d="M241.717,457.75a4.339,4.339,0,0,1,.681,1.48,10.808,10.808,0,0,1,.444,4.441c-.222,3.76-2.605,8.7-6.706,12.761a34.256,34.256,0,0,1-6.277,5.167,29.086,29.086,0,0,1-6.055,2.842,30.253,30.253,0,0,1-4.441,1.066,5.745,5.745,0,0,1-1.643.133c0-.148,2.309-.474,5.833-1.747a31.583,31.583,0,0,0,5.833-2.961,35.726,35.726,0,0,0,6.084-5.107c4.012-3.953,6.366-8.646,6.736-12.243a15.662,15.662,0,0,0-.489-5.833Z" transform="translate(79.619 -456.033)" fill="#263238" />
			<path id="Path_378" data-name="Path 378" d="M350.214,481.922a37.766,37.766,0,0,0-3.168-2.961,22.916,22.916,0,0,0-10.777-4.708,24.622,24.622,0,0,0-8.216.237,37.012,37.012,0,0,1-9.623.858c-3.538-.326-6.706-2.4-9.578-4.56a33.012,33.012,0,0,0-9.637-5.537,36.358,36.358,0,0,0-21.377-.311,51.4,51.4,0,0,0-15.825,7.728,84.377,84.377,0,0,0-9.164,7.594l-2.354,2.176a5.325,5.325,0,0,1-.844.755,7.066,7.066,0,0,1,.725-.873c.489-.548,1.244-1.347,2.235-2.354a75.119,75.119,0,0,1,9.045-7.817,51.043,51.043,0,0,1,15.959-8.039,37.01,37.01,0,0,1,21.9.281,33.2,33.2,0,0,1,9.845,5.67c2.857,2.176,5.848,4.13,9.164,4.441a37.1,37.1,0,0,0,9.43-.785,25.163,25.163,0,0,1,8.409-.133,22.576,22.576,0,0,1,10.91,5.048,14.065,14.065,0,0,1,2.946,3.286Z" transform="translate(94.958 -453.706)" fill="#263238" />
			<path id="Path_379" data-name="Path 379" d="M427.613,457.14a6.6,6.6,0,0,1-.755.992,35.908,35.908,0,0,1-2.354,2.724,64.011,64.011,0,0,1-10.067,8.66,81.231,81.231,0,0,1-17.469,9.386,73.191,73.191,0,0,1-11.266,3.479,58.922,58.922,0,0,1-12.6,1.569,63.879,63.879,0,0,1-23.908-4.811,80.647,80.647,0,0,1-17.38-9.548,67.828,67.828,0,0,1-9.993-8.749c-1.11-1.11-1.821-2.087-2.354-2.709a10.1,10.1,0,0,1-.77-.992,5.1,5.1,0,0,1,.9.888c.577.577,1.332,1.48,2.472,2.591a71.141,71.141,0,0,0,10.111,8.5,81.425,81.425,0,0,0,17.306,9.312,64.114,64.114,0,0,0,23.6,4.708,60.55,60.55,0,0,0,12.435-1.48,72.846,72.846,0,0,0,11.162-3.4A83.956,83.956,0,0,0,414.1,469.1a69.824,69.824,0,0,0,10.156-8.468c1.14-1.066,1.88-2.028,2.457-2.605a6.309,6.309,0,0,1,.9-.888Z" transform="translate(128.129 -456.326)" fill="#263238" />
			<path id="Path_380" data-name="Path 380" d="M403.929,457a2.786,2.786,0,0,1-.577.459c-.414.267-.992.7-1.791,1.17a78.276,78.276,0,0,1-17.765,8.1,49.431,49.431,0,0,1-14.241,2.354,60.165,60.165,0,0,1-25.285-6.188A57.563,57.563,0,0,1,337.429,459c-.785-.5-1.347-.948-1.747-1.244a3.223,3.223,0,0,1-.563-.474,22.757,22.757,0,0,1,2.487,1.48,74.7,74.7,0,0,0,6.928,3.642,62.561,62.561,0,0,0,25.019,5.922,50.423,50.423,0,0,0,13.945-2.443,82.3,82.3,0,0,0,10.9-4.1c2.961-1.392,5.374-2.635,6.987-3.538A22.564,22.564,0,0,1,403.929,457Z" transform="translate(136.018 -456.393)" fill="#263238" />
			<path id="Path_381" data-name="Path 381" d="M451.7,459.3a2.768,2.768,0,0,1-.8,0l-2.265-.133-1.614-.118h-6.677l-2.739.148-2.961.326c-2.058.178-4.2.651-6.484,1.021a99.514,99.514,0,0,0-14.419,4.16,102.69,102.69,0,0,0-13.56,6.44c-1.939,1.214-3.849,2.295-5.477,3.494l-2.428,1.688-2.132,1.688c-1.392,1.036-2.546,2.087-3.583,2.961l-1.48,1.258c-.4.414-.785.785-1.14,1.14l-1.584,1.554a4.264,4.264,0,0,1-.607.5,3.375,3.375,0,0,1,.474-.622l1.48-1.658,1.1-1.2,1.392-1.318c1.007-.948,2.147-2.043,3.523-3.124l2.117-1.717,2.413-1.747c1.628-1.243,3.538-2.354,5.492-3.6a88.071,88.071,0,0,1,28.128-10.7c2.309-.34,4.441-.8,6.558-.933l2.961-.3,2.783-.089a45.157,45.157,0,0,1,4.752,0h1.954l1.628.192,2.25.3a2.681,2.681,0,0,1,.948.385Z" transform="translate(158.419 -455.736)" fill="#263238" />
			<path id="Path_382" data-name="Path 382" d="M371.023,483.04a29.728,29.728,0,0,0-3.79-4.441,35.337,35.337,0,0,0-13.9-7.52,77.9,77.9,0,0,0-10.836-2.324c-3.968-.607-8.231-1.081-12.687-1.836a109.894,109.894,0,0,1-13.768-3.346,93.156,93.156,0,0,0-14.686-3.434,63.065,63.065,0,0,0-28.631,3.834,106.453,106.453,0,0,0-11.636,5.063c-3.568,1.776-6.839,3.523-9.8,5.137-5.922,3.257-10.659,6.04-13.916,7.965l-3.76,2.221-.977.563q-.326.207-.355.178l.311-.237.933-.637c.829-.563,2.058-1.362,3.671-2.369,3.2-2.013,7.876-4.856,13.8-8.187,2.961-1.658,6.2-3.435,9.771-5.241a105.03,105.03,0,0,1,11.7-5.167,63.214,63.214,0,0,1,28.986-3.879,91.792,91.792,0,0,1,14.8,3.479,109.973,109.973,0,0,0,13.664,3.375c4.441.755,8.69,1.258,12.657,1.91a77.134,77.134,0,0,1,10.925,2.428,34.775,34.775,0,0,1,13.931,7.861,17.144,17.144,0,0,1,3.6,4.6Z" transform="translate(86.613 -455.401)" fill="#263238" />
			<path id="Path_383" data-name="Path 383" d="M232.246,457.24a5.92,5.92,0,0,1-.089,1.865,20.871,20.871,0,0,1-1.362,4.93,28.394,28.394,0,0,1-10.6,13.146,72.433,72.433,0,0,1-15.707,7.017c-2.1.666-3.819,1.155-5.019,1.48a8.413,8.413,0,0,1-1.88.385,8.148,8.148,0,0,1,1.791-.681l4.915-1.717a82.492,82.492,0,0,0,15.441-7.135,29.49,29.49,0,0,0,10.511-12.672,36.684,36.684,0,0,0,2-6.617Z" transform="translate(69.948 -456.278)" fill="#263238" />
			<path id="Path_384" data-name="Path 384" d="M112.88,486.034a12.258,12.258,0,0,1,1.673-1.569c1.11-.977,2.783-2.309,4.915-3.893a143.762,143.762,0,0,1,17.587-10.985c7.165-3.8,13.857-6.869,18.712-9.03,2.443-1.081,4.441-1.924,5.788-2.5a12.617,12.617,0,0,1,2.176-.814,12.046,12.046,0,0,1-2.028,1.11l-5.714,2.739c-4.8,2.295-11.429,5.418-18.564,9.223a173.523,173.523,0,0,0-17.646,10.733c-2.161,1.48-3.893,2.768-5.063,3.671A12.371,12.371,0,0,1,112.88,486.034Z" transform="translate(29.253 -456.278)" fill="#263238" />
			<path id="Path_385" data-name="Path 385" d="M169.62,458.183c0,.089-1.584-.193-4.441,0a32.167,32.167,0,0,0-11.5,3.39c-4.619,2.176-9.475,5.788-14.952,9.711a74.72,74.72,0,0,1-9,5.655,51.24,51.24,0,0,1-10.762,4.012,102.307,102.307,0,0,1-22.028,2.561c-6.825.207-12.939.074-18.076.267a91.3,91.3,0,0,0-12.095,1.155c-1.48.252-2.5.459-3.242.622a5.776,5.776,0,0,1-1.14.207,6.188,6.188,0,0,1,1.1-.355c.725-.222,1.821-.488,3.227-.785a80.139,80.139,0,0,1,12.124-1.48c5.152-.281,11.3-.207,18.076-.444a105.182,105.182,0,0,0,21.851-2.606,50.336,50.336,0,0,0,10.585-3.923,80.268,80.268,0,0,0,8.882-5.551c5.477-3.879,10.363-7.491,15.144-9.637a31.09,31.09,0,0,1,11.74-3.183,21.332,21.332,0,0,1,3.331.1,5.191,5.191,0,0,1,1.184.281Z" transform="translate(4.993 -456.021)" fill="#263238" />
			<path id="Path_386" data-name="Path 386" d="M439.91,486.034a13.184,13.184,0,0,1,1.688-1.569c1.11-.977,2.783-2.309,4.9-3.893a146.118,146.118,0,0,1,17.587-10.984c7.18-3.8,13.871-6.869,18.727-9.031,2.428-1.081,4.441-1.924,5.788-2.5a13.391,13.391,0,0,1,2.161-.814,11.276,11.276,0,0,1-2.028,1.11l-5.655,2.739c-4.8,2.295-11.444,5.418-18.579,9.223a173.071,173.071,0,0,0-17.632,10.733c-2.161,1.48-3.893,2.768-5.063,3.671A11.97,11.97,0,0,1,439.91,486.034Z" transform="translate(186.359 -456.278)" fill="#263238" />
			<path id="Path_387" data-name="Path 387" d="M496.66,458.183c0,.089-1.6-.193-4.441,0a32.226,32.226,0,0,0-11.517,3.39c-4.6,2.176-9.475,5.788-14.937,9.711a74.727,74.727,0,0,1-9,5.655A51.243,51.243,0,0,1,446,480.951a102.416,102.416,0,0,1-22.028,2.561c-6.825.207-12.954.074-18.091.267a91.3,91.3,0,0,0-12.08,1.155c-1.406.252-2.5.459-3.242.622a5.921,5.921,0,0,1-1.14.207,5.643,5.643,0,0,1,1.1-.355c.725-.222,1.806-.489,3.227-.785a79.942,79.942,0,0,1,12.125-1.48c5.152-.281,11.281-.207,18.076-.444a104.937,104.937,0,0,0,21.836-2.606,49.726,49.726,0,0,0,10.585-3.923,79.146,79.146,0,0,0,8.882-5.552c5.463-3.879,10.363-7.491,15.13-9.637A31.281,31.281,0,0,1,492.13,457.8a21.333,21.333,0,0,1,3.331.1,5.492,5.492,0,0,1,1.2.281Z" transform="translate(162.103 -456.021)" fill="#263238" />
			<path id="Path_388" data-name="Path 388" d="M467.15,457c0,.222-28.823.415-64.368.415S338.4,457.227,338.4,457s28.823-.414,64.383-.414S467.15,456.782,467.15,457Z" transform="translate(137.593 -456.59)" fill="#263238" />
		</g>
		<g id="freepik--speech-bubble--inject-4" transform="translate(195.558 129.709)">
			<circle id="Ellipse_12" data-name="Ellipse 12" cx="66.899" cy="66.899" r="66.899" transform="translate(0 22.176) rotate(-9.54)" fill="#fff" />
			<path id="Path_389" data-name="Path 389" d="M237.6,184.306a17.072,17.072,0,0,0-1.969.444,8.971,8.971,0,0,0-4.293,3.168,8.35,8.35,0,0,0-1.48,3.346,7.225,7.225,0,0,0,.415,4.145,8.009,8.009,0,0,0,15.026.237,7.4,7.4,0,0,0,.563-4.13,8.425,8.425,0,0,0-1.406-3.39,8.882,8.882,0,0,0-4.19-3.3c-1.214-.429-1.954-.444-1.939-.518a2.411,2.411,0,0,1,.533,0,2.958,2.958,0,0,1,.637.089,3.494,3.494,0,0,1,.844.207,8.882,8.882,0,0,1,6.025,6.839,7.8,7.8,0,0,1-.533,4.441,9.06,9.06,0,0,1-3.094,3.834,8.068,8.068,0,0,1-10.022-.148,9.06,9.06,0,0,1-2.961-3.953,7.772,7.772,0,0,1-.4-4.441,8.69,8.69,0,0,1,1.658-3.509,8.882,8.882,0,0,1,4.589-3.124,5.745,5.745,0,0,1,.859-.192,3.625,3.625,0,0,1,.637,0C237.4,184.276,237.6,184.276,237.6,184.306Z" transform="translate(-93.557 -53.572)" fill="#263238" />
			<path id="Path_390" data-name="Path 390" d="M278.3,180.306v-1.081c0-.711.178-1.806.311-3.2q.089-1.051.222-2.354V167.5a12.753,12.753,0,0,0-.1-1.821,18.419,18.419,0,0,0-.207-1.939,64.267,64.267,0,0,0-4.634-18.831,66.619,66.619,0,0,0-13.975-21.436q-1.244-1.288-2.532-2.576c-.9-.829-1.88-1.6-2.828-2.4l-1.48-1.214a12.729,12.729,0,0,0-1.48-1.155l-3.183-2.191-1.628-1.1-1.732-.962-3.523-1.939c-1.214-.607-2.5-1.081-3.76-1.643-.622-.281-1.258-.548-1.91-.814-.311-.133-.637-.281-.962-.4l-.992-.326a65,65,0,0,0-8.246-2.265c-1.48-.266-2.842-.622-4.293-.829l-4.441-.444c-.74-.074-1.48-.192-2.235-.207h-6.839a68.409,68.409,0,0,0-9.238,1.229l-2.324.459c-.4.089-.785.148-1.169.252l-1.14.34-4.6,1.48c-1.48.548-2.961,1.229-4.515,1.836-.74.326-1.48.592-2.25.977l-2.176,1.155a75.886,75.886,0,0,0-8.5,5.241l-3.953,3.183-.992.814c-.311.281-.607.592-.918.888l-1.717,1.7-1.85,1.806-1.658,1.984-1.673,1.984-.844.992-.74,1.081-2.961,4.323-2.561,4.634a66.455,66.455,0,0,0-6.529,41.9c.355,1.747.7,3.464,1.051,5.2s1.021,3.346,1.48,5.019l.385,1.244.5,1.214.992,2.4,1.007,2.383,1.214,2.28,1.2,2.265.607,1.125.711,1.066,2.8,4.234a74.429,74.429,0,0,0,6.529,7.55L165.75,219c.563.592,1.244,1.081,1.85,1.614,1.258,1.036,2.472,2.132,3.745,3.109l3.967,2.724.992.666,1.036.592,2.073,1.14a69.093,69.093,0,0,0,8.438,3.953c1.48.548,2.961.947,4.352,1.48l2.161.681c.725.207,1.48.311,2.191.474l4.367.9c1.48.252,2.961.34,4.352.5a63.659,63.659,0,0,0,8.527.326h1.051a4.034,4.034,0,0,0,1.036-.089l2.073-.207c1.362-.163,2.739-.222,4.071-.444l3.938-.785,1.954-.4,1.88-.548,3.7-1.125a12.829,12.829,0,0,0,1.776-.666l1.747-.711c1.14-.489,2.295-.933,3.4-1.48l3.2-1.7a66.989,66.989,0,0,0,19.778-16.284c.607-.725,1.229-1.48,1.791-2.147l1.48-2.221,1.48-2.132c.237-.355.5-.681.711-1.036s.4-.725.592-1.081l2.265-4.086c.681-1.3,1.169-2.635,1.732-3.849l.77-1.791a11.62,11.62,0,0,0,.651-1.717l1.007-3.168c.3-.977.622-1.865.844-2.709s.34-1.628.489-2.309c.3-1.362.518-2.413.681-3.138l.252-1.066a4.655,4.655,0,0,1-.193,1.081c-.192.711-.34,1.776-.607,3.153-.148.7-.3,1.48-.474,2.309s-.518,1.747-.814,2.739-.637,2.043-.977,3.183a11.842,11.842,0,0,1-.651,1.732c-.237.577-.5,1.17-.755,1.791-.548,1.229-1.036,2.561-1.717,3.893s-1.48,2.665-2.235,4.1l-.607,1.081c-.207.37-.459.711-.7,1.066l-1.48,2.147-1.48,2.235c-.577.725-1.2,1.48-1.806,2.161a66.958,66.958,0,0,1-19.823,16.4l-3.227,1.717c-1.11.518-2.265.962-3.435,1.48l-1.747.725a12.354,12.354,0,0,1-1.791.666l-3.731,1.14-1.88.563-1.969.4-3.967.8c-1.347.237-2.724.3-4.1.459l-2.073.207c-.355,0-.7.089-1.051.1H213.8a62.383,62.383,0,0,1-8.6-.311c-1.48-.163-2.961-.252-4.441-.488l-4.441-.9c-.725-.163-1.48-.281-2.206-.489l-2.176-.681c-1.48-.474-2.961-.888-4.441-1.48a70.466,70.466,0,0,1-8.527-3.982l-2.087-1.155c-.355-.192-.711-.37-1.051-.577l-.992-.681-4.012-2.754c-1.288-.977-2.5-2.073-3.775-3.124-.622-.548-1.3-1.021-1.88-1.628l-1.732-1.776a74.189,74.189,0,0,1-6.6-7.609l-2.828-4.263-.711-1.081-.622-1.125-1.214-2.295-1.229-2.295-1.007-2.413-1.007-2.413-.5-1.214-.385-1.258-1.48-5.078c-.34-1.732-.7-3.479-1.051-5.241a67.107,67.107,0,0,1,6.662-42.147l2.576-4.678L157,130.031c.252-.355.489-.725.755-1.081l.844-1.007,1.688-2,1.688-2,1.851-1.821,1.851-1.806c.311-.311.622-.622.933-.9l1.007-.814,3.967-3.212a75.09,75.09,0,0,1,8.586-5.27l2.206-1.17c.725-.4,1.48-.651,2.265-.992,1.48-.607,2.961-1.288,4.56-1.836l4.634-1.48,1.155-.341c.4-.1.785-.163,1.184-.252l2.339-.459a69.7,69.7,0,0,1,9.327-1.229c1.48-.089,3.079,0,4.6,0h2.295c.755,0,1.48.133,2.25.207l4.441.459c1.48.207,2.961.577,4.338.844a65.142,65.142,0,0,1,8.29,2.295l1.007.326c.34.118.651.266.977.4l1.925.829c1.258.563,2.561,1.051,3.775,1.673l3.538,1.954,1.747.977c.563.355,1.1.74,1.628,1.11l3.212,2.206a11.725,11.725,0,0,1,1.48,1.17l1.48,1.229c.962.814,1.925,1.584,2.842,2.413l2.546,2.606a66.87,66.87,0,0,1,14.123,21.718,64.013,64.013,0,0,1,4.56,18.92c0,.681.118,1.318.178,1.954a12.974,12.974,0,0,1,.1,1.836v6.188a20.519,20.519,0,0,1-.252,2.354c-.163,1.392-.281,2.457-.355,3.183A3.3,3.3,0,0,1,278.3,180.306Z" transform="translate(-134.546 -92.947)" fill="#263238" />
			<path id="Path_391" data-name="Path 391" d="M182.1,150.983a6.558,6.558,0,1,1-6.558-6.543,6.558,6.558,0,0,1,6.558,6.543Z" transform="translate(-122.484 -72.714)" fill="#263238" />
			<path id="Path_392" data-name="Path 392" d="M197.386,150.983a6.558,6.558,0,1,1-6.558-6.543,6.558,6.558,0,0,1,6.558,6.543Z" transform="translate(-115.139 -72.714)" fill="#263238" />
			<path id="Path_393" data-name="Path 393" d="M212.676,150.983a6.558,6.558,0,1,1-6.543-6.543A6.558,6.558,0,0,1,212.676,150.983Z" transform="translate(-107.793 -72.714)" fill="#263238" />
		</g>
	</g>
</svg>
