<svg xmlns="http://www.w3.org/2000/svg" width="29.993" height="27.85" viewBox="0 0 29.993 27.85">
	<path id="Vector" d="M29.24,9.993l-9.3-1.315L15.784.477a.889.889,0,0,0-1.576,0l-4.158,8.2L.752,9.993a.873.873,0,0,0-.709.582.84.84,0,0,0,.222.877l6.728,6.384L5.405,26.851a.845.845,0,0,0,.35.837.9.9,0,0,0,.925.065L15,23.5l8.316,4.256a.9.9,0,0,0,.925-.065.845.845,0,0,0,.35-.837L23,17.836l6.728-6.384a.839.839,0,0,0,.222-.877A.872.872,0,0,0,29.24,9.993Z" transform="translate(0)" fill="#ffca56" />
</svg>
