<svg xmlns="http://www.w3.org/2000/svg" width="579.404" height="618.453" viewBox="0 0 579.404 618.453">
  <g id="Helpful_sign-bro" data-name="Helpful sign-bro" transform="translate(-76.311 -48.953)">
    <g id="freepik--background-simple--inject-3">
      <path id="Path_623" data-name="Path 623" d="M561.989,132.652S496.376,61.334,342.328,75.6s-211.1,81.3-243.909,156.9,21.4,151.195,18.543,186.854S94.14,532.035,184,606.206s190.277,73.315,302.39,34.233c155.474-54.2,87.008-161.18,115.536-199.691s55.628-94.14,35.659-172.59S593.369,165.459,561.989,132.652Z" fill="#0dbdb8"/>
      <path id="Path_624" data-name="Path 624" d="M561.989,132.652S496.376,61.334,342.328,75.6s-211.1,81.3-243.909,156.9,21.4,151.195,18.543,186.854S94.14,532.035,184,606.206s190.277,73.315,302.39,34.233c155.474-54.2,87.008-161.18,115.536-199.691s55.628-94.14,35.659-172.59S593.369,165.459,561.989,132.652Z" fill="#fff" opacity="0.7"/>
    </g>
    <g id="freepik--Plants--inject-3">
      <path id="Path_625" data-name="Path 625" d="M200.747,313.8c0,.086,5.349-5.078,5.634-5.434,3.438-4.279,7.574-14.392,4.279-19.5a7.2,7.2,0,0,0-10.641-1.355c-3.352,2.7-4.279,7.9-4.194,11.953C195.954,304.287,200.747,313.8,200.747,313.8Z" fill="#fff"/>
      <path id="Path_626" data-name="Path 626" d="M109.488,255.89c2.753,3.894,12.024,9.214,12.024,9.229s1.655-7.132,1.712-7.645c.528-5.406-1.626-16.175-7.132-18.543a7.2,7.2,0,0,0-9.628,4.721C105.095,247.689,107.149,252.567,109.488,255.89Z" fill="#fff"/>
      <path id="Path_627" data-name="Path 627" d="M96.622,284.275c3.537,2.853,13.137,5.492,13.893,5.705a129.4,129.4,0,0,0-3.338,16.688c-.442,3.266-.8,6.59-1.113,9.913-.086-1.54-.171-2.853-.2-3.109-.913-5.349-5.834-15.177-11.853-16.032a7.132,7.132,0,0,0-8.03,7.132c-.185,4.279,3.1,8.458,6.233,11.026s11.311,4.978,13.465,5.577c-.1,1.284-.228,2.553-.328,3.837-.485,6.133-.941,12.252-1.569,18.243-.214,2.111-.513,4.179-.8,6.262-.086-1.426-.157-2.525-.185-2.7-.913-5.363-5.834-15.177-11.867-16.047a7.2,7.2,0,0,0-8.016,7.132c-.185,4.279,3.1,8.458,6.219,11.04s10.527,4.736,13.094,5.463c-.357,2.111-.713,4.279-1.155,6.262-.342,1.426-.571,2.739-.984,4.108s-.756,2.71-1.127,4.051c-.813,2.539-1.626,5.178-2.482,7.645-.585,1.726-1.17,3.352-1.754,4.992.242-2.1.628-6.219.628-6.576-.1-5.434-3.466-15.875-9.3-17.644a7.132,7.132,0,0,0-9.029,5.734c-.827,4.279,1.769,8.829,4.479,11.853,2.981,3.323,11.7,7.132,12.837,7.688-.984,2.71-1.954,5.335-2.853,7.8-2,5.163-3.908,9.742-5.591,13.636l3.395,2.054c1.683-4.079,3.594-8.943,5.577-14.421,1.013-2.753,2.025-5.705,3.038-8.758a78.892,78.892,0,0,0,9.157.956c.913,4.507,5.705,12.01,6.333,12.98-2.325,1.726-4.579,3.38-6.747,4.907q-6.419,4.514-11.554,7.859l3.68,2.225c3.024-2.1,6.376-4.493,9.985-7.132,2.354-1.74,4.835-3.651,7.374-5.705.856.8,7.888,7.274,12.138,8.687,3.851,1.284,9.114,1.854,12.652-.571a7.217,7.217,0,0,0,1.712-10.512c-3.937-4.65-14.863-3.594-19.884-1.526-.3.128-3.366,1.811-5.292,2.853,1.027-.827,2.04-1.6,3.1-2.453,2.082-1.669,4.122-3.395,6.319-5.249l3.109-2.853c1.056-.927,2.068-2.025,3.109-3.052,2.382-2.411,4.664-4.978,6.918-7.6,1.426,1.826,6.775,8.23,10.412,10.084s8.729,3.209,12.595,1.355a7.217,7.217,0,0,0,3.295-10.1c-3.181-5.192-14.15-5.805-19.427-4.522-.328.086-4.022,1.426-6.034,2.211,1.341-1.6,2.7-3.181,3.994-4.835,3.766-4.764,7.431-9.728,11.111-14.649,1.127-1.512,2.254-3,3.395-4.493.513.656,6.661,8.4,10.726,10.484,3.609,1.854,8.729,3.209,12.595,1.341a7.132,7.132,0,0,0,3.338-10.184c-3.181-5.192-14.15-5.805-19.427-4.522-.4.1-5.705,2.04-7.032,2.61,2.51-3.295,5.035-6.561,7.645-9.671a129.174,129.174,0,0,1,11.325-11.939c.242.314,6.618,8.43,10.783,10.555,3.609,1.854,8.729,3.209,12.595,1.341a7.132,7.132,0,0,0,3.338-10.184c-3.181-5.192-14.15-5.805-19.427-4.522-.342.086-4.393,1.569-6.29,2.311l-.185-.3a95.026,95.026,0,0,1,13.365-9.756c2.582-1.6,5.149-2.981,7.674-4.279,1.027,1.626,5.834,9.043,9.371,11.411s8.316,4.151,12.367,2.724a7.132,7.132,0,0,0,4.436-9.756c-2.6-5.506-13.422-7.331-18.814-6.633-.285,0-3.224.756-5.363,1.3,1.155-.556,2.325-1.17,3.438-1.683,4.165-1.968,8.1-3.509,11.6-4.835,1.983-.756,3.808-1.426,5.506-1.954,1.854,1.07,9.357,5.306,13.493,5.705s9.3-.157,12.238-3.295a7.217,7.217,0,0,0-.556-10.712c-4.85-3.68-15.291-.314-19.755,2.853-.385.271-5.934,5.149-5.834,5.206h.1c-1.64.513-3.409,1.1-5.335,1.769-3.523,1.255-7.5,2.71-11.725,4.593a125.688,125.688,0,0,0-13.337,6.718,94.3,94.3,0,0,0-13.707,9.542l-.157.143c.956-1.512,3.466-5.82,3.623-6.176,2.2-4.978,3.509-15.875-1.041-19.969a7.132,7.132,0,0,0-10.612,1.426c-2.525,3.495-2.082,8.772-.884,12.652,1.341,4.379,7.916,11.81,8.444,12.4a127.87,127.87,0,0,0-11.982,12.081c-2.2,2.482-4.279,5.049-6.4,7.66.77-1.327,1.426-2.525,1.54-2.71,2.2-4.964,3.509-15.875-1.041-19.969a7.132,7.132,0,0,0-10.612,1.5c-2.525,3.48-2.082,8.758-.9,12.638s6.69,10.384,8.173,12.081c-.8,1-1.6,2-2.382,3.01-3.794,4.85-7.545,9.714-11.411,14.363-1.426,1.626-2.739,3.2-4.122,4.764.685-1.184,1.255-2.182,1.327-2.339,2.2-4.978,3.509-15.875-1.041-19.969A7.2,7.2,0,0,0,128.4,352.94c-2.525,3.48-2.083,8.758-.884,12.638s6.162,9.756,7.9,11.782c-1.426,1.555-2.938,3.124-4.422,4.579-1.041.97-1.983,1.968-3.081,2.853l-3.181,2.767c-2.082,1.669-4.279,3.423-6.29,5.007-1.426,1.113-2.853,2.14-4.279,3.2,1.426-1.626,3.965-4.835,4.151-5.135a28.028,28.028,0,0,0,3.837-13.579,9.029,9.029,0,0,0,.742-1.426,7.2,7.2,0,0,0-4.379-9.785c-5.834-1.712-14.378,5.192-17.43,9.7-.171.271-1.811,3.366-2.853,5.335.414-1.241.827-2.453,1.227-3.737.827-2.553,1.569-5.121,2.382-7.874l1.041-4.079c.371-1.341.6-2.853.913-4.279.642-3.323,1.141-6.718,1.569-10.156,2.239.7,10.2,3.124,14.264,2.667s9.043-2.14,11.254-5.834a7.132,7.132,0,0,0-2.853-10.327c-5.506-2.582-14.991,2.953-18.685,6.946-.242.242-2.567,3.395-3.808,5.163.228-2.068.485-4.136.656-6.233.513-6.062.827-12.21,1.184-18.343.1-1.883.228-3.751.357-5.705.785.271,10.184,3.338,14.72,2.853,4.037-.442,9.057-2.14,11.254-5.834a7.2,7.2,0,0,0-2.853-10.341c-5.52-2.567-15.005,2.967-18.7,6.946-.271.3-3.623,4.85-4.422,6.048.271-4.122.585-8.23,1.041-12.267a126.677,126.677,0,0,1,2.853-16.2c.371.114,10.156,3.366,14.806,2.853,4.037-.442,9.057-2.14,11.254-5.834a7.2,7.2,0,0,0-2.853-10.341c-5.52-2.567-15.005,2.967-18.7,6.946-.242.271-2.853,3.737-3.98,5.406l-.314-.143a93.2,93.2,0,0,1,5.705-15.519c1.269-2.753,2.639-5.32,4.037-7.8,1.754.8,9.856,4.279,14.093,4.279s9.229-1.141,11.825-4.564a7.2,7.2,0,0,0-1.7-10.584c-5.192-3.167-15.234,1.284-19.342,4.85-.228.185-2.282,2.411-3.751,4.037.642-1.1,1.284-2.254,1.926-3.295,2.4-3.937,4.821-7.389,7-10.441,1.255-1.712,2.411-3.252,3.523-4.664,2.14-.128,10.726-.742,14.421-2.653s7.674-5.263,8.387-9.5a7.132,7.132,0,0,0-6.376-8.558c-6.062-.414-12.923,8.173-14.934,13.222-.171.442-2.1,7.574-2,7.574h.128c-1.084,1.426-2.239,2.853-3.466,4.422-2.254,3-4.764,6.4-7.26,10.313a128.948,128.948,0,0,0-7.417,12.951,93.742,93.742,0,0,0-6.162,15.533v.185c0-1.783-.328-6.761-.385-7.132-.913-5.349-5.834-15.177-11.867-16.032a7.2,7.2,0,0,0-8.03,7.132C90.218,277.543,93.5,281.693,96.622,284.275Z" fill="#fff"/>
      <path id="Path_628" data-name="Path 628" d="M109.488,255.89c2.753,3.894,12.024,9.214,12.024,9.229s1.655-7.132,1.712-7.645c.528-5.406-1.626-16.175-7.132-18.543a7.2,7.2,0,0,0-9.628,4.721C105.095,247.689,107.149,252.567,109.488,255.89Z" fill="#fff" opacity="0.3"/>
      <path id="Path_629" data-name="Path 629" d="M200.747,313.8c0,.086,5.349-5.078,5.634-5.434,3.438-4.279,7.574-14.392,4.279-19.5a7.2,7.2,0,0,0-10.641-1.355c-3.352,2.7-4.279,7.9-4.194,11.953C195.954,304.287,200.747,313.8,200.747,313.8Z" fill="#fff" opacity="0.3"/>
      <path id="Path_630" data-name="Path 630" d="M96.622,284.275c3.537,2.853,13.137,5.492,13.893,5.705a129.4,129.4,0,0,0-3.338,16.688c-.442,3.266-.8,6.59-1.113,9.913-.086-1.54-.171-2.853-.2-3.109-.913-5.349-5.834-15.177-11.853-16.032a7.132,7.132,0,0,0-8.03,7.132c-.185,4.279,3.1,8.458,6.233,11.026s11.311,4.978,13.465,5.577c-.1,1.284-.228,2.553-.328,3.837-.485,6.133-.941,12.252-1.569,18.243-.214,2.111-.513,4.179-.8,6.262-.086-1.426-.157-2.525-.185-2.7-.913-5.363-5.834-15.177-11.867-16.047a7.2,7.2,0,0,0-8.016,7.132c-.185,4.279,3.1,8.458,6.219,11.04s10.527,4.736,13.094,5.463c-.357,2.111-.713,4.279-1.155,6.262-.342,1.426-.571,2.739-.984,4.108s-.756,2.71-1.127,4.051c-.813,2.539-1.626,5.178-2.482,7.645-.585,1.726-1.17,3.352-1.754,4.992.242-2.1.628-6.219.628-6.576-.1-5.434-3.466-15.875-9.3-17.644a7.132,7.132,0,0,0-9.029,5.734c-.827,4.279,1.769,8.829,4.479,11.853,2.981,3.323,11.7,7.132,12.837,7.688-.984,2.71-1.954,5.335-2.853,7.8-2,5.163-3.908,9.742-5.591,13.636l3.395,2.054c1.683-4.079,3.594-8.943,5.577-14.421,1.013-2.753,2.025-5.705,3.038-8.758a78.892,78.892,0,0,0,9.157.956c.913,4.507,5.705,12.01,6.333,12.98-2.325,1.726-4.579,3.38-6.747,4.907q-6.419,4.514-11.554,7.859l3.68,2.225c3.024-2.1,6.376-4.493,9.985-7.132,2.354-1.74,4.835-3.651,7.374-5.705.856.8,7.888,7.274,12.138,8.687,3.851,1.284,9.114,1.854,12.652-.571a7.217,7.217,0,0,0,1.712-10.512c-3.937-4.65-14.863-3.594-19.884-1.526-.3.128-3.366,1.811-5.292,2.853,1.027-.827,2.04-1.6,3.1-2.453,2.082-1.669,4.122-3.395,6.319-5.249l3.109-2.853c1.056-.927,2.068-2.025,3.109-3.052,2.382-2.411,4.664-4.978,6.918-7.6,1.426,1.826,6.775,8.23,10.412,10.084s8.729,3.209,12.595,1.355a7.217,7.217,0,0,0,3.295-10.1c-3.181-5.192-14.15-5.805-19.427-4.522-.328.086-4.022,1.426-6.034,2.211,1.341-1.6,2.7-3.181,3.994-4.835,3.766-4.764,7.431-9.728,11.111-14.649,1.127-1.512,2.254-3,3.395-4.493.513.656,6.661,8.4,10.726,10.484,3.609,1.854,8.729,3.209,12.595,1.341a7.132,7.132,0,0,0,3.338-10.184c-3.181-5.192-14.15-5.805-19.427-4.522-.4.1-5.705,2.04-7.032,2.61,2.51-3.295,5.035-6.561,7.645-9.671a129.174,129.174,0,0,1,11.325-11.939c.242.314,6.618,8.43,10.783,10.555,3.609,1.854,8.729,3.209,12.595,1.341a7.132,7.132,0,0,0,3.338-10.184c-3.181-5.192-14.15-5.805-19.427-4.522-.342.086-4.393,1.569-6.29,2.311l-.185-.3a95.026,95.026,0,0,1,13.365-9.756c2.582-1.6,5.149-2.981,7.674-4.279,1.027,1.626,5.834,9.043,9.371,11.411s8.316,4.151,12.367,2.724a7.132,7.132,0,0,0,4.436-9.756c-2.6-5.506-13.422-7.331-18.814-6.633-.285,0-3.224.756-5.363,1.3,1.155-.556,2.325-1.17,3.438-1.683,4.165-1.968,8.1-3.509,11.6-4.835,1.983-.756,3.808-1.426,5.506-1.954,1.854,1.07,9.357,5.306,13.493,5.705s9.3-.157,12.238-3.295a7.217,7.217,0,0,0-.556-10.712c-4.85-3.68-15.291-.314-19.755,2.853-.385.271-5.934,5.149-5.834,5.206h.1c-1.64.513-3.409,1.1-5.335,1.769-3.523,1.255-7.5,2.71-11.725,4.593a125.688,125.688,0,0,0-13.337,6.718,94.3,94.3,0,0,0-13.707,9.542l-.157.143c.956-1.512,3.466-5.82,3.623-6.176,2.2-4.978,3.509-15.875-1.041-19.969a7.132,7.132,0,0,0-10.612,1.426c-2.525,3.495-2.082,8.772-.884,12.652,1.341,4.379,7.916,11.81,8.444,12.4a127.87,127.87,0,0,0-11.982,12.081c-2.2,2.482-4.279,5.049-6.4,7.66.77-1.327,1.426-2.525,1.54-2.71,2.2-4.964,3.509-15.875-1.041-19.969a7.132,7.132,0,0,0-10.612,1.5c-2.525,3.48-2.082,8.758-.9,12.638s6.69,10.384,8.173,12.081c-.8,1-1.6,2-2.382,3.01-3.794,4.85-7.545,9.714-11.411,14.363-1.426,1.626-2.739,3.2-4.122,4.764.685-1.184,1.255-2.182,1.327-2.339,2.2-4.978,3.509-15.875-1.041-19.969A7.2,7.2,0,0,0,128.4,352.94c-2.525,3.48-2.083,8.758-.884,12.638s6.162,9.756,7.9,11.782c-1.426,1.555-2.938,3.124-4.422,4.579-1.041.97-1.983,1.968-3.081,2.853l-3.181,2.767c-2.082,1.669-4.279,3.423-6.29,5.007-1.426,1.113-2.853,2.14-4.279,3.2,1.426-1.626,3.965-4.835,4.151-5.135a28.028,28.028,0,0,0,3.837-13.579,9.029,9.029,0,0,0,.742-1.426,7.2,7.2,0,0,0-4.379-9.785c-5.834-1.712-14.378,5.192-17.43,9.7-.171.271-1.811,3.366-2.853,5.335.414-1.241.827-2.453,1.227-3.737.827-2.553,1.569-5.121,2.382-7.874l1.041-4.079c.371-1.341.6-2.853.913-4.279.642-3.323,1.141-6.718,1.569-10.156,2.239.7,10.2,3.124,14.264,2.667s9.043-2.14,11.254-5.834a7.132,7.132,0,0,0-2.853-10.327c-5.506-2.582-14.991,2.953-18.685,6.946-.242.242-2.567,3.395-3.808,5.163.228-2.068.485-4.136.656-6.233.513-6.062.827-12.21,1.184-18.343.1-1.883.228-3.751.357-5.705.785.271,10.184,3.338,14.72,2.853,4.037-.442,9.057-2.14,11.254-5.834a7.2,7.2,0,0,0-2.853-10.341c-5.52-2.567-15.005,2.967-18.7,6.946-.271.3-3.623,4.85-4.422,6.048.271-4.122.585-8.23,1.041-12.267a126.677,126.677,0,0,1,2.853-16.2c.371.114,10.156,3.366,14.806,2.853,4.037-.442,9.057-2.14,11.254-5.834a7.2,7.2,0,0,0-2.853-10.341c-5.52-2.567-15.005,2.967-18.7,6.946-.242.271-2.853,3.737-3.98,5.406l-.314-.143a93.2,93.2,0,0,1,5.705-15.519c1.269-2.753,2.639-5.32,4.037-7.8,1.754.8,9.856,4.279,14.093,4.279s9.229-1.141,11.825-4.564a7.2,7.2,0,0,0-1.7-10.584c-5.192-3.167-15.234,1.284-19.342,4.85-.228.185-2.282,2.411-3.751,4.037.642-1.1,1.284-2.254,1.926-3.295,2.4-3.937,4.821-7.389,7-10.441,1.255-1.712,2.411-3.252,3.523-4.664,2.14-.128,10.726-.742,14.421-2.653s7.674-5.263,8.387-9.5a7.132,7.132,0,0,0-6.376-8.558c-6.062-.414-12.923,8.173-14.934,13.222-.171.442-2.1,7.574-2,7.574h.128c-1.084,1.426-2.239,2.853-3.466,4.422-2.254,3-4.764,6.4-7.26,10.313a128.948,128.948,0,0,0-7.417,12.951,93.742,93.742,0,0,0-6.162,15.533v.185c0-1.783-.328-6.761-.385-7.132-.913-5.349-5.834-15.177-11.867-16.032a7.2,7.2,0,0,0-8.03,7.132C90.218,277.543,93.5,281.693,96.622,284.275Z" fill="#fff" opacity="0.3"/>
      <path id="Path_631" data-name="Path 631" d="M531.864,309.992c0,.1-5.349-5.078-5.634-5.434-3.438-4.279-7.574-14.392-4.279-19.484a7.2,7.2,0,0,1,10.641-1.426c3.352,2.7,4.279,7.9,4.194,11.967C536.657,300.436,531.864,309.978,531.864,309.992Z" fill="#fff"/>
      <path id="Path_632" data-name="Path 632" d="M623.123,252.025c-2.753,3.894-12.024,9.229-12.024,9.229s-1.655-7.132-1.712-7.645c-.528-5.406,1.626-16.175,7.132-18.543a7.217,7.217,0,0,1,9.628,4.736C627.516,243.909,625.462,248.716,623.123,252.025Z" fill="#fff"/>
      <path id="Path_633" data-name="Path 633" d="M635.989,280.424c-3.537,2.853-13.137,5.477-13.893,5.705a129.411,129.411,0,0,1,3.338,16.688c.442,3.281.8,6.59,1.113,9.985.086-1.54.171-2.924.2-3.109.913-5.363,5.834-15.177,11.853-16.047a7.2,7.2,0,0,1,8.03,7.132c.185,4.279-3.1,8.458-6.219,11.04s-11.325,4.978-13.479,5.563c.1,1.284.228,2.553.328,3.837.485,6.133.941,12.252,1.569,18.243.214,2.111.513,4.194.8,6.262.086-1.426.157-2.525.185-2.7.913-5.349,5.834-15.177,11.867-16.032a7.2,7.2,0,0,1,8.03,7.132c.171,4.279-3.109,8.444-6.233,11.026s-10.527,4.75-13.094,5.463c.357,2.111.713,4.279,1.155,6.262.342,1.426.571,2.739.984,4.108s.756,2.71,1.127,4.051c.813,2.553,1.626,5.178,2.482,7.645.585,1.726,1.17,3.352,1.754,4.992-.242-2.1-.628-6.219-.628-6.561.1-5.434,3.466-15.89,9.3-17.658a7.132,7.132,0,0,1,9,5.805c.827,4.279-1.769,8.829-4.479,11.853-2.981,3.338-11.7,7.217-12.837,7.688.984,2.71,1.954,5.349,2.924,7.816,2,5.149,3.908,9.728,5.591,13.622l-3.352,2c-1.683-4.094-3.594-8.943-5.577-14.435-1-2.739-2.025-5.705-3.038-8.758a77.709,77.709,0,0,1-9.157.97c-.913,4.493-5.705,12.01-6.333,12.966,2.325,1.726,4.593,3.38,6.747,4.907,4.279,3.01,8.13,5.705,11.554,7.859l-3.68,2.2c-3.024-2.1-6.376-4.479-9.985-7.132-2.354-1.74-4.835-3.651-7.374-5.634-.856.8-7.888,7.289-12.138,8.7-3.851,1.284-9.115,1.854-12.652-.585a7.132,7.132,0,0,1-1.754-10.569c3.937-4.65,14.863-3.609,19.884-1.526.3.114,3.366,1.8,5.292,2.853-1.027-.813-2.04-1.6-3.1-2.453-2.082-1.669-4.122-3.395-6.319-5.249l-3.109-2.853c-1.056-.913-2.068-2.025-3.109-3.038-2.382-2.425-4.664-4.978-6.918-7.617-1.426,1.826-6.775,8.23-10.412,10.1s-8.729,3.209-12.595,1.341a7.132,7.132,0,0,1-3.338-10.184c3.181-5.192,14.15-5.82,19.427-4.522.328,0,4.022,1.426,6.034,2.2-1.341-1.583-2.7-3.167-3.994-4.821-3.766-4.778-7.431-9.728-11.111-14.649-1.127-1.512-2.254-3.01-3.395-4.507-.513.656-6.661,8.4-10.726,10.5-3.609,1.854-8.729,3.209-12.595,1.341a7.2,7.2,0,0,1-3.338-10.2c3.181-5.178,14.15-5.805,19.427-4.522.4.1,5.705,2.054,7.032,2.61-2.51-3.295-5.035-6.547-7.645-9.657a127.386,127.386,0,0,0-11.325-11.939c-.242.3-6.618,8.416-10.783,10.555-3.609,1.854-8.729,3.209-12.595,1.341a7.132,7.132,0,0,1-3.338-10.184c3.181-5.192,14.15-5.82,19.427-4.536.357.086,4.393,1.569,6.29,2.325l.185-.3a91.285,91.285,0,0,0-13.365-9.756c-2.582-1.6-5.149-2.981-7.674-4.279-1.027,1.626-5.834,9.043-9.371,11.411s-8.316,4.151-12.367,2.71a7.132,7.132,0,0,1-4.436-9.756c2.6-5.506,13.422-7.332,18.814-6.633.285,0,3.224.756,5.363,1.312-1.155-.571-2.325-1.17-3.438-1.7-4.165-1.954-8.1-3.495-11.6-4.835-1.983-.742-3.808-1.426-5.506-1.954-1.854,1.07-9.357,5.306-13.493,5.705s-9.3-.157-12.238-3.295a7.132,7.132,0,0,1,.556-10.7c4.85-3.694,15.291-.328,19.755,2.781.385.271,5.934,5.163,5.834,5.221h-.1c1.64.528,3.409,1.1,5.335,1.769,3.523,1.269,7.5,2.724,11.725,4.607a126.938,126.938,0,0,1,13.351,6.7A93.986,93.986,0,0,1,554.115,324l.157.128c-.956-1.512-3.466-5.82-3.623-6.162-2.2-4.978-3.509-15.875,1.041-19.969a7.2,7.2,0,0,1,10.612,1.5c2.525,3.48,2.083,8.758.9,12.638-1.426,4.379-7.931,11.81-8.458,12.409a127.828,127.828,0,0,1,12,12.067c2.182,2.5,4.279,5.064,6.39,7.674-.77-1.341-1.426-2.539-1.54-2.71-2.2-4.978-3.509-15.875,1.041-19.969a7.132,7.132,0,0,1,10.612,1.426c2.525,3.48,2.082,8.758.9,12.638s-6.69,10.4-8.173,12.081c.8,1.013,1.6,2.011,2.382,3.024,3.794,4.85,7.545,9.7,11.411,14.349,1.355,1.64,2.739,3.209,4.122,4.778-.685-1.184-1.255-2.2-1.327-2.354-2.2-4.978-3.509-15.875,1.041-19.969A7.132,7.132,0,0,1,604.21,349c2.525,3.495,2.083,8.758.884,12.652s-6.148,9.756-7.9,11.768c1.426,1.569,2.938,3.138,4.436,4.593,1.041.956,1.968,1.968,3.067,2.853l3.181,2.753c2.082,1.683,4.279,3.423,6.29,5.007,1.426,1.113,2.853,2.154,4.279,3.2-1.426-1.612-3.965-4.835-4.151-5.135a27.986,27.986,0,0,1-3.837-13.579,8.882,8.882,0,0,1-.742-1.426,7.217,7.217,0,0,1,4.379-9.8c5.848-1.7,14.378,5.206,17.43,9.7.185.271,1.811,3.366,2.853,5.349-.414-1.255-.827-2.468-1.227-3.751-.827-2.553-1.569-5.106-2.382-7.874-.342-1.341-.685-2.7-1.041-4.065s-.6-2.853-.913-4.279c-.642-3.323-1.141-6.718-1.569-10.156-2.239.713-10.2,3.124-14.264,2.682s-9.043-2.14-11.254-5.834a7.217,7.217,0,0,1,2.853-10.341c5.506-2.567,14.991,2.953,18.7,6.946.228.242,2.553,3.409,3.794,5.163-.228-2.068-.485-4.122-.656-6.233-.513-6.062-.827-12.21-1.184-18.343-.1-1.883-.228-3.751-.357-5.62-.784.257-10.184,3.338-14.72,2.853-4.037-.442-9.057-2.14-11.254-5.82a7.132,7.132,0,0,1,2.853-10.341c5.52-2.567,15.005,2.953,18.7,6.946.271.3,3.623,4.85,4.422,6.048-.271-4.122-.585-8.244-1.041-12.281a126.673,126.673,0,0,0-2.853-16.2c-.371.128-10.156,3.38-14.806,2.853-4.037-.456-9.057-2.14-11.254-5.834a7.132,7.132,0,0,1,2.853-10.341c5.52-2.567,15.005,2.953,18.7,6.946.242.257,2.853,3.723,3.98,5.406l.314-.157a93.047,93.047,0,0,0-5.777-15.5c-1.269-2.767-2.639-5.335-4.037-7.8-1.754.784-9.856,4.279-14.093,4.279s-9.229-1.127-11.825-4.564a7.2,7.2,0,0,1,1.7-10.584c5.192-3.167,15.234,1.3,19.341,4.85.228.2,2.282,2.411,3.751,4.051-.642-1.113-1.284-2.254-1.926-3.309-2.4-3.937-4.821-7.389-7-10.427-1.241-1.726-2.411-3.252-3.523-4.678-2.14-.114-10.726-.727-14.421-2.653s-7.674-5.249-8.387-9.485a7.2,7.2,0,0,1,6.376-8.63c6.076-.4,12.923,8.173,14.934,13.222.171.442,2.1,7.574,2,7.574h-.228c1.084,1.341,2.239,2.853,3.466,4.407,2.254,3.01,4.764,6.419,7.26,10.313a130.575,130.575,0,0,1,7.417,12.951,94.242,94.242,0,0,1,6.1,15.961v.2c0-1.783.328-6.775.385-7.132.913-5.363,5.834-15.177,11.867-16.047a7.217,7.217,0,0,1,8.03,7.132C642.393,273.677,639.127,277.842,635.989,280.424Z" fill="#fff"/>
      <path id="Path_634" data-name="Path 634" d="M623.123,252.025c-2.753,3.894-12.024,9.229-12.024,9.229s-1.655-7.132-1.712-7.645c-.528-5.406,1.626-16.175,7.132-18.543a7.217,7.217,0,0,1,9.628,4.736C627.516,243.909,625.462,248.716,623.123,252.025Z" fill="#fff" opacity="0.3"/>
      <path id="Path_635" data-name="Path 635" d="M531.864,309.992c0,.1-5.349-5.078-5.634-5.434-3.438-4.279-7.574-14.392-4.279-19.484a7.2,7.2,0,0,1,10.641-1.426c3.352,2.7,4.279,7.9,4.194,11.967C536.657,300.436,531.864,309.978,531.864,309.992Z" fill="#fff" opacity="0.3"/>
      <path id="Path_636" data-name="Path 636" d="M635.989,280.424c-3.537,2.853-13.137,5.477-13.893,5.705a129.411,129.411,0,0,1,3.338,16.688c.442,3.281.8,6.59,1.113,9.985.086-1.54.171-2.924.2-3.109.913-5.363,5.834-15.177,11.853-16.047a7.2,7.2,0,0,1,8.03,7.132c.185,4.279-3.1,8.458-6.219,11.04s-11.325,4.978-13.479,5.563c.1,1.284.228,2.553.328,3.837.485,6.133.941,12.252,1.569,18.243.214,2.111.513,4.194.8,6.262.086-1.426.157-2.525.185-2.7.913-5.349,5.834-15.177,11.867-16.032a7.2,7.2,0,0,1,8.03,7.132c.171,4.279-3.109,8.444-6.233,11.026s-10.527,4.75-13.094,5.463c.357,2.111.713,4.279,1.155,6.262.342,1.426.571,2.739.984,4.108s.756,2.71,1.127,4.051c.813,2.553,1.626,5.178,2.482,7.645.585,1.726,1.17,3.352,1.754,4.992-.242-2.1-.628-6.219-.628-6.561.1-5.434,3.466-15.89,9.3-17.658a7.132,7.132,0,0,1,9,5.805c.827,4.279-1.769,8.829-4.479,11.853-2.981,3.338-11.7,7.217-12.837,7.688.984,2.71,1.954,5.349,2.924,7.816,2,5.149,3.908,9.728,5.591,13.622l-3.352,2c-1.683-4.094-3.594-8.943-5.577-14.435-1-2.739-2.025-5.705-3.038-8.758a77.709,77.709,0,0,1-9.157.97c-.913,4.493-5.705,12.01-6.333,12.966,2.325,1.726,4.593,3.38,6.747,4.907,4.279,3.01,8.13,5.705,11.554,7.859l-3.68,2.2c-3.024-2.1-6.376-4.479-9.985-7.132-2.354-1.74-4.835-3.651-7.374-5.634-.856.8-7.888,7.289-12.138,8.7-3.851,1.284-9.115,1.854-12.652-.585a7.132,7.132,0,0,1-1.754-10.569c3.937-4.65,14.863-3.609,19.884-1.526.3.114,3.366,1.8,5.292,2.853-1.027-.813-2.04-1.6-3.1-2.453-2.082-1.669-4.122-3.395-6.319-5.249l-3.109-2.853c-1.056-.913-2.068-2.025-3.109-3.038-2.382-2.425-4.664-4.978-6.918-7.617-1.426,1.826-6.775,8.23-10.412,10.1s-8.729,3.209-12.595,1.341a7.132,7.132,0,0,1-3.338-10.184c3.181-5.192,14.15-5.82,19.427-4.522.328,0,4.022,1.426,6.034,2.2-1.341-1.583-2.7-3.167-3.994-4.821-3.766-4.778-7.431-9.728-11.111-14.649-1.127-1.512-2.254-3.01-3.395-4.507-.513.656-6.661,8.4-10.726,10.5-3.609,1.854-8.729,3.209-12.595,1.341a7.2,7.2,0,0,1-3.338-10.2c3.181-5.178,14.15-5.805,19.427-4.522.4.1,5.705,2.054,7.032,2.61-2.51-3.295-5.035-6.547-7.645-9.657a127.386,127.386,0,0,0-11.325-11.939c-.242.3-6.618,8.416-10.783,10.555-3.609,1.854-8.729,3.209-12.595,1.341a7.132,7.132,0,0,1-3.338-10.184c3.181-5.192,14.15-5.82,19.427-4.536.357.086,4.393,1.569,6.29,2.325l.185-.3a91.285,91.285,0,0,0-13.365-9.756c-2.582-1.6-5.149-2.981-7.674-4.279-1.027,1.626-5.834,9.043-9.371,11.411s-8.316,4.151-12.367,2.71a7.132,7.132,0,0,1-4.436-9.756c2.6-5.506,13.422-7.332,18.814-6.633.285,0,3.224.756,5.363,1.312-1.155-.571-2.325-1.17-3.438-1.7-4.165-1.954-8.1-3.495-11.6-4.835-1.983-.742-3.808-1.426-5.506-1.954-1.854,1.07-9.357,5.306-13.493,5.705s-9.3-.157-12.238-3.295a7.132,7.132,0,0,1,.556-10.7c4.85-3.694,15.291-.328,19.755,2.781.385.271,5.934,5.163,5.834,5.221h-.1c1.64.528,3.409,1.1,5.335,1.769,3.523,1.269,7.5,2.724,11.725,4.607a126.938,126.938,0,0,1,13.351,6.7A93.986,93.986,0,0,1,554.115,324l.157.128c-.956-1.512-3.466-5.82-3.623-6.162-2.2-4.978-3.509-15.875,1.041-19.969a7.2,7.2,0,0,1,10.612,1.5c2.525,3.48,2.083,8.758.9,12.638-1.426,4.379-7.931,11.81-8.458,12.409a127.828,127.828,0,0,1,12,12.067c2.182,2.5,4.279,5.064,6.39,7.674-.77-1.341-1.426-2.539-1.54-2.71-2.2-4.978-3.509-15.875,1.041-19.969a7.132,7.132,0,0,1,10.612,1.426c2.525,3.48,2.082,8.758.9,12.638s-6.69,10.4-8.173,12.081c.8,1.013,1.6,2.011,2.382,3.024,3.794,4.85,7.545,9.7,11.411,14.349,1.355,1.64,2.739,3.209,4.122,4.778-.685-1.184-1.255-2.2-1.327-2.354-2.2-4.978-3.509-15.875,1.041-19.969A7.132,7.132,0,0,1,604.21,349c2.525,3.495,2.083,8.758.884,12.652s-6.148,9.756-7.9,11.768c1.426,1.569,2.938,3.138,4.436,4.593,1.041.956,1.968,1.968,3.067,2.853l3.181,2.753c2.082,1.683,4.279,3.423,6.29,5.007,1.426,1.113,2.853,2.154,4.279,3.2-1.426-1.612-3.965-4.835-4.151-5.135a27.986,27.986,0,0,1-3.837-13.579,8.882,8.882,0,0,1-.742-1.426,7.217,7.217,0,0,1,4.379-9.8c5.848-1.7,14.378,5.206,17.43,9.7.185.271,1.811,3.366,2.853,5.349-.414-1.255-.827-2.468-1.227-3.751-.827-2.553-1.569-5.106-2.382-7.874-.342-1.341-.685-2.7-1.041-4.065s-.6-2.853-.913-4.279c-.642-3.323-1.141-6.718-1.569-10.156-2.239.713-10.2,3.124-14.264,2.682s-9.043-2.14-11.254-5.834a7.217,7.217,0,0,1,2.853-10.341c5.506-2.567,14.991,2.953,18.7,6.946.228.242,2.553,3.409,3.794,5.163-.228-2.068-.485-4.122-.656-6.233-.513-6.062-.827-12.21-1.184-18.343-.1-1.883-.228-3.751-.357-5.62-.784.257-10.184,3.338-14.72,2.853-4.037-.442-9.057-2.14-11.254-5.82a7.132,7.132,0,0,1,2.853-10.341c5.52-2.567,15.005,2.953,18.7,6.946.271.3,3.623,4.85,4.422,6.048-.271-4.122-.585-8.244-1.041-12.281a126.673,126.673,0,0,0-2.853-16.2c-.371.128-10.156,3.38-14.806,2.853-4.037-.456-9.057-2.14-11.254-5.834a7.132,7.132,0,0,1,2.853-10.341c5.52-2.567,15.005,2.953,18.7,6.946.242.257,2.853,3.723,3.98,5.406l.314-.157a93.047,93.047,0,0,0-5.777-15.5c-1.269-2.767-2.639-5.335-4.037-7.8-1.754.784-9.856,4.279-14.093,4.279s-9.229-1.127-11.825-4.564a7.2,7.2,0,0,1,1.7-10.584c5.192-3.167,15.234,1.3,19.341,4.85.228.2,2.282,2.411,3.751,4.051-.642-1.113-1.284-2.254-1.926-3.309-2.4-3.937-4.821-7.389-7-10.427-1.241-1.726-2.411-3.252-3.523-4.678-2.14-.114-10.726-.727-14.421-2.653s-7.674-5.249-8.387-9.485a7.2,7.2,0,0,1,6.376-8.63c6.076-.4,12.923,8.173,14.934,13.222.171.442,2.1,7.574,2,7.574h-.228c1.084,1.341,2.239,2.853,3.466,4.407,2.254,3.01,4.764,6.419,7.26,10.313a130.575,130.575,0,0,1,7.417,12.951,94.242,94.242,0,0,1,6.1,15.961v.2c0-1.783.328-6.775.385-7.132.913-5.363,5.834-15.177,11.867-16.047a7.217,7.217,0,0,1,8.03,7.132C642.393,273.677,639.127,277.842,635.989,280.424Z" fill="#fff" opacity="0.3"/>
      <path id="Path_637" data-name="Path 637" d="M474.367,547.839c0,.071-4.279-4.094-4.55-4.393-2.767-3.409-6.119-11.611-3.438-15.69a5.82,5.82,0,0,1,8.558-1.1c2.7,2.182,3.48,6.376,3.38,9.656C478.233,540.108,474.367,547.825,474.367,547.839Z" fill="#fff"/>
      <path id="Path_638" data-name="Path 638" d="M548.025,501.054c-2.225,3.138-9.7,7.431-9.7,7.446s-1.341-5.791-1.426-6.176c-.428-4.365,1.312-13.051,5.82-15.02a5.82,5.82,0,0,1,7.759,3.823C551.576,494.436,549.922,498.373,548.025,501.054Z" fill="#fff"/>
      <path id="Path_639" data-name="Path 639" d="M558.409,523.962c-2.853,2.353-10.6,4.422-11.211,4.593a101.286,101.286,0,0,1,2.7,13.465c.357,2.653.642,5.32.9,8.016.071-1.255.143-2.368.157-2.51.742-4.279,4.721-12.253,9.585-12.951a5.82,5.82,0,0,1,6.476,5.705c.143,3.466-2.5,6.818-5.035,8.9s-9.129,4.022-10.869,4.507c.086,1.027.185,2.054.257,3.081.4,4.95.756,9.9,1.269,14.734.185,1.712.414,3.38.656,5.049a15.417,15.417,0,0,1,.143-2.168c.742-4.279,4.707-12.253,9.571-12.951a5.805,5.805,0,0,1,6.476,5.706c.157,3.466-2.5,6.818-5.021,8.9s-8.558,3.837-10.569,4.407c.3,1.712.585,3.423.941,5.064.271,1.113.456,2.211.784,3.309s.613,2.2.913,3.266c.656,2.068,1.312,4.194,2.011,6.176.471,1.426.941,2.71,1.426,4.037-.2-1.7-.513-5.021-.513-5.306.086-4.393,2.853-12.837,7.5-14.264a5.82,5.82,0,0,1,7.274,4.693c.67,3.395-1.426,7.132-3.623,9.557-2.4,2.7-9.443,5.82-10.327,6.2.8,2.2,1.583,4.279,2.368,6.3,1.612,4.165,3.152,7.859,4.522,11.012l-2.753,1.655c-1.355-3.295-2.853-7.217-4.493-11.639q-1.22-3.338-2.468-7.132a62.745,62.745,0,0,1-7.374.785c-.742,3.623-4.607,9.685-5.121,10.469,1.869,1.426,3.709,2.724,5.449,3.951,3.423,2.439,6.561,4.55,9.314,6.347l-2.953,1.8c-2.453-1.7-5.163-3.623-8.073-5.777-1.9-1.426-3.908-2.953-5.948-4.55-.685.642-6.362,5.877-9.785,7.018-3.109,1.041-7.36,1.426-10.227-.471a5.82,5.82,0,0,1-1.426-8.558c3.181-3.751,12-2.853,16.047-1.241.242.1,2.724,1.426,4.279,2.354l-2.468-1.826c-1.683-1.341-3.338-2.739-5.106-4.279l-2.51-2.282c-.856-.742-1.669-1.64-2.51-2.453-1.926-1.954-3.766-4.022-5.591-6.148-1.184,1.426-5.463,6.647-8.387,8.145s-7.046,2.6-10.184,1.084a5.805,5.805,0,0,1-2.682-8.216c2.567-4.194,11.411-4.693,15.69-3.652.271,0,3.238,1.155,4.864,1.783-1.084-1.284-2.168-2.567-3.224-3.908-3.038-3.851-5.991-7.845-8.958-11.825l-2.781-3.58c-.428.528-5.377,6.775-8.658,8.458-2.924,1.5-7.046,2.6-10.17,1.084a5.805,5.805,0,0,1-2.7-8.216c2.567-4.193,11.411-4.693,15.69-3.651.328.071,4.607,1.655,5.705,2.1-2.025-2.653-4.051-5.278-6.176-7.788a101.559,101.559,0,0,0-9.129-9.642c-.2.243-5.349,6.79-8.7,8.558-2.924,1.5-7.046,2.6-10.17,1.084a5.805,5.805,0,0,1-2.7-8.216c2.567-4.194,11.411-4.693,15.69-3.652.285.071,3.552,1.255,5.078,1.869l.157-.242a74.942,74.942,0,0,0-10.8-7.873c-2.082-1.3-4.151-2.411-6.19-3.452-.827,1.312-4.707,7.3-7.56,9.186s-6.718,3.352-9.985,2.2a5.82,5.82,0,0,1-3.58-7.888c2.1-4.436,10.826-5.905,15.177-5.349.243,0,2.61.613,4.279,1.056-.927-.456-1.869-.941-2.767-1.426-3.366-1.583-6.547-2.853-9.357-3.908-1.612-.6-3.081-1.113-4.465-1.569-1.426.87-7.546,4.279-10.883,4.636s-7.5-.128-9.885-2.653a5.834,5.834,0,0,1,.456-8.644c3.908-2.981,12.338-.257,15.947,2.254.314.214,4.793,4.165,4.707,4.208h-.086c1.341.428,2.767.9,4.279,1.426,2.853,1.027,6.062,2.2,9.471,3.723a102.931,102.931,0,0,1,10.769,5.42,75.949,75.949,0,0,1,11.069,7.7l.114.114c-.77-1.227-2.853-4.693-2.924-4.978-1.769-4.022-2.853-12.837.842-16.089A5.82,5.82,0,0,1,498.9,539.4c2.025,2.853,1.669,7.132.713,10.2-1.084,3.537-6.39,9.542-6.818,9.985a102.489,102.489,0,0,1,9.671,9.756c1.769,2,3.48,4.079,5.163,6.176-.628-1.07-1.184-2.04-1.241-2.182-1.769-4.022-2.853-12.837.842-16.075a5.82,5.82,0,0,1,8.558,1.2c2.025,2.853,1.683,7.132.713,10.213s-5.406,8.387-6.59,9.742l1.926,2.439c3.052,3.908,6.091,7.831,9.186,11.582,1.084,1.327,2.211,2.582,3.323,3.851-.556-.956-1.013-1.754-1.07-1.883-1.769-4.022-2.853-12.837.842-16.089a5.82,5.82,0,0,1,8.558,1.212c2.025,2.853,1.669,7.132.713,10.2s-4.978,7.874-6.376,9.5c1.184,1.269,2.368,2.539,3.566,3.709.842.784,1.6,1.6,2.482,2.325l2.567,2.225c1.683,1.355,3.409,2.767,5.078,4.051,1.155.9,2.282,1.726,3.409,2.567-1.1-1.3-3.209-3.894-3.352-4.136a22.48,22.48,0,0,1-3.024-10.883,6.048,6.048,0,0,1,2.924-9.043c4.721-1.426,11.611,4.194,14.078,7.831.143.214,1.426,2.71,2.268,4.279-.342-1.013-.67-1.983-1-3.024-.656-2.054-1.255-4.122-1.911-6.347-.271-1.084-.556-2.182-.842-3.295s-.485-2.282-.742-3.423c-.513-2.7-.927-5.434-1.27-8.216-1.8.585-8.216,2.525-11.5,2.168s-7.3-1.726-9.072-4.707a5.805,5.805,0,0,1,2.282-8.344c4.45-2.082,12.11,2.382,15.091,5.606.185.2,2.068,2.753,3.081,4.165-.2-1.669-.4-3.323-.542-5.021-.4-4.892-.67-9.856-.941-14.806-.086-1.526-.2-3.038-.3-4.55-.628.214-8.216,2.7-11.882,2.3-3.252-.371-7.3-1.726-9.086-4.707a5.805,5.805,0,0,1,2.3-8.344c4.45-2.083,12.11,2.382,15.091,5.606.228.242,2.924,3.908,3.566,4.878-.214-3.338-.456-6.647-.842-9.913a100.46,100.46,0,0,0-2.311-13.08c-.285.1-8.2,2.724-11.953,2.311-3.252-.357-7.3-1.726-9.072-4.707a5.805,5.805,0,0,1,2.282-8.344c4.465-2.068,12.11,2.382,15.091,5.606.2.214,2.268,3.01,3.209,4.365L546,528.2a74.175,74.175,0,0,0-4.65-12.524c-1.027-2.239-2.14-4.279-3.266-6.3-1.426.642-7.945,3.495-11.411,3.495s-7.46-.913-9.542-3.68a5.805,5.805,0,0,1,1.355-8.558c4.279-2.553,12.3,1.041,15.69,3.908.185.157,1.84,1.954,3.024,3.266-.513-.884-1.041-1.826-1.555-2.667-1.926-3.167-3.894-5.962-5.705-8.416-1.013-1.426-1.954-2.625-2.853-3.78-1.726-.1-8.672-.585-11.653-2.125s-6.19-4.279-6.761-7.674a5.82,5.82,0,0,1,5.135-6.961c4.907-.328,10.441,6.6,12.067,10.684.128.342,1.7,6.1,1.612,6.1h-.114c.884,1.084,1.812,2.254,2.853,3.566,1.811,2.411,3.851,5.163,5.848,8.316a103.846,103.846,0,0,1,5.991,10.455,76.043,76.043,0,0,1,4.978,12.538V528c0-1.426.257-5.463.3-5.705.742-4.279,4.707-12.253,9.571-12.951a5.82,5.82,0,0,1,6.49,5.705C563.586,518.527,560.948,521.879,558.409,523.962Z" fill="#fff"/>
      <path id="Path_640" data-name="Path 640" d="M548.025,501.054c-2.225,3.138-9.7,7.431-9.7,7.446s-1.341-5.791-1.426-6.176c-.428-4.365,1.312-13.051,5.82-15.02a5.82,5.82,0,0,1,7.759,3.823C551.576,494.436,549.922,498.373,548.025,501.054Z" fill="#fff" opacity="0.3"/>
      <path id="Path_641" data-name="Path 641" d="M474.367,547.839c0,.071-4.279-4.094-4.55-4.393-2.767-3.409-6.119-11.611-3.438-15.69a5.82,5.82,0,0,1,8.558-1.1c2.7,2.182,3.48,6.376,3.38,9.656C478.233,540.108,474.367,547.825,474.367,547.839Z" fill="#fff" opacity="0.3"/>
      <path id="Path_642" data-name="Path 642" d="M558.409,523.962c-2.853,2.353-10.6,4.422-11.211,4.593a101.286,101.286,0,0,1,2.7,13.465c.357,2.653.642,5.32.9,8.016.071-1.255.143-2.368.157-2.51.742-4.279,4.721-12.253,9.585-12.951a5.82,5.82,0,0,1,6.476,5.705c.143,3.466-2.5,6.818-5.035,8.9s-9.129,4.022-10.869,4.507c.086,1.027.185,2.054.257,3.081.4,4.95.756,9.9,1.269,14.734.185,1.712.414,3.38.656,5.049a15.417,15.417,0,0,1,.143-2.168c.742-4.279,4.707-12.253,9.571-12.951a5.805,5.805,0,0,1,6.476,5.706c.157,3.466-2.5,6.818-5.021,8.9s-8.558,3.837-10.569,4.407c.3,1.712.585,3.423.941,5.064.271,1.113.456,2.211.784,3.309s.613,2.2.913,3.266c.656,2.068,1.312,4.194,2.011,6.176.471,1.426.941,2.71,1.426,4.037-.2-1.7-.513-5.021-.513-5.306.086-4.393,2.853-12.837,7.5-14.264a5.82,5.82,0,0,1,7.274,4.693c.67,3.395-1.426,7.132-3.623,9.557-2.4,2.7-9.443,5.82-10.327,6.2.8,2.2,1.583,4.279,2.368,6.3,1.612,4.165,3.152,7.859,4.522,11.012l-2.753,1.655c-1.355-3.295-2.853-7.217-4.493-11.639q-1.22-3.338-2.468-7.132a62.745,62.745,0,0,1-7.374.785c-.742,3.623-4.607,9.685-5.121,10.469,1.869,1.426,3.709,2.724,5.449,3.951,3.423,2.439,6.561,4.55,9.314,6.347l-2.953,1.8c-2.453-1.7-5.163-3.623-8.073-5.777-1.9-1.426-3.908-2.953-5.948-4.55-.685.642-6.362,5.877-9.785,7.018-3.109,1.041-7.36,1.426-10.227-.471a5.82,5.82,0,0,1-1.426-8.558c3.181-3.751,12-2.853,16.047-1.241.242.1,2.724,1.426,4.279,2.354l-2.468-1.826c-1.683-1.341-3.338-2.739-5.106-4.279l-2.51-2.282c-.856-.742-1.669-1.64-2.51-2.453-1.926-1.954-3.766-4.022-5.591-6.148-1.184,1.426-5.463,6.647-8.387,8.145s-7.046,2.6-10.184,1.084a5.805,5.805,0,0,1-2.682-8.216c2.567-4.194,11.411-4.693,15.69-3.652.271,0,3.238,1.155,4.864,1.783-1.084-1.284-2.168-2.567-3.224-3.908-3.038-3.851-5.991-7.845-8.958-11.825l-2.781-3.58c-.428.528-5.377,6.775-8.658,8.458-2.924,1.5-7.046,2.6-10.17,1.084a5.805,5.805,0,0,1-2.7-8.216c2.567-4.193,11.411-4.693,15.69-3.651.328.071,4.607,1.655,5.705,2.1-2.025-2.653-4.051-5.278-6.176-7.788a101.559,101.559,0,0,0-9.129-9.642c-.2.243-5.349,6.79-8.7,8.558-2.924,1.5-7.046,2.6-10.17,1.084a5.805,5.805,0,0,1-2.7-8.216c2.567-4.194,11.411-4.693,15.69-3.652.285.071,3.552,1.255,5.078,1.869l.157-.242a74.942,74.942,0,0,0-10.8-7.873c-2.082-1.3-4.151-2.411-6.19-3.452-.827,1.312-4.707,7.3-7.56,9.186s-6.718,3.352-9.985,2.2a5.82,5.82,0,0,1-3.58-7.888c2.1-4.436,10.826-5.905,15.177-5.349.243,0,2.61.613,4.279,1.056-.927-.456-1.869-.941-2.767-1.426-3.366-1.583-6.547-2.853-9.357-3.908-1.612-.6-3.081-1.113-4.465-1.569-1.426.87-7.546,4.279-10.883,4.636s-7.5-.128-9.885-2.653a5.834,5.834,0,0,1,.456-8.644c3.908-2.981,12.338-.257,15.947,2.254.314.214,4.793,4.165,4.707,4.208h-.086c1.341.428,2.767.9,4.279,1.426,2.853,1.027,6.062,2.2,9.471,3.723a102.931,102.931,0,0,1,10.769,5.42,75.949,75.949,0,0,1,11.069,7.7l.114.114c-.77-1.227-2.853-4.693-2.924-4.978-1.769-4.022-2.853-12.837.842-16.089A5.82,5.82,0,0,1,498.9,539.4c2.025,2.853,1.669,7.132.713,10.2-1.084,3.537-6.39,9.542-6.818,9.985a102.489,102.489,0,0,1,9.671,9.756c1.769,2,3.48,4.079,5.163,6.176-.628-1.07-1.184-2.04-1.241-2.182-1.769-4.022-2.853-12.837.842-16.075a5.82,5.82,0,0,1,8.558,1.2c2.025,2.853,1.683,7.132.713,10.213s-5.406,8.387-6.59,9.742l1.926,2.439c3.052,3.908,6.091,7.831,9.186,11.582,1.084,1.327,2.211,2.582,3.323,3.851-.556-.956-1.013-1.754-1.07-1.883-1.769-4.022-2.853-12.837.842-16.089a5.82,5.82,0,0,1,8.558,1.212c2.025,2.853,1.669,7.132.713,10.2s-4.978,7.874-6.376,9.5c1.184,1.269,2.368,2.539,3.566,3.709.842.784,1.6,1.6,2.482,2.325l2.567,2.225c1.683,1.355,3.409,2.767,5.078,4.051,1.155.9,2.282,1.726,3.409,2.567-1.1-1.3-3.209-3.894-3.352-4.136a22.48,22.48,0,0,1-3.024-10.883,6.048,6.048,0,0,1,2.924-9.043c4.721-1.426,11.611,4.194,14.078,7.831.143.214,1.426,2.71,2.268,4.279-.342-1.013-.67-1.983-1-3.024-.656-2.054-1.255-4.122-1.911-6.347-.271-1.084-.556-2.182-.842-3.295s-.485-2.282-.742-3.423c-.513-2.7-.927-5.434-1.27-8.216-1.8.585-8.216,2.525-11.5,2.168s-7.3-1.726-9.072-4.707a5.805,5.805,0,0,1,2.282-8.344c4.45-2.082,12.11,2.382,15.091,5.606.185.2,2.068,2.753,3.081,4.165-.2-1.669-.4-3.323-.542-5.021-.4-4.892-.67-9.856-.941-14.806-.086-1.526-.2-3.038-.3-4.55-.628.214-8.216,2.7-11.882,2.3-3.252-.371-7.3-1.726-9.086-4.707a5.805,5.805,0,0,1,2.3-8.344c4.45-2.083,12.11,2.382,15.091,5.606.228.242,2.924,3.908,3.566,4.878-.214-3.338-.456-6.647-.842-9.913a100.46,100.46,0,0,0-2.311-13.08c-.285.1-8.2,2.724-11.953,2.311-3.252-.357-7.3-1.726-9.072-4.707a5.805,5.805,0,0,1,2.282-8.344c4.465-2.068,12.11,2.382,15.091,5.606.2.214,2.268,3.01,3.209,4.365L546,528.2a74.175,74.175,0,0,0-4.65-12.524c-1.027-2.239-2.14-4.279-3.266-6.3-1.426.642-7.945,3.495-11.411,3.495s-7.46-.913-9.542-3.68a5.805,5.805,0,0,1,1.355-8.558c4.279-2.553,12.3,1.041,15.69,3.908.185.157,1.84,1.954,3.024,3.266-.513-.884-1.041-1.826-1.555-2.667-1.926-3.167-3.894-5.962-5.705-8.416-1.013-1.426-1.954-2.625-2.853-3.78-1.726-.1-8.672-.585-11.653-2.125s-6.19-4.279-6.761-7.674a5.82,5.82,0,0,1,5.135-6.961c4.907-.328,10.441,6.6,12.067,10.684.128.342,1.7,6.1,1.612,6.1h-.114c.884,1.084,1.812,2.254,2.853,3.566,1.811,2.411,3.851,5.163,5.848,8.316a103.846,103.846,0,0,1,5.991,10.455,76.043,76.043,0,0,1,4.978,12.538V528c0-1.426.257-5.463.3-5.705.742-4.279,4.707-12.253,9.571-12.951a5.82,5.82,0,0,1,6.49,5.705C563.586,518.527,560.948,521.879,558.409,523.962Z" fill="#fff" opacity="0.3"/>
      <path id="Path_643" data-name="Path 643" d="M245.335,547.839c0,.071,4.279-4.094,4.55-4.393,2.767-3.409,6.1-11.611,3.438-15.69a5.82,5.82,0,0,0-8.558-1.1c-2.71,2.182-3.495,6.376-3.395,9.656C241.5,540.108,245.335,547.825,245.335,547.839Z" fill="#fff"/>
      <path id="Path_644" data-name="Path 644" d="M171.706,501.054c2.211,3.138,9.7,7.431,9.7,7.446s1.341-5.791,1.426-6.176c.442-4.365-1.3-13.051-5.805-15.02a5.834,5.834,0,0,0-7.774,3.823C168.14,494.436,169.809,498.373,171.706,501.054Z" fill="#fff"/>
      <path id="Path_645" data-name="Path 645" d="M161.322,523.962c2.853,2.353,10.584,4.422,11.211,4.593a101.269,101.269,0,0,0-2.7,13.465c-.371,2.653-.656,5.32-.9,8.016a18.079,18.079,0,0,0-.171-2.51c-.727-4.279-4.707-12.253-9.571-12.951a5.82,5.82,0,0,0-6.476,5.705c-.143,3.466,2.5,6.818,5.021,8.9s9.143,4.022,10.883,4.507c-.086,1.027-.185,2.054-.257,3.081-.4,4.95-.77,9.9-1.269,14.734-.185,1.712-.428,3.38-.656,5.049a18.252,18.252,0,0,0-.143-2.168c-.742-4.279-4.707-12.253-9.571-12.951a5.82,5.82,0,0,0-6.49,5.705c-.143,3.466,2.51,6.818,5.035,8.9s8.558,3.837,10.555,4.407c-.285,1.712-.571,3.423-.927,5.064-.271,1.113-.456,2.211-.785,3.309s-.613,2.2-.913,3.266c-.656,2.068-1.327,4.194-2.011,6.176-.471,1.426-.941,2.71-1.426,4.037.2-1.7.513-5.021.5-5.306-.071-4.393-2.853-12.837-7.488-14.264a5.805,5.805,0,0,0-7.274,4.693c-.67,3.395,1.426,7.132,3.623,9.557,2.4,2.7,9.443,5.82,10.313,6.2-.785,2.2-1.569,4.279-2.354,6.3-1.612,4.165-3.152,7.859-4.522,11.012l2.753,1.655c1.355-3.295,2.853-7.217,4.493-11.639.813-2.225,1.64-4.607,2.453-7.132a63.134,63.134,0,0,0,7.389.784c.742,3.623,4.607,9.685,5.106,10.47-1.869,1.426-3.694,2.724-5.434,3.951-3.423,2.439-6.561,4.55-9.328,6.347l2.967,1.8c2.439-1.7,5.149-3.623,8.059-5.777,1.911-1.426,3.908-2.953,5.962-4.55.685.642,6.362,5.877,9.785,7.018,3.109,1.041,7.36,1.426,10.227-.471a5.82,5.82,0,0,0,1.426-8.558c-3.181-3.751-12-2.853-16.061-1.241-.242.1-2.71,1.426-4.279,2.354.842-.67,1.655-1.3,2.5-1.983,1.683-1.341,3.323-2.739,5.106-4.279l2.51-2.282c.856-.742,1.669-1.64,2.51-2.453,1.911-1.954,3.766-4.022,5.591-6.148,1.184,1.426,5.463,6.647,8.387,8.145s7.046,2.6,10.17,1.084a5.805,5.805,0,0,0,2.7-8.216c-2.567-4.193-11.411-4.693-15.69-3.651-.271,0-3.252,1.155-4.864,1.783,1.07-1.284,2.168-2.567,3.209-3.908,3.052-3.851,6.005-7.845,8.972-11.825l2.739-3.623c.414.528,5.377,6.775,8.658,8.458,2.853,1.5,7.046,2.6,10.17,1.084a5.805,5.805,0,0,0,2.7-8.216c-2.567-4.194-11.411-4.693-15.69-3.651-.314.071-4.593,1.655-5.705,2.1,2.011-2.653,4.051-5.278,6.162-7.788a101.656,101.656,0,0,1,9.143-9.642c.2.243,5.335,6.79,8.7,8.558,2.853,1.5,7.046,2.6,10.17,1.084a5.805,5.805,0,0,0,2.7-8.216c-2.567-4.194-11.411-4.693-15.69-3.651-.271.071-3.537,1.255-5.078,1.869a1.426,1.426,0,0,0-.143-.242,74.839,74.839,0,0,1,10.783-7.874c2.1-1.3,4.165-2.411,6.2-3.452.827,1.312,4.707,7.3,7.56,9.186s6.718,3.352,9.985,2.2a5.82,5.82,0,0,0,3.58-7.888c-2.025-4.336-10.8-5.763-15.077-5.192-.228,0-2.61.613-4.279,1.056.927-.456,1.869-.941,2.767-1.426,3.366-1.583,6.533-2.853,9.357-3.908,1.612-.6,3.081-1.113,4.45-1.569,1.5.87,7.56,4.279,10.9,4.636s7.5-.128,9.87-2.653a5.805,5.805,0,0,0-.456-8.644c-3.908-2.981-12.338-.257-15.933,2.254-.314.214-4.793,4.165-4.721,4.208h.1c-1.341.428-2.767.9-4.279,1.426-2.853,1.027-6.062,2.2-9.457,3.723a101.559,101.559,0,0,0-10.769,5.42,75.952,75.952,0,0,0-11.069,7.7.855.855,0,0,0-.114.114,53.506,53.506,0,0,0,2.853-4.978c1.769-4.022,2.853-12.837-.842-16.089a5.82,5.82,0,0,0-8.558,1.212c-2.04,2.853-1.683,7.132-.713,10.2,1.084,3.537,6.39,9.542,6.818,9.985a100.948,100.948,0,0,0-9.685,9.756c-1.754,2-3.466,4.079-5.163,6.176.628-1.07,1.184-2.04,1.255-2.182,1.769-4.022,2.853-12.837-.842-16.075a5.82,5.82,0,0,0-8.558,1.2c-2.04,2.853-1.683,7.132-.713,10.213s5.392,8.387,6.59,9.742c-.642.813-1.3,1.626-1.926,2.439-3.067,3.908-6.091,7.831-9.186,11.582-1.1,1.327-2.211,2.582-3.338,3.851.571-.956,1.027-1.754,1.084-1.883,1.769-4.022,2.853-12.837-.842-16.089a5.819,5.819,0,0,0-8.558,1.212c-2.025,2.853-1.669,7.132-.713,10.2s4.978,7.874,6.376,9.5c-1.184,1.269-2.368,2.539-3.566,3.709-.842.784-1.6,1.6-2.482,2.325l-2.7,2.425c-1.683,1.355-3.409,2.767-5.078,4.051-1.17.9-2.282,1.726-3.409,2.567,1.1-1.3,3.2-3.894,3.352-4.136a22.48,22.48,0,0,0,3.1-10.969,7.872,7.872,0,0,0,.6-1.141,5.82,5.82,0,0,0-3.537-7.9c-4.707-1.426-11.611,4.194-14.064,7.831-.143.214-1.426,2.71-2.268,4.279.328-1.013.67-1.983,1-3.024.656-2.054,1.255-4.122,1.911-6.347.271-1.084.556-2.182.842-3.295s.485-2.282.727-3.423c.528-2.7.927-5.434,1.284-8.216,1.8.585,8.216,2.525,11.5,2.168s7.3-1.726,9.072-4.707a5.805,5.805,0,0,0-2.282-8.344c-4.465-2.083-12.124,2.382-15.105,5.606-.185.2-2.068,2.753-3.067,4.165.185-1.669.4-3.323.542-5.021.4-4.892.656-9.856.941-14.806.086-1.526.2-3.038.285-4.55.642.214,8.23,2.7,11.9,2.3,3.252-.371,7.3-1.726,9.072-4.707a5.805,5.805,0,0,0-2.282-8.344c-4.465-2.083-12.11,2.382-15.091,5.606-.228.242-2.938,3.908-3.566,4.878.214-3.338.456-6.647.827-9.913a102.941,102.941,0,0,1,2.311-13.08c.3.1,8.2,2.724,11.953,2.311,3.266-.357,7.317-1.726,9.086-4.707a5.82,5.82,0,0,0-2.3-8.344c-4.45-2.068-12.11,2.382-15.091,5.606-.185.214-2.254,3.01-3.209,4.365l-.242-.114a74.17,74.17,0,0,1,4.65-12.523c1.027-2.239,2.14-4.279,3.266-6.3,1.426.642,7.945,3.495,11.411,3.495s7.446-.913,9.542-3.68a5.805,5.805,0,0,0-1.355-8.558c-4.208-2.553-12.31,1.041-15.619,3.908-.185.157-1.84,1.954-3.038,3.266.528-.884,1.041-1.826,1.555-2.667,1.94-3.167,3.894-5.962,5.705-8.416,1-1.426,1.94-2.625,2.853-3.78,1.726-.1,8.658-.585,11.639-2.125s6.19-4.279,6.775-7.674a5.82,5.82,0,0,0-5.149-6.961c-4.892-.328-10.427,6.6-12.053,10.683-.143.342-1.7,6.1-1.612,6.1h.1c-.87,1.084-1.811,2.254-2.853,3.566-1.826,2.411-3.851,5.163-5.848,8.316a98.627,98.627,0,0,0-5.991,10.455,74.8,74.8,0,0,0-4.978,12.538v.157c0-1.426-.257-5.463-.314-5.706-.727-4.279-4.707-12.252-9.571-12.951a5.82,5.82,0,0,0-6.476,5.705C156.144,518.527,158.783,521.879,161.322,523.962Z" fill="#fff"/>
      <path id="Path_646" data-name="Path 646" d="M171.706,501.054c2.211,3.138,9.7,7.431,9.7,7.446s1.341-5.791,1.426-6.176c.442-4.365-1.3-13.051-5.805-15.02a5.834,5.834,0,0,0-7.774,3.823C168.14,494.436,169.809,498.373,171.706,501.054Z" fill="#fff" opacity="0.3"/>
      <path id="Path_647" data-name="Path 647" d="M245.335,547.839c0,.071,4.279-4.094,4.55-4.393,2.767-3.409,6.1-11.611,3.438-15.69a5.82,5.82,0,0,0-8.558-1.1c-2.71,2.182-3.495,6.376-3.395,9.656C241.5,540.108,245.335,547.825,245.335,547.839Z" fill="#fff" opacity="0.3"/>
      <path id="Path_648" data-name="Path 648" d="M161.322,523.962c2.853,2.353,10.584,4.422,11.211,4.593a101.269,101.269,0,0,0-2.7,13.465c-.371,2.653-.656,5.32-.9,8.016a18.079,18.079,0,0,0-.171-2.51c-.727-4.279-4.707-12.253-9.571-12.951a5.82,5.82,0,0,0-6.476,5.705c-.143,3.466,2.5,6.818,5.021,8.9s9.143,4.022,10.883,4.507c-.086,1.027-.185,2.054-.257,3.081-.4,4.95-.77,9.9-1.269,14.734-.185,1.712-.428,3.38-.656,5.049a18.252,18.252,0,0,0-.143-2.168c-.742-4.279-4.707-12.253-9.571-12.951a5.82,5.82,0,0,0-6.49,5.705c-.143,3.466,2.51,6.818,5.035,8.9s8.558,3.837,10.555,4.407c-.285,1.712-.571,3.423-.927,5.064-.271,1.113-.456,2.211-.785,3.309s-.613,2.2-.913,3.266c-.656,2.068-1.327,4.194-2.011,6.176-.471,1.426-.941,2.71-1.426,4.037.2-1.7.513-5.021.5-5.306-.071-4.393-2.853-12.837-7.488-14.264a5.805,5.805,0,0,0-7.274,4.693c-.67,3.395,1.426,7.132,3.623,9.557,2.4,2.7,9.443,5.82,10.313,6.2-.785,2.2-1.569,4.279-2.354,6.3-1.612,4.165-3.152,7.859-4.522,11.012l2.753,1.655c1.355-3.295,2.853-7.217,4.493-11.639.813-2.225,1.64-4.607,2.453-7.132a63.134,63.134,0,0,0,7.389.784c.742,3.623,4.607,9.685,5.106,10.47-1.869,1.426-3.694,2.724-5.434,3.951-3.423,2.439-6.561,4.55-9.328,6.347l2.967,1.8c2.439-1.7,5.149-3.623,8.059-5.777,1.911-1.426,3.908-2.953,5.962-4.55.685.642,6.362,5.877,9.785,7.018,3.109,1.041,7.36,1.426,10.227-.471a5.82,5.82,0,0,0,1.426-8.558c-3.181-3.751-12-2.853-16.061-1.241-.242.1-2.71,1.426-4.279,2.354.842-.67,1.655-1.3,2.5-1.983,1.683-1.341,3.323-2.739,5.106-4.279l2.51-2.282c.856-.742,1.669-1.64,2.51-2.453,1.911-1.954,3.766-4.022,5.591-6.148,1.184,1.426,5.463,6.647,8.387,8.145s7.046,2.6,10.17,1.084a5.805,5.805,0,0,0,2.7-8.216c-2.567-4.193-11.411-4.693-15.69-3.651-.271,0-3.252,1.155-4.864,1.783,1.07-1.284,2.168-2.567,3.209-3.908,3.052-3.851,6.005-7.845,8.972-11.825l2.739-3.623c.414.528,5.377,6.775,8.658,8.458,2.853,1.5,7.046,2.6,10.17,1.084a5.805,5.805,0,0,0,2.7-8.216c-2.567-4.194-11.411-4.693-15.69-3.651-.314.071-4.593,1.655-5.705,2.1,2.011-2.653,4.051-5.278,6.162-7.788a101.656,101.656,0,0,1,9.143-9.642c.2.243,5.335,6.79,8.7,8.558,2.853,1.5,7.046,2.6,10.17,1.084a5.805,5.805,0,0,0,2.7-8.216c-2.567-4.194-11.411-4.693-15.69-3.651-.271.071-3.537,1.255-5.078,1.869a1.426,1.426,0,0,0-.143-.242,74.839,74.839,0,0,1,10.783-7.874c2.1-1.3,4.165-2.411,6.2-3.452.827,1.312,4.707,7.3,7.56,9.186s6.718,3.352,9.985,2.2a5.82,5.82,0,0,0,3.58-7.888c-2.025-4.336-10.8-5.763-15.077-5.192-.228,0-2.61.613-4.279,1.056.927-.456,1.869-.941,2.767-1.426,3.366-1.583,6.533-2.853,9.357-3.908,1.612-.6,3.081-1.113,4.45-1.569,1.5.87,7.56,4.279,10.9,4.636s7.5-.128,9.87-2.653a5.805,5.805,0,0,0-.456-8.644c-3.908-2.981-12.338-.257-15.933,2.254-.314.214-4.793,4.165-4.721,4.208h.1c-1.341.428-2.767.9-4.279,1.426-2.853,1.027-6.062,2.2-9.457,3.723a101.559,101.559,0,0,0-10.769,5.42,75.952,75.952,0,0,0-11.069,7.7.855.855,0,0,0-.114.114,53.506,53.506,0,0,0,2.853-4.978c1.769-4.022,2.853-12.837-.842-16.089a5.82,5.82,0,0,0-8.558,1.212c-2.04,2.853-1.683,7.132-.713,10.2,1.084,3.537,6.39,9.542,6.818,9.985a100.948,100.948,0,0,0-9.685,9.756c-1.754,2-3.466,4.079-5.163,6.176.628-1.07,1.184-2.04,1.255-2.182,1.769-4.022,2.853-12.837-.842-16.075a5.82,5.82,0,0,0-8.558,1.2c-2.04,2.853-1.683,7.132-.713,10.213s5.392,8.387,6.59,9.742c-.642.813-1.3,1.626-1.926,2.439-3.067,3.908-6.091,7.831-9.186,11.582-1.1,1.327-2.211,2.582-3.338,3.851.571-.956,1.027-1.754,1.084-1.883,1.769-4.022,2.853-12.837-.842-16.089a5.819,5.819,0,0,0-8.558,1.212c-2.025,2.853-1.669,7.132-.713,10.2s4.978,7.874,6.376,9.5c-1.184,1.269-2.368,2.539-3.566,3.709-.842.784-1.6,1.6-2.482,2.325l-2.7,2.425c-1.683,1.355-3.409,2.767-5.078,4.051-1.17.9-2.282,1.726-3.409,2.567,1.1-1.3,3.2-3.894,3.352-4.136a22.48,22.48,0,0,0,3.1-10.969,7.872,7.872,0,0,0,.6-1.141,5.82,5.82,0,0,0-3.537-7.9c-4.707-1.426-11.611,4.194-14.064,7.831-.143.214-1.426,2.71-2.268,4.279.328-1.013.67-1.983,1-3.024.656-2.054,1.255-4.122,1.911-6.347.271-1.084.556-2.182.842-3.295s.485-2.282.727-3.423c.528-2.7.927-5.434,1.284-8.216,1.8.585,8.216,2.525,11.5,2.168s7.3-1.726,9.072-4.707a5.805,5.805,0,0,0-2.282-8.344c-4.465-2.083-12.124,2.382-15.105,5.606-.185.2-2.068,2.753-3.067,4.165.185-1.669.4-3.323.542-5.021.4-4.892.656-9.856.941-14.806.086-1.526.2-3.038.285-4.55.642.214,8.23,2.7,11.9,2.3,3.252-.371,7.3-1.726,9.072-4.707a5.805,5.805,0,0,0-2.282-8.344c-4.465-2.083-12.11,2.382-15.091,5.606-.228.242-2.938,3.908-3.566,4.878.214-3.338.456-6.647.827-9.913a102.941,102.941,0,0,1,2.311-13.08c.3.1,8.2,2.724,11.953,2.311,3.266-.357,7.317-1.726,9.086-4.707a5.82,5.82,0,0,0-2.3-8.344c-4.45-2.068-12.11,2.382-15.091,5.606-.185.214-2.254,3.01-3.209,4.365l-.242-.114a74.17,74.17,0,0,1,4.65-12.523c1.027-2.239,2.14-4.279,3.266-6.3,1.426.642,7.945,3.495,11.411,3.495s7.446-.913,9.542-3.68a5.805,5.805,0,0,0-1.355-8.558c-4.208-2.553-12.31,1.041-15.619,3.908-.185.157-1.84,1.954-3.038,3.266.528-.884,1.041-1.826,1.555-2.667,1.94-3.167,3.894-5.962,5.705-8.416,1-1.426,1.94-2.625,2.853-3.78,1.726-.1,8.658-.585,11.639-2.125s6.19-4.279,6.775-7.674a5.82,5.82,0,0,0-5.149-6.961c-4.892-.328-10.427,6.6-12.053,10.683-.143.342-1.7,6.1-1.612,6.1h.1c-.87,1.084-1.811,2.254-2.853,3.566-1.826,2.411-3.851,5.163-5.848,8.316a98.627,98.627,0,0,0-5.991,10.455,74.8,74.8,0,0,0-4.978,12.538v.157c0-1.426-.257-5.463-.314-5.706-.727-4.279-4.707-12.252-9.571-12.951a5.82,5.82,0,0,0-6.476,5.705C156.144,518.527,158.783,521.879,161.322,523.962Z" fill="#fff" opacity="0.3"/>
    </g>
    <g id="freepik--Sign--inject-3">
      <rect id="Rectangle_83" data-name="Rectangle 83" width="250.613" height="282.378" transform="translate(233.054 49.666)" fill="#fff" stroke="#263238" stroke-miterlimit="10" stroke-width="1.426"/>
      <path id="Path_649" data-name="Path 649" d="M483.667,158.327,233.054,213.955V49.666H483.667Z" fill="#0dbdb8" stroke="#263238" stroke-miterlimit="10" stroke-width="1.426"/>
    </g>
    <g id="freepik--Stars--inject-3">
      <path id="Path_650" data-name="Path 650" d="M438.009,269.255l3.68,7.46,8.244,1.2-5.962,5.805,1.4,8.2-7.36-3.88-7.36,3.88,1.412-8.2-5.962-5.805,8.23-1.2Z" fill="#0dbdb8" stroke="#263238" stroke-miterlimit="10" stroke-width="1.426"/>
      <path id="Path_651" data-name="Path 651" d="M282.678,269.255l3.68,7.46,8.23,1.2-5.962,5.805,1.412,8.2-7.36-3.88-7.374,3.88,1.412-8.2-5.962-5.805,8.23-1.2Z" fill="#0dbdb8" stroke="#263238" stroke-miterlimit="10" stroke-width="1.426"/>
    </g>
    <g id="freepik--light-bulb--inject-3">
      <path id="Path_652" data-name="Path 652" d="M388.485,178.995a29.069,29.069,0,1,0-51.349,18.543,28.527,28.527,0,0,1,6.618,18.343v3.994h31.38v-3.994a28.528,28.528,0,0,1,6.619-18.273A28.926,28.926,0,0,0,388.485,178.995Z" fill="#fff" stroke="#263238" stroke-linecap="round" stroke-linejoin="round" stroke-width="4.279"/>
      <rect id="Rectangle_84" data-name="Rectangle 84" width="31.423" height="7.774" transform="translate(343.698 219.875)" fill="#fff" stroke="#263238" stroke-linecap="round" stroke-linejoin="round" stroke-width="4.279"/>
      <path id="Path_653" data-name="Path 653" d="M343.755,227.677h31.38v1.041a6.747,6.747,0,0,1-6.747,6.747H350.444a6.747,6.747,0,0,1-6.747-6.747v-1.041Z" fill="#fff" stroke="#263238" stroke-linecap="round" stroke-linejoin="round" stroke-width="4.279"/>
      <path id="Path_654" data-name="Path 654" d="M363.381,243.21h-7.945a7.774,7.774,0,0,1-7.774-7.774h23.492a7.774,7.774,0,0,1-7.774,7.774Z" fill="#fff" stroke="#263238" stroke-linecap="round" stroke-linejoin="round" stroke-width="4.279"/>
      <line id="Line_32" data-name="Line 32" x2="13.322" transform="translate(392.608 179.152)" fill="none" stroke="#263238" stroke-linecap="round" stroke-linejoin="round" stroke-width="4.279"/>
      <line id="Line_33" data-name="Line 33" x2="13.493" transform="translate(311.647 179.152)" fill="none" stroke="#263238" stroke-linecap="round" stroke-linejoin="round" stroke-width="4.279"/>
      <line id="Line_34" data-name="Line 34" y1="13.351" transform="translate(358.789 132.01)" fill="none" stroke="#263238" stroke-linecap="round" stroke-linejoin="round" stroke-width="4.279"/>
      <line id="Line_35" data-name="Line 35" y1="9.186" x2="9.2" transform="translate(382.923 145.818)" fill="none" stroke="#263238" stroke-linecap="round" stroke-linejoin="round" stroke-width="4.279"/>
      <line id="Line_36" data-name="Line 36" y1="9.328" x2="9.328" transform="translate(325.454 203.158)" fill="none" stroke="#263238" stroke-linecap="round" stroke-linejoin="round" stroke-width="4.279"/>
      <line id="Line_37" data-name="Line 37" x1="8.929" y1="8.929" transform="translate(325.454 145.818)" fill="none" stroke="#263238" stroke-linecap="round" stroke-linejoin="round" stroke-width="4.279"/>
      <line id="Line_38" data-name="Line 38" x1="8.886" y1="8.901" transform="translate(383.236 203.585)" fill="none" stroke="#263238" stroke-linecap="round" stroke-linejoin="round" stroke-width="4.279"/>
    </g>
    <g id="freepik--Texts--inject-3">
      <path id="Path_655" data-name="Path 655" d="M264.434,124.565h-9.029V67.039h9.029V91.73H274.7V67.039h9.143v57.525h-9.186V99.931h-10.27Z" fill="#263238"/>
      <path id="Path_656" data-name="Path 656" d="M299.537,91.288h12.4v8.2h-12.4V116.32h15.547v8.216H290.466v-57.5h24.619v8.273H299.537Z" fill="#263238"/>
      <path id="Path_657" data-name="Path 657" d="M320.662,67.039H329.7v49.31h14.849v8.216H320.662Z" fill="#263238"/>
      <path id="Path_658" data-name="Path 658" d="M375.249,81.3v7.474c0,9.186-4.422,14.192-13.451,14.192h-4.279v21.6H348.49V67.039H361.8C370.856,67.039,375.249,72.1,375.249,81.3Zm-17.73-5.991V94.768H361.8c2.853,0,4.422-1.312,4.422-5.42V80.789c0-4.108-1.555-5.42-4.422-5.42Z" fill="#263238"/>
      <path id="Path_659" data-name="Path 659" d="M388.471,92.628h11.653v8.2H388.471v23.735h-9.057V67.039h23.892v8.273H388.471Z" fill="#263238"/>
      <path id="Path_660" data-name="Path 660" d="M416.3,67.039v44.389c0,4.108,1.8,5.577,4.678,5.577s4.678-1.426,4.678-5.577V67.039h8.558v43.818c0,9.186-4.593,14.435-13.451,14.435S407.3,120.043,407.3,110.857V67.039Z" fill="#263238"/>
      <path id="Path_661" data-name="Path 661" d="M440.348,67.039h9.029v49.31H464.24v8.216H440.348Z" fill="#263238"/>
      <path id="Path_662" data-name="Path 662" d="M311.847,310.634v-51.62h-10.6V253.18h27.5v5.834H318.166v51.62Z" fill="#263238"/>
      <path id="Path_663" data-name="Path 663" d="M339.475,253.18v57.454h-6.4V253.18Z" fill="#263238"/>
      <path id="Path_664" data-name="Path 664" d="M358.632,253.18c9.029,0,12.837,5.335,12.837,14.035v6.9c0,9.1-4.279,13.864-13.379,13.864h-5.705v22.651h-6.39V253.18Zm-.485,29.055c4.75,0,7.046-2.211,7.046-7.717v-7.631c0-5.249-1.883-7.874-6.561-7.874H352.47v23.221Z" fill="#263238"/>
      <path id="Path_665" data-name="Path 665" d="M401.394,266.973v1.555h-6.076v-1.883c0-5.178-1.968-8.216-6.561-8.216s-6.561,3.038-6.561,8.13c0,12.837,19.284,14.121,19.284,30.3,0,8.7-4.194,14.364-12.966,14.364s-12.837-5.705-12.837-14.364v-3.295h5.991v3.623c0,5.163,2.14,8.2,6.732,8.2s6.7-3,6.7-8.2c0-12.837-19.2-14.035-19.2-30.21,0-8.872,4.094-14.364,12.723-14.364S401.394,258.272,401.394,266.973Z" fill="#263238"/>
      <path id="Path_666" data-name="Path 666" d="M407.057,280.181v-27h6.4v27l-.813,17.73h-4.707Zm6.247,22.494v7.959h-6.162v-7.959Z" fill="#263238"/>
    </g>
    <g id="freepik--Graphics--inject-3">
      <line id="Line_39" data-name="Line 39" x2="18.543" y2="18.543" transform="translate(78.45 369.429)" fill="none" stroke="#263238" stroke-miterlimit="10" stroke-width="1.426"/>
      <line id="Line_40" data-name="Line 40" x1="18.543" y2="18.543" transform="translate(78.45 369.429)" fill="none" stroke="#263238" stroke-miterlimit="10" stroke-width="1.426"/>
      <line id="Line_41" data-name="Line 41" x2="18.543" y2="18.543" transform="translate(526.33 480.686)" fill="none" stroke="#263238" stroke-miterlimit="10" stroke-width="1.426"/>
      <line id="Line_42" data-name="Line 42" x1="18.543" y2="18.543" transform="translate(526.33 480.686)" fill="none" stroke="#263238" stroke-miterlimit="10" stroke-width="1.426"/>
      <line id="Line_43" data-name="Line 43" x2="18.543" y2="18.543" transform="translate(159.753 604.78)" fill="none" stroke="#263238" stroke-miterlimit="10" stroke-width="1.426"/>
      <line id="Line_44" data-name="Line 44" x1="18.543" y2="18.543" transform="translate(159.753 604.78)" fill="none" stroke="#263238" stroke-miterlimit="10" stroke-width="1.426"/>
      <line id="Line_45" data-name="Line 45" x2="18.543" y2="18.543" transform="translate(109.83 112.683)" fill="none" stroke="#263238" stroke-miterlimit="10" stroke-width="1.426"/>
      <line id="Line_46" data-name="Line 46" x1="18.543" y2="18.543" transform="translate(109.83 112.683)" fill="none" stroke="#263238" stroke-miterlimit="10" stroke-width="1.426"/>
      <line id="Line_47" data-name="Line 47" x2="18.543" y2="18.543" transform="translate(626.175 279.568)" fill="none" stroke="#263238" stroke-miterlimit="10" stroke-width="1.426"/>
      <line id="Line_48" data-name="Line 48" x1="18.543" y2="18.543" transform="translate(626.175 279.568)" fill="none" stroke="#263238" stroke-miterlimit="10" stroke-width="1.426"/>
      <line id="Line_49" data-name="Line 49" x2="18.543" y2="18.543" transform="translate(559.136 185.428)" fill="none" stroke="#263238" stroke-miterlimit="10" stroke-width="1.426"/>
      <line id="Line_50" data-name="Line 50" x1="18.543" y2="18.543" transform="translate(559.136 185.428)" fill="none" stroke="#263238" stroke-miterlimit="10" stroke-width="1.426"/>
      <circle id="Ellipse_21" data-name="Ellipse 21" cx="7.132" cy="7.132" r="7.132" transform="translate(132.652 439.321)" fill="none" stroke="#263238" stroke-miterlimit="10" stroke-width="1.426"/>
      <circle id="Ellipse_22" data-name="Ellipse 22" cx="7.132" cy="7.132" r="7.132" transform="translate(172.59 228.219)" fill="none" stroke="#263238" stroke-miterlimit="10" stroke-width="1.426"/>
      <circle id="Ellipse_23" data-name="Ellipse 23" cx="7.132" cy="7.132" r="7.132" transform="translate(77.024 213.955)" fill="none" stroke="#263238" stroke-miterlimit="10" stroke-width="1.426"/>
      <circle id="Ellipse_24" data-name="Ellipse 24" cx="7.132" cy="7.132" r="7.132" transform="translate(590.516 96.993)" fill="none" stroke="#263238" stroke-miterlimit="10" stroke-width="1.426"/>
      <circle id="Ellipse_25" data-name="Ellipse 25" cx="7.132" cy="7.132" r="7.132" transform="translate(540.593 359.445)" fill="none" stroke="#263238" stroke-miterlimit="10" stroke-width="1.426"/>
      <circle id="Ellipse_26" data-name="Ellipse 26" cx="7.132" cy="7.132" r="7.132" transform="translate(457.864 566.268)" fill="none" stroke="#263238" stroke-miterlimit="10" stroke-width="1.426"/>
    </g>
    <g id="freepik--Character--inject-3">
      <path id="Path_667" data-name="Path 667" d="M218.634,294.688s12.923-17.815,16.774-18.543,16.76,9.785,18.158,11.183-1.426,2.453-2.853,2.453-13.622-4.194-13.622-4.194l-4.536,5.934Z" fill="#fff" stroke="#263238" stroke-miterlimit="10" stroke-width="1.426"/>
      <path id="Path_668" data-name="Path 668" d="M219.661,339.475l-3.152-40.181s-.342-5.591,3.851-7.346,26.2-5.577,27.943-5.934,12.581,14.264,12.581,14.264l.7,6.989,3.495,9.785a13.137,13.137,0,0,1-6.29-.357c-3.152-1.041-10.127-3.837-10.127-3.837h-6.647s1.056,13.279,1.056,17.473-9.443,12.923-9.443,12.923l-.7,4.536-14.264-5.235Z" fill="#fff" stroke="#263238" stroke-miterlimit="10" stroke-width="1.426"/>
      <path id="Path_669" data-name="Path 669" d="M235.351,304.13h17.116c1.426,0,11.183,10.127,11.183,10.127" fill="none" stroke="#263238" stroke-miterlimit="10" stroke-width="1.426"/>
      <path id="Path_670" data-name="Path 670" d="M231.214,296.085s18.172-3.138,19.969-2.439,10.484,13.622,10.484,13.622" fill="none" stroke="#263238" stroke-miterlimit="10" stroke-width="1.426"/>
      <path id="Path_671" data-name="Path 671" d="M215.139,349.189l3.152-13.265,17.815,6.975-2.1,17.473Z" fill="#fff" stroke="#263238" stroke-miterlimit="10" stroke-width="1.426"/>
      <path id="Path_672" data-name="Path 672" d="M497.417,294.688s-12.923-17.815-16.774-18.543-16.774,9.785-18.172,11.183,1.426,2.453,2.853,2.453,13.636-4.194,13.636-4.194l4.536,5.934Z" fill="#fff" stroke="#263238" stroke-miterlimit="10" stroke-width="1.426"/>
      <path id="Path_673" data-name="Path 673" d="M496.376,339.475l3.152-40.181s.342-5.591-3.851-7.346-26.2-5.577-27.943-5.934-12.581,14.264-12.581,14.264l-.7,6.989-3.495,9.785a13.137,13.137,0,0,0,6.29-.357c3.138-1.041,10.127-3.837,10.127-3.837h6.647s-1.056,13.279-1.056,17.473,9.443,12.923,9.443,12.923l.7,4.536,14.264-5.235Z" fill="#fff" stroke="#263238" stroke-miterlimit="10" stroke-width="1.426"/>
      <path id="Path_674" data-name="Path 674" d="M480.686,304.13H463.569c-1.426,0-11.183,10.127-11.183,10.127" fill="none" stroke="#263238" stroke-miterlimit="10" stroke-width="1.426"/>
      <path id="Path_675" data-name="Path 675" d="M484.837,296.085s-18.172-3.138-19.969-2.439-10.484,13.622-10.484,13.622" fill="none" stroke="#263238" stroke-miterlimit="10" stroke-width="1.426"/>
      <path id="Path_676" data-name="Path 676" d="M500.912,349.189l-3.152-13.265L479.944,342.9l2.1,17.473Z" fill="#fff" stroke="#263238" stroke-miterlimit="10" stroke-width="1.426"/>
      <path id="Path_677" data-name="Path 677" d="M501.468,348.034l-20.311,9.2a6.561,6.561,0,0,0-3.851,6.019l.528,57.525s-39.168,40.352-41.907,42.306-19.969-3.124-25.475,2.753-14.877,10.569-14.877,10.569l-6.276-1.954-59.151-2.325-10.184,4.693-14.877,3.865s-13.322-10.969-16.061-11.753-15.69-4.279-15.69-4.279l-37.984-34.9s3.138-68.551-.385-71.689-21.153-12.538-23.121-9.785-19.969,99.1-18.015,105.366S270.61,524.96,270.61,524.96l7.8,132.067c44.845,12.837,92.029,12.352,141.667,2.1l6.832-130.242s52.49-51.706,68.152-67.767,25.076-28.984,26.259-31.38c1.027-2.068-12.937-65.142-16.246-79.991a2.6,2.6,0,0,0-3.609-1.712Z" fill="#fff" stroke="#263238" stroke-miterlimit="10" stroke-width="1.426"/>
      <path id="Path_678" data-name="Path 678" d="M271.423,487.333l-.813,37.6L261.6,476.763" fill="none" stroke="#263238" stroke-miterlimit="10" stroke-width="1.426"/>
      <line id="Line_51" data-name="Line 51" x1="0.242" y2="11.611" transform="translate(271.538 470.887)" fill="none" stroke="#263238" stroke-miterlimit="10" stroke-width="1.426"/>
      <path id="Path_679" data-name="Path 679" d="M431.148,493.851l-4.236,35L436.7,488.9" fill="none" stroke="#263238" stroke-miterlimit="10" stroke-width="1.426"/>
      <line id="Line_52" data-name="Line 52" x1="0.941" y2="7.788" transform="translate(431.847 480.287)" fill="none" stroke="#263238" stroke-miterlimit="10" stroke-width="1.426"/>
      <path id="Path_680" data-name="Path 680" d="M310.52,513.35a79.622,79.622,0,0,0,3.181,11.2" fill="none" stroke="#263238" stroke-miterlimit="10" stroke-width="1.426"/>
      <path id="Path_681" data-name="Path 681" d="M307.439,484.594a159.5,159.5,0,0,0,2.182,24.091" fill="none" stroke="#263238" stroke-miterlimit="10" stroke-width="1.426"/>
      <path id="Path_682" data-name="Path 682" d="M391.923,519.069c-.3,2.853-.642,5.534-1.056,7.831" fill="none" stroke="#263238" stroke-miterlimit="10" stroke-width="1.426"/>
      <path id="Path_683" data-name="Path 683" d="M393.677,479.5s0,19.37-1.284,35.174" fill="none" stroke="#263238" stroke-miterlimit="10" stroke-width="1.426"/>
      <path id="Path_684" data-name="Path 684" d="M389.7,490.856s-8.23,28.6-14.492,41.921" fill="none" stroke="#263238" stroke-miterlimit="10" stroke-width="1.426"/>
      <path id="Path_685" data-name="Path 685" d="M334.07,503.394l10.969,22.323-9.015,106.55,15.276,29,15.676-30.553L354.438,525.716l14.891-25.461L350.915,483.81Z" fill="#263238" stroke="#263238" stroke-miterlimit="10" stroke-width="1.426"/>
      <path id="Path_686" data-name="Path 686" d="M327.808,468.533l-11.753,7.046,7.046,46.229,21.153-21.153,1.954,7.446,8.63,3.908,6.262-5.877.785-5.092,15.661,17.245L389.3,474.41l-14.093-7.061Z" fill="#fff" stroke="#263238" stroke-miterlimit="10" stroke-width="1.426"/>
      <path id="Path_687" data-name="Path 687" d="M330.932,449.734l-3.124,18.8,18.015,26.63,8.23,15.276,4.693-13.308,16.46-29.783-2.753-15.661Z" fill="#fff" stroke="#263238" stroke-miterlimit="10" stroke-width="1.426"/>
      <path id="Path_688" data-name="Path 688" d="M374.25,461.958l-1.17-6.732-8.986-3.937-29.954-1.426-3.452,1-1.426,8.358c4.935,7.132,16.631,23.278,21.567,24.576C355.608,485.036,368.1,469.888,374.25,461.958Z" fill="#263238"/>
      <path id="Path_689" data-name="Path 689" d="M319.064,425.414s-5.449-8.387-7.132,2.1,10.912,16.774,10.912,16.774a128.911,128.911,0,0,0,7.545,14.264c2.938,4.193,14.677,10.912,25.175,10.07s20.968-8.387,22.223-11.325,6.718-14.264,6.718-14.264,8.387-9.229,8.387-16.36-7.56-5.862-7.56-5.862l.428-28.527s8.8-5.035,4.194-9.642-14.677-6.718-14.677-6.718,11.739-4.607,9.229-11.739S370.242,353.7,355.137,358.3s-19.712,14.264-19.712,14.264-2.1-6.7-7.973-3.352-14.677,19.712-13.408,23.906a22.679,22.679,0,0,0,5.021,7.973Z" fill="#fff" stroke="#263238" stroke-miterlimit="10" stroke-width="1.426"/>
      <path id="Path_690" data-name="Path 690" d="M360.172,406.957l-.414,16.36H350.53" fill="none" stroke="#263238" stroke-miterlimit="10" stroke-width="1.426"/>
      <path id="Path_691" data-name="Path 691" d="M336.623,429.608s5.035,7.973,11.753,7.973,10.9.842,15.519-1.255a12.937,12.937,0,0,0,6.29-6.3" fill="none" stroke="#263238" stroke-miterlimit="10" stroke-width="1.426"/>
      <line id="Line_53" data-name="Line 53" x2="7.56" transform="translate(334.583 420.807)" fill="none" stroke="#263238" stroke-miterlimit="10" stroke-width="1.426"/>
      <line id="Line_54" data-name="Line 54" x2="10.07" transform="translate(364.779 419.965)" fill="none" stroke="#263238" stroke-miterlimit="10" stroke-width="1.426"/>
      <ellipse id="Ellipse_27" data-name="Ellipse 27" cx="2.51" cy="3.352" rx="2.51" ry="3.352" transform="translate(338.363 409.895)" fill="#263238"/>
      <ellipse id="Ellipse_28" data-name="Ellipse 28" cx="2.51" cy="3.352" rx="2.51" ry="3.352" transform="translate(365.635 409.895)" fill="#263238"/>
      <path id="Path_692" data-name="Path 692" d="M385.333,420.778l.428-28.527s8.8-5.035,4.194-9.642-14.677-6.718-14.677-6.718,11.739-4.607,9.229-11.739-14.264-10.484-29.369-5.877-19.712,14.264-19.712,14.264-2.1-6.7-7.973-3.352-14.677,19.712-13.408,23.906a22.679,22.679,0,0,0,5.021,7.973v24.32h2.468s-.785-17.6.785-20.34,7.831-6.661,8.23-10.969,18.414-14.107,29.383-12.538,13.308,9.015,17.616,11.411,3.138,2.354,3.138,2.354v27.03l6.276-1.569h0a9.246,9.246,0,0,0-1.626.014Z" fill="#263238"/>
      <path id="Path_693" data-name="Path 693" d="M333.285,403.505s4.279-6.661,12.923-2.353" fill="none" stroke="#263238" stroke-miterlimit="10" stroke-width="1.426"/>
      <path id="Path_694" data-name="Path 694" d="M360.315,399.583s6.661-7.046,14.891,1.184" fill="none" stroke="#263238" stroke-miterlimit="10" stroke-width="1.426"/>
      <line id="Line_55" data-name="Line 55" x1="0.385" y2="19.185" transform="translate(383.821 425.443)" fill="none" stroke="#263238" stroke-miterlimit="10" stroke-width="1.426"/>
      <line id="Line_56" data-name="Line 56" x2="2.482" y2="14.535" transform="translate(320.362 429.75)" fill="none" stroke="#263238" stroke-miterlimit="10" stroke-width="1.426"/>
    </g>
  </g>
</svg>
