<svg xmlns="http://www.w3.org/2000/svg" width="140" height="45.255" viewBox="0 0 140 45.255">
	<path id="Icon_payment-visa" data-name="Icon payment-visa" d="M26.155,23.521c-.549-2.806-2.666-3.692-5.127-3.692H2.705l-.135.886c12.576,3.214,22.9,10.051,27.551,22.971Zm5.127,26.25-1.161-6.084a27.444,27.444,0,0,0-14.77-14.9L24.58,63.648H36.544l17.845-43.82H42.354L31.282,49.771ZM63.208,63.714l7.1-43.884H58.967L51.856,63.714ZM94.171,19.076c-11.211,0-19.069,5.95-19.139,14.49-.07,6.293,5.605,9.776,9.91,11.9,4.445,2.118,5.88,3.553,5.88,5.466,0,2.94-3.553,4.241-6.766,4.241a21.507,21.507,0,0,1-10.664-2.257l-1.5-.752L70.314,62A33.062,33.062,0,0,0,82.96,64.331c11.895.07,19.622-5.88,19.757-14.969,0-4.992-3.074-8.75-9.572-11.9-3.962-1.978-6.353-3.419-6.353-5.466,0-1.844,2.048-3.762,6.493-3.762a18.855,18.855,0,0,1,8.476,1.645l1.026.543,1.57-9.5a28.2,28.2,0,0,0-10.185-1.847Zm30.491.753c-2.736,0-4.788.822-5.95,3.692L101.9,63.714H113.79c1.918-5.4,2.4-6.563,2.4-6.563h14.49s.345,1.5,1.365,6.563h10.529l-9.159-43.884h-8.75Zm-5.267,28.3s.956-2.531,4.515-12.237c-.07.07.956-2.531,1.505-4.171l.818,3.762c2.118,10.459,2.6,12.646,2.6,12.646H119.4Z" transform="translate(-2.571 -19.076)" fill="#fff" />
</svg>
